%TF.GenerationSoftware,KiCad,Pcbnew,(6.0.11)*%
%TF.CreationDate,2023-05-22T16:35:14-05:00*%
%TF.ProjectId,Z80ESP,5a383045-5350-42e6-9b69-6361645f7063,rev?*%
%TF.SameCoordinates,Original*%
%TF.FileFunction,AssemblyDrawing,Top*%
%FSLAX46Y46*%
G04 Gerber Fmt 4.6, Leading zero omitted, Abs format (unit mm)*
G04 Created by KiCad (PCBNEW (6.0.11)) date 2023-05-22 16:35:14*
%MOMM*%
%LPD*%
G01*
G04 APERTURE LIST*
%ADD10C,0.120000*%
%ADD11C,0.150000*%
%ADD12C,0.100000*%
G04 APERTURE END LIST*
D10*
%TO.C,SW1*%
X139945952Y-112364404D02*
X139869761Y-112326309D01*
X139831666Y-112288214D01*
X139793571Y-112212023D01*
X139793571Y-111983452D01*
X139831666Y-111907261D01*
X139869761Y-111869166D01*
X139945952Y-111831071D01*
X140060238Y-111831071D01*
X140136428Y-111869166D01*
X140174523Y-111907261D01*
X140212619Y-111983452D01*
X140212619Y-112212023D01*
X140174523Y-112288214D01*
X140136428Y-112326309D01*
X140060238Y-112364404D01*
X139945952Y-112364404D01*
X140555476Y-111831071D02*
X140555476Y-112364404D01*
X140555476Y-111907261D02*
X140593571Y-111869166D01*
X140669761Y-111831071D01*
X140784047Y-111831071D01*
X140860238Y-111869166D01*
X140898333Y-111945357D01*
X140898333Y-112364404D01*
X142593809Y-123456666D02*
X142631904Y-123342380D01*
X142631904Y-123151904D01*
X142593809Y-123075714D01*
X142555714Y-123037619D01*
X142479523Y-122999523D01*
X142403333Y-122999523D01*
X142327142Y-123037619D01*
X142289047Y-123075714D01*
X142250952Y-123151904D01*
X142212857Y-123304285D01*
X142174761Y-123380476D01*
X142136666Y-123418571D01*
X142060476Y-123456666D01*
X141984285Y-123456666D01*
X141908095Y-123418571D01*
X141870000Y-123380476D01*
X141831904Y-123304285D01*
X141831904Y-123113809D01*
X141870000Y-122999523D01*
X141831904Y-122732857D02*
X142631904Y-122542380D01*
X142060476Y-122390000D01*
X142631904Y-122237619D01*
X141831904Y-122047142D01*
X142631904Y-121323333D02*
X142631904Y-121780476D01*
X142631904Y-121551904D02*
X141831904Y-121551904D01*
X141946190Y-121628095D01*
X142022380Y-121704285D01*
X142060476Y-121780476D01*
D11*
%TO.C,C1*%
X83333333Y-106857142D02*
X83285714Y-106904761D01*
X83142857Y-106952380D01*
X83047619Y-106952380D01*
X82904761Y-106904761D01*
X82809523Y-106809523D01*
X82761904Y-106714285D01*
X82714285Y-106523809D01*
X82714285Y-106380952D01*
X82761904Y-106190476D01*
X82809523Y-106095238D01*
X82904761Y-106000000D01*
X83047619Y-105952380D01*
X83142857Y-105952380D01*
X83285714Y-106000000D01*
X83333333Y-106047619D01*
X84285714Y-106952380D02*
X83714285Y-106952380D01*
X84000000Y-106952380D02*
X84000000Y-105952380D01*
X83904761Y-106095238D01*
X83809523Y-106190476D01*
X83714285Y-106238095D01*
%TO.C,C2*%
X93583333Y-106857142D02*
X93535714Y-106904761D01*
X93392857Y-106952380D01*
X93297619Y-106952380D01*
X93154761Y-106904761D01*
X93059523Y-106809523D01*
X93011904Y-106714285D01*
X92964285Y-106523809D01*
X92964285Y-106380952D01*
X93011904Y-106190476D01*
X93059523Y-106095238D01*
X93154761Y-106000000D01*
X93297619Y-105952380D01*
X93392857Y-105952380D01*
X93535714Y-106000000D01*
X93583333Y-106047619D01*
X93964285Y-106047619D02*
X94011904Y-106000000D01*
X94107142Y-105952380D01*
X94345238Y-105952380D01*
X94440476Y-106000000D01*
X94488095Y-106047619D01*
X94535714Y-106142857D01*
X94535714Y-106238095D01*
X94488095Y-106380952D01*
X93916666Y-106952380D01*
X94535714Y-106952380D01*
%TO.C,C4*%
X114583333Y-106607142D02*
X114535714Y-106654761D01*
X114392857Y-106702380D01*
X114297619Y-106702380D01*
X114154761Y-106654761D01*
X114059523Y-106559523D01*
X114011904Y-106464285D01*
X113964285Y-106273809D01*
X113964285Y-106130952D01*
X114011904Y-105940476D01*
X114059523Y-105845238D01*
X114154761Y-105750000D01*
X114297619Y-105702380D01*
X114392857Y-105702380D01*
X114535714Y-105750000D01*
X114583333Y-105797619D01*
X115440476Y-106035714D02*
X115440476Y-106702380D01*
X115202380Y-105654761D02*
X114964285Y-106369047D01*
X115583333Y-106369047D01*
%TO.C,U2*%
X111298095Y-121882380D02*
X111298095Y-122691904D01*
X111345714Y-122787142D01*
X111393333Y-122834761D01*
X111488571Y-122882380D01*
X111679047Y-122882380D01*
X111774285Y-122834761D01*
X111821904Y-122787142D01*
X111869523Y-122691904D01*
X111869523Y-121882380D01*
X112298095Y-121977619D02*
X112345714Y-121930000D01*
X112440952Y-121882380D01*
X112679047Y-121882380D01*
X112774285Y-121930000D01*
X112821904Y-121977619D01*
X112869523Y-122072857D01*
X112869523Y-122168095D01*
X112821904Y-122310952D01*
X112250476Y-122882380D01*
X112869523Y-122882380D01*
%TO.C,U10*%
X123071904Y-121882380D02*
X123071904Y-122691904D01*
X123119523Y-122787142D01*
X123167142Y-122834761D01*
X123262380Y-122882380D01*
X123452857Y-122882380D01*
X123548095Y-122834761D01*
X123595714Y-122787142D01*
X123643333Y-122691904D01*
X123643333Y-121882380D01*
X124643333Y-122882380D02*
X124071904Y-122882380D01*
X124357619Y-122882380D02*
X124357619Y-121882380D01*
X124262380Y-122025238D01*
X124167142Y-122120476D01*
X124071904Y-122168095D01*
X125262380Y-121882380D02*
X125357619Y-121882380D01*
X125452857Y-121930000D01*
X125500476Y-121977619D01*
X125548095Y-122072857D01*
X125595714Y-122263333D01*
X125595714Y-122501428D01*
X125548095Y-122691904D01*
X125500476Y-122787142D01*
X125452857Y-122834761D01*
X125357619Y-122882380D01*
X125262380Y-122882380D01*
X125167142Y-122834761D01*
X125119523Y-122787142D01*
X125071904Y-122691904D01*
X125024285Y-122501428D01*
X125024285Y-122263333D01*
X125071904Y-122072857D01*
X125119523Y-121977619D01*
X125167142Y-121930000D01*
X125262380Y-121882380D01*
%TO.C,RR1*%
X130833333Y-134202380D02*
X130500000Y-133726190D01*
X130261904Y-134202380D02*
X130261904Y-133202380D01*
X130642857Y-133202380D01*
X130738095Y-133250000D01*
X130785714Y-133297619D01*
X130833333Y-133392857D01*
X130833333Y-133535714D01*
X130785714Y-133630952D01*
X130738095Y-133678571D01*
X130642857Y-133726190D01*
X130261904Y-133726190D01*
X131833333Y-134202380D02*
X131500000Y-133726190D01*
X131261904Y-134202380D02*
X131261904Y-133202380D01*
X131642857Y-133202380D01*
X131738095Y-133250000D01*
X131785714Y-133297619D01*
X131833333Y-133392857D01*
X131833333Y-133535714D01*
X131785714Y-133630952D01*
X131738095Y-133678571D01*
X131642857Y-133726190D01*
X131261904Y-133726190D01*
X132785714Y-134202380D02*
X132214285Y-134202380D01*
X132500000Y-134202380D02*
X132500000Y-133202380D01*
X132404761Y-133345238D01*
X132309523Y-133440476D01*
X132214285Y-133488095D01*
%TO.C,U6*%
X74548095Y-118072380D02*
X74548095Y-118881904D01*
X74595714Y-118977142D01*
X74643333Y-119024761D01*
X74738571Y-119072380D01*
X74929047Y-119072380D01*
X75024285Y-119024761D01*
X75071904Y-118977142D01*
X75119523Y-118881904D01*
X75119523Y-118072380D01*
X76024285Y-118072380D02*
X75833809Y-118072380D01*
X75738571Y-118120000D01*
X75690952Y-118167619D01*
X75595714Y-118310476D01*
X75548095Y-118500952D01*
X75548095Y-118881904D01*
X75595714Y-118977142D01*
X75643333Y-119024761D01*
X75738571Y-119072380D01*
X75929047Y-119072380D01*
X76024285Y-119024761D01*
X76071904Y-118977142D01*
X76119523Y-118881904D01*
X76119523Y-118643809D01*
X76071904Y-118548571D01*
X76024285Y-118500952D01*
X75929047Y-118453333D01*
X75738571Y-118453333D01*
X75643333Y-118500952D01*
X75595714Y-118548571D01*
X75548095Y-118643809D01*
%TO.C,C7*%
X72583333Y-106857142D02*
X72535714Y-106904761D01*
X72392857Y-106952380D01*
X72297619Y-106952380D01*
X72154761Y-106904761D01*
X72059523Y-106809523D01*
X72011904Y-106714285D01*
X71964285Y-106523809D01*
X71964285Y-106380952D01*
X72011904Y-106190476D01*
X72059523Y-106095238D01*
X72154761Y-106000000D01*
X72297619Y-105952380D01*
X72392857Y-105952380D01*
X72535714Y-106000000D01*
X72583333Y-106047619D01*
X72916666Y-105952380D02*
X73583333Y-105952380D01*
X73154761Y-106952380D01*
%TO.C,U3*%
X99048095Y-121882380D02*
X99048095Y-122691904D01*
X99095714Y-122787142D01*
X99143333Y-122834761D01*
X99238571Y-122882380D01*
X99429047Y-122882380D01*
X99524285Y-122834761D01*
X99571904Y-122787142D01*
X99619523Y-122691904D01*
X99619523Y-121882380D01*
X100000476Y-121882380D02*
X100619523Y-121882380D01*
X100286190Y-122263333D01*
X100429047Y-122263333D01*
X100524285Y-122310952D01*
X100571904Y-122358571D01*
X100619523Y-122453809D01*
X100619523Y-122691904D01*
X100571904Y-122787142D01*
X100524285Y-122834761D01*
X100429047Y-122882380D01*
X100143333Y-122882380D01*
X100048095Y-122834761D01*
X100000476Y-122787142D01*
%TO.C,C3*%
X104083333Y-106857142D02*
X104035714Y-106904761D01*
X103892857Y-106952380D01*
X103797619Y-106952380D01*
X103654761Y-106904761D01*
X103559523Y-106809523D01*
X103511904Y-106714285D01*
X103464285Y-106523809D01*
X103464285Y-106380952D01*
X103511904Y-106190476D01*
X103559523Y-106095238D01*
X103654761Y-106000000D01*
X103797619Y-105952380D01*
X103892857Y-105952380D01*
X104035714Y-106000000D01*
X104083333Y-106047619D01*
X104416666Y-105952380D02*
X105035714Y-105952380D01*
X104702380Y-106333333D01*
X104845238Y-106333333D01*
X104940476Y-106380952D01*
X104988095Y-106428571D01*
X105035714Y-106523809D01*
X105035714Y-106761904D01*
X104988095Y-106857142D01*
X104940476Y-106904761D01*
X104845238Y-106952380D01*
X104559523Y-106952380D01*
X104464285Y-106904761D01*
X104416666Y-106857142D01*
%TO.C,C5*%
X125083333Y-106857142D02*
X125035714Y-106904761D01*
X124892857Y-106952380D01*
X124797619Y-106952380D01*
X124654761Y-106904761D01*
X124559523Y-106809523D01*
X124511904Y-106714285D01*
X124464285Y-106523809D01*
X124464285Y-106380952D01*
X124511904Y-106190476D01*
X124559523Y-106095238D01*
X124654761Y-106000000D01*
X124797619Y-105952380D01*
X124892857Y-105952380D01*
X125035714Y-106000000D01*
X125083333Y-106047619D01*
X125988095Y-105952380D02*
X125511904Y-105952380D01*
X125464285Y-106428571D01*
X125511904Y-106380952D01*
X125607142Y-106333333D01*
X125845238Y-106333333D01*
X125940476Y-106380952D01*
X125988095Y-106428571D01*
X126035714Y-106523809D01*
X126035714Y-106761904D01*
X125988095Y-106857142D01*
X125940476Y-106904761D01*
X125845238Y-106952380D01*
X125607142Y-106952380D01*
X125511904Y-106904761D01*
X125464285Y-106857142D01*
%TO.C,U4*%
X86798095Y-121882380D02*
X86798095Y-122691904D01*
X86845714Y-122787142D01*
X86893333Y-122834761D01*
X86988571Y-122882380D01*
X87179047Y-122882380D01*
X87274285Y-122834761D01*
X87321904Y-122787142D01*
X87369523Y-122691904D01*
X87369523Y-121882380D01*
X88274285Y-122215714D02*
X88274285Y-122882380D01*
X88036190Y-121834761D02*
X87798095Y-122549047D01*
X88417142Y-122549047D01*
%TO.C,C6*%
X49083333Y-104607142D02*
X49035714Y-104654761D01*
X48892857Y-104702380D01*
X48797619Y-104702380D01*
X48654761Y-104654761D01*
X48559523Y-104559523D01*
X48511904Y-104464285D01*
X48464285Y-104273809D01*
X48464285Y-104130952D01*
X48511904Y-103940476D01*
X48559523Y-103845238D01*
X48654761Y-103750000D01*
X48797619Y-103702380D01*
X48892857Y-103702380D01*
X49035714Y-103750000D01*
X49083333Y-103797619D01*
X49940476Y-103702380D02*
X49750000Y-103702380D01*
X49654761Y-103750000D01*
X49607142Y-103797619D01*
X49511904Y-103940476D01*
X49464285Y-104130952D01*
X49464285Y-104511904D01*
X49511904Y-104607142D01*
X49559523Y-104654761D01*
X49654761Y-104702380D01*
X49845238Y-104702380D01*
X49940476Y-104654761D01*
X49988095Y-104607142D01*
X50035714Y-104511904D01*
X50035714Y-104273809D01*
X49988095Y-104178571D01*
X49940476Y-104130952D01*
X49845238Y-104083333D01*
X49654761Y-104083333D01*
X49559523Y-104130952D01*
X49511904Y-104178571D01*
X49464285Y-104273809D01*
%TO.C,C11*%
X74267142Y-40997142D02*
X74219523Y-41044761D01*
X74076666Y-41092380D01*
X73981428Y-41092380D01*
X73838571Y-41044761D01*
X73743333Y-40949523D01*
X73695714Y-40854285D01*
X73648095Y-40663809D01*
X73648095Y-40520952D01*
X73695714Y-40330476D01*
X73743333Y-40235238D01*
X73838571Y-40140000D01*
X73981428Y-40092380D01*
X74076666Y-40092380D01*
X74219523Y-40140000D01*
X74267142Y-40187619D01*
X75219523Y-41092380D02*
X74648095Y-41092380D01*
X74933809Y-41092380D02*
X74933809Y-40092380D01*
X74838571Y-40235238D01*
X74743333Y-40330476D01*
X74648095Y-40378095D01*
X76171904Y-41092380D02*
X75600476Y-41092380D01*
X75886190Y-41092380D02*
X75886190Y-40092380D01*
X75790952Y-40235238D01*
X75695714Y-40330476D01*
X75600476Y-40378095D01*
%TO.C,C8*%
X50833333Y-131107142D02*
X50785714Y-131154761D01*
X50642857Y-131202380D01*
X50547619Y-131202380D01*
X50404761Y-131154761D01*
X50309523Y-131059523D01*
X50261904Y-130964285D01*
X50214285Y-130773809D01*
X50214285Y-130630952D01*
X50261904Y-130440476D01*
X50309523Y-130345238D01*
X50404761Y-130250000D01*
X50547619Y-130202380D01*
X50642857Y-130202380D01*
X50785714Y-130250000D01*
X50833333Y-130297619D01*
X51404761Y-130630952D02*
X51309523Y-130583333D01*
X51261904Y-130535714D01*
X51214285Y-130440476D01*
X51214285Y-130392857D01*
X51261904Y-130297619D01*
X51309523Y-130250000D01*
X51404761Y-130202380D01*
X51595238Y-130202380D01*
X51690476Y-130250000D01*
X51738095Y-130297619D01*
X51785714Y-130392857D01*
X51785714Y-130440476D01*
X51738095Y-130535714D01*
X51690476Y-130583333D01*
X51595238Y-130630952D01*
X51404761Y-130630952D01*
X51309523Y-130678571D01*
X51261904Y-130726190D01*
X51214285Y-130821428D01*
X51214285Y-131011904D01*
X51261904Y-131107142D01*
X51309523Y-131154761D01*
X51404761Y-131202380D01*
X51595238Y-131202380D01*
X51690476Y-131154761D01*
X51738095Y-131107142D01*
X51785714Y-131011904D01*
X51785714Y-130821428D01*
X51738095Y-130726190D01*
X51690476Y-130678571D01*
X51595238Y-130630952D01*
%TO.C,C12*%
X64857142Y-142857142D02*
X64809523Y-142904761D01*
X64666666Y-142952380D01*
X64571428Y-142952380D01*
X64428571Y-142904761D01*
X64333333Y-142809523D01*
X64285714Y-142714285D01*
X64238095Y-142523809D01*
X64238095Y-142380952D01*
X64285714Y-142190476D01*
X64333333Y-142095238D01*
X64428571Y-142000000D01*
X64571428Y-141952380D01*
X64666666Y-141952380D01*
X64809523Y-142000000D01*
X64857142Y-142047619D01*
X65809523Y-142952380D02*
X65238095Y-142952380D01*
X65523809Y-142952380D02*
X65523809Y-141952380D01*
X65428571Y-142095238D01*
X65333333Y-142190476D01*
X65238095Y-142238095D01*
X66190476Y-142047619D02*
X66238095Y-142000000D01*
X66333333Y-141952380D01*
X66571428Y-141952380D01*
X66666666Y-142000000D01*
X66714285Y-142047619D01*
X66761904Y-142142857D01*
X66761904Y-142238095D01*
X66714285Y-142380952D01*
X66142857Y-142952380D01*
X66761904Y-142952380D01*
%TO.C,R2*%
X63333333Y-53792380D02*
X63000000Y-53316190D01*
X62761904Y-53792380D02*
X62761904Y-52792380D01*
X63142857Y-52792380D01*
X63238095Y-52840000D01*
X63285714Y-52887619D01*
X63333333Y-52982857D01*
X63333333Y-53125714D01*
X63285714Y-53220952D01*
X63238095Y-53268571D01*
X63142857Y-53316190D01*
X62761904Y-53316190D01*
X63714285Y-52887619D02*
X63761904Y-52840000D01*
X63857142Y-52792380D01*
X64095238Y-52792380D01*
X64190476Y-52840000D01*
X64238095Y-52887619D01*
X64285714Y-52982857D01*
X64285714Y-53078095D01*
X64238095Y-53220952D01*
X63666666Y-53792380D01*
X64285714Y-53792380D01*
%TO.C,H1*%
X47488095Y-37702380D02*
X47488095Y-36702380D01*
X47488095Y-37178571D02*
X48059523Y-37178571D01*
X48059523Y-37702380D02*
X48059523Y-36702380D01*
X49059523Y-37702380D02*
X48488095Y-37702380D01*
X48773809Y-37702380D02*
X48773809Y-36702380D01*
X48678571Y-36845238D01*
X48583333Y-36940476D01*
X48488095Y-36988095D01*
X47538095Y-34452380D02*
X47538095Y-33452380D01*
X47538095Y-33928571D02*
X48109523Y-33928571D01*
X48109523Y-34452380D02*
X48109523Y-33452380D01*
X49109523Y-34452380D02*
X48538095Y-34452380D01*
X48823809Y-34452380D02*
X48823809Y-33452380D01*
X48728571Y-33595238D01*
X48633333Y-33690476D01*
X48538095Y-33738095D01*
%TO.C,H2*%
X138238095Y-32452380D02*
X138238095Y-31452380D01*
X138238095Y-31928571D02*
X138809523Y-31928571D01*
X138809523Y-32452380D02*
X138809523Y-31452380D01*
X139238095Y-31547619D02*
X139285714Y-31500000D01*
X139380952Y-31452380D01*
X139619047Y-31452380D01*
X139714285Y-31500000D01*
X139761904Y-31547619D01*
X139809523Y-31642857D01*
X139809523Y-31738095D01*
X139761904Y-31880952D01*
X139190476Y-32452380D01*
X139809523Y-32452380D01*
X143428571Y-42190476D02*
X143476190Y-42047619D01*
X143523809Y-42000000D01*
X143619047Y-41952380D01*
X143761904Y-41952380D01*
X143857142Y-42000000D01*
X143904761Y-42047619D01*
X143952380Y-42142857D01*
X143952380Y-42523809D01*
X142952380Y-42523809D01*
X142952380Y-42190476D01*
X143000000Y-42095238D01*
X143047619Y-42047619D01*
X143142857Y-42000000D01*
X143238095Y-42000000D01*
X143333333Y-42047619D01*
X143380952Y-42095238D01*
X143428571Y-42190476D01*
X143428571Y-42523809D01*
X143952380Y-40952380D02*
X143476190Y-41285714D01*
X143952380Y-41523809D02*
X142952380Y-41523809D01*
X142952380Y-41142857D01*
X143000000Y-41047619D01*
X143047619Y-41000000D01*
X143142857Y-40952380D01*
X143285714Y-40952380D01*
X143380952Y-41000000D01*
X143428571Y-41047619D01*
X143476190Y-41142857D01*
X143476190Y-41523809D01*
X143666666Y-40571428D02*
X143666666Y-40095238D01*
X143952380Y-40666666D02*
X142952380Y-40333333D01*
X143952380Y-40000000D01*
X143857142Y-39095238D02*
X143904761Y-39142857D01*
X143952380Y-39285714D01*
X143952380Y-39380952D01*
X143904761Y-39523809D01*
X143809523Y-39619047D01*
X143714285Y-39666666D01*
X143523809Y-39714285D01*
X143380952Y-39714285D01*
X143190476Y-39666666D01*
X143095238Y-39619047D01*
X143000000Y-39523809D01*
X142952380Y-39380952D01*
X142952380Y-39285714D01*
X143000000Y-39142857D01*
X143047619Y-39095238D01*
X143952380Y-38666666D02*
X142952380Y-38666666D01*
X143952380Y-38095238D02*
X143380952Y-38523809D01*
X142952380Y-38095238D02*
X143523809Y-38666666D01*
X143428571Y-37666666D02*
X143428571Y-37333333D01*
X143952380Y-37190476D02*
X143952380Y-37666666D01*
X142952380Y-37666666D01*
X142952380Y-37190476D01*
X142952380Y-36904761D02*
X142952380Y-36333333D01*
X143952380Y-36619047D02*
X142952380Y-36619047D01*
X141538095Y-34452380D02*
X141538095Y-33452380D01*
X141538095Y-33928571D02*
X142109523Y-33928571D01*
X142109523Y-34452380D02*
X142109523Y-33452380D01*
X142538095Y-33547619D02*
X142585714Y-33500000D01*
X142680952Y-33452380D01*
X142919047Y-33452380D01*
X143014285Y-33500000D01*
X143061904Y-33547619D01*
X143109523Y-33642857D01*
X143109523Y-33738095D01*
X143061904Y-33880952D01*
X142490476Y-34452380D01*
X143109523Y-34452380D01*
%TO.C,P2*%
X106011904Y-138952380D02*
X106011904Y-137952380D01*
X106392857Y-137952380D01*
X106488095Y-138000000D01*
X106535714Y-138047619D01*
X106583333Y-138142857D01*
X106583333Y-138285714D01*
X106535714Y-138380952D01*
X106488095Y-138428571D01*
X106392857Y-138476190D01*
X106011904Y-138476190D01*
X106964285Y-138047619D02*
X107011904Y-138000000D01*
X107107142Y-137952380D01*
X107345238Y-137952380D01*
X107440476Y-138000000D01*
X107488095Y-138047619D01*
X107535714Y-138142857D01*
X107535714Y-138238095D01*
X107488095Y-138380952D01*
X106916666Y-138952380D01*
X107535714Y-138952380D01*
%TO.C,R10*%
X62798342Y-57856380D02*
X62465009Y-57380190D01*
X62226914Y-57856380D02*
X62226914Y-56856380D01*
X62607866Y-56856380D01*
X62703104Y-56904000D01*
X62750723Y-56951619D01*
X62798342Y-57046857D01*
X62798342Y-57189714D01*
X62750723Y-57284952D01*
X62703104Y-57332571D01*
X62607866Y-57380190D01*
X62226914Y-57380190D01*
X63750723Y-57856380D02*
X63179295Y-57856380D01*
X63465009Y-57856380D02*
X63465009Y-56856380D01*
X63369771Y-56999238D01*
X63274533Y-57094476D01*
X63179295Y-57142095D01*
X64369771Y-56856380D02*
X64465009Y-56856380D01*
X64560247Y-56904000D01*
X64607866Y-56951619D01*
X64655485Y-57046857D01*
X64703104Y-57237333D01*
X64703104Y-57475428D01*
X64655485Y-57665904D01*
X64607866Y-57761142D01*
X64560247Y-57808761D01*
X64465009Y-57856380D01*
X64369771Y-57856380D01*
X64274533Y-57808761D01*
X64226914Y-57761142D01*
X64179295Y-57665904D01*
X64131676Y-57475428D01*
X64131676Y-57237333D01*
X64179295Y-57046857D01*
X64226914Y-56951619D01*
X64274533Y-56904000D01*
X64369771Y-56856380D01*
%TO.C,U8*%
X50048095Y-118072380D02*
X50048095Y-118881904D01*
X50095714Y-118977142D01*
X50143333Y-119024761D01*
X50238571Y-119072380D01*
X50429047Y-119072380D01*
X50524285Y-119024761D01*
X50571904Y-118977142D01*
X50619523Y-118881904D01*
X50619523Y-118072380D01*
X51238571Y-118500952D02*
X51143333Y-118453333D01*
X51095714Y-118405714D01*
X51048095Y-118310476D01*
X51048095Y-118262857D01*
X51095714Y-118167619D01*
X51143333Y-118120000D01*
X51238571Y-118072380D01*
X51429047Y-118072380D01*
X51524285Y-118120000D01*
X51571904Y-118167619D01*
X51619523Y-118262857D01*
X51619523Y-118310476D01*
X51571904Y-118405714D01*
X51524285Y-118453333D01*
X51429047Y-118500952D01*
X51238571Y-118500952D01*
X51143333Y-118548571D01*
X51095714Y-118596190D01*
X51048095Y-118691428D01*
X51048095Y-118881904D01*
X51095714Y-118977142D01*
X51143333Y-119024761D01*
X51238571Y-119072380D01*
X51429047Y-119072380D01*
X51524285Y-119024761D01*
X51571904Y-118977142D01*
X51619523Y-118881904D01*
X51619523Y-118691428D01*
X51571904Y-118596190D01*
X51524285Y-118548571D01*
X51429047Y-118500952D01*
%TO.C,D4*%
X59337142Y-31907142D02*
X59289523Y-31954761D01*
X59146666Y-32002380D01*
X59051428Y-32002380D01*
X58908571Y-31954761D01*
X58813333Y-31859523D01*
X58765714Y-31764285D01*
X58718095Y-31573809D01*
X58718095Y-31430952D01*
X58765714Y-31240476D01*
X58813333Y-31145238D01*
X58908571Y-31050000D01*
X59051428Y-31002380D01*
X59146666Y-31002380D01*
X59289523Y-31050000D01*
X59337142Y-31097619D01*
X59718095Y-31954761D02*
X59860952Y-32002380D01*
X60099047Y-32002380D01*
X60194285Y-31954761D01*
X60241904Y-31907142D01*
X60289523Y-31811904D01*
X60289523Y-31716666D01*
X60241904Y-31621428D01*
X60194285Y-31573809D01*
X60099047Y-31526190D01*
X59908571Y-31478571D01*
X59813333Y-31430952D01*
X59765714Y-31383333D01*
X59718095Y-31288095D01*
X59718095Y-31192857D01*
X59765714Y-31097619D01*
X59813333Y-31050000D01*
X59908571Y-31002380D01*
X60146666Y-31002380D01*
X60289523Y-31050000D01*
X60908571Y-31002380D02*
X61003809Y-31002380D01*
X61099047Y-31050000D01*
X61146666Y-31097619D01*
X61194285Y-31192857D01*
X61241904Y-31383333D01*
X61241904Y-31621428D01*
X61194285Y-31811904D01*
X61146666Y-31907142D01*
X61099047Y-31954761D01*
X61003809Y-32002380D01*
X60908571Y-32002380D01*
X60813333Y-31954761D01*
X60765714Y-31907142D01*
X60718095Y-31811904D01*
X60670476Y-31621428D01*
X60670476Y-31383333D01*
X60718095Y-31192857D01*
X60765714Y-31097619D01*
X60813333Y-31050000D01*
X60908571Y-31002380D01*
%TO.C,U12*%
X107574404Y-69622380D02*
X107574404Y-70431904D01*
X107622023Y-70527142D01*
X107669642Y-70574761D01*
X107764880Y-70622380D01*
X107955357Y-70622380D01*
X108050595Y-70574761D01*
X108098214Y-70527142D01*
X108145833Y-70431904D01*
X108145833Y-69622380D01*
X109145833Y-70622380D02*
X108574404Y-70622380D01*
X108860119Y-70622380D02*
X108860119Y-69622380D01*
X108764880Y-69765238D01*
X108669642Y-69860476D01*
X108574404Y-69908095D01*
X109526785Y-69717619D02*
X109574404Y-69670000D01*
X109669642Y-69622380D01*
X109907738Y-69622380D01*
X110002976Y-69670000D01*
X110050595Y-69717619D01*
X110098214Y-69812857D01*
X110098214Y-69908095D01*
X110050595Y-70050952D01*
X109479166Y-70622380D01*
X110098214Y-70622380D01*
X87154880Y-59348095D02*
X87964404Y-59348095D01*
X88059642Y-59300476D01*
X88107261Y-59252857D01*
X88154880Y-59157619D01*
X88154880Y-58967142D01*
X88107261Y-58871904D01*
X88059642Y-58824285D01*
X87964404Y-58776666D01*
X87154880Y-58776666D01*
X88154880Y-57776666D02*
X88154880Y-58348095D01*
X88154880Y-58062380D02*
X87154880Y-58062380D01*
X87297738Y-58157619D01*
X87392976Y-58252857D01*
X87440595Y-58348095D01*
X87250119Y-57395714D02*
X87202500Y-57348095D01*
X87154880Y-57252857D01*
X87154880Y-57014761D01*
X87202500Y-56919523D01*
X87250119Y-56871904D01*
X87345357Y-56824285D01*
X87440595Y-56824285D01*
X87583452Y-56871904D01*
X88154880Y-57443333D01*
X88154880Y-56824285D01*
%TO.C,U13*%
X107574404Y-101102380D02*
X107574404Y-101911904D01*
X107622023Y-102007142D01*
X107669642Y-102054761D01*
X107764880Y-102102380D01*
X107955357Y-102102380D01*
X108050595Y-102054761D01*
X108098214Y-102007142D01*
X108145833Y-101911904D01*
X108145833Y-101102380D01*
X109145833Y-102102380D02*
X108574404Y-102102380D01*
X108860119Y-102102380D02*
X108860119Y-101102380D01*
X108764880Y-101245238D01*
X108669642Y-101340476D01*
X108574404Y-101388095D01*
X109479166Y-101102380D02*
X110098214Y-101102380D01*
X109764880Y-101483333D01*
X109907738Y-101483333D01*
X110002976Y-101530952D01*
X110050595Y-101578571D01*
X110098214Y-101673809D01*
X110098214Y-101911904D01*
X110050595Y-102007142D01*
X110002976Y-102054761D01*
X109907738Y-102102380D01*
X109622023Y-102102380D01*
X109526785Y-102054761D01*
X109479166Y-102007142D01*
X87154880Y-90828095D02*
X87964404Y-90828095D01*
X88059642Y-90780476D01*
X88107261Y-90732857D01*
X88154880Y-90637619D01*
X88154880Y-90447142D01*
X88107261Y-90351904D01*
X88059642Y-90304285D01*
X87964404Y-90256666D01*
X87154880Y-90256666D01*
X88154880Y-89256666D02*
X88154880Y-89828095D01*
X88154880Y-89542380D02*
X87154880Y-89542380D01*
X87297738Y-89637619D01*
X87392976Y-89732857D01*
X87440595Y-89828095D01*
X87154880Y-88923333D02*
X87154880Y-88304285D01*
X87535833Y-88637619D01*
X87535833Y-88494761D01*
X87583452Y-88399523D01*
X87631071Y-88351904D01*
X87726309Y-88304285D01*
X87964404Y-88304285D01*
X88059642Y-88351904D01*
X88107261Y-88399523D01*
X88154880Y-88494761D01*
X88154880Y-88780476D01*
X88107261Y-88875714D01*
X88059642Y-88923333D01*
%TO.C,R16*%
X71047142Y-131202380D02*
X70713809Y-130726190D01*
X70475714Y-131202380D02*
X70475714Y-130202380D01*
X70856666Y-130202380D01*
X70951904Y-130250000D01*
X70999523Y-130297619D01*
X71047142Y-130392857D01*
X71047142Y-130535714D01*
X70999523Y-130630952D01*
X70951904Y-130678571D01*
X70856666Y-130726190D01*
X70475714Y-130726190D01*
X71999523Y-131202380D02*
X71428095Y-131202380D01*
X71713809Y-131202380D02*
X71713809Y-130202380D01*
X71618571Y-130345238D01*
X71523333Y-130440476D01*
X71428095Y-130488095D01*
X72856666Y-130202380D02*
X72666190Y-130202380D01*
X72570952Y-130250000D01*
X72523333Y-130297619D01*
X72428095Y-130440476D01*
X72380476Y-130630952D01*
X72380476Y-131011904D01*
X72428095Y-131107142D01*
X72475714Y-131154761D01*
X72570952Y-131202380D01*
X72761428Y-131202380D01*
X72856666Y-131154761D01*
X72904285Y-131107142D01*
X72951904Y-131011904D01*
X72951904Y-130773809D01*
X72904285Y-130678571D01*
X72856666Y-130630952D01*
X72761428Y-130583333D01*
X72570952Y-130583333D01*
X72475714Y-130630952D01*
X72428095Y-130678571D01*
X72380476Y-130773809D01*
%TO.C,R6*%
X61023333Y-131202380D02*
X60690000Y-130726190D01*
X60451904Y-131202380D02*
X60451904Y-130202380D01*
X60832857Y-130202380D01*
X60928095Y-130250000D01*
X60975714Y-130297619D01*
X61023333Y-130392857D01*
X61023333Y-130535714D01*
X60975714Y-130630952D01*
X60928095Y-130678571D01*
X60832857Y-130726190D01*
X60451904Y-130726190D01*
X61880476Y-130202380D02*
X61690000Y-130202380D01*
X61594761Y-130250000D01*
X61547142Y-130297619D01*
X61451904Y-130440476D01*
X61404285Y-130630952D01*
X61404285Y-131011904D01*
X61451904Y-131107142D01*
X61499523Y-131154761D01*
X61594761Y-131202380D01*
X61785238Y-131202380D01*
X61880476Y-131154761D01*
X61928095Y-131107142D01*
X61975714Y-131011904D01*
X61975714Y-130773809D01*
X61928095Y-130678571D01*
X61880476Y-130630952D01*
X61785238Y-130583333D01*
X61594761Y-130583333D01*
X61499523Y-130630952D01*
X61451904Y-130678571D01*
X61404285Y-130773809D01*
%TO.C,R5*%
X73493333Y-53792380D02*
X73160000Y-53316190D01*
X72921904Y-53792380D02*
X72921904Y-52792380D01*
X73302857Y-52792380D01*
X73398095Y-52840000D01*
X73445714Y-52887619D01*
X73493333Y-52982857D01*
X73493333Y-53125714D01*
X73445714Y-53220952D01*
X73398095Y-53268571D01*
X73302857Y-53316190D01*
X72921904Y-53316190D01*
X74398095Y-52792380D02*
X73921904Y-52792380D01*
X73874285Y-53268571D01*
X73921904Y-53220952D01*
X74017142Y-53173333D01*
X74255238Y-53173333D01*
X74350476Y-53220952D01*
X74398095Y-53268571D01*
X74445714Y-53363809D01*
X74445714Y-53601904D01*
X74398095Y-53697142D01*
X74350476Y-53744761D01*
X74255238Y-53792380D01*
X74017142Y-53792380D01*
X73921904Y-53744761D01*
X73874285Y-53697142D01*
%TO.C,U7*%
X62298095Y-118072380D02*
X62298095Y-118881904D01*
X62345714Y-118977142D01*
X62393333Y-119024761D01*
X62488571Y-119072380D01*
X62679047Y-119072380D01*
X62774285Y-119024761D01*
X62821904Y-118977142D01*
X62869523Y-118881904D01*
X62869523Y-118072380D01*
X63250476Y-118072380D02*
X63917142Y-118072380D01*
X63488571Y-119072380D01*
%TO.C,C10*%
X75517142Y-74017142D02*
X75469523Y-74064761D01*
X75326666Y-74112380D01*
X75231428Y-74112380D01*
X75088571Y-74064761D01*
X74993333Y-73969523D01*
X74945714Y-73874285D01*
X74898095Y-73683809D01*
X74898095Y-73540952D01*
X74945714Y-73350476D01*
X74993333Y-73255238D01*
X75088571Y-73160000D01*
X75231428Y-73112380D01*
X75326666Y-73112380D01*
X75469523Y-73160000D01*
X75517142Y-73207619D01*
X76469523Y-74112380D02*
X75898095Y-74112380D01*
X76183809Y-74112380D02*
X76183809Y-73112380D01*
X76088571Y-73255238D01*
X75993333Y-73350476D01*
X75898095Y-73398095D01*
X77088571Y-73112380D02*
X77183809Y-73112380D01*
X77279047Y-73160000D01*
X77326666Y-73207619D01*
X77374285Y-73302857D01*
X77421904Y-73493333D01*
X77421904Y-73731428D01*
X77374285Y-73921904D01*
X77326666Y-74017142D01*
X77279047Y-74064761D01*
X77183809Y-74112380D01*
X77088571Y-74112380D01*
X76993333Y-74064761D01*
X76945714Y-74017142D01*
X76898095Y-73921904D01*
X76850476Y-73731428D01*
X76850476Y-73493333D01*
X76898095Y-73302857D01*
X76945714Y-73207619D01*
X76993333Y-73160000D01*
X77088571Y-73112380D01*
%TO.C,R7*%
X138893333Y-106952380D02*
X138560000Y-106476190D01*
X138321904Y-106952380D02*
X138321904Y-105952380D01*
X138702857Y-105952380D01*
X138798095Y-106000000D01*
X138845714Y-106047619D01*
X138893333Y-106142857D01*
X138893333Y-106285714D01*
X138845714Y-106380952D01*
X138798095Y-106428571D01*
X138702857Y-106476190D01*
X138321904Y-106476190D01*
X139226666Y-105952380D02*
X139893333Y-105952380D01*
X139464761Y-106952380D01*
%TO.C,R15*%
X133667142Y-136952380D02*
X133333809Y-136476190D01*
X133095714Y-136952380D02*
X133095714Y-135952380D01*
X133476666Y-135952380D01*
X133571904Y-136000000D01*
X133619523Y-136047619D01*
X133667142Y-136142857D01*
X133667142Y-136285714D01*
X133619523Y-136380952D01*
X133571904Y-136428571D01*
X133476666Y-136476190D01*
X133095714Y-136476190D01*
X134619523Y-136952380D02*
X134048095Y-136952380D01*
X134333809Y-136952380D02*
X134333809Y-135952380D01*
X134238571Y-136095238D01*
X134143333Y-136190476D01*
X134048095Y-136238095D01*
X135524285Y-135952380D02*
X135048095Y-135952380D01*
X135000476Y-136428571D01*
X135048095Y-136380952D01*
X135143333Y-136333333D01*
X135381428Y-136333333D01*
X135476666Y-136380952D01*
X135524285Y-136428571D01*
X135571904Y-136523809D01*
X135571904Y-136761904D01*
X135524285Y-136857142D01*
X135476666Y-136904761D01*
X135381428Y-136952380D01*
X135143333Y-136952380D01*
X135048095Y-136904761D01*
X135000476Y-136857142D01*
%TO.C,C9*%
X62083333Y-106857142D02*
X62035714Y-106904761D01*
X61892857Y-106952380D01*
X61797619Y-106952380D01*
X61654761Y-106904761D01*
X61559523Y-106809523D01*
X61511904Y-106714285D01*
X61464285Y-106523809D01*
X61464285Y-106380952D01*
X61511904Y-106190476D01*
X61559523Y-106095238D01*
X61654761Y-106000000D01*
X61797619Y-105952380D01*
X61892857Y-105952380D01*
X62035714Y-106000000D01*
X62083333Y-106047619D01*
X62559523Y-106952380D02*
X62750000Y-106952380D01*
X62845238Y-106904761D01*
X62892857Y-106857142D01*
X62988095Y-106714285D01*
X63035714Y-106523809D01*
X63035714Y-106142857D01*
X62988095Y-106047619D01*
X62940476Y-106000000D01*
X62845238Y-105952380D01*
X62654761Y-105952380D01*
X62559523Y-106000000D01*
X62511904Y-106047619D01*
X62464285Y-106142857D01*
X62464285Y-106380952D01*
X62511904Y-106476190D01*
X62559523Y-106523809D01*
X62654761Y-106571428D01*
X62845238Y-106571428D01*
X62940476Y-106523809D01*
X62988095Y-106476190D01*
X63035714Y-106380952D01*
%TO.C,J2*%
X53006666Y-45112380D02*
X53006666Y-45826666D01*
X52959047Y-45969523D01*
X52863809Y-46064761D01*
X52720952Y-46112380D01*
X52625714Y-46112380D01*
X53435238Y-45207619D02*
X53482857Y-45160000D01*
X53578095Y-45112380D01*
X53816190Y-45112380D01*
X53911428Y-45160000D01*
X53959047Y-45207619D01*
X54006666Y-45302857D01*
X54006666Y-45398095D01*
X53959047Y-45540952D01*
X53387619Y-46112380D01*
X54006666Y-46112380D01*
%TO.C,R3*%
X73493333Y-65984380D02*
X73160000Y-65508190D01*
X72921904Y-65984380D02*
X72921904Y-64984380D01*
X73302857Y-64984380D01*
X73398095Y-65032000D01*
X73445714Y-65079619D01*
X73493333Y-65174857D01*
X73493333Y-65317714D01*
X73445714Y-65412952D01*
X73398095Y-65460571D01*
X73302857Y-65508190D01*
X72921904Y-65508190D01*
X73826666Y-64984380D02*
X74445714Y-64984380D01*
X74112380Y-65365333D01*
X74255238Y-65365333D01*
X74350476Y-65412952D01*
X74398095Y-65460571D01*
X74445714Y-65555809D01*
X74445714Y-65793904D01*
X74398095Y-65889142D01*
X74350476Y-65936761D01*
X74255238Y-65984380D01*
X73969523Y-65984380D01*
X73874285Y-65936761D01*
X73826666Y-65889142D01*
%TO.C,R4*%
X61143333Y-135702380D02*
X60810000Y-135226190D01*
X60571904Y-135702380D02*
X60571904Y-134702380D01*
X60952857Y-134702380D01*
X61048095Y-134750000D01*
X61095714Y-134797619D01*
X61143333Y-134892857D01*
X61143333Y-135035714D01*
X61095714Y-135130952D01*
X61048095Y-135178571D01*
X60952857Y-135226190D01*
X60571904Y-135226190D01*
X62000476Y-135035714D02*
X62000476Y-135702380D01*
X61762380Y-134654761D02*
X61524285Y-135369047D01*
X62143333Y-135369047D01*
%TO.C,U5*%
X50048095Y-65492380D02*
X50048095Y-66301904D01*
X50095714Y-66397142D01*
X50143333Y-66444761D01*
X50238571Y-66492380D01*
X50429047Y-66492380D01*
X50524285Y-66444761D01*
X50571904Y-66397142D01*
X50619523Y-66301904D01*
X50619523Y-65492380D01*
X51571904Y-65492380D02*
X51095714Y-65492380D01*
X51048095Y-65968571D01*
X51095714Y-65920952D01*
X51190952Y-65873333D01*
X51429047Y-65873333D01*
X51524285Y-65920952D01*
X51571904Y-65968571D01*
X51619523Y-66063809D01*
X51619523Y-66301904D01*
X51571904Y-66397142D01*
X51524285Y-66444761D01*
X51429047Y-66492380D01*
X51190952Y-66492380D01*
X51095714Y-66444761D01*
X51048095Y-66397142D01*
%TO.C,R11*%
X73017142Y-57856380D02*
X72683809Y-57380190D01*
X72445714Y-57856380D02*
X72445714Y-56856380D01*
X72826666Y-56856380D01*
X72921904Y-56904000D01*
X72969523Y-56951619D01*
X73017142Y-57046857D01*
X73017142Y-57189714D01*
X72969523Y-57284952D01*
X72921904Y-57332571D01*
X72826666Y-57380190D01*
X72445714Y-57380190D01*
X73969523Y-57856380D02*
X73398095Y-57856380D01*
X73683809Y-57856380D02*
X73683809Y-56856380D01*
X73588571Y-56999238D01*
X73493333Y-57094476D01*
X73398095Y-57142095D01*
X74921904Y-57856380D02*
X74350476Y-57856380D01*
X74636190Y-57856380D02*
X74636190Y-56856380D01*
X74540952Y-56999238D01*
X74445714Y-57094476D01*
X74350476Y-57142095D01*
%TO.C,R12*%
X73017142Y-61920380D02*
X72683809Y-61444190D01*
X72445714Y-61920380D02*
X72445714Y-60920380D01*
X72826666Y-60920380D01*
X72921904Y-60968000D01*
X72969523Y-61015619D01*
X73017142Y-61110857D01*
X73017142Y-61253714D01*
X72969523Y-61348952D01*
X72921904Y-61396571D01*
X72826666Y-61444190D01*
X72445714Y-61444190D01*
X73969523Y-61920380D02*
X73398095Y-61920380D01*
X73683809Y-61920380D02*
X73683809Y-60920380D01*
X73588571Y-61063238D01*
X73493333Y-61158476D01*
X73398095Y-61206095D01*
X74350476Y-61015619D02*
X74398095Y-60968000D01*
X74493333Y-60920380D01*
X74731428Y-60920380D01*
X74826666Y-60968000D01*
X74874285Y-61015619D01*
X74921904Y-61110857D01*
X74921904Y-61206095D01*
X74874285Y-61348952D01*
X74302857Y-61920380D01*
X74921904Y-61920380D01*
%TO.C,R13*%
X62857142Y-65984380D02*
X62523809Y-65508190D01*
X62285714Y-65984380D02*
X62285714Y-64984380D01*
X62666666Y-64984380D01*
X62761904Y-65032000D01*
X62809523Y-65079619D01*
X62857142Y-65174857D01*
X62857142Y-65317714D01*
X62809523Y-65412952D01*
X62761904Y-65460571D01*
X62666666Y-65508190D01*
X62285714Y-65508190D01*
X63809523Y-65984380D02*
X63238095Y-65984380D01*
X63523809Y-65984380D02*
X63523809Y-64984380D01*
X63428571Y-65127238D01*
X63333333Y-65222476D01*
X63238095Y-65270095D01*
X64142857Y-64984380D02*
X64761904Y-64984380D01*
X64428571Y-65365333D01*
X64571428Y-65365333D01*
X64666666Y-65412952D01*
X64714285Y-65460571D01*
X64761904Y-65555809D01*
X64761904Y-65793904D01*
X64714285Y-65889142D01*
X64666666Y-65936761D01*
X64571428Y-65984380D01*
X64285714Y-65984380D01*
X64190476Y-65936761D01*
X64142857Y-65889142D01*
%TO.C,R14*%
X62857142Y-70048380D02*
X62523809Y-69572190D01*
X62285714Y-70048380D02*
X62285714Y-69048380D01*
X62666666Y-69048380D01*
X62761904Y-69096000D01*
X62809523Y-69143619D01*
X62857142Y-69238857D01*
X62857142Y-69381714D01*
X62809523Y-69476952D01*
X62761904Y-69524571D01*
X62666666Y-69572190D01*
X62285714Y-69572190D01*
X63809523Y-70048380D02*
X63238095Y-70048380D01*
X63523809Y-70048380D02*
X63523809Y-69048380D01*
X63428571Y-69191238D01*
X63333333Y-69286476D01*
X63238095Y-69334095D01*
X64666666Y-69381714D02*
X64666666Y-70048380D01*
X64428571Y-69000761D02*
X64190476Y-69715047D01*
X64809523Y-69715047D01*
%TO.C,R8*%
X63333333Y-74112380D02*
X63000000Y-73636190D01*
X62761904Y-74112380D02*
X62761904Y-73112380D01*
X63142857Y-73112380D01*
X63238095Y-73160000D01*
X63285714Y-73207619D01*
X63333333Y-73302857D01*
X63333333Y-73445714D01*
X63285714Y-73540952D01*
X63238095Y-73588571D01*
X63142857Y-73636190D01*
X62761904Y-73636190D01*
X63904761Y-73540952D02*
X63809523Y-73493333D01*
X63761904Y-73445714D01*
X63714285Y-73350476D01*
X63714285Y-73302857D01*
X63761904Y-73207619D01*
X63809523Y-73160000D01*
X63904761Y-73112380D01*
X64095238Y-73112380D01*
X64190476Y-73160000D01*
X64238095Y-73207619D01*
X64285714Y-73302857D01*
X64285714Y-73350476D01*
X64238095Y-73445714D01*
X64190476Y-73493333D01*
X64095238Y-73540952D01*
X63904761Y-73540952D01*
X63809523Y-73588571D01*
X63761904Y-73636190D01*
X63714285Y-73731428D01*
X63714285Y-73921904D01*
X63761904Y-74017142D01*
X63809523Y-74064761D01*
X63904761Y-74112380D01*
X64095238Y-74112380D01*
X64190476Y-74064761D01*
X64238095Y-74017142D01*
X64285714Y-73921904D01*
X64285714Y-73731428D01*
X64238095Y-73636190D01*
X64190476Y-73588571D01*
X64095238Y-73540952D01*
%TO.C,R9*%
X63333333Y-61920380D02*
X63000000Y-61444190D01*
X62761904Y-61920380D02*
X62761904Y-60920380D01*
X63142857Y-60920380D01*
X63238095Y-60968000D01*
X63285714Y-61015619D01*
X63333333Y-61110857D01*
X63333333Y-61253714D01*
X63285714Y-61348952D01*
X63238095Y-61396571D01*
X63142857Y-61444190D01*
X62761904Y-61444190D01*
X63809523Y-61920380D02*
X64000000Y-61920380D01*
X64095238Y-61872761D01*
X64142857Y-61825142D01*
X64238095Y-61682285D01*
X64285714Y-61491809D01*
X64285714Y-61110857D01*
X64238095Y-61015619D01*
X64190476Y-60968000D01*
X64095238Y-60920380D01*
X63904761Y-60920380D01*
X63809523Y-60968000D01*
X63761904Y-61015619D01*
X63714285Y-61110857D01*
X63714285Y-61348952D01*
X63761904Y-61444190D01*
X63809523Y-61491809D01*
X63904761Y-61539428D01*
X64095238Y-61539428D01*
X64190476Y-61491809D01*
X64238095Y-61444190D01*
X64285714Y-61348952D01*
%TO.C,J7*%
X97191666Y-30489480D02*
X97191666Y-31203766D01*
X97144047Y-31346623D01*
X97048809Y-31441861D01*
X96905952Y-31489480D01*
X96810714Y-31489480D01*
X97572619Y-30489480D02*
X98239285Y-30489480D01*
X97810714Y-31489480D01*
%TO.C,U11*%
X60991904Y-89622380D02*
X60991904Y-90431904D01*
X61039523Y-90527142D01*
X61087142Y-90574761D01*
X61182380Y-90622380D01*
X61372857Y-90622380D01*
X61468095Y-90574761D01*
X61515714Y-90527142D01*
X61563333Y-90431904D01*
X61563333Y-89622380D01*
X62563333Y-90622380D02*
X61991904Y-90622380D01*
X62277619Y-90622380D02*
X62277619Y-89622380D01*
X62182380Y-89765238D01*
X62087142Y-89860476D01*
X61991904Y-89908095D01*
X63515714Y-90622380D02*
X62944285Y-90622380D01*
X63230000Y-90622380D02*
X63230000Y-89622380D01*
X63134761Y-89765238D01*
X63039523Y-89860476D01*
X62944285Y-89908095D01*
%TO.C,J3*%
X84751666Y-30479480D02*
X84751666Y-31193766D01*
X84704047Y-31336623D01*
X84608809Y-31431861D01*
X84465952Y-31479480D01*
X84370714Y-31479480D01*
X85132619Y-30479480D02*
X85751666Y-30479480D01*
X85418333Y-30860433D01*
X85561190Y-30860433D01*
X85656428Y-30908052D01*
X85704047Y-30955671D01*
X85751666Y-31050909D01*
X85751666Y-31289004D01*
X85704047Y-31384242D01*
X85656428Y-31431861D01*
X85561190Y-31479480D01*
X85275476Y-31479480D01*
X85180238Y-31431861D01*
X85132619Y-31384242D01*
%TO.C,J1*%
X73326666Y-45172380D02*
X73326666Y-45886666D01*
X73279047Y-46029523D01*
X73183809Y-46124761D01*
X73040952Y-46172380D01*
X72945714Y-46172380D01*
X74326666Y-46172380D02*
X73755238Y-46172380D01*
X74040952Y-46172380D02*
X74040952Y-45172380D01*
X73945714Y-45315238D01*
X73850476Y-45410476D01*
X73755238Y-45458095D01*
%TO.C,J6*%
X120673095Y-23349780D02*
X121006428Y-24349780D01*
X121339761Y-23349780D01*
X122196904Y-23397400D02*
X122101666Y-23349780D01*
X121958809Y-23349780D01*
X121815952Y-23397400D01*
X121720714Y-23492638D01*
X121673095Y-23587876D01*
X121625476Y-23778352D01*
X121625476Y-23921209D01*
X121673095Y-24111685D01*
X121720714Y-24206923D01*
X121815952Y-24302161D01*
X121958809Y-24349780D01*
X122054047Y-24349780D01*
X122196904Y-24302161D01*
X122244523Y-24254542D01*
X122244523Y-23921209D01*
X122054047Y-23921209D01*
X122625476Y-24064066D02*
X123101666Y-24064066D01*
X122530238Y-24349780D02*
X122863571Y-23349780D01*
X123196904Y-24349780D01*
X121601666Y-27849780D02*
X121601666Y-28564066D01*
X121554047Y-28706923D01*
X121458809Y-28802161D01*
X121315952Y-28849780D01*
X121220714Y-28849780D01*
X122506428Y-27849780D02*
X122315952Y-27849780D01*
X122220714Y-27897400D01*
X122173095Y-27945019D01*
X122077857Y-28087876D01*
X122030238Y-28278352D01*
X122030238Y-28659304D01*
X122077857Y-28754542D01*
X122125476Y-28802161D01*
X122220714Y-28849780D01*
X122411190Y-28849780D01*
X122506428Y-28802161D01*
X122554047Y-28754542D01*
X122601666Y-28659304D01*
X122601666Y-28421209D01*
X122554047Y-28325971D01*
X122506428Y-28278352D01*
X122411190Y-28230733D01*
X122220714Y-28230733D01*
X122125476Y-28278352D01*
X122077857Y-28325971D01*
X122030238Y-28421209D01*
%TO.C,D6*%
X52991904Y-143452380D02*
X52991904Y-142452380D01*
X53230000Y-142452380D01*
X53372857Y-142500000D01*
X53468095Y-142595238D01*
X53515714Y-142690476D01*
X53563333Y-142880952D01*
X53563333Y-143023809D01*
X53515714Y-143214285D01*
X53468095Y-143309523D01*
X53372857Y-143404761D01*
X53230000Y-143452380D01*
X52991904Y-143452380D01*
X54420476Y-142452380D02*
X54230000Y-142452380D01*
X54134761Y-142500000D01*
X54087142Y-142547619D01*
X53991904Y-142690476D01*
X53944285Y-142880952D01*
X53944285Y-143261904D01*
X53991904Y-143357142D01*
X54039523Y-143404761D01*
X54134761Y-143452380D01*
X54325238Y-143452380D01*
X54420476Y-143404761D01*
X54468095Y-143357142D01*
X54515714Y-143261904D01*
X54515714Y-143023809D01*
X54468095Y-142928571D01*
X54420476Y-142880952D01*
X54325238Y-142833333D01*
X54134761Y-142833333D01*
X54039523Y-142880952D01*
X53991904Y-142928571D01*
X53944285Y-143023809D01*
X47998095Y-141352380D02*
X47998095Y-140352380D01*
X48569523Y-141352380D02*
X48140952Y-140780952D01*
X48569523Y-140352380D02*
X47998095Y-140923809D01*
X47998095Y-140912380D02*
X47998095Y-139912380D01*
X48569523Y-140912380D02*
X48140952Y-140340952D01*
X48569523Y-139912380D02*
X47998095Y-140483809D01*
%TO.C,U1*%
X72908095Y-87082380D02*
X72908095Y-87891904D01*
X72955714Y-87987142D01*
X73003333Y-88034761D01*
X73098571Y-88082380D01*
X73289047Y-88082380D01*
X73384285Y-88034761D01*
X73431904Y-87987142D01*
X73479523Y-87891904D01*
X73479523Y-87082380D01*
X74479523Y-88082380D02*
X73908095Y-88082380D01*
X74193809Y-88082380D02*
X74193809Y-87082380D01*
X74098571Y-87225238D01*
X74003333Y-87320476D01*
X73908095Y-87368095D01*
%TO.C,J5*%
X63166666Y-45172380D02*
X63166666Y-45886666D01*
X63119047Y-46029523D01*
X63023809Y-46124761D01*
X62880952Y-46172380D01*
X62785714Y-46172380D01*
X64119047Y-45172380D02*
X63642857Y-45172380D01*
X63595238Y-45648571D01*
X63642857Y-45600952D01*
X63738095Y-45553333D01*
X63976190Y-45553333D01*
X64071428Y-45600952D01*
X64119047Y-45648571D01*
X64166666Y-45743809D01*
X64166666Y-45981904D01*
X64119047Y-46077142D01*
X64071428Y-46124761D01*
X63976190Y-46172380D01*
X63738095Y-46172380D01*
X63642857Y-46124761D01*
X63595238Y-46077142D01*
%TO.C,D5*%
X65767142Y-31877142D02*
X65719523Y-31924761D01*
X65576666Y-31972380D01*
X65481428Y-31972380D01*
X65338571Y-31924761D01*
X65243333Y-31829523D01*
X65195714Y-31734285D01*
X65148095Y-31543809D01*
X65148095Y-31400952D01*
X65195714Y-31210476D01*
X65243333Y-31115238D01*
X65338571Y-31020000D01*
X65481428Y-30972380D01*
X65576666Y-30972380D01*
X65719523Y-31020000D01*
X65767142Y-31067619D01*
X66148095Y-31924761D02*
X66290952Y-31972380D01*
X66529047Y-31972380D01*
X66624285Y-31924761D01*
X66671904Y-31877142D01*
X66719523Y-31781904D01*
X66719523Y-31686666D01*
X66671904Y-31591428D01*
X66624285Y-31543809D01*
X66529047Y-31496190D01*
X66338571Y-31448571D01*
X66243333Y-31400952D01*
X66195714Y-31353333D01*
X66148095Y-31258095D01*
X66148095Y-31162857D01*
X66195714Y-31067619D01*
X66243333Y-31020000D01*
X66338571Y-30972380D01*
X66576666Y-30972380D01*
X66719523Y-31020000D01*
X67671904Y-31972380D02*
X67100476Y-31972380D01*
X67386190Y-31972380D02*
X67386190Y-30972380D01*
X67290952Y-31115238D01*
X67195714Y-31210476D01*
X67100476Y-31258095D01*
%TO.C,J4*%
X76261666Y-30479480D02*
X76261666Y-31193766D01*
X76214047Y-31336623D01*
X76118809Y-31431861D01*
X75975952Y-31479480D01*
X75880714Y-31479480D01*
X77166428Y-30812814D02*
X77166428Y-31479480D01*
X76928333Y-30431861D02*
X76690238Y-31146147D01*
X77309285Y-31146147D01*
%TO.C,U9*%
X50048095Y-90887380D02*
X50048095Y-91696904D01*
X50095714Y-91792142D01*
X50143333Y-91839761D01*
X50238571Y-91887380D01*
X50429047Y-91887380D01*
X50524285Y-91839761D01*
X50571904Y-91792142D01*
X50619523Y-91696904D01*
X50619523Y-90887380D01*
X51143333Y-91887380D02*
X51333809Y-91887380D01*
X51429047Y-91839761D01*
X51476666Y-91792142D01*
X51571904Y-91649285D01*
X51619523Y-91458809D01*
X51619523Y-91077857D01*
X51571904Y-90982619D01*
X51524285Y-90935000D01*
X51429047Y-90887380D01*
X51238571Y-90887380D01*
X51143333Y-90935000D01*
X51095714Y-90982619D01*
X51048095Y-91077857D01*
X51048095Y-91315952D01*
X51095714Y-91411190D01*
X51143333Y-91458809D01*
X51238571Y-91506428D01*
X51429047Y-91506428D01*
X51524285Y-91458809D01*
X51571904Y-91411190D01*
X51619523Y-91315952D01*
%TO.C,D3*%
X47998095Y-138052380D02*
X47998095Y-137052380D01*
X48569523Y-138052380D02*
X48140952Y-137480952D01*
X48569523Y-137052380D02*
X47998095Y-137623809D01*
X47998095Y-138052380D02*
X47998095Y-137052380D01*
X48569523Y-138052380D02*
X48140952Y-137480952D01*
X48569523Y-137052380D02*
X47998095Y-137623809D01*
X52991904Y-140152380D02*
X52991904Y-139152380D01*
X53230000Y-139152380D01*
X53372857Y-139200000D01*
X53468095Y-139295238D01*
X53515714Y-139390476D01*
X53563333Y-139580952D01*
X53563333Y-139723809D01*
X53515714Y-139914285D01*
X53468095Y-140009523D01*
X53372857Y-140104761D01*
X53230000Y-140152380D01*
X52991904Y-140152380D01*
X53896666Y-139152380D02*
X54515714Y-139152380D01*
X54182380Y-139533333D01*
X54325238Y-139533333D01*
X54420476Y-139580952D01*
X54468095Y-139628571D01*
X54515714Y-139723809D01*
X54515714Y-139961904D01*
X54468095Y-140057142D01*
X54420476Y-140104761D01*
X54325238Y-140152380D01*
X54039523Y-140152380D01*
X53944285Y-140104761D01*
X53896666Y-140057142D01*
D12*
%TO.C,SW1*%
X136780000Y-123225000D02*
X138133333Y-123225000D01*
X136780000Y-113565000D02*
X138133333Y-113565000D01*
X136780000Y-121085000D02*
X138133333Y-121085000D01*
X136780000Y-112965000D02*
X138133333Y-112965000D01*
X136780000Y-118145000D02*
X138133333Y-118145000D01*
X133920000Y-133640000D02*
X133920000Y-112140000D01*
X136780000Y-118845000D02*
X138133333Y-118845000D01*
X136780000Y-128705000D02*
X138133333Y-128705000D01*
X136780000Y-115805000D02*
X138133333Y-115805000D01*
X134920000Y-111140000D02*
X143700000Y-111140000D01*
X136780000Y-118645000D02*
X138133333Y-118645000D01*
X140840000Y-128105000D02*
X136780000Y-128105000D01*
X136780000Y-115705000D02*
X138133333Y-115705000D01*
X136780000Y-120785000D02*
X138133333Y-120785000D01*
X136780000Y-125665000D02*
X138133333Y-125665000D01*
X136780000Y-131045000D02*
X138133333Y-131045000D01*
X140840000Y-116675000D02*
X140840000Y-115405000D01*
X138133333Y-115405000D02*
X138133333Y-116675000D01*
X140840000Y-126835000D02*
X140840000Y-125565000D01*
X136780000Y-126665000D02*
X138133333Y-126665000D01*
X136780000Y-131915000D02*
X140840000Y-131915000D01*
X140840000Y-125565000D02*
X136780000Y-125565000D01*
X136780000Y-121755000D02*
X140840000Y-121755000D01*
X136780000Y-130845000D02*
X138133333Y-130845000D01*
X136780000Y-129205000D02*
X138133333Y-129205000D01*
X136780000Y-128205000D02*
X138133333Y-128205000D01*
X136780000Y-130745000D02*
X138133333Y-130745000D01*
X136780000Y-115905000D02*
X138133333Y-115905000D01*
X136780000Y-115505000D02*
X138133333Y-115505000D01*
X138133333Y-125565000D02*
X138133333Y-126835000D01*
X136780000Y-128605000D02*
X138133333Y-128605000D01*
X136780000Y-117945000D02*
X136780000Y-119215000D01*
X136780000Y-120885000D02*
X138133333Y-120885000D01*
X136780000Y-131645000D02*
X138133333Y-131645000D01*
X136780000Y-126765000D02*
X138133333Y-126765000D01*
X136780000Y-113465000D02*
X138133333Y-113465000D01*
X136780000Y-131345000D02*
X138133333Y-131345000D01*
X136780000Y-124025000D02*
X138133333Y-124025000D01*
X136780000Y-125565000D02*
X136780000Y-126835000D01*
X136780000Y-116605000D02*
X138133333Y-116605000D01*
X143700000Y-133640000D02*
X133920000Y-133640000D01*
X136780000Y-126065000D02*
X138133333Y-126065000D01*
X136780000Y-119145000D02*
X138133333Y-119145000D01*
X136780000Y-128805000D02*
X138133333Y-128805000D01*
X138133333Y-120485000D02*
X138133333Y-121755000D01*
X136780000Y-126165000D02*
X138133333Y-126165000D01*
X136780000Y-130945000D02*
X138133333Y-130945000D01*
X136780000Y-114135000D02*
X140840000Y-114135000D01*
X136780000Y-125865000D02*
X138133333Y-125865000D01*
X136780000Y-123725000D02*
X138133333Y-123725000D01*
X136780000Y-121385000D02*
X138133333Y-121385000D01*
X136780000Y-126265000D02*
X138133333Y-126265000D01*
X136780000Y-116305000D02*
X138133333Y-116305000D01*
X136780000Y-123125000D02*
X138133333Y-123125000D01*
X136780000Y-123325000D02*
X138133333Y-123325000D01*
X136780000Y-131245000D02*
X138133333Y-131245000D01*
X136780000Y-123625000D02*
X138133333Y-123625000D01*
X136780000Y-118045000D02*
X138133333Y-118045000D01*
X140840000Y-119215000D02*
X140840000Y-117945000D01*
X133920000Y-112140000D02*
X134920000Y-111140000D01*
X136780000Y-113265000D02*
X138133333Y-113265000D01*
X136780000Y-129375000D02*
X140840000Y-129375000D01*
X140840000Y-130645000D02*
X136780000Y-130645000D01*
X138133333Y-112865000D02*
X138133333Y-114135000D01*
X136780000Y-125965000D02*
X138133333Y-125965000D01*
X136780000Y-114065000D02*
X138133333Y-114065000D01*
X136780000Y-131845000D02*
X138133333Y-131845000D01*
X136780000Y-115605000D02*
X138133333Y-115605000D01*
X136780000Y-116505000D02*
X138133333Y-116505000D01*
X136780000Y-116105000D02*
X138133333Y-116105000D01*
X138133333Y-130645000D02*
X138133333Y-131915000D01*
X136780000Y-128505000D02*
X138133333Y-128505000D01*
X136780000Y-125765000D02*
X138133333Y-125765000D01*
X136780000Y-128105000D02*
X136780000Y-129375000D01*
X138133333Y-117945000D02*
X138133333Y-119215000D01*
X136780000Y-112865000D02*
X136780000Y-114135000D01*
X136780000Y-131145000D02*
X138133333Y-131145000D01*
X136780000Y-113765000D02*
X138133333Y-113765000D01*
X140840000Y-123025000D02*
X136780000Y-123025000D01*
X138133333Y-123025000D02*
X138133333Y-124295000D01*
X136780000Y-126465000D02*
X138133333Y-126465000D01*
X136780000Y-116005000D02*
X138133333Y-116005000D01*
X143700000Y-111140000D02*
X143700000Y-133640000D01*
X136780000Y-128905000D02*
X138133333Y-128905000D01*
X136780000Y-118245000D02*
X138133333Y-118245000D01*
X136780000Y-124125000D02*
X138133333Y-124125000D01*
X136780000Y-115405000D02*
X136780000Y-116675000D01*
X136780000Y-120585000D02*
X138133333Y-120585000D01*
X136780000Y-118745000D02*
X138133333Y-118745000D01*
X136780000Y-113965000D02*
X138133333Y-113965000D01*
X140840000Y-120485000D02*
X136780000Y-120485000D01*
X136780000Y-119045000D02*
X138133333Y-119045000D01*
X136780000Y-116675000D02*
X140840000Y-116675000D01*
X138133333Y-128105000D02*
X138133333Y-129375000D01*
X136780000Y-121285000D02*
X138133333Y-121285000D01*
X136780000Y-118945000D02*
X138133333Y-118945000D01*
X136780000Y-121185000D02*
X138133333Y-121185000D01*
X136780000Y-126835000D02*
X140840000Y-126835000D01*
X136780000Y-123925000D02*
X138133333Y-123925000D01*
X136780000Y-123825000D02*
X138133333Y-123825000D01*
X140840000Y-129375000D02*
X140840000Y-128105000D01*
X140840000Y-121755000D02*
X140840000Y-120485000D01*
X140840000Y-114135000D02*
X140840000Y-112865000D01*
X136780000Y-120985000D02*
X138133333Y-120985000D01*
X136780000Y-123425000D02*
X138133333Y-123425000D01*
X136780000Y-126365000D02*
X138133333Y-126365000D01*
X136780000Y-116405000D02*
X138133333Y-116405000D01*
X136780000Y-130645000D02*
X136780000Y-131915000D01*
X136780000Y-128405000D02*
X138133333Y-128405000D01*
X136780000Y-128305000D02*
X138133333Y-128305000D01*
X136780000Y-113065000D02*
X138133333Y-113065000D01*
X140840000Y-112865000D02*
X136780000Y-112865000D01*
X136780000Y-120485000D02*
X136780000Y-121755000D01*
X136780000Y-129105000D02*
X138133333Y-129105000D01*
X136780000Y-129005000D02*
X138133333Y-129005000D01*
X136780000Y-131745000D02*
X138133333Y-131745000D01*
X136780000Y-129305000D02*
X138133333Y-129305000D01*
X136780000Y-118545000D02*
X138133333Y-118545000D01*
X136780000Y-124225000D02*
X138133333Y-124225000D01*
X136780000Y-123525000D02*
X138133333Y-123525000D01*
X136780000Y-118445000D02*
X138133333Y-118445000D01*
X136780000Y-123025000D02*
X136780000Y-124295000D01*
X136780000Y-120685000D02*
X138133333Y-120685000D01*
X140840000Y-124295000D02*
X140840000Y-123025000D01*
X136780000Y-119215000D02*
X140840000Y-119215000D01*
X136780000Y-131445000D02*
X138133333Y-131445000D01*
X136780000Y-121485000D02*
X138133333Y-121485000D01*
X136780000Y-118345000D02*
X138133333Y-118345000D01*
X136780000Y-121685000D02*
X138133333Y-121685000D01*
X136780000Y-116205000D02*
X138133333Y-116205000D01*
X136780000Y-113865000D02*
X138133333Y-113865000D01*
X136780000Y-121585000D02*
X138133333Y-121585000D01*
X140840000Y-117945000D02*
X136780000Y-117945000D01*
X136780000Y-113165000D02*
X138133333Y-113165000D01*
X140840000Y-115405000D02*
X136780000Y-115405000D01*
X136780000Y-124295000D02*
X140840000Y-124295000D01*
X136780000Y-113365000D02*
X138133333Y-113365000D01*
X136780000Y-131545000D02*
X138133333Y-131545000D01*
X136780000Y-126565000D02*
X138133333Y-126565000D01*
X136780000Y-113665000D02*
X138133333Y-113665000D01*
X140840000Y-131915000D02*
X140840000Y-130645000D01*
%TO.C,C1*%
X86000000Y-107750000D02*
X86000000Y-105250000D01*
X86000000Y-105250000D02*
X81000000Y-105250000D01*
X81000000Y-107750000D02*
X86000000Y-107750000D01*
X81000000Y-105250000D02*
X81000000Y-107750000D01*
%TO.C,C2*%
X96500000Y-105250000D02*
X91500000Y-105250000D01*
X91500000Y-105250000D02*
X91500000Y-107750000D01*
X91500000Y-107750000D02*
X96500000Y-107750000D01*
X96500000Y-107750000D02*
X96500000Y-105250000D01*
%TO.C,C4*%
X117500000Y-107750000D02*
X117500000Y-105250000D01*
X112500000Y-107750000D02*
X117500000Y-107750000D01*
X117500000Y-105250000D02*
X112500000Y-105250000D01*
X112500000Y-105250000D02*
X112500000Y-107750000D01*
%TO.C,U2*%
X115235000Y-109730000D02*
X115235000Y-135130000D01*
X109885000Y-109730000D02*
X115235000Y-109730000D01*
X108885000Y-135130000D02*
X108885000Y-110730000D01*
X108885000Y-110730000D02*
X109885000Y-109730000D01*
X115235000Y-135130000D02*
X108885000Y-135130000D01*
%TO.C,U10*%
X122135000Y-109730000D02*
X127485000Y-109730000D01*
X127485000Y-109730000D02*
X127485000Y-135130000D01*
X121135000Y-135130000D02*
X121135000Y-110730000D01*
X121135000Y-110730000D02*
X122135000Y-109730000D01*
X127485000Y-135130000D02*
X121135000Y-135130000D01*
%TO.C,RR1*%
X130250000Y-109710000D02*
X130250000Y-132610000D01*
X130250000Y-132610000D02*
X132750000Y-132610000D01*
X132750000Y-109710000D02*
X130250000Y-109710000D01*
X132750000Y-112270000D02*
X130250000Y-112270000D01*
X132750000Y-132610000D02*
X132750000Y-109710000D01*
%TO.C,U6*%
X73135000Y-109730000D02*
X78485000Y-109730000D01*
X72135000Y-127510000D02*
X72135000Y-110730000D01*
X78485000Y-127510000D02*
X72135000Y-127510000D01*
X72135000Y-110730000D02*
X73135000Y-109730000D01*
X78485000Y-109730000D02*
X78485000Y-127510000D01*
%TO.C,C7*%
X70500000Y-107750000D02*
X75500000Y-107750000D01*
X75500000Y-107750000D02*
X75500000Y-105250000D01*
X70500000Y-105250000D02*
X70500000Y-107750000D01*
X75500000Y-105250000D02*
X70500000Y-105250000D01*
%TO.C,U3*%
X102985000Y-135130000D02*
X96635000Y-135130000D01*
X97635000Y-109730000D02*
X102985000Y-109730000D01*
X102985000Y-109730000D02*
X102985000Y-135130000D01*
X96635000Y-135130000D02*
X96635000Y-110730000D01*
X96635000Y-110730000D02*
X97635000Y-109730000D01*
%TO.C,C3*%
X102000000Y-105250000D02*
X102000000Y-107750000D01*
X107000000Y-107750000D02*
X107000000Y-105250000D01*
X102000000Y-107750000D02*
X107000000Y-107750000D01*
X107000000Y-105250000D02*
X102000000Y-105250000D01*
%TO.C,C5*%
X128000000Y-105250000D02*
X123000000Y-105250000D01*
X128000000Y-107750000D02*
X128000000Y-105250000D01*
X123000000Y-107750000D02*
X128000000Y-107750000D01*
X123000000Y-105250000D02*
X123000000Y-107750000D01*
%TO.C,U4*%
X85385000Y-109730000D02*
X90735000Y-109730000D01*
X90735000Y-109730000D02*
X90735000Y-135130000D01*
X90735000Y-135130000D02*
X84385000Y-135130000D01*
X84385000Y-110730000D02*
X85385000Y-109730000D01*
X84385000Y-135130000D02*
X84385000Y-110730000D01*
%TO.C,C6*%
X54500000Y-105250000D02*
X49500000Y-105250000D01*
X49500000Y-107750000D02*
X54500000Y-107750000D01*
X49500000Y-105250000D02*
X49500000Y-107750000D01*
X54500000Y-107750000D02*
X54500000Y-105250000D01*
%TO.C,C11*%
X72776395Y-39552500D02*
X73276395Y-39552500D01*
X73026395Y-39302500D02*
X73026395Y-39802500D01*
X77410000Y-40640000D02*
G75*
G03*
X77410000Y-40640000I-2500000J0D01*
G01*
%TO.C,C8*%
X48500000Y-129500000D02*
X48500000Y-132000000D01*
X53500000Y-132000000D02*
X53500000Y-129500000D01*
X53500000Y-129500000D02*
X48500000Y-129500000D01*
X48500000Y-132000000D02*
X53500000Y-132000000D01*
%TO.C,C12*%
X63616395Y-141162500D02*
X63616395Y-141662500D01*
X63366395Y-141412500D02*
X63866395Y-141412500D01*
X68000000Y-142500000D02*
G75*
G03*
X68000000Y-142500000I-2500000J0D01*
G01*
%TO.C,R2*%
X59690000Y-53340000D02*
X60350000Y-53340000D01*
X60350000Y-52090000D02*
X60350000Y-54590000D01*
X60350000Y-54590000D02*
X66650000Y-54590000D01*
X66650000Y-54590000D02*
X66650000Y-52090000D01*
X66650000Y-52090000D02*
X60350000Y-52090000D01*
X67310000Y-53340000D02*
X66650000Y-53340000D01*
%TO.C,P2*%
X115000000Y-147580000D02*
X115000000Y-153580000D01*
X81340000Y-147580000D02*
X81340000Y-153580000D01*
X119440000Y-140680000D02*
X119440000Y-145040000D01*
X106740000Y-140680000D02*
X106740000Y-145040000D01*
X99120000Y-140680000D02*
X99120000Y-145040000D01*
X99760000Y-140680000D02*
X99120000Y-140680000D01*
X129600000Y-140680000D02*
X129600000Y-145040000D01*
X74360000Y-147580000D02*
X74360000Y-153580000D01*
X135320000Y-140680000D02*
X134680000Y-140680000D01*
X136270000Y-147580000D02*
X72770000Y-147580000D01*
X94040000Y-147580000D02*
X94040000Y-153580000D01*
X74360000Y-140680000D02*
X73720000Y-140680000D01*
X122620000Y-147580000D02*
X122620000Y-153580000D01*
X135320000Y-140680000D02*
X135320000Y-145040000D01*
X99120000Y-147580000D02*
X99120000Y-153580000D01*
X76900000Y-140680000D02*
X76900000Y-145040000D01*
X120080000Y-153580000D02*
X119440000Y-153580000D01*
X97220000Y-140680000D02*
X96580000Y-140680000D01*
X135635000Y-145040000D02*
X136270000Y-145675000D01*
X125160000Y-140680000D02*
X125160000Y-145040000D01*
X122620000Y-153580000D02*
X121980000Y-153580000D01*
X104840000Y-140680000D02*
X104840000Y-145040000D01*
X94680000Y-153580000D02*
X94040000Y-153580000D01*
X127060000Y-140680000D02*
X127060000Y-145040000D01*
X106740000Y-147580000D02*
X106740000Y-153580000D01*
X73720000Y-147580000D02*
X73720000Y-153580000D01*
X104840000Y-153580000D02*
X104200000Y-153580000D01*
X92140000Y-140680000D02*
X91500000Y-140680000D01*
X135320000Y-147580000D02*
X135320000Y-153580000D01*
X96580000Y-140680000D02*
X96580000Y-145040000D01*
X72770000Y-147580000D02*
X72770000Y-145040000D01*
X102300000Y-140680000D02*
X101660000Y-140680000D01*
X89600000Y-147580000D02*
X89600000Y-153580000D01*
X84520000Y-140680000D02*
X84520000Y-145040000D01*
X83880000Y-140680000D02*
X83880000Y-145040000D01*
X84520000Y-147580000D02*
X84520000Y-153580000D01*
X87060000Y-147580000D02*
X87060000Y-153580000D01*
X127060000Y-147580000D02*
X127060000Y-153580000D01*
X135320000Y-153580000D02*
X134680000Y-153580000D01*
X116900000Y-147580000D02*
X116900000Y-153580000D01*
X102300000Y-153580000D02*
X101660000Y-153580000D01*
X79440000Y-140680000D02*
X79440000Y-145040000D01*
X94680000Y-140680000D02*
X94680000Y-145040000D01*
X78800000Y-140680000D02*
X78800000Y-145040000D01*
X89600000Y-140680000D02*
X89600000Y-145040000D01*
X120080000Y-140680000D02*
X120080000Y-145040000D01*
X122620000Y-140680000D02*
X122620000Y-145040000D01*
X129600000Y-147580000D02*
X129600000Y-153580000D01*
X102300000Y-147580000D02*
X102300000Y-153580000D01*
X104840000Y-147580000D02*
X104840000Y-153580000D01*
X88960000Y-147580000D02*
X88960000Y-153580000D01*
X119440000Y-147580000D02*
X119440000Y-153580000D01*
X99760000Y-140680000D02*
X99760000Y-145040000D01*
X125160000Y-153580000D02*
X124520000Y-153580000D01*
X86420000Y-147580000D02*
X86420000Y-153580000D01*
X127700000Y-140680000D02*
X127060000Y-140680000D01*
X121980000Y-140680000D02*
X121980000Y-145040000D01*
X109920000Y-140680000D02*
X109280000Y-140680000D01*
X92140000Y-147580000D02*
X92140000Y-153580000D01*
X81980000Y-147580000D02*
X81980000Y-153580000D01*
X92140000Y-140680000D02*
X92140000Y-145040000D01*
X117540000Y-140680000D02*
X116900000Y-140680000D01*
X132140000Y-147580000D02*
X132140000Y-153580000D01*
X91500000Y-147580000D02*
X91500000Y-153580000D01*
X136270000Y-145675000D02*
X136270000Y-147580000D01*
X121980000Y-147580000D02*
X121980000Y-153580000D01*
X74360000Y-140680000D02*
X74360000Y-145040000D01*
X109920000Y-147580000D02*
X109920000Y-153580000D01*
X84520000Y-153580000D02*
X83880000Y-153580000D01*
X99760000Y-147580000D02*
X99760000Y-153580000D01*
X115000000Y-140680000D02*
X114360000Y-140680000D01*
X76900000Y-140680000D02*
X76260000Y-140680000D01*
X107380000Y-140680000D02*
X107380000Y-145040000D01*
X112460000Y-147580000D02*
X112460000Y-153580000D01*
X134680000Y-140680000D02*
X134680000Y-145040000D01*
X74360000Y-153580000D02*
X73720000Y-153580000D01*
X132780000Y-140680000D02*
X132140000Y-140680000D01*
X109920000Y-140680000D02*
X109920000Y-145040000D01*
X72770000Y-145040000D02*
X135635000Y-145040000D01*
X81980000Y-153580000D02*
X81340000Y-153580000D01*
X112460000Y-140680000D02*
X112460000Y-145040000D01*
X125160000Y-140680000D02*
X124520000Y-140680000D01*
X73720000Y-140680000D02*
X73720000Y-145040000D01*
X130240000Y-140680000D02*
X130240000Y-145040000D01*
X87060000Y-140680000D02*
X86420000Y-140680000D01*
X86420000Y-140680000D02*
X86420000Y-145040000D01*
X112460000Y-140680000D02*
X111820000Y-140680000D01*
X94680000Y-140680000D02*
X94040000Y-140680000D01*
X101660000Y-140680000D02*
X101660000Y-145040000D01*
X130240000Y-147580000D02*
X130240000Y-153580000D01*
X125160000Y-147580000D02*
X125160000Y-153580000D01*
X81980000Y-140680000D02*
X81980000Y-145040000D01*
X102300000Y-140680000D02*
X102300000Y-145040000D01*
X132780000Y-140680000D02*
X132780000Y-145040000D01*
X127700000Y-153580000D02*
X127060000Y-153580000D01*
X94040000Y-140680000D02*
X94040000Y-145040000D01*
X117540000Y-153580000D02*
X116900000Y-153580000D01*
X130240000Y-140680000D02*
X129600000Y-140680000D01*
X109920000Y-153580000D02*
X109280000Y-153580000D01*
X104200000Y-140680000D02*
X104200000Y-145040000D01*
X94680000Y-147580000D02*
X94680000Y-153580000D01*
X76260000Y-140680000D02*
X76260000Y-145040000D01*
X127700000Y-140680000D02*
X127700000Y-145040000D01*
X83880000Y-147580000D02*
X83880000Y-153580000D01*
X96580000Y-147580000D02*
X96580000Y-153580000D01*
X132780000Y-147580000D02*
X132780000Y-153580000D01*
X78800000Y-147580000D02*
X78800000Y-153580000D01*
X127700000Y-147580000D02*
X127700000Y-153580000D01*
X92140000Y-153580000D02*
X91500000Y-153580000D01*
X114360000Y-140680000D02*
X114360000Y-145040000D01*
X120080000Y-147580000D02*
X120080000Y-153580000D01*
X101660000Y-147580000D02*
X101660000Y-153580000D01*
X76900000Y-153580000D02*
X76260000Y-153580000D01*
X99760000Y-153580000D02*
X99120000Y-153580000D01*
X97220000Y-140680000D02*
X97220000Y-145040000D01*
X88960000Y-140680000D02*
X88960000Y-145040000D01*
X79440000Y-140680000D02*
X78800000Y-140680000D01*
X87060000Y-153580000D02*
X86420000Y-153580000D01*
X111820000Y-140680000D02*
X111820000Y-145040000D01*
X97220000Y-147580000D02*
X97220000Y-153580000D01*
X109280000Y-140680000D02*
X109280000Y-145040000D01*
X111820000Y-147580000D02*
X111820000Y-153580000D01*
X115000000Y-140680000D02*
X115000000Y-145040000D01*
X107380000Y-140680000D02*
X106740000Y-140680000D01*
X112460000Y-153580000D02*
X111820000Y-153580000D01*
X117540000Y-140680000D02*
X117540000Y-145040000D01*
X76900000Y-147580000D02*
X76900000Y-153580000D01*
X81340000Y-140680000D02*
X81340000Y-145040000D01*
X89600000Y-153580000D02*
X88960000Y-153580000D01*
X104840000Y-140680000D02*
X104200000Y-140680000D01*
X115000000Y-153580000D02*
X114360000Y-153580000D01*
X104200000Y-147580000D02*
X104200000Y-153580000D01*
X79440000Y-153580000D02*
X78800000Y-153580000D01*
X84520000Y-140680000D02*
X83880000Y-140680000D01*
X89600000Y-140680000D02*
X88960000Y-140680000D01*
X87060000Y-140680000D02*
X87060000Y-145040000D01*
X124520000Y-147580000D02*
X124520000Y-153580000D01*
X117540000Y-147580000D02*
X117540000Y-153580000D01*
X132780000Y-153580000D02*
X132140000Y-153580000D01*
X107380000Y-147580000D02*
X107380000Y-153580000D01*
X134680000Y-147580000D02*
X134680000Y-153580000D01*
X76260000Y-147580000D02*
X76260000Y-153580000D01*
X97220000Y-153580000D02*
X96580000Y-153580000D01*
X107380000Y-153580000D02*
X106740000Y-153580000D01*
X81980000Y-140680000D02*
X81340000Y-140680000D01*
X132140000Y-140680000D02*
X132140000Y-145040000D01*
X79440000Y-147580000D02*
X79440000Y-153580000D01*
X114360000Y-147580000D02*
X114360000Y-153580000D01*
X109280000Y-147580000D02*
X109280000Y-153580000D01*
X130240000Y-153580000D02*
X129600000Y-153580000D01*
X120080000Y-140680000D02*
X119440000Y-140680000D01*
X91500000Y-140680000D02*
X91500000Y-145040000D01*
X124520000Y-140680000D02*
X124520000Y-145040000D01*
X116900000Y-140680000D02*
X116900000Y-145040000D01*
X122620000Y-140680000D02*
X121980000Y-140680000D01*
%TO.C,D2*%
X55230000Y-35676190D02*
X55230000Y-33343810D01*
X55230555Y-33344524D02*
G75*
G03*
X55230000Y-35676190I-1500555J-1165476D01*
G01*
X55230000Y-34510000D02*
G75*
G03*
X55230000Y-34510000I-1500000J0D01*
G01*
%TO.C,R10*%
X67251200Y-57404000D02*
X66591200Y-57404000D01*
X60291200Y-58654000D02*
X66591200Y-58654000D01*
X60291200Y-56154000D02*
X60291200Y-58654000D01*
X66591200Y-58654000D02*
X66591200Y-56154000D01*
X59631200Y-57404000D02*
X60291200Y-57404000D01*
X66591200Y-56154000D02*
X60291200Y-56154000D01*
%TO.C,U8*%
X47635000Y-127510000D02*
X47635000Y-110730000D01*
X47635000Y-110730000D02*
X48635000Y-109730000D01*
X53985000Y-127510000D02*
X47635000Y-127510000D01*
X48635000Y-109730000D02*
X53985000Y-109730000D01*
X53985000Y-109730000D02*
X53985000Y-127510000D01*
%TO.C,D4*%
X61480000Y-35676190D02*
X61480000Y-33343810D01*
X61480555Y-33344524D02*
G75*
G03*
X61480000Y-35676190I-1500555J-1165476D01*
G01*
X61480000Y-34510000D02*
G75*
G03*
X61480000Y-34510000I-1500000J0D01*
G01*
%TO.C,U12*%
X89762500Y-43370000D02*
X127862500Y-43370000D01*
X89762500Y-70805000D02*
X89762500Y-43370000D01*
X90397500Y-71440000D02*
X89762500Y-70805000D01*
X127862500Y-43370000D02*
X127862500Y-71440000D01*
X127862500Y-71440000D02*
X90397500Y-71440000D01*
%TO.C,U13*%
X89762500Y-102285000D02*
X89762500Y-74850000D01*
X127862500Y-102920000D02*
X90397500Y-102920000D01*
X127862500Y-74850000D02*
X127862500Y-102920000D01*
X90397500Y-102920000D02*
X89762500Y-102285000D01*
X89762500Y-74850000D02*
X127862500Y-74850000D01*
%TO.C,R16*%
X74840000Y-132000000D02*
X74840000Y-129500000D01*
X75500000Y-130750000D02*
X74840000Y-130750000D01*
X68540000Y-132000000D02*
X74840000Y-132000000D01*
X68540000Y-129500000D02*
X68540000Y-132000000D01*
X67880000Y-130750000D02*
X68540000Y-130750000D01*
X74840000Y-129500000D02*
X68540000Y-129500000D01*
%TO.C,R6*%
X64340000Y-132000000D02*
X64340000Y-129500000D01*
X58040000Y-129500000D02*
X58040000Y-132000000D01*
X58040000Y-132000000D02*
X64340000Y-132000000D01*
X57380000Y-130750000D02*
X58040000Y-130750000D01*
X65000000Y-130750000D02*
X64340000Y-130750000D01*
X64340000Y-129500000D02*
X58040000Y-129500000D01*
%TO.C,R5*%
X70510000Y-52090000D02*
X70510000Y-54590000D01*
X76810000Y-52090000D02*
X70510000Y-52090000D01*
X70510000Y-54590000D02*
X76810000Y-54590000D01*
X76810000Y-54590000D02*
X76810000Y-52090000D01*
X77470000Y-53340000D02*
X76810000Y-53340000D01*
X69850000Y-53340000D02*
X70510000Y-53340000D01*
%TO.C,U7*%
X59885000Y-110730000D02*
X60885000Y-109730000D01*
X60885000Y-109730000D02*
X66235000Y-109730000D01*
X66235000Y-109730000D02*
X66235000Y-127510000D01*
X59885000Y-127510000D02*
X59885000Y-110730000D01*
X66235000Y-127510000D02*
X59885000Y-127510000D01*
%TO.C,C10*%
X73660000Y-72410000D02*
X73660000Y-74910000D01*
X73660000Y-74910000D02*
X78660000Y-74910000D01*
X78660000Y-74910000D02*
X78660000Y-72410000D01*
X78660000Y-72410000D02*
X73660000Y-72410000D01*
%TO.C,R7*%
X135910000Y-107750000D02*
X142210000Y-107750000D01*
X142210000Y-107750000D02*
X142210000Y-105250000D01*
X142210000Y-105250000D02*
X135910000Y-105250000D01*
X135250000Y-106500000D02*
X135910000Y-106500000D01*
X135910000Y-105250000D02*
X135910000Y-107750000D01*
X142870000Y-106500000D02*
X142210000Y-106500000D01*
%TO.C,R15*%
X137460000Y-137750000D02*
X137460000Y-135250000D01*
X138120000Y-136500000D02*
X137460000Y-136500000D01*
X131160000Y-135250000D02*
X131160000Y-137750000D01*
X137460000Y-135250000D02*
X131160000Y-135250000D01*
X130500000Y-136500000D02*
X131160000Y-136500000D01*
X131160000Y-137750000D02*
X137460000Y-137750000D01*
%TO.C,C9*%
X60000000Y-107750000D02*
X65000000Y-107750000D01*
X60000000Y-105250000D02*
X60000000Y-107750000D01*
X65000000Y-105250000D02*
X60000000Y-105250000D01*
X65000000Y-107750000D02*
X65000000Y-105250000D01*
%TO.C,J2*%
X49530000Y-46295000D02*
X49530000Y-44390000D01*
X49530000Y-44390000D02*
X57150000Y-44390000D01*
X50165000Y-46930000D02*
X49530000Y-46295000D01*
X57150000Y-44390000D02*
X57150000Y-46930000D01*
X57150000Y-46930000D02*
X50165000Y-46930000D01*
%TO.C,R3*%
X76810000Y-66782000D02*
X76810000Y-64282000D01*
X70510000Y-66782000D02*
X76810000Y-66782000D01*
X70510000Y-64282000D02*
X70510000Y-66782000D01*
X69850000Y-65532000D02*
X70510000Y-65532000D01*
X76810000Y-64282000D02*
X70510000Y-64282000D01*
X77470000Y-65532000D02*
X76810000Y-65532000D01*
%TO.C,R4*%
X57500000Y-135250000D02*
X58160000Y-135250000D01*
X65120000Y-135250000D02*
X64460000Y-135250000D01*
X58160000Y-136500000D02*
X64460000Y-136500000D01*
X64460000Y-136500000D02*
X64460000Y-134000000D01*
X58160000Y-134000000D02*
X58160000Y-136500000D01*
X64460000Y-134000000D02*
X58160000Y-134000000D01*
%TO.C,U5*%
X53985000Y-74930000D02*
X47635000Y-74930000D01*
X53985000Y-57150000D02*
X53985000Y-74930000D01*
X48635000Y-57150000D02*
X53985000Y-57150000D01*
X47635000Y-74930000D02*
X47635000Y-58150000D01*
X47635000Y-58150000D02*
X48635000Y-57150000D01*
%TO.C,R11*%
X76810000Y-56154000D02*
X70510000Y-56154000D01*
X69850000Y-57404000D02*
X70510000Y-57404000D01*
X70510000Y-56154000D02*
X70510000Y-58654000D01*
X76810000Y-58654000D02*
X76810000Y-56154000D01*
X70510000Y-58654000D02*
X76810000Y-58654000D01*
X77470000Y-57404000D02*
X76810000Y-57404000D01*
%TO.C,R12*%
X76810000Y-62718000D02*
X76810000Y-60218000D01*
X69850000Y-61468000D02*
X70510000Y-61468000D01*
X76810000Y-60218000D02*
X70510000Y-60218000D01*
X70510000Y-60218000D02*
X70510000Y-62718000D01*
X70510000Y-62718000D02*
X76810000Y-62718000D01*
X77470000Y-61468000D02*
X76810000Y-61468000D01*
%TO.C,R13*%
X66650000Y-66782000D02*
X66650000Y-64282000D01*
X67310000Y-65532000D02*
X66650000Y-65532000D01*
X60350000Y-66782000D02*
X66650000Y-66782000D01*
X59690000Y-65532000D02*
X60350000Y-65532000D01*
X66650000Y-64282000D02*
X60350000Y-64282000D01*
X60350000Y-64282000D02*
X60350000Y-66782000D01*
%TO.C,R14*%
X60350000Y-70846000D02*
X66650000Y-70846000D01*
X67310000Y-69596000D02*
X66650000Y-69596000D01*
X59690000Y-69596000D02*
X60350000Y-69596000D01*
X66650000Y-68346000D02*
X60350000Y-68346000D01*
X60350000Y-68346000D02*
X60350000Y-70846000D01*
X66650000Y-70846000D02*
X66650000Y-68346000D01*
%TO.C,R8*%
X60350000Y-72410000D02*
X60350000Y-74910000D01*
X66650000Y-72410000D02*
X60350000Y-72410000D01*
X60350000Y-74910000D02*
X66650000Y-74910000D01*
X59690000Y-73660000D02*
X60350000Y-73660000D01*
X66650000Y-74910000D02*
X66650000Y-72410000D01*
X67310000Y-73660000D02*
X66650000Y-73660000D01*
%TO.C,R9*%
X60350000Y-60218000D02*
X60350000Y-62718000D01*
X59690000Y-61468000D02*
X60350000Y-61468000D01*
X67310000Y-61468000D02*
X66650000Y-61468000D01*
X60350000Y-62718000D02*
X66650000Y-62718000D01*
X66650000Y-60218000D02*
X60350000Y-60218000D01*
X66650000Y-62718000D02*
X66650000Y-60218000D01*
%TO.C,J7*%
X99745000Y-23767100D02*
X100385000Y-23767100D01*
X94665000Y-29767100D02*
X94665000Y-23767100D01*
X91175000Y-29767100D02*
X103875000Y-29767100D01*
X97205000Y-36667100D02*
X97205000Y-32307100D01*
X100385000Y-36667100D02*
X100385000Y-32307100D01*
X102925000Y-29767100D02*
X102925000Y-23767100D01*
X103875000Y-29767100D02*
X103875000Y-32307100D01*
X99745000Y-36667100D02*
X100385000Y-36667100D01*
X92765000Y-29767100D02*
X92765000Y-23767100D01*
X92125000Y-36667100D02*
X92125000Y-32307100D01*
X95305000Y-36667100D02*
X95305000Y-32307100D01*
X97845000Y-29767100D02*
X97845000Y-23767100D01*
X99745000Y-29767100D02*
X99745000Y-23767100D01*
X97205000Y-36667100D02*
X97845000Y-36667100D01*
X91810000Y-32307100D02*
X91175000Y-31672100D01*
X97845000Y-36667100D02*
X97845000Y-32307100D01*
X97205000Y-23767100D02*
X97845000Y-23767100D01*
X94665000Y-36667100D02*
X94665000Y-32307100D01*
X102285000Y-36667100D02*
X102285000Y-32307100D01*
X97205000Y-29767100D02*
X97205000Y-23767100D01*
X94665000Y-36667100D02*
X95305000Y-36667100D01*
X92125000Y-29767100D02*
X92125000Y-23767100D01*
X102285000Y-36667100D02*
X102925000Y-36667100D01*
X99745000Y-36667100D02*
X99745000Y-32307100D01*
X100385000Y-29767100D02*
X100385000Y-23767100D01*
X102285000Y-29767100D02*
X102285000Y-23767100D01*
X94665000Y-23767100D02*
X95305000Y-23767100D01*
X91175000Y-31672100D02*
X91175000Y-29767100D01*
X103875000Y-32307100D02*
X91810000Y-32307100D01*
X92765000Y-36667100D02*
X92765000Y-32307100D01*
X92125000Y-36667100D02*
X92765000Y-36667100D01*
X92125000Y-23767100D02*
X92765000Y-23767100D01*
X95305000Y-29767100D02*
X95305000Y-23767100D01*
X102925000Y-36667100D02*
X102925000Y-32307100D01*
X102285000Y-23767100D02*
X102925000Y-23767100D01*
%TO.C,U11*%
X65405000Y-102870000D02*
X59055000Y-102870000D01*
X60055000Y-77470000D02*
X65405000Y-77470000D01*
X59055000Y-102870000D02*
X59055000Y-78470000D01*
X59055000Y-78470000D02*
X60055000Y-77470000D01*
X65405000Y-77470000D02*
X65405000Y-102870000D01*
%TO.C,J3*%
X84135000Y-29757100D02*
X84135000Y-23757100D01*
X86035000Y-29757100D02*
X86035000Y-23757100D01*
X86035000Y-23757100D02*
X86675000Y-23757100D01*
X83495000Y-34117100D02*
X84135000Y-34117100D01*
X87625000Y-32297100D02*
X83180000Y-32297100D01*
X86035000Y-34117100D02*
X86675000Y-34117100D01*
X86035000Y-34117100D02*
X86035000Y-32297100D01*
X84135000Y-34117100D02*
X84135000Y-32297100D01*
X86675000Y-34117100D02*
X86675000Y-32297100D01*
X87625000Y-29757100D02*
X87625000Y-32297100D01*
X83495000Y-34117100D02*
X83495000Y-32297100D01*
X82545000Y-29757100D02*
X87625000Y-29757100D01*
X86675000Y-29757100D02*
X86675000Y-23757100D01*
X83495000Y-29757100D02*
X83495000Y-23757100D01*
X83495000Y-23757100D02*
X84135000Y-23757100D01*
X83180000Y-32297100D02*
X82545000Y-31662100D01*
X82545000Y-31662100D02*
X82545000Y-29757100D01*
%TO.C,J1*%
X70485000Y-46990000D02*
X69850000Y-46355000D01*
X77470000Y-44450000D02*
X77470000Y-46990000D01*
X69850000Y-46355000D02*
X69850000Y-44450000D01*
X69850000Y-44450000D02*
X77470000Y-44450000D01*
X77470000Y-46990000D02*
X70485000Y-46990000D01*
%TO.C,J6*%
X131935000Y-26397400D02*
X131935000Y-31397400D01*
X111935000Y-31397400D02*
X111935000Y-26397400D01*
X106510000Y-31797400D02*
X106510000Y-40397400D01*
X130085000Y-25397400D02*
X113785000Y-25397400D01*
X137360000Y-40397400D02*
X137360000Y-31797400D01*
X107835000Y-31797400D02*
X107835000Y-36737400D01*
X132835000Y-31797400D02*
X132835000Y-36737400D01*
X106935000Y-31397400D02*
X111935000Y-31397400D01*
X136035000Y-31797400D02*
X136035000Y-36737400D01*
X136935000Y-26397400D02*
X131935000Y-26397400D01*
X130085000Y-31397400D02*
X130085000Y-25397400D01*
X106510000Y-40397400D02*
X137360000Y-40397400D01*
X131935000Y-31397400D02*
X136935000Y-31397400D01*
X106935000Y-26397400D02*
X106935000Y-31397400D01*
X136935000Y-31397400D02*
X136935000Y-26397400D01*
X106510000Y-31797400D02*
X137360000Y-31797400D01*
X111935000Y-26397400D02*
X106935000Y-26397400D01*
X111035000Y-31797400D02*
X111035000Y-36737400D01*
X137360000Y-31797400D02*
X106510000Y-31797400D01*
X113785000Y-31397400D02*
X130085000Y-31397400D01*
X106510000Y-31397400D02*
X106510000Y-31797400D01*
X113785000Y-25397400D02*
X113785000Y-31397400D01*
X137360000Y-31797400D02*
X137360000Y-31397400D01*
X137360000Y-31397400D02*
X106510000Y-31397400D01*
X107835000Y-36737400D02*
G75*
G03*
X111035000Y-36737400I1600000J0D01*
G01*
X132835000Y-36737400D02*
G75*
G03*
X136035000Y-36737400I1600000J0D01*
G01*
%TO.C,D6*%
X51620000Y-141650000D02*
X51620000Y-144350000D01*
X51520000Y-141650000D02*
X51520000Y-144350000D01*
X50740000Y-141650000D02*
X50740000Y-144350000D01*
X50740000Y-144350000D02*
X55940000Y-144350000D01*
X51420000Y-141650000D02*
X51420000Y-144350000D01*
X55940000Y-141650000D02*
X50740000Y-141650000D01*
X58420000Y-143000000D02*
X55940000Y-143000000D01*
X48260000Y-143000000D02*
X50740000Y-143000000D01*
X55940000Y-144350000D02*
X55940000Y-141650000D01*
%TO.C,U1*%
X76845000Y-77470000D02*
X76845000Y-97790000D01*
X70495000Y-78470000D02*
X71495000Y-77470000D01*
X71495000Y-77470000D02*
X76845000Y-77470000D01*
X76845000Y-97790000D02*
X70495000Y-97790000D01*
X70495000Y-97790000D02*
X70495000Y-78470000D01*
%TO.C,J5*%
X59690000Y-46355000D02*
X59690000Y-44450000D01*
X67310000Y-44450000D02*
X67310000Y-46990000D01*
X59690000Y-44450000D02*
X67310000Y-44450000D01*
X60325000Y-46990000D02*
X59690000Y-46355000D01*
X67310000Y-46990000D02*
X60325000Y-46990000D01*
%TO.C,D5*%
X67910000Y-35646190D02*
X67910000Y-33313810D01*
X67910555Y-33314524D02*
G75*
G03*
X67910000Y-35646190I-1500555J-1165476D01*
G01*
X67910000Y-34480000D02*
G75*
G03*
X67910000Y-34480000I-1500000J0D01*
G01*
%TO.C,J4*%
X78815000Y-34117100D02*
X78815000Y-32297100D01*
X73420000Y-32297100D02*
X72785000Y-31662100D01*
X80405000Y-29757100D02*
X80405000Y-32297100D01*
X72785000Y-31662100D02*
X72785000Y-29757100D01*
X80405000Y-32297100D02*
X73420000Y-32297100D01*
X78815000Y-29757100D02*
X78815000Y-23757100D01*
X76275000Y-34117100D02*
X76915000Y-34117100D01*
X74375000Y-34117100D02*
X74375000Y-32297100D01*
X73735000Y-23757100D02*
X74375000Y-23757100D01*
X76915000Y-29757100D02*
X76915000Y-23757100D01*
X72785000Y-29757100D02*
X80405000Y-29757100D01*
X74375000Y-29757100D02*
X74375000Y-23757100D01*
X73735000Y-29757100D02*
X73735000Y-23757100D01*
X78815000Y-23757100D02*
X79455000Y-23757100D01*
X73735000Y-34117100D02*
X73735000Y-32297100D01*
X76275000Y-34117100D02*
X76275000Y-32297100D01*
X78815000Y-34117100D02*
X79455000Y-34117100D01*
X79455000Y-34117100D02*
X79455000Y-32297100D01*
X76275000Y-23757100D02*
X76915000Y-23757100D01*
X76275000Y-29757100D02*
X76275000Y-23757100D01*
X76915000Y-34117100D02*
X76915000Y-32297100D01*
X79455000Y-29757100D02*
X79455000Y-23757100D01*
X73735000Y-34117100D02*
X74375000Y-34117100D01*
%TO.C,U9*%
X53985000Y-82545000D02*
X53985000Y-100325000D01*
X48635000Y-82545000D02*
X53985000Y-82545000D01*
X47635000Y-83545000D02*
X48635000Y-82545000D01*
X53985000Y-100325000D02*
X47635000Y-100325000D01*
X47635000Y-100325000D02*
X47635000Y-83545000D01*
%TO.C,D3*%
X48260000Y-139700000D02*
X50740000Y-139700000D01*
X51420000Y-138350000D02*
X51420000Y-141050000D01*
X55940000Y-138350000D02*
X50740000Y-138350000D01*
X51620000Y-138350000D02*
X51620000Y-141050000D01*
X58420000Y-139700000D02*
X55940000Y-139700000D01*
X50740000Y-138350000D02*
X50740000Y-141050000D01*
X50740000Y-141050000D02*
X55940000Y-141050000D01*
X55940000Y-141050000D02*
X55940000Y-138350000D01*
X51520000Y-138350000D02*
X51520000Y-141050000D01*
%TD*%
M02*
