M48
; DRILL file {KiCad (6.0.11)} date Mon May 22 16:35:10 2023
; FORMAT={-:-/ absolute / inch / decimal}
; #@! TF.CreationDate,2023-05-22T16:35:10-05:00
; #@! TF.GenerationSoftware,Kicad,Pcbnew,(6.0.11)
; #@! TF.FileFunction,Plated,1,2,PTH
FMAT,2
INCH
; #@! TA.AperFunction,Plated,PTH,ViaDrill
T1C0.0157
; #@! TA.AperFunction,Plated,PTH,ComponentDrill
T2C0.0315
; #@! TA.AperFunction,Plated,PTH,ComponentDrill
T3C0.0354
; #@! TA.AperFunction,Plated,PTH,ComponentDrill
T4C0.0394
; #@! TA.AperFunction,Plated,PTH,ComponentDrill
T5C0.0433
; #@! TA.AperFunction,Plated,PTH,ComponentDrill
T6C0.0866
; #@! TA.AperFunction,Plated,PTH,ComponentDrill
T7C0.1260
%
G90
G05
T1
X2.4051Y-4.6716
X2.4248Y-1.6143
X2.4394Y-2.42
X2.444Y-4.7925
X2.4509Y-3.2633
X2.47Y-5.0205
X2.476Y-4.8488
X2.5136Y-3.9437
X2.5211Y-5.1918
X2.5802Y-4.5738
X2.6051Y-4.7157
X2.6404Y-3.1525
X2.7921Y-2.5313
X2.7923Y-3.35
X2.8253Y-3.9129
X2.852Y-4.9068
X2.8593Y-4.7176
X2.9481Y-3.4394
X3.0179Y-5.227
X3.0317Y-4.1795
X3.0639Y-2.5185
X3.0997Y-2.0406
X3.179Y-4.8119
X3.1837Y-2.1183
X3.3709Y-4.6099
X3.4118Y-5.3464
X3.5452Y-4.7943
X3.6302Y-3.9478
X3.6553Y-5.3546
X3.6754Y-4.8342
X3.6877Y-3.3295
X3.7273Y-4.1654
X3.7318Y-3.9145
X3.8143Y-2.4877
X3.8675Y-4.1907
X3.9442Y-4.1738
X3.9714Y-4.2223
X4.1071Y-3.3917
X4.1407Y-4.9111
X4.3436Y-5.3694
X4.3632Y-5.4263
X4.3924Y-4.6623
X4.3958Y-4.9737
X4.4175Y-5.1924
X4.4177Y-5.1117
X4.7026Y-1.6587
T2
X1.8504Y-2.3
X1.8504Y-2.4
X1.8504Y-2.5
X1.8504Y-2.6
X1.8504Y-2.7
X1.8504Y-2.8
X1.8504Y-2.9
X1.8504Y-3.2998
X1.8504Y-3.3998
X1.8504Y-3.4998
X1.8504Y-3.5998
X1.8504Y-3.6998
X1.8504Y-3.7998
X1.8504Y-3.8998
X1.8504Y-4.3701
X1.8504Y-4.4701
X1.8504Y-4.5701
X1.8504Y-4.6701
X1.8504Y-4.7701
X1.8504Y-4.8701
X1.8504Y-4.9701
X1.9094Y-5.1476
X1.9488Y-4.1929
X2.1063Y-5.1476
X2.1457Y-4.1929
X2.1504Y-2.3
X2.1504Y-2.4
X2.1504Y-2.5
X2.1504Y-2.6
X2.1504Y-2.7
X2.1504Y-2.8
X2.1504Y-2.9
X2.1504Y-3.2998
X2.1504Y-3.3998
X2.1504Y-3.4998
X2.1504Y-3.5998
X2.1504Y-3.6998
X2.1504Y-3.7998
X2.1504Y-3.8998
X2.1504Y-4.3701
X2.1504Y-4.4701
X2.1504Y-4.5701
X2.1504Y-4.6701
X2.1504Y-4.7701
X2.1504Y-4.8701
X2.1504Y-4.9701
X2.2591Y-5.1476
X2.2638Y-5.3248
X2.3Y-3.1
X2.3Y-3.2
X2.3Y-3.3
X2.3Y-3.4
X2.3Y-3.5
X2.3Y-3.6
X2.3Y-3.7
X2.3Y-3.8
X2.3Y-3.9
X2.3Y-4.0
X2.3327Y-4.3701
X2.3327Y-4.4701
X2.3327Y-4.5701
X2.3327Y-4.6701
X2.3327Y-4.7701
X2.3327Y-4.8701
X2.3327Y-4.9701
X2.3477Y-2.26
X2.35Y-2.1
X2.35Y-2.42
X2.35Y-2.58
X2.35Y-2.74
X2.35Y-2.9
X2.3622Y-4.1929
X2.5295Y-5.6102
X2.5591Y-4.1929
X2.5591Y-5.1476
X2.5638Y-5.3248
X2.6Y-3.1
X2.6Y-3.2
X2.6Y-3.3
X2.6Y-3.4
X2.6Y-3.5
X2.6Y-3.6
X2.6Y-3.7
X2.6Y-3.8
X2.6Y-3.9
X2.6Y-4.0
X2.628Y-5.6102
X2.6327Y-4.3701
X2.6327Y-4.4701
X2.6327Y-4.5701
X2.6327Y-4.6701
X2.6327Y-4.7701
X2.6327Y-4.8701
X2.6327Y-4.9701
X2.6477Y-2.26
X2.65Y-2.1
X2.65Y-2.42
X2.65Y-2.58
X2.65Y-2.74
X2.65Y-2.9
X2.6724Y-5.1476
X2.75Y-2.1
X2.75Y-2.26
X2.75Y-2.42
X2.75Y-2.58
X2.7504Y-3.1
X2.7504Y-3.2
X2.7504Y-3.3
X2.7504Y-3.4
X2.7504Y-3.5
X2.7504Y-3.6
X2.7504Y-3.7
X2.7504Y-3.8
X2.7756Y-4.1929
X2.815Y-4.3701
X2.815Y-4.4701
X2.815Y-4.5701
X2.815Y-4.6701
X2.815Y-4.7701
X2.815Y-4.8701
X2.815Y-4.9701
X2.9Y-1.6
X2.9Y-2.9
X2.9724Y-4.1929
X2.9724Y-5.1476
X2.9984Y-1.6
X3.05Y-2.1
X3.05Y-2.26
X3.05Y-2.42
X3.05Y-2.58
X3.0504Y-3.1
X3.0504Y-3.2
X3.0504Y-3.3
X3.0504Y-3.4
X3.0504Y-3.5
X3.0504Y-3.6
X3.0504Y-3.7
X3.0504Y-3.8
X3.0969Y-2.9
X3.115Y-4.3701
X3.115Y-4.4701
X3.115Y-4.5701
X3.115Y-4.6701
X3.115Y-4.7701
X3.115Y-4.8701
X3.115Y-4.9701
X3.189Y-4.1929
X3.2972Y-4.3701
X3.2972Y-4.4701
X3.2972Y-4.5701
X3.2972Y-4.6701
X3.2972Y-4.7701
X3.2972Y-4.8701
X3.2972Y-4.9701
X3.2972Y-5.0701
X3.2972Y-5.1701
X3.2972Y-5.2701
X3.3858Y-4.1929
X3.5972Y-4.3701
X3.5972Y-4.4701
X3.5972Y-4.5701
X3.5972Y-4.6701
X3.5972Y-4.7701
X3.5972Y-4.8701
X3.5972Y-4.9701
X3.5972Y-5.0701
X3.5972Y-5.1701
X3.5972Y-5.2701
X3.6024Y-4.1929
X3.7795Y-4.3701
X3.7795Y-4.4701
X3.7795Y-4.5701
X3.7795Y-4.6701
X3.7795Y-4.7701
X3.7795Y-4.8701
X3.7795Y-4.9701
X3.7795Y-5.0701
X3.7795Y-5.1701
X3.7795Y-5.2701
X3.7992Y-4.1929
X4.0157Y-4.1929
X4.0795Y-4.3701
X4.0795Y-4.4701
X4.0795Y-4.5701
X4.0795Y-4.6701
X4.0795Y-4.7701
X4.0795Y-4.8701
X4.0795Y-4.9701
X4.0795Y-5.0701
X4.0795Y-5.1701
X4.0795Y-5.2701
X4.2126Y-4.1929
X4.2618Y-4.3701
X4.2618Y-4.4701
X4.2618Y-4.5701
X4.2618Y-4.6701
X4.2618Y-4.7701
X4.2618Y-4.8701
X4.2618Y-4.9701
X4.2618Y-5.0701
X4.2618Y-5.1701
X4.2618Y-5.2701
X4.4291Y-4.1929
X4.5618Y-4.3701
X4.5618Y-4.4701
X4.5618Y-4.5701
X4.5618Y-4.6701
X4.5618Y-4.7701
X4.5618Y-4.8701
X4.5618Y-4.9701
X4.5618Y-5.0701
X4.5618Y-5.1701
X4.5618Y-5.2701
X4.626Y-4.1929
X4.7441Y-4.3701
X4.7441Y-4.4701
X4.7441Y-4.5701
X4.7441Y-4.6701
X4.7441Y-4.7701
X4.7441Y-4.8701
X4.7441Y-4.9701
X4.7441Y-5.0701
X4.7441Y-5.1701
X4.7441Y-5.2701
X4.8425Y-4.1929
X5.0394Y-4.1929
X5.0441Y-4.3701
X5.0441Y-4.4701
X5.0441Y-4.5701
X5.0441Y-4.6701
X5.0441Y-4.7701
X5.0441Y-4.8701
X5.0441Y-4.9701
X5.0441Y-5.0701
X5.0441Y-5.1701
X5.0441Y-5.2701
X5.1378Y-5.374
X5.1772Y-4.3701
X5.1772Y-4.4701
X5.1772Y-4.5701
X5.1772Y-4.6701
X5.1772Y-4.7701
X5.1772Y-4.8701
X5.1772Y-4.9701
X5.1772Y-5.0701
X5.1772Y-5.1701
X5.315Y-4.4685
X5.315Y-4.5685
X5.315Y-4.6685
X5.315Y-4.7685
X5.315Y-4.8685
X5.315Y-4.9685
X5.315Y-5.0685
X5.315Y-5.1685
X5.3248Y-4.1929
X5.4378Y-5.374
X5.615Y-4.4685
X5.615Y-4.5685
X5.615Y-4.6685
X5.615Y-4.7685
X5.615Y-4.8685
X5.615Y-4.9685
X5.615Y-5.0685
X5.615Y-5.1685
X5.6248Y-4.1929
T3
X2.0654Y-1.3587
X2.1654Y-1.3587
X2.3114Y-1.3587
X2.4114Y-1.3587
X2.5646Y-1.3575
X2.6646Y-1.3575
T4
X2.0Y-1.7976
X2.1Y-1.7976
X2.2Y-1.7976
X2.4Y-1.8
X2.5Y-1.8
X2.6Y-1.8
X2.8Y-1.8
X2.9Y-1.8
X2.915Y-5.5512
X2.915Y-5.6512
X2.9156Y-1.3306
X3.0Y-1.8
X3.015Y-5.5512
X3.015Y-5.6512
X3.0156Y-1.3306
X3.115Y-5.5512
X3.115Y-5.6512
X3.1156Y-1.3306
X3.215Y-5.5512
X3.215Y-5.6512
X3.2998Y-1.3306
X3.315Y-5.5512
X3.315Y-5.6512
X3.3998Y-1.3306
X3.415Y-5.5512
X3.415Y-5.6512
X3.515Y-5.5512
X3.515Y-5.6512
X3.584Y-1.761
X3.584Y-2.7626
X3.584Y-3.0004
X3.584Y-4.002
X3.615Y-5.5512
X3.615Y-5.6512
X3.6396Y-1.331
X3.6396Y-1.431
X3.684Y-1.761
X3.684Y-2.7626
X3.684Y-3.0004
X3.684Y-4.002
X3.715Y-5.5512
X3.715Y-5.6512
X3.7396Y-1.331
X3.7396Y-1.431
X3.784Y-1.761
X3.784Y-2.7626
X3.784Y-3.0004
X3.784Y-4.002
X3.815Y-5.5512
X3.815Y-5.6512
X3.8396Y-1.331
X3.8396Y-1.431
X3.884Y-1.761
X3.884Y-2.7626
X3.884Y-3.0004
X3.884Y-4.002
X3.915Y-5.5512
X3.915Y-5.6512
X3.9396Y-1.331
X3.9396Y-1.431
X3.984Y-1.761
X3.984Y-2.7626
X3.984Y-3.0004
X3.984Y-4.002
X4.015Y-5.5512
X4.015Y-5.6512
X4.0396Y-1.331
X4.0396Y-1.431
X4.084Y-1.761
X4.084Y-2.7626
X4.084Y-3.0004
X4.084Y-4.002
X4.115Y-5.5512
X4.115Y-5.6512
X4.184Y-1.761
X4.184Y-2.7626
X4.184Y-3.0004
X4.184Y-4.002
X4.215Y-5.5512
X4.215Y-5.6512
X4.284Y-1.761
X4.284Y-2.7626
X4.284Y-3.0004
X4.284Y-4.002
X4.315Y-5.5512
X4.315Y-5.6512
X4.384Y-1.761
X4.384Y-2.7626
X4.384Y-3.0004
X4.384Y-4.002
X4.415Y-5.5512
X4.415Y-5.6512
X4.484Y-1.761
X4.484Y-2.7626
X4.484Y-3.0004
X4.484Y-4.002
X4.515Y-5.5512
X4.515Y-5.6512
X4.584Y-1.761
X4.584Y-2.7626
X4.584Y-3.0004
X4.584Y-4.002
X4.5856Y-1.4491
X4.615Y-5.5512
X4.615Y-5.6512
X4.6307Y-1.3712
X4.6307Y-1.5271
X4.6758Y-1.4491
X4.684Y-1.761
X4.684Y-2.7626
X4.684Y-3.0004
X4.684Y-4.002
X4.715Y-5.5512
X4.715Y-5.6512
X4.7209Y-1.3712
X4.7209Y-1.5271
X4.7659Y-1.4491
X4.784Y-1.761
X4.784Y-2.7626
X4.784Y-3.0004
X4.784Y-4.002
X4.811Y-1.3712
X4.811Y-1.5271
X4.815Y-5.5512
X4.815Y-5.6512
X4.8561Y-1.4491
X4.884Y-1.761
X4.884Y-2.7626
X4.884Y-3.0004
X4.884Y-4.002
X4.9012Y-1.3712
X4.9012Y-1.5271
X4.915Y-5.5512
X4.915Y-5.6512
X4.9463Y-1.4491
X4.984Y-1.761
X4.984Y-2.7626
X4.984Y-3.0004
X4.984Y-4.002
X4.9913Y-1.3712
X4.9913Y-1.5271
X5.015Y-5.5512
X5.015Y-5.6512
X5.115Y-5.5512
X5.115Y-5.6512
X5.215Y-5.5512
X5.215Y-5.6512
X5.315Y-5.5512
X5.315Y-5.6512
T5
X1.9Y-5.5
X1.9Y-5.6299
X2.3Y-5.5
X2.3Y-5.6299
T6
X1.8898Y-1.3386
X5.5906Y-1.3386
T7
X4.3085Y-1.4464
X5.2927Y-1.4464
T0
M30
