%TF.GenerationSoftware,KiCad,Pcbnew,(6.0.11)*%
%TF.CreationDate,2023-05-22T16:35:14-05:00*%
%TF.ProjectId,Z80ESP,5a383045-5350-42e6-9b69-6361645f7063,rev?*%
%TF.SameCoordinates,Original*%
%TF.FileFunction,Soldermask,Top*%
%TF.FilePolarity,Negative*%
%FSLAX46Y46*%
G04 Gerber Fmt 4.6, Leading zero omitted, Abs format (unit mm)*
G04 Created by KiCad (PCBNEW (6.0.11)) date 2023-05-22 16:35:14*
%MOMM*%
%LPD*%
G01*
G04 APERTURE LIST*
G04 Aperture macros list*
%AMRoundRect*
0 Rectangle with rounded corners*
0 $1 Rounding radius*
0 $2 $3 $4 $5 $6 $7 $8 $9 X,Y pos of 4 corners*
0 Add a 4 corners polygon primitive as box body*
4,1,4,$2,$3,$4,$5,$6,$7,$8,$9,$2,$3,0*
0 Add four circle primitives for the rounded corners*
1,1,$1+$1,$2,$3*
1,1,$1+$1,$4,$5*
1,1,$1+$1,$6,$7*
1,1,$1+$1,$8,$9*
0 Add four rect primitives between the rounded corners*
20,1,$1+$1,$2,$3,$4,$5,0*
20,1,$1+$1,$4,$5,$6,$7,0*
20,1,$1+$1,$6,$7,$8,$9,0*
20,1,$1+$1,$8,$9,$2,$3,0*%
G04 Aperture macros list end*
%ADD10RoundRect,0.200000X-0.800000X-0.800000X0.800000X-0.800000X0.800000X0.800000X-0.800000X0.800000X0*%
%ADD11O,2.000000X2.000000*%
%ADD12C,2.000000*%
%ADD13RoundRect,0.200000X-0.800000X0.800000X-0.800000X-0.800000X0.800000X-0.800000X0.800000X0.800000X0*%
%ADD14C,4.800000*%
%ADD15RoundRect,0.200000X-0.850000X0.850000X-0.850000X-0.850000X0.850000X-0.850000X0.850000X0.850000X0*%
%ADD16O,2.100000X2.100000*%
%ADD17RoundRect,0.200000X0.900000X0.900000X-0.900000X0.900000X-0.900000X-0.900000X0.900000X-0.900000X0*%
%ADD18C,2.200000*%
%ADD19RoundRect,0.200000X0.850000X-0.850000X0.850000X0.850000X-0.850000X0.850000X-0.850000X-0.850000X0*%
%ADD20C,4.400000*%
%ADD21RoundRect,0.200000X0.800000X0.800000X-0.800000X0.800000X-0.800000X-0.800000X0.800000X-0.800000X0*%
%ADD22RoundRect,0.200000X-1.100000X-1.100000X1.100000X-1.100000X1.100000X1.100000X-1.100000X1.100000X0*%
%ADD23O,2.600000X2.600000*%
G04 APERTURE END LIST*
D10*
%TO.C,SW1*%
X135000000Y-113500000D03*
D11*
X135000000Y-116040000D03*
X135000000Y-118580000D03*
X135000000Y-121120000D03*
X135000000Y-123660000D03*
X135000000Y-126200000D03*
X135000000Y-128740000D03*
X135000000Y-131280000D03*
X142620000Y-131280000D03*
X142620000Y-128740000D03*
X142620000Y-126200000D03*
X142620000Y-123660000D03*
X142620000Y-121120000D03*
X142620000Y-118580000D03*
X142620000Y-116040000D03*
X142620000Y-113500000D03*
%TD*%
D12*
%TO.C,C1*%
X86000000Y-106500000D03*
X81000000Y-106500000D03*
%TD*%
%TO.C,C2*%
X96500000Y-106500000D03*
X91500000Y-106500000D03*
%TD*%
%TO.C,C4*%
X117500000Y-106500000D03*
X112500000Y-106500000D03*
%TD*%
D10*
%TO.C,U2*%
X108250000Y-111000000D03*
D11*
X108250000Y-113540000D03*
X108250000Y-116080000D03*
X108250000Y-118620000D03*
X108250000Y-121160000D03*
X108250000Y-123700000D03*
X108250000Y-126240000D03*
X108250000Y-128780000D03*
X108250000Y-131320000D03*
X108250000Y-133860000D03*
X115870000Y-133860000D03*
X115870000Y-131320000D03*
X115870000Y-128780000D03*
X115870000Y-126240000D03*
X115870000Y-123700000D03*
X115870000Y-121160000D03*
X115870000Y-118620000D03*
X115870000Y-116080000D03*
X115870000Y-113540000D03*
X115870000Y-111000000D03*
%TD*%
D10*
%TO.C,U10*%
X120500000Y-111000000D03*
D11*
X120500000Y-113540000D03*
X120500000Y-116080000D03*
X120500000Y-118620000D03*
X120500000Y-121160000D03*
X120500000Y-123700000D03*
X120500000Y-126240000D03*
X120500000Y-128780000D03*
X120500000Y-131320000D03*
X120500000Y-133860000D03*
X128120000Y-133860000D03*
X128120000Y-131320000D03*
X128120000Y-128780000D03*
X128120000Y-126240000D03*
X128120000Y-123700000D03*
X128120000Y-121160000D03*
X128120000Y-118620000D03*
X128120000Y-116080000D03*
X128120000Y-113540000D03*
X128120000Y-111000000D03*
%TD*%
D13*
%TO.C,RR1*%
X131500000Y-111000000D03*
D11*
X131500000Y-113540000D03*
X131500000Y-116080000D03*
X131500000Y-118620000D03*
X131500000Y-121160000D03*
X131500000Y-123700000D03*
X131500000Y-126240000D03*
X131500000Y-128780000D03*
X131500000Y-131320000D03*
%TD*%
D10*
%TO.C,U6*%
X71500000Y-111000000D03*
D11*
X71500000Y-113540000D03*
X71500000Y-116080000D03*
X71500000Y-118620000D03*
X71500000Y-121160000D03*
X71500000Y-123700000D03*
X71500000Y-126240000D03*
X79120000Y-126240000D03*
X79120000Y-123700000D03*
X79120000Y-121160000D03*
X79120000Y-118620000D03*
X79120000Y-116080000D03*
X79120000Y-113540000D03*
X79120000Y-111000000D03*
%TD*%
D12*
%TO.C,C7*%
X75500000Y-106500000D03*
X70500000Y-106500000D03*
%TD*%
D10*
%TO.C,U3*%
X96000000Y-111000000D03*
D11*
X96000000Y-113540000D03*
X96000000Y-116080000D03*
X96000000Y-118620000D03*
X96000000Y-121160000D03*
X96000000Y-123700000D03*
X96000000Y-126240000D03*
X96000000Y-128780000D03*
X96000000Y-131320000D03*
X96000000Y-133860000D03*
X103620000Y-133860000D03*
X103620000Y-131320000D03*
X103620000Y-128780000D03*
X103620000Y-126240000D03*
X103620000Y-123700000D03*
X103620000Y-121160000D03*
X103620000Y-118620000D03*
X103620000Y-116080000D03*
X103620000Y-113540000D03*
X103620000Y-111000000D03*
%TD*%
D12*
%TO.C,C3*%
X107000000Y-106500000D03*
X102000000Y-106500000D03*
%TD*%
%TO.C,C5*%
X128000000Y-106500000D03*
X123000000Y-106500000D03*
%TD*%
D10*
%TO.C,U4*%
X83750000Y-111000000D03*
D11*
X83750000Y-113540000D03*
X83750000Y-116080000D03*
X83750000Y-118620000D03*
X83750000Y-121160000D03*
X83750000Y-123700000D03*
X83750000Y-126240000D03*
X83750000Y-128780000D03*
X83750000Y-131320000D03*
X83750000Y-133860000D03*
X91370000Y-133860000D03*
X91370000Y-131320000D03*
X91370000Y-128780000D03*
X91370000Y-126240000D03*
X91370000Y-123700000D03*
X91370000Y-121160000D03*
X91370000Y-118620000D03*
X91370000Y-116080000D03*
X91370000Y-113540000D03*
X91370000Y-111000000D03*
%TD*%
D12*
%TO.C,C6*%
X54500000Y-106500000D03*
X49500000Y-106500000D03*
%TD*%
D10*
%TO.C,C11*%
X73660000Y-40640000D03*
D12*
X76160000Y-40640000D03*
%TD*%
%TO.C,C8*%
X53500000Y-130750000D03*
X48500000Y-130750000D03*
%TD*%
D10*
%TO.C,C12*%
X64250000Y-142500000D03*
D12*
X66750000Y-142500000D03*
%TD*%
%TO.C,R2*%
X67310000Y-53340000D03*
D11*
X59690000Y-53340000D03*
%TD*%
D14*
%TO.C,H1*%
X48000000Y-34000000D03*
%TD*%
%TO.C,H2*%
X142000000Y-34000000D03*
%TD*%
D15*
%TO.C,P2*%
X135000000Y-141000000D03*
D16*
X135000000Y-143540000D03*
X132460000Y-141000000D03*
X132460000Y-143540000D03*
X129920000Y-141000000D03*
X129920000Y-143540000D03*
X127380000Y-141000000D03*
X127380000Y-143540000D03*
X124840000Y-141000000D03*
X124840000Y-143540000D03*
X122300000Y-141000000D03*
X122300000Y-143540000D03*
X119760000Y-141000000D03*
X119760000Y-143540000D03*
X117220000Y-141000000D03*
X117220000Y-143540000D03*
X114680000Y-141000000D03*
X114680000Y-143540000D03*
X112140000Y-141000000D03*
X112140000Y-143540000D03*
X109600000Y-141000000D03*
X109600000Y-143540000D03*
X107060000Y-141000000D03*
X107060000Y-143540000D03*
X104520000Y-141000000D03*
X104520000Y-143540000D03*
X101980000Y-141000000D03*
X101980000Y-143540000D03*
X99440000Y-141000000D03*
X99440000Y-143540000D03*
X96900000Y-141000000D03*
X96900000Y-143540000D03*
X94360000Y-141000000D03*
X94360000Y-143540000D03*
X91820000Y-141000000D03*
X91820000Y-143540000D03*
X89280000Y-141000000D03*
X89280000Y-143540000D03*
X86740000Y-141000000D03*
X86740000Y-143540000D03*
X84200000Y-141000000D03*
X84200000Y-143540000D03*
X81660000Y-141000000D03*
X81660000Y-143540000D03*
X79120000Y-141000000D03*
X79120000Y-143540000D03*
X76580000Y-141000000D03*
X76580000Y-143540000D03*
X74040000Y-141000000D03*
X74040000Y-143540000D03*
%TD*%
D17*
%TO.C,D2*%
X55000000Y-34510000D03*
D18*
X52460000Y-34510000D03*
%TD*%
D12*
%TO.C,R10*%
X67251200Y-57404000D03*
D11*
X59631200Y-57404000D03*
%TD*%
D10*
%TO.C,U8*%
X47000000Y-111000000D03*
D11*
X47000000Y-113540000D03*
X47000000Y-116080000D03*
X47000000Y-118620000D03*
X47000000Y-121160000D03*
X47000000Y-123700000D03*
X47000000Y-126240000D03*
X54620000Y-126240000D03*
X54620000Y-123700000D03*
X54620000Y-121160000D03*
X54620000Y-118620000D03*
X54620000Y-116080000D03*
X54620000Y-113540000D03*
X54620000Y-111000000D03*
%TD*%
D17*
%TO.C,D4*%
X61250000Y-34510000D03*
D18*
X58710000Y-34510000D03*
%TD*%
D19*
%TO.C,U12*%
X91032500Y-70170000D03*
D16*
X93572500Y-70170000D03*
X96112500Y-70170000D03*
X98652500Y-70170000D03*
X101192500Y-70170000D03*
X103732500Y-70170000D03*
X106272500Y-70170000D03*
X108812500Y-70170000D03*
X111352500Y-70170000D03*
X113892500Y-70170000D03*
X116432500Y-70170000D03*
X118972500Y-70170000D03*
X121512500Y-70170000D03*
X124052500Y-70170000D03*
X126592500Y-70170000D03*
X126592500Y-44730000D03*
X124052500Y-44730000D03*
X121512500Y-44730000D03*
X118972500Y-44730000D03*
X116432500Y-44730000D03*
X113892500Y-44730000D03*
X111352500Y-44730000D03*
X108812500Y-44730000D03*
X106272500Y-44730000D03*
X103732500Y-44730000D03*
X101192500Y-44730000D03*
X98652500Y-44730000D03*
X96112500Y-44730000D03*
X93572500Y-44730000D03*
X91032500Y-44730000D03*
%TD*%
D19*
%TO.C,U13*%
X91032500Y-101650000D03*
D16*
X93572500Y-101650000D03*
X96112500Y-101650000D03*
X98652500Y-101650000D03*
X101192500Y-101650000D03*
X103732500Y-101650000D03*
X106272500Y-101650000D03*
X108812500Y-101650000D03*
X111352500Y-101650000D03*
X113892500Y-101650000D03*
X116432500Y-101650000D03*
X118972500Y-101650000D03*
X121512500Y-101650000D03*
X124052500Y-101650000D03*
X126592500Y-101650000D03*
X126592500Y-76210000D03*
X124052500Y-76210000D03*
X121512500Y-76210000D03*
X118972500Y-76210000D03*
X116432500Y-76210000D03*
X113892500Y-76210000D03*
X111352500Y-76210000D03*
X108812500Y-76210000D03*
X106272500Y-76210000D03*
X103732500Y-76210000D03*
X101192500Y-76210000D03*
X98652500Y-76210000D03*
X96112500Y-76210000D03*
X93572500Y-76210000D03*
X91032500Y-76210000D03*
%TD*%
D12*
%TO.C,R16*%
X75500000Y-130750000D03*
D11*
X67880000Y-130750000D03*
%TD*%
D12*
%TO.C,R6*%
X65000000Y-130750000D03*
D11*
X57380000Y-130750000D03*
%TD*%
D12*
%TO.C,R5*%
X77470000Y-53340000D03*
D11*
X69850000Y-53340000D03*
%TD*%
D10*
%TO.C,U7*%
X59250000Y-111000000D03*
D11*
X59250000Y-113540000D03*
X59250000Y-116080000D03*
X59250000Y-118620000D03*
X59250000Y-121160000D03*
X59250000Y-123700000D03*
X59250000Y-126240000D03*
X66870000Y-126240000D03*
X66870000Y-123700000D03*
X66870000Y-121160000D03*
X66870000Y-118620000D03*
X66870000Y-116080000D03*
X66870000Y-113540000D03*
X66870000Y-111000000D03*
%TD*%
D12*
%TO.C,C10*%
X73660000Y-73660000D03*
X78660000Y-73660000D03*
%TD*%
%TO.C,R7*%
X135250000Y-106500000D03*
D11*
X142870000Y-106500000D03*
%TD*%
D12*
%TO.C,R15*%
X130500000Y-136500000D03*
D11*
X138120000Y-136500000D03*
%TD*%
D12*
%TO.C,C9*%
X65000000Y-106500000D03*
X60000000Y-106500000D03*
%TD*%
D19*
%TO.C,J2*%
X50800000Y-45660000D03*
D16*
X53340000Y-45660000D03*
X55880000Y-45660000D03*
%TD*%
D12*
%TO.C,R3*%
X77470000Y-65532000D03*
D11*
X69850000Y-65532000D03*
%TD*%
D12*
%TO.C,R4*%
X57500000Y-135250000D03*
D11*
X65120000Y-135250000D03*
%TD*%
D10*
%TO.C,U5*%
X47000000Y-58420000D03*
D11*
X47000000Y-60960000D03*
X47000000Y-63500000D03*
X47000000Y-66040000D03*
X47000000Y-68580000D03*
X47000000Y-71120000D03*
X47000000Y-73660000D03*
X54620000Y-73660000D03*
X54620000Y-71120000D03*
X54620000Y-68580000D03*
X54620000Y-66040000D03*
X54620000Y-63500000D03*
X54620000Y-60960000D03*
X54620000Y-58420000D03*
%TD*%
D12*
%TO.C,R11*%
X77470000Y-57404000D03*
D11*
X69850000Y-57404000D03*
%TD*%
D12*
%TO.C,R12*%
X77470000Y-61468000D03*
D11*
X69850000Y-61468000D03*
%TD*%
D12*
%TO.C,R13*%
X67310000Y-65532000D03*
D11*
X59690000Y-65532000D03*
%TD*%
D12*
%TO.C,R14*%
X67310000Y-69596000D03*
D11*
X59690000Y-69596000D03*
%TD*%
D12*
%TO.C,R8*%
X59690000Y-73660000D03*
D11*
X67310000Y-73660000D03*
%TD*%
D12*
%TO.C,R9*%
X59690000Y-61468000D03*
D11*
X67310000Y-61468000D03*
%TD*%
D19*
%TO.C,J7*%
X92445000Y-36347100D03*
D16*
X92445000Y-33807100D03*
X94985000Y-36347100D03*
X94985000Y-33807100D03*
X97525000Y-36347100D03*
X97525000Y-33807100D03*
X100065000Y-36347100D03*
X100065000Y-33807100D03*
X102605000Y-36347100D03*
X102605000Y-33807100D03*
%TD*%
D10*
%TO.C,U11*%
X58420000Y-78740000D03*
D11*
X58420000Y-81280000D03*
X58420000Y-83820000D03*
X58420000Y-86360000D03*
X58420000Y-88900000D03*
X58420000Y-91440000D03*
X58420000Y-93980000D03*
X58420000Y-96520000D03*
X58420000Y-99060000D03*
X58420000Y-101600000D03*
X66040000Y-101600000D03*
X66040000Y-99060000D03*
X66040000Y-96520000D03*
X66040000Y-93980000D03*
X66040000Y-91440000D03*
X66040000Y-88900000D03*
X66040000Y-86360000D03*
X66040000Y-83820000D03*
X66040000Y-81280000D03*
X66040000Y-78740000D03*
%TD*%
D19*
%TO.C,J3*%
X83815000Y-33797100D03*
D16*
X86355000Y-33797100D03*
%TD*%
D19*
%TO.C,J1*%
X71120000Y-45720000D03*
D16*
X73660000Y-45720000D03*
X76200000Y-45720000D03*
%TD*%
D20*
%TO.C,J6*%
X134435000Y-36737400D03*
X109435000Y-36737400D03*
D21*
X117620000Y-38787400D03*
D12*
X119910000Y-38787400D03*
X122200000Y-38787400D03*
X124490000Y-38787400D03*
X126780000Y-38787400D03*
X116475000Y-36807400D03*
X118765000Y-36807400D03*
X121055000Y-36807400D03*
X123345000Y-36807400D03*
X125635000Y-36807400D03*
X117620000Y-34827400D03*
X119910000Y-34827400D03*
X122200000Y-34827400D03*
X124490000Y-34827400D03*
X126780000Y-34827400D03*
%TD*%
D22*
%TO.C,D6*%
X48260000Y-143000000D03*
D23*
X58420000Y-143000000D03*
%TD*%
D10*
%TO.C,U1*%
X69860000Y-78740000D03*
D11*
X69860000Y-81280000D03*
X69860000Y-83820000D03*
X69860000Y-86360000D03*
X69860000Y-88900000D03*
X69860000Y-91440000D03*
X69860000Y-93980000D03*
X69860000Y-96520000D03*
X77480000Y-96520000D03*
X77480000Y-93980000D03*
X77480000Y-91440000D03*
X77480000Y-88900000D03*
X77480000Y-86360000D03*
X77480000Y-83820000D03*
X77480000Y-81280000D03*
X77480000Y-78740000D03*
%TD*%
D19*
%TO.C,J5*%
X60960000Y-45720000D03*
D16*
X63500000Y-45720000D03*
X66040000Y-45720000D03*
%TD*%
D17*
%TO.C,D5*%
X67680000Y-34480000D03*
D18*
X65140000Y-34480000D03*
%TD*%
D19*
%TO.C,J4*%
X74055000Y-33797100D03*
D16*
X76595000Y-33797100D03*
X79135000Y-33797100D03*
%TD*%
D10*
%TO.C,U9*%
X47000000Y-83815000D03*
D11*
X47000000Y-86355000D03*
X47000000Y-88895000D03*
X47000000Y-91435000D03*
X47000000Y-93975000D03*
X47000000Y-96515000D03*
X47000000Y-99055000D03*
X54620000Y-99055000D03*
X54620000Y-96515000D03*
X54620000Y-93975000D03*
X54620000Y-91435000D03*
X54620000Y-88895000D03*
X54620000Y-86355000D03*
X54620000Y-83815000D03*
%TD*%
D22*
%TO.C,D3*%
X48260000Y-139700000D03*
D23*
X58420000Y-139700000D03*
%TD*%
M02*
