%TF.GenerationSoftware,KiCad,Pcbnew,(6.0.11)*%
%TF.CreationDate,2023-07-08T12:33:34-05:00*%
%TF.ProjectId,Z80ESP,5a383045-5350-42e6-9b69-6361645f7063,V0.9*%
%TF.SameCoordinates,Original*%
%TF.FileFunction,AssemblyDrawing,Top*%
%FSLAX46Y46*%
G04 Gerber Fmt 4.6, Leading zero omitted, Abs format (unit mm)*
G04 Created by KiCad (PCBNEW (6.0.11)) date 2023-07-08 12:33:34*
%MOMM*%
%LPD*%
G01*
G04 APERTURE LIST*
%ADD10C,0.120000*%
%ADD11C,0.150000*%
%ADD12C,0.100000*%
G04 APERTURE END LIST*
D10*
%TO.C,SW1*%
X139945952Y-112364404D02*
X139869761Y-112326309D01*
X139831666Y-112288214D01*
X139793571Y-112212023D01*
X139793571Y-111983452D01*
X139831666Y-111907261D01*
X139869761Y-111869166D01*
X139945952Y-111831071D01*
X140060238Y-111831071D01*
X140136428Y-111869166D01*
X140174523Y-111907261D01*
X140212619Y-111983452D01*
X140212619Y-112212023D01*
X140174523Y-112288214D01*
X140136428Y-112326309D01*
X140060238Y-112364404D01*
X139945952Y-112364404D01*
X140555476Y-111831071D02*
X140555476Y-112364404D01*
X140555476Y-111907261D02*
X140593571Y-111869166D01*
X140669761Y-111831071D01*
X140784047Y-111831071D01*
X140860238Y-111869166D01*
X140898333Y-111945357D01*
X140898333Y-112364404D01*
X142593809Y-123456666D02*
X142631904Y-123342380D01*
X142631904Y-123151904D01*
X142593809Y-123075714D01*
X142555714Y-123037619D01*
X142479523Y-122999523D01*
X142403333Y-122999523D01*
X142327142Y-123037619D01*
X142289047Y-123075714D01*
X142250952Y-123151904D01*
X142212857Y-123304285D01*
X142174761Y-123380476D01*
X142136666Y-123418571D01*
X142060476Y-123456666D01*
X141984285Y-123456666D01*
X141908095Y-123418571D01*
X141870000Y-123380476D01*
X141831904Y-123304285D01*
X141831904Y-123113809D01*
X141870000Y-122999523D01*
X141831904Y-122732857D02*
X142631904Y-122542380D01*
X142060476Y-122390000D01*
X142631904Y-122237619D01*
X141831904Y-122047142D01*
X142631904Y-121323333D02*
X142631904Y-121780476D01*
X142631904Y-121551904D02*
X141831904Y-121551904D01*
X141946190Y-121628095D01*
X142022380Y-121704285D01*
X142060476Y-121780476D01*
D11*
%TO.C,C1*%
X87883333Y-106857142D02*
X87835714Y-106904761D01*
X87692857Y-106952380D01*
X87597619Y-106952380D01*
X87454761Y-106904761D01*
X87359523Y-106809523D01*
X87311904Y-106714285D01*
X87264285Y-106523809D01*
X87264285Y-106380952D01*
X87311904Y-106190476D01*
X87359523Y-106095238D01*
X87454761Y-106000000D01*
X87597619Y-105952380D01*
X87692857Y-105952380D01*
X87835714Y-106000000D01*
X87883333Y-106047619D01*
X88835714Y-106952380D02*
X88264285Y-106952380D01*
X88550000Y-106952380D02*
X88550000Y-105952380D01*
X88454761Y-106095238D01*
X88359523Y-106190476D01*
X88264285Y-106238095D01*
%TO.C,C2*%
X99716633Y-107037142D02*
X99669014Y-107084761D01*
X99526157Y-107132380D01*
X99430919Y-107132380D01*
X99288061Y-107084761D01*
X99192823Y-106989523D01*
X99145204Y-106894285D01*
X99097585Y-106703809D01*
X99097585Y-106560952D01*
X99145204Y-106370476D01*
X99192823Y-106275238D01*
X99288061Y-106180000D01*
X99430919Y-106132380D01*
X99526157Y-106132380D01*
X99669014Y-106180000D01*
X99716633Y-106227619D01*
X100097585Y-106227619D02*
X100145204Y-106180000D01*
X100240442Y-106132380D01*
X100478538Y-106132380D01*
X100573776Y-106180000D01*
X100621395Y-106227619D01*
X100669014Y-106322857D01*
X100669014Y-106418095D01*
X100621395Y-106560952D01*
X100049966Y-107132380D01*
X100669014Y-107132380D01*
%TO.C,C4*%
X123883333Y-106787142D02*
X123835714Y-106834761D01*
X123692857Y-106882380D01*
X123597619Y-106882380D01*
X123454761Y-106834761D01*
X123359523Y-106739523D01*
X123311904Y-106644285D01*
X123264285Y-106453809D01*
X123264285Y-106310952D01*
X123311904Y-106120476D01*
X123359523Y-106025238D01*
X123454761Y-105930000D01*
X123597619Y-105882380D01*
X123692857Y-105882380D01*
X123835714Y-105930000D01*
X123883333Y-105977619D01*
X124740476Y-106215714D02*
X124740476Y-106882380D01*
X124502380Y-105834761D02*
X124264285Y-106549047D01*
X124883333Y-106549047D01*
%TO.C,U2*%
X111464795Y-121882380D02*
X111464795Y-122691904D01*
X111512414Y-122787142D01*
X111560033Y-122834761D01*
X111655271Y-122882380D01*
X111845747Y-122882380D01*
X111940985Y-122834761D01*
X111988604Y-122787142D01*
X112036223Y-122691904D01*
X112036223Y-121882380D01*
X112464795Y-121977619D02*
X112512414Y-121930000D01*
X112607652Y-121882380D01*
X112845747Y-121882380D01*
X112940985Y-121930000D01*
X112988604Y-121977619D01*
X113036223Y-122072857D01*
X113036223Y-122168095D01*
X112988604Y-122310952D01*
X112417176Y-122882380D01*
X113036223Y-122882380D01*
%TO.C,U10*%
X123071904Y-121882380D02*
X123071904Y-122691904D01*
X123119523Y-122787142D01*
X123167142Y-122834761D01*
X123262380Y-122882380D01*
X123452857Y-122882380D01*
X123548095Y-122834761D01*
X123595714Y-122787142D01*
X123643333Y-122691904D01*
X123643333Y-121882380D01*
X124643333Y-122882380D02*
X124071904Y-122882380D01*
X124357619Y-122882380D02*
X124357619Y-121882380D01*
X124262380Y-122025238D01*
X124167142Y-122120476D01*
X124071904Y-122168095D01*
X125262380Y-121882380D02*
X125357619Y-121882380D01*
X125452857Y-121930000D01*
X125500476Y-121977619D01*
X125548095Y-122072857D01*
X125595714Y-122263333D01*
X125595714Y-122501428D01*
X125548095Y-122691904D01*
X125500476Y-122787142D01*
X125452857Y-122834761D01*
X125357619Y-122882380D01*
X125262380Y-122882380D01*
X125167142Y-122834761D01*
X125119523Y-122787142D01*
X125071904Y-122691904D01*
X125024285Y-122501428D01*
X125024285Y-122263333D01*
X125071904Y-122072857D01*
X125119523Y-121977619D01*
X125167142Y-121930000D01*
X125262380Y-121882380D01*
%TO.C,RR1*%
X130833333Y-134202380D02*
X130500000Y-133726190D01*
X130261904Y-134202380D02*
X130261904Y-133202380D01*
X130642857Y-133202380D01*
X130738095Y-133250000D01*
X130785714Y-133297619D01*
X130833333Y-133392857D01*
X130833333Y-133535714D01*
X130785714Y-133630952D01*
X130738095Y-133678571D01*
X130642857Y-133726190D01*
X130261904Y-133726190D01*
X131833333Y-134202380D02*
X131500000Y-133726190D01*
X131261904Y-134202380D02*
X131261904Y-133202380D01*
X131642857Y-133202380D01*
X131738095Y-133250000D01*
X131785714Y-133297619D01*
X131833333Y-133392857D01*
X131833333Y-133535714D01*
X131785714Y-133630952D01*
X131738095Y-133678571D01*
X131642857Y-133726190D01*
X131261904Y-133726190D01*
X132785714Y-134202380D02*
X132214285Y-134202380D01*
X132500000Y-134202380D02*
X132500000Y-133202380D01*
X132404761Y-133345238D01*
X132309523Y-133440476D01*
X132214285Y-133488095D01*
%TO.C,U6*%
X61054795Y-52787380D02*
X61054795Y-53596904D01*
X61102414Y-53692142D01*
X61150033Y-53739761D01*
X61245271Y-53787380D01*
X61435747Y-53787380D01*
X61530985Y-53739761D01*
X61578604Y-53692142D01*
X61626223Y-53596904D01*
X61626223Y-52787380D01*
X62530985Y-52787380D02*
X62340509Y-52787380D01*
X62245271Y-52835000D01*
X62197652Y-52882619D01*
X62102414Y-53025476D01*
X62054795Y-53215952D01*
X62054795Y-53596904D01*
X62102414Y-53692142D01*
X62150033Y-53739761D01*
X62245271Y-53787380D01*
X62435747Y-53787380D01*
X62530985Y-53739761D01*
X62578604Y-53692142D01*
X62626223Y-53596904D01*
X62626223Y-53358809D01*
X62578604Y-53263571D01*
X62530985Y-53215952D01*
X62435747Y-53168333D01*
X62245271Y-53168333D01*
X62150033Y-53215952D01*
X62102414Y-53263571D01*
X62054795Y-53358809D01*
%TO.C,C7*%
X75550033Y-106857142D02*
X75502414Y-106904761D01*
X75359557Y-106952380D01*
X75264319Y-106952380D01*
X75121461Y-106904761D01*
X75026223Y-106809523D01*
X74978604Y-106714285D01*
X74930985Y-106523809D01*
X74930985Y-106380952D01*
X74978604Y-106190476D01*
X75026223Y-106095238D01*
X75121461Y-106000000D01*
X75264319Y-105952380D01*
X75359557Y-105952380D01*
X75502414Y-106000000D01*
X75550033Y-106047619D01*
X75883366Y-105952380D02*
X76550033Y-105952380D01*
X76121461Y-106952380D01*
%TO.C,U3*%
X99381395Y-121882380D02*
X99381395Y-122691904D01*
X99429014Y-122787142D01*
X99476633Y-122834761D01*
X99571871Y-122882380D01*
X99762347Y-122882380D01*
X99857585Y-122834761D01*
X99905204Y-122787142D01*
X99952823Y-122691904D01*
X99952823Y-121882380D01*
X100333776Y-121882380D02*
X100952823Y-121882380D01*
X100619490Y-122263333D01*
X100762347Y-122263333D01*
X100857585Y-122310952D01*
X100905204Y-122358571D01*
X100952823Y-122453809D01*
X100952823Y-122691904D01*
X100905204Y-122787142D01*
X100857585Y-122834761D01*
X100762347Y-122882380D01*
X100476633Y-122882380D01*
X100381395Y-122834761D01*
X100333776Y-122787142D01*
%TO.C,C3*%
X111800033Y-107037142D02*
X111752414Y-107084761D01*
X111609557Y-107132380D01*
X111514319Y-107132380D01*
X111371461Y-107084761D01*
X111276223Y-106989523D01*
X111228604Y-106894285D01*
X111180985Y-106703809D01*
X111180985Y-106560952D01*
X111228604Y-106370476D01*
X111276223Y-106275238D01*
X111371461Y-106180000D01*
X111514319Y-106132380D01*
X111609557Y-106132380D01*
X111752414Y-106180000D01*
X111800033Y-106227619D01*
X112133366Y-106132380D02*
X112752414Y-106132380D01*
X112419080Y-106513333D01*
X112561938Y-106513333D01*
X112657176Y-106560952D01*
X112704795Y-106608571D01*
X112752414Y-106703809D01*
X112752414Y-106941904D01*
X112704795Y-107037142D01*
X112657176Y-107084761D01*
X112561938Y-107132380D01*
X112276223Y-107132380D01*
X112180985Y-107084761D01*
X112133366Y-107037142D01*
%TO.C,C5*%
X51383333Y-71477142D02*
X51335714Y-71524761D01*
X51192857Y-71572380D01*
X51097619Y-71572380D01*
X50954761Y-71524761D01*
X50859523Y-71429523D01*
X50811904Y-71334285D01*
X50764285Y-71143809D01*
X50764285Y-71000952D01*
X50811904Y-70810476D01*
X50859523Y-70715238D01*
X50954761Y-70620000D01*
X51097619Y-70572380D01*
X51192857Y-70572380D01*
X51335714Y-70620000D01*
X51383333Y-70667619D01*
X52288095Y-70572380D02*
X51811904Y-70572380D01*
X51764285Y-71048571D01*
X51811904Y-71000952D01*
X51907142Y-70953333D01*
X52145238Y-70953333D01*
X52240476Y-71000952D01*
X52288095Y-71048571D01*
X52335714Y-71143809D01*
X52335714Y-71381904D01*
X52288095Y-71477142D01*
X52240476Y-71524761D01*
X52145238Y-71572380D01*
X51907142Y-71572380D01*
X51811904Y-71524761D01*
X51764285Y-71477142D01*
%TO.C,U4*%
X87298095Y-121882380D02*
X87298095Y-122691904D01*
X87345714Y-122787142D01*
X87393333Y-122834761D01*
X87488571Y-122882380D01*
X87679047Y-122882380D01*
X87774285Y-122834761D01*
X87821904Y-122787142D01*
X87869523Y-122691904D01*
X87869523Y-121882380D01*
X88774285Y-122215714D02*
X88774285Y-122882380D01*
X88536190Y-121834761D02*
X88298095Y-122549047D01*
X88917142Y-122549047D01*
%TO.C,C6*%
X48883333Y-104607142D02*
X48835714Y-104654761D01*
X48692857Y-104702380D01*
X48597619Y-104702380D01*
X48454761Y-104654761D01*
X48359523Y-104559523D01*
X48311904Y-104464285D01*
X48264285Y-104273809D01*
X48264285Y-104130952D01*
X48311904Y-103940476D01*
X48359523Y-103845238D01*
X48454761Y-103750000D01*
X48597619Y-103702380D01*
X48692857Y-103702380D01*
X48835714Y-103750000D01*
X48883333Y-103797619D01*
X49740476Y-103702380D02*
X49550000Y-103702380D01*
X49454761Y-103750000D01*
X49407142Y-103797619D01*
X49311904Y-103940476D01*
X49264285Y-104130952D01*
X49264285Y-104511904D01*
X49311904Y-104607142D01*
X49359523Y-104654761D01*
X49454761Y-104702380D01*
X49645238Y-104702380D01*
X49740476Y-104654761D01*
X49788095Y-104607142D01*
X49835714Y-104511904D01*
X49835714Y-104273809D01*
X49788095Y-104178571D01*
X49740476Y-104130952D01*
X49645238Y-104083333D01*
X49454761Y-104083333D01*
X49359523Y-104130952D01*
X49311904Y-104178571D01*
X49264285Y-104273809D01*
%TO.C,C11*%
X74332042Y-101322142D02*
X74284423Y-101369761D01*
X74141566Y-101417380D01*
X74046328Y-101417380D01*
X73903471Y-101369761D01*
X73808233Y-101274523D01*
X73760614Y-101179285D01*
X73712995Y-100988809D01*
X73712995Y-100845952D01*
X73760614Y-100655476D01*
X73808233Y-100560238D01*
X73903471Y-100465000D01*
X74046328Y-100417380D01*
X74141566Y-100417380D01*
X74284423Y-100465000D01*
X74332042Y-100512619D01*
X75284423Y-101417380D02*
X74712995Y-101417380D01*
X74998709Y-101417380D02*
X74998709Y-100417380D01*
X74903471Y-100560238D01*
X74808233Y-100655476D01*
X74712995Y-100703095D01*
X76236804Y-101417380D02*
X75665376Y-101417380D01*
X75951090Y-101417380D02*
X75951090Y-100417380D01*
X75855852Y-100560238D01*
X75760614Y-100655476D01*
X75665376Y-100703095D01*
%TO.C,C8*%
X73493333Y-40997142D02*
X73445714Y-41044761D01*
X73302857Y-41092380D01*
X73207619Y-41092380D01*
X73064761Y-41044761D01*
X72969523Y-40949523D01*
X72921904Y-40854285D01*
X72874285Y-40663809D01*
X72874285Y-40520952D01*
X72921904Y-40330476D01*
X72969523Y-40235238D01*
X73064761Y-40140000D01*
X73207619Y-40092380D01*
X73302857Y-40092380D01*
X73445714Y-40140000D01*
X73493333Y-40187619D01*
X74064761Y-40520952D02*
X73969523Y-40473333D01*
X73921904Y-40425714D01*
X73874285Y-40330476D01*
X73874285Y-40282857D01*
X73921904Y-40187619D01*
X73969523Y-40140000D01*
X74064761Y-40092380D01*
X74255238Y-40092380D01*
X74350476Y-40140000D01*
X74398095Y-40187619D01*
X74445714Y-40282857D01*
X74445714Y-40330476D01*
X74398095Y-40425714D01*
X74350476Y-40473333D01*
X74255238Y-40520952D01*
X74064761Y-40520952D01*
X73969523Y-40568571D01*
X73921904Y-40616190D01*
X73874285Y-40711428D01*
X73874285Y-40901904D01*
X73921904Y-40997142D01*
X73969523Y-41044761D01*
X74064761Y-41092380D01*
X74255238Y-41092380D01*
X74350476Y-41044761D01*
X74398095Y-40997142D01*
X74445714Y-40901904D01*
X74445714Y-40711428D01*
X74398095Y-40616190D01*
X74350476Y-40568571D01*
X74255238Y-40520952D01*
%TO.C,C12*%
X64172042Y-140692142D02*
X64124423Y-140739761D01*
X63981566Y-140787380D01*
X63886328Y-140787380D01*
X63743471Y-140739761D01*
X63648233Y-140644523D01*
X63600614Y-140549285D01*
X63552995Y-140358809D01*
X63552995Y-140215952D01*
X63600614Y-140025476D01*
X63648233Y-139930238D01*
X63743471Y-139835000D01*
X63886328Y-139787380D01*
X63981566Y-139787380D01*
X64124423Y-139835000D01*
X64172042Y-139882619D01*
X65124423Y-140787380D02*
X64552995Y-140787380D01*
X64838709Y-140787380D02*
X64838709Y-139787380D01*
X64743471Y-139930238D01*
X64648233Y-140025476D01*
X64552995Y-140073095D01*
X65505376Y-139882619D02*
X65552995Y-139835000D01*
X65648233Y-139787380D01*
X65886328Y-139787380D01*
X65981566Y-139835000D01*
X66029185Y-139882619D01*
X66076804Y-139977857D01*
X66076804Y-140073095D01*
X66029185Y-140215952D01*
X65457757Y-140787380D01*
X66076804Y-140787380D01*
%TO.C,R2*%
X63333333Y-41092380D02*
X63000000Y-40616190D01*
X62761904Y-41092380D02*
X62761904Y-40092380D01*
X63142857Y-40092380D01*
X63238095Y-40140000D01*
X63285714Y-40187619D01*
X63333333Y-40282857D01*
X63333333Y-40425714D01*
X63285714Y-40520952D01*
X63238095Y-40568571D01*
X63142857Y-40616190D01*
X62761904Y-40616190D01*
X63714285Y-40187619D02*
X63761904Y-40140000D01*
X63857142Y-40092380D01*
X64095238Y-40092380D01*
X64190476Y-40140000D01*
X64238095Y-40187619D01*
X64285714Y-40282857D01*
X64285714Y-40378095D01*
X64238095Y-40520952D01*
X63666666Y-41092380D01*
X64285714Y-41092380D01*
%TO.C,H1*%
X47488095Y-37702380D02*
X47488095Y-36702380D01*
X47488095Y-37178571D02*
X48059523Y-37178571D01*
X48059523Y-37702380D02*
X48059523Y-36702380D01*
X49059523Y-37702380D02*
X48488095Y-37702380D01*
X48773809Y-37702380D02*
X48773809Y-36702380D01*
X48678571Y-36845238D01*
X48583333Y-36940476D01*
X48488095Y-36988095D01*
X47538095Y-34452380D02*
X47538095Y-33452380D01*
X47538095Y-33928571D02*
X48109523Y-33928571D01*
X48109523Y-34452380D02*
X48109523Y-33452380D01*
X49109523Y-34452380D02*
X48538095Y-34452380D01*
X48823809Y-34452380D02*
X48823809Y-33452380D01*
X48728571Y-33595238D01*
X48633333Y-33690476D01*
X48538095Y-33738095D01*
%TO.C,H2*%
X138238095Y-32452380D02*
X138238095Y-31452380D01*
X138238095Y-31928571D02*
X138809523Y-31928571D01*
X138809523Y-32452380D02*
X138809523Y-31452380D01*
X139238095Y-31547619D02*
X139285714Y-31500000D01*
X139380952Y-31452380D01*
X139619047Y-31452380D01*
X139714285Y-31500000D01*
X139761904Y-31547619D01*
X139809523Y-31642857D01*
X139809523Y-31738095D01*
X139761904Y-31880952D01*
X139190476Y-32452380D01*
X139809523Y-32452380D01*
X143428571Y-42190476D02*
X143476190Y-42047619D01*
X143523809Y-42000000D01*
X143619047Y-41952380D01*
X143761904Y-41952380D01*
X143857142Y-42000000D01*
X143904761Y-42047619D01*
X143952380Y-42142857D01*
X143952380Y-42523809D01*
X142952380Y-42523809D01*
X142952380Y-42190476D01*
X143000000Y-42095238D01*
X143047619Y-42047619D01*
X143142857Y-42000000D01*
X143238095Y-42000000D01*
X143333333Y-42047619D01*
X143380952Y-42095238D01*
X143428571Y-42190476D01*
X143428571Y-42523809D01*
X143952380Y-40952380D02*
X143476190Y-41285714D01*
X143952380Y-41523809D02*
X142952380Y-41523809D01*
X142952380Y-41142857D01*
X143000000Y-41047619D01*
X143047619Y-41000000D01*
X143142857Y-40952380D01*
X143285714Y-40952380D01*
X143380952Y-41000000D01*
X143428571Y-41047619D01*
X143476190Y-41142857D01*
X143476190Y-41523809D01*
X143666666Y-40571428D02*
X143666666Y-40095238D01*
X143952380Y-40666666D02*
X142952380Y-40333333D01*
X143952380Y-40000000D01*
X143857142Y-39095238D02*
X143904761Y-39142857D01*
X143952380Y-39285714D01*
X143952380Y-39380952D01*
X143904761Y-39523809D01*
X143809523Y-39619047D01*
X143714285Y-39666666D01*
X143523809Y-39714285D01*
X143380952Y-39714285D01*
X143190476Y-39666666D01*
X143095238Y-39619047D01*
X143000000Y-39523809D01*
X142952380Y-39380952D01*
X142952380Y-39285714D01*
X143000000Y-39142857D01*
X143047619Y-39095238D01*
X143952380Y-38666666D02*
X142952380Y-38666666D01*
X143952380Y-38095238D02*
X143380952Y-38523809D01*
X142952380Y-38095238D02*
X143523809Y-38666666D01*
X143428571Y-37666666D02*
X143428571Y-37333333D01*
X143952380Y-37190476D02*
X143952380Y-37666666D01*
X142952380Y-37666666D01*
X142952380Y-37190476D01*
X142952380Y-36904761D02*
X142952380Y-36333333D01*
X143952380Y-36619047D02*
X142952380Y-36619047D01*
X141538095Y-34452380D02*
X141538095Y-33452380D01*
X141538095Y-33928571D02*
X142109523Y-33928571D01*
X142109523Y-34452380D02*
X142109523Y-33452380D01*
X142538095Y-33547619D02*
X142585714Y-33500000D01*
X142680952Y-33452380D01*
X142919047Y-33452380D01*
X143014285Y-33500000D01*
X143061904Y-33547619D01*
X143109523Y-33642857D01*
X143109523Y-33738095D01*
X143061904Y-33880952D01*
X142490476Y-34452380D01*
X143109523Y-34452380D01*
%TO.C,P2*%
X106011904Y-138952380D02*
X106011904Y-137952380D01*
X106392857Y-137952380D01*
X106488095Y-138000000D01*
X106535714Y-138047619D01*
X106583333Y-138142857D01*
X106583333Y-138285714D01*
X106535714Y-138380952D01*
X106488095Y-138428571D01*
X106392857Y-138476190D01*
X106011904Y-138476190D01*
X106964285Y-138047619D02*
X107011904Y-138000000D01*
X107107142Y-137952380D01*
X107345238Y-137952380D01*
X107440476Y-138000000D01*
X107488095Y-138047619D01*
X107535714Y-138142857D01*
X107535714Y-138238095D01*
X107488095Y-138380952D01*
X106916666Y-138952380D01*
X107535714Y-138952380D01*
%TO.C,R10*%
X123817142Y-52522380D02*
X123483809Y-52046190D01*
X123245714Y-52522380D02*
X123245714Y-51522380D01*
X123626666Y-51522380D01*
X123721904Y-51570000D01*
X123769523Y-51617619D01*
X123817142Y-51712857D01*
X123817142Y-51855714D01*
X123769523Y-51950952D01*
X123721904Y-51998571D01*
X123626666Y-52046190D01*
X123245714Y-52046190D01*
X124769523Y-52522380D02*
X124198095Y-52522380D01*
X124483809Y-52522380D02*
X124483809Y-51522380D01*
X124388571Y-51665238D01*
X124293333Y-51760476D01*
X124198095Y-51808095D01*
X125388571Y-51522380D02*
X125483809Y-51522380D01*
X125579047Y-51570000D01*
X125626666Y-51617619D01*
X125674285Y-51712857D01*
X125721904Y-51903333D01*
X125721904Y-52141428D01*
X125674285Y-52331904D01*
X125626666Y-52427142D01*
X125579047Y-52474761D01*
X125483809Y-52522380D01*
X125388571Y-52522380D01*
X125293333Y-52474761D01*
X125245714Y-52427142D01*
X125198095Y-52331904D01*
X125150476Y-52141428D01*
X125150476Y-51903333D01*
X125198095Y-51712857D01*
X125245714Y-51617619D01*
X125293333Y-51570000D01*
X125388571Y-51522380D01*
%TO.C,U8*%
X51048095Y-119342380D02*
X51048095Y-120151904D01*
X51095714Y-120247142D01*
X51143333Y-120294761D01*
X51238571Y-120342380D01*
X51429047Y-120342380D01*
X51524285Y-120294761D01*
X51571904Y-120247142D01*
X51619523Y-120151904D01*
X51619523Y-119342380D01*
X52238571Y-119770952D02*
X52143333Y-119723333D01*
X52095714Y-119675714D01*
X52048095Y-119580476D01*
X52048095Y-119532857D01*
X52095714Y-119437619D01*
X52143333Y-119390000D01*
X52238571Y-119342380D01*
X52429047Y-119342380D01*
X52524285Y-119390000D01*
X52571904Y-119437619D01*
X52619523Y-119532857D01*
X52619523Y-119580476D01*
X52571904Y-119675714D01*
X52524285Y-119723333D01*
X52429047Y-119770952D01*
X52238571Y-119770952D01*
X52143333Y-119818571D01*
X52095714Y-119866190D01*
X52048095Y-119961428D01*
X52048095Y-120151904D01*
X52095714Y-120247142D01*
X52143333Y-120294761D01*
X52238571Y-120342380D01*
X52429047Y-120342380D01*
X52524285Y-120294761D01*
X52571904Y-120247142D01*
X52619523Y-120151904D01*
X52619523Y-119961428D01*
X52571904Y-119866190D01*
X52524285Y-119818571D01*
X52429047Y-119770952D01*
%TO.C,U12*%
X112654404Y-69622380D02*
X112654404Y-70431904D01*
X112702023Y-70527142D01*
X112749642Y-70574761D01*
X112844880Y-70622380D01*
X113035357Y-70622380D01*
X113130595Y-70574761D01*
X113178214Y-70527142D01*
X113225833Y-70431904D01*
X113225833Y-69622380D01*
X114225833Y-70622380D02*
X113654404Y-70622380D01*
X113940119Y-70622380D02*
X113940119Y-69622380D01*
X113844880Y-69765238D01*
X113749642Y-69860476D01*
X113654404Y-69908095D01*
X114606785Y-69717619D02*
X114654404Y-69670000D01*
X114749642Y-69622380D01*
X114987738Y-69622380D01*
X115082976Y-69670000D01*
X115130595Y-69717619D01*
X115178214Y-69812857D01*
X115178214Y-69908095D01*
X115130595Y-70050952D01*
X114559166Y-70622380D01*
X115178214Y-70622380D01*
X92234880Y-59348095D02*
X93044404Y-59348095D01*
X93139642Y-59300476D01*
X93187261Y-59252857D01*
X93234880Y-59157619D01*
X93234880Y-58967142D01*
X93187261Y-58871904D01*
X93139642Y-58824285D01*
X93044404Y-58776666D01*
X92234880Y-58776666D01*
X93234880Y-57776666D02*
X93234880Y-58348095D01*
X93234880Y-58062380D02*
X92234880Y-58062380D01*
X92377738Y-58157619D01*
X92472976Y-58252857D01*
X92520595Y-58348095D01*
X92330119Y-57395714D02*
X92282500Y-57348095D01*
X92234880Y-57252857D01*
X92234880Y-57014761D01*
X92282500Y-56919523D01*
X92330119Y-56871904D01*
X92425357Y-56824285D01*
X92520595Y-56824285D01*
X92663452Y-56871904D01*
X93234880Y-57443333D01*
X93234880Y-56824285D01*
%TO.C,U13*%
X112654404Y-101102380D02*
X112654404Y-101911904D01*
X112702023Y-102007142D01*
X112749642Y-102054761D01*
X112844880Y-102102380D01*
X113035357Y-102102380D01*
X113130595Y-102054761D01*
X113178214Y-102007142D01*
X113225833Y-101911904D01*
X113225833Y-101102380D01*
X114225833Y-102102380D02*
X113654404Y-102102380D01*
X113940119Y-102102380D02*
X113940119Y-101102380D01*
X113844880Y-101245238D01*
X113749642Y-101340476D01*
X113654404Y-101388095D01*
X114559166Y-101102380D02*
X115178214Y-101102380D01*
X114844880Y-101483333D01*
X114987738Y-101483333D01*
X115082976Y-101530952D01*
X115130595Y-101578571D01*
X115178214Y-101673809D01*
X115178214Y-101911904D01*
X115130595Y-102007142D01*
X115082976Y-102054761D01*
X114987738Y-102102380D01*
X114702023Y-102102380D01*
X114606785Y-102054761D01*
X114559166Y-102007142D01*
X92234880Y-90828095D02*
X93044404Y-90828095D01*
X93139642Y-90780476D01*
X93187261Y-90732857D01*
X93234880Y-90637619D01*
X93234880Y-90447142D01*
X93187261Y-90351904D01*
X93139642Y-90304285D01*
X93044404Y-90256666D01*
X92234880Y-90256666D01*
X93234880Y-89256666D02*
X93234880Y-89828095D01*
X93234880Y-89542380D02*
X92234880Y-89542380D01*
X92377738Y-89637619D01*
X92472976Y-89732857D01*
X92520595Y-89828095D01*
X92234880Y-88923333D02*
X92234880Y-88304285D01*
X92615833Y-88637619D01*
X92615833Y-88494761D01*
X92663452Y-88399523D01*
X92711071Y-88351904D01*
X92806309Y-88304285D01*
X93044404Y-88304285D01*
X93139642Y-88351904D01*
X93187261Y-88399523D01*
X93234880Y-88494761D01*
X93234880Y-88780476D01*
X93187261Y-88875714D01*
X93139642Y-88923333D01*
%TO.C,U7*%
X63131395Y-119342380D02*
X63131395Y-120151904D01*
X63179014Y-120247142D01*
X63226633Y-120294761D01*
X63321871Y-120342380D01*
X63512347Y-120342380D01*
X63607585Y-120294761D01*
X63655204Y-120247142D01*
X63702823Y-120151904D01*
X63702823Y-119342380D01*
X64083776Y-119342380D02*
X64750442Y-119342380D01*
X64321871Y-120342380D01*
%TO.C,C10*%
X75323842Y-71477142D02*
X75276223Y-71524761D01*
X75133366Y-71572380D01*
X75038128Y-71572380D01*
X74895271Y-71524761D01*
X74800033Y-71429523D01*
X74752414Y-71334285D01*
X74704795Y-71143809D01*
X74704795Y-71000952D01*
X74752414Y-70810476D01*
X74800033Y-70715238D01*
X74895271Y-70620000D01*
X75038128Y-70572380D01*
X75133366Y-70572380D01*
X75276223Y-70620000D01*
X75323842Y-70667619D01*
X76276223Y-71572380D02*
X75704795Y-71572380D01*
X75990509Y-71572380D02*
X75990509Y-70572380D01*
X75895271Y-70715238D01*
X75800033Y-70810476D01*
X75704795Y-70858095D01*
X76895271Y-70572380D02*
X76990509Y-70572380D01*
X77085747Y-70620000D01*
X77133366Y-70667619D01*
X77180985Y-70762857D01*
X77228604Y-70953333D01*
X77228604Y-71191428D01*
X77180985Y-71381904D01*
X77133366Y-71477142D01*
X77085747Y-71524761D01*
X76990509Y-71572380D01*
X76895271Y-71572380D01*
X76800033Y-71524761D01*
X76752414Y-71477142D01*
X76704795Y-71381904D01*
X76657176Y-71191428D01*
X76657176Y-70953333D01*
X76704795Y-70762857D01*
X76752414Y-70667619D01*
X76800033Y-70620000D01*
X76895271Y-70572380D01*
%TO.C,R7*%
X135782133Y-62682380D02*
X135448800Y-62206190D01*
X135210704Y-62682380D02*
X135210704Y-61682380D01*
X135591657Y-61682380D01*
X135686895Y-61730000D01*
X135734514Y-61777619D01*
X135782133Y-61872857D01*
X135782133Y-62015714D01*
X135734514Y-62110952D01*
X135686895Y-62158571D01*
X135591657Y-62206190D01*
X135210704Y-62206190D01*
X136115466Y-61682380D02*
X136782133Y-61682380D01*
X136353561Y-62682380D01*
%TO.C,C9*%
X63466633Y-106857142D02*
X63419014Y-106904761D01*
X63276157Y-106952380D01*
X63180919Y-106952380D01*
X63038061Y-106904761D01*
X62942823Y-106809523D01*
X62895204Y-106714285D01*
X62847585Y-106523809D01*
X62847585Y-106380952D01*
X62895204Y-106190476D01*
X62942823Y-106095238D01*
X63038061Y-106000000D01*
X63180919Y-105952380D01*
X63276157Y-105952380D01*
X63419014Y-106000000D01*
X63466633Y-106047619D01*
X63942823Y-106952380D02*
X64133300Y-106952380D01*
X64228538Y-106904761D01*
X64276157Y-106857142D01*
X64371395Y-106714285D01*
X64419014Y-106523809D01*
X64419014Y-106142857D01*
X64371395Y-106047619D01*
X64323776Y-106000000D01*
X64228538Y-105952380D01*
X64038061Y-105952380D01*
X63942823Y-106000000D01*
X63895204Y-106047619D01*
X63847585Y-106142857D01*
X63847585Y-106380952D01*
X63895204Y-106476190D01*
X63942823Y-106523809D01*
X64038061Y-106571428D01*
X64228538Y-106571428D01*
X64323776Y-106523809D01*
X64371395Y-106476190D01*
X64419014Y-106380952D01*
%TO.C,U5*%
X50048095Y-52787380D02*
X50048095Y-53596904D01*
X50095714Y-53692142D01*
X50143333Y-53739761D01*
X50238571Y-53787380D01*
X50429047Y-53787380D01*
X50524285Y-53739761D01*
X50571904Y-53692142D01*
X50619523Y-53596904D01*
X50619523Y-52787380D01*
X51571904Y-52787380D02*
X51095714Y-52787380D01*
X51048095Y-53263571D01*
X51095714Y-53215952D01*
X51190952Y-53168333D01*
X51429047Y-53168333D01*
X51524285Y-53215952D01*
X51571904Y-53263571D01*
X51619523Y-53358809D01*
X51619523Y-53596904D01*
X51571904Y-53692142D01*
X51524285Y-53739761D01*
X51429047Y-53787380D01*
X51190952Y-53787380D01*
X51095714Y-53739761D01*
X51048095Y-53692142D01*
%TO.C,R11*%
X135305942Y-52522380D02*
X134972609Y-52046190D01*
X134734514Y-52522380D02*
X134734514Y-51522380D01*
X135115466Y-51522380D01*
X135210704Y-51570000D01*
X135258323Y-51617619D01*
X135305942Y-51712857D01*
X135305942Y-51855714D01*
X135258323Y-51950952D01*
X135210704Y-51998571D01*
X135115466Y-52046190D01*
X134734514Y-52046190D01*
X136258323Y-52522380D02*
X135686895Y-52522380D01*
X135972609Y-52522380D02*
X135972609Y-51522380D01*
X135877371Y-51665238D01*
X135782133Y-51760476D01*
X135686895Y-51808095D01*
X137210704Y-52522380D02*
X136639276Y-52522380D01*
X136924990Y-52522380D02*
X136924990Y-51522380D01*
X136829752Y-51665238D01*
X136734514Y-51760476D01*
X136639276Y-51808095D01*
%TO.C,R12*%
X123875942Y-62682380D02*
X123542609Y-62206190D01*
X123304514Y-62682380D02*
X123304514Y-61682380D01*
X123685466Y-61682380D01*
X123780704Y-61730000D01*
X123828323Y-61777619D01*
X123875942Y-61872857D01*
X123875942Y-62015714D01*
X123828323Y-62110952D01*
X123780704Y-62158571D01*
X123685466Y-62206190D01*
X123304514Y-62206190D01*
X124828323Y-62682380D02*
X124256895Y-62682380D01*
X124542609Y-62682380D02*
X124542609Y-61682380D01*
X124447371Y-61825238D01*
X124352133Y-61920476D01*
X124256895Y-61968095D01*
X125209276Y-61777619D02*
X125256895Y-61730000D01*
X125352133Y-61682380D01*
X125590228Y-61682380D01*
X125685466Y-61730000D01*
X125733085Y-61777619D01*
X125780704Y-61872857D01*
X125780704Y-61968095D01*
X125733085Y-62110952D01*
X125161657Y-62682380D01*
X125780704Y-62682380D01*
%TO.C,R8*%
X124352133Y-57602380D02*
X124018800Y-57126190D01*
X123780704Y-57602380D02*
X123780704Y-56602380D01*
X124161657Y-56602380D01*
X124256895Y-56650000D01*
X124304514Y-56697619D01*
X124352133Y-56792857D01*
X124352133Y-56935714D01*
X124304514Y-57030952D01*
X124256895Y-57078571D01*
X124161657Y-57126190D01*
X123780704Y-57126190D01*
X124923561Y-57030952D02*
X124828323Y-56983333D01*
X124780704Y-56935714D01*
X124733085Y-56840476D01*
X124733085Y-56792857D01*
X124780704Y-56697619D01*
X124828323Y-56650000D01*
X124923561Y-56602380D01*
X125114038Y-56602380D01*
X125209276Y-56650000D01*
X125256895Y-56697619D01*
X125304514Y-56792857D01*
X125304514Y-56840476D01*
X125256895Y-56935714D01*
X125209276Y-56983333D01*
X125114038Y-57030952D01*
X124923561Y-57030952D01*
X124828323Y-57078571D01*
X124780704Y-57126190D01*
X124733085Y-57221428D01*
X124733085Y-57411904D01*
X124780704Y-57507142D01*
X124828323Y-57554761D01*
X124923561Y-57602380D01*
X125114038Y-57602380D01*
X125209276Y-57554761D01*
X125256895Y-57507142D01*
X125304514Y-57411904D01*
X125304514Y-57221428D01*
X125256895Y-57126190D01*
X125209276Y-57078571D01*
X125114038Y-57030952D01*
%TO.C,R9*%
X135782133Y-57602380D02*
X135448800Y-57126190D01*
X135210704Y-57602380D02*
X135210704Y-56602380D01*
X135591657Y-56602380D01*
X135686895Y-56650000D01*
X135734514Y-56697619D01*
X135782133Y-56792857D01*
X135782133Y-56935714D01*
X135734514Y-57030952D01*
X135686895Y-57078571D01*
X135591657Y-57126190D01*
X135210704Y-57126190D01*
X136258323Y-57602380D02*
X136448800Y-57602380D01*
X136544038Y-57554761D01*
X136591657Y-57507142D01*
X136686895Y-57364285D01*
X136734514Y-57173809D01*
X136734514Y-56792857D01*
X136686895Y-56697619D01*
X136639276Y-56650000D01*
X136544038Y-56602380D01*
X136353561Y-56602380D01*
X136258323Y-56650000D01*
X136210704Y-56697619D01*
X136163085Y-56792857D01*
X136163085Y-57030952D01*
X136210704Y-57126190D01*
X136258323Y-57173809D01*
X136353561Y-57221428D01*
X136544038Y-57221428D01*
X136639276Y-57173809D01*
X136686895Y-57126190D01*
X136734514Y-57030952D01*
%TO.C,RR2*%
X85542380Y-88916666D02*
X85066190Y-89250000D01*
X85542380Y-89488095D02*
X84542380Y-89488095D01*
X84542380Y-89107142D01*
X84590000Y-89011904D01*
X84637619Y-88964285D01*
X84732857Y-88916666D01*
X84875714Y-88916666D01*
X84970952Y-88964285D01*
X85018571Y-89011904D01*
X85066190Y-89107142D01*
X85066190Y-89488095D01*
X85542380Y-87916666D02*
X85066190Y-88250000D01*
X85542380Y-88488095D02*
X84542380Y-88488095D01*
X84542380Y-88107142D01*
X84590000Y-88011904D01*
X84637619Y-87964285D01*
X84732857Y-87916666D01*
X84875714Y-87916666D01*
X84970952Y-87964285D01*
X85018571Y-88011904D01*
X85066190Y-88107142D01*
X85066190Y-88488095D01*
X84637619Y-87535714D02*
X84590000Y-87488095D01*
X84542380Y-87392857D01*
X84542380Y-87154761D01*
X84590000Y-87059523D01*
X84637619Y-87011904D01*
X84732857Y-86964285D01*
X84828095Y-86964285D01*
X84970952Y-87011904D01*
X85542380Y-87583333D01*
X85542380Y-86964285D01*
%TO.C,J7*%
X97191666Y-30489480D02*
X97191666Y-31203766D01*
X97144047Y-31346623D01*
X97048809Y-31441861D01*
X96905952Y-31489480D01*
X96810714Y-31489480D01*
X97572619Y-30489480D02*
X98239285Y-30489480D01*
X97810714Y-31489480D01*
%TO.C,R15*%
X126992142Y-83002380D02*
X126658809Y-82526190D01*
X126420714Y-83002380D02*
X126420714Y-82002380D01*
X126801666Y-82002380D01*
X126896904Y-82050000D01*
X126944523Y-82097619D01*
X126992142Y-82192857D01*
X126992142Y-82335714D01*
X126944523Y-82430952D01*
X126896904Y-82478571D01*
X126801666Y-82526190D01*
X126420714Y-82526190D01*
X127944523Y-83002380D02*
X127373095Y-83002380D01*
X127658809Y-83002380D02*
X127658809Y-82002380D01*
X127563571Y-82145238D01*
X127468333Y-82240476D01*
X127373095Y-82288095D01*
X128849285Y-82002380D02*
X128373095Y-82002380D01*
X128325476Y-82478571D01*
X128373095Y-82430952D01*
X128468333Y-82383333D01*
X128706428Y-82383333D01*
X128801666Y-82430952D01*
X128849285Y-82478571D01*
X128896904Y-82573809D01*
X128896904Y-82811904D01*
X128849285Y-82907142D01*
X128801666Y-82954761D01*
X128706428Y-83002380D01*
X128468333Y-83002380D01*
X128373095Y-82954761D01*
X128325476Y-82907142D01*
%TO.C,C16*%
X82587042Y-41632142D02*
X82539423Y-41679761D01*
X82396566Y-41727380D01*
X82301328Y-41727380D01*
X82158471Y-41679761D01*
X82063233Y-41584523D01*
X82015614Y-41489285D01*
X81967995Y-41298809D01*
X81967995Y-41155952D01*
X82015614Y-40965476D01*
X82063233Y-40870238D01*
X82158471Y-40775000D01*
X82301328Y-40727380D01*
X82396566Y-40727380D01*
X82539423Y-40775000D01*
X82587042Y-40822619D01*
X83539423Y-41727380D02*
X82967995Y-41727380D01*
X83253709Y-41727380D02*
X83253709Y-40727380D01*
X83158471Y-40870238D01*
X83063233Y-40965476D01*
X82967995Y-41013095D01*
X84396566Y-40727380D02*
X84206090Y-40727380D01*
X84110852Y-40775000D01*
X84063233Y-40822619D01*
X83967995Y-40965476D01*
X83920376Y-41155952D01*
X83920376Y-41536904D01*
X83967995Y-41632142D01*
X84015614Y-41679761D01*
X84110852Y-41727380D01*
X84301328Y-41727380D01*
X84396566Y-41679761D01*
X84444185Y-41632142D01*
X84491804Y-41536904D01*
X84491804Y-41298809D01*
X84444185Y-41203571D01*
X84396566Y-41155952D01*
X84301328Y-41108333D01*
X84110852Y-41108333D01*
X84015614Y-41155952D01*
X83967995Y-41203571D01*
X83920376Y-41298809D01*
%TO.C,R17*%
X109847142Y-60777380D02*
X109513809Y-60301190D01*
X109275714Y-60777380D02*
X109275714Y-59777380D01*
X109656666Y-59777380D01*
X109751904Y-59825000D01*
X109799523Y-59872619D01*
X109847142Y-59967857D01*
X109847142Y-60110714D01*
X109799523Y-60205952D01*
X109751904Y-60253571D01*
X109656666Y-60301190D01*
X109275714Y-60301190D01*
X110799523Y-60777380D02*
X110228095Y-60777380D01*
X110513809Y-60777380D02*
X110513809Y-59777380D01*
X110418571Y-59920238D01*
X110323333Y-60015476D01*
X110228095Y-60063095D01*
X111132857Y-59777380D02*
X111799523Y-59777380D01*
X111370952Y-60777380D01*
%TO.C,R14*%
X109847142Y-56332380D02*
X109513809Y-55856190D01*
X109275714Y-56332380D02*
X109275714Y-55332380D01*
X109656666Y-55332380D01*
X109751904Y-55380000D01*
X109799523Y-55427619D01*
X109847142Y-55522857D01*
X109847142Y-55665714D01*
X109799523Y-55760952D01*
X109751904Y-55808571D01*
X109656666Y-55856190D01*
X109275714Y-55856190D01*
X110799523Y-56332380D02*
X110228095Y-56332380D01*
X110513809Y-56332380D02*
X110513809Y-55332380D01*
X110418571Y-55475238D01*
X110323333Y-55570476D01*
X110228095Y-55618095D01*
X111656666Y-55665714D02*
X111656666Y-56332380D01*
X111418571Y-55284761D02*
X111180476Y-55999047D01*
X111799523Y-55999047D01*
%TO.C,C13*%
X50117142Y-40997142D02*
X50069523Y-41044761D01*
X49926666Y-41092380D01*
X49831428Y-41092380D01*
X49688571Y-41044761D01*
X49593333Y-40949523D01*
X49545714Y-40854285D01*
X49498095Y-40663809D01*
X49498095Y-40520952D01*
X49545714Y-40330476D01*
X49593333Y-40235238D01*
X49688571Y-40140000D01*
X49831428Y-40092380D01*
X49926666Y-40092380D01*
X50069523Y-40140000D01*
X50117142Y-40187619D01*
X51069523Y-41092380D02*
X50498095Y-41092380D01*
X50783809Y-41092380D02*
X50783809Y-40092380D01*
X50688571Y-40235238D01*
X50593333Y-40330476D01*
X50498095Y-40378095D01*
X51402857Y-40092380D02*
X52021904Y-40092380D01*
X51688571Y-40473333D01*
X51831428Y-40473333D01*
X51926666Y-40520952D01*
X51974285Y-40568571D01*
X52021904Y-40663809D01*
X52021904Y-40901904D01*
X51974285Y-40997142D01*
X51926666Y-41044761D01*
X51831428Y-41092380D01*
X51545714Y-41092380D01*
X51450476Y-41044761D01*
X51402857Y-40997142D01*
%TO.C,R13*%
X109847142Y-51887380D02*
X109513809Y-51411190D01*
X109275714Y-51887380D02*
X109275714Y-50887380D01*
X109656666Y-50887380D01*
X109751904Y-50935000D01*
X109799523Y-50982619D01*
X109847142Y-51077857D01*
X109847142Y-51220714D01*
X109799523Y-51315952D01*
X109751904Y-51363571D01*
X109656666Y-51411190D01*
X109275714Y-51411190D01*
X110799523Y-51887380D02*
X110228095Y-51887380D01*
X110513809Y-51887380D02*
X110513809Y-50887380D01*
X110418571Y-51030238D01*
X110323333Y-51125476D01*
X110228095Y-51173095D01*
X111132857Y-50887380D02*
X111751904Y-50887380D01*
X111418571Y-51268333D01*
X111561428Y-51268333D01*
X111656666Y-51315952D01*
X111704285Y-51363571D01*
X111751904Y-51458809D01*
X111751904Y-51696904D01*
X111704285Y-51792142D01*
X111656666Y-51839761D01*
X111561428Y-51887380D01*
X111275714Y-51887380D01*
X111180476Y-51839761D01*
X111132857Y-51792142D01*
%TO.C,R6*%
X114133333Y-83002380D02*
X113800000Y-82526190D01*
X113561904Y-83002380D02*
X113561904Y-82002380D01*
X113942857Y-82002380D01*
X114038095Y-82050000D01*
X114085714Y-82097619D01*
X114133333Y-82192857D01*
X114133333Y-82335714D01*
X114085714Y-82430952D01*
X114038095Y-82478571D01*
X113942857Y-82526190D01*
X113561904Y-82526190D01*
X114990476Y-82002380D02*
X114800000Y-82002380D01*
X114704761Y-82050000D01*
X114657142Y-82097619D01*
X114561904Y-82240476D01*
X114514285Y-82430952D01*
X114514285Y-82811904D01*
X114561904Y-82907142D01*
X114609523Y-82954761D01*
X114704761Y-83002380D01*
X114895238Y-83002380D01*
X114990476Y-82954761D01*
X115038095Y-82907142D01*
X115085714Y-82811904D01*
X115085714Y-82573809D01*
X115038095Y-82478571D01*
X114990476Y-82430952D01*
X114895238Y-82383333D01*
X114704761Y-82383333D01*
X114609523Y-82430952D01*
X114561904Y-82478571D01*
X114514285Y-82573809D01*
%TO.C,U11*%
X62655204Y-85827380D02*
X62655204Y-86636904D01*
X62702823Y-86732142D01*
X62750442Y-86779761D01*
X62845680Y-86827380D01*
X63036157Y-86827380D01*
X63131395Y-86779761D01*
X63179014Y-86732142D01*
X63226633Y-86636904D01*
X63226633Y-85827380D01*
X64226633Y-86827380D02*
X63655204Y-86827380D01*
X63940919Y-86827380D02*
X63940919Y-85827380D01*
X63845680Y-85970238D01*
X63750442Y-86065476D01*
X63655204Y-86113095D01*
X65179014Y-86827380D02*
X64607585Y-86827380D01*
X64893300Y-86827380D02*
X64893300Y-85827380D01*
X64798061Y-85970238D01*
X64702823Y-86065476D01*
X64607585Y-86113095D01*
%TO.C,J3*%
X84751666Y-30479480D02*
X84751666Y-31193766D01*
X84704047Y-31336623D01*
X84608809Y-31431861D01*
X84465952Y-31479480D01*
X84370714Y-31479480D01*
X85132619Y-30479480D02*
X85751666Y-30479480D01*
X85418333Y-30860433D01*
X85561190Y-30860433D01*
X85656428Y-30908052D01*
X85704047Y-30955671D01*
X85751666Y-31050909D01*
X85751666Y-31289004D01*
X85704047Y-31384242D01*
X85656428Y-31431861D01*
X85561190Y-31479480D01*
X85275476Y-31479480D01*
X85180238Y-31431861D01*
X85132619Y-31384242D01*
%TO.C,U14*%
X71585204Y-52787380D02*
X71585204Y-53596904D01*
X71632823Y-53692142D01*
X71680442Y-53739761D01*
X71775680Y-53787380D01*
X71966157Y-53787380D01*
X72061395Y-53739761D01*
X72109014Y-53692142D01*
X72156633Y-53596904D01*
X72156633Y-52787380D01*
X73156633Y-53787380D02*
X72585204Y-53787380D01*
X72870919Y-53787380D02*
X72870919Y-52787380D01*
X72775680Y-52930238D01*
X72680442Y-53025476D01*
X72585204Y-53073095D01*
X74013776Y-53120714D02*
X74013776Y-53787380D01*
X73775680Y-52739761D02*
X73537585Y-53454047D01*
X74156633Y-53454047D01*
%TO.C,J6*%
X120673095Y-23349780D02*
X121006428Y-24349780D01*
X121339761Y-23349780D01*
X122196904Y-23397400D02*
X122101666Y-23349780D01*
X121958809Y-23349780D01*
X121815952Y-23397400D01*
X121720714Y-23492638D01*
X121673095Y-23587876D01*
X121625476Y-23778352D01*
X121625476Y-23921209D01*
X121673095Y-24111685D01*
X121720714Y-24206923D01*
X121815952Y-24302161D01*
X121958809Y-24349780D01*
X122054047Y-24349780D01*
X122196904Y-24302161D01*
X122244523Y-24254542D01*
X122244523Y-23921209D01*
X122054047Y-23921209D01*
X122625476Y-24064066D02*
X123101666Y-24064066D01*
X122530238Y-24349780D02*
X122863571Y-23349780D01*
X123196904Y-24349780D01*
X121601666Y-27849780D02*
X121601666Y-28564066D01*
X121554047Y-28706923D01*
X121458809Y-28802161D01*
X121315952Y-28849780D01*
X121220714Y-28849780D01*
X122506428Y-27849780D02*
X122315952Y-27849780D01*
X122220714Y-27897400D01*
X122173095Y-27945019D01*
X122077857Y-28087876D01*
X122030238Y-28278352D01*
X122030238Y-28659304D01*
X122077857Y-28754542D01*
X122125476Y-28802161D01*
X122220714Y-28849780D01*
X122411190Y-28849780D01*
X122506428Y-28802161D01*
X122554047Y-28754542D01*
X122601666Y-28659304D01*
X122601666Y-28421209D01*
X122554047Y-28325971D01*
X122506428Y-28278352D01*
X122411190Y-28230733D01*
X122220714Y-28230733D01*
X122125476Y-28278352D01*
X122077857Y-28325971D01*
X122030238Y-28421209D01*
%TO.C,R4*%
X114133333Y-91892380D02*
X113800000Y-91416190D01*
X113561904Y-91892380D02*
X113561904Y-90892380D01*
X113942857Y-90892380D01*
X114038095Y-90940000D01*
X114085714Y-90987619D01*
X114133333Y-91082857D01*
X114133333Y-91225714D01*
X114085714Y-91320952D01*
X114038095Y-91368571D01*
X113942857Y-91416190D01*
X113561904Y-91416190D01*
X114990476Y-91225714D02*
X114990476Y-91892380D01*
X114752380Y-90844761D02*
X114514285Y-91559047D01*
X115133333Y-91559047D01*
%TO.C,U15*%
X74971904Y-122012380D02*
X74971904Y-122821904D01*
X75019523Y-122917142D01*
X75067142Y-122964761D01*
X75162380Y-123012380D01*
X75352857Y-123012380D01*
X75448095Y-122964761D01*
X75495714Y-122917142D01*
X75543333Y-122821904D01*
X75543333Y-122012380D01*
X76543333Y-123012380D02*
X75971904Y-123012380D01*
X76257619Y-123012380D02*
X76257619Y-122012380D01*
X76162380Y-122155238D01*
X76067142Y-122250476D01*
X75971904Y-122298095D01*
X77448095Y-122012380D02*
X76971904Y-122012380D01*
X76924285Y-122488571D01*
X76971904Y-122440952D01*
X77067142Y-122393333D01*
X77305238Y-122393333D01*
X77400476Y-122440952D01*
X77448095Y-122488571D01*
X77495714Y-122583809D01*
X77495714Y-122821904D01*
X77448095Y-122917142D01*
X77400476Y-122964761D01*
X77305238Y-123012380D01*
X77067142Y-123012380D01*
X76971904Y-122964761D01*
X76924285Y-122917142D01*
%TO.C,C14*%
X63240442Y-71477142D02*
X63192823Y-71524761D01*
X63049966Y-71572380D01*
X62954728Y-71572380D01*
X62811871Y-71524761D01*
X62716633Y-71429523D01*
X62669014Y-71334285D01*
X62621395Y-71143809D01*
X62621395Y-71000952D01*
X62669014Y-70810476D01*
X62716633Y-70715238D01*
X62811871Y-70620000D01*
X62954728Y-70572380D01*
X63049966Y-70572380D01*
X63192823Y-70620000D01*
X63240442Y-70667619D01*
X64192823Y-71572380D02*
X63621395Y-71572380D01*
X63907109Y-71572380D02*
X63907109Y-70572380D01*
X63811871Y-70715238D01*
X63716633Y-70810476D01*
X63621395Y-70858095D01*
X65049966Y-70905714D02*
X65049966Y-71572380D01*
X64811871Y-70524761D02*
X64573776Y-71239047D01*
X65192823Y-71239047D01*
%TO.C,D6*%
X52991904Y-143452380D02*
X52991904Y-142452380D01*
X53230000Y-142452380D01*
X53372857Y-142500000D01*
X53468095Y-142595238D01*
X53515714Y-142690476D01*
X53563333Y-142880952D01*
X53563333Y-143023809D01*
X53515714Y-143214285D01*
X53468095Y-143309523D01*
X53372857Y-143404761D01*
X53230000Y-143452380D01*
X52991904Y-143452380D01*
X54420476Y-142452380D02*
X54230000Y-142452380D01*
X54134761Y-142500000D01*
X54087142Y-142547619D01*
X53991904Y-142690476D01*
X53944285Y-142880952D01*
X53944285Y-143261904D01*
X53991904Y-143357142D01*
X54039523Y-143404761D01*
X54134761Y-143452380D01*
X54325238Y-143452380D01*
X54420476Y-143404761D01*
X54468095Y-143357142D01*
X54515714Y-143261904D01*
X54515714Y-143023809D01*
X54468095Y-142928571D01*
X54420476Y-142880952D01*
X54325238Y-142833333D01*
X54134761Y-142833333D01*
X54039523Y-142880952D01*
X53991904Y-142928571D01*
X53944285Y-143023809D01*
X47998095Y-141352380D02*
X47998095Y-140352380D01*
X48569523Y-141352380D02*
X48140952Y-140780952D01*
X48569523Y-140352380D02*
X47998095Y-140923809D01*
X47998095Y-140912380D02*
X47998095Y-139912380D01*
X48569523Y-140912380D02*
X48140952Y-140340952D01*
X48569523Y-139912380D02*
X47998095Y-140483809D01*
%TO.C,U1*%
X75214795Y-84557380D02*
X75214795Y-85366904D01*
X75262414Y-85462142D01*
X75310033Y-85509761D01*
X75405271Y-85557380D01*
X75595747Y-85557380D01*
X75690985Y-85509761D01*
X75738604Y-85462142D01*
X75786223Y-85366904D01*
X75786223Y-84557380D01*
X76786223Y-85557380D02*
X76214795Y-85557380D01*
X76500509Y-85557380D02*
X76500509Y-84557380D01*
X76405271Y-84700238D01*
X76310033Y-84795476D01*
X76214795Y-84843095D01*
%TO.C,J5*%
X64166666Y-33249480D02*
X64166666Y-33963766D01*
X64119047Y-34106623D01*
X64023809Y-34201861D01*
X63880952Y-34249480D01*
X63785714Y-34249480D01*
X65119047Y-33249480D02*
X64642857Y-33249480D01*
X64595238Y-33725671D01*
X64642857Y-33678052D01*
X64738095Y-33630433D01*
X64976190Y-33630433D01*
X65071428Y-33678052D01*
X65119047Y-33725671D01*
X65166666Y-33820909D01*
X65166666Y-34059004D01*
X65119047Y-34154242D01*
X65071428Y-34201861D01*
X64976190Y-34249480D01*
X64738095Y-34249480D01*
X64642857Y-34201861D01*
X64595238Y-34154242D01*
%TO.C,C15*%
X85042142Y-71477142D02*
X84994523Y-71524761D01*
X84851666Y-71572380D01*
X84756428Y-71572380D01*
X84613571Y-71524761D01*
X84518333Y-71429523D01*
X84470714Y-71334285D01*
X84423095Y-71143809D01*
X84423095Y-71000952D01*
X84470714Y-70810476D01*
X84518333Y-70715238D01*
X84613571Y-70620000D01*
X84756428Y-70572380D01*
X84851666Y-70572380D01*
X84994523Y-70620000D01*
X85042142Y-70667619D01*
X85994523Y-71572380D02*
X85423095Y-71572380D01*
X85708809Y-71572380D02*
X85708809Y-70572380D01*
X85613571Y-70715238D01*
X85518333Y-70810476D01*
X85423095Y-70858095D01*
X86899285Y-70572380D02*
X86423095Y-70572380D01*
X86375476Y-71048571D01*
X86423095Y-71000952D01*
X86518333Y-70953333D01*
X86756428Y-70953333D01*
X86851666Y-71000952D01*
X86899285Y-71048571D01*
X86946904Y-71143809D01*
X86946904Y-71381904D01*
X86899285Y-71477142D01*
X86851666Y-71524761D01*
X86756428Y-71572380D01*
X86518333Y-71572380D01*
X86423095Y-71524761D01*
X86375476Y-71477142D01*
%TO.C,R16*%
X109847142Y-65222380D02*
X109513809Y-64746190D01*
X109275714Y-65222380D02*
X109275714Y-64222380D01*
X109656666Y-64222380D01*
X109751904Y-64270000D01*
X109799523Y-64317619D01*
X109847142Y-64412857D01*
X109847142Y-64555714D01*
X109799523Y-64650952D01*
X109751904Y-64698571D01*
X109656666Y-64746190D01*
X109275714Y-64746190D01*
X110799523Y-65222380D02*
X110228095Y-65222380D01*
X110513809Y-65222380D02*
X110513809Y-64222380D01*
X110418571Y-64365238D01*
X110323333Y-64460476D01*
X110228095Y-64508095D01*
X111656666Y-64222380D02*
X111466190Y-64222380D01*
X111370952Y-64270000D01*
X111323333Y-64317619D01*
X111228095Y-64460476D01*
X111180476Y-64650952D01*
X111180476Y-65031904D01*
X111228095Y-65127142D01*
X111275714Y-65174761D01*
X111370952Y-65222380D01*
X111561428Y-65222380D01*
X111656666Y-65174761D01*
X111704285Y-65127142D01*
X111751904Y-65031904D01*
X111751904Y-64793809D01*
X111704285Y-64698571D01*
X111656666Y-64650952D01*
X111561428Y-64603333D01*
X111370952Y-64603333D01*
X111275714Y-64650952D01*
X111228095Y-64698571D01*
X111180476Y-64793809D01*
%TO.C,R3*%
X114133333Y-96337380D02*
X113800000Y-95861190D01*
X113561904Y-96337380D02*
X113561904Y-95337380D01*
X113942857Y-95337380D01*
X114038095Y-95385000D01*
X114085714Y-95432619D01*
X114133333Y-95527857D01*
X114133333Y-95670714D01*
X114085714Y-95765952D01*
X114038095Y-95813571D01*
X113942857Y-95861190D01*
X113561904Y-95861190D01*
X114466666Y-95337380D02*
X115085714Y-95337380D01*
X114752380Y-95718333D01*
X114895238Y-95718333D01*
X114990476Y-95765952D01*
X115038095Y-95813571D01*
X115085714Y-95908809D01*
X115085714Y-96146904D01*
X115038095Y-96242142D01*
X114990476Y-96289761D01*
X114895238Y-96337380D01*
X114609523Y-96337380D01*
X114514285Y-96289761D01*
X114466666Y-96242142D01*
%TO.C,R1*%
X127468333Y-91892380D02*
X127135000Y-91416190D01*
X126896904Y-91892380D02*
X126896904Y-90892380D01*
X127277857Y-90892380D01*
X127373095Y-90940000D01*
X127420714Y-90987619D01*
X127468333Y-91082857D01*
X127468333Y-91225714D01*
X127420714Y-91320952D01*
X127373095Y-91368571D01*
X127277857Y-91416190D01*
X126896904Y-91416190D01*
X128420714Y-91892380D02*
X127849285Y-91892380D01*
X128135000Y-91892380D02*
X128135000Y-90892380D01*
X128039761Y-91035238D01*
X127944523Y-91130476D01*
X127849285Y-91178095D01*
%TO.C,J4*%
X76261666Y-30479480D02*
X76261666Y-31193766D01*
X76214047Y-31336623D01*
X76118809Y-31431861D01*
X75975952Y-31479480D01*
X75880714Y-31479480D01*
X77166428Y-30812814D02*
X77166428Y-31479480D01*
X76928333Y-30431861D02*
X76690238Y-31146147D01*
X77309285Y-31146147D01*
%TO.C,U16*%
X82591904Y-55962380D02*
X82591904Y-56771904D01*
X82639523Y-56867142D01*
X82687142Y-56914761D01*
X82782380Y-56962380D01*
X82972857Y-56962380D01*
X83068095Y-56914761D01*
X83115714Y-56867142D01*
X83163333Y-56771904D01*
X83163333Y-55962380D01*
X84163333Y-56962380D02*
X83591904Y-56962380D01*
X83877619Y-56962380D02*
X83877619Y-55962380D01*
X83782380Y-56105238D01*
X83687142Y-56200476D01*
X83591904Y-56248095D01*
X85020476Y-55962380D02*
X84830000Y-55962380D01*
X84734761Y-56010000D01*
X84687142Y-56057619D01*
X84591904Y-56200476D01*
X84544285Y-56390952D01*
X84544285Y-56771904D01*
X84591904Y-56867142D01*
X84639523Y-56914761D01*
X84734761Y-56962380D01*
X84925238Y-56962380D01*
X85020476Y-56914761D01*
X85068095Y-56867142D01*
X85115714Y-56771904D01*
X85115714Y-56533809D01*
X85068095Y-56438571D01*
X85020476Y-56390952D01*
X84925238Y-56343333D01*
X84734761Y-56343333D01*
X84639523Y-56390952D01*
X84591904Y-56438571D01*
X84544285Y-56533809D01*
%TO.C,U9*%
X51048095Y-85827380D02*
X51048095Y-86636904D01*
X51095714Y-86732142D01*
X51143333Y-86779761D01*
X51238571Y-86827380D01*
X51429047Y-86827380D01*
X51524285Y-86779761D01*
X51571904Y-86732142D01*
X51619523Y-86636904D01*
X51619523Y-85827380D01*
X52143333Y-86827380D02*
X52333809Y-86827380D01*
X52429047Y-86779761D01*
X52476666Y-86732142D01*
X52571904Y-86589285D01*
X52619523Y-86398809D01*
X52619523Y-86017857D01*
X52571904Y-85922619D01*
X52524285Y-85875000D01*
X52429047Y-85827380D01*
X52238571Y-85827380D01*
X52143333Y-85875000D01*
X52095714Y-85922619D01*
X52048095Y-86017857D01*
X52048095Y-86255952D01*
X52095714Y-86351190D01*
X52143333Y-86398809D01*
X52238571Y-86446428D01*
X52429047Y-86446428D01*
X52524285Y-86398809D01*
X52571904Y-86351190D01*
X52619523Y-86255952D01*
%TO.C,R5*%
X114133333Y-87447380D02*
X113800000Y-86971190D01*
X113561904Y-87447380D02*
X113561904Y-86447380D01*
X113942857Y-86447380D01*
X114038095Y-86495000D01*
X114085714Y-86542619D01*
X114133333Y-86637857D01*
X114133333Y-86780714D01*
X114085714Y-86875952D01*
X114038095Y-86923571D01*
X113942857Y-86971190D01*
X113561904Y-86971190D01*
X115038095Y-86447380D02*
X114561904Y-86447380D01*
X114514285Y-86923571D01*
X114561904Y-86875952D01*
X114657142Y-86828333D01*
X114895238Y-86828333D01*
X114990476Y-86875952D01*
X115038095Y-86923571D01*
X115085714Y-87018809D01*
X115085714Y-87256904D01*
X115038095Y-87352142D01*
X114990476Y-87399761D01*
X114895238Y-87447380D01*
X114657142Y-87447380D01*
X114561904Y-87399761D01*
X114514285Y-87352142D01*
%TO.C,D3*%
X47998095Y-138052380D02*
X47998095Y-137052380D01*
X48569523Y-138052380D02*
X48140952Y-137480952D01*
X48569523Y-137052380D02*
X47998095Y-137623809D01*
X47998095Y-138052380D02*
X47998095Y-137052380D01*
X48569523Y-138052380D02*
X48140952Y-137480952D01*
X48569523Y-137052380D02*
X47998095Y-137623809D01*
X52991904Y-140152380D02*
X52991904Y-139152380D01*
X53230000Y-139152380D01*
X53372857Y-139200000D01*
X53468095Y-139295238D01*
X53515714Y-139390476D01*
X53563333Y-139580952D01*
X53563333Y-139723809D01*
X53515714Y-139914285D01*
X53468095Y-140009523D01*
X53372857Y-140104761D01*
X53230000Y-140152380D01*
X52991904Y-140152380D01*
X53896666Y-139152380D02*
X54515714Y-139152380D01*
X54182380Y-139533333D01*
X54325238Y-139533333D01*
X54420476Y-139580952D01*
X54468095Y-139628571D01*
X54515714Y-139723809D01*
X54515714Y-139961904D01*
X54468095Y-140057142D01*
X54420476Y-140104761D01*
X54325238Y-140152380D01*
X54039523Y-140152380D01*
X53944285Y-140104761D01*
X53896666Y-140057142D01*
D12*
%TO.C,SW1*%
X136780000Y-123225000D02*
X138133333Y-123225000D01*
X136780000Y-113565000D02*
X138133333Y-113565000D01*
X136780000Y-121085000D02*
X138133333Y-121085000D01*
X136780000Y-112965000D02*
X138133333Y-112965000D01*
X136780000Y-118145000D02*
X138133333Y-118145000D01*
X133920000Y-133640000D02*
X133920000Y-112140000D01*
X136780000Y-118845000D02*
X138133333Y-118845000D01*
X136780000Y-128705000D02*
X138133333Y-128705000D01*
X136780000Y-115805000D02*
X138133333Y-115805000D01*
X134920000Y-111140000D02*
X143700000Y-111140000D01*
X136780000Y-118645000D02*
X138133333Y-118645000D01*
X140840000Y-128105000D02*
X136780000Y-128105000D01*
X136780000Y-115705000D02*
X138133333Y-115705000D01*
X136780000Y-120785000D02*
X138133333Y-120785000D01*
X136780000Y-125665000D02*
X138133333Y-125665000D01*
X136780000Y-131045000D02*
X138133333Y-131045000D01*
X140840000Y-116675000D02*
X140840000Y-115405000D01*
X138133333Y-115405000D02*
X138133333Y-116675000D01*
X140840000Y-126835000D02*
X140840000Y-125565000D01*
X136780000Y-126665000D02*
X138133333Y-126665000D01*
X136780000Y-131915000D02*
X140840000Y-131915000D01*
X140840000Y-125565000D02*
X136780000Y-125565000D01*
X136780000Y-121755000D02*
X140840000Y-121755000D01*
X136780000Y-130845000D02*
X138133333Y-130845000D01*
X136780000Y-129205000D02*
X138133333Y-129205000D01*
X136780000Y-128205000D02*
X138133333Y-128205000D01*
X136780000Y-130745000D02*
X138133333Y-130745000D01*
X136780000Y-115905000D02*
X138133333Y-115905000D01*
X136780000Y-115505000D02*
X138133333Y-115505000D01*
X138133333Y-125565000D02*
X138133333Y-126835000D01*
X136780000Y-128605000D02*
X138133333Y-128605000D01*
X136780000Y-117945000D02*
X136780000Y-119215000D01*
X136780000Y-120885000D02*
X138133333Y-120885000D01*
X136780000Y-131645000D02*
X138133333Y-131645000D01*
X136780000Y-126765000D02*
X138133333Y-126765000D01*
X136780000Y-113465000D02*
X138133333Y-113465000D01*
X136780000Y-131345000D02*
X138133333Y-131345000D01*
X136780000Y-124025000D02*
X138133333Y-124025000D01*
X136780000Y-125565000D02*
X136780000Y-126835000D01*
X136780000Y-116605000D02*
X138133333Y-116605000D01*
X143700000Y-133640000D02*
X133920000Y-133640000D01*
X136780000Y-126065000D02*
X138133333Y-126065000D01*
X136780000Y-119145000D02*
X138133333Y-119145000D01*
X136780000Y-128805000D02*
X138133333Y-128805000D01*
X138133333Y-120485000D02*
X138133333Y-121755000D01*
X136780000Y-126165000D02*
X138133333Y-126165000D01*
X136780000Y-130945000D02*
X138133333Y-130945000D01*
X136780000Y-114135000D02*
X140840000Y-114135000D01*
X136780000Y-125865000D02*
X138133333Y-125865000D01*
X136780000Y-123725000D02*
X138133333Y-123725000D01*
X136780000Y-121385000D02*
X138133333Y-121385000D01*
X136780000Y-126265000D02*
X138133333Y-126265000D01*
X136780000Y-116305000D02*
X138133333Y-116305000D01*
X136780000Y-123125000D02*
X138133333Y-123125000D01*
X136780000Y-123325000D02*
X138133333Y-123325000D01*
X136780000Y-131245000D02*
X138133333Y-131245000D01*
X136780000Y-123625000D02*
X138133333Y-123625000D01*
X136780000Y-118045000D02*
X138133333Y-118045000D01*
X140840000Y-119215000D02*
X140840000Y-117945000D01*
X133920000Y-112140000D02*
X134920000Y-111140000D01*
X136780000Y-113265000D02*
X138133333Y-113265000D01*
X136780000Y-129375000D02*
X140840000Y-129375000D01*
X140840000Y-130645000D02*
X136780000Y-130645000D01*
X138133333Y-112865000D02*
X138133333Y-114135000D01*
X136780000Y-125965000D02*
X138133333Y-125965000D01*
X136780000Y-114065000D02*
X138133333Y-114065000D01*
X136780000Y-131845000D02*
X138133333Y-131845000D01*
X136780000Y-115605000D02*
X138133333Y-115605000D01*
X136780000Y-116505000D02*
X138133333Y-116505000D01*
X136780000Y-116105000D02*
X138133333Y-116105000D01*
X138133333Y-130645000D02*
X138133333Y-131915000D01*
X136780000Y-128505000D02*
X138133333Y-128505000D01*
X136780000Y-125765000D02*
X138133333Y-125765000D01*
X136780000Y-128105000D02*
X136780000Y-129375000D01*
X138133333Y-117945000D02*
X138133333Y-119215000D01*
X136780000Y-112865000D02*
X136780000Y-114135000D01*
X136780000Y-131145000D02*
X138133333Y-131145000D01*
X136780000Y-113765000D02*
X138133333Y-113765000D01*
X140840000Y-123025000D02*
X136780000Y-123025000D01*
X138133333Y-123025000D02*
X138133333Y-124295000D01*
X136780000Y-126465000D02*
X138133333Y-126465000D01*
X136780000Y-116005000D02*
X138133333Y-116005000D01*
X143700000Y-111140000D02*
X143700000Y-133640000D01*
X136780000Y-128905000D02*
X138133333Y-128905000D01*
X136780000Y-118245000D02*
X138133333Y-118245000D01*
X136780000Y-124125000D02*
X138133333Y-124125000D01*
X136780000Y-115405000D02*
X136780000Y-116675000D01*
X136780000Y-120585000D02*
X138133333Y-120585000D01*
X136780000Y-118745000D02*
X138133333Y-118745000D01*
X136780000Y-113965000D02*
X138133333Y-113965000D01*
X140840000Y-120485000D02*
X136780000Y-120485000D01*
X136780000Y-119045000D02*
X138133333Y-119045000D01*
X136780000Y-116675000D02*
X140840000Y-116675000D01*
X138133333Y-128105000D02*
X138133333Y-129375000D01*
X136780000Y-121285000D02*
X138133333Y-121285000D01*
X136780000Y-118945000D02*
X138133333Y-118945000D01*
X136780000Y-121185000D02*
X138133333Y-121185000D01*
X136780000Y-126835000D02*
X140840000Y-126835000D01*
X136780000Y-123925000D02*
X138133333Y-123925000D01*
X136780000Y-123825000D02*
X138133333Y-123825000D01*
X140840000Y-129375000D02*
X140840000Y-128105000D01*
X140840000Y-121755000D02*
X140840000Y-120485000D01*
X140840000Y-114135000D02*
X140840000Y-112865000D01*
X136780000Y-120985000D02*
X138133333Y-120985000D01*
X136780000Y-123425000D02*
X138133333Y-123425000D01*
X136780000Y-126365000D02*
X138133333Y-126365000D01*
X136780000Y-116405000D02*
X138133333Y-116405000D01*
X136780000Y-130645000D02*
X136780000Y-131915000D01*
X136780000Y-128405000D02*
X138133333Y-128405000D01*
X136780000Y-128305000D02*
X138133333Y-128305000D01*
X136780000Y-113065000D02*
X138133333Y-113065000D01*
X140840000Y-112865000D02*
X136780000Y-112865000D01*
X136780000Y-120485000D02*
X136780000Y-121755000D01*
X136780000Y-129105000D02*
X138133333Y-129105000D01*
X136780000Y-129005000D02*
X138133333Y-129005000D01*
X136780000Y-131745000D02*
X138133333Y-131745000D01*
X136780000Y-129305000D02*
X138133333Y-129305000D01*
X136780000Y-118545000D02*
X138133333Y-118545000D01*
X136780000Y-124225000D02*
X138133333Y-124225000D01*
X136780000Y-123525000D02*
X138133333Y-123525000D01*
X136780000Y-118445000D02*
X138133333Y-118445000D01*
X136780000Y-123025000D02*
X136780000Y-124295000D01*
X136780000Y-120685000D02*
X138133333Y-120685000D01*
X140840000Y-124295000D02*
X140840000Y-123025000D01*
X136780000Y-119215000D02*
X140840000Y-119215000D01*
X136780000Y-131445000D02*
X138133333Y-131445000D01*
X136780000Y-121485000D02*
X138133333Y-121485000D01*
X136780000Y-118345000D02*
X138133333Y-118345000D01*
X136780000Y-121685000D02*
X138133333Y-121685000D01*
X136780000Y-116205000D02*
X138133333Y-116205000D01*
X136780000Y-113865000D02*
X138133333Y-113865000D01*
X136780000Y-121585000D02*
X138133333Y-121585000D01*
X140840000Y-117945000D02*
X136780000Y-117945000D01*
X136780000Y-113165000D02*
X138133333Y-113165000D01*
X140840000Y-115405000D02*
X136780000Y-115405000D01*
X136780000Y-124295000D02*
X140840000Y-124295000D01*
X136780000Y-113365000D02*
X138133333Y-113365000D01*
X136780000Y-131545000D02*
X138133333Y-131545000D01*
X136780000Y-126565000D02*
X138133333Y-126565000D01*
X136780000Y-113665000D02*
X138133333Y-113665000D01*
X140840000Y-131915000D02*
X140840000Y-130645000D01*
%TO.C,C1*%
X90550000Y-107750000D02*
X90550000Y-105250000D01*
X90550000Y-105250000D02*
X85550000Y-105250000D01*
X85550000Y-107750000D02*
X90550000Y-107750000D01*
X85550000Y-105250000D02*
X85550000Y-107750000D01*
%TO.C,C2*%
X102633300Y-105430000D02*
X97633300Y-105430000D01*
X97633300Y-105430000D02*
X97633300Y-107930000D01*
X97633300Y-107930000D02*
X102633300Y-107930000D01*
X102633300Y-107930000D02*
X102633300Y-105430000D01*
%TO.C,C4*%
X126800000Y-107930000D02*
X126800000Y-105430000D01*
X121800000Y-107930000D02*
X126800000Y-107930000D01*
X126800000Y-105430000D02*
X121800000Y-105430000D01*
X121800000Y-105430000D02*
X121800000Y-107930000D01*
%TO.C,U2*%
X115401700Y-109730000D02*
X115401700Y-135130000D01*
X110051700Y-109730000D02*
X115401700Y-109730000D01*
X109051700Y-135130000D02*
X109051700Y-110730000D01*
X109051700Y-110730000D02*
X110051700Y-109730000D01*
X115401700Y-135130000D02*
X109051700Y-135130000D01*
%TO.C,U10*%
X122135000Y-109730000D02*
X127485000Y-109730000D01*
X127485000Y-109730000D02*
X127485000Y-135130000D01*
X121135000Y-135130000D02*
X121135000Y-110730000D01*
X121135000Y-110730000D02*
X122135000Y-109730000D01*
X127485000Y-135130000D02*
X121135000Y-135130000D01*
%TO.C,RR1*%
X130250000Y-109710000D02*
X130250000Y-132610000D01*
X130250000Y-132610000D02*
X132750000Y-132610000D01*
X132750000Y-109710000D02*
X130250000Y-109710000D01*
X132750000Y-112270000D02*
X130250000Y-112270000D01*
X132750000Y-132610000D02*
X132750000Y-109710000D01*
%TO.C,U6*%
X59641700Y-44445000D02*
X64991700Y-44445000D01*
X58641700Y-62225000D02*
X58641700Y-45445000D01*
X64991700Y-62225000D02*
X58641700Y-62225000D01*
X58641700Y-45445000D02*
X59641700Y-44445000D01*
X64991700Y-44445000D02*
X64991700Y-62225000D01*
%TO.C,C7*%
X73466700Y-107750000D02*
X78466700Y-107750000D01*
X78466700Y-107750000D02*
X78466700Y-105250000D01*
X73466700Y-105250000D02*
X73466700Y-107750000D01*
X78466700Y-105250000D02*
X73466700Y-105250000D01*
%TO.C,U3*%
X103318300Y-135130000D02*
X96968300Y-135130000D01*
X97968300Y-109730000D02*
X103318300Y-109730000D01*
X103318300Y-109730000D02*
X103318300Y-135130000D01*
X96968300Y-135130000D02*
X96968300Y-110730000D01*
X96968300Y-110730000D02*
X97968300Y-109730000D01*
%TO.C,C3*%
X109716700Y-105430000D02*
X109716700Y-107930000D01*
X114716700Y-107930000D02*
X114716700Y-105430000D01*
X109716700Y-107930000D02*
X114716700Y-107930000D01*
X114716700Y-105430000D02*
X109716700Y-105430000D01*
%TO.C,C5*%
X54300000Y-69870000D02*
X49300000Y-69870000D01*
X54300000Y-72370000D02*
X54300000Y-69870000D01*
X49300000Y-72370000D02*
X54300000Y-72370000D01*
X49300000Y-69870000D02*
X49300000Y-72370000D01*
%TO.C,U4*%
X85885000Y-109730000D02*
X91235000Y-109730000D01*
X91235000Y-109730000D02*
X91235000Y-135130000D01*
X91235000Y-135130000D02*
X84885000Y-135130000D01*
X84885000Y-110730000D02*
X85885000Y-109730000D01*
X84885000Y-135130000D02*
X84885000Y-110730000D01*
%TO.C,C6*%
X54300000Y-105250000D02*
X49300000Y-105250000D01*
X49300000Y-107750000D02*
X54300000Y-107750000D01*
X49300000Y-105250000D02*
X49300000Y-107750000D01*
X54300000Y-107750000D02*
X54300000Y-105250000D01*
%TO.C,C11*%
X72841295Y-99877500D02*
X73341295Y-99877500D01*
X73091295Y-99627500D02*
X73091295Y-100127500D01*
X77474900Y-100965000D02*
G75*
G03*
X77474900Y-100965000I-2500000J0D01*
G01*
%TO.C,C8*%
X71160000Y-39390000D02*
X71160000Y-41890000D01*
X76160000Y-41890000D02*
X76160000Y-39390000D01*
X76160000Y-39390000D02*
X71160000Y-39390000D01*
X71160000Y-41890000D02*
X76160000Y-41890000D01*
%TO.C,C12*%
X62931295Y-138997500D02*
X62931295Y-139497500D01*
X62681295Y-139247500D02*
X63181295Y-139247500D01*
X67314900Y-140335000D02*
G75*
G03*
X67314900Y-140335000I-2500000J0D01*
G01*
%TO.C,R2*%
X59690000Y-40640000D02*
X60350000Y-40640000D01*
X60350000Y-39390000D02*
X60350000Y-41890000D01*
X60350000Y-41890000D02*
X66650000Y-41890000D01*
X66650000Y-41890000D02*
X66650000Y-39390000D01*
X66650000Y-39390000D02*
X60350000Y-39390000D01*
X67310000Y-40640000D02*
X66650000Y-40640000D01*
%TO.C,P2*%
X115000000Y-147580000D02*
X115000000Y-153580000D01*
X81340000Y-147580000D02*
X81340000Y-153580000D01*
X119440000Y-140680000D02*
X119440000Y-145040000D01*
X106740000Y-140680000D02*
X106740000Y-145040000D01*
X99120000Y-140680000D02*
X99120000Y-145040000D01*
X99760000Y-140680000D02*
X99120000Y-140680000D01*
X129600000Y-140680000D02*
X129600000Y-145040000D01*
X74360000Y-147580000D02*
X74360000Y-153580000D01*
X135320000Y-140680000D02*
X134680000Y-140680000D01*
X136270000Y-147580000D02*
X72770000Y-147580000D01*
X94040000Y-147580000D02*
X94040000Y-153580000D01*
X74360000Y-140680000D02*
X73720000Y-140680000D01*
X122620000Y-147580000D02*
X122620000Y-153580000D01*
X135320000Y-140680000D02*
X135320000Y-145040000D01*
X99120000Y-147580000D02*
X99120000Y-153580000D01*
X76900000Y-140680000D02*
X76900000Y-145040000D01*
X120080000Y-153580000D02*
X119440000Y-153580000D01*
X97220000Y-140680000D02*
X96580000Y-140680000D01*
X135635000Y-145040000D02*
X136270000Y-145675000D01*
X125160000Y-140680000D02*
X125160000Y-145040000D01*
X122620000Y-153580000D02*
X121980000Y-153580000D01*
X104840000Y-140680000D02*
X104840000Y-145040000D01*
X94680000Y-153580000D02*
X94040000Y-153580000D01*
X127060000Y-140680000D02*
X127060000Y-145040000D01*
X106740000Y-147580000D02*
X106740000Y-153580000D01*
X73720000Y-147580000D02*
X73720000Y-153580000D01*
X104840000Y-153580000D02*
X104200000Y-153580000D01*
X92140000Y-140680000D02*
X91500000Y-140680000D01*
X135320000Y-147580000D02*
X135320000Y-153580000D01*
X96580000Y-140680000D02*
X96580000Y-145040000D01*
X72770000Y-147580000D02*
X72770000Y-145040000D01*
X102300000Y-140680000D02*
X101660000Y-140680000D01*
X89600000Y-147580000D02*
X89600000Y-153580000D01*
X84520000Y-140680000D02*
X84520000Y-145040000D01*
X83880000Y-140680000D02*
X83880000Y-145040000D01*
X84520000Y-147580000D02*
X84520000Y-153580000D01*
X87060000Y-147580000D02*
X87060000Y-153580000D01*
X127060000Y-147580000D02*
X127060000Y-153580000D01*
X135320000Y-153580000D02*
X134680000Y-153580000D01*
X116900000Y-147580000D02*
X116900000Y-153580000D01*
X102300000Y-153580000D02*
X101660000Y-153580000D01*
X79440000Y-140680000D02*
X79440000Y-145040000D01*
X94680000Y-140680000D02*
X94680000Y-145040000D01*
X78800000Y-140680000D02*
X78800000Y-145040000D01*
X89600000Y-140680000D02*
X89600000Y-145040000D01*
X120080000Y-140680000D02*
X120080000Y-145040000D01*
X122620000Y-140680000D02*
X122620000Y-145040000D01*
X129600000Y-147580000D02*
X129600000Y-153580000D01*
X102300000Y-147580000D02*
X102300000Y-153580000D01*
X104840000Y-147580000D02*
X104840000Y-153580000D01*
X88960000Y-147580000D02*
X88960000Y-153580000D01*
X119440000Y-147580000D02*
X119440000Y-153580000D01*
X99760000Y-140680000D02*
X99760000Y-145040000D01*
X125160000Y-153580000D02*
X124520000Y-153580000D01*
X86420000Y-147580000D02*
X86420000Y-153580000D01*
X127700000Y-140680000D02*
X127060000Y-140680000D01*
X121980000Y-140680000D02*
X121980000Y-145040000D01*
X109920000Y-140680000D02*
X109280000Y-140680000D01*
X92140000Y-147580000D02*
X92140000Y-153580000D01*
X81980000Y-147580000D02*
X81980000Y-153580000D01*
X92140000Y-140680000D02*
X92140000Y-145040000D01*
X117540000Y-140680000D02*
X116900000Y-140680000D01*
X132140000Y-147580000D02*
X132140000Y-153580000D01*
X91500000Y-147580000D02*
X91500000Y-153580000D01*
X136270000Y-145675000D02*
X136270000Y-147580000D01*
X121980000Y-147580000D02*
X121980000Y-153580000D01*
X74360000Y-140680000D02*
X74360000Y-145040000D01*
X109920000Y-147580000D02*
X109920000Y-153580000D01*
X84520000Y-153580000D02*
X83880000Y-153580000D01*
X99760000Y-147580000D02*
X99760000Y-153580000D01*
X115000000Y-140680000D02*
X114360000Y-140680000D01*
X76900000Y-140680000D02*
X76260000Y-140680000D01*
X107380000Y-140680000D02*
X107380000Y-145040000D01*
X112460000Y-147580000D02*
X112460000Y-153580000D01*
X134680000Y-140680000D02*
X134680000Y-145040000D01*
X74360000Y-153580000D02*
X73720000Y-153580000D01*
X132780000Y-140680000D02*
X132140000Y-140680000D01*
X109920000Y-140680000D02*
X109920000Y-145040000D01*
X72770000Y-145040000D02*
X135635000Y-145040000D01*
X81980000Y-153580000D02*
X81340000Y-153580000D01*
X112460000Y-140680000D02*
X112460000Y-145040000D01*
X125160000Y-140680000D02*
X124520000Y-140680000D01*
X73720000Y-140680000D02*
X73720000Y-145040000D01*
X130240000Y-140680000D02*
X130240000Y-145040000D01*
X87060000Y-140680000D02*
X86420000Y-140680000D01*
X86420000Y-140680000D02*
X86420000Y-145040000D01*
X112460000Y-140680000D02*
X111820000Y-140680000D01*
X94680000Y-140680000D02*
X94040000Y-140680000D01*
X101660000Y-140680000D02*
X101660000Y-145040000D01*
X130240000Y-147580000D02*
X130240000Y-153580000D01*
X125160000Y-147580000D02*
X125160000Y-153580000D01*
X81980000Y-140680000D02*
X81980000Y-145040000D01*
X102300000Y-140680000D02*
X102300000Y-145040000D01*
X132780000Y-140680000D02*
X132780000Y-145040000D01*
X127700000Y-153580000D02*
X127060000Y-153580000D01*
X94040000Y-140680000D02*
X94040000Y-145040000D01*
X117540000Y-153580000D02*
X116900000Y-153580000D01*
X130240000Y-140680000D02*
X129600000Y-140680000D01*
X109920000Y-153580000D02*
X109280000Y-153580000D01*
X104200000Y-140680000D02*
X104200000Y-145040000D01*
X94680000Y-147580000D02*
X94680000Y-153580000D01*
X76260000Y-140680000D02*
X76260000Y-145040000D01*
X127700000Y-140680000D02*
X127700000Y-145040000D01*
X83880000Y-147580000D02*
X83880000Y-153580000D01*
X96580000Y-147580000D02*
X96580000Y-153580000D01*
X132780000Y-147580000D02*
X132780000Y-153580000D01*
X78800000Y-147580000D02*
X78800000Y-153580000D01*
X127700000Y-147580000D02*
X127700000Y-153580000D01*
X92140000Y-153580000D02*
X91500000Y-153580000D01*
X114360000Y-140680000D02*
X114360000Y-145040000D01*
X120080000Y-147580000D02*
X120080000Y-153580000D01*
X101660000Y-147580000D02*
X101660000Y-153580000D01*
X76900000Y-153580000D02*
X76260000Y-153580000D01*
X99760000Y-153580000D02*
X99120000Y-153580000D01*
X97220000Y-140680000D02*
X97220000Y-145040000D01*
X88960000Y-140680000D02*
X88960000Y-145040000D01*
X79440000Y-140680000D02*
X78800000Y-140680000D01*
X87060000Y-153580000D02*
X86420000Y-153580000D01*
X111820000Y-140680000D02*
X111820000Y-145040000D01*
X97220000Y-147580000D02*
X97220000Y-153580000D01*
X109280000Y-140680000D02*
X109280000Y-145040000D01*
X111820000Y-147580000D02*
X111820000Y-153580000D01*
X115000000Y-140680000D02*
X115000000Y-145040000D01*
X107380000Y-140680000D02*
X106740000Y-140680000D01*
X112460000Y-153580000D02*
X111820000Y-153580000D01*
X117540000Y-140680000D02*
X117540000Y-145040000D01*
X76900000Y-147580000D02*
X76900000Y-153580000D01*
X81340000Y-140680000D02*
X81340000Y-145040000D01*
X89600000Y-153580000D02*
X88960000Y-153580000D01*
X104840000Y-140680000D02*
X104200000Y-140680000D01*
X115000000Y-153580000D02*
X114360000Y-153580000D01*
X104200000Y-147580000D02*
X104200000Y-153580000D01*
X79440000Y-153580000D02*
X78800000Y-153580000D01*
X84520000Y-140680000D02*
X83880000Y-140680000D01*
X89600000Y-140680000D02*
X88960000Y-140680000D01*
X87060000Y-140680000D02*
X87060000Y-145040000D01*
X124520000Y-147580000D02*
X124520000Y-153580000D01*
X117540000Y-147580000D02*
X117540000Y-153580000D01*
X132780000Y-153580000D02*
X132140000Y-153580000D01*
X107380000Y-147580000D02*
X107380000Y-153580000D01*
X134680000Y-147580000D02*
X134680000Y-153580000D01*
X76260000Y-147580000D02*
X76260000Y-153580000D01*
X97220000Y-153580000D02*
X96580000Y-153580000D01*
X107380000Y-153580000D02*
X106740000Y-153580000D01*
X81980000Y-140680000D02*
X81340000Y-140680000D01*
X132140000Y-140680000D02*
X132140000Y-145040000D01*
X79440000Y-147580000D02*
X79440000Y-153580000D01*
X114360000Y-147580000D02*
X114360000Y-153580000D01*
X109280000Y-147580000D02*
X109280000Y-153580000D01*
X130240000Y-153580000D02*
X129600000Y-153580000D01*
X120080000Y-140680000D02*
X119440000Y-140680000D01*
X91500000Y-140680000D02*
X91500000Y-145040000D01*
X124520000Y-140680000D02*
X124520000Y-145040000D01*
X116900000Y-140680000D02*
X116900000Y-145040000D01*
X122620000Y-140680000D02*
X121980000Y-140680000D01*
%TO.C,D2*%
X55230000Y-35676190D02*
X55230000Y-33343810D01*
X55230555Y-33344524D02*
G75*
G03*
X55230000Y-35676190I-1500555J-1165476D01*
G01*
X55230000Y-34510000D02*
G75*
G03*
X55230000Y-34510000I-1500000J0D01*
G01*
%TO.C,R10*%
X128270000Y-52070000D02*
X127610000Y-52070000D01*
X121310000Y-53320000D02*
X127610000Y-53320000D01*
X121310000Y-50820000D02*
X121310000Y-53320000D01*
X127610000Y-53320000D02*
X127610000Y-50820000D01*
X120650000Y-52070000D02*
X121310000Y-52070000D01*
X127610000Y-50820000D02*
X121310000Y-50820000D01*
%TO.C,U8*%
X48635000Y-110730000D02*
X49635000Y-109730000D01*
X48635000Y-130050000D02*
X48635000Y-110730000D01*
X54985000Y-109730000D02*
X54985000Y-130050000D01*
X49635000Y-109730000D02*
X54985000Y-109730000D01*
X54985000Y-130050000D02*
X48635000Y-130050000D01*
%TO.C,U12*%
X94842500Y-43370000D02*
X132942500Y-43370000D01*
X94842500Y-70805000D02*
X94842500Y-43370000D01*
X95477500Y-71440000D02*
X94842500Y-70805000D01*
X132942500Y-43370000D02*
X132942500Y-71440000D01*
X132942500Y-71440000D02*
X95477500Y-71440000D01*
%TO.C,U13*%
X94842500Y-102285000D02*
X94842500Y-74850000D01*
X132942500Y-102920000D02*
X95477500Y-102920000D01*
X132942500Y-74850000D02*
X132942500Y-102920000D01*
X95477500Y-102920000D02*
X94842500Y-102285000D01*
X94842500Y-74850000D02*
X132942500Y-74850000D01*
%TO.C,U7*%
X67068300Y-130050000D02*
X60718300Y-130050000D01*
X61718300Y-109730000D02*
X67068300Y-109730000D01*
X60718300Y-110730000D02*
X61718300Y-109730000D01*
X60718300Y-130050000D02*
X60718300Y-110730000D01*
X67068300Y-109730000D02*
X67068300Y-130050000D01*
%TO.C,C10*%
X73466700Y-69870000D02*
X73466700Y-72370000D01*
X73466700Y-72370000D02*
X78466700Y-72370000D01*
X78466700Y-72370000D02*
X78466700Y-69870000D01*
X78466700Y-69870000D02*
X73466700Y-69870000D01*
%TO.C,R7*%
X132798800Y-63480000D02*
X139098800Y-63480000D01*
X139098800Y-63480000D02*
X139098800Y-60980000D01*
X139098800Y-60980000D02*
X132798800Y-60980000D01*
X132138800Y-62230000D02*
X132798800Y-62230000D01*
X132798800Y-60980000D02*
X132798800Y-63480000D01*
X139758800Y-62230000D02*
X139098800Y-62230000D01*
%TO.C,C9*%
X61383300Y-107750000D02*
X66383300Y-107750000D01*
X61383300Y-105250000D02*
X61383300Y-107750000D01*
X66383300Y-105250000D02*
X61383300Y-105250000D01*
X66383300Y-107750000D02*
X66383300Y-105250000D01*
%TO.C,U5*%
X53985000Y-62225000D02*
X47635000Y-62225000D01*
X53985000Y-44445000D02*
X53985000Y-62225000D01*
X48635000Y-44445000D02*
X53985000Y-44445000D01*
X47635000Y-62225000D02*
X47635000Y-45445000D01*
X47635000Y-45445000D02*
X48635000Y-44445000D01*
%TO.C,R11*%
X139098800Y-50820000D02*
X132798800Y-50820000D01*
X132138800Y-52070000D02*
X132798800Y-52070000D01*
X132798800Y-50820000D02*
X132798800Y-53320000D01*
X139098800Y-53320000D02*
X139098800Y-50820000D01*
X132798800Y-53320000D02*
X139098800Y-53320000D01*
X139758800Y-52070000D02*
X139098800Y-52070000D01*
%TO.C,R12*%
X127668800Y-63480000D02*
X127668800Y-60980000D01*
X120708800Y-62230000D02*
X121368800Y-62230000D01*
X127668800Y-60980000D02*
X121368800Y-60980000D01*
X121368800Y-60980000D02*
X121368800Y-63480000D01*
X121368800Y-63480000D02*
X127668800Y-63480000D01*
X128328800Y-62230000D02*
X127668800Y-62230000D01*
%TO.C,R8*%
X121368800Y-55900000D02*
X121368800Y-58400000D01*
X127668800Y-55900000D02*
X121368800Y-55900000D01*
X121368800Y-58400000D02*
X127668800Y-58400000D01*
X120708800Y-57150000D02*
X121368800Y-57150000D01*
X127668800Y-58400000D02*
X127668800Y-55900000D01*
X128328800Y-57150000D02*
X127668800Y-57150000D01*
%TO.C,R9*%
X132798800Y-55900000D02*
X132798800Y-58400000D01*
X132138800Y-57150000D02*
X132798800Y-57150000D01*
X139758800Y-57150000D02*
X139098800Y-57150000D01*
X132798800Y-58400000D02*
X139098800Y-58400000D01*
X139098800Y-55900000D02*
X132798800Y-55900000D01*
X139098800Y-58400000D02*
X139098800Y-55900000D01*
%TO.C,RR2*%
X86340000Y-79360000D02*
X83840000Y-79360000D01*
X83840000Y-76800000D02*
X83840000Y-99700000D01*
X83840000Y-99700000D02*
X86340000Y-99700000D01*
X86340000Y-99700000D02*
X86340000Y-76800000D01*
X86340000Y-76800000D02*
X83840000Y-76800000D01*
%TO.C,J7*%
X99745000Y-23767100D02*
X100385000Y-23767100D01*
X94665000Y-29767100D02*
X94665000Y-23767100D01*
X91175000Y-29767100D02*
X103875000Y-29767100D01*
X97205000Y-36667100D02*
X97205000Y-32307100D01*
X100385000Y-36667100D02*
X100385000Y-32307100D01*
X102925000Y-29767100D02*
X102925000Y-23767100D01*
X103875000Y-29767100D02*
X103875000Y-32307100D01*
X99745000Y-36667100D02*
X100385000Y-36667100D01*
X92765000Y-29767100D02*
X92765000Y-23767100D01*
X92125000Y-36667100D02*
X92125000Y-32307100D01*
X95305000Y-36667100D02*
X95305000Y-32307100D01*
X97845000Y-29767100D02*
X97845000Y-23767100D01*
X99745000Y-29767100D02*
X99745000Y-23767100D01*
X97205000Y-36667100D02*
X97845000Y-36667100D01*
X91810000Y-32307100D02*
X91175000Y-31672100D01*
X97845000Y-36667100D02*
X97845000Y-32307100D01*
X97205000Y-23767100D02*
X97845000Y-23767100D01*
X94665000Y-36667100D02*
X94665000Y-32307100D01*
X102285000Y-36667100D02*
X102285000Y-32307100D01*
X97205000Y-29767100D02*
X97205000Y-23767100D01*
X94665000Y-36667100D02*
X95305000Y-36667100D01*
X92125000Y-29767100D02*
X92125000Y-23767100D01*
X102285000Y-36667100D02*
X102925000Y-36667100D01*
X99745000Y-36667100D02*
X99745000Y-32307100D01*
X100385000Y-29767100D02*
X100385000Y-23767100D01*
X102285000Y-29767100D02*
X102285000Y-23767100D01*
X94665000Y-23767100D02*
X95305000Y-23767100D01*
X91175000Y-31672100D02*
X91175000Y-29767100D01*
X103875000Y-32307100D02*
X91810000Y-32307100D01*
X92765000Y-36667100D02*
X92765000Y-32307100D01*
X92125000Y-36667100D02*
X92765000Y-36667100D01*
X92125000Y-23767100D02*
X92765000Y-23767100D01*
X95305000Y-29767100D02*
X95305000Y-23767100D01*
X102925000Y-36667100D02*
X102925000Y-32307100D01*
X102285000Y-23767100D02*
X102925000Y-23767100D01*
%TO.C,R15*%
X130785000Y-83800000D02*
X130785000Y-81300000D01*
X123825000Y-82550000D02*
X124485000Y-82550000D01*
X131445000Y-82550000D02*
X130785000Y-82550000D01*
X124485000Y-83800000D02*
X130785000Y-83800000D01*
X130785000Y-81300000D02*
X124485000Y-81300000D01*
X124485000Y-81300000D02*
X124485000Y-83800000D01*
%TO.C,C16*%
X81096295Y-40187500D02*
X81596295Y-40187500D01*
X81346295Y-39937500D02*
X81346295Y-40437500D01*
X85729900Y-41275000D02*
G75*
G03*
X85729900Y-41275000I-2500000J0D01*
G01*
%TO.C,R17*%
X106680000Y-60325000D02*
X107340000Y-60325000D01*
X107340000Y-61575000D02*
X113640000Y-61575000D01*
X113640000Y-59075000D02*
X107340000Y-59075000D01*
X107340000Y-59075000D02*
X107340000Y-61575000D01*
X114300000Y-60325000D02*
X113640000Y-60325000D01*
X113640000Y-61575000D02*
X113640000Y-59075000D01*
%TO.C,R14*%
X114300000Y-55880000D02*
X113640000Y-55880000D01*
X106680000Y-55880000D02*
X107340000Y-55880000D01*
X107340000Y-54630000D02*
X107340000Y-57130000D01*
X107340000Y-57130000D02*
X113640000Y-57130000D01*
X113640000Y-57130000D02*
X113640000Y-54630000D01*
X113640000Y-54630000D02*
X107340000Y-54630000D01*
%TO.C,C13*%
X53260000Y-41890000D02*
X53260000Y-39390000D01*
X53260000Y-39390000D02*
X48260000Y-39390000D01*
X48260000Y-41890000D02*
X53260000Y-41890000D01*
X48260000Y-39390000D02*
X48260000Y-41890000D01*
%TO.C,R13*%
X107340000Y-50185000D02*
X107340000Y-52685000D01*
X107340000Y-52685000D02*
X113640000Y-52685000D01*
X113640000Y-52685000D02*
X113640000Y-50185000D01*
X113640000Y-50185000D02*
X107340000Y-50185000D01*
X114300000Y-51435000D02*
X113640000Y-51435000D01*
X106680000Y-51435000D02*
X107340000Y-51435000D01*
%TO.C,R6*%
X117450000Y-81300000D02*
X111150000Y-81300000D01*
X118110000Y-82550000D02*
X117450000Y-82550000D01*
X111150000Y-83800000D02*
X117450000Y-83800000D01*
X111150000Y-81300000D02*
X111150000Y-83800000D01*
X110490000Y-82550000D02*
X111150000Y-82550000D01*
X117450000Y-83800000D02*
X117450000Y-81300000D01*
%TO.C,U11*%
X67068300Y-96535000D02*
X60718300Y-96535000D01*
X60718300Y-77215000D02*
X61718300Y-76215000D01*
X61718300Y-76215000D02*
X67068300Y-76215000D01*
X60718300Y-96535000D02*
X60718300Y-77215000D01*
X67068300Y-76215000D02*
X67068300Y-96535000D01*
%TO.C,J3*%
X84135000Y-29757100D02*
X84135000Y-23757100D01*
X86035000Y-29757100D02*
X86035000Y-23757100D01*
X86035000Y-23757100D02*
X86675000Y-23757100D01*
X83495000Y-34117100D02*
X84135000Y-34117100D01*
X87625000Y-32297100D02*
X83180000Y-32297100D01*
X86035000Y-34117100D02*
X86675000Y-34117100D01*
X86035000Y-34117100D02*
X86035000Y-32297100D01*
X84135000Y-34117100D02*
X84135000Y-32297100D01*
X86675000Y-34117100D02*
X86675000Y-32297100D01*
X87625000Y-29757100D02*
X87625000Y-32297100D01*
X83495000Y-34117100D02*
X83495000Y-32297100D01*
X82545000Y-29757100D02*
X87625000Y-29757100D01*
X86675000Y-29757100D02*
X86675000Y-23757100D01*
X83495000Y-29757100D02*
X83495000Y-23757100D01*
X83495000Y-23757100D02*
X84135000Y-23757100D01*
X83180000Y-32297100D02*
X82545000Y-31662100D01*
X82545000Y-31662100D02*
X82545000Y-29757100D01*
%TO.C,U14*%
X75998300Y-62225000D02*
X69648300Y-62225000D01*
X75998300Y-44445000D02*
X75998300Y-62225000D01*
X69648300Y-62225000D02*
X69648300Y-45445000D01*
X70648300Y-44445000D02*
X75998300Y-44445000D01*
X69648300Y-45445000D02*
X70648300Y-44445000D01*
%TO.C,J6*%
X131935000Y-26397400D02*
X131935000Y-31397400D01*
X111935000Y-31397400D02*
X111935000Y-26397400D01*
X106510000Y-31797400D02*
X106510000Y-40397400D01*
X130085000Y-25397400D02*
X113785000Y-25397400D01*
X137360000Y-40397400D02*
X137360000Y-31797400D01*
X107835000Y-31797400D02*
X107835000Y-36737400D01*
X132835000Y-31797400D02*
X132835000Y-36737400D01*
X106935000Y-31397400D02*
X111935000Y-31397400D01*
X136035000Y-31797400D02*
X136035000Y-36737400D01*
X136935000Y-26397400D02*
X131935000Y-26397400D01*
X130085000Y-31397400D02*
X130085000Y-25397400D01*
X106510000Y-40397400D02*
X137360000Y-40397400D01*
X131935000Y-31397400D02*
X136935000Y-31397400D01*
X106935000Y-26397400D02*
X106935000Y-31397400D01*
X136935000Y-31397400D02*
X136935000Y-26397400D01*
X106510000Y-31797400D02*
X137360000Y-31797400D01*
X111935000Y-26397400D02*
X106935000Y-26397400D01*
X111035000Y-31797400D02*
X111035000Y-36737400D01*
X137360000Y-31797400D02*
X106510000Y-31797400D01*
X113785000Y-31397400D02*
X130085000Y-31397400D01*
X106510000Y-31397400D02*
X106510000Y-31797400D01*
X113785000Y-25397400D02*
X113785000Y-31397400D01*
X137360000Y-31797400D02*
X137360000Y-31397400D01*
X137360000Y-31397400D02*
X106510000Y-31397400D01*
X107835000Y-36737400D02*
G75*
G03*
X111035000Y-36737400I1600000J0D01*
G01*
X132835000Y-36737400D02*
G75*
G03*
X136035000Y-36737400I1600000J0D01*
G01*
%TO.C,R4*%
X111150000Y-92690000D02*
X117450000Y-92690000D01*
X118110000Y-91440000D02*
X117450000Y-91440000D01*
X117450000Y-92690000D02*
X117450000Y-90190000D01*
X111150000Y-90190000D02*
X111150000Y-92690000D01*
X117450000Y-90190000D02*
X111150000Y-90190000D01*
X110490000Y-91440000D02*
X111150000Y-91440000D01*
%TO.C,U15*%
X73035000Y-135260000D02*
X73035000Y-110860000D01*
X79385000Y-109860000D02*
X79385000Y-135260000D01*
X74035000Y-109860000D02*
X79385000Y-109860000D01*
X79385000Y-135260000D02*
X73035000Y-135260000D01*
X73035000Y-110860000D02*
X74035000Y-109860000D01*
%TO.C,C14*%
X66383300Y-72370000D02*
X66383300Y-69870000D01*
X61383300Y-69870000D02*
X61383300Y-72370000D01*
X61383300Y-72370000D02*
X66383300Y-72370000D01*
X66383300Y-69870000D02*
X61383300Y-69870000D01*
%TO.C,D6*%
X51620000Y-141650000D02*
X51620000Y-144350000D01*
X51520000Y-141650000D02*
X51520000Y-144350000D01*
X50740000Y-141650000D02*
X50740000Y-144350000D01*
X50740000Y-144350000D02*
X55940000Y-144350000D01*
X51420000Y-141650000D02*
X51420000Y-144350000D01*
X55940000Y-141650000D02*
X50740000Y-141650000D01*
X58420000Y-143000000D02*
X55940000Y-143000000D01*
X48260000Y-143000000D02*
X50740000Y-143000000D01*
X55940000Y-144350000D02*
X55940000Y-141650000D01*
%TO.C,U1*%
X79151700Y-93995000D02*
X72801700Y-93995000D01*
X72801700Y-77215000D02*
X73801700Y-76215000D01*
X73801700Y-76215000D02*
X79151700Y-76215000D01*
X79151700Y-76215000D02*
X79151700Y-93995000D01*
X72801700Y-93995000D02*
X72801700Y-77215000D01*
%TO.C,J5*%
X60690000Y-34432100D02*
X60690000Y-32527100D01*
X68310000Y-32527100D02*
X68310000Y-35067100D01*
X60690000Y-32527100D02*
X68310000Y-32527100D01*
X61325000Y-35067100D02*
X60690000Y-34432100D01*
X68310000Y-35067100D02*
X61325000Y-35067100D01*
%TO.C,C15*%
X83185000Y-72370000D02*
X88185000Y-72370000D01*
X88185000Y-72370000D02*
X88185000Y-69870000D01*
X88185000Y-69870000D02*
X83185000Y-69870000D01*
X83185000Y-69870000D02*
X83185000Y-72370000D01*
%TO.C,R16*%
X113640000Y-63520000D02*
X107340000Y-63520000D01*
X106680000Y-64770000D02*
X107340000Y-64770000D01*
X114300000Y-64770000D02*
X113640000Y-64770000D01*
X107340000Y-66020000D02*
X113640000Y-66020000D01*
X113640000Y-66020000D02*
X113640000Y-63520000D01*
X107340000Y-63520000D02*
X107340000Y-66020000D01*
%TO.C,R3*%
X110490000Y-95885000D02*
X111150000Y-95885000D01*
X117450000Y-97135000D02*
X117450000Y-94635000D01*
X111150000Y-97135000D02*
X117450000Y-97135000D01*
X118110000Y-95885000D02*
X117450000Y-95885000D01*
X117450000Y-94635000D02*
X111150000Y-94635000D01*
X111150000Y-94635000D02*
X111150000Y-97135000D01*
%TO.C,R1*%
X124485000Y-92690000D02*
X130785000Y-92690000D01*
X124485000Y-90190000D02*
X124485000Y-92690000D01*
X131445000Y-91440000D02*
X130785000Y-91440000D01*
X123825000Y-91440000D02*
X124485000Y-91440000D01*
X130785000Y-90190000D02*
X124485000Y-90190000D01*
X130785000Y-92690000D02*
X130785000Y-90190000D01*
%TO.C,J4*%
X78815000Y-34117100D02*
X78815000Y-32297100D01*
X73420000Y-32297100D02*
X72785000Y-31662100D01*
X80405000Y-29757100D02*
X80405000Y-32297100D01*
X72785000Y-31662100D02*
X72785000Y-29757100D01*
X80405000Y-32297100D02*
X73420000Y-32297100D01*
X78815000Y-29757100D02*
X78815000Y-23757100D01*
X76275000Y-34117100D02*
X76915000Y-34117100D01*
X74375000Y-34117100D02*
X74375000Y-32297100D01*
X73735000Y-23757100D02*
X74375000Y-23757100D01*
X76915000Y-29757100D02*
X76915000Y-23757100D01*
X72785000Y-29757100D02*
X80405000Y-29757100D01*
X74375000Y-29757100D02*
X74375000Y-23757100D01*
X73735000Y-29757100D02*
X73735000Y-23757100D01*
X78815000Y-23757100D02*
X79455000Y-23757100D01*
X73735000Y-34117100D02*
X73735000Y-32297100D01*
X76275000Y-34117100D02*
X76275000Y-32297100D01*
X78815000Y-34117100D02*
X79455000Y-34117100D01*
X79455000Y-34117100D02*
X79455000Y-32297100D01*
X76275000Y-23757100D02*
X76915000Y-23757100D01*
X76275000Y-29757100D02*
X76275000Y-23757100D01*
X76915000Y-34117100D02*
X76915000Y-32297100D01*
X79455000Y-29757100D02*
X79455000Y-23757100D01*
X73735000Y-34117100D02*
X74375000Y-34117100D01*
%TO.C,U16*%
X87005000Y-47620000D02*
X87005000Y-65400000D01*
X87005000Y-65400000D02*
X80655000Y-65400000D01*
X80655000Y-48620000D02*
X81655000Y-47620000D01*
X80655000Y-65400000D02*
X80655000Y-48620000D01*
X81655000Y-47620000D02*
X87005000Y-47620000D01*
%TO.C,U9*%
X54985000Y-96535000D02*
X48635000Y-96535000D01*
X54985000Y-76215000D02*
X54985000Y-96535000D01*
X49635000Y-76215000D02*
X54985000Y-76215000D01*
X48635000Y-96535000D02*
X48635000Y-77215000D01*
X48635000Y-77215000D02*
X49635000Y-76215000D01*
%TO.C,R5*%
X117450000Y-85745000D02*
X111150000Y-85745000D01*
X110490000Y-86995000D02*
X111150000Y-86995000D01*
X118110000Y-86995000D02*
X117450000Y-86995000D01*
X111150000Y-85745000D02*
X111150000Y-88245000D01*
X117450000Y-88245000D02*
X117450000Y-85745000D01*
X111150000Y-88245000D02*
X117450000Y-88245000D01*
%TO.C,D3*%
X48260000Y-139700000D02*
X50740000Y-139700000D01*
X51420000Y-138350000D02*
X51420000Y-141050000D01*
X55940000Y-138350000D02*
X50740000Y-138350000D01*
X51620000Y-138350000D02*
X51620000Y-141050000D01*
X58420000Y-139700000D02*
X55940000Y-139700000D01*
X50740000Y-138350000D02*
X50740000Y-141050000D01*
X50740000Y-141050000D02*
X55940000Y-141050000D01*
X55940000Y-141050000D02*
X55940000Y-138350000D01*
X51520000Y-138350000D02*
X51520000Y-141050000D01*
%TD*%
M02*
