M48
; DRILL file {KiCad (6.0.11)} date Mon Jun 19 15:18:30 2023
; FORMAT={-:-/ absolute / inch / decimal}
; #@! TF.CreationDate,2023-06-19T15:18:30-05:00
; #@! TF.GenerationSoftware,Kicad,Pcbnew,(6.0.11)
; #@! TF.FileFunction,Plated,1,2,PTH
FMAT,2
INCH
; #@! TA.AperFunction,Plated,PTH,ViaDrill
T1C0.0157
; #@! TA.AperFunction,Plated,PTH,ComponentDrill
T2C0.0315
; #@! TA.AperFunction,Plated,PTH,ComponentDrill
T3C0.0354
; #@! TA.AperFunction,Plated,PTH,ComponentDrill
T4C0.0394
; #@! TA.AperFunction,Plated,PTH,ComponentDrill
T5C0.0433
; #@! TA.AperFunction,Plated,PTH,ComponentDrill
T6C0.0866
; #@! TA.AperFunction,Plated,PTH,ComponentDrill
T7C0.1260
%
G90
G05
T1
X1.8239Y-4.2218
X1.8671Y-4.1296
X1.9272Y-1.8998
X1.9488Y-3.3831
X2.0354Y-4.5189
X2.0525Y-3.3376
X2.0578Y-1.9924
X2.2038Y-2.2799
X2.2637Y-5.565
X2.3651Y-5.5487
X2.3867Y-5.2335
X2.3968Y-5.5922
X2.4131Y-5.6238
X2.4256Y-2.1932
X2.433Y-5.6495
X2.4386Y-3.335
X2.4571Y-4.6799
X2.4571Y-5.3945
X2.4601Y-5.671
X2.495Y-4.4685
X2.4987Y-2.0997
X2.5259Y-3.0086
X2.5264Y-4.166
X2.5523Y-4.4146
X2.6603Y-3.8603
X2.6742Y-5.3148
X2.6909Y-4.0113
X2.7221Y-4.8684
X2.749Y-3.1274
X2.77Y-2.2368
X2.8467Y-5.6707
X2.8685Y-2.1837
X2.8757Y-5.5125
X2.8939Y-2.2298
X2.9092Y-2.9214
X2.9685Y-3.3684
X2.9702Y-3.0306
X2.9889Y-3.2506
X3.0796Y-4.5201
X3.0873Y-4.7668
X3.1997Y-5.226
X3.219Y-4.884
X3.2397Y-2.5413
X3.2532Y-4.2653
X3.2546Y-2.9376
X3.2873Y-2.9426
X3.3094Y-4.277
X3.32Y-2.3429
X3.3231Y-4.3171
X3.3358Y-4.0674
X3.3767Y-1.5493
X3.433Y-1.8197
X3.5062Y-2.8549
X3.5149Y-4.3397
X3.5178Y-5.0405
X3.521Y-2.0468
X3.5384Y-2.9616
X3.5639Y-2.1711
X3.6079Y-2.183
X3.6079Y-2.5765
X3.6773Y-2.3478
X3.6914Y-3.5002
X3.7138Y-3.3542
X3.7188Y-5.0509
X3.7383Y-1.6049
X3.7899Y-3.5023
X3.7982Y-2.3213
X3.8302Y-3.6279
X3.8314Y-3.4655
X3.8413Y-3.3506
X3.8617Y-5.0773
X3.8705Y-5.0387
X3.8811Y-4.7277
X3.884Y-3.6277
X3.8858Y-4.6431
X3.8873Y-5.1319
X3.91Y-3.438
X3.9195Y-1.4959
X3.9264Y-4.4264
X3.9325Y-5.1988
X3.9446Y-2.9327
X3.9543Y-5.4595
X3.9586Y-3.4629
X3.966Y-5.4028
X4.019Y-3.1658
X4.0251Y-1.8788
X4.0318Y-4.5317
X4.0371Y-2.9258
X4.1097Y-2.6916
X4.1518Y-2.6382
X4.1597Y-4.158
X4.1646Y-4.6865
X4.1716Y-2.8173
X4.1773Y-4.723
X4.2031Y-5.2675
X4.2148Y-5.3478
X4.2154Y-1.9529
X4.2162Y-1.8528
X4.2364Y-2.8115
X4.2398Y-3.3345
X4.3809Y-4.2515
X4.3857Y-4.5161
X4.4035Y-4.3992
X4.4064Y-4.636
X4.4171Y-2.4028
X4.4435Y-5.363
X4.4836Y-2.6704
X4.4902Y-1.3755
X4.5173Y-3.1469
X4.5344Y-3.8471
X4.5419Y-3.0914
X4.542Y-3.3357
X4.5674Y-1.9661
X4.5965Y-5.4595
X4.6086Y-5.363
X4.634Y-3.0845
X4.6472Y-4.4684
X4.6943Y-5.1392
X4.6946Y-1.9566
X4.7996Y-1.8526
X4.8162Y-1.8229
X5.006Y-2.1649
X5.1732Y-1.464
X5.2649Y-2.5884
X5.3849Y-4.6153
T2
X1.8504Y-1.7998
X1.8504Y-1.8998
X1.8504Y-1.9998
X1.8504Y-2.0998
X1.8504Y-2.1998
X1.8504Y-2.2998
X1.8504Y-2.3998
X1.8898Y-3.0506
X1.8898Y-3.1506
X1.8898Y-3.2506
X1.8898Y-3.3506
X1.8898Y-3.4506
X1.8898Y-3.5506
X1.8898Y-3.6506
X1.8898Y-3.7506
X1.8898Y-4.3701
X1.8898Y-4.4701
X1.8898Y-4.5701
X1.8898Y-4.6701
X1.8898Y-4.7701
X1.8898Y-4.8701
X1.8898Y-4.9701
X1.8898Y-5.0701
X1.9Y-1.6
X1.9409Y-2.8
X1.9409Y-4.1929
X2.0969Y-1.6
X2.1378Y-2.8
X2.1378Y-4.1929
X2.1504Y-1.7998
X2.1504Y-1.8998
X2.1504Y-1.9998
X2.1504Y-2.0998
X2.1504Y-2.1998
X2.1504Y-2.2998
X2.1504Y-2.3998
X2.1898Y-3.0506
X2.1898Y-3.1506
X2.1898Y-3.2506
X2.1898Y-3.3506
X2.1898Y-3.4506
X2.1898Y-3.5506
X2.1898Y-3.6506
X2.1898Y-3.7506
X2.1898Y-4.3701
X2.1898Y-4.4701
X2.1898Y-4.5701
X2.1898Y-4.6701
X2.1898Y-4.7701
X2.1898Y-4.8701
X2.1898Y-4.9701
X2.1898Y-5.0701
X2.2837Y-1.7998
X2.2837Y-1.8998
X2.2837Y-1.9998
X2.2837Y-2.0998
X2.2837Y-2.1998
X2.2837Y-2.2998
X2.2837Y-2.3998
X2.35Y-1.6
X2.3655Y-3.0506
X2.3655Y-3.1506
X2.3655Y-3.2506
X2.3655Y-3.3506
X2.3655Y-3.4506
X2.3655Y-3.5506
X2.3655Y-3.6506
X2.3655Y-3.7506
X2.3655Y-4.3701
X2.3655Y-4.4701
X2.3655Y-4.5701
X2.3655Y-4.6701
X2.3655Y-4.7701
X2.3655Y-4.8701
X2.3655Y-4.9701
X2.3655Y-5.0701
X2.4167Y-2.8
X2.4167Y-4.1929
X2.5026Y-5.525
X2.5837Y-1.7998
X2.5837Y-1.8998
X2.5837Y-1.9998
X2.5837Y-2.0998
X2.5837Y-2.1998
X2.5837Y-2.2998
X2.5837Y-2.3998
X2.601Y-5.525
X2.6135Y-2.8
X2.6135Y-4.1929
X2.65Y-1.6
X2.6655Y-3.0506
X2.6655Y-3.1506
X2.6655Y-3.2506
X2.6655Y-3.3506
X2.6655Y-3.4506
X2.6655Y-3.5506
X2.6655Y-3.6506
X2.6655Y-3.7506
X2.6655Y-4.3701
X2.6655Y-4.4701
X2.6655Y-4.5701
X2.6655Y-4.6701
X2.6655Y-4.7701
X2.6655Y-4.8701
X2.6655Y-4.9701
X2.6655Y-5.0701
X2.7171Y-1.7998
X2.7171Y-1.8998
X2.7171Y-1.9998
X2.7171Y-2.0998
X2.7171Y-2.1998
X2.7171Y-2.2998
X2.7171Y-2.3998
X2.8016Y-1.6
X2.8412Y-3.0506
X2.8412Y-3.1506
X2.8412Y-3.2506
X2.8412Y-3.3506
X2.8412Y-3.4506
X2.8412Y-3.5506
X2.8412Y-3.6506
X2.8504Y-4.3752
X2.8504Y-4.4752
X2.8504Y-4.5752
X2.8504Y-4.6752
X2.8504Y-4.7752
X2.8504Y-4.8752
X2.8504Y-4.9752
X2.8504Y-5.0752
X2.8504Y-5.1752
X2.8504Y-5.2752
X2.8924Y-2.8
X2.8924Y-4.1929
X2.9026Y-3.975
X2.9984Y-1.6
X3.001Y-3.975
X3.0171Y-1.7998
X3.0171Y-1.8998
X3.0171Y-1.9998
X3.0171Y-2.0998
X3.0171Y-2.1998
X3.0171Y-2.2998
X3.0171Y-2.3998
X3.0892Y-2.8
X3.0892Y-4.1929
X3.1412Y-3.0506
X3.1412Y-3.1506
X3.1412Y-3.2506
X3.1412Y-3.3506
X3.1412Y-3.4506
X3.1412Y-3.5506
X3.1412Y-3.6506
X3.1504Y-1.9248
X3.1504Y-2.0248
X3.1504Y-2.1248
X3.1504Y-2.2248
X3.1504Y-2.3248
X3.1504Y-2.4248
X3.1504Y-2.5248
X3.1504Y-4.3752
X3.1504Y-4.4752
X3.1504Y-4.5752
X3.1504Y-4.6752
X3.1504Y-4.7752
X3.1504Y-4.8752
X3.1504Y-4.9752
X3.1504Y-5.0752
X3.1504Y-5.1752
X3.1504Y-5.2752
X3.2276Y-1.625
X3.275Y-2.8
X3.3169Y-4.3701
X3.3169Y-4.4701
X3.3169Y-4.5701
X3.3169Y-4.6701
X3.3169Y-4.7701
X3.3169Y-4.8701
X3.3169Y-4.9701
X3.3169Y-5.0701
X3.3169Y-5.1701
X3.3169Y-5.2701
X3.326Y-1.625
X3.35Y-3.0744
X3.35Y-3.1744
X3.35Y-3.2744
X3.35Y-3.3744
X3.35Y-3.4744
X3.35Y-3.5744
X3.35Y-3.6744
X3.35Y-3.7744
X3.35Y-3.8744
X3.3681Y-4.1929
X3.4504Y-1.9248
X3.4504Y-2.0248
X3.4504Y-2.1248
X3.4504Y-2.2248
X3.4504Y-2.3248
X3.4504Y-2.4248
X3.4504Y-2.5248
X3.4719Y-2.8
X3.565Y-4.1929
X3.6169Y-4.3701
X3.6169Y-4.4701
X3.6169Y-4.5701
X3.6169Y-4.6701
X3.6169Y-4.7701
X3.6169Y-4.8701
X3.6169Y-4.9701
X3.6169Y-5.0701
X3.6169Y-5.1701
X3.6169Y-5.2701
X3.7926Y-4.3701
X3.7926Y-4.4701
X3.7926Y-4.5701
X3.7926Y-4.6701
X3.7926Y-4.7701
X3.7926Y-4.8701
X3.7926Y-4.9701
X3.7926Y-5.0701
X3.7926Y-5.1701
X3.7926Y-5.2701
X3.8438Y-4.2
X4.0407Y-4.2
X4.0926Y-4.3701
X4.0926Y-4.4701
X4.0926Y-4.5701
X4.0926Y-4.6701
X4.0926Y-4.7701
X4.0926Y-4.8701
X4.0926Y-4.9701
X4.0926Y-5.0701
X4.0926Y-5.1701
X4.0926Y-5.2701
X4.2Y-2.025
X4.2Y-2.2
X4.2Y-2.375
X4.2Y-2.55
X4.2684Y-4.3701
X4.2684Y-4.4701
X4.2684Y-4.5701
X4.2684Y-4.6701
X4.2684Y-4.7701
X4.2684Y-4.8701
X4.2684Y-4.9701
X4.2684Y-5.0701
X4.2684Y-5.1701
X4.2684Y-5.2701
X4.3196Y-4.2
X4.35Y-3.25
X4.35Y-3.425
X4.35Y-3.6
X4.35Y-3.775
X4.5Y-2.025
X4.5Y-2.2
X4.5Y-2.375
X4.5Y-2.55
X4.5164Y-4.2
X4.5684Y-4.3701
X4.5684Y-4.4701
X4.5684Y-4.5701
X4.5684Y-4.6701
X4.5684Y-4.7701
X4.5684Y-4.8701
X4.5684Y-4.9701
X4.5684Y-5.0701
X4.5684Y-5.1701
X4.5684Y-5.2701
X4.65Y-3.25
X4.65Y-3.425
X4.65Y-3.6
X4.65Y-3.775
X4.7441Y-4.3701
X4.7441Y-4.4701
X4.7441Y-4.5701
X4.7441Y-4.6701
X4.7441Y-4.7701
X4.7441Y-4.8701
X4.7441Y-4.9701
X4.7441Y-5.0701
X4.7441Y-5.1701
X4.7441Y-5.2701
X4.75Y-2.05
X4.7523Y-2.25
X4.7523Y-2.45
X4.7953Y-4.2
X4.875Y-3.25
X4.875Y-3.6
X4.9921Y-4.2
X5.0441Y-4.3701
X5.0441Y-4.4701
X5.0441Y-4.5701
X5.0441Y-4.6701
X5.0441Y-4.7701
X5.0441Y-4.8701
X5.0441Y-4.9701
X5.0441Y-5.0701
X5.0441Y-5.1701
X5.0441Y-5.2701
X5.05Y-2.05
X5.0523Y-2.25
X5.0523Y-2.45
X5.175Y-3.25
X5.175Y-3.6
X5.1772Y-4.3701
X5.1772Y-4.4701
X5.1772Y-4.5701
X5.1772Y-4.6701
X5.1772Y-4.7701
X5.1772Y-4.8701
X5.1772Y-4.9701
X5.1772Y-5.0701
X5.1772Y-5.1701
X5.2023Y-2.05
X5.2023Y-2.25
X5.2023Y-2.45
X5.315Y-4.4685
X5.315Y-4.5685
X5.315Y-4.6685
X5.315Y-4.7685
X5.315Y-4.8685
X5.315Y-4.9685
X5.315Y-5.0685
X5.315Y-5.1685
X5.5023Y-2.05
X5.5023Y-2.25
X5.5023Y-2.45
X5.615Y-4.4685
X5.615Y-4.5685
X5.615Y-4.6685
X5.615Y-4.7685
X5.615Y-4.8685
X5.615Y-4.9685
X5.615Y-5.0685
X5.615Y-5.1685
T3
X2.0654Y-1.3587
X2.1654Y-1.3587
T4
X2.4394Y-1.3306
X2.5394Y-1.3306
X2.6394Y-1.3306
X2.915Y-5.5512
X2.915Y-5.6512
X2.9156Y-1.3306
X3.015Y-5.5512
X3.015Y-5.6512
X3.0156Y-1.3306
X3.115Y-5.5512
X3.115Y-5.6512
X3.1156Y-1.3306
X3.215Y-5.5512
X3.215Y-5.6512
X3.2998Y-1.3306
X3.315Y-5.5512
X3.315Y-5.6512
X3.3998Y-1.3306
X3.415Y-5.5512
X3.415Y-5.6512
X3.515Y-5.5512
X3.515Y-5.6512
X3.615Y-5.5512
X3.615Y-5.6512
X3.6396Y-1.331
X3.6396Y-1.431
X3.715Y-5.5512
X3.715Y-5.6512
X3.7396Y-1.331
X3.7396Y-1.431
X3.784Y-1.761
X3.784Y-2.7626
X3.784Y-3.0004
X3.784Y-4.002
X3.815Y-5.5512
X3.815Y-5.6512
X3.8396Y-1.331
X3.8396Y-1.431
X3.884Y-1.761
X3.884Y-2.7626
X3.884Y-3.0004
X3.884Y-4.002
X3.915Y-5.5512
X3.915Y-5.6512
X3.9396Y-1.331
X3.9396Y-1.431
X3.984Y-1.761
X3.984Y-2.7626
X3.984Y-3.0004
X3.984Y-4.002
X4.015Y-5.5512
X4.015Y-5.6512
X4.0396Y-1.331
X4.0396Y-1.431
X4.084Y-1.761
X4.084Y-2.7626
X4.084Y-3.0004
X4.084Y-4.002
X4.115Y-5.5512
X4.115Y-5.6512
X4.184Y-1.761
X4.184Y-2.7626
X4.184Y-3.0004
X4.184Y-4.002
X4.215Y-5.5512
X4.215Y-5.6512
X4.284Y-1.761
X4.284Y-2.7626
X4.284Y-3.0004
X4.284Y-4.002
X4.315Y-5.5512
X4.315Y-5.6512
X4.384Y-1.761
X4.384Y-2.7626
X4.384Y-3.0004
X4.384Y-4.002
X4.415Y-5.5512
X4.415Y-5.6512
X4.484Y-1.761
X4.484Y-2.7626
X4.484Y-3.0004
X4.484Y-4.002
X4.515Y-5.5512
X4.515Y-5.6512
X4.584Y-1.761
X4.584Y-2.7626
X4.584Y-3.0004
X4.584Y-4.002
X4.5856Y-1.4491
X4.615Y-5.5512
X4.615Y-5.6512
X4.6307Y-1.3712
X4.6307Y-1.5271
X4.6758Y-1.4491
X4.684Y-1.761
X4.684Y-2.7626
X4.684Y-3.0004
X4.684Y-4.002
X4.715Y-5.5512
X4.715Y-5.6512
X4.7209Y-1.3712
X4.7209Y-1.5271
X4.7659Y-1.4491
X4.784Y-1.761
X4.784Y-2.7626
X4.784Y-3.0004
X4.784Y-4.002
X4.811Y-1.3712
X4.811Y-1.5271
X4.815Y-5.5512
X4.815Y-5.6512
X4.8561Y-1.4491
X4.884Y-1.761
X4.884Y-2.7626
X4.884Y-3.0004
X4.884Y-4.002
X4.9012Y-1.3712
X4.9012Y-1.5271
X4.915Y-5.5512
X4.915Y-5.6512
X4.9463Y-1.4491
X4.984Y-1.761
X4.984Y-2.7626
X4.984Y-3.0004
X4.984Y-4.002
X4.9913Y-1.3712
X4.9913Y-1.5271
X5.015Y-5.5512
X5.015Y-5.6512
X5.084Y-1.761
X5.084Y-2.7626
X5.084Y-3.0004
X5.084Y-4.002
X5.115Y-5.5512
X5.115Y-5.6512
X5.184Y-1.761
X5.184Y-2.7626
X5.184Y-3.0004
X5.184Y-4.002
X5.215Y-5.5512
X5.215Y-5.6512
X5.315Y-5.5512
X5.315Y-5.6512
T5
X1.9Y-5.5
X1.9Y-5.6299
X2.3Y-5.5
X2.3Y-5.6299
T6
X1.8898Y-1.3386
X5.5906Y-1.3386
T7
X4.3085Y-1.4464
X5.2927Y-1.4464
T0
M30
