M48
; DRILL file {KiCad (6.0.11)} date Sat Jul 15 17:39:45 2023
; FORMAT={-:-/ absolute / inch / decimal}
; #@! TF.CreationDate,2023-07-15T17:39:45-05:00
; #@! TF.GenerationSoftware,Kicad,Pcbnew,(6.0.11)
; #@! TF.FileFunction,Plated,1,2,PTH
FMAT,2
INCH
; #@! TA.AperFunction,Plated,PTH,ViaDrill
T1C0.0157
; #@! TA.AperFunction,Plated,PTH,ComponentDrill
T2C0.0315
; #@! TA.AperFunction,Plated,PTH,ComponentDrill
T3C0.0354
; #@! TA.AperFunction,Plated,PTH,ComponentDrill
T4C0.0394
; #@! TA.AperFunction,Plated,PTH,ComponentDrill
T5C0.0433
; #@! TA.AperFunction,Plated,PTH,ComponentDrill
T6C0.0866
; #@! TA.AperFunction,Plated,PTH,ComponentDrill
T7C0.1260
%
G90
G05
T1
X2.05Y-1.9371
X2.1429Y-2.9933
X2.2032Y-2.4921
X2.2961Y-3.2712
X2.3032Y-3.1526
X2.3357Y-2.1868
X2.5077Y-3.13
X2.5458Y-2.7557
X2.5608Y-4.5557
X2.7555Y-4.7599
X2.7783Y-4.6451
X2.8108Y-2.4921
X2.8746Y-1.8241
X2.9493Y-4.3929
X2.965Y-3.0442
X2.9688Y-4.4486
X2.9793Y-3.6949
X3.1874Y-3.3226
X3.1874Y-3.8319
X3.2034Y-4.9831
X3.2581Y-4.4095
X3.296Y-2.6375
X3.3346Y-2.7116
X3.3821Y-4.7169
X3.4145Y-4.1481
X3.4155Y-3.5366
X3.4216Y-3.9576
X3.5174Y-3.0246
X3.5731Y-4.5045
X3.5771Y-2.9405
X3.5937Y-1.7156
X3.6366Y-3.0004
X3.6386Y-2.4541
X3.6506Y-3.4744
X3.6639Y-3.7835
X3.6868Y-2.4249
X3.7314Y-3.2023
X3.7328Y-3.6331
X3.7618Y-3.7225
X3.8417Y-4.0816
X3.8427Y-5.4675
X3.8749Y-5.1877
X3.8991Y-3.3234
X3.9384Y-5.1786
X3.9498Y-5.0925
X4.0088Y-4.9465
X4.0712Y-5.411
X4.3592Y-2.3568
X4.3919Y-3.0555
X4.3991Y-4.9737
X4.4144Y-5.1901
X4.4145Y-3.1545
X4.4446Y-2.3539
X4.4705Y-3.3394
X4.4785Y-3.2172
X4.52Y-3.144
X4.6824Y-2.0806
X4.764Y-4.2657
X4.8291Y-2.2268
X4.9567Y-2.8118
T2
X1.8504Y-1.7998
X1.8504Y-1.8998
X1.8504Y-1.9998
X1.8504Y-2.0998
X1.8504Y-2.1998
X1.8504Y-2.2998
X1.8504Y-2.3998
X1.8898Y-3.0506
X1.8898Y-3.1506
X1.8898Y-3.2506
X1.8898Y-3.3506
X1.8898Y-3.4506
X1.8898Y-3.5506
X1.8898Y-3.6506
X1.8898Y-3.7506
X1.8898Y-4.3701
X1.8898Y-4.4701
X1.8898Y-4.5701
X1.8898Y-4.6701
X1.8898Y-4.7701
X1.8898Y-4.8701
X1.8898Y-4.9701
X1.8898Y-5.0701
X1.9Y-1.6
X1.9409Y-2.8
X1.9409Y-4.1929
X2.0969Y-1.6
X2.1378Y-2.8
X2.1378Y-4.1929
X2.1504Y-1.7998
X2.1504Y-1.8998
X2.1504Y-1.9998
X2.1504Y-2.0998
X2.1504Y-2.1998
X2.1504Y-2.2998
X2.1504Y-2.3998
X2.1898Y-3.0506
X2.1898Y-3.1506
X2.1898Y-3.2506
X2.1898Y-3.3506
X2.1898Y-3.4506
X2.1898Y-3.5506
X2.1898Y-3.6506
X2.1898Y-3.7506
X2.1898Y-4.3701
X2.1898Y-4.4701
X2.1898Y-4.5701
X2.1898Y-4.6701
X2.1898Y-4.7701
X2.1898Y-4.8701
X2.1898Y-4.9701
X2.1898Y-5.0701
X2.2837Y-1.7998
X2.2837Y-1.8998
X2.2837Y-1.9998
X2.2837Y-2.0998
X2.2837Y-2.1998
X2.2837Y-2.2998
X2.2837Y-2.3998
X2.35Y-1.6
X2.3655Y-3.0506
X2.3655Y-3.1506
X2.3655Y-3.2506
X2.3655Y-3.3506
X2.3655Y-3.4506
X2.3655Y-3.5506
X2.3655Y-3.6506
X2.3655Y-3.7506
X2.3655Y-4.3701
X2.3655Y-4.4701
X2.3655Y-4.5701
X2.3655Y-4.6701
X2.3655Y-4.7701
X2.3655Y-4.8701
X2.3655Y-4.9701
X2.3655Y-5.0701
X2.4167Y-2.8
X2.4167Y-4.1929
X2.5026Y-5.525
X2.5837Y-1.7998
X2.5837Y-1.8998
X2.5837Y-1.9998
X2.5837Y-2.0998
X2.5837Y-2.1998
X2.5837Y-2.2998
X2.5837Y-2.3998
X2.601Y-5.525
X2.6135Y-2.8
X2.6135Y-4.1929
X2.65Y-1.6
X2.6655Y-3.0506
X2.6655Y-3.1506
X2.6655Y-3.2506
X2.6655Y-3.3506
X2.6655Y-3.4506
X2.6655Y-3.5506
X2.6655Y-3.6506
X2.6655Y-3.7506
X2.6655Y-4.3701
X2.6655Y-4.4701
X2.6655Y-4.5701
X2.6655Y-4.6701
X2.6655Y-4.7701
X2.6655Y-4.8701
X2.6655Y-4.9701
X2.6655Y-5.0701
X2.7171Y-1.7998
X2.7171Y-1.8998
X2.7171Y-1.9998
X2.7171Y-2.0998
X2.7171Y-2.1998
X2.7171Y-2.2998
X2.7171Y-2.3998
X2.8016Y-1.6
X2.8412Y-3.0506
X2.8412Y-3.1506
X2.8412Y-3.2506
X2.8412Y-3.3506
X2.8412Y-3.4506
X2.8412Y-3.5506
X2.8412Y-3.6506
X2.8504Y-4.3752
X2.8504Y-4.4752
X2.8504Y-4.5752
X2.8504Y-4.6752
X2.8504Y-4.7752
X2.8504Y-4.8752
X2.8504Y-4.9752
X2.8504Y-5.0752
X2.8504Y-5.1752
X2.8504Y-5.2752
X2.8924Y-2.8
X2.8924Y-4.1929
X2.9026Y-3.975
X2.9984Y-1.6
X3.001Y-3.975
X3.0171Y-1.7998
X3.0171Y-1.8998
X3.0171Y-1.9998
X3.0171Y-2.0998
X3.0171Y-2.1998
X3.0171Y-2.2998
X3.0171Y-2.3998
X3.0892Y-2.8
X3.0892Y-4.1929
X3.1412Y-3.0506
X3.1412Y-3.1506
X3.1412Y-3.2506
X3.1412Y-3.3506
X3.1412Y-3.4506
X3.1412Y-3.5506
X3.1412Y-3.6506
X3.1504Y-1.9248
X3.1504Y-2.0248
X3.1504Y-2.1248
X3.1504Y-2.2248
X3.1504Y-2.3248
X3.1504Y-2.4248
X3.1504Y-2.5248
X3.1504Y-4.3752
X3.1504Y-4.4752
X3.1504Y-4.5752
X3.1504Y-4.6752
X3.1504Y-4.7752
X3.1504Y-4.8752
X3.1504Y-4.9752
X3.1504Y-5.0752
X3.1504Y-5.1752
X3.1504Y-5.2752
X3.2276Y-1.625
X3.275Y-2.8
X3.3169Y-4.3701
X3.3169Y-4.4701
X3.3169Y-4.5701
X3.3169Y-4.6701
X3.3169Y-4.7701
X3.3169Y-4.8701
X3.3169Y-4.9701
X3.3169Y-5.0701
X3.3169Y-5.1701
X3.3169Y-5.2701
X3.326Y-1.625
X3.35Y-3.0744
X3.35Y-3.1744
X3.35Y-3.2744
X3.35Y-3.3744
X3.35Y-3.4744
X3.35Y-3.5744
X3.35Y-3.6744
X3.35Y-3.7744
X3.35Y-3.8744
X3.3681Y-4.1929
X3.4504Y-1.9248
X3.4504Y-2.0248
X3.4504Y-2.1248
X3.4504Y-2.2248
X3.4504Y-2.3248
X3.4504Y-2.4248
X3.4504Y-2.5248
X3.4719Y-2.8
X3.565Y-4.1929
X3.6169Y-4.3701
X3.6169Y-4.4701
X3.6169Y-4.5701
X3.6169Y-4.6701
X3.6169Y-4.7701
X3.6169Y-4.8701
X3.6169Y-4.9701
X3.6169Y-5.0701
X3.6169Y-5.1701
X3.6169Y-5.2701
X3.7926Y-4.3701
X3.7926Y-4.4701
X3.7926Y-4.5701
X3.7926Y-4.6701
X3.7926Y-4.7701
X3.7926Y-4.8701
X3.7926Y-4.9701
X3.7926Y-5.0701
X3.7926Y-5.1701
X3.7926Y-5.2701
X3.8438Y-4.2
X4.0407Y-4.2
X4.0926Y-4.3701
X4.0926Y-4.4701
X4.0926Y-4.5701
X4.0926Y-4.6701
X4.0926Y-4.7701
X4.0926Y-4.8701
X4.0926Y-4.9701
X4.0926Y-5.0701
X4.0926Y-5.1701
X4.0926Y-5.2701
X4.2Y-2.025
X4.2Y-2.2
X4.2Y-2.375
X4.2Y-2.55
X4.2684Y-4.3701
X4.2684Y-4.4701
X4.2684Y-4.5701
X4.2684Y-4.6701
X4.2684Y-4.7701
X4.2684Y-4.8701
X4.2684Y-4.9701
X4.2684Y-5.0701
X4.2684Y-5.1701
X4.2684Y-5.2701
X4.3196Y-4.2
X4.35Y-3.25
X4.35Y-3.425
X4.35Y-3.6
X4.35Y-3.775
X4.5Y-2.025
X4.5Y-2.2
X4.5Y-2.375
X4.5Y-2.55
X4.5164Y-4.2
X4.5684Y-4.3701
X4.5684Y-4.4701
X4.5684Y-4.5701
X4.5684Y-4.6701
X4.5684Y-4.7701
X4.5684Y-4.8701
X4.5684Y-4.9701
X4.5684Y-5.0701
X4.5684Y-5.1701
X4.5684Y-5.2701
X4.65Y-3.25
X4.65Y-3.425
X4.65Y-3.6
X4.65Y-3.775
X4.7441Y-4.3701
X4.7441Y-4.4701
X4.7441Y-4.5701
X4.7441Y-4.6701
X4.7441Y-4.7701
X4.7441Y-4.8701
X4.7441Y-4.9701
X4.7441Y-5.0701
X4.7441Y-5.1701
X4.7441Y-5.2701
X4.75Y-2.05
X4.7523Y-2.25
X4.7523Y-2.45
X4.7953Y-4.2
X4.875Y-3.25
X4.875Y-3.6
X4.9921Y-4.2
X5.0441Y-4.3701
X5.0441Y-4.4701
X5.0441Y-4.5701
X5.0441Y-4.6701
X5.0441Y-4.7701
X5.0441Y-4.8701
X5.0441Y-4.9701
X5.0441Y-5.0701
X5.0441Y-5.1701
X5.0441Y-5.2701
X5.05Y-2.05
X5.0523Y-2.25
X5.0523Y-2.45
X5.175Y-3.25
X5.175Y-3.6
X5.1772Y-4.3701
X5.1772Y-4.4701
X5.1772Y-4.5701
X5.1772Y-4.6701
X5.1772Y-4.7701
X5.1772Y-4.8701
X5.1772Y-4.9701
X5.1772Y-5.0701
X5.1772Y-5.1701
X5.2023Y-2.05
X5.2023Y-2.25
X5.2023Y-2.45
X5.315Y-4.4685
X5.315Y-4.5685
X5.315Y-4.6685
X5.315Y-4.7685
X5.315Y-4.8685
X5.315Y-4.9685
X5.315Y-5.0685
X5.315Y-5.1685
X5.5023Y-2.05
X5.5023Y-2.25
X5.5023Y-2.45
X5.615Y-4.4685
X5.615Y-4.5685
X5.615Y-4.6685
X5.615Y-4.7685
X5.615Y-4.8685
X5.615Y-4.9685
X5.615Y-5.0685
X5.615Y-5.1685
T3
X2.0654Y-1.3587
X2.1654Y-1.3587
T4
X2.4394Y-1.3306
X2.5394Y-1.3306
X2.6394Y-1.3306
X2.915Y-5.5512
X2.915Y-5.6512
X2.9156Y-1.3306
X3.015Y-5.5512
X3.015Y-5.6512
X3.0156Y-1.3306
X3.115Y-5.5512
X3.115Y-5.6512
X3.1156Y-1.3306
X3.215Y-5.5512
X3.215Y-5.6512
X3.2998Y-1.3306
X3.315Y-5.5512
X3.315Y-5.6512
X3.3998Y-1.3306
X3.415Y-5.5512
X3.415Y-5.6512
X3.515Y-5.5512
X3.515Y-5.6512
X3.615Y-5.5512
X3.615Y-5.6512
X3.6396Y-1.331
X3.6396Y-1.431
X3.715Y-5.5512
X3.715Y-5.6512
X3.7396Y-1.331
X3.7396Y-1.431
X3.784Y-1.761
X3.784Y-2.7626
X3.784Y-3.0004
X3.784Y-4.002
X3.815Y-5.5512
X3.815Y-5.6512
X3.8396Y-1.331
X3.8396Y-1.431
X3.884Y-1.761
X3.884Y-2.7626
X3.884Y-3.0004
X3.884Y-4.002
X3.915Y-5.5512
X3.915Y-5.6512
X3.9396Y-1.331
X3.9396Y-1.431
X3.984Y-1.761
X3.984Y-2.7626
X3.984Y-3.0004
X3.984Y-4.002
X4.015Y-5.5512
X4.015Y-5.6512
X4.0396Y-1.331
X4.0396Y-1.431
X4.084Y-1.761
X4.084Y-2.7626
X4.084Y-3.0004
X4.084Y-4.002
X4.115Y-5.5512
X4.115Y-5.6512
X4.184Y-1.761
X4.184Y-2.7626
X4.184Y-3.0004
X4.184Y-4.002
X4.215Y-5.5512
X4.215Y-5.6512
X4.284Y-1.761
X4.284Y-2.7626
X4.284Y-3.0004
X4.284Y-4.002
X4.315Y-5.5512
X4.315Y-5.6512
X4.384Y-1.761
X4.384Y-2.7626
X4.384Y-3.0004
X4.384Y-4.002
X4.415Y-5.5512
X4.415Y-5.6512
X4.484Y-1.761
X4.484Y-2.7626
X4.484Y-3.0004
X4.484Y-4.002
X4.515Y-5.5512
X4.515Y-5.6512
X4.584Y-1.761
X4.584Y-2.7626
X4.584Y-3.0004
X4.584Y-4.002
X4.5856Y-1.4491
X4.615Y-5.5512
X4.615Y-5.6512
X4.6307Y-1.3712
X4.6307Y-1.5271
X4.6758Y-1.4491
X4.684Y-1.761
X4.684Y-2.7626
X4.684Y-3.0004
X4.684Y-4.002
X4.715Y-5.5512
X4.715Y-5.6512
X4.7209Y-1.3712
X4.7209Y-1.5271
X4.7659Y-1.4491
X4.784Y-1.761
X4.784Y-2.7626
X4.784Y-3.0004
X4.784Y-4.002
X4.811Y-1.3712
X4.811Y-1.5271
X4.815Y-5.5512
X4.815Y-5.6512
X4.8561Y-1.4491
X4.884Y-1.761
X4.884Y-2.7626
X4.884Y-3.0004
X4.884Y-4.002
X4.9012Y-1.3712
X4.9012Y-1.5271
X4.915Y-5.5512
X4.915Y-5.6512
X4.9463Y-1.4491
X4.984Y-1.761
X4.984Y-2.7626
X4.984Y-3.0004
X4.984Y-4.002
X4.9913Y-1.3712
X4.9913Y-1.5271
X5.015Y-5.5512
X5.015Y-5.6512
X5.084Y-1.761
X5.084Y-2.7626
X5.084Y-3.0004
X5.084Y-4.002
X5.115Y-5.5512
X5.115Y-5.6512
X5.184Y-1.761
X5.184Y-2.7626
X5.184Y-3.0004
X5.184Y-4.002
X5.215Y-5.5512
X5.215Y-5.6512
X5.315Y-5.5512
X5.315Y-5.6512
T5
X1.9Y-5.5
X1.9Y-5.6299
X2.3Y-5.5
X2.3Y-5.6299
T6
X1.8898Y-1.3386
X5.5906Y-1.3386
T7
X4.3085Y-1.4464
X5.2927Y-1.4464
T0
M30
