%TF.GenerationSoftware,KiCad,Pcbnew,(6.0.11)*%
%TF.CreationDate,2023-06-19T11:30:49-05:00*%
%TF.ProjectId,Z80ESP,5a383045-5350-42e6-9b69-6361645f7063,V0.5*%
%TF.SameCoordinates,Original*%
%TF.FileFunction,Drillmap*%
%TF.FilePolarity,Positive*%
%FSLAX45Y45*%
G04 Gerber Fmt 4.5, Leading zero omitted, Abs format (unit mm)*
G04 Created by KiCad (PCBNEW (6.0.11)) date 2023-06-19 11:30:49*
%MOMM*%
%LPD*%
G01*
G04 APERTURE LIST*
%ADD10C,0.150000*%
%ADD11C,0.200000*%
G04 APERTURE END LIST*
D10*
X14500000Y-3100000D02*
X4500000Y-3100000D01*
X14500000Y-14600000D02*
X14500000Y-3100000D01*
X4500000Y-3100000D02*
X4500000Y-14600000D01*
X4500000Y-14600000D02*
X14500000Y-14600000D01*
D11*
X4750119Y-14917976D02*
X4750119Y-14717976D01*
X4797738Y-14717976D01*
X4826310Y-14727500D01*
X4845357Y-14746548D01*
X4854881Y-14765595D01*
X4864405Y-14803690D01*
X4864405Y-14832262D01*
X4854881Y-14870357D01*
X4845357Y-14889405D01*
X4826310Y-14908452D01*
X4797738Y-14917976D01*
X4750119Y-14917976D01*
X4950119Y-14917976D02*
X4950119Y-14784643D01*
X4950119Y-14822738D02*
X4959643Y-14803690D01*
X4969167Y-14794167D01*
X4988214Y-14784643D01*
X5007262Y-14784643D01*
X5073929Y-14917976D02*
X5073929Y-14784643D01*
X5073929Y-14717976D02*
X5064405Y-14727500D01*
X5073929Y-14737024D01*
X5083452Y-14727500D01*
X5073929Y-14717976D01*
X5073929Y-14737024D01*
X5197738Y-14917976D02*
X5178690Y-14908452D01*
X5169167Y-14889405D01*
X5169167Y-14717976D01*
X5302500Y-14917976D02*
X5283452Y-14908452D01*
X5273929Y-14889405D01*
X5273929Y-14717976D01*
X5531071Y-14917976D02*
X5531071Y-14717976D01*
X5597738Y-14860833D01*
X5664405Y-14717976D01*
X5664405Y-14917976D01*
X5845357Y-14917976D02*
X5845357Y-14813214D01*
X5835833Y-14794167D01*
X5816786Y-14784643D01*
X5778690Y-14784643D01*
X5759643Y-14794167D01*
X5845357Y-14908452D02*
X5826309Y-14917976D01*
X5778690Y-14917976D01*
X5759643Y-14908452D01*
X5750119Y-14889405D01*
X5750119Y-14870357D01*
X5759643Y-14851309D01*
X5778690Y-14841786D01*
X5826309Y-14841786D01*
X5845357Y-14832262D01*
X5940595Y-14784643D02*
X5940595Y-14984643D01*
X5940595Y-14794167D02*
X5959643Y-14784643D01*
X5997738Y-14784643D01*
X6016786Y-14794167D01*
X6026309Y-14803690D01*
X6035833Y-14822738D01*
X6035833Y-14879881D01*
X6026309Y-14898928D01*
X6016786Y-14908452D01*
X5997738Y-14917976D01*
X5959643Y-14917976D01*
X5940595Y-14908452D01*
X6121548Y-14898928D02*
X6131071Y-14908452D01*
X6121548Y-14917976D01*
X6112024Y-14908452D01*
X6121548Y-14898928D01*
X6121548Y-14917976D01*
X6121548Y-14794167D02*
X6131071Y-14803690D01*
X6121548Y-14813214D01*
X6112024Y-14803690D01*
X6121548Y-14794167D01*
X6121548Y-14813214D01*
M02*
