M48
; DRILL file {KiCad (6.0.11)} date Sun Jun 18 19:58:37 2023
; FORMAT={-:-/ absolute / inch / decimal}
; #@! TF.CreationDate,2023-06-18T19:58:37-05:00
; #@! TF.GenerationSoftware,Kicad,Pcbnew,(6.0.11)
; #@! TF.FileFunction,Plated,1,2,PTH
FMAT,2
INCH
; #@! TA.AperFunction,Plated,PTH,ViaDrill
T1C0.0157
; #@! TA.AperFunction,Plated,PTH,ComponentDrill
T2C0.0315
; #@! TA.AperFunction,Plated,PTH,ComponentDrill
T3C0.0354
; #@! TA.AperFunction,Plated,PTH,ComponentDrill
T4C0.0394
; #@! TA.AperFunction,Plated,PTH,ComponentDrill
T5C0.0433
; #@! TA.AperFunction,Plated,PTH,ComponentDrill
T6C0.0866
; #@! TA.AperFunction,Plated,PTH,ComponentDrill
T7C0.1260
%
G90
G05
T1
X1.8194Y-4.5409
X2.0452Y-4.4201
X2.1369Y-4.5196
X2.2576Y-4.2881
X2.2822Y-5.304
X2.2823Y-2.3141
X2.304Y-3.2083
X2.3216Y-5.3127
X2.3276Y-4.7085
X2.4105Y-5.3816
X2.4196Y-2.4238
X2.4379Y-5.1818
X2.5317Y-3.0169
X2.5979Y-4.3143
X2.607Y-4.9807
X2.7133Y-3.8331
X2.75Y-4.5309
X2.8522Y-2.9221
X2.8654Y-1.8338
X2.9358Y-4.7376
X2.9932Y-4.3663
X3.0299Y-3.0893
X3.0972Y-4.5252
X3.1528Y-3.7139
X3.166Y-2.0263
X3.2589Y-3.9065
X3.4781Y-3.3658
X3.4826Y-3.4546
X3.4999Y-3.0841
X3.5053Y-3.5698
X3.5275Y-4.362
X3.5706Y-3.6329
X3.6067Y-3.8021
X3.6299Y-4.1136
X3.7207Y-5.3808
X3.7224Y-4.5053
X3.84Y-5.37
X3.8641Y-2.0959
X3.901Y-3.6189
X3.932Y-3.5833
X3.9411Y-5.3999
X4.02Y-4.7393
X4.0421Y-4.4214
X4.1989Y-4.3314
X4.3144Y-5.7101
X4.356Y-5.0185
X4.4377Y-1.8151
X4.4534Y-5.3461
X4.5416Y-3.0908
X4.6663Y-3.0547
X4.8685Y-5.3532
X5.108Y-4.9038
X5.2458Y-4.6274
T2
X1.8504Y-1.7998
X1.8504Y-1.8998
X1.8504Y-1.9998
X1.8504Y-2.0998
X1.8504Y-2.1998
X1.8504Y-2.2998
X1.8504Y-2.3998
X1.8898Y-3.0506
X1.8898Y-3.1506
X1.8898Y-3.2506
X1.8898Y-3.3506
X1.8898Y-3.4506
X1.8898Y-3.5506
X1.8898Y-3.6506
X1.8898Y-3.7506
X1.8898Y-4.3701
X1.8898Y-4.4701
X1.8898Y-4.5701
X1.8898Y-4.6701
X1.8898Y-4.7701
X1.8898Y-4.8701
X1.8898Y-4.9701
X1.8898Y-5.0701
X1.9Y-1.6
X1.9409Y-2.8
X1.9409Y-4.1929
X2.0969Y-1.6
X2.1378Y-2.8
X2.1378Y-4.1929
X2.1504Y-1.7998
X2.1504Y-1.8998
X2.1504Y-1.9998
X2.1504Y-2.0998
X2.1504Y-2.1998
X2.1504Y-2.2998
X2.1504Y-2.3998
X2.1898Y-3.0506
X2.1898Y-3.1506
X2.1898Y-3.2506
X2.1898Y-3.3506
X2.1898Y-3.4506
X2.1898Y-3.5506
X2.1898Y-3.6506
X2.1898Y-3.7506
X2.1898Y-4.3701
X2.1898Y-4.4701
X2.1898Y-4.5701
X2.1898Y-4.6701
X2.1898Y-4.7701
X2.1898Y-4.8701
X2.1898Y-4.9701
X2.1898Y-5.0701
X2.3477Y-2.1
X2.35Y-1.6
X2.35Y-2.3
X2.35Y-2.5
X2.3655Y-3.0506
X2.3655Y-3.1506
X2.3655Y-3.2506
X2.3655Y-3.3506
X2.3655Y-3.4506
X2.3655Y-3.5506
X2.3655Y-3.6506
X2.3655Y-3.7506
X2.3655Y-4.3701
X2.3655Y-4.4701
X2.3655Y-4.5701
X2.3655Y-4.6701
X2.3655Y-4.7701
X2.3655Y-4.8701
X2.3655Y-4.9701
X2.3655Y-5.0701
X2.4167Y-2.8
X2.4167Y-4.1929
X2.5295Y-5.6102
X2.6031Y-5.3
X2.6135Y-2.8
X2.6135Y-4.1929
X2.628Y-5.6102
X2.6477Y-2.1
X2.65Y-1.6
X2.65Y-2.3
X2.65Y-2.5
X2.6655Y-3.0506
X2.6655Y-3.1506
X2.6655Y-3.2506
X2.6655Y-3.3506
X2.6655Y-3.4506
X2.6655Y-3.5506
X2.6655Y-3.6506
X2.6655Y-3.7506
X2.6655Y-4.3701
X2.6655Y-4.4701
X2.6655Y-4.5701
X2.6655Y-4.6701
X2.6655Y-4.7701
X2.6655Y-4.8701
X2.6655Y-4.9701
X2.6655Y-5.0701
X2.8Y-2.1
X2.8Y-2.3
X2.8Y-2.5
X2.8Y-5.3
X2.8412Y-3.0506
X2.8412Y-3.1506
X2.8412Y-3.2506
X2.8412Y-3.3506
X2.8412Y-3.4506
X2.8412Y-3.5506
X2.8412Y-3.6506
X2.8412Y-4.3701
X2.8412Y-4.4701
X2.8412Y-4.5701
X2.8412Y-4.6701
X2.8412Y-4.7701
X2.8412Y-4.8701
X2.8412Y-4.9701
X2.8924Y-2.8
X2.8924Y-4.1929
X2.9386Y-1.7
X3.037Y-1.7
X3.0892Y-2.8
X3.0892Y-4.1929
X3.1Y-2.1
X3.1Y-2.3
X3.1Y-2.5
X3.1412Y-3.0506
X3.1412Y-3.1506
X3.1412Y-3.2506
X3.1412Y-3.3506
X3.1412Y-3.4506
X3.1412Y-3.5506
X3.1412Y-3.6506
X3.1412Y-4.3701
X3.1412Y-4.4701
X3.1412Y-4.5701
X3.1412Y-4.6701
X3.1412Y-4.7701
X3.1412Y-4.8701
X3.1412Y-4.9701
X3.3169Y-4.3701
X3.3169Y-4.4701
X3.3169Y-4.5701
X3.3169Y-4.6701
X3.3169Y-4.7701
X3.3169Y-4.8701
X3.3169Y-4.9701
X3.3169Y-5.0701
X3.3169Y-5.1701
X3.3169Y-5.2701
X3.3681Y-4.1929
X3.565Y-4.1929
X3.6169Y-4.3701
X3.6169Y-4.4701
X3.6169Y-4.5701
X3.6169Y-4.6701
X3.6169Y-4.7701
X3.6169Y-4.8701
X3.6169Y-4.9701
X3.6169Y-5.0701
X3.6169Y-5.1701
X3.6169Y-5.2701
X3.7926Y-4.3701
X3.7926Y-4.4701
X3.7926Y-4.5701
X3.7926Y-4.6701
X3.7926Y-4.7701
X3.7926Y-4.8701
X3.7926Y-4.9701
X3.7926Y-5.0701
X3.7926Y-5.1701
X3.7926Y-5.2701
X3.8438Y-4.2
X4.0407Y-4.2
X4.0926Y-4.3701
X4.0926Y-4.4701
X4.0926Y-4.5701
X4.0926Y-4.6701
X4.0926Y-4.7701
X4.0926Y-4.8701
X4.0926Y-4.9701
X4.0926Y-5.0701
X4.0926Y-5.1701
X4.0926Y-5.2701
X4.2684Y-4.3701
X4.2684Y-4.4701
X4.2684Y-4.5701
X4.2684Y-4.6701
X4.2684Y-4.7701
X4.2684Y-4.8701
X4.2684Y-4.9701
X4.2684Y-5.0701
X4.2684Y-5.1701
X4.2684Y-5.2701
X4.3196Y-4.2
X4.5164Y-4.2
X4.5684Y-4.3701
X4.5684Y-4.4701
X4.5684Y-4.5701
X4.5684Y-4.6701
X4.5684Y-4.7701
X4.5684Y-4.8701
X4.5684Y-4.9701
X4.5684Y-5.0701
X4.5684Y-5.1701
X4.5684Y-5.2701
X4.7441Y-4.3701
X4.7441Y-4.4701
X4.7441Y-4.5701
X4.7441Y-4.6701
X4.7441Y-4.7701
X4.7441Y-4.8701
X4.7441Y-4.9701
X4.7441Y-5.0701
X4.7441Y-5.1701
X4.7441Y-5.2701
X4.7953Y-4.2
X4.9921Y-4.2
X5.0441Y-4.3701
X5.0441Y-4.4701
X5.0441Y-4.5701
X5.0441Y-4.6701
X5.0441Y-4.7701
X5.0441Y-4.8701
X5.0441Y-4.9701
X5.0441Y-5.0701
X5.0441Y-5.1701
X5.0441Y-5.2701
X5.1772Y-4.3701
X5.1772Y-4.4701
X5.1772Y-4.5701
X5.1772Y-4.6701
X5.1772Y-4.7701
X5.1772Y-4.8701
X5.1772Y-4.9701
X5.1772Y-5.0701
X5.1772Y-5.1701
X5.315Y-4.4685
X5.315Y-4.5685
X5.315Y-4.6685
X5.315Y-4.7685
X5.315Y-4.8685
X5.315Y-4.9685
X5.315Y-5.0685
X5.315Y-5.1685
X5.615Y-4.4685
X5.615Y-4.5685
X5.615Y-4.6685
X5.615Y-4.7685
X5.615Y-4.8685
X5.615Y-4.9685
X5.615Y-5.0685
X5.615Y-5.1685
T3
X2.0654Y-1.3587
X2.1654Y-1.3587
T4
X2.4394Y-1.3306
X2.5394Y-1.3306
X2.6394Y-1.3306
X2.915Y-5.5512
X2.915Y-5.6512
X2.9156Y-1.3306
X3.015Y-5.5512
X3.015Y-5.6512
X3.0156Y-1.3306
X3.115Y-5.5512
X3.115Y-5.6512
X3.1156Y-1.3306
X3.215Y-5.5512
X3.215Y-5.6512
X3.2998Y-1.3306
X3.315Y-5.5512
X3.315Y-5.6512
X3.3998Y-1.3306
X3.415Y-5.5512
X3.415Y-5.6512
X3.515Y-5.5512
X3.515Y-5.6512
X3.584Y-1.761
X3.584Y-2.7626
X3.584Y-3.0004
X3.584Y-4.002
X3.615Y-5.5512
X3.615Y-5.6512
X3.6396Y-1.331
X3.6396Y-1.431
X3.684Y-1.761
X3.684Y-2.7626
X3.684Y-3.0004
X3.684Y-4.002
X3.715Y-5.5512
X3.715Y-5.6512
X3.7396Y-1.331
X3.7396Y-1.431
X3.784Y-1.761
X3.784Y-2.7626
X3.784Y-3.0004
X3.784Y-4.002
X3.815Y-5.5512
X3.815Y-5.6512
X3.8396Y-1.331
X3.8396Y-1.431
X3.884Y-1.761
X3.884Y-2.7626
X3.884Y-3.0004
X3.884Y-4.002
X3.915Y-5.5512
X3.915Y-5.6512
X3.9396Y-1.331
X3.9396Y-1.431
X3.984Y-1.761
X3.984Y-2.7626
X3.984Y-3.0004
X3.984Y-4.002
X4.015Y-5.5512
X4.015Y-5.6512
X4.0396Y-1.331
X4.0396Y-1.431
X4.084Y-1.761
X4.084Y-2.7626
X4.084Y-3.0004
X4.084Y-4.002
X4.115Y-5.5512
X4.115Y-5.6512
X4.184Y-1.761
X4.184Y-2.7626
X4.184Y-3.0004
X4.184Y-4.002
X4.215Y-5.5512
X4.215Y-5.6512
X4.284Y-1.761
X4.284Y-2.7626
X4.284Y-3.0004
X4.284Y-4.002
X4.315Y-5.5512
X4.315Y-5.6512
X4.384Y-1.761
X4.384Y-2.7626
X4.384Y-3.0004
X4.384Y-4.002
X4.415Y-5.5512
X4.415Y-5.6512
X4.484Y-1.761
X4.484Y-2.7626
X4.484Y-3.0004
X4.484Y-4.002
X4.515Y-5.5512
X4.515Y-5.6512
X4.584Y-1.761
X4.584Y-2.7626
X4.584Y-3.0004
X4.584Y-4.002
X4.5856Y-1.4491
X4.615Y-5.5512
X4.615Y-5.6512
X4.6307Y-1.3712
X4.6307Y-1.5271
X4.6758Y-1.4491
X4.684Y-1.761
X4.684Y-2.7626
X4.684Y-3.0004
X4.684Y-4.002
X4.715Y-5.5512
X4.715Y-5.6512
X4.7209Y-1.3712
X4.7209Y-1.5271
X4.7659Y-1.4491
X4.784Y-1.761
X4.784Y-2.7626
X4.784Y-3.0004
X4.784Y-4.002
X4.811Y-1.3712
X4.811Y-1.5271
X4.815Y-5.5512
X4.815Y-5.6512
X4.8561Y-1.4491
X4.884Y-1.761
X4.884Y-2.7626
X4.884Y-3.0004
X4.884Y-4.002
X4.9012Y-1.3712
X4.9012Y-1.5271
X4.915Y-5.5512
X4.915Y-5.6512
X4.9463Y-1.4491
X4.984Y-1.761
X4.984Y-2.7626
X4.984Y-3.0004
X4.984Y-4.002
X4.9913Y-1.3712
X4.9913Y-1.5271
X5.015Y-5.5512
X5.015Y-5.6512
X5.115Y-5.5512
X5.115Y-5.6512
X5.215Y-5.5512
X5.215Y-5.6512
X5.315Y-5.5512
X5.315Y-5.6512
T5
X1.9Y-5.5
X1.9Y-5.6299
X2.3Y-5.5
X2.3Y-5.6299
T6
X1.8898Y-1.3386
X5.5906Y-1.3386
T7
X4.3085Y-1.4464
X5.2927Y-1.4464
T0
M30
