M48
; DRILL file {KiCad (6.0.11)} date Sat Jun 24 19:35:40 2023
; FORMAT={-:-/ absolute / inch / decimal}
; #@! TF.CreationDate,2023-06-24T19:35:40-05:00
; #@! TF.GenerationSoftware,Kicad,Pcbnew,(6.0.11)
; #@! TF.FileFunction,Plated,1,2,PTH
FMAT,2
INCH
; #@! TA.AperFunction,Plated,PTH,ViaDrill
T1C0.0157
; #@! TA.AperFunction,Plated,PTH,ComponentDrill
T2C0.0315
; #@! TA.AperFunction,Plated,PTH,ComponentDrill
T3C0.0354
; #@! TA.AperFunction,Plated,PTH,ComponentDrill
T4C0.0394
; #@! TA.AperFunction,Plated,PTH,ComponentDrill
T5C0.0433
; #@! TA.AperFunction,Plated,PTH,ComponentDrill
T6C0.0866
; #@! TA.AperFunction,Plated,PTH,ComponentDrill
T7C0.1260
%
G90
G05
T1
X1.9272Y-1.8998
X1.9605Y-3.3831
X1.9793Y-4.887
X2.0578Y-1.9924
X2.0821Y-3.3407
X2.2026Y-2.2869
X2.2745Y-4.771
X2.2821Y-4.2704
X2.2844Y-4.7176
X2.3099Y-4.5903
X2.4059Y-2.0998
X2.4066Y-3.2881
X2.4286Y-5.1352
X2.4306Y-2.1998
X2.4537Y-3.0891
X2.4787Y-4.5654
X2.5088Y-4.7328
X2.532Y-4.1006
X2.5451Y-2.9683
X2.5615Y-4.7285
X2.5653Y-4.0809
X2.7035Y-3.8515
X2.7223Y-4.5222
X2.7342Y-4.8211
X2.735Y-4.6157
X2.7655Y-3.336
X2.8542Y-1.7063
X2.9372Y-4.6456
X2.9477Y-3.15
X2.9568Y-2.2026
X2.9673Y-4.4752
X2.9723Y-3.2506
X2.9739Y-5.216
X2.9768Y-3.5667
X3.1275Y-4.6252
X3.1345Y-2.6965
X3.1744Y-2.7007
X3.2019Y-3.0972
X3.2283Y-3.9276
X3.2618Y-2.5441
X3.2864Y-2.3425
X3.3337Y-4.0515
X3.3379Y-2.7617
X3.3624Y-2.4393
X3.3681Y-4.287
X3.3724Y-1.4659
X3.4093Y-4.4951
X3.4256Y-2.9807
X3.4346Y-5.0901
X3.4562Y-4.9053
X3.5178Y-2.9503
X3.5183Y-4.7832
X3.5429Y-4.8156
X3.5595Y-5.3962
X3.6045Y-2.4376
X3.6526Y-2.0615
X3.6529Y-1.9728
X3.6793Y-1.7314
X3.6802Y-2.1276
X3.6876Y-4.2698
X3.6884Y-5.4256
X3.7131Y-5.4553
X3.7394Y-1.6157
X3.7543Y-5.5081
X3.7822Y-3.5542
X3.7982Y-3.2516
X3.8097Y-5.4728
X3.8171Y-4.271
X3.82Y-4.5151
X3.8868Y-1.527
X3.8992Y-4.6672
X3.9107Y-4.4232
X3.963Y-4.6258
X3.9863Y-5.3282
X4.0006Y-1.951
X4.0038Y-3.7001
X4.021Y-5.372
X4.0352Y-5.1212
X4.0515Y-3.4107
X4.0599Y-3.0965
X4.1071Y-3.4186
X4.1617Y-4.9739
X4.1627Y-3.1158
X4.1816Y-4.3108
X4.1831Y-4.386
X4.1978Y-5.009
X4.2431Y-4.1407
X4.2521Y-3.4265
X4.2796Y-3.1415
X4.3159Y-4.2706
X4.3331Y-1.8104
X4.3847Y-2.6905
X4.4138Y-2.3269
X4.5372Y-3.1717
X4.6197Y-1.9826
X4.6331Y-3.0516
X4.6341Y-4.6228
X4.6889Y-4.9567
X4.7534Y-2.8121
X4.7938Y-5.0168
X4.7974Y-4.9818
X4.8147Y-4.8681
X4.8504Y-5.3153
X4.9175Y-2.2247
X4.9499Y-5.3726
X5.0632Y-4.2144
X5.3496Y-4.9156
X5.4754Y-5.0237
T2
X1.8504Y-1.7998
X1.8504Y-1.8998
X1.8504Y-1.9998
X1.8504Y-2.0998
X1.8504Y-2.1998
X1.8504Y-2.2998
X1.8504Y-2.3998
X1.8898Y-3.0506
X1.8898Y-3.1506
X1.8898Y-3.2506
X1.8898Y-3.3506
X1.8898Y-3.4506
X1.8898Y-3.5506
X1.8898Y-3.6506
X1.8898Y-3.7506
X1.8898Y-4.3701
X1.8898Y-4.4701
X1.8898Y-4.5701
X1.8898Y-4.6701
X1.8898Y-4.7701
X1.8898Y-4.8701
X1.8898Y-4.9701
X1.8898Y-5.0701
X1.9Y-1.6
X1.9409Y-2.8
X1.9409Y-4.1929
X2.0969Y-1.6
X2.1378Y-2.8
X2.1378Y-4.1929
X2.1504Y-1.7998
X2.1504Y-1.8998
X2.1504Y-1.9998
X2.1504Y-2.0998
X2.1504Y-2.1998
X2.1504Y-2.2998
X2.1504Y-2.3998
X2.1898Y-3.0506
X2.1898Y-3.1506
X2.1898Y-3.2506
X2.1898Y-3.3506
X2.1898Y-3.4506
X2.1898Y-3.5506
X2.1898Y-3.6506
X2.1898Y-3.7506
X2.1898Y-4.3701
X2.1898Y-4.4701
X2.1898Y-4.5701
X2.1898Y-4.6701
X2.1898Y-4.7701
X2.1898Y-4.8701
X2.1898Y-4.9701
X2.1898Y-5.0701
X2.2837Y-1.7998
X2.2837Y-1.8998
X2.2837Y-1.9998
X2.2837Y-2.0998
X2.2837Y-2.1998
X2.2837Y-2.2998
X2.2837Y-2.3998
X2.35Y-1.6
X2.3655Y-3.0506
X2.3655Y-3.1506
X2.3655Y-3.2506
X2.3655Y-3.3506
X2.3655Y-3.4506
X2.3655Y-3.5506
X2.3655Y-3.6506
X2.3655Y-3.7506
X2.3655Y-4.3701
X2.3655Y-4.4701
X2.3655Y-4.5701
X2.3655Y-4.6701
X2.3655Y-4.7701
X2.3655Y-4.8701
X2.3655Y-4.9701
X2.3655Y-5.0701
X2.4167Y-2.8
X2.4167Y-4.1929
X2.5026Y-5.525
X2.5837Y-1.7998
X2.5837Y-1.8998
X2.5837Y-1.9998
X2.5837Y-2.0998
X2.5837Y-2.1998
X2.5837Y-2.2998
X2.5837Y-2.3998
X2.601Y-5.525
X2.6135Y-2.8
X2.6135Y-4.1929
X2.65Y-1.6
X2.6655Y-3.0506
X2.6655Y-3.1506
X2.6655Y-3.2506
X2.6655Y-3.3506
X2.6655Y-3.4506
X2.6655Y-3.5506
X2.6655Y-3.6506
X2.6655Y-3.7506
X2.6655Y-4.3701
X2.6655Y-4.4701
X2.6655Y-4.5701
X2.6655Y-4.6701
X2.6655Y-4.7701
X2.6655Y-4.8701
X2.6655Y-4.9701
X2.6655Y-5.0701
X2.7171Y-1.7998
X2.7171Y-1.8998
X2.7171Y-1.9998
X2.7171Y-2.0998
X2.7171Y-2.1998
X2.7171Y-2.2998
X2.7171Y-2.3998
X2.8016Y-1.6
X2.8412Y-3.0506
X2.8412Y-3.1506
X2.8412Y-3.2506
X2.8412Y-3.3506
X2.8412Y-3.4506
X2.8412Y-3.5506
X2.8412Y-3.6506
X2.8504Y-4.3752
X2.8504Y-4.4752
X2.8504Y-4.5752
X2.8504Y-4.6752
X2.8504Y-4.7752
X2.8504Y-4.8752
X2.8504Y-4.9752
X2.8504Y-5.0752
X2.8504Y-5.1752
X2.8504Y-5.2752
X2.8924Y-2.8
X2.8924Y-4.1929
X2.9026Y-3.975
X2.9984Y-1.6
X3.001Y-3.975
X3.0171Y-1.7998
X3.0171Y-1.8998
X3.0171Y-1.9998
X3.0171Y-2.0998
X3.0171Y-2.1998
X3.0171Y-2.2998
X3.0171Y-2.3998
X3.0892Y-2.8
X3.0892Y-4.1929
X3.1412Y-3.0506
X3.1412Y-3.1506
X3.1412Y-3.2506
X3.1412Y-3.3506
X3.1412Y-3.4506
X3.1412Y-3.5506
X3.1412Y-3.6506
X3.1504Y-1.9248
X3.1504Y-2.0248
X3.1504Y-2.1248
X3.1504Y-2.2248
X3.1504Y-2.3248
X3.1504Y-2.4248
X3.1504Y-2.5248
X3.1504Y-4.3752
X3.1504Y-4.4752
X3.1504Y-4.5752
X3.1504Y-4.6752
X3.1504Y-4.7752
X3.1504Y-4.8752
X3.1504Y-4.9752
X3.1504Y-5.0752
X3.1504Y-5.1752
X3.1504Y-5.2752
X3.2276Y-1.625
X3.275Y-2.8
X3.3169Y-4.3701
X3.3169Y-4.4701
X3.3169Y-4.5701
X3.3169Y-4.6701
X3.3169Y-4.7701
X3.3169Y-4.8701
X3.3169Y-4.9701
X3.3169Y-5.0701
X3.3169Y-5.1701
X3.3169Y-5.2701
X3.326Y-1.625
X3.35Y-3.0744
X3.35Y-3.1744
X3.35Y-3.2744
X3.35Y-3.3744
X3.35Y-3.4744
X3.35Y-3.5744
X3.35Y-3.6744
X3.35Y-3.7744
X3.35Y-3.8744
X3.3681Y-4.1929
X3.4504Y-1.9248
X3.4504Y-2.0248
X3.4504Y-2.1248
X3.4504Y-2.2248
X3.4504Y-2.3248
X3.4504Y-2.4248
X3.4504Y-2.5248
X3.4719Y-2.8
X3.565Y-4.1929
X3.6169Y-4.3701
X3.6169Y-4.4701
X3.6169Y-4.5701
X3.6169Y-4.6701
X3.6169Y-4.7701
X3.6169Y-4.8701
X3.6169Y-4.9701
X3.6169Y-5.0701
X3.6169Y-5.1701
X3.6169Y-5.2701
X3.7926Y-4.3701
X3.7926Y-4.4701
X3.7926Y-4.5701
X3.7926Y-4.6701
X3.7926Y-4.7701
X3.7926Y-4.8701
X3.7926Y-4.9701
X3.7926Y-5.0701
X3.7926Y-5.1701
X3.7926Y-5.2701
X3.8438Y-4.2
X4.0407Y-4.2
X4.0926Y-4.3701
X4.0926Y-4.4701
X4.0926Y-4.5701
X4.0926Y-4.6701
X4.0926Y-4.7701
X4.0926Y-4.8701
X4.0926Y-4.9701
X4.0926Y-5.0701
X4.0926Y-5.1701
X4.0926Y-5.2701
X4.2Y-2.025
X4.2Y-2.2
X4.2Y-2.375
X4.2Y-2.55
X4.2684Y-4.3701
X4.2684Y-4.4701
X4.2684Y-4.5701
X4.2684Y-4.6701
X4.2684Y-4.7701
X4.2684Y-4.8701
X4.2684Y-4.9701
X4.2684Y-5.0701
X4.2684Y-5.1701
X4.2684Y-5.2701
X4.3196Y-4.2
X4.35Y-3.25
X4.35Y-3.425
X4.35Y-3.6
X4.35Y-3.775
X4.5Y-2.025
X4.5Y-2.2
X4.5Y-2.375
X4.5Y-2.55
X4.5164Y-4.2
X4.5684Y-4.3701
X4.5684Y-4.4701
X4.5684Y-4.5701
X4.5684Y-4.6701
X4.5684Y-4.7701
X4.5684Y-4.8701
X4.5684Y-4.9701
X4.5684Y-5.0701
X4.5684Y-5.1701
X4.5684Y-5.2701
X4.65Y-3.25
X4.65Y-3.425
X4.65Y-3.6
X4.65Y-3.775
X4.7441Y-4.3701
X4.7441Y-4.4701
X4.7441Y-4.5701
X4.7441Y-4.6701
X4.7441Y-4.7701
X4.7441Y-4.8701
X4.7441Y-4.9701
X4.7441Y-5.0701
X4.7441Y-5.1701
X4.7441Y-5.2701
X4.75Y-2.05
X4.7523Y-2.25
X4.7523Y-2.45
X4.7953Y-4.2
X4.875Y-3.25
X4.875Y-3.6
X4.9921Y-4.2
X5.0441Y-4.3701
X5.0441Y-4.4701
X5.0441Y-4.5701
X5.0441Y-4.6701
X5.0441Y-4.7701
X5.0441Y-4.8701
X5.0441Y-4.9701
X5.0441Y-5.0701
X5.0441Y-5.1701
X5.0441Y-5.2701
X5.05Y-2.05
X5.0523Y-2.25
X5.0523Y-2.45
X5.175Y-3.25
X5.175Y-3.6
X5.1772Y-4.3701
X5.1772Y-4.4701
X5.1772Y-4.5701
X5.1772Y-4.6701
X5.1772Y-4.7701
X5.1772Y-4.8701
X5.1772Y-4.9701
X5.1772Y-5.0701
X5.1772Y-5.1701
X5.2023Y-2.05
X5.2023Y-2.25
X5.2023Y-2.45
X5.315Y-4.4685
X5.315Y-4.5685
X5.315Y-4.6685
X5.315Y-4.7685
X5.315Y-4.8685
X5.315Y-4.9685
X5.315Y-5.0685
X5.315Y-5.1685
X5.5023Y-2.05
X5.5023Y-2.25
X5.5023Y-2.45
X5.615Y-4.4685
X5.615Y-4.5685
X5.615Y-4.6685
X5.615Y-4.7685
X5.615Y-4.8685
X5.615Y-4.9685
X5.615Y-5.0685
X5.615Y-5.1685
T3
X2.0654Y-1.3587
X2.1654Y-1.3587
T4
X2.4394Y-1.3306
X2.5394Y-1.3306
X2.6394Y-1.3306
X2.915Y-5.5512
X2.915Y-5.6512
X2.9156Y-1.3306
X3.015Y-5.5512
X3.015Y-5.6512
X3.0156Y-1.3306
X3.115Y-5.5512
X3.115Y-5.6512
X3.1156Y-1.3306
X3.215Y-5.5512
X3.215Y-5.6512
X3.2998Y-1.3306
X3.315Y-5.5512
X3.315Y-5.6512
X3.3998Y-1.3306
X3.415Y-5.5512
X3.415Y-5.6512
X3.515Y-5.5512
X3.515Y-5.6512
X3.615Y-5.5512
X3.615Y-5.6512
X3.6396Y-1.331
X3.6396Y-1.431
X3.715Y-5.5512
X3.715Y-5.6512
X3.7396Y-1.331
X3.7396Y-1.431
X3.784Y-1.761
X3.784Y-2.7626
X3.784Y-3.0004
X3.784Y-4.002
X3.815Y-5.5512
X3.815Y-5.6512
X3.8396Y-1.331
X3.8396Y-1.431
X3.884Y-1.761
X3.884Y-2.7626
X3.884Y-3.0004
X3.884Y-4.002
X3.915Y-5.5512
X3.915Y-5.6512
X3.9396Y-1.331
X3.9396Y-1.431
X3.984Y-1.761
X3.984Y-2.7626
X3.984Y-3.0004
X3.984Y-4.002
X4.015Y-5.5512
X4.015Y-5.6512
X4.0396Y-1.331
X4.0396Y-1.431
X4.084Y-1.761
X4.084Y-2.7626
X4.084Y-3.0004
X4.084Y-4.002
X4.115Y-5.5512
X4.115Y-5.6512
X4.184Y-1.761
X4.184Y-2.7626
X4.184Y-3.0004
X4.184Y-4.002
X4.215Y-5.5512
X4.215Y-5.6512
X4.284Y-1.761
X4.284Y-2.7626
X4.284Y-3.0004
X4.284Y-4.002
X4.315Y-5.5512
X4.315Y-5.6512
X4.384Y-1.761
X4.384Y-2.7626
X4.384Y-3.0004
X4.384Y-4.002
X4.415Y-5.5512
X4.415Y-5.6512
X4.484Y-1.761
X4.484Y-2.7626
X4.484Y-3.0004
X4.484Y-4.002
X4.515Y-5.5512
X4.515Y-5.6512
X4.584Y-1.761
X4.584Y-2.7626
X4.584Y-3.0004
X4.584Y-4.002
X4.5856Y-1.4491
X4.615Y-5.5512
X4.615Y-5.6512
X4.6307Y-1.3712
X4.6307Y-1.5271
X4.6758Y-1.4491
X4.684Y-1.761
X4.684Y-2.7626
X4.684Y-3.0004
X4.684Y-4.002
X4.715Y-5.5512
X4.715Y-5.6512
X4.7209Y-1.3712
X4.7209Y-1.5271
X4.7659Y-1.4491
X4.784Y-1.761
X4.784Y-2.7626
X4.784Y-3.0004
X4.784Y-4.002
X4.811Y-1.3712
X4.811Y-1.5271
X4.815Y-5.5512
X4.815Y-5.6512
X4.8561Y-1.4491
X4.884Y-1.761
X4.884Y-2.7626
X4.884Y-3.0004
X4.884Y-4.002
X4.9012Y-1.3712
X4.9012Y-1.5271
X4.915Y-5.5512
X4.915Y-5.6512
X4.9463Y-1.4491
X4.984Y-1.761
X4.984Y-2.7626
X4.984Y-3.0004
X4.984Y-4.002
X4.9913Y-1.3712
X4.9913Y-1.5271
X5.015Y-5.5512
X5.015Y-5.6512
X5.084Y-1.761
X5.084Y-2.7626
X5.084Y-3.0004
X5.084Y-4.002
X5.115Y-5.5512
X5.115Y-5.6512
X5.184Y-1.761
X5.184Y-2.7626
X5.184Y-3.0004
X5.184Y-4.002
X5.215Y-5.5512
X5.215Y-5.6512
X5.315Y-5.5512
X5.315Y-5.6512
T5
X1.9Y-5.5
X1.9Y-5.6299
X2.3Y-5.5
X2.3Y-5.6299
T6
X1.8898Y-1.3386
X5.5906Y-1.3386
T7
X4.3085Y-1.4464
X5.2927Y-1.4464
T0
M30
