%TF.GenerationSoftware,KiCad,Pcbnew,(6.0.11)*%
%TF.CreationDate,2023-06-19T11:30:49-05:00*%
%TF.ProjectId,Z80ESP,5a383045-5350-42e6-9b69-6361645f7063,V0.5*%
%TF.SameCoordinates,Original*%
%TF.FileFunction,Drillmap*%
%TF.FilePolarity,Positive*%
%FSLAX45Y45*%
G04 Gerber Fmt 4.5, Leading zero omitted, Abs format (unit mm)*
G04 Created by KiCad (PCBNEW (6.0.11)) date 2023-06-19 11:30:49*
%MOMM*%
%LPD*%
G01*
G04 APERTURE LIST*
%ADD10C,0.150000*%
%ADD11C,0.200000*%
%ADD12C,0.040000*%
%ADD13C,0.080000*%
%ADD14C,0.090000*%
%ADD15C,0.100000*%
%ADD16C,0.110000*%
%ADD17C,0.220000*%
%ADD18C,0.320000*%
G04 APERTURE END LIST*
D10*
X14500000Y-3100000D02*
X4500000Y-3100000D01*
X14500000Y-14600000D02*
X14500000Y-3100000D01*
X4500000Y-3100000D02*
X4500000Y-14600000D01*
X4500000Y-14600000D02*
X14500000Y-14600000D01*
D11*
D12*
X4989970Y-10922690D02*
X5029970Y-10962690D01*
X5029970Y-10922690D02*
X4989970Y-10962690D01*
X5258240Y-8460500D02*
X5298240Y-8500500D01*
X5298240Y-8460500D02*
X5258240Y-8500500D01*
X5601710Y-5566080D02*
X5641710Y-5606080D01*
X5641710Y-5566080D02*
X5601710Y-5606080D01*
X5722550Y-11700620D02*
X5762550Y-11740620D01*
X5762550Y-11700620D02*
X5722550Y-11740620D01*
X5875580Y-13132760D02*
X5915580Y-13172760D01*
X5915580Y-13132760D02*
X5875580Y-13172760D01*
X5986850Y-14130570D02*
X6026850Y-14170570D01*
X6026850Y-14130570D02*
X5986850Y-14170570D01*
X6051710Y-5233370D02*
X6091710Y-5273370D01*
X6091710Y-5233370D02*
X6051710Y-5273370D01*
X6056680Y-13247760D02*
X6096680Y-13287760D01*
X6096680Y-13247760D02*
X6056680Y-13287760D01*
X6112840Y-11718850D02*
X6152840Y-11758850D01*
X6152840Y-11718850D02*
X6112840Y-11758850D01*
X6120210Y-14091040D02*
X6160210Y-14131040D01*
X6160210Y-14091040D02*
X6120210Y-14131040D01*
X6177230Y-11977830D02*
X6217230Y-12017830D01*
X6217230Y-11977830D02*
X6177230Y-12017830D01*
X6206850Y-14125350D02*
X6246850Y-14165350D01*
X6246850Y-14125350D02*
X6206850Y-14165350D01*
X6219970Y-14209800D02*
X6259970Y-14249800D01*
X6259970Y-14209800D02*
X6219970Y-14249800D01*
X6305880Y-5918260D02*
X6345880Y-5958260D01*
X6345880Y-5918260D02*
X6305880Y-5958260D01*
X6362850Y-13587430D02*
X6402850Y-13627430D01*
X6402850Y-13587430D02*
X6362850Y-13627430D01*
X6420290Y-8213400D02*
X6460290Y-8253400D01*
X6460290Y-8213400D02*
X6420290Y-8253400D01*
X6423040Y-10630000D02*
X6463040Y-10670000D01*
X6463040Y-10630000D02*
X6423040Y-10670000D01*
X6501400Y-7310780D02*
X6541400Y-7350780D01*
X6541400Y-7310780D02*
X6501400Y-7350780D01*
X6509480Y-8759600D02*
X6549480Y-8799600D01*
X6549480Y-8759600D02*
X6509480Y-8799600D01*
X6610790Y-10259240D02*
X6650790Y-10299240D01*
X6650790Y-10259240D02*
X6610790Y-10299240D01*
X6815050Y-7514880D02*
X6855050Y-7554880D01*
X6855050Y-7514880D02*
X6815050Y-7554880D01*
X6848390Y-11996840D02*
X6888390Y-12036840D01*
X6888390Y-11996840D02*
X6848390Y-12036840D01*
X6904030Y-11320780D02*
X6944030Y-11360780D01*
X6944030Y-11320780D02*
X6904030Y-11360780D01*
X6952230Y-7236590D02*
X6992230Y-7276590D01*
X6992230Y-7236590D02*
X6952230Y-7276590D01*
X7041810Y-12651520D02*
X7081810Y-12691520D01*
X7081810Y-12651520D02*
X7041810Y-12691520D01*
X7062470Y-11932640D02*
X7102470Y-11972640D01*
X7102470Y-11932640D02*
X7062470Y-11972640D01*
X7062470Y-12230450D02*
X7102470Y-12270450D01*
X7102470Y-12230450D02*
X7062470Y-12270450D01*
X7078880Y-5562970D02*
X7118880Y-5602970D01*
X7118880Y-5562970D02*
X7078880Y-5602970D01*
X7146390Y-10271840D02*
X7186390Y-10311840D01*
X7186390Y-10271840D02*
X7146390Y-10311840D01*
X7289200Y-13644360D02*
X7329200Y-13684360D01*
X7329200Y-13644360D02*
X7289200Y-13684360D01*
X7578510Y-7420760D02*
X7618510Y-7460760D01*
X7618510Y-7420760D02*
X7578510Y-7460760D01*
X7580140Y-13821750D02*
X7620140Y-13861750D01*
X7620140Y-13821750D02*
X7580140Y-13861750D01*
X7723070Y-9581130D02*
X7763070Y-9621130D01*
X7763070Y-9581130D02*
X7723070Y-9621130D01*
X7746360Y-13366220D02*
X7786360Y-13406220D01*
X7786360Y-13366220D02*
X7746360Y-13406220D01*
X7754800Y-11879690D02*
X7794800Y-11919690D01*
X7794800Y-11879690D02*
X7754800Y-11919690D01*
X7766920Y-10020970D02*
X7806920Y-10060970D01*
X7806920Y-10020970D02*
X7766920Y-10060970D01*
X7792070Y-7815910D02*
X7832070Y-7855910D01*
X7832070Y-7815910D02*
X7792070Y-7855910D01*
X7840720Y-11736700D02*
X7880720Y-11776700D01*
X7880720Y-11736700D02*
X7840720Y-11776700D01*
X7852620Y-11993270D02*
X7892620Y-12033270D01*
X7892620Y-11993270D02*
X7852620Y-12033270D01*
X7894650Y-9482470D02*
X7934650Y-9522470D01*
X7934650Y-9482470D02*
X7894650Y-9522470D01*
X7907180Y-9978770D02*
X7947180Y-10018770D01*
X7947180Y-9978770D02*
X7907180Y-10018770D01*
X8147890Y-12563380D02*
X8187890Y-12603380D01*
X8187890Y-12563380D02*
X8147890Y-12603380D01*
X8192400Y-10544870D02*
X8232400Y-10584870D01*
X8232400Y-10544870D02*
X8192400Y-10584870D01*
X8201900Y-5952460D02*
X8241900Y-5992460D01*
X8241900Y-5952460D02*
X8201900Y-5992460D01*
X8212660Y-5381740D02*
X8252660Y-5421740D01*
X8252660Y-5381740D02*
X8212660Y-5421740D01*
X8326540Y-7268070D02*
X8366540Y-7308070D01*
X8366540Y-7268070D02*
X8326540Y-7308070D01*
X8435960Y-7462170D02*
X8475960Y-7502170D01*
X8475960Y-7462170D02*
X8435960Y-7502170D01*
X8524680Y-5287980D02*
X8564680Y-5327980D01*
X8564680Y-5287980D02*
X8524680Y-5327980D01*
X8532010Y-7427270D02*
X8572010Y-7467270D01*
X8572010Y-7427270D02*
X8532010Y-7467270D01*
X8670850Y-10809580D02*
X8710850Y-10849580D01*
X8710850Y-10809580D02*
X8670850Y-10849580D01*
X8677480Y-13941270D02*
X8717480Y-13981270D01*
X8717480Y-13941270D02*
X8677480Y-13981270D01*
X8691340Y-11168580D02*
X8731340Y-11208580D01*
X8731340Y-11168580D02*
X8691340Y-11208580D01*
X8691340Y-12184390D02*
X8731340Y-12224390D01*
X8731340Y-12184390D02*
X8691340Y-12224390D01*
X8749800Y-12731000D02*
X8789800Y-12771000D01*
X8789800Y-12731000D02*
X8749800Y-12771000D01*
X8800510Y-12417580D02*
X8840510Y-12457580D01*
X8840510Y-12417580D02*
X8800510Y-12457580D01*
X8843010Y-7719010D02*
X8883010Y-7759010D01*
X8883010Y-7719010D02*
X8843010Y-7759010D01*
X8930010Y-12486290D02*
X8970010Y-12526290D01*
X8970010Y-12486290D02*
X8930010Y-12526290D01*
X8953150Y-13519600D02*
X8993150Y-13559600D01*
X8993150Y-13519600D02*
X8953150Y-13559600D01*
X9082420Y-5951310D02*
X9122420Y-5991310D01*
X9122420Y-5951310D02*
X9082420Y-5991310D01*
X9105450Y-8539660D02*
X9145450Y-8579660D01*
X9145450Y-8539660D02*
X9105450Y-8579660D01*
X9154280Y-10265040D02*
X9194280Y-10305040D01*
X9194280Y-10265040D02*
X9154280Y-10305040D01*
X9277140Y-9319460D02*
X9317140Y-9359460D01*
X9317140Y-9319460D02*
X9277140Y-9359460D01*
X9312320Y-12549880D02*
X9352320Y-12589880D01*
X9352320Y-12549880D02*
X9312320Y-12589880D01*
X9353330Y-9945370D02*
X9393330Y-9985370D01*
X9393330Y-9945370D02*
X9353330Y-9985370D01*
X9365270Y-8919500D02*
X9405270Y-8959500D01*
X9405270Y-8919500D02*
X9365270Y-8959500D01*
X9383300Y-12867750D02*
X9423300Y-12907750D01*
X9423300Y-12867750D02*
X9383300Y-12907750D01*
X9440860Y-9411130D02*
X9480860Y-9451130D01*
X9480860Y-9411130D02*
X9440860Y-9451130D01*
X9454220Y-9327050D02*
X9494220Y-9367050D01*
X9494220Y-9327050D02*
X9454220Y-9367050D01*
X9468640Y-10809510D02*
X9508640Y-10849510D01*
X9508640Y-10809510D02*
X9468640Y-10849510D01*
X9482970Y-3953400D02*
X9522970Y-3993400D01*
X9522970Y-3953400D02*
X9482970Y-3993400D01*
X9756310Y-5295220D02*
X9796310Y-5335220D01*
X9796310Y-5295220D02*
X9756310Y-5335220D01*
X9799910Y-12366040D02*
X9839910Y-12406040D01*
X9839910Y-12366040D02*
X9799910Y-12406040D01*
X9840390Y-11710620D02*
X9880390Y-11750620D01*
X9880390Y-11710620D02*
X9840390Y-11750620D01*
X9863920Y-12581600D02*
X9903920Y-12621600D01*
X9903920Y-12581600D02*
X9863920Y-12621600D01*
X9918650Y-3994560D02*
X9958650Y-4034560D01*
X9958650Y-3994560D02*
X9918650Y-4034560D01*
X9919300Y-12659870D02*
X9959300Y-12699870D01*
X9959300Y-12659870D02*
X9919300Y-12699870D01*
X9926580Y-13206850D02*
X9966580Y-13246850D01*
X9966580Y-13206850D02*
X9926580Y-13246850D01*
X9960080Y-11582380D02*
X10000080Y-11622380D01*
X10000080Y-11582380D02*
X9960080Y-11622380D01*
X9960080Y-12004040D02*
X10000080Y-12044040D01*
X10000080Y-12004040D02*
X9960080Y-12044040D01*
X9989560Y-12849630D02*
X10029560Y-12889630D01*
X10029560Y-12849630D02*
X9989560Y-12889630D01*
X10061840Y-5238450D02*
X10101840Y-5278450D01*
X10101840Y-5238450D02*
X10061840Y-5278450D01*
X10156800Y-5499220D02*
X10196800Y-5539220D01*
X10196800Y-5499220D02*
X10156800Y-5539220D01*
X10256260Y-4795280D02*
X10296260Y-4835280D01*
X10296260Y-4795280D02*
X10256260Y-4835280D01*
X10320740Y-5552700D02*
X10360740Y-5592700D01*
X10360740Y-5552700D02*
X10320740Y-5592700D01*
X10547590Y-9483370D02*
X10587590Y-9523370D01*
X10587590Y-9483370D02*
X10547590Y-9523370D01*
X10553260Y-11969000D02*
X10593260Y-12009000D01*
X10593260Y-11969000D02*
X10553260Y-12009000D01*
X10559510Y-11727360D02*
X10599510Y-11767360D01*
X10599510Y-11727360D02*
X10559510Y-11767360D01*
X10561080Y-6121520D02*
X10601080Y-6161520D01*
X10601080Y-6121520D02*
X10561080Y-6161520D01*
X10661430Y-11878260D02*
X10701430Y-11918260D01*
X10701430Y-11878260D02*
X10661430Y-11918260D01*
X10746730Y-4697830D02*
X10786730Y-4737830D01*
X10786730Y-4697830D02*
X10746730Y-4737830D01*
X10806270Y-9510040D02*
X10846270Y-9550040D01*
X10846270Y-9510040D02*
X10806270Y-9550040D01*
X10810810Y-6082620D02*
X10850810Y-6122620D01*
X10850810Y-6082620D02*
X10810810Y-6122620D01*
X10850190Y-6679510D02*
X10890190Y-6719510D01*
X10890190Y-6679510D02*
X10850190Y-6719510D01*
X11000170Y-6271980D02*
X11040170Y-6311980D01*
X11040170Y-6271980D02*
X11000170Y-6311980D01*
X11082700Y-6646300D02*
X11122700Y-6686300D01*
X11122700Y-6646300D02*
X11082700Y-6686300D01*
X11164590Y-13177020D02*
X11204590Y-13217020D01*
X11204590Y-13177020D02*
X11164590Y-13217020D01*
X11188040Y-6665630D02*
X11228040Y-6705630D01*
X11228040Y-6665630D02*
X11188040Y-6705630D01*
X11242250Y-8237760D02*
X11282250Y-8277760D01*
X11282250Y-8237760D02*
X11242250Y-8277760D01*
X11374450Y-4766210D02*
X11414450Y-4806210D01*
X11414450Y-4766210D02*
X11374450Y-4806210D01*
X11379360Y-8175080D02*
X11419360Y-8215080D01*
X11419360Y-8175080D02*
X11379360Y-8215080D01*
X11445990Y-12305080D02*
X11485990Y-12345080D01*
X11485990Y-12305080D02*
X11445990Y-12345080D01*
X11523150Y-7929770D02*
X11563150Y-7969770D01*
X11563150Y-7929770D02*
X11523150Y-7969770D01*
X11663300Y-4588100D02*
X11703300Y-4628100D01*
X11703300Y-4588100D02*
X11663300Y-4628100D01*
X11842070Y-7379900D02*
X11882070Y-7419900D01*
X11882070Y-7379900D02*
X11842070Y-7419900D01*
X11861020Y-7751050D02*
X11901020Y-7791050D01*
X11901020Y-7751050D02*
X11861020Y-7791050D01*
X11870910Y-12497100D02*
X11910910Y-12537100D01*
X11910910Y-12497100D02*
X11870910Y-12537100D01*
X11905860Y-12022580D02*
X11945860Y-12062580D01*
X11945860Y-12022580D02*
X11905860Y-12062580D01*
X12064040Y-4808650D02*
X12104040Y-4848650D01*
X12104040Y-4808650D02*
X12064040Y-4848650D01*
X12268170Y-4614060D02*
X12308170Y-4654060D01*
X12308170Y-4614060D02*
X12268170Y-4654060D01*
X12639320Y-5078580D02*
X12679320Y-5118580D01*
X12679320Y-5078580D02*
X12639320Y-5118580D01*
X14383850Y-12229190D02*
X14423850Y-12269190D01*
X14423850Y-12229190D02*
X14383850Y-12269190D01*
D13*
X4740000Y-4571500D02*
G75*
G03*
X4740000Y-4571500I-40000J0D01*
G01*
X4740000Y-4825500D02*
G75*
G03*
X4740000Y-4825500I-40000J0D01*
G01*
X4740000Y-5079500D02*
G75*
G03*
X4740000Y-5079500I-40000J0D01*
G01*
X4740000Y-5333500D02*
G75*
G03*
X4740000Y-5333500I-40000J0D01*
G01*
X4740000Y-5587500D02*
G75*
G03*
X4740000Y-5587500I-40000J0D01*
G01*
X4740000Y-5841500D02*
G75*
G03*
X4740000Y-5841500I-40000J0D01*
G01*
X4740000Y-6095500D02*
G75*
G03*
X4740000Y-6095500I-40000J0D01*
G01*
X4840000Y-7748500D02*
G75*
G03*
X4840000Y-7748500I-40000J0D01*
G01*
X4840000Y-8002500D02*
G75*
G03*
X4840000Y-8002500I-40000J0D01*
G01*
X4840000Y-8256500D02*
G75*
G03*
X4840000Y-8256500I-40000J0D01*
G01*
X4840000Y-8510500D02*
G75*
G03*
X4840000Y-8510500I-40000J0D01*
G01*
X4840000Y-8764500D02*
G75*
G03*
X4840000Y-8764500I-40000J0D01*
G01*
X4840000Y-9018500D02*
G75*
G03*
X4840000Y-9018500I-40000J0D01*
G01*
X4840000Y-9272500D02*
G75*
G03*
X4840000Y-9272500I-40000J0D01*
G01*
X4840000Y-9526500D02*
G75*
G03*
X4840000Y-9526500I-40000J0D01*
G01*
X4840000Y-11100000D02*
G75*
G03*
X4840000Y-11100000I-40000J0D01*
G01*
X4840000Y-11354000D02*
G75*
G03*
X4840000Y-11354000I-40000J0D01*
G01*
X4840000Y-11608000D02*
G75*
G03*
X4840000Y-11608000I-40000J0D01*
G01*
X4840000Y-11862000D02*
G75*
G03*
X4840000Y-11862000I-40000J0D01*
G01*
X4840000Y-12116000D02*
G75*
G03*
X4840000Y-12116000I-40000J0D01*
G01*
X4840000Y-12370000D02*
G75*
G03*
X4840000Y-12370000I-40000J0D01*
G01*
X4840000Y-12624000D02*
G75*
G03*
X4840000Y-12624000I-40000J0D01*
G01*
X4840000Y-12878000D02*
G75*
G03*
X4840000Y-12878000I-40000J0D01*
G01*
X4866000Y-4064000D02*
G75*
G03*
X4866000Y-4064000I-40000J0D01*
G01*
X4970000Y-7112000D02*
G75*
G03*
X4970000Y-7112000I-40000J0D01*
G01*
X4970000Y-10650000D02*
G75*
G03*
X4970000Y-10650000I-40000J0D01*
G01*
X5366000Y-4064000D02*
G75*
G03*
X5366000Y-4064000I-40000J0D01*
G01*
X5470000Y-7112000D02*
G75*
G03*
X5470000Y-7112000I-40000J0D01*
G01*
X5470000Y-10650000D02*
G75*
G03*
X5470000Y-10650000I-40000J0D01*
G01*
X5502000Y-4571500D02*
G75*
G03*
X5502000Y-4571500I-40000J0D01*
G01*
X5502000Y-4825500D02*
G75*
G03*
X5502000Y-4825500I-40000J0D01*
G01*
X5502000Y-5079500D02*
G75*
G03*
X5502000Y-5079500I-40000J0D01*
G01*
X5502000Y-5333500D02*
G75*
G03*
X5502000Y-5333500I-40000J0D01*
G01*
X5502000Y-5587500D02*
G75*
G03*
X5502000Y-5587500I-40000J0D01*
G01*
X5502000Y-5841500D02*
G75*
G03*
X5502000Y-5841500I-40000J0D01*
G01*
X5502000Y-6095500D02*
G75*
G03*
X5502000Y-6095500I-40000J0D01*
G01*
X5602000Y-7748500D02*
G75*
G03*
X5602000Y-7748500I-40000J0D01*
G01*
X5602000Y-8002500D02*
G75*
G03*
X5602000Y-8002500I-40000J0D01*
G01*
X5602000Y-8256500D02*
G75*
G03*
X5602000Y-8256500I-40000J0D01*
G01*
X5602000Y-8510500D02*
G75*
G03*
X5602000Y-8510500I-40000J0D01*
G01*
X5602000Y-8764500D02*
G75*
G03*
X5602000Y-8764500I-40000J0D01*
G01*
X5602000Y-9018500D02*
G75*
G03*
X5602000Y-9018500I-40000J0D01*
G01*
X5602000Y-9272500D02*
G75*
G03*
X5602000Y-9272500I-40000J0D01*
G01*
X5602000Y-9526500D02*
G75*
G03*
X5602000Y-9526500I-40000J0D01*
G01*
X5602000Y-11100000D02*
G75*
G03*
X5602000Y-11100000I-40000J0D01*
G01*
X5602000Y-11354000D02*
G75*
G03*
X5602000Y-11354000I-40000J0D01*
G01*
X5602000Y-11608000D02*
G75*
G03*
X5602000Y-11608000I-40000J0D01*
G01*
X5602000Y-11862000D02*
G75*
G03*
X5602000Y-11862000I-40000J0D01*
G01*
X5602000Y-12116000D02*
G75*
G03*
X5602000Y-12116000I-40000J0D01*
G01*
X5602000Y-12370000D02*
G75*
G03*
X5602000Y-12370000I-40000J0D01*
G01*
X5602000Y-12624000D02*
G75*
G03*
X5602000Y-12624000I-40000J0D01*
G01*
X5602000Y-12878000D02*
G75*
G03*
X5602000Y-12878000I-40000J0D01*
G01*
X5840670Y-4571500D02*
G75*
G03*
X5840670Y-4571500I-40000J0D01*
G01*
X5840670Y-4825500D02*
G75*
G03*
X5840670Y-4825500I-40000J0D01*
G01*
X5840670Y-5079500D02*
G75*
G03*
X5840670Y-5079500I-40000J0D01*
G01*
X5840670Y-5333500D02*
G75*
G03*
X5840670Y-5333500I-40000J0D01*
G01*
X5840670Y-5587500D02*
G75*
G03*
X5840670Y-5587500I-40000J0D01*
G01*
X5840670Y-5841500D02*
G75*
G03*
X5840670Y-5841500I-40000J0D01*
G01*
X5840670Y-6095500D02*
G75*
G03*
X5840670Y-6095500I-40000J0D01*
G01*
X6009000Y-4064000D02*
G75*
G03*
X6009000Y-4064000I-40000J0D01*
G01*
X6048330Y-7748500D02*
G75*
G03*
X6048330Y-7748500I-40000J0D01*
G01*
X6048330Y-8002500D02*
G75*
G03*
X6048330Y-8002500I-40000J0D01*
G01*
X6048330Y-8256500D02*
G75*
G03*
X6048330Y-8256500I-40000J0D01*
G01*
X6048330Y-8510500D02*
G75*
G03*
X6048330Y-8510500I-40000J0D01*
G01*
X6048330Y-8764500D02*
G75*
G03*
X6048330Y-8764500I-40000J0D01*
G01*
X6048330Y-9018500D02*
G75*
G03*
X6048330Y-9018500I-40000J0D01*
G01*
X6048330Y-9272500D02*
G75*
G03*
X6048330Y-9272500I-40000J0D01*
G01*
X6048330Y-9526500D02*
G75*
G03*
X6048330Y-9526500I-40000J0D01*
G01*
X6048330Y-11100000D02*
G75*
G03*
X6048330Y-11100000I-40000J0D01*
G01*
X6048330Y-11354000D02*
G75*
G03*
X6048330Y-11354000I-40000J0D01*
G01*
X6048330Y-11608000D02*
G75*
G03*
X6048330Y-11608000I-40000J0D01*
G01*
X6048330Y-11862000D02*
G75*
G03*
X6048330Y-11862000I-40000J0D01*
G01*
X6048330Y-12116000D02*
G75*
G03*
X6048330Y-12116000I-40000J0D01*
G01*
X6048330Y-12370000D02*
G75*
G03*
X6048330Y-12370000I-40000J0D01*
G01*
X6048330Y-12624000D02*
G75*
G03*
X6048330Y-12624000I-40000J0D01*
G01*
X6048330Y-12878000D02*
G75*
G03*
X6048330Y-12878000I-40000J0D01*
G01*
X6178330Y-7112000D02*
G75*
G03*
X6178330Y-7112000I-40000J0D01*
G01*
X6178330Y-10650000D02*
G75*
G03*
X6178330Y-10650000I-40000J0D01*
G01*
X6396490Y-14033500D02*
G75*
G03*
X6396490Y-14033500I-40000J0D01*
G01*
X6602670Y-4571500D02*
G75*
G03*
X6602670Y-4571500I-40000J0D01*
G01*
X6602670Y-4825500D02*
G75*
G03*
X6602670Y-4825500I-40000J0D01*
G01*
X6602670Y-5079500D02*
G75*
G03*
X6602670Y-5079500I-40000J0D01*
G01*
X6602670Y-5333500D02*
G75*
G03*
X6602670Y-5333500I-40000J0D01*
G01*
X6602670Y-5587500D02*
G75*
G03*
X6602670Y-5587500I-40000J0D01*
G01*
X6602670Y-5841500D02*
G75*
G03*
X6602670Y-5841500I-40000J0D01*
G01*
X6602670Y-6095500D02*
G75*
G03*
X6602670Y-6095500I-40000J0D01*
G01*
X6646490Y-14033500D02*
G75*
G03*
X6646490Y-14033500I-40000J0D01*
G01*
X6678330Y-7112000D02*
G75*
G03*
X6678330Y-7112000I-40000J0D01*
G01*
X6678330Y-10650000D02*
G75*
G03*
X6678330Y-10650000I-40000J0D01*
G01*
X6771000Y-4064000D02*
G75*
G03*
X6771000Y-4064000I-40000J0D01*
G01*
X6810330Y-7748500D02*
G75*
G03*
X6810330Y-7748500I-40000J0D01*
G01*
X6810330Y-8002500D02*
G75*
G03*
X6810330Y-8002500I-40000J0D01*
G01*
X6810330Y-8256500D02*
G75*
G03*
X6810330Y-8256500I-40000J0D01*
G01*
X6810330Y-8510500D02*
G75*
G03*
X6810330Y-8510500I-40000J0D01*
G01*
X6810330Y-8764500D02*
G75*
G03*
X6810330Y-8764500I-40000J0D01*
G01*
X6810330Y-9018500D02*
G75*
G03*
X6810330Y-9018500I-40000J0D01*
G01*
X6810330Y-9272500D02*
G75*
G03*
X6810330Y-9272500I-40000J0D01*
G01*
X6810330Y-9526500D02*
G75*
G03*
X6810330Y-9526500I-40000J0D01*
G01*
X6810330Y-11100000D02*
G75*
G03*
X6810330Y-11100000I-40000J0D01*
G01*
X6810330Y-11354000D02*
G75*
G03*
X6810330Y-11354000I-40000J0D01*
G01*
X6810330Y-11608000D02*
G75*
G03*
X6810330Y-11608000I-40000J0D01*
G01*
X6810330Y-11862000D02*
G75*
G03*
X6810330Y-11862000I-40000J0D01*
G01*
X6810330Y-12116000D02*
G75*
G03*
X6810330Y-12116000I-40000J0D01*
G01*
X6810330Y-12370000D02*
G75*
G03*
X6810330Y-12370000I-40000J0D01*
G01*
X6810330Y-12624000D02*
G75*
G03*
X6810330Y-12624000I-40000J0D01*
G01*
X6810330Y-12878000D02*
G75*
G03*
X6810330Y-12878000I-40000J0D01*
G01*
X6941330Y-4571500D02*
G75*
G03*
X6941330Y-4571500I-40000J0D01*
G01*
X6941330Y-4825500D02*
G75*
G03*
X6941330Y-4825500I-40000J0D01*
G01*
X6941330Y-5079500D02*
G75*
G03*
X6941330Y-5079500I-40000J0D01*
G01*
X6941330Y-5333500D02*
G75*
G03*
X6941330Y-5333500I-40000J0D01*
G01*
X6941330Y-5587500D02*
G75*
G03*
X6941330Y-5587500I-40000J0D01*
G01*
X6941330Y-5841500D02*
G75*
G03*
X6941330Y-5841500I-40000J0D01*
G01*
X6941330Y-6095500D02*
G75*
G03*
X6941330Y-6095500I-40000J0D01*
G01*
X7156000Y-4064000D02*
G75*
G03*
X7156000Y-4064000I-40000J0D01*
G01*
X7256670Y-7748500D02*
G75*
G03*
X7256670Y-7748500I-40000J0D01*
G01*
X7256670Y-8002500D02*
G75*
G03*
X7256670Y-8002500I-40000J0D01*
G01*
X7256670Y-8256500D02*
G75*
G03*
X7256670Y-8256500I-40000J0D01*
G01*
X7256670Y-8510500D02*
G75*
G03*
X7256670Y-8510500I-40000J0D01*
G01*
X7256670Y-8764500D02*
G75*
G03*
X7256670Y-8764500I-40000J0D01*
G01*
X7256670Y-9018500D02*
G75*
G03*
X7256670Y-9018500I-40000J0D01*
G01*
X7256670Y-9272500D02*
G75*
G03*
X7256670Y-9272500I-40000J0D01*
G01*
X7280000Y-11113000D02*
G75*
G03*
X7280000Y-11113000I-40000J0D01*
G01*
X7280000Y-11367000D02*
G75*
G03*
X7280000Y-11367000I-40000J0D01*
G01*
X7280000Y-11621000D02*
G75*
G03*
X7280000Y-11621000I-40000J0D01*
G01*
X7280000Y-11875000D02*
G75*
G03*
X7280000Y-11875000I-40000J0D01*
G01*
X7280000Y-12129000D02*
G75*
G03*
X7280000Y-12129000I-40000J0D01*
G01*
X7280000Y-12383000D02*
G75*
G03*
X7280000Y-12383000I-40000J0D01*
G01*
X7280000Y-12637000D02*
G75*
G03*
X7280000Y-12637000I-40000J0D01*
G01*
X7280000Y-12891000D02*
G75*
G03*
X7280000Y-12891000I-40000J0D01*
G01*
X7280000Y-13145000D02*
G75*
G03*
X7280000Y-13145000I-40000J0D01*
G01*
X7280000Y-13399000D02*
G75*
G03*
X7280000Y-13399000I-40000J0D01*
G01*
X7386670Y-7112000D02*
G75*
G03*
X7386670Y-7112000I-40000J0D01*
G01*
X7386670Y-10650000D02*
G75*
G03*
X7386670Y-10650000I-40000J0D01*
G01*
X7656000Y-4064000D02*
G75*
G03*
X7656000Y-4064000I-40000J0D01*
G01*
X7703330Y-4571500D02*
G75*
G03*
X7703330Y-4571500I-40000J0D01*
G01*
X7703330Y-4825500D02*
G75*
G03*
X7703330Y-4825500I-40000J0D01*
G01*
X7703330Y-5079500D02*
G75*
G03*
X7703330Y-5079500I-40000J0D01*
G01*
X7703330Y-5333500D02*
G75*
G03*
X7703330Y-5333500I-40000J0D01*
G01*
X7703330Y-5587500D02*
G75*
G03*
X7703330Y-5587500I-40000J0D01*
G01*
X7703330Y-5841500D02*
G75*
G03*
X7703330Y-5841500I-40000J0D01*
G01*
X7703330Y-6095500D02*
G75*
G03*
X7703330Y-6095500I-40000J0D01*
G01*
X7886670Y-7112000D02*
G75*
G03*
X7886670Y-7112000I-40000J0D01*
G01*
X7886670Y-10650000D02*
G75*
G03*
X7886670Y-10650000I-40000J0D01*
G01*
X8018670Y-7748500D02*
G75*
G03*
X8018670Y-7748500I-40000J0D01*
G01*
X8018670Y-8002500D02*
G75*
G03*
X8018670Y-8002500I-40000J0D01*
G01*
X8018670Y-8256500D02*
G75*
G03*
X8018670Y-8256500I-40000J0D01*
G01*
X8018670Y-8510500D02*
G75*
G03*
X8018670Y-8510500I-40000J0D01*
G01*
X8018670Y-8764500D02*
G75*
G03*
X8018670Y-8764500I-40000J0D01*
G01*
X8018670Y-9018500D02*
G75*
G03*
X8018670Y-9018500I-40000J0D01*
G01*
X8018670Y-9272500D02*
G75*
G03*
X8018670Y-9272500I-40000J0D01*
G01*
X8042000Y-4571500D02*
G75*
G03*
X8042000Y-4571500I-40000J0D01*
G01*
X8042000Y-4825500D02*
G75*
G03*
X8042000Y-4825500I-40000J0D01*
G01*
X8042000Y-5079500D02*
G75*
G03*
X8042000Y-5079500I-40000J0D01*
G01*
X8042000Y-5333500D02*
G75*
G03*
X8042000Y-5333500I-40000J0D01*
G01*
X8042000Y-5587500D02*
G75*
G03*
X8042000Y-5587500I-40000J0D01*
G01*
X8042000Y-5841500D02*
G75*
G03*
X8042000Y-5841500I-40000J0D01*
G01*
X8042000Y-6095500D02*
G75*
G03*
X8042000Y-6095500I-40000J0D01*
G01*
X8042000Y-11113000D02*
G75*
G03*
X8042000Y-11113000I-40000J0D01*
G01*
X8042000Y-11367000D02*
G75*
G03*
X8042000Y-11367000I-40000J0D01*
G01*
X8042000Y-11621000D02*
G75*
G03*
X8042000Y-11621000I-40000J0D01*
G01*
X8042000Y-11875000D02*
G75*
G03*
X8042000Y-11875000I-40000J0D01*
G01*
X8042000Y-12129000D02*
G75*
G03*
X8042000Y-12129000I-40000J0D01*
G01*
X8042000Y-12383000D02*
G75*
G03*
X8042000Y-12383000I-40000J0D01*
G01*
X8042000Y-12637000D02*
G75*
G03*
X8042000Y-12637000I-40000J0D01*
G01*
X8042000Y-12891000D02*
G75*
G03*
X8042000Y-12891000I-40000J0D01*
G01*
X8042000Y-13145000D02*
G75*
G03*
X8042000Y-13145000I-40000J0D01*
G01*
X8042000Y-13399000D02*
G75*
G03*
X8042000Y-13399000I-40000J0D01*
G01*
X8295000Y-6985000D02*
G75*
G03*
X8295000Y-6985000I-40000J0D01*
G01*
X8465000Y-11100000D02*
G75*
G03*
X8465000Y-11100000I-40000J0D01*
G01*
X8465000Y-11354000D02*
G75*
G03*
X8465000Y-11354000I-40000J0D01*
G01*
X8465000Y-11608000D02*
G75*
G03*
X8465000Y-11608000I-40000J0D01*
G01*
X8465000Y-11862000D02*
G75*
G03*
X8465000Y-11862000I-40000J0D01*
G01*
X8465000Y-12116000D02*
G75*
G03*
X8465000Y-12116000I-40000J0D01*
G01*
X8465000Y-12370000D02*
G75*
G03*
X8465000Y-12370000I-40000J0D01*
G01*
X8465000Y-12624000D02*
G75*
G03*
X8465000Y-12624000I-40000J0D01*
G01*
X8465000Y-12878000D02*
G75*
G03*
X8465000Y-12878000I-40000J0D01*
G01*
X8465000Y-13132000D02*
G75*
G03*
X8465000Y-13132000I-40000J0D01*
G01*
X8465000Y-13386000D02*
G75*
G03*
X8465000Y-13386000I-40000J0D01*
G01*
X8545000Y-6985000D02*
G75*
G03*
X8545000Y-6985000I-40000J0D01*
G01*
X8549000Y-7809000D02*
G75*
G03*
X8549000Y-7809000I-40000J0D01*
G01*
X8549000Y-8063000D02*
G75*
G03*
X8549000Y-8063000I-40000J0D01*
G01*
X8549000Y-8317000D02*
G75*
G03*
X8549000Y-8317000I-40000J0D01*
G01*
X8549000Y-8571000D02*
G75*
G03*
X8549000Y-8571000I-40000J0D01*
G01*
X8549000Y-8825000D02*
G75*
G03*
X8549000Y-8825000I-40000J0D01*
G01*
X8549000Y-9079000D02*
G75*
G03*
X8549000Y-9079000I-40000J0D01*
G01*
X8549000Y-9333000D02*
G75*
G03*
X8549000Y-9333000I-40000J0D01*
G01*
X8549000Y-9587000D02*
G75*
G03*
X8549000Y-9587000I-40000J0D01*
G01*
X8549000Y-9841000D02*
G75*
G03*
X8549000Y-9841000I-40000J0D01*
G01*
X8595000Y-10650000D02*
G75*
G03*
X8595000Y-10650000I-40000J0D01*
G01*
X8804000Y-4571500D02*
G75*
G03*
X8804000Y-4571500I-40000J0D01*
G01*
X8804000Y-4825500D02*
G75*
G03*
X8804000Y-4825500I-40000J0D01*
G01*
X8804000Y-5079500D02*
G75*
G03*
X8804000Y-5079500I-40000J0D01*
G01*
X8804000Y-5333500D02*
G75*
G03*
X8804000Y-5333500I-40000J0D01*
G01*
X8804000Y-5587500D02*
G75*
G03*
X8804000Y-5587500I-40000J0D01*
G01*
X8804000Y-5841500D02*
G75*
G03*
X8804000Y-5841500I-40000J0D01*
G01*
X8804000Y-6095500D02*
G75*
G03*
X8804000Y-6095500I-40000J0D01*
G01*
X9095000Y-10650000D02*
G75*
G03*
X9095000Y-10650000I-40000J0D01*
G01*
X9227000Y-11100000D02*
G75*
G03*
X9227000Y-11100000I-40000J0D01*
G01*
X9227000Y-11354000D02*
G75*
G03*
X9227000Y-11354000I-40000J0D01*
G01*
X9227000Y-11608000D02*
G75*
G03*
X9227000Y-11608000I-40000J0D01*
G01*
X9227000Y-11862000D02*
G75*
G03*
X9227000Y-11862000I-40000J0D01*
G01*
X9227000Y-12116000D02*
G75*
G03*
X9227000Y-12116000I-40000J0D01*
G01*
X9227000Y-12370000D02*
G75*
G03*
X9227000Y-12370000I-40000J0D01*
G01*
X9227000Y-12624000D02*
G75*
G03*
X9227000Y-12624000I-40000J0D01*
G01*
X9227000Y-12878000D02*
G75*
G03*
X9227000Y-12878000I-40000J0D01*
G01*
X9227000Y-13132000D02*
G75*
G03*
X9227000Y-13132000I-40000J0D01*
G01*
X9227000Y-13386000D02*
G75*
G03*
X9227000Y-13386000I-40000J0D01*
G01*
X9673330Y-11100000D02*
G75*
G03*
X9673330Y-11100000I-40000J0D01*
G01*
X9673330Y-11354000D02*
G75*
G03*
X9673330Y-11354000I-40000J0D01*
G01*
X9673330Y-11608000D02*
G75*
G03*
X9673330Y-11608000I-40000J0D01*
G01*
X9673330Y-11862000D02*
G75*
G03*
X9673330Y-11862000I-40000J0D01*
G01*
X9673330Y-12116000D02*
G75*
G03*
X9673330Y-12116000I-40000J0D01*
G01*
X9673330Y-12370000D02*
G75*
G03*
X9673330Y-12370000I-40000J0D01*
G01*
X9673330Y-12624000D02*
G75*
G03*
X9673330Y-12624000I-40000J0D01*
G01*
X9673330Y-12878000D02*
G75*
G03*
X9673330Y-12878000I-40000J0D01*
G01*
X9673330Y-13132000D02*
G75*
G03*
X9673330Y-13132000I-40000J0D01*
G01*
X9673330Y-13386000D02*
G75*
G03*
X9673330Y-13386000I-40000J0D01*
G01*
X9803330Y-10668000D02*
G75*
G03*
X9803330Y-10668000I-40000J0D01*
G01*
X10303330Y-10668000D02*
G75*
G03*
X10303330Y-10668000I-40000J0D01*
G01*
X10435330Y-11100000D02*
G75*
G03*
X10435330Y-11100000I-40000J0D01*
G01*
X10435330Y-11354000D02*
G75*
G03*
X10435330Y-11354000I-40000J0D01*
G01*
X10435330Y-11608000D02*
G75*
G03*
X10435330Y-11608000I-40000J0D01*
G01*
X10435330Y-11862000D02*
G75*
G03*
X10435330Y-11862000I-40000J0D01*
G01*
X10435330Y-12116000D02*
G75*
G03*
X10435330Y-12116000I-40000J0D01*
G01*
X10435330Y-12370000D02*
G75*
G03*
X10435330Y-12370000I-40000J0D01*
G01*
X10435330Y-12624000D02*
G75*
G03*
X10435330Y-12624000I-40000J0D01*
G01*
X10435330Y-12878000D02*
G75*
G03*
X10435330Y-12878000I-40000J0D01*
G01*
X10435330Y-13132000D02*
G75*
G03*
X10435330Y-13132000I-40000J0D01*
G01*
X10435330Y-13386000D02*
G75*
G03*
X10435330Y-13386000I-40000J0D01*
G01*
X10881670Y-11100000D02*
G75*
G03*
X10881670Y-11100000I-40000J0D01*
G01*
X10881670Y-11354000D02*
G75*
G03*
X10881670Y-11354000I-40000J0D01*
G01*
X10881670Y-11608000D02*
G75*
G03*
X10881670Y-11608000I-40000J0D01*
G01*
X10881670Y-11862000D02*
G75*
G03*
X10881670Y-11862000I-40000J0D01*
G01*
X10881670Y-12116000D02*
G75*
G03*
X10881670Y-12116000I-40000J0D01*
G01*
X10881670Y-12370000D02*
G75*
G03*
X10881670Y-12370000I-40000J0D01*
G01*
X10881670Y-12624000D02*
G75*
G03*
X10881670Y-12624000I-40000J0D01*
G01*
X10881670Y-12878000D02*
G75*
G03*
X10881670Y-12878000I-40000J0D01*
G01*
X10881670Y-13132000D02*
G75*
G03*
X10881670Y-13132000I-40000J0D01*
G01*
X10881670Y-13386000D02*
G75*
G03*
X10881670Y-13386000I-40000J0D01*
G01*
X11011670Y-10668000D02*
G75*
G03*
X11011670Y-10668000I-40000J0D01*
G01*
X11511670Y-10668000D02*
G75*
G03*
X11511670Y-10668000I-40000J0D01*
G01*
X11643670Y-11100000D02*
G75*
G03*
X11643670Y-11100000I-40000J0D01*
G01*
X11643670Y-11354000D02*
G75*
G03*
X11643670Y-11354000I-40000J0D01*
G01*
X11643670Y-11608000D02*
G75*
G03*
X11643670Y-11608000I-40000J0D01*
G01*
X11643670Y-11862000D02*
G75*
G03*
X11643670Y-11862000I-40000J0D01*
G01*
X11643670Y-12116000D02*
G75*
G03*
X11643670Y-12116000I-40000J0D01*
G01*
X11643670Y-12370000D02*
G75*
G03*
X11643670Y-12370000I-40000J0D01*
G01*
X11643670Y-12624000D02*
G75*
G03*
X11643670Y-12624000I-40000J0D01*
G01*
X11643670Y-12878000D02*
G75*
G03*
X11643670Y-12878000I-40000J0D01*
G01*
X11643670Y-13132000D02*
G75*
G03*
X11643670Y-13132000I-40000J0D01*
G01*
X11643670Y-13386000D02*
G75*
G03*
X11643670Y-13386000I-40000J0D01*
G01*
X12090000Y-11100000D02*
G75*
G03*
X12090000Y-11100000I-40000J0D01*
G01*
X12090000Y-11354000D02*
G75*
G03*
X12090000Y-11354000I-40000J0D01*
G01*
X12090000Y-11608000D02*
G75*
G03*
X12090000Y-11608000I-40000J0D01*
G01*
X12090000Y-11862000D02*
G75*
G03*
X12090000Y-11862000I-40000J0D01*
G01*
X12090000Y-12116000D02*
G75*
G03*
X12090000Y-12116000I-40000J0D01*
G01*
X12090000Y-12370000D02*
G75*
G03*
X12090000Y-12370000I-40000J0D01*
G01*
X12090000Y-12624000D02*
G75*
G03*
X12090000Y-12624000I-40000J0D01*
G01*
X12090000Y-12878000D02*
G75*
G03*
X12090000Y-12878000I-40000J0D01*
G01*
X12090000Y-13132000D02*
G75*
G03*
X12090000Y-13132000I-40000J0D01*
G01*
X12090000Y-13386000D02*
G75*
G03*
X12090000Y-13386000I-40000J0D01*
G01*
X12105000Y-5207000D02*
G75*
G03*
X12105000Y-5207000I-40000J0D01*
G01*
X12110880Y-5715000D02*
G75*
G03*
X12110880Y-5715000I-40000J0D01*
G01*
X12110880Y-6223000D02*
G75*
G03*
X12110880Y-6223000I-40000J0D01*
G01*
X12220000Y-10668000D02*
G75*
G03*
X12220000Y-10668000I-40000J0D01*
G01*
X12720000Y-10668000D02*
G75*
G03*
X12720000Y-10668000I-40000J0D01*
G01*
X12852000Y-11100000D02*
G75*
G03*
X12852000Y-11100000I-40000J0D01*
G01*
X12852000Y-11354000D02*
G75*
G03*
X12852000Y-11354000I-40000J0D01*
G01*
X12852000Y-11608000D02*
G75*
G03*
X12852000Y-11608000I-40000J0D01*
G01*
X12852000Y-11862000D02*
G75*
G03*
X12852000Y-11862000I-40000J0D01*
G01*
X12852000Y-12116000D02*
G75*
G03*
X12852000Y-12116000I-40000J0D01*
G01*
X12852000Y-12370000D02*
G75*
G03*
X12852000Y-12370000I-40000J0D01*
G01*
X12852000Y-12624000D02*
G75*
G03*
X12852000Y-12624000I-40000J0D01*
G01*
X12852000Y-12878000D02*
G75*
G03*
X12852000Y-12878000I-40000J0D01*
G01*
X12852000Y-13132000D02*
G75*
G03*
X12852000Y-13132000I-40000J0D01*
G01*
X12852000Y-13386000D02*
G75*
G03*
X12852000Y-13386000I-40000J0D01*
G01*
X12867000Y-5207000D02*
G75*
G03*
X12867000Y-5207000I-40000J0D01*
G01*
X12872880Y-5715000D02*
G75*
G03*
X12872880Y-5715000I-40000J0D01*
G01*
X12872880Y-6223000D02*
G75*
G03*
X12872880Y-6223000I-40000J0D01*
G01*
X13190000Y-11100000D02*
G75*
G03*
X13190000Y-11100000I-40000J0D01*
G01*
X13190000Y-11354000D02*
G75*
G03*
X13190000Y-11354000I-40000J0D01*
G01*
X13190000Y-11608000D02*
G75*
G03*
X13190000Y-11608000I-40000J0D01*
G01*
X13190000Y-11862000D02*
G75*
G03*
X13190000Y-11862000I-40000J0D01*
G01*
X13190000Y-12116000D02*
G75*
G03*
X13190000Y-12116000I-40000J0D01*
G01*
X13190000Y-12370000D02*
G75*
G03*
X13190000Y-12370000I-40000J0D01*
G01*
X13190000Y-12624000D02*
G75*
G03*
X13190000Y-12624000I-40000J0D01*
G01*
X13190000Y-12878000D02*
G75*
G03*
X13190000Y-12878000I-40000J0D01*
G01*
X13190000Y-13132000D02*
G75*
G03*
X13190000Y-13132000I-40000J0D01*
G01*
X13253880Y-5207000D02*
G75*
G03*
X13253880Y-5207000I-40000J0D01*
G01*
X13253880Y-5715000D02*
G75*
G03*
X13253880Y-5715000I-40000J0D01*
G01*
X13253880Y-6223000D02*
G75*
G03*
X13253880Y-6223000I-40000J0D01*
G01*
X13540000Y-11350000D02*
G75*
G03*
X13540000Y-11350000I-40000J0D01*
G01*
X13540000Y-11604000D02*
G75*
G03*
X13540000Y-11604000I-40000J0D01*
G01*
X13540000Y-11858000D02*
G75*
G03*
X13540000Y-11858000I-40000J0D01*
G01*
X13540000Y-12112000D02*
G75*
G03*
X13540000Y-12112000I-40000J0D01*
G01*
X13540000Y-12366000D02*
G75*
G03*
X13540000Y-12366000I-40000J0D01*
G01*
X13540000Y-12620000D02*
G75*
G03*
X13540000Y-12620000I-40000J0D01*
G01*
X13540000Y-12874000D02*
G75*
G03*
X13540000Y-12874000I-40000J0D01*
G01*
X13540000Y-13128000D02*
G75*
G03*
X13540000Y-13128000I-40000J0D01*
G01*
X14015880Y-5207000D02*
G75*
G03*
X14015880Y-5207000I-40000J0D01*
G01*
X14015880Y-5715000D02*
G75*
G03*
X14015880Y-5715000I-40000J0D01*
G01*
X14015880Y-6223000D02*
G75*
G03*
X14015880Y-6223000I-40000J0D01*
G01*
X14302000Y-11350000D02*
G75*
G03*
X14302000Y-11350000I-40000J0D01*
G01*
X14302000Y-11604000D02*
G75*
G03*
X14302000Y-11604000I-40000J0D01*
G01*
X14302000Y-11858000D02*
G75*
G03*
X14302000Y-11858000I-40000J0D01*
G01*
X14302000Y-12112000D02*
G75*
G03*
X14302000Y-12112000I-40000J0D01*
G01*
X14302000Y-12366000D02*
G75*
G03*
X14302000Y-12366000I-40000J0D01*
G01*
X14302000Y-12620000D02*
G75*
G03*
X14302000Y-12620000I-40000J0D01*
G01*
X14302000Y-12874000D02*
G75*
G03*
X14302000Y-12874000I-40000J0D01*
G01*
X14302000Y-13128000D02*
G75*
G03*
X14302000Y-13128000I-40000J0D01*
G01*
D14*
X5246000Y-3406000D02*
X5246000Y-3496000D01*
X5201000Y-3451000D02*
X5291000Y-3451000D01*
X5500000Y-3406000D02*
X5500000Y-3496000D01*
X5455000Y-3451000D02*
X5545000Y-3451000D01*
D15*
X6231356Y-3415066D02*
X6231356Y-3344354D01*
X6160644Y-3344354D01*
X6160644Y-3415066D01*
X6231356Y-3415066D01*
X6485356Y-3415066D02*
X6485356Y-3344354D01*
X6414644Y-3344354D01*
X6414644Y-3415066D01*
X6485356Y-3415066D01*
X6739356Y-3415066D02*
X6739356Y-3344354D01*
X6668644Y-3344354D01*
X6668644Y-3415066D01*
X6739356Y-3415066D01*
X7439356Y-14135356D02*
X7439356Y-14064644D01*
X7368644Y-14064644D01*
X7368644Y-14135356D01*
X7439356Y-14135356D01*
X7439356Y-14389356D02*
X7439356Y-14318644D01*
X7368644Y-14318644D01*
X7368644Y-14389356D01*
X7439356Y-14389356D01*
X7440856Y-3415066D02*
X7440856Y-3344354D01*
X7370144Y-3344354D01*
X7370144Y-3415066D01*
X7440856Y-3415066D01*
X7693356Y-14135356D02*
X7693356Y-14064644D01*
X7622644Y-14064644D01*
X7622644Y-14135356D01*
X7693356Y-14135356D01*
X7693356Y-14389356D02*
X7693356Y-14318644D01*
X7622644Y-14318644D01*
X7622644Y-14389356D01*
X7693356Y-14389356D01*
X7694856Y-3415066D02*
X7694856Y-3344354D01*
X7624144Y-3344354D01*
X7624144Y-3415066D01*
X7694856Y-3415066D01*
X7947356Y-14135356D02*
X7947356Y-14064644D01*
X7876644Y-14064644D01*
X7876644Y-14135356D01*
X7947356Y-14135356D01*
X7947356Y-14389356D02*
X7947356Y-14318644D01*
X7876644Y-14318644D01*
X7876644Y-14389356D01*
X7947356Y-14389356D01*
X7948856Y-3415066D02*
X7948856Y-3344354D01*
X7878144Y-3344354D01*
X7878144Y-3415066D01*
X7948856Y-3415066D01*
X8201356Y-14135356D02*
X8201356Y-14064644D01*
X8130644Y-14064644D01*
X8130644Y-14135356D01*
X8201356Y-14135356D01*
X8201356Y-14389356D02*
X8201356Y-14318644D01*
X8130644Y-14318644D01*
X8130644Y-14389356D01*
X8201356Y-14389356D01*
X8416856Y-3415066D02*
X8416856Y-3344354D01*
X8346144Y-3344354D01*
X8346144Y-3415066D01*
X8416856Y-3415066D01*
X8455356Y-14135356D02*
X8455356Y-14064644D01*
X8384644Y-14064644D01*
X8384644Y-14135356D01*
X8455356Y-14135356D01*
X8455356Y-14389356D02*
X8455356Y-14318644D01*
X8384644Y-14318644D01*
X8384644Y-14389356D01*
X8455356Y-14389356D01*
X8670856Y-3415066D02*
X8670856Y-3344354D01*
X8600144Y-3344354D01*
X8600144Y-3415066D01*
X8670856Y-3415066D01*
X8709356Y-14135356D02*
X8709356Y-14064644D01*
X8638644Y-14064644D01*
X8638644Y-14135356D01*
X8709356Y-14135356D01*
X8709356Y-14389356D02*
X8709356Y-14318644D01*
X8638644Y-14318644D01*
X8638644Y-14389356D01*
X8709356Y-14389356D01*
X8963356Y-14135356D02*
X8963356Y-14064644D01*
X8892644Y-14064644D01*
X8892644Y-14135356D01*
X8963356Y-14135356D01*
X8963356Y-14389356D02*
X8963356Y-14318644D01*
X8892644Y-14318644D01*
X8892644Y-14389356D01*
X8963356Y-14389356D01*
X9217356Y-14135356D02*
X9217356Y-14064644D01*
X9146644Y-14064644D01*
X9146644Y-14135356D01*
X9217356Y-14135356D01*
X9217356Y-14389356D02*
X9217356Y-14318644D01*
X9146644Y-14318644D01*
X9146644Y-14389356D01*
X9217356Y-14389356D01*
X9279856Y-3416066D02*
X9279856Y-3345354D01*
X9209144Y-3345354D01*
X9209144Y-3416066D01*
X9279856Y-3416066D01*
X9279856Y-3670066D02*
X9279856Y-3599354D01*
X9209144Y-3599354D01*
X9209144Y-3670066D01*
X9279856Y-3670066D01*
X9471356Y-14135356D02*
X9471356Y-14064644D01*
X9400644Y-14064644D01*
X9400644Y-14135356D01*
X9471356Y-14135356D01*
X9471356Y-14389356D02*
X9471356Y-14318644D01*
X9400644Y-14318644D01*
X9400644Y-14389356D01*
X9471356Y-14389356D01*
X9533856Y-3416066D02*
X9533856Y-3345354D01*
X9463144Y-3345354D01*
X9463144Y-3416066D01*
X9533856Y-3416066D01*
X9533856Y-3670066D02*
X9533856Y-3599354D01*
X9463144Y-3599354D01*
X9463144Y-3670066D01*
X9533856Y-3670066D01*
X9646606Y-4508356D02*
X9646606Y-4437644D01*
X9575894Y-4437644D01*
X9575894Y-4508356D01*
X9646606Y-4508356D01*
X9646606Y-7052356D02*
X9646606Y-6981644D01*
X9575894Y-6981644D01*
X9575894Y-7052356D01*
X9646606Y-7052356D01*
X9646606Y-7656356D02*
X9646606Y-7585644D01*
X9575894Y-7585644D01*
X9575894Y-7656356D01*
X9646606Y-7656356D01*
X9646606Y-10200356D02*
X9646606Y-10129644D01*
X9575894Y-10129644D01*
X9575894Y-10200356D01*
X9646606Y-10200356D01*
X9725356Y-14135356D02*
X9725356Y-14064644D01*
X9654644Y-14064644D01*
X9654644Y-14135356D01*
X9725356Y-14135356D01*
X9725356Y-14389356D02*
X9725356Y-14318644D01*
X9654644Y-14318644D01*
X9654644Y-14389356D01*
X9725356Y-14389356D01*
X9787856Y-3416066D02*
X9787856Y-3345354D01*
X9717144Y-3345354D01*
X9717144Y-3416066D01*
X9787856Y-3416066D01*
X9787856Y-3670066D02*
X9787856Y-3599354D01*
X9717144Y-3599354D01*
X9717144Y-3670066D01*
X9787856Y-3670066D01*
X9900606Y-4508356D02*
X9900606Y-4437644D01*
X9829894Y-4437644D01*
X9829894Y-4508356D01*
X9900606Y-4508356D01*
X9900606Y-7052356D02*
X9900606Y-6981644D01*
X9829894Y-6981644D01*
X9829894Y-7052356D01*
X9900606Y-7052356D01*
X9900606Y-7656356D02*
X9900606Y-7585644D01*
X9829894Y-7585644D01*
X9829894Y-7656356D01*
X9900606Y-7656356D01*
X9900606Y-10200356D02*
X9900606Y-10129644D01*
X9829894Y-10129644D01*
X9829894Y-10200356D01*
X9900606Y-10200356D01*
X9979356Y-14135356D02*
X9979356Y-14064644D01*
X9908644Y-14064644D01*
X9908644Y-14135356D01*
X9979356Y-14135356D01*
X9979356Y-14389356D02*
X9979356Y-14318644D01*
X9908644Y-14318644D01*
X9908644Y-14389356D01*
X9979356Y-14389356D01*
X10041856Y-3416066D02*
X10041856Y-3345354D01*
X9971144Y-3345354D01*
X9971144Y-3416066D01*
X10041856Y-3416066D01*
X10041856Y-3670066D02*
X10041856Y-3599354D01*
X9971144Y-3599354D01*
X9971144Y-3670066D01*
X10041856Y-3670066D01*
X10154606Y-4508356D02*
X10154606Y-4437644D01*
X10083894Y-4437644D01*
X10083894Y-4508356D01*
X10154606Y-4508356D01*
X10154606Y-7052356D02*
X10154606Y-6981644D01*
X10083894Y-6981644D01*
X10083894Y-7052356D01*
X10154606Y-7052356D01*
X10154606Y-7656356D02*
X10154606Y-7585644D01*
X10083894Y-7585644D01*
X10083894Y-7656356D01*
X10154606Y-7656356D01*
X10154606Y-10200356D02*
X10154606Y-10129644D01*
X10083894Y-10129644D01*
X10083894Y-10200356D01*
X10154606Y-10200356D01*
X10233356Y-14135356D02*
X10233356Y-14064644D01*
X10162644Y-14064644D01*
X10162644Y-14135356D01*
X10233356Y-14135356D01*
X10233356Y-14389356D02*
X10233356Y-14318644D01*
X10162644Y-14318644D01*
X10162644Y-14389356D01*
X10233356Y-14389356D01*
X10295856Y-3416066D02*
X10295856Y-3345354D01*
X10225144Y-3345354D01*
X10225144Y-3416066D01*
X10295856Y-3416066D01*
X10295856Y-3670066D02*
X10295856Y-3599354D01*
X10225144Y-3599354D01*
X10225144Y-3670066D01*
X10295856Y-3670066D01*
X10408606Y-4508356D02*
X10408606Y-4437644D01*
X10337894Y-4437644D01*
X10337894Y-4508356D01*
X10408606Y-4508356D01*
X10408606Y-7052356D02*
X10408606Y-6981644D01*
X10337894Y-6981644D01*
X10337894Y-7052356D01*
X10408606Y-7052356D01*
X10408606Y-7656356D02*
X10408606Y-7585644D01*
X10337894Y-7585644D01*
X10337894Y-7656356D01*
X10408606Y-7656356D01*
X10408606Y-10200356D02*
X10408606Y-10129644D01*
X10337894Y-10129644D01*
X10337894Y-10200356D01*
X10408606Y-10200356D01*
X10487356Y-14135356D02*
X10487356Y-14064644D01*
X10416644Y-14064644D01*
X10416644Y-14135356D01*
X10487356Y-14135356D01*
X10487356Y-14389356D02*
X10487356Y-14318644D01*
X10416644Y-14318644D01*
X10416644Y-14389356D01*
X10487356Y-14389356D01*
X10662606Y-4508356D02*
X10662606Y-4437644D01*
X10591894Y-4437644D01*
X10591894Y-4508356D01*
X10662606Y-4508356D01*
X10662606Y-7052356D02*
X10662606Y-6981644D01*
X10591894Y-6981644D01*
X10591894Y-7052356D01*
X10662606Y-7052356D01*
X10662606Y-7656356D02*
X10662606Y-7585644D01*
X10591894Y-7585644D01*
X10591894Y-7656356D01*
X10662606Y-7656356D01*
X10662606Y-10200356D02*
X10662606Y-10129644D01*
X10591894Y-10129644D01*
X10591894Y-10200356D01*
X10662606Y-10200356D01*
X10741356Y-14135356D02*
X10741356Y-14064644D01*
X10670644Y-14064644D01*
X10670644Y-14135356D01*
X10741356Y-14135356D01*
X10741356Y-14389356D02*
X10741356Y-14318644D01*
X10670644Y-14318644D01*
X10670644Y-14389356D01*
X10741356Y-14389356D01*
X10916606Y-4508356D02*
X10916606Y-4437644D01*
X10845894Y-4437644D01*
X10845894Y-4508356D01*
X10916606Y-4508356D01*
X10916606Y-7052356D02*
X10916606Y-6981644D01*
X10845894Y-6981644D01*
X10845894Y-7052356D01*
X10916606Y-7052356D01*
X10916606Y-7656356D02*
X10916606Y-7585644D01*
X10845894Y-7585644D01*
X10845894Y-7656356D01*
X10916606Y-7656356D01*
X10916606Y-10200356D02*
X10916606Y-10129644D01*
X10845894Y-10129644D01*
X10845894Y-10200356D01*
X10916606Y-10200356D01*
X10995356Y-14135356D02*
X10995356Y-14064644D01*
X10924644Y-14064644D01*
X10924644Y-14135356D01*
X10995356Y-14135356D01*
X10995356Y-14389356D02*
X10995356Y-14318644D01*
X10924644Y-14318644D01*
X10924644Y-14389356D01*
X10995356Y-14389356D01*
X11170606Y-4508356D02*
X11170606Y-4437644D01*
X11099894Y-4437644D01*
X11099894Y-4508356D01*
X11170606Y-4508356D01*
X11170606Y-7052356D02*
X11170606Y-6981644D01*
X11099894Y-6981644D01*
X11099894Y-7052356D01*
X11170606Y-7052356D01*
X11170606Y-7656356D02*
X11170606Y-7585644D01*
X11099894Y-7585644D01*
X11099894Y-7656356D01*
X11170606Y-7656356D01*
X11170606Y-10200356D02*
X11170606Y-10129644D01*
X11099894Y-10129644D01*
X11099894Y-10200356D01*
X11170606Y-10200356D01*
X11249356Y-14135356D02*
X11249356Y-14064644D01*
X11178644Y-14064644D01*
X11178644Y-14135356D01*
X11249356Y-14135356D01*
X11249356Y-14389356D02*
X11249356Y-14318644D01*
X11178644Y-14318644D01*
X11178644Y-14389356D01*
X11249356Y-14389356D01*
X11424606Y-4508356D02*
X11424606Y-4437644D01*
X11353894Y-4437644D01*
X11353894Y-4508356D01*
X11424606Y-4508356D01*
X11424606Y-7052356D02*
X11424606Y-6981644D01*
X11353894Y-6981644D01*
X11353894Y-7052356D01*
X11424606Y-7052356D01*
X11424606Y-7656356D02*
X11424606Y-7585644D01*
X11353894Y-7585644D01*
X11353894Y-7656356D01*
X11424606Y-7656356D01*
X11424606Y-10200356D02*
X11424606Y-10129644D01*
X11353894Y-10129644D01*
X11353894Y-10200356D01*
X11424606Y-10200356D01*
X11503356Y-14135356D02*
X11503356Y-14064644D01*
X11432644Y-14064644D01*
X11432644Y-14135356D01*
X11503356Y-14135356D01*
X11503356Y-14389356D02*
X11503356Y-14318644D01*
X11432644Y-14318644D01*
X11432644Y-14389356D01*
X11503356Y-14389356D01*
X11678606Y-4508356D02*
X11678606Y-4437644D01*
X11607894Y-4437644D01*
X11607894Y-4508356D01*
X11678606Y-4508356D01*
X11678606Y-7052356D02*
X11678606Y-6981644D01*
X11607894Y-6981644D01*
X11607894Y-7052356D01*
X11678606Y-7052356D01*
X11678606Y-7656356D02*
X11678606Y-7585644D01*
X11607894Y-7585644D01*
X11607894Y-7656356D01*
X11678606Y-7656356D01*
X11678606Y-10200356D02*
X11678606Y-10129644D01*
X11607894Y-10129644D01*
X11607894Y-10200356D01*
X11678606Y-10200356D01*
X11682856Y-3716096D02*
X11682856Y-3645384D01*
X11612144Y-3645384D01*
X11612144Y-3716096D01*
X11682856Y-3716096D01*
X11757356Y-14135356D02*
X11757356Y-14064644D01*
X11686644Y-14064644D01*
X11686644Y-14135356D01*
X11757356Y-14135356D01*
X11757356Y-14389356D02*
X11757356Y-14318644D01*
X11686644Y-14318644D01*
X11686644Y-14389356D01*
X11757356Y-14389356D01*
X11797356Y-3518096D02*
X11797356Y-3447384D01*
X11726644Y-3447384D01*
X11726644Y-3518096D01*
X11797356Y-3518096D01*
X11797356Y-3914096D02*
X11797356Y-3843384D01*
X11726644Y-3843384D01*
X11726644Y-3914096D01*
X11797356Y-3914096D01*
X11911856Y-3716096D02*
X11911856Y-3645384D01*
X11841144Y-3645384D01*
X11841144Y-3716096D01*
X11911856Y-3716096D01*
X11932606Y-4508356D02*
X11932606Y-4437644D01*
X11861894Y-4437644D01*
X11861894Y-4508356D01*
X11932606Y-4508356D01*
X11932606Y-7052356D02*
X11932606Y-6981644D01*
X11861894Y-6981644D01*
X11861894Y-7052356D01*
X11932606Y-7052356D01*
X11932606Y-7656356D02*
X11932606Y-7585644D01*
X11861894Y-7585644D01*
X11861894Y-7656356D01*
X11932606Y-7656356D01*
X11932606Y-10200356D02*
X11932606Y-10129644D01*
X11861894Y-10129644D01*
X11861894Y-10200356D01*
X11932606Y-10200356D01*
X12011356Y-14135356D02*
X12011356Y-14064644D01*
X11940644Y-14064644D01*
X11940644Y-14135356D01*
X12011356Y-14135356D01*
X12011356Y-14389356D02*
X12011356Y-14318644D01*
X11940644Y-14318644D01*
X11940644Y-14389356D01*
X12011356Y-14389356D01*
X12026356Y-3518096D02*
X12026356Y-3447384D01*
X11955644Y-3447384D01*
X11955644Y-3518096D01*
X12026356Y-3518096D01*
X12026356Y-3914096D02*
X12026356Y-3843384D01*
X11955644Y-3843384D01*
X11955644Y-3914096D01*
X12026356Y-3914096D01*
X12140856Y-3716096D02*
X12140856Y-3645384D01*
X12070144Y-3645384D01*
X12070144Y-3716096D01*
X12140856Y-3716096D01*
X12186606Y-4508356D02*
X12186606Y-4437644D01*
X12115894Y-4437644D01*
X12115894Y-4508356D01*
X12186606Y-4508356D01*
X12186606Y-7052356D02*
X12186606Y-6981644D01*
X12115894Y-6981644D01*
X12115894Y-7052356D01*
X12186606Y-7052356D01*
X12186606Y-7656356D02*
X12186606Y-7585644D01*
X12115894Y-7585644D01*
X12115894Y-7656356D01*
X12186606Y-7656356D01*
X12186606Y-10200356D02*
X12186606Y-10129644D01*
X12115894Y-10129644D01*
X12115894Y-10200356D01*
X12186606Y-10200356D01*
X12255356Y-3518096D02*
X12255356Y-3447384D01*
X12184644Y-3447384D01*
X12184644Y-3518096D01*
X12255356Y-3518096D01*
X12255356Y-3914096D02*
X12255356Y-3843384D01*
X12184644Y-3843384D01*
X12184644Y-3914096D01*
X12255356Y-3914096D01*
X12265356Y-14135356D02*
X12265356Y-14064644D01*
X12194644Y-14064644D01*
X12194644Y-14135356D01*
X12265356Y-14135356D01*
X12265356Y-14389356D02*
X12265356Y-14318644D01*
X12194644Y-14318644D01*
X12194644Y-14389356D01*
X12265356Y-14389356D01*
X12369856Y-3716096D02*
X12369856Y-3645384D01*
X12299144Y-3645384D01*
X12299144Y-3716096D01*
X12369856Y-3716096D01*
X12440606Y-4508356D02*
X12440606Y-4437644D01*
X12369894Y-4437644D01*
X12369894Y-4508356D01*
X12440606Y-4508356D01*
X12440606Y-7052356D02*
X12440606Y-6981644D01*
X12369894Y-6981644D01*
X12369894Y-7052356D01*
X12440606Y-7052356D01*
X12440606Y-7656356D02*
X12440606Y-7585644D01*
X12369894Y-7585644D01*
X12369894Y-7656356D01*
X12440606Y-7656356D01*
X12440606Y-10200356D02*
X12440606Y-10129644D01*
X12369894Y-10129644D01*
X12369894Y-10200356D01*
X12440606Y-10200356D01*
X12484356Y-3518096D02*
X12484356Y-3447384D01*
X12413644Y-3447384D01*
X12413644Y-3518096D01*
X12484356Y-3518096D01*
X12484356Y-3914096D02*
X12484356Y-3843384D01*
X12413644Y-3843384D01*
X12413644Y-3914096D01*
X12484356Y-3914096D01*
X12519356Y-14135356D02*
X12519356Y-14064644D01*
X12448644Y-14064644D01*
X12448644Y-14135356D01*
X12519356Y-14135356D01*
X12519356Y-14389356D02*
X12519356Y-14318644D01*
X12448644Y-14318644D01*
X12448644Y-14389356D01*
X12519356Y-14389356D01*
X12598856Y-3716096D02*
X12598856Y-3645384D01*
X12528144Y-3645384D01*
X12528144Y-3716096D01*
X12598856Y-3716096D01*
X12694606Y-4508356D02*
X12694606Y-4437644D01*
X12623894Y-4437644D01*
X12623894Y-4508356D01*
X12694606Y-4508356D01*
X12694606Y-7052356D02*
X12694606Y-6981644D01*
X12623894Y-6981644D01*
X12623894Y-7052356D01*
X12694606Y-7052356D01*
X12694606Y-7656356D02*
X12694606Y-7585644D01*
X12623894Y-7585644D01*
X12623894Y-7656356D01*
X12694606Y-7656356D01*
X12694606Y-10200356D02*
X12694606Y-10129644D01*
X12623894Y-10129644D01*
X12623894Y-10200356D01*
X12694606Y-10200356D01*
X12713356Y-3518096D02*
X12713356Y-3447384D01*
X12642644Y-3447384D01*
X12642644Y-3518096D01*
X12713356Y-3518096D01*
X12713356Y-3914096D02*
X12713356Y-3843384D01*
X12642644Y-3843384D01*
X12642644Y-3914096D01*
X12713356Y-3914096D01*
X12773356Y-14135356D02*
X12773356Y-14064644D01*
X12702644Y-14064644D01*
X12702644Y-14135356D01*
X12773356Y-14135356D01*
X12773356Y-14389356D02*
X12773356Y-14318644D01*
X12702644Y-14318644D01*
X12702644Y-14389356D01*
X12773356Y-14389356D01*
X12948606Y-4508356D02*
X12948606Y-4437644D01*
X12877894Y-4437644D01*
X12877894Y-4508356D01*
X12948606Y-4508356D01*
X12948606Y-7052356D02*
X12948606Y-6981644D01*
X12877894Y-6981644D01*
X12877894Y-7052356D01*
X12948606Y-7052356D01*
X12948606Y-7656356D02*
X12948606Y-7585644D01*
X12877894Y-7585644D01*
X12877894Y-7656356D01*
X12948606Y-7656356D01*
X12948606Y-10200356D02*
X12948606Y-10129644D01*
X12877894Y-10129644D01*
X12877894Y-10200356D01*
X12948606Y-10200356D01*
X13027356Y-14135356D02*
X13027356Y-14064644D01*
X12956644Y-14064644D01*
X12956644Y-14135356D01*
X13027356Y-14135356D01*
X13027356Y-14389356D02*
X13027356Y-14318644D01*
X12956644Y-14318644D01*
X12956644Y-14389356D01*
X13027356Y-14389356D01*
X13202606Y-4508356D02*
X13202606Y-4437644D01*
X13131894Y-4437644D01*
X13131894Y-4508356D01*
X13202606Y-4508356D01*
X13202606Y-7052356D02*
X13202606Y-6981644D01*
X13131894Y-6981644D01*
X13131894Y-7052356D01*
X13202606Y-7052356D01*
X13202606Y-7656356D02*
X13202606Y-7585644D01*
X13131894Y-7585644D01*
X13131894Y-7656356D01*
X13202606Y-7656356D01*
X13202606Y-10200356D02*
X13202606Y-10129644D01*
X13131894Y-10129644D01*
X13131894Y-10200356D01*
X13202606Y-10200356D01*
X13281356Y-14135356D02*
X13281356Y-14064644D01*
X13210644Y-14064644D01*
X13210644Y-14135356D01*
X13281356Y-14135356D01*
X13281356Y-14389356D02*
X13281356Y-14318644D01*
X13210644Y-14318644D01*
X13210644Y-14389356D01*
X13281356Y-14389356D01*
X13535356Y-14135356D02*
X13535356Y-14064644D01*
X13464644Y-14064644D01*
X13464644Y-14135356D01*
X13535356Y-14135356D01*
X13535356Y-14389356D02*
X13535356Y-14318644D01*
X13464644Y-14318644D01*
X13464644Y-14389356D01*
X13535356Y-14389356D01*
D16*
X4826000Y-14025000D02*
X4881000Y-13970000D01*
X4826000Y-13915000D01*
X4771000Y-13970000D01*
X4826000Y-14025000D01*
X4826000Y-14355000D02*
X4881000Y-14300000D01*
X4826000Y-14245000D01*
X4771000Y-14300000D01*
X4826000Y-14355000D01*
X5842000Y-14025000D02*
X5897000Y-13970000D01*
X5842000Y-13915000D01*
X5787000Y-13970000D01*
X5842000Y-14025000D01*
X5842000Y-14355000D02*
X5897000Y-14300000D01*
X5842000Y-14245000D01*
X5787000Y-14300000D01*
X5842000Y-14355000D01*
D17*
X4690000Y-3290000D02*
X4910000Y-3510000D01*
X4910000Y-3290000D02*
X4690000Y-3510000D01*
X4910000Y-3400000D02*
G75*
G03*
X4910000Y-3400000I-110000J0D01*
G01*
X14090000Y-3290000D02*
X14310000Y-3510000D01*
X14310000Y-3290000D02*
X14090000Y-3510000D01*
X14310000Y-3400000D02*
G75*
G03*
X14310000Y-3400000I-110000J0D01*
G01*
D18*
X10783500Y-3513740D02*
X11103500Y-3833740D01*
X11103500Y-3513740D02*
X10783500Y-3833740D01*
X10943500Y-3513740D02*
X10943500Y-3833740D01*
X10783500Y-3673740D02*
X11103500Y-3673740D01*
X13283500Y-3513740D02*
X13603500Y-3833740D01*
X13603500Y-3513740D02*
X13283500Y-3833740D01*
X13443500Y-3513740D02*
X13443500Y-3833740D01*
X13283500Y-3673740D02*
X13603500Y-3673740D01*
D11*
X4750119Y-14917976D02*
X4750119Y-14717976D01*
X4797738Y-14717976D01*
X4826310Y-14727500D01*
X4845357Y-14746548D01*
X4854881Y-14765595D01*
X4864405Y-14803690D01*
X4864405Y-14832262D01*
X4854881Y-14870357D01*
X4845357Y-14889405D01*
X4826310Y-14908452D01*
X4797738Y-14917976D01*
X4750119Y-14917976D01*
X4950119Y-14917976D02*
X4950119Y-14784643D01*
X4950119Y-14822738D02*
X4959643Y-14803690D01*
X4969167Y-14794167D01*
X4988214Y-14784643D01*
X5007262Y-14784643D01*
X5073929Y-14917976D02*
X5073929Y-14784643D01*
X5073929Y-14717976D02*
X5064405Y-14727500D01*
X5073929Y-14737024D01*
X5083452Y-14727500D01*
X5073929Y-14717976D01*
X5073929Y-14737024D01*
X5197738Y-14917976D02*
X5178690Y-14908452D01*
X5169167Y-14889405D01*
X5169167Y-14717976D01*
X5302500Y-14917976D02*
X5283452Y-14908452D01*
X5273929Y-14889405D01*
X5273929Y-14717976D01*
X5531071Y-14917976D02*
X5531071Y-14717976D01*
X5597738Y-14860833D01*
X5664405Y-14717976D01*
X5664405Y-14917976D01*
X5845357Y-14917976D02*
X5845357Y-14813214D01*
X5835833Y-14794167D01*
X5816786Y-14784643D01*
X5778690Y-14784643D01*
X5759643Y-14794167D01*
X5845357Y-14908452D02*
X5826309Y-14917976D01*
X5778690Y-14917976D01*
X5759643Y-14908452D01*
X5750119Y-14889405D01*
X5750119Y-14870357D01*
X5759643Y-14851309D01*
X5778690Y-14841786D01*
X5826309Y-14841786D01*
X5845357Y-14832262D01*
X5940595Y-14784643D02*
X5940595Y-14984643D01*
X5940595Y-14794167D02*
X5959643Y-14784643D01*
X5997738Y-14784643D01*
X6016786Y-14794167D01*
X6026309Y-14803690D01*
X6035833Y-14822738D01*
X6035833Y-14879881D01*
X6026309Y-14898928D01*
X6016786Y-14908452D01*
X5997738Y-14917976D01*
X5959643Y-14917976D01*
X5940595Y-14908452D01*
X6121548Y-14898928D02*
X6131071Y-14908452D01*
X6121548Y-14917976D01*
X6112024Y-14908452D01*
X6121548Y-14898928D01*
X6121548Y-14917976D01*
X6121548Y-14794167D02*
X6131071Y-14803690D01*
X6121548Y-14813214D01*
X6112024Y-14803690D01*
X6121548Y-14794167D01*
X6121548Y-14813214D01*
D12*
X4452500Y-15227500D02*
X4492500Y-15267500D01*
X4492500Y-15227500D02*
X4452500Y-15267500D01*
D11*
X4788214Y-15137976D02*
X4807262Y-15137976D01*
X4826310Y-15147500D01*
X4835833Y-15157024D01*
X4845357Y-15176071D01*
X4854881Y-15214167D01*
X4854881Y-15261786D01*
X4845357Y-15299881D01*
X4835833Y-15318928D01*
X4826310Y-15328452D01*
X4807262Y-15337976D01*
X4788214Y-15337976D01*
X4769167Y-15328452D01*
X4759643Y-15318928D01*
X4750119Y-15299881D01*
X4740595Y-15261786D01*
X4740595Y-15214167D01*
X4750119Y-15176071D01*
X4759643Y-15157024D01*
X4769167Y-15147500D01*
X4788214Y-15137976D01*
X4940595Y-15318928D02*
X4950119Y-15328452D01*
X4940595Y-15337976D01*
X4931071Y-15328452D01*
X4940595Y-15318928D01*
X4940595Y-15337976D01*
X5121548Y-15204643D02*
X5121548Y-15337976D01*
X5073929Y-15128452D02*
X5026310Y-15271309D01*
X5150119Y-15271309D01*
X5264405Y-15137976D02*
X5283452Y-15137976D01*
X5302500Y-15147500D01*
X5312024Y-15157024D01*
X5321548Y-15176071D01*
X5331071Y-15214167D01*
X5331071Y-15261786D01*
X5321548Y-15299881D01*
X5312024Y-15318928D01*
X5302500Y-15328452D01*
X5283452Y-15337976D01*
X5264405Y-15337976D01*
X5245357Y-15328452D01*
X5235833Y-15318928D01*
X5226310Y-15299881D01*
X5216786Y-15261786D01*
X5216786Y-15214167D01*
X5226310Y-15176071D01*
X5235833Y-15157024D01*
X5245357Y-15147500D01*
X5264405Y-15137976D01*
X5454881Y-15137976D02*
X5473929Y-15137976D01*
X5492976Y-15147500D01*
X5502500Y-15157024D01*
X5512024Y-15176071D01*
X5521548Y-15214167D01*
X5521548Y-15261786D01*
X5512024Y-15299881D01*
X5502500Y-15318928D01*
X5492976Y-15328452D01*
X5473929Y-15337976D01*
X5454881Y-15337976D01*
X5435833Y-15328452D01*
X5426310Y-15318928D01*
X5416786Y-15299881D01*
X5407262Y-15261786D01*
X5407262Y-15214167D01*
X5416786Y-15176071D01*
X5426310Y-15157024D01*
X5435833Y-15147500D01*
X5454881Y-15137976D01*
X5607262Y-15337976D02*
X5607262Y-15204643D01*
X5607262Y-15223690D02*
X5616786Y-15214167D01*
X5635833Y-15204643D01*
X5664405Y-15204643D01*
X5683452Y-15214167D01*
X5692976Y-15233214D01*
X5692976Y-15337976D01*
X5692976Y-15233214D02*
X5702500Y-15214167D01*
X5721548Y-15204643D01*
X5750119Y-15204643D01*
X5769167Y-15214167D01*
X5778690Y-15233214D01*
X5778690Y-15337976D01*
X5873928Y-15337976D02*
X5873928Y-15204643D01*
X5873928Y-15223690D02*
X5883452Y-15214167D01*
X5902500Y-15204643D01*
X5931071Y-15204643D01*
X5950119Y-15214167D01*
X5959643Y-15233214D01*
X5959643Y-15337976D01*
X5959643Y-15233214D02*
X5969167Y-15214167D01*
X5988214Y-15204643D01*
X6016786Y-15204643D01*
X6035833Y-15214167D01*
X6045357Y-15233214D01*
X6045357Y-15337976D01*
X6435833Y-15128452D02*
X6264405Y-15385595D01*
X6692976Y-15137976D02*
X6712024Y-15137976D01*
X6731071Y-15147500D01*
X6740595Y-15157024D01*
X6750119Y-15176071D01*
X6759643Y-15214167D01*
X6759643Y-15261786D01*
X6750119Y-15299881D01*
X6740595Y-15318928D01*
X6731071Y-15328452D01*
X6712024Y-15337976D01*
X6692976Y-15337976D01*
X6673928Y-15328452D01*
X6664405Y-15318928D01*
X6654881Y-15299881D01*
X6645357Y-15261786D01*
X6645357Y-15214167D01*
X6654881Y-15176071D01*
X6664405Y-15157024D01*
X6673928Y-15147500D01*
X6692976Y-15137976D01*
X6845357Y-15318928D02*
X6854881Y-15328452D01*
X6845357Y-15337976D01*
X6835833Y-15328452D01*
X6845357Y-15318928D01*
X6845357Y-15337976D01*
X6978690Y-15137976D02*
X6997738Y-15137976D01*
X7016786Y-15147500D01*
X7026309Y-15157024D01*
X7035833Y-15176071D01*
X7045357Y-15214167D01*
X7045357Y-15261786D01*
X7035833Y-15299881D01*
X7026309Y-15318928D01*
X7016786Y-15328452D01*
X6997738Y-15337976D01*
X6978690Y-15337976D01*
X6959643Y-15328452D01*
X6950119Y-15318928D01*
X6940595Y-15299881D01*
X6931071Y-15261786D01*
X6931071Y-15214167D01*
X6940595Y-15176071D01*
X6950119Y-15157024D01*
X6959643Y-15147500D01*
X6978690Y-15137976D01*
X7235833Y-15337976D02*
X7121548Y-15337976D01*
X7178690Y-15337976D02*
X7178690Y-15137976D01*
X7159643Y-15166548D01*
X7140595Y-15185595D01*
X7121548Y-15195119D01*
X7416786Y-15137976D02*
X7321548Y-15137976D01*
X7312024Y-15233214D01*
X7321548Y-15223690D01*
X7340595Y-15214167D01*
X7388214Y-15214167D01*
X7407262Y-15223690D01*
X7416786Y-15233214D01*
X7426309Y-15252262D01*
X7426309Y-15299881D01*
X7416786Y-15318928D01*
X7407262Y-15328452D01*
X7388214Y-15337976D01*
X7340595Y-15337976D01*
X7321548Y-15328452D01*
X7312024Y-15318928D01*
X7492976Y-15137976D02*
X7626309Y-15137976D01*
X7540595Y-15337976D01*
X7692976Y-15137976D02*
X7692976Y-15176071D01*
X7769167Y-15137976D02*
X7769167Y-15176071D01*
X8064405Y-15414167D02*
X8054881Y-15404643D01*
X8035833Y-15376071D01*
X8026309Y-15357024D01*
X8016786Y-15328452D01*
X8007262Y-15280833D01*
X8007262Y-15242738D01*
X8016786Y-15195119D01*
X8026309Y-15166548D01*
X8035833Y-15147500D01*
X8054881Y-15118928D01*
X8064405Y-15109405D01*
X8245357Y-15337976D02*
X8131071Y-15337976D01*
X8188214Y-15337976D02*
X8188214Y-15137976D01*
X8169167Y-15166548D01*
X8150119Y-15185595D01*
X8131071Y-15195119D01*
X8435833Y-15337976D02*
X8321548Y-15337976D01*
X8378690Y-15337976D02*
X8378690Y-15137976D01*
X8359643Y-15166548D01*
X8340595Y-15185595D01*
X8321548Y-15195119D01*
X8626310Y-15337976D02*
X8512024Y-15337976D01*
X8569167Y-15337976D02*
X8569167Y-15137976D01*
X8550119Y-15166548D01*
X8531071Y-15185595D01*
X8512024Y-15195119D01*
X8864405Y-15337976D02*
X8864405Y-15137976D01*
X8950119Y-15337976D02*
X8950119Y-15233214D01*
X8940595Y-15214167D01*
X8921548Y-15204643D01*
X8892976Y-15204643D01*
X8873929Y-15214167D01*
X8864405Y-15223690D01*
X9073929Y-15337976D02*
X9054881Y-15328452D01*
X9045357Y-15318928D01*
X9035833Y-15299881D01*
X9035833Y-15242738D01*
X9045357Y-15223690D01*
X9054881Y-15214167D01*
X9073929Y-15204643D01*
X9102500Y-15204643D01*
X9121548Y-15214167D01*
X9131071Y-15223690D01*
X9140595Y-15242738D01*
X9140595Y-15299881D01*
X9131071Y-15318928D01*
X9121548Y-15328452D01*
X9102500Y-15337976D01*
X9073929Y-15337976D01*
X9254881Y-15337976D02*
X9235833Y-15328452D01*
X9226310Y-15309405D01*
X9226310Y-15137976D01*
X9407262Y-15328452D02*
X9388214Y-15337976D01*
X9350119Y-15337976D01*
X9331071Y-15328452D01*
X9321548Y-15309405D01*
X9321548Y-15233214D01*
X9331071Y-15214167D01*
X9350119Y-15204643D01*
X9388214Y-15204643D01*
X9407262Y-15214167D01*
X9416786Y-15233214D01*
X9416786Y-15252262D01*
X9321548Y-15271309D01*
X9492976Y-15328452D02*
X9512024Y-15337976D01*
X9550119Y-15337976D01*
X9569167Y-15328452D01*
X9578690Y-15309405D01*
X9578690Y-15299881D01*
X9569167Y-15280833D01*
X9550119Y-15271309D01*
X9521548Y-15271309D01*
X9502500Y-15261786D01*
X9492976Y-15242738D01*
X9492976Y-15233214D01*
X9502500Y-15214167D01*
X9521548Y-15204643D01*
X9550119Y-15204643D01*
X9569167Y-15214167D01*
X9645357Y-15414167D02*
X9654881Y-15404643D01*
X9673929Y-15376071D01*
X9683452Y-15357024D01*
X9692976Y-15328452D01*
X9702500Y-15280833D01*
X9702500Y-15242738D01*
X9692976Y-15195119D01*
X9683452Y-15166548D01*
X9673929Y-15147500D01*
X9654881Y-15118928D01*
X9645357Y-15109405D01*
D13*
X4492500Y-15511500D02*
G75*
G03*
X4492500Y-15511500I-40000J0D01*
G01*
D11*
X4788214Y-15401976D02*
X4807262Y-15401976D01*
X4826310Y-15411500D01*
X4835833Y-15421024D01*
X4845357Y-15440071D01*
X4854881Y-15478167D01*
X4854881Y-15525786D01*
X4845357Y-15563881D01*
X4835833Y-15582928D01*
X4826310Y-15592452D01*
X4807262Y-15601976D01*
X4788214Y-15601976D01*
X4769167Y-15592452D01*
X4759643Y-15582928D01*
X4750119Y-15563881D01*
X4740595Y-15525786D01*
X4740595Y-15478167D01*
X4750119Y-15440071D01*
X4759643Y-15421024D01*
X4769167Y-15411500D01*
X4788214Y-15401976D01*
X4940595Y-15582928D02*
X4950119Y-15592452D01*
X4940595Y-15601976D01*
X4931071Y-15592452D01*
X4940595Y-15582928D01*
X4940595Y-15601976D01*
X5064405Y-15487690D02*
X5045357Y-15478167D01*
X5035833Y-15468643D01*
X5026310Y-15449595D01*
X5026310Y-15440071D01*
X5035833Y-15421024D01*
X5045357Y-15411500D01*
X5064405Y-15401976D01*
X5102500Y-15401976D01*
X5121548Y-15411500D01*
X5131071Y-15421024D01*
X5140595Y-15440071D01*
X5140595Y-15449595D01*
X5131071Y-15468643D01*
X5121548Y-15478167D01*
X5102500Y-15487690D01*
X5064405Y-15487690D01*
X5045357Y-15497214D01*
X5035833Y-15506738D01*
X5026310Y-15525786D01*
X5026310Y-15563881D01*
X5035833Y-15582928D01*
X5045357Y-15592452D01*
X5064405Y-15601976D01*
X5102500Y-15601976D01*
X5121548Y-15592452D01*
X5131071Y-15582928D01*
X5140595Y-15563881D01*
X5140595Y-15525786D01*
X5131071Y-15506738D01*
X5121548Y-15497214D01*
X5102500Y-15487690D01*
X5264405Y-15401976D02*
X5283452Y-15401976D01*
X5302500Y-15411500D01*
X5312024Y-15421024D01*
X5321548Y-15440071D01*
X5331071Y-15478167D01*
X5331071Y-15525786D01*
X5321548Y-15563881D01*
X5312024Y-15582928D01*
X5302500Y-15592452D01*
X5283452Y-15601976D01*
X5264405Y-15601976D01*
X5245357Y-15592452D01*
X5235833Y-15582928D01*
X5226310Y-15563881D01*
X5216786Y-15525786D01*
X5216786Y-15478167D01*
X5226310Y-15440071D01*
X5235833Y-15421024D01*
X5245357Y-15411500D01*
X5264405Y-15401976D01*
X5454881Y-15401976D02*
X5473929Y-15401976D01*
X5492976Y-15411500D01*
X5502500Y-15421024D01*
X5512024Y-15440071D01*
X5521548Y-15478167D01*
X5521548Y-15525786D01*
X5512024Y-15563881D01*
X5502500Y-15582928D01*
X5492976Y-15592452D01*
X5473929Y-15601976D01*
X5454881Y-15601976D01*
X5435833Y-15592452D01*
X5426310Y-15582928D01*
X5416786Y-15563881D01*
X5407262Y-15525786D01*
X5407262Y-15478167D01*
X5416786Y-15440071D01*
X5426310Y-15421024D01*
X5435833Y-15411500D01*
X5454881Y-15401976D01*
X5607262Y-15601976D02*
X5607262Y-15468643D01*
X5607262Y-15487690D02*
X5616786Y-15478167D01*
X5635833Y-15468643D01*
X5664405Y-15468643D01*
X5683452Y-15478167D01*
X5692976Y-15497214D01*
X5692976Y-15601976D01*
X5692976Y-15497214D02*
X5702500Y-15478167D01*
X5721548Y-15468643D01*
X5750119Y-15468643D01*
X5769167Y-15478167D01*
X5778690Y-15497214D01*
X5778690Y-15601976D01*
X5873928Y-15601976D02*
X5873928Y-15468643D01*
X5873928Y-15487690D02*
X5883452Y-15478167D01*
X5902500Y-15468643D01*
X5931071Y-15468643D01*
X5950119Y-15478167D01*
X5959643Y-15497214D01*
X5959643Y-15601976D01*
X5959643Y-15497214D02*
X5969167Y-15478167D01*
X5988214Y-15468643D01*
X6016786Y-15468643D01*
X6035833Y-15478167D01*
X6045357Y-15497214D01*
X6045357Y-15601976D01*
X6435833Y-15392452D02*
X6264405Y-15649595D01*
X6692976Y-15401976D02*
X6712024Y-15401976D01*
X6731071Y-15411500D01*
X6740595Y-15421024D01*
X6750119Y-15440071D01*
X6759643Y-15478167D01*
X6759643Y-15525786D01*
X6750119Y-15563881D01*
X6740595Y-15582928D01*
X6731071Y-15592452D01*
X6712024Y-15601976D01*
X6692976Y-15601976D01*
X6673928Y-15592452D01*
X6664405Y-15582928D01*
X6654881Y-15563881D01*
X6645357Y-15525786D01*
X6645357Y-15478167D01*
X6654881Y-15440071D01*
X6664405Y-15421024D01*
X6673928Y-15411500D01*
X6692976Y-15401976D01*
X6845357Y-15582928D02*
X6854881Y-15592452D01*
X6845357Y-15601976D01*
X6835833Y-15592452D01*
X6845357Y-15582928D01*
X6845357Y-15601976D01*
X6978690Y-15401976D02*
X6997738Y-15401976D01*
X7016786Y-15411500D01*
X7026309Y-15421024D01*
X7035833Y-15440071D01*
X7045357Y-15478167D01*
X7045357Y-15525786D01*
X7035833Y-15563881D01*
X7026309Y-15582928D01*
X7016786Y-15592452D01*
X6997738Y-15601976D01*
X6978690Y-15601976D01*
X6959643Y-15592452D01*
X6950119Y-15582928D01*
X6940595Y-15563881D01*
X6931071Y-15525786D01*
X6931071Y-15478167D01*
X6940595Y-15440071D01*
X6950119Y-15421024D01*
X6959643Y-15411500D01*
X6978690Y-15401976D01*
X7112024Y-15401976D02*
X7235833Y-15401976D01*
X7169167Y-15478167D01*
X7197738Y-15478167D01*
X7216786Y-15487690D01*
X7226309Y-15497214D01*
X7235833Y-15516262D01*
X7235833Y-15563881D01*
X7226309Y-15582928D01*
X7216786Y-15592452D01*
X7197738Y-15601976D01*
X7140595Y-15601976D01*
X7121548Y-15592452D01*
X7112024Y-15582928D01*
X7426309Y-15601976D02*
X7312024Y-15601976D01*
X7369167Y-15601976D02*
X7369167Y-15401976D01*
X7350119Y-15430548D01*
X7331071Y-15449595D01*
X7312024Y-15459119D01*
X7607262Y-15401976D02*
X7512024Y-15401976D01*
X7502500Y-15497214D01*
X7512024Y-15487690D01*
X7531071Y-15478167D01*
X7578690Y-15478167D01*
X7597738Y-15487690D01*
X7607262Y-15497214D01*
X7616786Y-15516262D01*
X7616786Y-15563881D01*
X7607262Y-15582928D01*
X7597738Y-15592452D01*
X7578690Y-15601976D01*
X7531071Y-15601976D01*
X7512024Y-15592452D01*
X7502500Y-15582928D01*
X7692976Y-15401976D02*
X7692976Y-15440071D01*
X7769167Y-15401976D02*
X7769167Y-15440071D01*
X8064405Y-15678167D02*
X8054881Y-15668643D01*
X8035833Y-15640071D01*
X8026309Y-15621024D01*
X8016786Y-15592452D01*
X8007262Y-15544833D01*
X8007262Y-15506738D01*
X8016786Y-15459119D01*
X8026309Y-15430548D01*
X8035833Y-15411500D01*
X8054881Y-15382928D01*
X8064405Y-15373405D01*
X8121548Y-15401976D02*
X8245357Y-15401976D01*
X8178690Y-15478167D01*
X8207262Y-15478167D01*
X8226309Y-15487690D01*
X8235833Y-15497214D01*
X8245357Y-15516262D01*
X8245357Y-15563881D01*
X8235833Y-15582928D01*
X8226309Y-15592452D01*
X8207262Y-15601976D01*
X8150119Y-15601976D01*
X8131071Y-15592452D01*
X8121548Y-15582928D01*
X8435833Y-15601976D02*
X8321548Y-15601976D01*
X8378690Y-15601976D02*
X8378690Y-15401976D01*
X8359643Y-15430548D01*
X8340595Y-15449595D01*
X8321548Y-15459119D01*
X8559643Y-15401976D02*
X8578690Y-15401976D01*
X8597738Y-15411500D01*
X8607262Y-15421024D01*
X8616786Y-15440071D01*
X8626310Y-15478167D01*
X8626310Y-15525786D01*
X8616786Y-15563881D01*
X8607262Y-15582928D01*
X8597738Y-15592452D01*
X8578690Y-15601976D01*
X8559643Y-15601976D01*
X8540595Y-15592452D01*
X8531071Y-15582928D01*
X8521548Y-15563881D01*
X8512024Y-15525786D01*
X8512024Y-15478167D01*
X8521548Y-15440071D01*
X8531071Y-15421024D01*
X8540595Y-15411500D01*
X8559643Y-15401976D01*
X8864405Y-15601976D02*
X8864405Y-15401976D01*
X8950119Y-15601976D02*
X8950119Y-15497214D01*
X8940595Y-15478167D01*
X8921548Y-15468643D01*
X8892976Y-15468643D01*
X8873929Y-15478167D01*
X8864405Y-15487690D01*
X9073929Y-15601976D02*
X9054881Y-15592452D01*
X9045357Y-15582928D01*
X9035833Y-15563881D01*
X9035833Y-15506738D01*
X9045357Y-15487690D01*
X9054881Y-15478167D01*
X9073929Y-15468643D01*
X9102500Y-15468643D01*
X9121548Y-15478167D01*
X9131071Y-15487690D01*
X9140595Y-15506738D01*
X9140595Y-15563881D01*
X9131071Y-15582928D01*
X9121548Y-15592452D01*
X9102500Y-15601976D01*
X9073929Y-15601976D01*
X9254881Y-15601976D02*
X9235833Y-15592452D01*
X9226310Y-15573405D01*
X9226310Y-15401976D01*
X9407262Y-15592452D02*
X9388214Y-15601976D01*
X9350119Y-15601976D01*
X9331071Y-15592452D01*
X9321548Y-15573405D01*
X9321548Y-15497214D01*
X9331071Y-15478167D01*
X9350119Y-15468643D01*
X9388214Y-15468643D01*
X9407262Y-15478167D01*
X9416786Y-15497214D01*
X9416786Y-15516262D01*
X9321548Y-15535309D01*
X9492976Y-15592452D02*
X9512024Y-15601976D01*
X9550119Y-15601976D01*
X9569167Y-15592452D01*
X9578690Y-15573405D01*
X9578690Y-15563881D01*
X9569167Y-15544833D01*
X9550119Y-15535309D01*
X9521548Y-15535309D01*
X9502500Y-15525786D01*
X9492976Y-15506738D01*
X9492976Y-15497214D01*
X9502500Y-15478167D01*
X9521548Y-15468643D01*
X9550119Y-15468643D01*
X9569167Y-15478167D01*
X9645357Y-15678167D02*
X9654881Y-15668643D01*
X9673929Y-15640071D01*
X9683452Y-15621024D01*
X9692976Y-15592452D01*
X9702500Y-15544833D01*
X9702500Y-15506738D01*
X9692976Y-15459119D01*
X9683452Y-15430548D01*
X9673929Y-15411500D01*
X9654881Y-15382928D01*
X9645357Y-15373405D01*
D14*
X4447500Y-15730500D02*
X4447500Y-15820500D01*
X4402500Y-15775500D02*
X4492500Y-15775500D01*
D11*
X4788214Y-15665976D02*
X4807262Y-15665976D01*
X4826310Y-15675500D01*
X4835833Y-15685024D01*
X4845357Y-15704071D01*
X4854881Y-15742167D01*
X4854881Y-15789786D01*
X4845357Y-15827881D01*
X4835833Y-15846928D01*
X4826310Y-15856452D01*
X4807262Y-15865976D01*
X4788214Y-15865976D01*
X4769167Y-15856452D01*
X4759643Y-15846928D01*
X4750119Y-15827881D01*
X4740595Y-15789786D01*
X4740595Y-15742167D01*
X4750119Y-15704071D01*
X4759643Y-15685024D01*
X4769167Y-15675500D01*
X4788214Y-15665976D01*
X4940595Y-15846928D02*
X4950119Y-15856452D01*
X4940595Y-15865976D01*
X4931071Y-15856452D01*
X4940595Y-15846928D01*
X4940595Y-15865976D01*
X5045357Y-15865976D02*
X5083452Y-15865976D01*
X5102500Y-15856452D01*
X5112024Y-15846928D01*
X5131071Y-15818357D01*
X5140595Y-15780262D01*
X5140595Y-15704071D01*
X5131071Y-15685024D01*
X5121548Y-15675500D01*
X5102500Y-15665976D01*
X5064405Y-15665976D01*
X5045357Y-15675500D01*
X5035833Y-15685024D01*
X5026310Y-15704071D01*
X5026310Y-15751690D01*
X5035833Y-15770738D01*
X5045357Y-15780262D01*
X5064405Y-15789786D01*
X5102500Y-15789786D01*
X5121548Y-15780262D01*
X5131071Y-15770738D01*
X5140595Y-15751690D01*
X5264405Y-15665976D02*
X5283452Y-15665976D01*
X5302500Y-15675500D01*
X5312024Y-15685024D01*
X5321548Y-15704071D01*
X5331071Y-15742167D01*
X5331071Y-15789786D01*
X5321548Y-15827881D01*
X5312024Y-15846928D01*
X5302500Y-15856452D01*
X5283452Y-15865976D01*
X5264405Y-15865976D01*
X5245357Y-15856452D01*
X5235833Y-15846928D01*
X5226310Y-15827881D01*
X5216786Y-15789786D01*
X5216786Y-15742167D01*
X5226310Y-15704071D01*
X5235833Y-15685024D01*
X5245357Y-15675500D01*
X5264405Y-15665976D01*
X5454881Y-15665976D02*
X5473929Y-15665976D01*
X5492976Y-15675500D01*
X5502500Y-15685024D01*
X5512024Y-15704071D01*
X5521548Y-15742167D01*
X5521548Y-15789786D01*
X5512024Y-15827881D01*
X5502500Y-15846928D01*
X5492976Y-15856452D01*
X5473929Y-15865976D01*
X5454881Y-15865976D01*
X5435833Y-15856452D01*
X5426310Y-15846928D01*
X5416786Y-15827881D01*
X5407262Y-15789786D01*
X5407262Y-15742167D01*
X5416786Y-15704071D01*
X5426310Y-15685024D01*
X5435833Y-15675500D01*
X5454881Y-15665976D01*
X5607262Y-15865976D02*
X5607262Y-15732643D01*
X5607262Y-15751690D02*
X5616786Y-15742167D01*
X5635833Y-15732643D01*
X5664405Y-15732643D01*
X5683452Y-15742167D01*
X5692976Y-15761214D01*
X5692976Y-15865976D01*
X5692976Y-15761214D02*
X5702500Y-15742167D01*
X5721548Y-15732643D01*
X5750119Y-15732643D01*
X5769167Y-15742167D01*
X5778690Y-15761214D01*
X5778690Y-15865976D01*
X5873928Y-15865976D02*
X5873928Y-15732643D01*
X5873928Y-15751690D02*
X5883452Y-15742167D01*
X5902500Y-15732643D01*
X5931071Y-15732643D01*
X5950119Y-15742167D01*
X5959643Y-15761214D01*
X5959643Y-15865976D01*
X5959643Y-15761214D02*
X5969167Y-15742167D01*
X5988214Y-15732643D01*
X6016786Y-15732643D01*
X6035833Y-15742167D01*
X6045357Y-15761214D01*
X6045357Y-15865976D01*
X6435833Y-15656452D02*
X6264405Y-15913595D01*
X6692976Y-15665976D02*
X6712024Y-15665976D01*
X6731071Y-15675500D01*
X6740595Y-15685024D01*
X6750119Y-15704071D01*
X6759643Y-15742167D01*
X6759643Y-15789786D01*
X6750119Y-15827881D01*
X6740595Y-15846928D01*
X6731071Y-15856452D01*
X6712024Y-15865976D01*
X6692976Y-15865976D01*
X6673928Y-15856452D01*
X6664405Y-15846928D01*
X6654881Y-15827881D01*
X6645357Y-15789786D01*
X6645357Y-15742167D01*
X6654881Y-15704071D01*
X6664405Y-15685024D01*
X6673928Y-15675500D01*
X6692976Y-15665976D01*
X6845357Y-15846928D02*
X6854881Y-15856452D01*
X6845357Y-15865976D01*
X6835833Y-15856452D01*
X6845357Y-15846928D01*
X6845357Y-15865976D01*
X6978690Y-15665976D02*
X6997738Y-15665976D01*
X7016786Y-15675500D01*
X7026309Y-15685024D01*
X7035833Y-15704071D01*
X7045357Y-15742167D01*
X7045357Y-15789786D01*
X7035833Y-15827881D01*
X7026309Y-15846928D01*
X7016786Y-15856452D01*
X6997738Y-15865976D01*
X6978690Y-15865976D01*
X6959643Y-15856452D01*
X6950119Y-15846928D01*
X6940595Y-15827881D01*
X6931071Y-15789786D01*
X6931071Y-15742167D01*
X6940595Y-15704071D01*
X6950119Y-15685024D01*
X6959643Y-15675500D01*
X6978690Y-15665976D01*
X7112024Y-15665976D02*
X7235833Y-15665976D01*
X7169167Y-15742167D01*
X7197738Y-15742167D01*
X7216786Y-15751690D01*
X7226309Y-15761214D01*
X7235833Y-15780262D01*
X7235833Y-15827881D01*
X7226309Y-15846928D01*
X7216786Y-15856452D01*
X7197738Y-15865976D01*
X7140595Y-15865976D01*
X7121548Y-15856452D01*
X7112024Y-15846928D01*
X7416786Y-15665976D02*
X7321548Y-15665976D01*
X7312024Y-15761214D01*
X7321548Y-15751690D01*
X7340595Y-15742167D01*
X7388214Y-15742167D01*
X7407262Y-15751690D01*
X7416786Y-15761214D01*
X7426309Y-15780262D01*
X7426309Y-15827881D01*
X7416786Y-15846928D01*
X7407262Y-15856452D01*
X7388214Y-15865976D01*
X7340595Y-15865976D01*
X7321548Y-15856452D01*
X7312024Y-15846928D01*
X7597738Y-15732643D02*
X7597738Y-15865976D01*
X7550119Y-15656452D02*
X7502500Y-15799309D01*
X7626309Y-15799309D01*
X7692976Y-15665976D02*
X7692976Y-15704071D01*
X7769167Y-15665976D02*
X7769167Y-15704071D01*
X8064405Y-15942167D02*
X8054881Y-15932643D01*
X8035833Y-15904071D01*
X8026309Y-15885024D01*
X8016786Y-15856452D01*
X8007262Y-15808833D01*
X8007262Y-15770738D01*
X8016786Y-15723119D01*
X8026309Y-15694548D01*
X8035833Y-15675500D01*
X8054881Y-15646928D01*
X8064405Y-15637405D01*
X8131071Y-15685024D02*
X8140595Y-15675500D01*
X8159643Y-15665976D01*
X8207262Y-15665976D01*
X8226309Y-15675500D01*
X8235833Y-15685024D01*
X8245357Y-15704071D01*
X8245357Y-15723119D01*
X8235833Y-15751690D01*
X8121548Y-15865976D01*
X8245357Y-15865976D01*
X8483452Y-15865976D02*
X8483452Y-15665976D01*
X8569167Y-15865976D02*
X8569167Y-15761214D01*
X8559643Y-15742167D01*
X8540595Y-15732643D01*
X8512024Y-15732643D01*
X8492976Y-15742167D01*
X8483452Y-15751690D01*
X8692976Y-15865976D02*
X8673929Y-15856452D01*
X8664405Y-15846928D01*
X8654881Y-15827881D01*
X8654881Y-15770738D01*
X8664405Y-15751690D01*
X8673929Y-15742167D01*
X8692976Y-15732643D01*
X8721548Y-15732643D01*
X8740595Y-15742167D01*
X8750119Y-15751690D01*
X8759643Y-15770738D01*
X8759643Y-15827881D01*
X8750119Y-15846928D01*
X8740595Y-15856452D01*
X8721548Y-15865976D01*
X8692976Y-15865976D01*
X8873929Y-15865976D02*
X8854881Y-15856452D01*
X8845357Y-15837405D01*
X8845357Y-15665976D01*
X9026310Y-15856452D02*
X9007262Y-15865976D01*
X8969167Y-15865976D01*
X8950119Y-15856452D01*
X8940595Y-15837405D01*
X8940595Y-15761214D01*
X8950119Y-15742167D01*
X8969167Y-15732643D01*
X9007262Y-15732643D01*
X9026310Y-15742167D01*
X9035833Y-15761214D01*
X9035833Y-15780262D01*
X8940595Y-15799309D01*
X9112024Y-15856452D02*
X9131071Y-15865976D01*
X9169167Y-15865976D01*
X9188214Y-15856452D01*
X9197738Y-15837405D01*
X9197738Y-15827881D01*
X9188214Y-15808833D01*
X9169167Y-15799309D01*
X9140595Y-15799309D01*
X9121548Y-15789786D01*
X9112024Y-15770738D01*
X9112024Y-15761214D01*
X9121548Y-15742167D01*
X9140595Y-15732643D01*
X9169167Y-15732643D01*
X9188214Y-15742167D01*
X9264405Y-15942167D02*
X9273929Y-15932643D01*
X9292976Y-15904071D01*
X9302500Y-15885024D01*
X9312024Y-15856452D01*
X9321548Y-15808833D01*
X9321548Y-15770738D01*
X9312024Y-15723119D01*
X9302500Y-15694548D01*
X9292976Y-15675500D01*
X9273929Y-15646928D01*
X9264405Y-15637405D01*
D15*
X4477856Y-16074856D02*
X4477856Y-16004144D01*
X4407144Y-16004144D01*
X4407144Y-16074856D01*
X4477856Y-16074856D01*
D11*
X4854881Y-16129976D02*
X4740595Y-16129976D01*
X4797738Y-16129976D02*
X4797738Y-15929976D01*
X4778690Y-15958548D01*
X4759643Y-15977595D01*
X4740595Y-15987119D01*
X4940595Y-16110928D02*
X4950119Y-16120452D01*
X4940595Y-16129976D01*
X4931071Y-16120452D01*
X4940595Y-16110928D01*
X4940595Y-16129976D01*
X5073929Y-15929976D02*
X5092976Y-15929976D01*
X5112024Y-15939500D01*
X5121548Y-15949024D01*
X5131071Y-15968071D01*
X5140595Y-16006167D01*
X5140595Y-16053786D01*
X5131071Y-16091881D01*
X5121548Y-16110928D01*
X5112024Y-16120452D01*
X5092976Y-16129976D01*
X5073929Y-16129976D01*
X5054881Y-16120452D01*
X5045357Y-16110928D01*
X5035833Y-16091881D01*
X5026310Y-16053786D01*
X5026310Y-16006167D01*
X5035833Y-15968071D01*
X5045357Y-15949024D01*
X5054881Y-15939500D01*
X5073929Y-15929976D01*
X5264405Y-15929976D02*
X5283452Y-15929976D01*
X5302500Y-15939500D01*
X5312024Y-15949024D01*
X5321548Y-15968071D01*
X5331071Y-16006167D01*
X5331071Y-16053786D01*
X5321548Y-16091881D01*
X5312024Y-16110928D01*
X5302500Y-16120452D01*
X5283452Y-16129976D01*
X5264405Y-16129976D01*
X5245357Y-16120452D01*
X5235833Y-16110928D01*
X5226310Y-16091881D01*
X5216786Y-16053786D01*
X5216786Y-16006167D01*
X5226310Y-15968071D01*
X5235833Y-15949024D01*
X5245357Y-15939500D01*
X5264405Y-15929976D01*
X5454881Y-15929976D02*
X5473929Y-15929976D01*
X5492976Y-15939500D01*
X5502500Y-15949024D01*
X5512024Y-15968071D01*
X5521548Y-16006167D01*
X5521548Y-16053786D01*
X5512024Y-16091881D01*
X5502500Y-16110928D01*
X5492976Y-16120452D01*
X5473929Y-16129976D01*
X5454881Y-16129976D01*
X5435833Y-16120452D01*
X5426310Y-16110928D01*
X5416786Y-16091881D01*
X5407262Y-16053786D01*
X5407262Y-16006167D01*
X5416786Y-15968071D01*
X5426310Y-15949024D01*
X5435833Y-15939500D01*
X5454881Y-15929976D01*
X5607262Y-16129976D02*
X5607262Y-15996643D01*
X5607262Y-16015690D02*
X5616786Y-16006167D01*
X5635833Y-15996643D01*
X5664405Y-15996643D01*
X5683452Y-16006167D01*
X5692976Y-16025214D01*
X5692976Y-16129976D01*
X5692976Y-16025214D02*
X5702500Y-16006167D01*
X5721548Y-15996643D01*
X5750119Y-15996643D01*
X5769167Y-16006167D01*
X5778690Y-16025214D01*
X5778690Y-16129976D01*
X5873928Y-16129976D02*
X5873928Y-15996643D01*
X5873928Y-16015690D02*
X5883452Y-16006167D01*
X5902500Y-15996643D01*
X5931071Y-15996643D01*
X5950119Y-16006167D01*
X5959643Y-16025214D01*
X5959643Y-16129976D01*
X5959643Y-16025214D02*
X5969167Y-16006167D01*
X5988214Y-15996643D01*
X6016786Y-15996643D01*
X6035833Y-16006167D01*
X6045357Y-16025214D01*
X6045357Y-16129976D01*
X6435833Y-15920452D02*
X6264405Y-16177595D01*
X6692976Y-15929976D02*
X6712024Y-15929976D01*
X6731071Y-15939500D01*
X6740595Y-15949024D01*
X6750119Y-15968071D01*
X6759643Y-16006167D01*
X6759643Y-16053786D01*
X6750119Y-16091881D01*
X6740595Y-16110928D01*
X6731071Y-16120452D01*
X6712024Y-16129976D01*
X6692976Y-16129976D01*
X6673928Y-16120452D01*
X6664405Y-16110928D01*
X6654881Y-16091881D01*
X6645357Y-16053786D01*
X6645357Y-16006167D01*
X6654881Y-15968071D01*
X6664405Y-15949024D01*
X6673928Y-15939500D01*
X6692976Y-15929976D01*
X6845357Y-16110928D02*
X6854881Y-16120452D01*
X6845357Y-16129976D01*
X6835833Y-16120452D01*
X6845357Y-16110928D01*
X6845357Y-16129976D01*
X6978690Y-15929976D02*
X6997738Y-15929976D01*
X7016786Y-15939500D01*
X7026309Y-15949024D01*
X7035833Y-15968071D01*
X7045357Y-16006167D01*
X7045357Y-16053786D01*
X7035833Y-16091881D01*
X7026309Y-16110928D01*
X7016786Y-16120452D01*
X6997738Y-16129976D01*
X6978690Y-16129976D01*
X6959643Y-16120452D01*
X6950119Y-16110928D01*
X6940595Y-16091881D01*
X6931071Y-16053786D01*
X6931071Y-16006167D01*
X6940595Y-15968071D01*
X6950119Y-15949024D01*
X6959643Y-15939500D01*
X6978690Y-15929976D01*
X7112024Y-15929976D02*
X7235833Y-15929976D01*
X7169167Y-16006167D01*
X7197738Y-16006167D01*
X7216786Y-16015690D01*
X7226309Y-16025214D01*
X7235833Y-16044262D01*
X7235833Y-16091881D01*
X7226309Y-16110928D01*
X7216786Y-16120452D01*
X7197738Y-16129976D01*
X7140595Y-16129976D01*
X7121548Y-16120452D01*
X7112024Y-16110928D01*
X7331071Y-16129976D02*
X7369167Y-16129976D01*
X7388214Y-16120452D01*
X7397738Y-16110928D01*
X7416786Y-16082357D01*
X7426309Y-16044262D01*
X7426309Y-15968071D01*
X7416786Y-15949024D01*
X7407262Y-15939500D01*
X7388214Y-15929976D01*
X7350119Y-15929976D01*
X7331071Y-15939500D01*
X7321548Y-15949024D01*
X7312024Y-15968071D01*
X7312024Y-16015690D01*
X7321548Y-16034738D01*
X7331071Y-16044262D01*
X7350119Y-16053786D01*
X7388214Y-16053786D01*
X7407262Y-16044262D01*
X7416786Y-16034738D01*
X7426309Y-16015690D01*
X7597738Y-15996643D02*
X7597738Y-16129976D01*
X7550119Y-15920452D02*
X7502500Y-16063309D01*
X7626309Y-16063309D01*
X7692976Y-15929976D02*
X7692976Y-15968071D01*
X7769167Y-15929976D02*
X7769167Y-15968071D01*
X8064405Y-16206167D02*
X8054881Y-16196643D01*
X8035833Y-16168071D01*
X8026309Y-16149024D01*
X8016786Y-16120452D01*
X8007262Y-16072833D01*
X8007262Y-16034738D01*
X8016786Y-15987119D01*
X8026309Y-15958548D01*
X8035833Y-15939500D01*
X8054881Y-15910928D01*
X8064405Y-15901405D01*
X8245357Y-16129976D02*
X8131071Y-16129976D01*
X8188214Y-16129976D02*
X8188214Y-15929976D01*
X8169167Y-15958548D01*
X8150119Y-15977595D01*
X8131071Y-15987119D01*
X8416786Y-15996643D02*
X8416786Y-16129976D01*
X8369167Y-15920452D02*
X8321548Y-16063309D01*
X8445357Y-16063309D01*
X8502500Y-15929976D02*
X8626310Y-15929976D01*
X8559643Y-16006167D01*
X8588214Y-16006167D01*
X8607262Y-16015690D01*
X8616786Y-16025214D01*
X8626310Y-16044262D01*
X8626310Y-16091881D01*
X8616786Y-16110928D01*
X8607262Y-16120452D01*
X8588214Y-16129976D01*
X8531071Y-16129976D01*
X8512024Y-16120452D01*
X8502500Y-16110928D01*
X8864405Y-16129976D02*
X8864405Y-15929976D01*
X8950119Y-16129976D02*
X8950119Y-16025214D01*
X8940595Y-16006167D01*
X8921548Y-15996643D01*
X8892976Y-15996643D01*
X8873929Y-16006167D01*
X8864405Y-16015690D01*
X9073929Y-16129976D02*
X9054881Y-16120452D01*
X9045357Y-16110928D01*
X9035833Y-16091881D01*
X9035833Y-16034738D01*
X9045357Y-16015690D01*
X9054881Y-16006167D01*
X9073929Y-15996643D01*
X9102500Y-15996643D01*
X9121548Y-16006167D01*
X9131071Y-16015690D01*
X9140595Y-16034738D01*
X9140595Y-16091881D01*
X9131071Y-16110928D01*
X9121548Y-16120452D01*
X9102500Y-16129976D01*
X9073929Y-16129976D01*
X9254881Y-16129976D02*
X9235833Y-16120452D01*
X9226310Y-16101405D01*
X9226310Y-15929976D01*
X9407262Y-16120452D02*
X9388214Y-16129976D01*
X9350119Y-16129976D01*
X9331071Y-16120452D01*
X9321548Y-16101405D01*
X9321548Y-16025214D01*
X9331071Y-16006167D01*
X9350119Y-15996643D01*
X9388214Y-15996643D01*
X9407262Y-16006167D01*
X9416786Y-16025214D01*
X9416786Y-16044262D01*
X9321548Y-16063309D01*
X9492976Y-16120452D02*
X9512024Y-16129976D01*
X9550119Y-16129976D01*
X9569167Y-16120452D01*
X9578690Y-16101405D01*
X9578690Y-16091881D01*
X9569167Y-16072833D01*
X9550119Y-16063309D01*
X9521548Y-16063309D01*
X9502500Y-16053786D01*
X9492976Y-16034738D01*
X9492976Y-16025214D01*
X9502500Y-16006167D01*
X9521548Y-15996643D01*
X9550119Y-15996643D01*
X9569167Y-16006167D01*
X9645357Y-16206167D02*
X9654881Y-16196643D01*
X9673929Y-16168071D01*
X9683452Y-16149024D01*
X9692976Y-16120452D01*
X9702500Y-16072833D01*
X9702500Y-16034738D01*
X9692976Y-15987119D01*
X9683452Y-15958548D01*
X9673929Y-15939500D01*
X9654881Y-15910928D01*
X9645357Y-15901405D01*
D16*
X4437500Y-16358500D02*
X4492500Y-16303500D01*
X4437500Y-16248500D01*
X4382500Y-16303500D01*
X4437500Y-16358500D01*
D11*
X4854881Y-16393976D02*
X4740595Y-16393976D01*
X4797738Y-16393976D02*
X4797738Y-16193976D01*
X4778690Y-16222548D01*
X4759643Y-16241595D01*
X4740595Y-16251119D01*
X4940595Y-16374928D02*
X4950119Y-16384452D01*
X4940595Y-16393976D01*
X4931071Y-16384452D01*
X4940595Y-16374928D01*
X4940595Y-16393976D01*
X5140595Y-16393976D02*
X5026310Y-16393976D01*
X5083452Y-16393976D02*
X5083452Y-16193976D01*
X5064405Y-16222548D01*
X5045357Y-16241595D01*
X5026310Y-16251119D01*
X5264405Y-16193976D02*
X5283452Y-16193976D01*
X5302500Y-16203500D01*
X5312024Y-16213024D01*
X5321548Y-16232071D01*
X5331071Y-16270167D01*
X5331071Y-16317786D01*
X5321548Y-16355881D01*
X5312024Y-16374928D01*
X5302500Y-16384452D01*
X5283452Y-16393976D01*
X5264405Y-16393976D01*
X5245357Y-16384452D01*
X5235833Y-16374928D01*
X5226310Y-16355881D01*
X5216786Y-16317786D01*
X5216786Y-16270167D01*
X5226310Y-16232071D01*
X5235833Y-16213024D01*
X5245357Y-16203500D01*
X5264405Y-16193976D01*
X5454881Y-16193976D02*
X5473929Y-16193976D01*
X5492976Y-16203500D01*
X5502500Y-16213024D01*
X5512024Y-16232071D01*
X5521548Y-16270167D01*
X5521548Y-16317786D01*
X5512024Y-16355881D01*
X5502500Y-16374928D01*
X5492976Y-16384452D01*
X5473929Y-16393976D01*
X5454881Y-16393976D01*
X5435833Y-16384452D01*
X5426310Y-16374928D01*
X5416786Y-16355881D01*
X5407262Y-16317786D01*
X5407262Y-16270167D01*
X5416786Y-16232071D01*
X5426310Y-16213024D01*
X5435833Y-16203500D01*
X5454881Y-16193976D01*
X5607262Y-16393976D02*
X5607262Y-16260643D01*
X5607262Y-16279690D02*
X5616786Y-16270167D01*
X5635833Y-16260643D01*
X5664405Y-16260643D01*
X5683452Y-16270167D01*
X5692976Y-16289214D01*
X5692976Y-16393976D01*
X5692976Y-16289214D02*
X5702500Y-16270167D01*
X5721548Y-16260643D01*
X5750119Y-16260643D01*
X5769167Y-16270167D01*
X5778690Y-16289214D01*
X5778690Y-16393976D01*
X5873928Y-16393976D02*
X5873928Y-16260643D01*
X5873928Y-16279690D02*
X5883452Y-16270167D01*
X5902500Y-16260643D01*
X5931071Y-16260643D01*
X5950119Y-16270167D01*
X5959643Y-16289214D01*
X5959643Y-16393976D01*
X5959643Y-16289214D02*
X5969167Y-16270167D01*
X5988214Y-16260643D01*
X6016786Y-16260643D01*
X6035833Y-16270167D01*
X6045357Y-16289214D01*
X6045357Y-16393976D01*
X6435833Y-16184452D02*
X6264405Y-16441595D01*
X6692976Y-16193976D02*
X6712024Y-16193976D01*
X6731071Y-16203500D01*
X6740595Y-16213024D01*
X6750119Y-16232071D01*
X6759643Y-16270167D01*
X6759643Y-16317786D01*
X6750119Y-16355881D01*
X6740595Y-16374928D01*
X6731071Y-16384452D01*
X6712024Y-16393976D01*
X6692976Y-16393976D01*
X6673928Y-16384452D01*
X6664405Y-16374928D01*
X6654881Y-16355881D01*
X6645357Y-16317786D01*
X6645357Y-16270167D01*
X6654881Y-16232071D01*
X6664405Y-16213024D01*
X6673928Y-16203500D01*
X6692976Y-16193976D01*
X6845357Y-16374928D02*
X6854881Y-16384452D01*
X6845357Y-16393976D01*
X6835833Y-16384452D01*
X6845357Y-16374928D01*
X6845357Y-16393976D01*
X6978690Y-16193976D02*
X6997738Y-16193976D01*
X7016786Y-16203500D01*
X7026309Y-16213024D01*
X7035833Y-16232071D01*
X7045357Y-16270167D01*
X7045357Y-16317786D01*
X7035833Y-16355881D01*
X7026309Y-16374928D01*
X7016786Y-16384452D01*
X6997738Y-16393976D01*
X6978690Y-16393976D01*
X6959643Y-16384452D01*
X6950119Y-16374928D01*
X6940595Y-16355881D01*
X6931071Y-16317786D01*
X6931071Y-16270167D01*
X6940595Y-16232071D01*
X6950119Y-16213024D01*
X6959643Y-16203500D01*
X6978690Y-16193976D01*
X7216786Y-16260643D02*
X7216786Y-16393976D01*
X7169167Y-16184452D02*
X7121548Y-16327309D01*
X7245357Y-16327309D01*
X7302500Y-16193976D02*
X7426309Y-16193976D01*
X7359643Y-16270167D01*
X7388214Y-16270167D01*
X7407262Y-16279690D01*
X7416786Y-16289214D01*
X7426309Y-16308262D01*
X7426309Y-16355881D01*
X7416786Y-16374928D01*
X7407262Y-16384452D01*
X7388214Y-16393976D01*
X7331071Y-16393976D01*
X7312024Y-16384452D01*
X7302500Y-16374928D01*
X7492976Y-16193976D02*
X7616786Y-16193976D01*
X7550119Y-16270167D01*
X7578690Y-16270167D01*
X7597738Y-16279690D01*
X7607262Y-16289214D01*
X7616786Y-16308262D01*
X7616786Y-16355881D01*
X7607262Y-16374928D01*
X7597738Y-16384452D01*
X7578690Y-16393976D01*
X7521548Y-16393976D01*
X7502500Y-16384452D01*
X7492976Y-16374928D01*
X7692976Y-16193976D02*
X7692976Y-16232071D01*
X7769167Y-16193976D02*
X7769167Y-16232071D01*
X8064405Y-16470167D02*
X8054881Y-16460643D01*
X8035833Y-16432071D01*
X8026309Y-16413024D01*
X8016786Y-16384452D01*
X8007262Y-16336833D01*
X8007262Y-16298738D01*
X8016786Y-16251119D01*
X8026309Y-16222548D01*
X8035833Y-16203500D01*
X8054881Y-16174928D01*
X8064405Y-16165405D01*
X8226309Y-16260643D02*
X8226309Y-16393976D01*
X8178690Y-16184452D02*
X8131071Y-16327309D01*
X8254881Y-16327309D01*
X8483452Y-16393976D02*
X8483452Y-16193976D01*
X8569167Y-16393976D02*
X8569167Y-16289214D01*
X8559643Y-16270167D01*
X8540595Y-16260643D01*
X8512024Y-16260643D01*
X8492976Y-16270167D01*
X8483452Y-16279690D01*
X8692976Y-16393976D02*
X8673929Y-16384452D01*
X8664405Y-16374928D01*
X8654881Y-16355881D01*
X8654881Y-16298738D01*
X8664405Y-16279690D01*
X8673929Y-16270167D01*
X8692976Y-16260643D01*
X8721548Y-16260643D01*
X8740595Y-16270167D01*
X8750119Y-16279690D01*
X8759643Y-16298738D01*
X8759643Y-16355881D01*
X8750119Y-16374928D01*
X8740595Y-16384452D01*
X8721548Y-16393976D01*
X8692976Y-16393976D01*
X8873929Y-16393976D02*
X8854881Y-16384452D01*
X8845357Y-16365405D01*
X8845357Y-16193976D01*
X9026310Y-16384452D02*
X9007262Y-16393976D01*
X8969167Y-16393976D01*
X8950119Y-16384452D01*
X8940595Y-16365405D01*
X8940595Y-16289214D01*
X8950119Y-16270167D01*
X8969167Y-16260643D01*
X9007262Y-16260643D01*
X9026310Y-16270167D01*
X9035833Y-16289214D01*
X9035833Y-16308262D01*
X8940595Y-16327309D01*
X9112024Y-16384452D02*
X9131071Y-16393976D01*
X9169167Y-16393976D01*
X9188214Y-16384452D01*
X9197738Y-16365405D01*
X9197738Y-16355881D01*
X9188214Y-16336833D01*
X9169167Y-16327309D01*
X9140595Y-16327309D01*
X9121548Y-16317786D01*
X9112024Y-16298738D01*
X9112024Y-16289214D01*
X9121548Y-16270167D01*
X9140595Y-16260643D01*
X9169167Y-16260643D01*
X9188214Y-16270167D01*
X9264405Y-16470167D02*
X9273929Y-16460643D01*
X9292976Y-16432071D01*
X9302500Y-16413024D01*
X9312024Y-16384452D01*
X9321548Y-16336833D01*
X9321548Y-16298738D01*
X9312024Y-16251119D01*
X9302500Y-16222548D01*
X9292976Y-16203500D01*
X9273929Y-16174928D01*
X9264405Y-16165405D01*
X4292500Y-16467500D02*
X4492500Y-16667500D01*
X4492500Y-16467500D02*
X4292500Y-16667500D01*
X4492500Y-16567500D02*
G75*
G03*
X4492500Y-16567500I-100000J0D01*
G01*
X4740595Y-16477024D02*
X4750119Y-16467500D01*
X4769167Y-16457976D01*
X4816786Y-16457976D01*
X4835833Y-16467500D01*
X4845357Y-16477024D01*
X4854881Y-16496071D01*
X4854881Y-16515119D01*
X4845357Y-16543690D01*
X4731071Y-16657976D01*
X4854881Y-16657976D01*
X4940595Y-16638928D02*
X4950119Y-16648452D01*
X4940595Y-16657976D01*
X4931071Y-16648452D01*
X4940595Y-16638928D01*
X4940595Y-16657976D01*
X5026310Y-16477024D02*
X5035833Y-16467500D01*
X5054881Y-16457976D01*
X5102500Y-16457976D01*
X5121548Y-16467500D01*
X5131071Y-16477024D01*
X5140595Y-16496071D01*
X5140595Y-16515119D01*
X5131071Y-16543690D01*
X5016786Y-16657976D01*
X5140595Y-16657976D01*
X5264405Y-16457976D02*
X5283452Y-16457976D01*
X5302500Y-16467500D01*
X5312024Y-16477024D01*
X5321548Y-16496071D01*
X5331071Y-16534167D01*
X5331071Y-16581786D01*
X5321548Y-16619881D01*
X5312024Y-16638928D01*
X5302500Y-16648452D01*
X5283452Y-16657976D01*
X5264405Y-16657976D01*
X5245357Y-16648452D01*
X5235833Y-16638928D01*
X5226310Y-16619881D01*
X5216786Y-16581786D01*
X5216786Y-16534167D01*
X5226310Y-16496071D01*
X5235833Y-16477024D01*
X5245357Y-16467500D01*
X5264405Y-16457976D01*
X5454881Y-16457976D02*
X5473929Y-16457976D01*
X5492976Y-16467500D01*
X5502500Y-16477024D01*
X5512024Y-16496071D01*
X5521548Y-16534167D01*
X5521548Y-16581786D01*
X5512024Y-16619881D01*
X5502500Y-16638928D01*
X5492976Y-16648452D01*
X5473929Y-16657976D01*
X5454881Y-16657976D01*
X5435833Y-16648452D01*
X5426310Y-16638928D01*
X5416786Y-16619881D01*
X5407262Y-16581786D01*
X5407262Y-16534167D01*
X5416786Y-16496071D01*
X5426310Y-16477024D01*
X5435833Y-16467500D01*
X5454881Y-16457976D01*
X5607262Y-16657976D02*
X5607262Y-16524643D01*
X5607262Y-16543690D02*
X5616786Y-16534167D01*
X5635833Y-16524643D01*
X5664405Y-16524643D01*
X5683452Y-16534167D01*
X5692976Y-16553214D01*
X5692976Y-16657976D01*
X5692976Y-16553214D02*
X5702500Y-16534167D01*
X5721548Y-16524643D01*
X5750119Y-16524643D01*
X5769167Y-16534167D01*
X5778690Y-16553214D01*
X5778690Y-16657976D01*
X5873928Y-16657976D02*
X5873928Y-16524643D01*
X5873928Y-16543690D02*
X5883452Y-16534167D01*
X5902500Y-16524643D01*
X5931071Y-16524643D01*
X5950119Y-16534167D01*
X5959643Y-16553214D01*
X5959643Y-16657976D01*
X5959643Y-16553214D02*
X5969167Y-16534167D01*
X5988214Y-16524643D01*
X6016786Y-16524643D01*
X6035833Y-16534167D01*
X6045357Y-16553214D01*
X6045357Y-16657976D01*
X6435833Y-16448452D02*
X6264405Y-16705595D01*
X6692976Y-16457976D02*
X6712024Y-16457976D01*
X6731071Y-16467500D01*
X6740595Y-16477024D01*
X6750119Y-16496071D01*
X6759643Y-16534167D01*
X6759643Y-16581786D01*
X6750119Y-16619881D01*
X6740595Y-16638928D01*
X6731071Y-16648452D01*
X6712024Y-16657976D01*
X6692976Y-16657976D01*
X6673928Y-16648452D01*
X6664405Y-16638928D01*
X6654881Y-16619881D01*
X6645357Y-16581786D01*
X6645357Y-16534167D01*
X6654881Y-16496071D01*
X6664405Y-16477024D01*
X6673928Y-16467500D01*
X6692976Y-16457976D01*
X6845357Y-16638928D02*
X6854881Y-16648452D01*
X6845357Y-16657976D01*
X6835833Y-16648452D01*
X6845357Y-16638928D01*
X6845357Y-16657976D01*
X6978690Y-16457976D02*
X6997738Y-16457976D01*
X7016786Y-16467500D01*
X7026309Y-16477024D01*
X7035833Y-16496071D01*
X7045357Y-16534167D01*
X7045357Y-16581786D01*
X7035833Y-16619881D01*
X7026309Y-16638928D01*
X7016786Y-16648452D01*
X6997738Y-16657976D01*
X6978690Y-16657976D01*
X6959643Y-16648452D01*
X6950119Y-16638928D01*
X6940595Y-16619881D01*
X6931071Y-16581786D01*
X6931071Y-16534167D01*
X6940595Y-16496071D01*
X6950119Y-16477024D01*
X6959643Y-16467500D01*
X6978690Y-16457976D01*
X7159643Y-16543690D02*
X7140595Y-16534167D01*
X7131071Y-16524643D01*
X7121548Y-16505595D01*
X7121548Y-16496071D01*
X7131071Y-16477024D01*
X7140595Y-16467500D01*
X7159643Y-16457976D01*
X7197738Y-16457976D01*
X7216786Y-16467500D01*
X7226309Y-16477024D01*
X7235833Y-16496071D01*
X7235833Y-16505595D01*
X7226309Y-16524643D01*
X7216786Y-16534167D01*
X7197738Y-16543690D01*
X7159643Y-16543690D01*
X7140595Y-16553214D01*
X7131071Y-16562738D01*
X7121548Y-16581786D01*
X7121548Y-16619881D01*
X7131071Y-16638928D01*
X7140595Y-16648452D01*
X7159643Y-16657976D01*
X7197738Y-16657976D01*
X7216786Y-16648452D01*
X7226309Y-16638928D01*
X7235833Y-16619881D01*
X7235833Y-16581786D01*
X7226309Y-16562738D01*
X7216786Y-16553214D01*
X7197738Y-16543690D01*
X7407262Y-16457976D02*
X7369167Y-16457976D01*
X7350119Y-16467500D01*
X7340595Y-16477024D01*
X7321548Y-16505595D01*
X7312024Y-16543690D01*
X7312024Y-16619881D01*
X7321548Y-16638928D01*
X7331071Y-16648452D01*
X7350119Y-16657976D01*
X7388214Y-16657976D01*
X7407262Y-16648452D01*
X7416786Y-16638928D01*
X7426309Y-16619881D01*
X7426309Y-16572262D01*
X7416786Y-16553214D01*
X7407262Y-16543690D01*
X7388214Y-16534167D01*
X7350119Y-16534167D01*
X7331071Y-16543690D01*
X7321548Y-16553214D01*
X7312024Y-16572262D01*
X7597738Y-16457976D02*
X7559643Y-16457976D01*
X7540595Y-16467500D01*
X7531071Y-16477024D01*
X7512024Y-16505595D01*
X7502500Y-16543690D01*
X7502500Y-16619881D01*
X7512024Y-16638928D01*
X7521548Y-16648452D01*
X7540595Y-16657976D01*
X7578690Y-16657976D01*
X7597738Y-16648452D01*
X7607262Y-16638928D01*
X7616786Y-16619881D01*
X7616786Y-16572262D01*
X7607262Y-16553214D01*
X7597738Y-16543690D01*
X7578690Y-16534167D01*
X7540595Y-16534167D01*
X7521548Y-16543690D01*
X7512024Y-16553214D01*
X7502500Y-16572262D01*
X7692976Y-16457976D02*
X7692976Y-16496071D01*
X7769167Y-16457976D02*
X7769167Y-16496071D01*
X8064405Y-16734167D02*
X8054881Y-16724643D01*
X8035833Y-16696071D01*
X8026309Y-16677024D01*
X8016786Y-16648452D01*
X8007262Y-16600833D01*
X8007262Y-16562738D01*
X8016786Y-16515119D01*
X8026309Y-16486548D01*
X8035833Y-16467500D01*
X8054881Y-16438928D01*
X8064405Y-16429405D01*
X8131071Y-16477024D02*
X8140595Y-16467500D01*
X8159643Y-16457976D01*
X8207262Y-16457976D01*
X8226309Y-16467500D01*
X8235833Y-16477024D01*
X8245357Y-16496071D01*
X8245357Y-16515119D01*
X8235833Y-16543690D01*
X8121548Y-16657976D01*
X8245357Y-16657976D01*
X8483452Y-16657976D02*
X8483452Y-16457976D01*
X8569167Y-16657976D02*
X8569167Y-16553214D01*
X8559643Y-16534167D01*
X8540595Y-16524643D01*
X8512024Y-16524643D01*
X8492976Y-16534167D01*
X8483452Y-16543690D01*
X8692976Y-16657976D02*
X8673929Y-16648452D01*
X8664405Y-16638928D01*
X8654881Y-16619881D01*
X8654881Y-16562738D01*
X8664405Y-16543690D01*
X8673929Y-16534167D01*
X8692976Y-16524643D01*
X8721548Y-16524643D01*
X8740595Y-16534167D01*
X8750119Y-16543690D01*
X8759643Y-16562738D01*
X8759643Y-16619881D01*
X8750119Y-16638928D01*
X8740595Y-16648452D01*
X8721548Y-16657976D01*
X8692976Y-16657976D01*
X8873929Y-16657976D02*
X8854881Y-16648452D01*
X8845357Y-16629405D01*
X8845357Y-16457976D01*
X9026310Y-16648452D02*
X9007262Y-16657976D01*
X8969167Y-16657976D01*
X8950119Y-16648452D01*
X8940595Y-16629405D01*
X8940595Y-16553214D01*
X8950119Y-16534167D01*
X8969167Y-16524643D01*
X9007262Y-16524643D01*
X9026310Y-16534167D01*
X9035833Y-16553214D01*
X9035833Y-16572262D01*
X8940595Y-16591309D01*
X9112024Y-16648452D02*
X9131071Y-16657976D01*
X9169167Y-16657976D01*
X9188214Y-16648452D01*
X9197738Y-16629405D01*
X9197738Y-16619881D01*
X9188214Y-16600833D01*
X9169167Y-16591309D01*
X9140595Y-16591309D01*
X9121548Y-16581786D01*
X9112024Y-16562738D01*
X9112024Y-16553214D01*
X9121548Y-16534167D01*
X9140595Y-16524643D01*
X9169167Y-16524643D01*
X9188214Y-16534167D01*
X9264405Y-16734167D02*
X9273929Y-16724643D01*
X9292976Y-16696071D01*
X9302500Y-16677024D01*
X9312024Y-16648452D01*
X9321548Y-16600833D01*
X9321548Y-16562738D01*
X9312024Y-16515119D01*
X9302500Y-16486548D01*
X9292976Y-16467500D01*
X9273929Y-16438928D01*
X9264405Y-16429405D01*
X4292500Y-16787500D02*
X4492500Y-16987500D01*
X4492500Y-16787500D02*
X4292500Y-16987500D01*
X4392500Y-16787500D02*
X4392500Y-16987500D01*
X4292500Y-16887500D02*
X4492500Y-16887500D01*
X4731071Y-16777976D02*
X4854881Y-16777976D01*
X4788214Y-16854167D01*
X4816786Y-16854167D01*
X4835833Y-16863690D01*
X4845357Y-16873214D01*
X4854881Y-16892262D01*
X4854881Y-16939881D01*
X4845357Y-16958929D01*
X4835833Y-16968452D01*
X4816786Y-16977976D01*
X4759643Y-16977976D01*
X4740595Y-16968452D01*
X4731071Y-16958929D01*
X4940595Y-16958929D02*
X4950119Y-16968452D01*
X4940595Y-16977976D01*
X4931071Y-16968452D01*
X4940595Y-16958929D01*
X4940595Y-16977976D01*
X5026310Y-16797024D02*
X5035833Y-16787500D01*
X5054881Y-16777976D01*
X5102500Y-16777976D01*
X5121548Y-16787500D01*
X5131071Y-16797024D01*
X5140595Y-16816071D01*
X5140595Y-16835119D01*
X5131071Y-16863690D01*
X5016786Y-16977976D01*
X5140595Y-16977976D01*
X5264405Y-16777976D02*
X5283452Y-16777976D01*
X5302500Y-16787500D01*
X5312024Y-16797024D01*
X5321548Y-16816071D01*
X5331071Y-16854167D01*
X5331071Y-16901786D01*
X5321548Y-16939881D01*
X5312024Y-16958929D01*
X5302500Y-16968452D01*
X5283452Y-16977976D01*
X5264405Y-16977976D01*
X5245357Y-16968452D01*
X5235833Y-16958929D01*
X5226310Y-16939881D01*
X5216786Y-16901786D01*
X5216786Y-16854167D01*
X5226310Y-16816071D01*
X5235833Y-16797024D01*
X5245357Y-16787500D01*
X5264405Y-16777976D01*
X5454881Y-16777976D02*
X5473929Y-16777976D01*
X5492976Y-16787500D01*
X5502500Y-16797024D01*
X5512024Y-16816071D01*
X5521548Y-16854167D01*
X5521548Y-16901786D01*
X5512024Y-16939881D01*
X5502500Y-16958929D01*
X5492976Y-16968452D01*
X5473929Y-16977976D01*
X5454881Y-16977976D01*
X5435833Y-16968452D01*
X5426310Y-16958929D01*
X5416786Y-16939881D01*
X5407262Y-16901786D01*
X5407262Y-16854167D01*
X5416786Y-16816071D01*
X5426310Y-16797024D01*
X5435833Y-16787500D01*
X5454881Y-16777976D01*
X5607262Y-16977976D02*
X5607262Y-16844643D01*
X5607262Y-16863690D02*
X5616786Y-16854167D01*
X5635833Y-16844643D01*
X5664405Y-16844643D01*
X5683452Y-16854167D01*
X5692976Y-16873214D01*
X5692976Y-16977976D01*
X5692976Y-16873214D02*
X5702500Y-16854167D01*
X5721548Y-16844643D01*
X5750119Y-16844643D01*
X5769167Y-16854167D01*
X5778690Y-16873214D01*
X5778690Y-16977976D01*
X5873928Y-16977976D02*
X5873928Y-16844643D01*
X5873928Y-16863690D02*
X5883452Y-16854167D01*
X5902500Y-16844643D01*
X5931071Y-16844643D01*
X5950119Y-16854167D01*
X5959643Y-16873214D01*
X5959643Y-16977976D01*
X5959643Y-16873214D02*
X5969167Y-16854167D01*
X5988214Y-16844643D01*
X6016786Y-16844643D01*
X6035833Y-16854167D01*
X6045357Y-16873214D01*
X6045357Y-16977976D01*
X6435833Y-16768452D02*
X6264405Y-17025595D01*
X6692976Y-16777976D02*
X6712024Y-16777976D01*
X6731071Y-16787500D01*
X6740595Y-16797024D01*
X6750119Y-16816071D01*
X6759643Y-16854167D01*
X6759643Y-16901786D01*
X6750119Y-16939881D01*
X6740595Y-16958929D01*
X6731071Y-16968452D01*
X6712024Y-16977976D01*
X6692976Y-16977976D01*
X6673928Y-16968452D01*
X6664405Y-16958929D01*
X6654881Y-16939881D01*
X6645357Y-16901786D01*
X6645357Y-16854167D01*
X6654881Y-16816071D01*
X6664405Y-16797024D01*
X6673928Y-16787500D01*
X6692976Y-16777976D01*
X6845357Y-16958929D02*
X6854881Y-16968452D01*
X6845357Y-16977976D01*
X6835833Y-16968452D01*
X6845357Y-16958929D01*
X6845357Y-16977976D01*
X7045357Y-16977976D02*
X6931071Y-16977976D01*
X6988214Y-16977976D02*
X6988214Y-16777976D01*
X6969167Y-16806548D01*
X6950119Y-16825595D01*
X6931071Y-16835119D01*
X7121548Y-16797024D02*
X7131071Y-16787500D01*
X7150119Y-16777976D01*
X7197738Y-16777976D01*
X7216786Y-16787500D01*
X7226309Y-16797024D01*
X7235833Y-16816071D01*
X7235833Y-16835119D01*
X7226309Y-16863690D01*
X7112024Y-16977976D01*
X7235833Y-16977976D01*
X7407262Y-16777976D02*
X7369167Y-16777976D01*
X7350119Y-16787500D01*
X7340595Y-16797024D01*
X7321548Y-16825595D01*
X7312024Y-16863690D01*
X7312024Y-16939881D01*
X7321548Y-16958929D01*
X7331071Y-16968452D01*
X7350119Y-16977976D01*
X7388214Y-16977976D01*
X7407262Y-16968452D01*
X7416786Y-16958929D01*
X7426309Y-16939881D01*
X7426309Y-16892262D01*
X7416786Y-16873214D01*
X7407262Y-16863690D01*
X7388214Y-16854167D01*
X7350119Y-16854167D01*
X7331071Y-16863690D01*
X7321548Y-16873214D01*
X7312024Y-16892262D01*
X7550119Y-16777976D02*
X7569167Y-16777976D01*
X7588214Y-16787500D01*
X7597738Y-16797024D01*
X7607262Y-16816071D01*
X7616786Y-16854167D01*
X7616786Y-16901786D01*
X7607262Y-16939881D01*
X7597738Y-16958929D01*
X7588214Y-16968452D01*
X7569167Y-16977976D01*
X7550119Y-16977976D01*
X7531071Y-16968452D01*
X7521548Y-16958929D01*
X7512024Y-16939881D01*
X7502500Y-16901786D01*
X7502500Y-16854167D01*
X7512024Y-16816071D01*
X7521548Y-16797024D01*
X7531071Y-16787500D01*
X7550119Y-16777976D01*
X7692976Y-16777976D02*
X7692976Y-16816071D01*
X7769167Y-16777976D02*
X7769167Y-16816071D01*
X8064405Y-17054167D02*
X8054881Y-17044643D01*
X8035833Y-17016071D01*
X8026309Y-16997024D01*
X8016786Y-16968452D01*
X8007262Y-16920833D01*
X8007262Y-16882738D01*
X8016786Y-16835119D01*
X8026309Y-16806548D01*
X8035833Y-16787500D01*
X8054881Y-16758928D01*
X8064405Y-16749405D01*
X8131071Y-16797024D02*
X8140595Y-16787500D01*
X8159643Y-16777976D01*
X8207262Y-16777976D01*
X8226309Y-16787500D01*
X8235833Y-16797024D01*
X8245357Y-16816071D01*
X8245357Y-16835119D01*
X8235833Y-16863690D01*
X8121548Y-16977976D01*
X8245357Y-16977976D01*
X8483452Y-16977976D02*
X8483452Y-16777976D01*
X8569167Y-16977976D02*
X8569167Y-16873214D01*
X8559643Y-16854167D01*
X8540595Y-16844643D01*
X8512024Y-16844643D01*
X8492976Y-16854167D01*
X8483452Y-16863690D01*
X8692976Y-16977976D02*
X8673929Y-16968452D01*
X8664405Y-16958929D01*
X8654881Y-16939881D01*
X8654881Y-16882738D01*
X8664405Y-16863690D01*
X8673929Y-16854167D01*
X8692976Y-16844643D01*
X8721548Y-16844643D01*
X8740595Y-16854167D01*
X8750119Y-16863690D01*
X8759643Y-16882738D01*
X8759643Y-16939881D01*
X8750119Y-16958929D01*
X8740595Y-16968452D01*
X8721548Y-16977976D01*
X8692976Y-16977976D01*
X8873929Y-16977976D02*
X8854881Y-16968452D01*
X8845357Y-16949405D01*
X8845357Y-16777976D01*
X9026310Y-16968452D02*
X9007262Y-16977976D01*
X8969167Y-16977976D01*
X8950119Y-16968452D01*
X8940595Y-16949405D01*
X8940595Y-16873214D01*
X8950119Y-16854167D01*
X8969167Y-16844643D01*
X9007262Y-16844643D01*
X9026310Y-16854167D01*
X9035833Y-16873214D01*
X9035833Y-16892262D01*
X8940595Y-16911310D01*
X9112024Y-16968452D02*
X9131071Y-16977976D01*
X9169167Y-16977976D01*
X9188214Y-16968452D01*
X9197738Y-16949405D01*
X9197738Y-16939881D01*
X9188214Y-16920833D01*
X9169167Y-16911310D01*
X9140595Y-16911310D01*
X9121548Y-16901786D01*
X9112024Y-16882738D01*
X9112024Y-16873214D01*
X9121548Y-16854167D01*
X9140595Y-16844643D01*
X9169167Y-16844643D01*
X9188214Y-16854167D01*
X9264405Y-17054167D02*
X9273929Y-17044643D01*
X9292976Y-17016071D01*
X9302500Y-16997024D01*
X9312024Y-16968452D01*
X9321548Y-16920833D01*
X9321548Y-16882738D01*
X9312024Y-16835119D01*
X9302500Y-16806548D01*
X9292976Y-16787500D01*
X9273929Y-16758928D01*
X9264405Y-16749405D01*
M02*
