%TF.GenerationSoftware,KiCad,Pcbnew,(6.0.11)*%
%TF.CreationDate,2023-06-19T11:30:46-05:00*%
%TF.ProjectId,Z80ESP,5a383045-5350-42e6-9b69-6361645f7063,V0.5*%
%TF.SameCoordinates,Original*%
%TF.FileFunction,Legend,Top*%
%TF.FilePolarity,Positive*%
%FSLAX46Y46*%
G04 Gerber Fmt 4.6, Leading zero omitted, Abs format (unit mm)*
G04 Created by KiCad (PCBNEW (6.0.11)) date 2023-06-19 11:30:46*
%MOMM*%
%LPD*%
G01*
G04 APERTURE LIST*
%ADD10C,0.500000*%
%ADD11C,0.150000*%
%ADD12C,0.250000*%
%ADD13C,0.120000*%
G04 APERTURE END LIST*
D10*
X45500000Y-31000000D02*
X45500000Y-146000000D01*
X144500000Y-31000000D02*
X144500000Y-146000000D01*
D11*
X143852619Y-134740357D02*
X143852619Y-135407023D01*
X142852619Y-134740357D01*
X142852619Y-135407023D01*
X143424047Y-135930833D02*
X143471666Y-135835595D01*
X143519285Y-135787976D01*
X143614523Y-135740357D01*
X143662142Y-135740357D01*
X143757380Y-135787976D01*
X143805000Y-135835595D01*
X143852619Y-135930833D01*
X143852619Y-136121309D01*
X143805000Y-136216547D01*
X143757380Y-136264166D01*
X143662142Y-136311785D01*
X143614523Y-136311785D01*
X143519285Y-136264166D01*
X143471666Y-136216547D01*
X143424047Y-136121309D01*
X143424047Y-135930833D01*
X143376428Y-135835595D01*
X143328809Y-135787976D01*
X143233571Y-135740357D01*
X143043095Y-135740357D01*
X142947857Y-135787976D01*
X142900238Y-135835595D01*
X142852619Y-135930833D01*
X142852619Y-136121309D01*
X142900238Y-136216547D01*
X142947857Y-136264166D01*
X143043095Y-136311785D01*
X143233571Y-136311785D01*
X143328809Y-136264166D01*
X143376428Y-136216547D01*
X143424047Y-136121309D01*
X143852619Y-136930833D02*
X143852619Y-137026071D01*
X143805000Y-137121309D01*
X143757380Y-137168928D01*
X143662142Y-137216547D01*
X143471666Y-137264166D01*
X143233571Y-137264166D01*
X143043095Y-137216547D01*
X142947857Y-137168928D01*
X142900238Y-137121309D01*
X142852619Y-137026071D01*
X142852619Y-136930833D01*
X142900238Y-136835595D01*
X142947857Y-136787976D01*
X143043095Y-136740357D01*
X143233571Y-136692738D01*
X143471666Y-136692738D01*
X143662142Y-136740357D01*
X143757380Y-136787976D01*
X143805000Y-136835595D01*
X143852619Y-136930833D01*
X143376428Y-138454642D02*
X143376428Y-138787976D01*
X142852619Y-138930833D02*
X142852619Y-138454642D01*
X143852619Y-138454642D01*
X143852619Y-138930833D01*
X142900238Y-139311785D02*
X142852619Y-139454642D01*
X142852619Y-139692738D01*
X142900238Y-139787976D01*
X142947857Y-139835595D01*
X143043095Y-139883214D01*
X143138333Y-139883214D01*
X143233571Y-139835595D01*
X143281190Y-139787976D01*
X143328809Y-139692738D01*
X143376428Y-139502261D01*
X143424047Y-139407023D01*
X143471666Y-139359404D01*
X143566904Y-139311785D01*
X143662142Y-139311785D01*
X143757380Y-139359404D01*
X143805000Y-139407023D01*
X143852619Y-139502261D01*
X143852619Y-139740357D01*
X143805000Y-139883214D01*
X142852619Y-140311785D02*
X143852619Y-140311785D01*
X143852619Y-140692738D01*
X143805000Y-140787976D01*
X143757380Y-140835595D01*
X143662142Y-140883214D01*
X143519285Y-140883214D01*
X143424047Y-140835595D01*
X143376428Y-140787976D01*
X143328809Y-140692738D01*
X143328809Y-140311785D01*
X141242619Y-135359404D02*
X141242619Y-134787976D01*
X141242619Y-135073690D02*
X142242619Y-135073690D01*
X142099761Y-134978452D01*
X142004523Y-134883214D01*
X141956904Y-134787976D01*
X141242619Y-135835595D02*
X141242619Y-136026071D01*
X141290238Y-136121309D01*
X141337857Y-136168928D01*
X141480714Y-136264166D01*
X141671190Y-136311785D01*
X142052142Y-136311785D01*
X142147380Y-136264166D01*
X142195000Y-136216547D01*
X142242619Y-136121309D01*
X142242619Y-135930833D01*
X142195000Y-135835595D01*
X142147380Y-135787976D01*
X142052142Y-135740357D01*
X141814047Y-135740357D01*
X141718809Y-135787976D01*
X141671190Y-135835595D01*
X141623571Y-135930833D01*
X141623571Y-136121309D01*
X141671190Y-136216547D01*
X141718809Y-136264166D01*
X141814047Y-136311785D01*
X142242619Y-137787976D02*
X141528333Y-137787976D01*
X141385476Y-137740357D01*
X141290238Y-137645119D01*
X141242619Y-137502261D01*
X141242619Y-137407023D01*
X142242619Y-138264166D02*
X141433095Y-138264166D01*
X141337857Y-138311785D01*
X141290238Y-138359404D01*
X141242619Y-138454642D01*
X141242619Y-138645119D01*
X141290238Y-138740357D01*
X141337857Y-138787976D01*
X141433095Y-138835595D01*
X142242619Y-138835595D01*
X141242619Y-139311785D02*
X142242619Y-139311785D01*
X141242619Y-139883214D01*
X142242619Y-139883214D01*
X141766428Y-140359404D02*
X141766428Y-140692738D01*
X141242619Y-140835595D02*
X141242619Y-140359404D01*
X142242619Y-140359404D01*
X142242619Y-140835595D01*
X142147380Y-141978452D02*
X142195000Y-142026071D01*
X142242619Y-142121309D01*
X142242619Y-142359404D01*
X142195000Y-142454642D01*
X142147380Y-142502261D01*
X142052142Y-142549880D01*
X141956904Y-142549880D01*
X141814047Y-142502261D01*
X141242619Y-141930833D01*
X141242619Y-142549880D01*
X142242619Y-143168928D02*
X142242619Y-143264166D01*
X142195000Y-143359404D01*
X142147380Y-143407023D01*
X142052142Y-143454642D01*
X141861666Y-143502261D01*
X141623571Y-143502261D01*
X141433095Y-143454642D01*
X141337857Y-143407023D01*
X141290238Y-143359404D01*
X141242619Y-143264166D01*
X141242619Y-143168928D01*
X141290238Y-143073690D01*
X141337857Y-143026071D01*
X141433095Y-142978452D01*
X141623571Y-142930833D01*
X141861666Y-142930833D01*
X142052142Y-142978452D01*
X142147380Y-143026071D01*
X142195000Y-143073690D01*
X142242619Y-143168928D01*
X142147380Y-143883214D02*
X142195000Y-143930833D01*
X142242619Y-144026071D01*
X142242619Y-144264166D01*
X142195000Y-144359404D01*
X142147380Y-144407023D01*
X142052142Y-144454642D01*
X141956904Y-144454642D01*
X141814047Y-144407023D01*
X141242619Y-143835595D01*
X141242619Y-144454642D01*
X142242619Y-144787976D02*
X142242619Y-145407023D01*
X141861666Y-145073690D01*
X141861666Y-145216547D01*
X141814047Y-145311785D01*
X141766428Y-145359404D01*
X141671190Y-145407023D01*
X141433095Y-145407023D01*
X141337857Y-145359404D01*
X141290238Y-145311785D01*
X141242619Y-145216547D01*
X141242619Y-144930833D01*
X141290238Y-144835595D01*
X141337857Y-144787976D01*
D12*
X56297619Y-31200476D02*
X57297619Y-31200476D01*
X57297619Y-31581428D01*
X57250000Y-31676666D01*
X57202380Y-31724285D01*
X57107142Y-31771904D01*
X56964285Y-31771904D01*
X56869047Y-31724285D01*
X56821428Y-31676666D01*
X56773809Y-31581428D01*
X56773809Y-31200476D01*
X57297619Y-32390952D02*
X57297619Y-32581428D01*
X57250000Y-32676666D01*
X57154761Y-32771904D01*
X56964285Y-32819523D01*
X56630952Y-32819523D01*
X56440476Y-32771904D01*
X56345238Y-32676666D01*
X56297619Y-32581428D01*
X56297619Y-32390952D01*
X56345238Y-32295714D01*
X56440476Y-32200476D01*
X56630952Y-32152857D01*
X56964285Y-32152857D01*
X57154761Y-32200476D01*
X57250000Y-32295714D01*
X57297619Y-32390952D01*
X57297619Y-33152857D02*
X56297619Y-33390952D01*
X57011904Y-33581428D01*
X56297619Y-33771904D01*
X57297619Y-34010000D01*
X56821428Y-34390952D02*
X56821428Y-34724285D01*
X56297619Y-34867142D02*
X56297619Y-34390952D01*
X57297619Y-34390952D01*
X57297619Y-34867142D01*
X56297619Y-35867142D02*
X56773809Y-35533809D01*
X56297619Y-35295714D02*
X57297619Y-35295714D01*
X57297619Y-35676666D01*
X57250000Y-35771904D01*
X57202380Y-35819523D01*
X57107142Y-35867142D01*
X56964285Y-35867142D01*
X56869047Y-35819523D01*
X56821428Y-35771904D01*
X56773809Y-35676666D01*
X56773809Y-35295714D01*
D11*
%TO.C,SW1*%
X138166666Y-135154761D02*
X138309523Y-135202380D01*
X138547619Y-135202380D01*
X138642857Y-135154761D01*
X138690476Y-135107142D01*
X138738095Y-135011904D01*
X138738095Y-134916666D01*
X138690476Y-134821428D01*
X138642857Y-134773809D01*
X138547619Y-134726190D01*
X138357142Y-134678571D01*
X138261904Y-134630952D01*
X138214285Y-134583333D01*
X138166666Y-134488095D01*
X138166666Y-134392857D01*
X138214285Y-134297619D01*
X138261904Y-134250000D01*
X138357142Y-134202380D01*
X138595238Y-134202380D01*
X138738095Y-134250000D01*
X139071428Y-134202380D02*
X139309523Y-135202380D01*
X139500000Y-134488095D01*
X139690476Y-135202380D01*
X139928571Y-134202380D01*
X140833333Y-135202380D02*
X140261904Y-135202380D01*
X140547619Y-135202380D02*
X140547619Y-134202380D01*
X140452380Y-134345238D01*
X140357142Y-134440476D01*
X140261904Y-134488095D01*
X133380952Y-110452380D02*
X133380952Y-109452380D01*
X134047619Y-109452380D02*
X134238095Y-109452380D01*
X134333333Y-109500000D01*
X134428571Y-109595238D01*
X134476190Y-109785714D01*
X134476190Y-110119047D01*
X134428571Y-110309523D01*
X134333333Y-110404761D01*
X134238095Y-110452380D01*
X134047619Y-110452380D01*
X133952380Y-110404761D01*
X133857142Y-110309523D01*
X133809523Y-110119047D01*
X133809523Y-109785714D01*
X133857142Y-109595238D01*
X133952380Y-109500000D01*
X134047619Y-109452380D01*
X135666666Y-110452380D02*
X135666666Y-109452380D01*
X136047619Y-109452380D01*
X136142857Y-109500000D01*
X136190476Y-109547619D01*
X136238095Y-109642857D01*
X136238095Y-109785714D01*
X136190476Y-109880952D01*
X136142857Y-109928571D01*
X136047619Y-109976190D01*
X135666666Y-109976190D01*
X136857142Y-109452380D02*
X137047619Y-109452380D01*
X137142857Y-109500000D01*
X137238095Y-109595238D01*
X137285714Y-109785714D01*
X137285714Y-110119047D01*
X137238095Y-110309523D01*
X137142857Y-110404761D01*
X137047619Y-110452380D01*
X136857142Y-110452380D01*
X136761904Y-110404761D01*
X136666666Y-110309523D01*
X136619047Y-110119047D01*
X136619047Y-109785714D01*
X136666666Y-109595238D01*
X136761904Y-109500000D01*
X136857142Y-109452380D01*
X138285714Y-110452380D02*
X137952380Y-109976190D01*
X137714285Y-110452380D02*
X137714285Y-109452380D01*
X138095238Y-109452380D01*
X138190476Y-109500000D01*
X138238095Y-109547619D01*
X138285714Y-109642857D01*
X138285714Y-109785714D01*
X138238095Y-109880952D01*
X138190476Y-109928571D01*
X138095238Y-109976190D01*
X137714285Y-109976190D01*
X138571428Y-109452380D02*
X139142857Y-109452380D01*
X138857142Y-110452380D02*
X138857142Y-109452380D01*
X140190476Y-110166666D02*
X140666666Y-110166666D01*
X140095238Y-110452380D02*
X140428571Y-109452380D01*
X140761904Y-110452380D01*
X141095238Y-110452380D02*
X141095238Y-109452380D01*
X141333333Y-109452380D01*
X141476190Y-109500000D01*
X141571428Y-109595238D01*
X141619047Y-109690476D01*
X141666666Y-109880952D01*
X141666666Y-110023809D01*
X141619047Y-110214285D01*
X141571428Y-110309523D01*
X141476190Y-110404761D01*
X141333333Y-110452380D01*
X141095238Y-110452380D01*
X142095238Y-110452380D02*
X142095238Y-109452380D01*
X142333333Y-109452380D01*
X142476190Y-109500000D01*
X142571428Y-109595238D01*
X142619047Y-109690476D01*
X142666666Y-109880952D01*
X142666666Y-110023809D01*
X142619047Y-110214285D01*
X142571428Y-110309523D01*
X142476190Y-110404761D01*
X142333333Y-110452380D01*
X142095238Y-110452380D01*
X143666666Y-110452380D02*
X143333333Y-109976190D01*
X143095238Y-110452380D02*
X143095238Y-109452380D01*
X143476190Y-109452380D01*
X143571428Y-109500000D01*
X143619047Y-109547619D01*
X143666666Y-109642857D01*
X143666666Y-109785714D01*
X143619047Y-109880952D01*
X143571428Y-109928571D01*
X143476190Y-109976190D01*
X143095238Y-109976190D01*
%TO.C,C1*%
X90883333Y-109107142D02*
X90835714Y-109154761D01*
X90692857Y-109202380D01*
X90597619Y-109202380D01*
X90454761Y-109154761D01*
X90359523Y-109059523D01*
X90311904Y-108964285D01*
X90264285Y-108773809D01*
X90264285Y-108630952D01*
X90311904Y-108440476D01*
X90359523Y-108345238D01*
X90454761Y-108250000D01*
X90597619Y-108202380D01*
X90692857Y-108202380D01*
X90835714Y-108250000D01*
X90883333Y-108297619D01*
X91835714Y-109202380D02*
X91264285Y-109202380D01*
X91550000Y-109202380D02*
X91550000Y-108202380D01*
X91454761Y-108345238D01*
X91359523Y-108440476D01*
X91264285Y-108488095D01*
X91585714Y-104702380D02*
X91680952Y-104702380D01*
X91776190Y-104750000D01*
X91823809Y-104797619D01*
X91871428Y-104892857D01*
X91919047Y-105083333D01*
X91919047Y-105321428D01*
X91871428Y-105511904D01*
X91823809Y-105607142D01*
X91776190Y-105654761D01*
X91680952Y-105702380D01*
X91585714Y-105702380D01*
X91490476Y-105654761D01*
X91442857Y-105607142D01*
X91395238Y-105511904D01*
X91347619Y-105321428D01*
X91347619Y-105083333D01*
X91395238Y-104892857D01*
X91442857Y-104797619D01*
X91490476Y-104750000D01*
X91585714Y-104702380D01*
X92347619Y-105607142D02*
X92395238Y-105654761D01*
X92347619Y-105702380D01*
X92300000Y-105654761D01*
X92347619Y-105607142D01*
X92347619Y-105702380D01*
X93347619Y-105702380D02*
X92776190Y-105702380D01*
X93061904Y-105702380D02*
X93061904Y-104702380D01*
X92966666Y-104845238D01*
X92871428Y-104940476D01*
X92776190Y-104988095D01*
X93776190Y-105035714D02*
X93776190Y-106035714D01*
X94252380Y-105559523D02*
X94300000Y-105654761D01*
X94395238Y-105702380D01*
X93776190Y-105559523D02*
X93823809Y-105654761D01*
X93919047Y-105702380D01*
X94109523Y-105702380D01*
X94204761Y-105654761D01*
X94252380Y-105559523D01*
X94252380Y-105035714D01*
X95157142Y-105178571D02*
X94823809Y-105178571D01*
X94823809Y-105702380D02*
X94823809Y-104702380D01*
X95300000Y-104702380D01*
%TO.C,C2*%
X99966633Y-107037142D02*
X99919014Y-107084761D01*
X99776157Y-107132380D01*
X99680919Y-107132380D01*
X99538061Y-107084761D01*
X99442823Y-106989523D01*
X99395204Y-106894285D01*
X99347585Y-106703809D01*
X99347585Y-106560952D01*
X99395204Y-106370476D01*
X99442823Y-106275238D01*
X99538061Y-106180000D01*
X99680919Y-106132380D01*
X99776157Y-106132380D01*
X99919014Y-106180000D01*
X99966633Y-106227619D01*
X100347585Y-106227619D02*
X100395204Y-106180000D01*
X100490442Y-106132380D01*
X100728538Y-106132380D01*
X100823776Y-106180000D01*
X100871395Y-106227619D01*
X100919014Y-106322857D01*
X100919014Y-106418095D01*
X100871395Y-106560952D01*
X100299966Y-107132380D01*
X100919014Y-107132380D01*
X103669014Y-104882380D02*
X103764252Y-104882380D01*
X103859490Y-104930000D01*
X103907109Y-104977619D01*
X103954728Y-105072857D01*
X104002347Y-105263333D01*
X104002347Y-105501428D01*
X103954728Y-105691904D01*
X103907109Y-105787142D01*
X103859490Y-105834761D01*
X103764252Y-105882380D01*
X103669014Y-105882380D01*
X103573776Y-105834761D01*
X103526157Y-105787142D01*
X103478538Y-105691904D01*
X103430919Y-105501428D01*
X103430919Y-105263333D01*
X103478538Y-105072857D01*
X103526157Y-104977619D01*
X103573776Y-104930000D01*
X103669014Y-104882380D01*
X104430919Y-105787142D02*
X104478538Y-105834761D01*
X104430919Y-105882380D01*
X104383300Y-105834761D01*
X104430919Y-105787142D01*
X104430919Y-105882380D01*
X105430919Y-105882380D02*
X104859490Y-105882380D01*
X105145204Y-105882380D02*
X105145204Y-104882380D01*
X105049966Y-105025238D01*
X104954728Y-105120476D01*
X104859490Y-105168095D01*
X105859490Y-105215714D02*
X105859490Y-106215714D01*
X106335680Y-105739523D02*
X106383300Y-105834761D01*
X106478538Y-105882380D01*
X105859490Y-105739523D02*
X105907109Y-105834761D01*
X106002347Y-105882380D01*
X106192823Y-105882380D01*
X106288061Y-105834761D01*
X106335680Y-105739523D01*
X106335680Y-105215714D01*
X107240442Y-105358571D02*
X106907109Y-105358571D01*
X106907109Y-105882380D02*
X106907109Y-104882380D01*
X107383300Y-104882380D01*
%TO.C,C4*%
X124133333Y-107037142D02*
X124085714Y-107084761D01*
X123942857Y-107132380D01*
X123847619Y-107132380D01*
X123704761Y-107084761D01*
X123609523Y-106989523D01*
X123561904Y-106894285D01*
X123514285Y-106703809D01*
X123514285Y-106560952D01*
X123561904Y-106370476D01*
X123609523Y-106275238D01*
X123704761Y-106180000D01*
X123847619Y-106132380D01*
X123942857Y-106132380D01*
X124085714Y-106180000D01*
X124133333Y-106227619D01*
X124990476Y-106465714D02*
X124990476Y-107132380D01*
X124752380Y-106084761D02*
X124514285Y-106799047D01*
X125133333Y-106799047D01*
X127835714Y-104882380D02*
X127930952Y-104882380D01*
X128026190Y-104930000D01*
X128073809Y-104977619D01*
X128121428Y-105072857D01*
X128169047Y-105263333D01*
X128169047Y-105501428D01*
X128121428Y-105691904D01*
X128073809Y-105787142D01*
X128026190Y-105834761D01*
X127930952Y-105882380D01*
X127835714Y-105882380D01*
X127740476Y-105834761D01*
X127692857Y-105787142D01*
X127645238Y-105691904D01*
X127597619Y-105501428D01*
X127597619Y-105263333D01*
X127645238Y-105072857D01*
X127692857Y-104977619D01*
X127740476Y-104930000D01*
X127835714Y-104882380D01*
X128597619Y-105787142D02*
X128645238Y-105834761D01*
X128597619Y-105882380D01*
X128550000Y-105834761D01*
X128597619Y-105787142D01*
X128597619Y-105882380D01*
X129597619Y-105882380D02*
X129026190Y-105882380D01*
X129311904Y-105882380D02*
X129311904Y-104882380D01*
X129216666Y-105025238D01*
X129121428Y-105120476D01*
X129026190Y-105168095D01*
X130026190Y-105215714D02*
X130026190Y-106215714D01*
X130502380Y-105739523D02*
X130550000Y-105834761D01*
X130645238Y-105882380D01*
X130026190Y-105739523D02*
X130073809Y-105834761D01*
X130169047Y-105882380D01*
X130359523Y-105882380D01*
X130454761Y-105834761D01*
X130502380Y-105739523D01*
X130502380Y-105215714D01*
X131407142Y-105358571D02*
X131073809Y-105358571D01*
X131073809Y-105882380D02*
X131073809Y-104882380D01*
X131550000Y-104882380D01*
%TO.C,U2*%
X111464795Y-108122380D02*
X111464795Y-108931904D01*
X111512414Y-109027142D01*
X111560033Y-109074761D01*
X111655271Y-109122380D01*
X111845747Y-109122380D01*
X111940985Y-109074761D01*
X111988604Y-109027142D01*
X112036223Y-108931904D01*
X112036223Y-108122380D01*
X112464795Y-108217619D02*
X112512414Y-108170000D01*
X112607652Y-108122380D01*
X112845747Y-108122380D01*
X112940985Y-108170000D01*
X112988604Y-108217619D01*
X113036223Y-108312857D01*
X113036223Y-108408095D01*
X112988604Y-108550952D01*
X112417176Y-109122380D01*
X113036223Y-109122380D01*
X109107652Y-135642380D02*
X109774319Y-135642380D01*
X109345747Y-136642380D01*
X110583842Y-135975714D02*
X110583842Y-136642380D01*
X110345747Y-135594761D02*
X110107652Y-136309047D01*
X110726700Y-136309047D01*
X111583842Y-136642380D02*
X111107652Y-136642380D01*
X111107652Y-135642380D01*
X111869557Y-136594761D02*
X112012414Y-136642380D01*
X112250509Y-136642380D01*
X112345747Y-136594761D01*
X112393366Y-136547142D01*
X112440985Y-136451904D01*
X112440985Y-136356666D01*
X112393366Y-136261428D01*
X112345747Y-136213809D01*
X112250509Y-136166190D01*
X112060033Y-136118571D01*
X111964795Y-136070952D01*
X111917176Y-136023333D01*
X111869557Y-135928095D01*
X111869557Y-135832857D01*
X111917176Y-135737619D01*
X111964795Y-135690000D01*
X112060033Y-135642380D01*
X112298128Y-135642380D01*
X112440985Y-135690000D01*
X112821938Y-135737619D02*
X112869557Y-135690000D01*
X112964795Y-135642380D01*
X113202890Y-135642380D01*
X113298128Y-135690000D01*
X113345747Y-135737619D01*
X113393366Y-135832857D01*
X113393366Y-135928095D01*
X113345747Y-136070952D01*
X112774319Y-136642380D01*
X113393366Y-136642380D01*
X114250509Y-135975714D02*
X114250509Y-136642380D01*
X114012414Y-135594761D02*
X113774319Y-136309047D01*
X114393366Y-136309047D01*
X115202890Y-135975714D02*
X115202890Y-136642380D01*
X114964795Y-135594761D02*
X114726700Y-136309047D01*
X115345747Y-136309047D01*
%TO.C,U10*%
X123071904Y-108122380D02*
X123071904Y-108931904D01*
X123119523Y-109027142D01*
X123167142Y-109074761D01*
X123262380Y-109122380D01*
X123452857Y-109122380D01*
X123548095Y-109074761D01*
X123595714Y-109027142D01*
X123643333Y-108931904D01*
X123643333Y-108122380D01*
X124643333Y-109122380D02*
X124071904Y-109122380D01*
X124357619Y-109122380D02*
X124357619Y-108122380D01*
X124262380Y-108265238D01*
X124167142Y-108360476D01*
X124071904Y-108408095D01*
X125262380Y-108122380D02*
X125357619Y-108122380D01*
X125452857Y-108170000D01*
X125500476Y-108217619D01*
X125548095Y-108312857D01*
X125595714Y-108503333D01*
X125595714Y-108741428D01*
X125548095Y-108931904D01*
X125500476Y-109027142D01*
X125452857Y-109074761D01*
X125357619Y-109122380D01*
X125262380Y-109122380D01*
X125167142Y-109074761D01*
X125119523Y-109027142D01*
X125071904Y-108931904D01*
X125024285Y-108741428D01*
X125024285Y-108503333D01*
X125071904Y-108312857D01*
X125119523Y-108217619D01*
X125167142Y-108170000D01*
X125262380Y-108122380D01*
X121190952Y-135642380D02*
X121857619Y-135642380D01*
X121429047Y-136642380D01*
X122667142Y-135975714D02*
X122667142Y-136642380D01*
X122429047Y-135594761D02*
X122190952Y-136309047D01*
X122810000Y-136309047D01*
X123667142Y-136642380D02*
X123190952Y-136642380D01*
X123190952Y-135642380D01*
X123952857Y-136594761D02*
X124095714Y-136642380D01*
X124333809Y-136642380D01*
X124429047Y-136594761D01*
X124476666Y-136547142D01*
X124524285Y-136451904D01*
X124524285Y-136356666D01*
X124476666Y-136261428D01*
X124429047Y-136213809D01*
X124333809Y-136166190D01*
X124143333Y-136118571D01*
X124048095Y-136070952D01*
X124000476Y-136023333D01*
X123952857Y-135928095D01*
X123952857Y-135832857D01*
X124000476Y-135737619D01*
X124048095Y-135690000D01*
X124143333Y-135642380D01*
X124381428Y-135642380D01*
X124524285Y-135690000D01*
X125381428Y-135642380D02*
X125190952Y-135642380D01*
X125095714Y-135690000D01*
X125048095Y-135737619D01*
X124952857Y-135880476D01*
X124905238Y-136070952D01*
X124905238Y-136451904D01*
X124952857Y-136547142D01*
X125000476Y-136594761D01*
X125095714Y-136642380D01*
X125286190Y-136642380D01*
X125381428Y-136594761D01*
X125429047Y-136547142D01*
X125476666Y-136451904D01*
X125476666Y-136213809D01*
X125429047Y-136118571D01*
X125381428Y-136070952D01*
X125286190Y-136023333D01*
X125095714Y-136023333D01*
X125000476Y-136070952D01*
X124952857Y-136118571D01*
X124905238Y-136213809D01*
X126048095Y-136070952D02*
X125952857Y-136023333D01*
X125905238Y-135975714D01*
X125857619Y-135880476D01*
X125857619Y-135832857D01*
X125905238Y-135737619D01*
X125952857Y-135690000D01*
X126048095Y-135642380D01*
X126238571Y-135642380D01*
X126333809Y-135690000D01*
X126381428Y-135737619D01*
X126429047Y-135832857D01*
X126429047Y-135880476D01*
X126381428Y-135975714D01*
X126333809Y-136023333D01*
X126238571Y-136070952D01*
X126048095Y-136070952D01*
X125952857Y-136118571D01*
X125905238Y-136166190D01*
X125857619Y-136261428D01*
X125857619Y-136451904D01*
X125905238Y-136547142D01*
X125952857Y-136594761D01*
X126048095Y-136642380D01*
X126238571Y-136642380D01*
X126333809Y-136594761D01*
X126381428Y-136547142D01*
X126429047Y-136451904D01*
X126429047Y-136261428D01*
X126381428Y-136166190D01*
X126333809Y-136118571D01*
X126238571Y-136070952D01*
X127000476Y-136070952D02*
X126905238Y-136023333D01*
X126857619Y-135975714D01*
X126810000Y-135880476D01*
X126810000Y-135832857D01*
X126857619Y-135737619D01*
X126905238Y-135690000D01*
X127000476Y-135642380D01*
X127190952Y-135642380D01*
X127286190Y-135690000D01*
X127333809Y-135737619D01*
X127381428Y-135832857D01*
X127381428Y-135880476D01*
X127333809Y-135975714D01*
X127286190Y-136023333D01*
X127190952Y-136070952D01*
X127000476Y-136070952D01*
X126905238Y-136118571D01*
X126857619Y-136166190D01*
X126810000Y-136261428D01*
X126810000Y-136451904D01*
X126857619Y-136547142D01*
X126905238Y-136594761D01*
X127000476Y-136642380D01*
X127190952Y-136642380D01*
X127286190Y-136594761D01*
X127333809Y-136547142D01*
X127381428Y-136451904D01*
X127381428Y-136261428D01*
X127333809Y-136166190D01*
X127286190Y-136118571D01*
X127190952Y-136070952D01*
%TO.C,RR1*%
X130833333Y-109202380D02*
X130500000Y-108726190D01*
X130261904Y-109202380D02*
X130261904Y-108202380D01*
X130642857Y-108202380D01*
X130738095Y-108250000D01*
X130785714Y-108297619D01*
X130833333Y-108392857D01*
X130833333Y-108535714D01*
X130785714Y-108630952D01*
X130738095Y-108678571D01*
X130642857Y-108726190D01*
X130261904Y-108726190D01*
X131833333Y-109202380D02*
X131500000Y-108726190D01*
X131261904Y-109202380D02*
X131261904Y-108202380D01*
X131642857Y-108202380D01*
X131738095Y-108250000D01*
X131785714Y-108297619D01*
X131833333Y-108392857D01*
X131833333Y-108535714D01*
X131785714Y-108630952D01*
X131738095Y-108678571D01*
X131642857Y-108726190D01*
X131261904Y-108726190D01*
X132785714Y-109202380D02*
X132214285Y-109202380D01*
X132500000Y-109202380D02*
X132500000Y-108202380D01*
X132404761Y-108345238D01*
X132309523Y-108440476D01*
X132214285Y-108488095D01*
X130238095Y-107952380D02*
X129666666Y-107952380D01*
X129952380Y-107952380D02*
X129952380Y-106952380D01*
X129857142Y-107095238D01*
X129761904Y-107190476D01*
X129666666Y-107238095D01*
X130857142Y-106952380D02*
X130952380Y-106952380D01*
X131047619Y-107000000D01*
X131095238Y-107047619D01*
X131142857Y-107142857D01*
X131190476Y-107333333D01*
X131190476Y-107571428D01*
X131142857Y-107761904D01*
X131095238Y-107857142D01*
X131047619Y-107904761D01*
X130952380Y-107952380D01*
X130857142Y-107952380D01*
X130761904Y-107904761D01*
X130714285Y-107857142D01*
X130666666Y-107761904D01*
X130619047Y-107571428D01*
X130619047Y-107333333D01*
X130666666Y-107142857D01*
X130714285Y-107047619D01*
X130761904Y-107000000D01*
X130857142Y-106952380D01*
X131619047Y-107952380D02*
X131619047Y-106952380D01*
X132190476Y-107952380D02*
X131761904Y-107380952D01*
X132190476Y-106952380D02*
X131619047Y-107523809D01*
X132571428Y-107952380D02*
X132809523Y-107952380D01*
X132809523Y-107761904D01*
X132714285Y-107714285D01*
X132619047Y-107619047D01*
X132571428Y-107476190D01*
X132571428Y-107238095D01*
X132619047Y-107095238D01*
X132714285Y-107000000D01*
X132857142Y-106952380D01*
X133047619Y-106952380D01*
X133190476Y-107000000D01*
X133285714Y-107095238D01*
X133333333Y-107238095D01*
X133333333Y-107476190D01*
X133285714Y-107619047D01*
X133190476Y-107714285D01*
X133095238Y-107761904D01*
X133095238Y-107952380D01*
X133333333Y-107952380D01*
%TO.C,U6*%
X61054795Y-42837380D02*
X61054795Y-43646904D01*
X61102414Y-43742142D01*
X61150033Y-43789761D01*
X61245271Y-43837380D01*
X61435747Y-43837380D01*
X61530985Y-43789761D01*
X61578604Y-43742142D01*
X61626223Y-43646904D01*
X61626223Y-42837380D01*
X62530985Y-42837380D02*
X62340509Y-42837380D01*
X62245271Y-42885000D01*
X62197652Y-42932619D01*
X62102414Y-43075476D01*
X62054795Y-43265952D01*
X62054795Y-43646904D01*
X62102414Y-43742142D01*
X62150033Y-43789761D01*
X62245271Y-43837380D01*
X62435747Y-43837380D01*
X62530985Y-43789761D01*
X62578604Y-43742142D01*
X62626223Y-43646904D01*
X62626223Y-43408809D01*
X62578604Y-43313571D01*
X62530985Y-43265952D01*
X62435747Y-43218333D01*
X62245271Y-43218333D01*
X62150033Y-43265952D01*
X62102414Y-43313571D01*
X62054795Y-43408809D01*
X59173842Y-62737380D02*
X59840509Y-62737380D01*
X59411938Y-63737380D01*
X60650033Y-63070714D02*
X60650033Y-63737380D01*
X60411938Y-62689761D02*
X60173842Y-63404047D01*
X60792890Y-63404047D01*
X61650033Y-63737380D02*
X61173842Y-63737380D01*
X61173842Y-62737380D01*
X61935747Y-63689761D02*
X62078604Y-63737380D01*
X62316700Y-63737380D01*
X62411938Y-63689761D01*
X62459557Y-63642142D01*
X62507176Y-63546904D01*
X62507176Y-63451666D01*
X62459557Y-63356428D01*
X62411938Y-63308809D01*
X62316700Y-63261190D01*
X62126223Y-63213571D01*
X62030985Y-63165952D01*
X61983366Y-63118333D01*
X61935747Y-63023095D01*
X61935747Y-62927857D01*
X61983366Y-62832619D01*
X62030985Y-62785000D01*
X62126223Y-62737380D01*
X62364319Y-62737380D01*
X62507176Y-62785000D01*
X62840509Y-62737380D02*
X63459557Y-62737380D01*
X63126223Y-63118333D01*
X63269080Y-63118333D01*
X63364319Y-63165952D01*
X63411938Y-63213571D01*
X63459557Y-63308809D01*
X63459557Y-63546904D01*
X63411938Y-63642142D01*
X63364319Y-63689761D01*
X63269080Y-63737380D01*
X62983366Y-63737380D01*
X62888128Y-63689761D01*
X62840509Y-63642142D01*
X63840509Y-62832619D02*
X63888128Y-62785000D01*
X63983366Y-62737380D01*
X64221461Y-62737380D01*
X64316700Y-62785000D01*
X64364319Y-62832619D01*
X64411938Y-62927857D01*
X64411938Y-63023095D01*
X64364319Y-63165952D01*
X63792890Y-63737380D01*
X64411938Y-63737380D01*
%TO.C,C7*%
X75800033Y-107037142D02*
X75752414Y-107084761D01*
X75609557Y-107132380D01*
X75514319Y-107132380D01*
X75371461Y-107084761D01*
X75276223Y-106989523D01*
X75228604Y-106894285D01*
X75180985Y-106703809D01*
X75180985Y-106560952D01*
X75228604Y-106370476D01*
X75276223Y-106275238D01*
X75371461Y-106180000D01*
X75514319Y-106132380D01*
X75609557Y-106132380D01*
X75752414Y-106180000D01*
X75800033Y-106227619D01*
X76133366Y-106132380D02*
X76800033Y-106132380D01*
X76371461Y-107132380D01*
X79502414Y-104702380D02*
X79597652Y-104702380D01*
X79692890Y-104750000D01*
X79740509Y-104797619D01*
X79788128Y-104892857D01*
X79835747Y-105083333D01*
X79835747Y-105321428D01*
X79788128Y-105511904D01*
X79740509Y-105607142D01*
X79692890Y-105654761D01*
X79597652Y-105702380D01*
X79502414Y-105702380D01*
X79407176Y-105654761D01*
X79359557Y-105607142D01*
X79311938Y-105511904D01*
X79264319Y-105321428D01*
X79264319Y-105083333D01*
X79311938Y-104892857D01*
X79359557Y-104797619D01*
X79407176Y-104750000D01*
X79502414Y-104702380D01*
X80264319Y-105607142D02*
X80311938Y-105654761D01*
X80264319Y-105702380D01*
X80216700Y-105654761D01*
X80264319Y-105607142D01*
X80264319Y-105702380D01*
X81264319Y-105702380D02*
X80692890Y-105702380D01*
X80978604Y-105702380D02*
X80978604Y-104702380D01*
X80883366Y-104845238D01*
X80788128Y-104940476D01*
X80692890Y-104988095D01*
X81692890Y-105035714D02*
X81692890Y-106035714D01*
X82169080Y-105559523D02*
X82216700Y-105654761D01*
X82311938Y-105702380D01*
X81692890Y-105559523D02*
X81740509Y-105654761D01*
X81835747Y-105702380D01*
X82026223Y-105702380D01*
X82121461Y-105654761D01*
X82169080Y-105559523D01*
X82169080Y-105035714D01*
X83073842Y-105178571D02*
X82740509Y-105178571D01*
X82740509Y-105702380D02*
X82740509Y-104702380D01*
X83216700Y-104702380D01*
%TO.C,U3*%
X99381395Y-108122380D02*
X99381395Y-108931904D01*
X99429014Y-109027142D01*
X99476633Y-109074761D01*
X99571871Y-109122380D01*
X99762347Y-109122380D01*
X99857585Y-109074761D01*
X99905204Y-109027142D01*
X99952823Y-108931904D01*
X99952823Y-108122380D01*
X100333776Y-108122380D02*
X100952823Y-108122380D01*
X100619490Y-108503333D01*
X100762347Y-108503333D01*
X100857585Y-108550952D01*
X100905204Y-108598571D01*
X100952823Y-108693809D01*
X100952823Y-108931904D01*
X100905204Y-109027142D01*
X100857585Y-109074761D01*
X100762347Y-109122380D01*
X100476633Y-109122380D01*
X100381395Y-109074761D01*
X100333776Y-109027142D01*
X97024252Y-135642380D02*
X97690919Y-135642380D01*
X97262347Y-136642380D01*
X98500442Y-135975714D02*
X98500442Y-136642380D01*
X98262347Y-135594761D02*
X98024252Y-136309047D01*
X98643300Y-136309047D01*
X99500442Y-136642380D02*
X99024252Y-136642380D01*
X99024252Y-135642380D01*
X99786157Y-136594761D02*
X99929014Y-136642380D01*
X100167109Y-136642380D01*
X100262347Y-136594761D01*
X100309966Y-136547142D01*
X100357585Y-136451904D01*
X100357585Y-136356666D01*
X100309966Y-136261428D01*
X100262347Y-136213809D01*
X100167109Y-136166190D01*
X99976633Y-136118571D01*
X99881395Y-136070952D01*
X99833776Y-136023333D01*
X99786157Y-135928095D01*
X99786157Y-135832857D01*
X99833776Y-135737619D01*
X99881395Y-135690000D01*
X99976633Y-135642380D01*
X100214728Y-135642380D01*
X100357585Y-135690000D01*
X100738538Y-135737619D02*
X100786157Y-135690000D01*
X100881395Y-135642380D01*
X101119490Y-135642380D01*
X101214728Y-135690000D01*
X101262347Y-135737619D01*
X101309966Y-135832857D01*
X101309966Y-135928095D01*
X101262347Y-136070952D01*
X100690919Y-136642380D01*
X101309966Y-136642380D01*
X102167109Y-135975714D02*
X102167109Y-136642380D01*
X101929014Y-135594761D02*
X101690919Y-136309047D01*
X102309966Y-136309047D01*
X103167109Y-135642380D02*
X102690919Y-135642380D01*
X102643300Y-136118571D01*
X102690919Y-136070952D01*
X102786157Y-136023333D01*
X103024252Y-136023333D01*
X103119490Y-136070952D01*
X103167109Y-136118571D01*
X103214728Y-136213809D01*
X103214728Y-136451904D01*
X103167109Y-136547142D01*
X103119490Y-136594761D01*
X103024252Y-136642380D01*
X102786157Y-136642380D01*
X102690919Y-136594761D01*
X102643300Y-136547142D01*
%TO.C,C3*%
X112050033Y-107037142D02*
X112002414Y-107084761D01*
X111859557Y-107132380D01*
X111764319Y-107132380D01*
X111621461Y-107084761D01*
X111526223Y-106989523D01*
X111478604Y-106894285D01*
X111430985Y-106703809D01*
X111430985Y-106560952D01*
X111478604Y-106370476D01*
X111526223Y-106275238D01*
X111621461Y-106180000D01*
X111764319Y-106132380D01*
X111859557Y-106132380D01*
X112002414Y-106180000D01*
X112050033Y-106227619D01*
X112383366Y-106132380D02*
X113002414Y-106132380D01*
X112669080Y-106513333D01*
X112811938Y-106513333D01*
X112907176Y-106560952D01*
X112954795Y-106608571D01*
X113002414Y-106703809D01*
X113002414Y-106941904D01*
X112954795Y-107037142D01*
X112907176Y-107084761D01*
X112811938Y-107132380D01*
X112526223Y-107132380D01*
X112430985Y-107084761D01*
X112383366Y-107037142D01*
X115752414Y-104882380D02*
X115847652Y-104882380D01*
X115942890Y-104930000D01*
X115990509Y-104977619D01*
X116038128Y-105072857D01*
X116085747Y-105263333D01*
X116085747Y-105501428D01*
X116038128Y-105691904D01*
X115990509Y-105787142D01*
X115942890Y-105834761D01*
X115847652Y-105882380D01*
X115752414Y-105882380D01*
X115657176Y-105834761D01*
X115609557Y-105787142D01*
X115561938Y-105691904D01*
X115514319Y-105501428D01*
X115514319Y-105263333D01*
X115561938Y-105072857D01*
X115609557Y-104977619D01*
X115657176Y-104930000D01*
X115752414Y-104882380D01*
X116514319Y-105787142D02*
X116561938Y-105834761D01*
X116514319Y-105882380D01*
X116466700Y-105834761D01*
X116514319Y-105787142D01*
X116514319Y-105882380D01*
X117514319Y-105882380D02*
X116942890Y-105882380D01*
X117228604Y-105882380D02*
X117228604Y-104882380D01*
X117133366Y-105025238D01*
X117038128Y-105120476D01*
X116942890Y-105168095D01*
X117942890Y-105215714D02*
X117942890Y-106215714D01*
X118419080Y-105739523D02*
X118466700Y-105834761D01*
X118561938Y-105882380D01*
X117942890Y-105739523D02*
X117990509Y-105834761D01*
X118085747Y-105882380D01*
X118276223Y-105882380D01*
X118371461Y-105834761D01*
X118419080Y-105739523D01*
X118419080Y-105215714D01*
X119323842Y-105358571D02*
X118990509Y-105358571D01*
X118990509Y-105882380D02*
X118990509Y-104882380D01*
X119466700Y-104882380D01*
%TO.C,C5*%
X51633333Y-71477142D02*
X51585714Y-71524761D01*
X51442857Y-71572380D01*
X51347619Y-71572380D01*
X51204761Y-71524761D01*
X51109523Y-71429523D01*
X51061904Y-71334285D01*
X51014285Y-71143809D01*
X51014285Y-71000952D01*
X51061904Y-70810476D01*
X51109523Y-70715238D01*
X51204761Y-70620000D01*
X51347619Y-70572380D01*
X51442857Y-70572380D01*
X51585714Y-70620000D01*
X51633333Y-70667619D01*
X52538095Y-70572380D02*
X52061904Y-70572380D01*
X52014285Y-71048571D01*
X52061904Y-71000952D01*
X52157142Y-70953333D01*
X52395238Y-70953333D01*
X52490476Y-71000952D01*
X52538095Y-71048571D01*
X52585714Y-71143809D01*
X52585714Y-71381904D01*
X52538095Y-71477142D01*
X52490476Y-71524761D01*
X52395238Y-71572380D01*
X52157142Y-71572380D01*
X52061904Y-71524761D01*
X52014285Y-71477142D01*
X50085714Y-68032380D02*
X50180952Y-68032380D01*
X50276190Y-68080000D01*
X50323809Y-68127619D01*
X50371428Y-68222857D01*
X50419047Y-68413333D01*
X50419047Y-68651428D01*
X50371428Y-68841904D01*
X50323809Y-68937142D01*
X50276190Y-68984761D01*
X50180952Y-69032380D01*
X50085714Y-69032380D01*
X49990476Y-68984761D01*
X49942857Y-68937142D01*
X49895238Y-68841904D01*
X49847619Y-68651428D01*
X49847619Y-68413333D01*
X49895238Y-68222857D01*
X49942857Y-68127619D01*
X49990476Y-68080000D01*
X50085714Y-68032380D01*
X50847619Y-68937142D02*
X50895238Y-68984761D01*
X50847619Y-69032380D01*
X50800000Y-68984761D01*
X50847619Y-68937142D01*
X50847619Y-69032380D01*
X51847619Y-69032380D02*
X51276190Y-69032380D01*
X51561904Y-69032380D02*
X51561904Y-68032380D01*
X51466666Y-68175238D01*
X51371428Y-68270476D01*
X51276190Y-68318095D01*
X52276190Y-68365714D02*
X52276190Y-69365714D01*
X52752380Y-68889523D02*
X52800000Y-68984761D01*
X52895238Y-69032380D01*
X52276190Y-68889523D02*
X52323809Y-68984761D01*
X52419047Y-69032380D01*
X52609523Y-69032380D01*
X52704761Y-68984761D01*
X52752380Y-68889523D01*
X52752380Y-68365714D01*
X53657142Y-68508571D02*
X53323809Y-68508571D01*
X53323809Y-69032380D02*
X53323809Y-68032380D01*
X53800000Y-68032380D01*
%TO.C,U4*%
X87298095Y-108122380D02*
X87298095Y-108931904D01*
X87345714Y-109027142D01*
X87393333Y-109074761D01*
X87488571Y-109122380D01*
X87679047Y-109122380D01*
X87774285Y-109074761D01*
X87821904Y-109027142D01*
X87869523Y-108931904D01*
X87869523Y-108122380D01*
X88774285Y-108455714D02*
X88774285Y-109122380D01*
X88536190Y-108074761D02*
X88298095Y-108789047D01*
X88917142Y-108789047D01*
X84940952Y-135642380D02*
X85607619Y-135642380D01*
X85179047Y-136642380D01*
X86417142Y-135975714D02*
X86417142Y-136642380D01*
X86179047Y-135594761D02*
X85940952Y-136309047D01*
X86560000Y-136309047D01*
X87417142Y-136642380D02*
X86940952Y-136642380D01*
X86940952Y-135642380D01*
X87702857Y-136594761D02*
X87845714Y-136642380D01*
X88083809Y-136642380D01*
X88179047Y-136594761D01*
X88226666Y-136547142D01*
X88274285Y-136451904D01*
X88274285Y-136356666D01*
X88226666Y-136261428D01*
X88179047Y-136213809D01*
X88083809Y-136166190D01*
X87893333Y-136118571D01*
X87798095Y-136070952D01*
X87750476Y-136023333D01*
X87702857Y-135928095D01*
X87702857Y-135832857D01*
X87750476Y-135737619D01*
X87798095Y-135690000D01*
X87893333Y-135642380D01*
X88131428Y-135642380D01*
X88274285Y-135690000D01*
X88655238Y-135737619D02*
X88702857Y-135690000D01*
X88798095Y-135642380D01*
X89036190Y-135642380D01*
X89131428Y-135690000D01*
X89179047Y-135737619D01*
X89226666Y-135832857D01*
X89226666Y-135928095D01*
X89179047Y-136070952D01*
X88607619Y-136642380D01*
X89226666Y-136642380D01*
X90083809Y-135975714D02*
X90083809Y-136642380D01*
X89845714Y-135594761D02*
X89607619Y-136309047D01*
X90226666Y-136309047D01*
X91036190Y-135975714D02*
X91036190Y-136642380D01*
X90798095Y-135594761D02*
X90560000Y-136309047D01*
X91179047Y-136309047D01*
%TO.C,C6*%
X51633333Y-107037142D02*
X51585714Y-107084761D01*
X51442857Y-107132380D01*
X51347619Y-107132380D01*
X51204761Y-107084761D01*
X51109523Y-106989523D01*
X51061904Y-106894285D01*
X51014285Y-106703809D01*
X51014285Y-106560952D01*
X51061904Y-106370476D01*
X51109523Y-106275238D01*
X51204761Y-106180000D01*
X51347619Y-106132380D01*
X51442857Y-106132380D01*
X51585714Y-106180000D01*
X51633333Y-106227619D01*
X52490476Y-106132380D02*
X52300000Y-106132380D01*
X52204761Y-106180000D01*
X52157142Y-106227619D01*
X52061904Y-106370476D01*
X52014285Y-106560952D01*
X52014285Y-106941904D01*
X52061904Y-107037142D01*
X52109523Y-107084761D01*
X52204761Y-107132380D01*
X52395238Y-107132380D01*
X52490476Y-107084761D01*
X52538095Y-107037142D01*
X52585714Y-106941904D01*
X52585714Y-106703809D01*
X52538095Y-106608571D01*
X52490476Y-106560952D01*
X52395238Y-106513333D01*
X52204761Y-106513333D01*
X52109523Y-106560952D01*
X52061904Y-106608571D01*
X52014285Y-106703809D01*
X55335714Y-104702380D02*
X55430952Y-104702380D01*
X55526190Y-104750000D01*
X55573809Y-104797619D01*
X55621428Y-104892857D01*
X55669047Y-105083333D01*
X55669047Y-105321428D01*
X55621428Y-105511904D01*
X55573809Y-105607142D01*
X55526190Y-105654761D01*
X55430952Y-105702380D01*
X55335714Y-105702380D01*
X55240476Y-105654761D01*
X55192857Y-105607142D01*
X55145238Y-105511904D01*
X55097619Y-105321428D01*
X55097619Y-105083333D01*
X55145238Y-104892857D01*
X55192857Y-104797619D01*
X55240476Y-104750000D01*
X55335714Y-104702380D01*
X56097619Y-105607142D02*
X56145238Y-105654761D01*
X56097619Y-105702380D01*
X56050000Y-105654761D01*
X56097619Y-105607142D01*
X56097619Y-105702380D01*
X57097619Y-105702380D02*
X56526190Y-105702380D01*
X56811904Y-105702380D02*
X56811904Y-104702380D01*
X56716666Y-104845238D01*
X56621428Y-104940476D01*
X56526190Y-104988095D01*
X57526190Y-105035714D02*
X57526190Y-106035714D01*
X58002380Y-105559523D02*
X58050000Y-105654761D01*
X58145238Y-105702380D01*
X57526190Y-105559523D02*
X57573809Y-105654761D01*
X57669047Y-105702380D01*
X57859523Y-105702380D01*
X57954761Y-105654761D01*
X58002380Y-105559523D01*
X58002380Y-105035714D01*
X58907142Y-105178571D02*
X58573809Y-105178571D01*
X58573809Y-105702380D02*
X58573809Y-104702380D01*
X59050000Y-104702380D01*
%TO.C,C11*%
X80352367Y-66397142D02*
X80304748Y-66444761D01*
X80161891Y-66492380D01*
X80066653Y-66492380D01*
X79923796Y-66444761D01*
X79828558Y-66349523D01*
X79780939Y-66254285D01*
X79733320Y-66063809D01*
X79733320Y-65920952D01*
X79780939Y-65730476D01*
X79828558Y-65635238D01*
X79923796Y-65540000D01*
X80066653Y-65492380D01*
X80161891Y-65492380D01*
X80304748Y-65540000D01*
X80352367Y-65587619D01*
X81304748Y-66492380D02*
X80733320Y-66492380D01*
X81019034Y-66492380D02*
X81019034Y-65492380D01*
X80923796Y-65635238D01*
X80828558Y-65730476D01*
X80733320Y-65778095D01*
X82257129Y-66492380D02*
X81685701Y-66492380D01*
X81971415Y-66492380D02*
X81971415Y-65492380D01*
X81876177Y-65635238D01*
X81780939Y-65730476D01*
X81685701Y-65778095D01*
X85217142Y-66492380D02*
X84645714Y-66492380D01*
X84931428Y-66492380D02*
X84931428Y-65492380D01*
X84836190Y-65635238D01*
X84740952Y-65730476D01*
X84645714Y-65778095D01*
X85836190Y-65492380D02*
X85931428Y-65492380D01*
X86026666Y-65540000D01*
X86074285Y-65587619D01*
X86121904Y-65682857D01*
X86169523Y-65873333D01*
X86169523Y-66111428D01*
X86121904Y-66301904D01*
X86074285Y-66397142D01*
X86026666Y-66444761D01*
X85931428Y-66492380D01*
X85836190Y-66492380D01*
X85740952Y-66444761D01*
X85693333Y-66397142D01*
X85645714Y-66301904D01*
X85598095Y-66111428D01*
X85598095Y-65873333D01*
X85645714Y-65682857D01*
X85693333Y-65587619D01*
X85740952Y-65540000D01*
X85836190Y-65492380D01*
X86598095Y-65825714D02*
X86598095Y-66825714D01*
X87074285Y-66349523D02*
X87121904Y-66444761D01*
X87217142Y-66492380D01*
X86598095Y-66349523D02*
X86645714Y-66444761D01*
X86740952Y-66492380D01*
X86931428Y-66492380D01*
X87026666Y-66444761D01*
X87074285Y-66349523D01*
X87074285Y-65825714D01*
X87979047Y-65968571D02*
X87645714Y-65968571D01*
X87645714Y-66492380D02*
X87645714Y-65492380D01*
X88121904Y-65492380D01*
%TO.C,C8*%
X73493333Y-40997142D02*
X73445714Y-41044761D01*
X73302857Y-41092380D01*
X73207619Y-41092380D01*
X73064761Y-41044761D01*
X72969523Y-40949523D01*
X72921904Y-40854285D01*
X72874285Y-40663809D01*
X72874285Y-40520952D01*
X72921904Y-40330476D01*
X72969523Y-40235238D01*
X73064761Y-40140000D01*
X73207619Y-40092380D01*
X73302857Y-40092380D01*
X73445714Y-40140000D01*
X73493333Y-40187619D01*
X74064761Y-40520952D02*
X73969523Y-40473333D01*
X73921904Y-40425714D01*
X73874285Y-40330476D01*
X73874285Y-40282857D01*
X73921904Y-40187619D01*
X73969523Y-40140000D01*
X74064761Y-40092380D01*
X74255238Y-40092380D01*
X74350476Y-40140000D01*
X74398095Y-40187619D01*
X74445714Y-40282857D01*
X74445714Y-40330476D01*
X74398095Y-40425714D01*
X74350476Y-40473333D01*
X74255238Y-40520952D01*
X74064761Y-40520952D01*
X73969523Y-40568571D01*
X73921904Y-40616190D01*
X73874285Y-40711428D01*
X73874285Y-40901904D01*
X73921904Y-40997142D01*
X73969523Y-41044761D01*
X74064761Y-41092380D01*
X74255238Y-41092380D01*
X74350476Y-41044761D01*
X74398095Y-40997142D01*
X74445714Y-40901904D01*
X74445714Y-40711428D01*
X74398095Y-40616190D01*
X74350476Y-40568571D01*
X74255238Y-40520952D01*
X71945714Y-37552380D02*
X72040952Y-37552380D01*
X72136190Y-37600000D01*
X72183809Y-37647619D01*
X72231428Y-37742857D01*
X72279047Y-37933333D01*
X72279047Y-38171428D01*
X72231428Y-38361904D01*
X72183809Y-38457142D01*
X72136190Y-38504761D01*
X72040952Y-38552380D01*
X71945714Y-38552380D01*
X71850476Y-38504761D01*
X71802857Y-38457142D01*
X71755238Y-38361904D01*
X71707619Y-38171428D01*
X71707619Y-37933333D01*
X71755238Y-37742857D01*
X71802857Y-37647619D01*
X71850476Y-37600000D01*
X71945714Y-37552380D01*
X72707619Y-38457142D02*
X72755238Y-38504761D01*
X72707619Y-38552380D01*
X72660000Y-38504761D01*
X72707619Y-38457142D01*
X72707619Y-38552380D01*
X73707619Y-38552380D02*
X73136190Y-38552380D01*
X73421904Y-38552380D02*
X73421904Y-37552380D01*
X73326666Y-37695238D01*
X73231428Y-37790476D01*
X73136190Y-37838095D01*
X74136190Y-37885714D02*
X74136190Y-38885714D01*
X74612380Y-38409523D02*
X74660000Y-38504761D01*
X74755238Y-38552380D01*
X74136190Y-38409523D02*
X74183809Y-38504761D01*
X74279047Y-38552380D01*
X74469523Y-38552380D01*
X74564761Y-38504761D01*
X74612380Y-38409523D01*
X74612380Y-37885714D01*
X75517142Y-38028571D02*
X75183809Y-38028571D01*
X75183809Y-38552380D02*
X75183809Y-37552380D01*
X75660000Y-37552380D01*
%TO.C,C12*%
X67672042Y-138442142D02*
X67624423Y-138489761D01*
X67481566Y-138537380D01*
X67386328Y-138537380D01*
X67243471Y-138489761D01*
X67148233Y-138394523D01*
X67100614Y-138299285D01*
X67052995Y-138108809D01*
X67052995Y-137965952D01*
X67100614Y-137775476D01*
X67148233Y-137680238D01*
X67243471Y-137585000D01*
X67386328Y-137537380D01*
X67481566Y-137537380D01*
X67624423Y-137585000D01*
X67672042Y-137632619D01*
X68624423Y-138537380D02*
X68052995Y-138537380D01*
X68338709Y-138537380D02*
X68338709Y-137537380D01*
X68243471Y-137680238D01*
X68148233Y-137775476D01*
X68052995Y-137823095D01*
X69005376Y-137632619D02*
X69052995Y-137585000D01*
X69148233Y-137537380D01*
X69386328Y-137537380D01*
X69481566Y-137585000D01*
X69529185Y-137632619D01*
X69576804Y-137727857D01*
X69576804Y-137823095D01*
X69529185Y-137965952D01*
X68957757Y-138537380D01*
X69576804Y-138537380D01*
X66922042Y-143287380D02*
X66350614Y-143287380D01*
X66636328Y-143287380D02*
X66636328Y-142287380D01*
X66541090Y-142430238D01*
X66445852Y-142525476D01*
X66350614Y-142573095D01*
X67541090Y-142287380D02*
X67636328Y-142287380D01*
X67731566Y-142335000D01*
X67779185Y-142382619D01*
X67826804Y-142477857D01*
X67874423Y-142668333D01*
X67874423Y-142906428D01*
X67826804Y-143096904D01*
X67779185Y-143192142D01*
X67731566Y-143239761D01*
X67636328Y-143287380D01*
X67541090Y-143287380D01*
X67445852Y-143239761D01*
X67398233Y-143192142D01*
X67350614Y-143096904D01*
X67302995Y-142906428D01*
X67302995Y-142668333D01*
X67350614Y-142477857D01*
X67398233Y-142382619D01*
X67445852Y-142335000D01*
X67541090Y-142287380D01*
X68302995Y-142620714D02*
X68302995Y-143620714D01*
X68779185Y-143144523D02*
X68826804Y-143239761D01*
X68922042Y-143287380D01*
X68302995Y-143144523D02*
X68350614Y-143239761D01*
X68445852Y-143287380D01*
X68636328Y-143287380D01*
X68731566Y-143239761D01*
X68779185Y-143144523D01*
X68779185Y-142620714D01*
X69683947Y-142763571D02*
X69350614Y-142763571D01*
X69350614Y-143287380D02*
X69350614Y-142287380D01*
X69826804Y-142287380D01*
%TO.C,R2*%
X57333333Y-41092380D02*
X57000000Y-40616190D01*
X56761904Y-41092380D02*
X56761904Y-40092380D01*
X57142857Y-40092380D01*
X57238095Y-40140000D01*
X57285714Y-40187619D01*
X57333333Y-40282857D01*
X57333333Y-40425714D01*
X57285714Y-40520952D01*
X57238095Y-40568571D01*
X57142857Y-40616190D01*
X56761904Y-40616190D01*
X57714285Y-40187619D02*
X57761904Y-40140000D01*
X57857142Y-40092380D01*
X58095238Y-40092380D01*
X58190476Y-40140000D01*
X58238095Y-40187619D01*
X58285714Y-40282857D01*
X58285714Y-40378095D01*
X58238095Y-40520952D01*
X57666666Y-41092380D01*
X58285714Y-41092380D01*
X62166666Y-40425714D02*
X62166666Y-41092380D01*
X61928571Y-40044761D02*
X61690476Y-40759047D01*
X62309523Y-40759047D01*
X62595238Y-40092380D02*
X63261904Y-40092380D01*
X62833333Y-41092380D01*
X63833333Y-40092380D02*
X63928571Y-40092380D01*
X64023809Y-40140000D01*
X64071428Y-40187619D01*
X64119047Y-40282857D01*
X64166666Y-40473333D01*
X64166666Y-40711428D01*
X64119047Y-40901904D01*
X64071428Y-40997142D01*
X64023809Y-41044761D01*
X63928571Y-41092380D01*
X63833333Y-41092380D01*
X63738095Y-41044761D01*
X63690476Y-40997142D01*
X63642857Y-40901904D01*
X63595238Y-40711428D01*
X63595238Y-40473333D01*
X63642857Y-40282857D01*
X63690476Y-40187619D01*
X63738095Y-40140000D01*
X63833333Y-40092380D01*
X64547619Y-41092380D02*
X64785714Y-41092380D01*
X64785714Y-40901904D01*
X64690476Y-40854285D01*
X64595238Y-40759047D01*
X64547619Y-40616190D01*
X64547619Y-40378095D01*
X64595238Y-40235238D01*
X64690476Y-40140000D01*
X64833333Y-40092380D01*
X65023809Y-40092380D01*
X65166666Y-40140000D01*
X65261904Y-40235238D01*
X65309523Y-40378095D01*
X65309523Y-40616190D01*
X65261904Y-40759047D01*
X65166666Y-40854285D01*
X65071428Y-40901904D01*
X65071428Y-41092380D01*
X65309523Y-41092380D01*
%TO.C,P2*%
X126261904Y-138952380D02*
X126261904Y-137952380D01*
X126642857Y-137952380D01*
X126738095Y-138000000D01*
X126785714Y-138047619D01*
X126833333Y-138142857D01*
X126833333Y-138285714D01*
X126785714Y-138380952D01*
X126738095Y-138428571D01*
X126642857Y-138476190D01*
X126261904Y-138476190D01*
X127214285Y-138047619D02*
X127261904Y-138000000D01*
X127357142Y-137952380D01*
X127595238Y-137952380D01*
X127690476Y-138000000D01*
X127738095Y-138047619D01*
X127785714Y-138142857D01*
X127785714Y-138238095D01*
X127738095Y-138380952D01*
X127166666Y-138952380D01*
X127785714Y-138952380D01*
X88714285Y-137952380D02*
X89380952Y-137952380D01*
X88714285Y-138952380D01*
X89380952Y-138952380D01*
X89904761Y-138380952D02*
X89809523Y-138333333D01*
X89761904Y-138285714D01*
X89714285Y-138190476D01*
X89714285Y-138142857D01*
X89761904Y-138047619D01*
X89809523Y-138000000D01*
X89904761Y-137952380D01*
X90095238Y-137952380D01*
X90190476Y-138000000D01*
X90238095Y-138047619D01*
X90285714Y-138142857D01*
X90285714Y-138190476D01*
X90238095Y-138285714D01*
X90190476Y-138333333D01*
X90095238Y-138380952D01*
X89904761Y-138380952D01*
X89809523Y-138428571D01*
X89761904Y-138476190D01*
X89714285Y-138571428D01*
X89714285Y-138761904D01*
X89761904Y-138857142D01*
X89809523Y-138904761D01*
X89904761Y-138952380D01*
X90095238Y-138952380D01*
X90190476Y-138904761D01*
X90238095Y-138857142D01*
X90285714Y-138761904D01*
X90285714Y-138571428D01*
X90238095Y-138476190D01*
X90190476Y-138428571D01*
X90095238Y-138380952D01*
X90904761Y-137952380D02*
X91000000Y-137952380D01*
X91095238Y-138000000D01*
X91142857Y-138047619D01*
X91190476Y-138142857D01*
X91238095Y-138333333D01*
X91238095Y-138571428D01*
X91190476Y-138761904D01*
X91142857Y-138857142D01*
X91095238Y-138904761D01*
X91000000Y-138952380D01*
X90904761Y-138952380D01*
X90809523Y-138904761D01*
X90761904Y-138857142D01*
X90714285Y-138761904D01*
X90666666Y-138571428D01*
X90666666Y-138333333D01*
X90714285Y-138142857D01*
X90761904Y-138047619D01*
X90809523Y-138000000D01*
X90904761Y-137952380D01*
X92761904Y-138428571D02*
X92904761Y-138476190D01*
X92952380Y-138523809D01*
X93000000Y-138619047D01*
X93000000Y-138761904D01*
X92952380Y-138857142D01*
X92904761Y-138904761D01*
X92809523Y-138952380D01*
X92428571Y-138952380D01*
X92428571Y-137952380D01*
X92761904Y-137952380D01*
X92857142Y-138000000D01*
X92904761Y-138047619D01*
X92952380Y-138142857D01*
X92952380Y-138238095D01*
X92904761Y-138333333D01*
X92857142Y-138380952D01*
X92761904Y-138428571D01*
X92428571Y-138428571D01*
X93428571Y-137952380D02*
X93428571Y-138761904D01*
X93476190Y-138857142D01*
X93523809Y-138904761D01*
X93619047Y-138952380D01*
X93809523Y-138952380D01*
X93904761Y-138904761D01*
X93952380Y-138857142D01*
X94000000Y-138761904D01*
X94000000Y-137952380D01*
X94428571Y-138904761D02*
X94571428Y-138952380D01*
X94809523Y-138952380D01*
X94904761Y-138904761D01*
X94952380Y-138857142D01*
X95000000Y-138761904D01*
X95000000Y-138666666D01*
X94952380Y-138571428D01*
X94904761Y-138523809D01*
X94809523Y-138476190D01*
X94619047Y-138428571D01*
X94523809Y-138380952D01*
X94476190Y-138333333D01*
X94428571Y-138238095D01*
X94428571Y-138142857D01*
X94476190Y-138047619D01*
X94523809Y-138000000D01*
X94619047Y-137952380D01*
X94857142Y-137952380D01*
X95000000Y-138000000D01*
X96523809Y-138428571D02*
X96666666Y-138476190D01*
X96714285Y-138523809D01*
X96761904Y-138619047D01*
X96761904Y-138761904D01*
X96714285Y-138857142D01*
X96666666Y-138904761D01*
X96571428Y-138952380D01*
X96190476Y-138952380D01*
X96190476Y-137952380D01*
X96523809Y-137952380D01*
X96619047Y-138000000D01*
X96666666Y-138047619D01*
X96714285Y-138142857D01*
X96714285Y-138238095D01*
X96666666Y-138333333D01*
X96619047Y-138380952D01*
X96523809Y-138428571D01*
X96190476Y-138428571D01*
X97142857Y-138666666D02*
X97619047Y-138666666D01*
X97047619Y-138952380D02*
X97380952Y-137952380D01*
X97714285Y-138952380D01*
X98619047Y-138857142D02*
X98571428Y-138904761D01*
X98428571Y-138952380D01*
X98333333Y-138952380D01*
X98190476Y-138904761D01*
X98095238Y-138809523D01*
X98047619Y-138714285D01*
X98000000Y-138523809D01*
X98000000Y-138380952D01*
X98047619Y-138190476D01*
X98095238Y-138095238D01*
X98190476Y-138000000D01*
X98333333Y-137952380D01*
X98428571Y-137952380D01*
X98571428Y-138000000D01*
X98619047Y-138047619D01*
X99047619Y-138952380D02*
X99047619Y-137952380D01*
X99619047Y-138952380D02*
X99190476Y-138380952D01*
X99619047Y-137952380D02*
X99047619Y-138523809D01*
X100047619Y-138952380D02*
X100047619Y-137952380D01*
X100428571Y-137952380D01*
X100523809Y-138000000D01*
X100571428Y-138047619D01*
X100619047Y-138142857D01*
X100619047Y-138285714D01*
X100571428Y-138380952D01*
X100523809Y-138428571D01*
X100428571Y-138476190D01*
X100047619Y-138476190D01*
X101523809Y-138952380D02*
X101047619Y-138952380D01*
X101047619Y-137952380D01*
X101809523Y-138666666D02*
X102285714Y-138666666D01*
X101714285Y-138952380D02*
X102047619Y-137952380D01*
X102380952Y-138952380D01*
X102714285Y-138952380D02*
X102714285Y-137952380D01*
X103285714Y-138952380D01*
X103285714Y-137952380D01*
X103761904Y-138428571D02*
X104095238Y-138428571D01*
X104238095Y-138952380D02*
X103761904Y-138952380D01*
X103761904Y-137952380D01*
X104238095Y-137952380D01*
%TO.C,D2*%
X55141904Y-37922380D02*
X55141904Y-36922380D01*
X55380000Y-36922380D01*
X55522857Y-36970000D01*
X55618095Y-37065238D01*
X55665714Y-37160476D01*
X55713333Y-37350952D01*
X55713333Y-37493809D01*
X55665714Y-37684285D01*
X55618095Y-37779523D01*
X55522857Y-37874761D01*
X55380000Y-37922380D01*
X55141904Y-37922380D01*
X56094285Y-37017619D02*
X56141904Y-36970000D01*
X56237142Y-36922380D01*
X56475238Y-36922380D01*
X56570476Y-36970000D01*
X56618095Y-37017619D01*
X56665714Y-37112857D01*
X56665714Y-37208095D01*
X56618095Y-37350952D01*
X56046666Y-37922380D01*
X56665714Y-37922380D01*
X53087142Y-32002380D02*
X52610952Y-32002380D01*
X52610952Y-31002380D01*
X53420476Y-31478571D02*
X53753809Y-31478571D01*
X53896666Y-32002380D02*
X53420476Y-32002380D01*
X53420476Y-31002380D01*
X53896666Y-31002380D01*
X54325238Y-32002380D02*
X54325238Y-31002380D01*
X54563333Y-31002380D01*
X54706190Y-31050000D01*
X54801428Y-31145238D01*
X54849047Y-31240476D01*
X54896666Y-31430952D01*
X54896666Y-31573809D01*
X54849047Y-31764285D01*
X54801428Y-31859523D01*
X54706190Y-31954761D01*
X54563333Y-32002380D01*
X54325238Y-32002380D01*
%TO.C,R10*%
X117875942Y-52522380D02*
X117542609Y-52046190D01*
X117304514Y-52522380D02*
X117304514Y-51522380D01*
X117685466Y-51522380D01*
X117780704Y-51570000D01*
X117828323Y-51617619D01*
X117875942Y-51712857D01*
X117875942Y-51855714D01*
X117828323Y-51950952D01*
X117780704Y-51998571D01*
X117685466Y-52046190D01*
X117304514Y-52046190D01*
X118828323Y-52522380D02*
X118256895Y-52522380D01*
X118542609Y-52522380D02*
X118542609Y-51522380D01*
X118447371Y-51665238D01*
X118352133Y-51760476D01*
X118256895Y-51808095D01*
X119447371Y-51522380D02*
X119542609Y-51522380D01*
X119637847Y-51570000D01*
X119685466Y-51617619D01*
X119733085Y-51712857D01*
X119780704Y-51903333D01*
X119780704Y-52141428D01*
X119733085Y-52331904D01*
X119685466Y-52427142D01*
X119637847Y-52474761D01*
X119542609Y-52522380D01*
X119447371Y-52522380D01*
X119352133Y-52474761D01*
X119304514Y-52427142D01*
X119256895Y-52331904D01*
X119209276Y-52141428D01*
X119209276Y-51903333D01*
X119256895Y-51712857D01*
X119304514Y-51617619D01*
X119352133Y-51570000D01*
X119447371Y-51522380D01*
X123412380Y-51950952D02*
X123317142Y-51903333D01*
X123269523Y-51855714D01*
X123221904Y-51760476D01*
X123221904Y-51712857D01*
X123269523Y-51617619D01*
X123317142Y-51570000D01*
X123412380Y-51522380D01*
X123602857Y-51522380D01*
X123698095Y-51570000D01*
X123745714Y-51617619D01*
X123793333Y-51712857D01*
X123793333Y-51760476D01*
X123745714Y-51855714D01*
X123698095Y-51903333D01*
X123602857Y-51950952D01*
X123412380Y-51950952D01*
X123317142Y-51998571D01*
X123269523Y-52046190D01*
X123221904Y-52141428D01*
X123221904Y-52331904D01*
X123269523Y-52427142D01*
X123317142Y-52474761D01*
X123412380Y-52522380D01*
X123602857Y-52522380D01*
X123698095Y-52474761D01*
X123745714Y-52427142D01*
X123793333Y-52331904D01*
X123793333Y-52141428D01*
X123745714Y-52046190D01*
X123698095Y-51998571D01*
X123602857Y-51950952D01*
X124412380Y-51522380D02*
X124507619Y-51522380D01*
X124602857Y-51570000D01*
X124650476Y-51617619D01*
X124698095Y-51712857D01*
X124745714Y-51903333D01*
X124745714Y-52141428D01*
X124698095Y-52331904D01*
X124650476Y-52427142D01*
X124602857Y-52474761D01*
X124507619Y-52522380D01*
X124412380Y-52522380D01*
X124317142Y-52474761D01*
X124269523Y-52427142D01*
X124221904Y-52331904D01*
X124174285Y-52141428D01*
X124174285Y-51903333D01*
X124221904Y-51712857D01*
X124269523Y-51617619D01*
X124317142Y-51570000D01*
X124412380Y-51522380D01*
X125364761Y-51522380D02*
X125460000Y-51522380D01*
X125555238Y-51570000D01*
X125602857Y-51617619D01*
X125650476Y-51712857D01*
X125698095Y-51903333D01*
X125698095Y-52141428D01*
X125650476Y-52331904D01*
X125602857Y-52427142D01*
X125555238Y-52474761D01*
X125460000Y-52522380D01*
X125364761Y-52522380D01*
X125269523Y-52474761D01*
X125221904Y-52427142D01*
X125174285Y-52331904D01*
X125126666Y-52141428D01*
X125126666Y-51903333D01*
X125174285Y-51712857D01*
X125221904Y-51617619D01*
X125269523Y-51570000D01*
X125364761Y-51522380D01*
%TO.C,U8*%
X51048095Y-108122380D02*
X51048095Y-108931904D01*
X51095714Y-109027142D01*
X51143333Y-109074761D01*
X51238571Y-109122380D01*
X51429047Y-109122380D01*
X51524285Y-109074761D01*
X51571904Y-109027142D01*
X51619523Y-108931904D01*
X51619523Y-108122380D01*
X52238571Y-108550952D02*
X52143333Y-108503333D01*
X52095714Y-108455714D01*
X52048095Y-108360476D01*
X52048095Y-108312857D01*
X52095714Y-108217619D01*
X52143333Y-108170000D01*
X52238571Y-108122380D01*
X52429047Y-108122380D01*
X52524285Y-108170000D01*
X52571904Y-108217619D01*
X52619523Y-108312857D01*
X52619523Y-108360476D01*
X52571904Y-108455714D01*
X52524285Y-108503333D01*
X52429047Y-108550952D01*
X52238571Y-108550952D01*
X52143333Y-108598571D01*
X52095714Y-108646190D01*
X52048095Y-108741428D01*
X52048095Y-108931904D01*
X52095714Y-109027142D01*
X52143333Y-109074761D01*
X52238571Y-109122380D01*
X52429047Y-109122380D01*
X52524285Y-109074761D01*
X52571904Y-109027142D01*
X52619523Y-108931904D01*
X52619523Y-108741428D01*
X52571904Y-108646190D01*
X52524285Y-108598571D01*
X52429047Y-108550952D01*
X48548095Y-130562380D02*
X49214761Y-130562380D01*
X48786190Y-131562380D01*
X50024285Y-130895714D02*
X50024285Y-131562380D01*
X49786190Y-130514761D02*
X49548095Y-131229047D01*
X50167142Y-131229047D01*
X50548095Y-131562380D02*
X50548095Y-130562380D01*
X50548095Y-131038571D02*
X51119523Y-131038571D01*
X51119523Y-131562380D02*
X51119523Y-130562380D01*
X52167142Y-131467142D02*
X52119523Y-131514761D01*
X51976666Y-131562380D01*
X51881428Y-131562380D01*
X51738571Y-131514761D01*
X51643333Y-131419523D01*
X51595714Y-131324285D01*
X51548095Y-131133809D01*
X51548095Y-130990952D01*
X51595714Y-130800476D01*
X51643333Y-130705238D01*
X51738571Y-130610000D01*
X51881428Y-130562380D01*
X51976666Y-130562380D01*
X52119523Y-130610000D01*
X52167142Y-130657619D01*
X53119523Y-131562380D02*
X52548095Y-131562380D01*
X52833809Y-131562380D02*
X52833809Y-130562380D01*
X52738571Y-130705238D01*
X52643333Y-130800476D01*
X52548095Y-130848095D01*
X53976666Y-130562380D02*
X53786190Y-130562380D01*
X53690952Y-130610000D01*
X53643333Y-130657619D01*
X53548095Y-130800476D01*
X53500476Y-130990952D01*
X53500476Y-131371904D01*
X53548095Y-131467142D01*
X53595714Y-131514761D01*
X53690952Y-131562380D01*
X53881428Y-131562380D01*
X53976666Y-131514761D01*
X54024285Y-131467142D01*
X54071904Y-131371904D01*
X54071904Y-131133809D01*
X54024285Y-131038571D01*
X53976666Y-130990952D01*
X53881428Y-130943333D01*
X53690952Y-130943333D01*
X53595714Y-130990952D01*
X53548095Y-131038571D01*
X53500476Y-131133809D01*
X54976666Y-130562380D02*
X54500476Y-130562380D01*
X54452857Y-131038571D01*
X54500476Y-130990952D01*
X54595714Y-130943333D01*
X54833809Y-130943333D01*
X54929047Y-130990952D01*
X54976666Y-131038571D01*
X55024285Y-131133809D01*
X55024285Y-131371904D01*
X54976666Y-131467142D01*
X54929047Y-131514761D01*
X54833809Y-131562380D01*
X54595714Y-131562380D01*
X54500476Y-131514761D01*
X54452857Y-131467142D01*
%TO.C,U12*%
X93432380Y-71408095D02*
X94241904Y-71408095D01*
X94337142Y-71360476D01*
X94384761Y-71312857D01*
X94432380Y-71217619D01*
X94432380Y-71027142D01*
X94384761Y-70931904D01*
X94337142Y-70884285D01*
X94241904Y-70836666D01*
X93432380Y-70836666D01*
X94432380Y-69836666D02*
X94432380Y-70408095D01*
X94432380Y-70122380D02*
X93432380Y-70122380D01*
X93575238Y-70217619D01*
X93670476Y-70312857D01*
X93718095Y-70408095D01*
X93527619Y-69455714D02*
X93480000Y-69408095D01*
X93432380Y-69312857D01*
X93432380Y-69074761D01*
X93480000Y-68979523D01*
X93527619Y-68931904D01*
X93622857Y-68884285D01*
X93718095Y-68884285D01*
X93860952Y-68931904D01*
X94432380Y-69503333D01*
X94432380Y-68884285D01*
X101528571Y-62935000D02*
X101528571Y-62601666D01*
X102052380Y-62458809D02*
X102052380Y-62935000D01*
X101052380Y-62935000D01*
X101052380Y-62458809D01*
X102004761Y-62077857D02*
X102052380Y-61935000D01*
X102052380Y-61696904D01*
X102004761Y-61601666D01*
X101957142Y-61554047D01*
X101861904Y-61506428D01*
X101766666Y-61506428D01*
X101671428Y-61554047D01*
X101623809Y-61601666D01*
X101576190Y-61696904D01*
X101528571Y-61887380D01*
X101480952Y-61982619D01*
X101433333Y-62030238D01*
X101338095Y-62077857D01*
X101242857Y-62077857D01*
X101147619Y-62030238D01*
X101100000Y-61982619D01*
X101052380Y-61887380D01*
X101052380Y-61649285D01*
X101100000Y-61506428D01*
X102052380Y-61077857D02*
X101052380Y-61077857D01*
X101052380Y-60696904D01*
X101100000Y-60601666D01*
X101147619Y-60554047D01*
X101242857Y-60506428D01*
X101385714Y-60506428D01*
X101480952Y-60554047D01*
X101528571Y-60601666D01*
X101576190Y-60696904D01*
X101576190Y-61077857D01*
X101052380Y-60173095D02*
X101052380Y-59554047D01*
X101433333Y-59887380D01*
X101433333Y-59744523D01*
X101480952Y-59649285D01*
X101528571Y-59601666D01*
X101623809Y-59554047D01*
X101861904Y-59554047D01*
X101957142Y-59601666D01*
X102004761Y-59649285D01*
X102052380Y-59744523D01*
X102052380Y-60030238D01*
X102004761Y-60125476D01*
X101957142Y-60173095D01*
X101147619Y-59173095D02*
X101100000Y-59125476D01*
X101052380Y-59030238D01*
X101052380Y-58792142D01*
X101100000Y-58696904D01*
X101147619Y-58649285D01*
X101242857Y-58601666D01*
X101338095Y-58601666D01*
X101480952Y-58649285D01*
X102052380Y-59220714D01*
X102052380Y-58601666D01*
X102147619Y-58411190D02*
X102147619Y-57649285D01*
X102052380Y-57411190D02*
X101052380Y-57411190D01*
X101766666Y-57077857D01*
X101052380Y-56744523D01*
X102052380Y-56744523D01*
X101052380Y-56077857D02*
X101052380Y-55887380D01*
X101100000Y-55792142D01*
X101195238Y-55696904D01*
X101385714Y-55649285D01*
X101719047Y-55649285D01*
X101909523Y-55696904D01*
X102004761Y-55792142D01*
X102052380Y-55887380D01*
X102052380Y-56077857D01*
X102004761Y-56173095D01*
X101909523Y-56268333D01*
X101719047Y-56315952D01*
X101385714Y-56315952D01*
X101195238Y-56268333D01*
X101100000Y-56173095D01*
X101052380Y-56077857D01*
X102052380Y-55220714D02*
X101052380Y-55220714D01*
X101052380Y-54982619D01*
X101100000Y-54839761D01*
X101195238Y-54744523D01*
X101290476Y-54696904D01*
X101480952Y-54649285D01*
X101623809Y-54649285D01*
X101814285Y-54696904D01*
X101909523Y-54744523D01*
X102004761Y-54839761D01*
X102052380Y-54982619D01*
X102052380Y-55220714D01*
X101052380Y-54220714D02*
X101861904Y-54220714D01*
X101957142Y-54173095D01*
X102004761Y-54125476D01*
X102052380Y-54030238D01*
X102052380Y-53839761D01*
X102004761Y-53744523D01*
X101957142Y-53696904D01*
X101861904Y-53649285D01*
X101052380Y-53649285D01*
X102052380Y-52696904D02*
X102052380Y-53173095D01*
X101052380Y-53173095D01*
X101528571Y-52363571D02*
X101528571Y-52030238D01*
X102052380Y-51887380D02*
X102052380Y-52363571D01*
X101052380Y-52363571D01*
X101052380Y-51887380D01*
%TO.C,U13*%
X93432380Y-102838095D02*
X94241904Y-102838095D01*
X94337142Y-102790476D01*
X94384761Y-102742857D01*
X94432380Y-102647619D01*
X94432380Y-102457142D01*
X94384761Y-102361904D01*
X94337142Y-102314285D01*
X94241904Y-102266666D01*
X93432380Y-102266666D01*
X94432380Y-101266666D02*
X94432380Y-101838095D01*
X94432380Y-101552380D02*
X93432380Y-101552380D01*
X93575238Y-101647619D01*
X93670476Y-101742857D01*
X93718095Y-101838095D01*
X93432380Y-100933333D02*
X93432380Y-100314285D01*
X93813333Y-100647619D01*
X93813333Y-100504761D01*
X93860952Y-100409523D01*
X93908571Y-100361904D01*
X94003809Y-100314285D01*
X94241904Y-100314285D01*
X94337142Y-100361904D01*
X94384761Y-100409523D01*
X94432380Y-100504761D01*
X94432380Y-100790476D01*
X94384761Y-100885714D01*
X94337142Y-100933333D01*
X101528571Y-94415000D02*
X101528571Y-94081666D01*
X102052380Y-93938809D02*
X102052380Y-94415000D01*
X101052380Y-94415000D01*
X101052380Y-93938809D01*
X102004761Y-93557857D02*
X102052380Y-93415000D01*
X102052380Y-93176904D01*
X102004761Y-93081666D01*
X101957142Y-93034047D01*
X101861904Y-92986428D01*
X101766666Y-92986428D01*
X101671428Y-93034047D01*
X101623809Y-93081666D01*
X101576190Y-93176904D01*
X101528571Y-93367380D01*
X101480952Y-93462619D01*
X101433333Y-93510238D01*
X101338095Y-93557857D01*
X101242857Y-93557857D01*
X101147619Y-93510238D01*
X101100000Y-93462619D01*
X101052380Y-93367380D01*
X101052380Y-93129285D01*
X101100000Y-92986428D01*
X102052380Y-92557857D02*
X101052380Y-92557857D01*
X101052380Y-92176904D01*
X101100000Y-92081666D01*
X101147619Y-92034047D01*
X101242857Y-91986428D01*
X101385714Y-91986428D01*
X101480952Y-92034047D01*
X101528571Y-92081666D01*
X101576190Y-92176904D01*
X101576190Y-92557857D01*
X101052380Y-91653095D02*
X101052380Y-91034047D01*
X101433333Y-91367380D01*
X101433333Y-91224523D01*
X101480952Y-91129285D01*
X101528571Y-91081666D01*
X101623809Y-91034047D01*
X101861904Y-91034047D01*
X101957142Y-91081666D01*
X102004761Y-91129285D01*
X102052380Y-91224523D01*
X102052380Y-91510238D01*
X102004761Y-91605476D01*
X101957142Y-91653095D01*
X101147619Y-90653095D02*
X101100000Y-90605476D01*
X101052380Y-90510238D01*
X101052380Y-90272142D01*
X101100000Y-90176904D01*
X101147619Y-90129285D01*
X101242857Y-90081666D01*
X101338095Y-90081666D01*
X101480952Y-90129285D01*
X102052380Y-90700714D01*
X102052380Y-90081666D01*
X102147619Y-89891190D02*
X102147619Y-89129285D01*
X102052380Y-88891190D02*
X101052380Y-88891190D01*
X101766666Y-88557857D01*
X101052380Y-88224523D01*
X102052380Y-88224523D01*
X101052380Y-87557857D02*
X101052380Y-87367380D01*
X101100000Y-87272142D01*
X101195238Y-87176904D01*
X101385714Y-87129285D01*
X101719047Y-87129285D01*
X101909523Y-87176904D01*
X102004761Y-87272142D01*
X102052380Y-87367380D01*
X102052380Y-87557857D01*
X102004761Y-87653095D01*
X101909523Y-87748333D01*
X101719047Y-87795952D01*
X101385714Y-87795952D01*
X101195238Y-87748333D01*
X101100000Y-87653095D01*
X101052380Y-87557857D01*
X102052380Y-86700714D02*
X101052380Y-86700714D01*
X101052380Y-86462619D01*
X101100000Y-86319761D01*
X101195238Y-86224523D01*
X101290476Y-86176904D01*
X101480952Y-86129285D01*
X101623809Y-86129285D01*
X101814285Y-86176904D01*
X101909523Y-86224523D01*
X102004761Y-86319761D01*
X102052380Y-86462619D01*
X102052380Y-86700714D01*
X101052380Y-85700714D02*
X101861904Y-85700714D01*
X101957142Y-85653095D01*
X102004761Y-85605476D01*
X102052380Y-85510238D01*
X102052380Y-85319761D01*
X102004761Y-85224523D01*
X101957142Y-85176904D01*
X101861904Y-85129285D01*
X101052380Y-85129285D01*
X102052380Y-84176904D02*
X102052380Y-84653095D01*
X101052380Y-84653095D01*
X101528571Y-83843571D02*
X101528571Y-83510238D01*
X102052380Y-83367380D02*
X102052380Y-83843571D01*
X101052380Y-83843571D01*
X101052380Y-83367380D01*
%TO.C,U7*%
X63131395Y-108122380D02*
X63131395Y-108931904D01*
X63179014Y-109027142D01*
X63226633Y-109074761D01*
X63321871Y-109122380D01*
X63512347Y-109122380D01*
X63607585Y-109074761D01*
X63655204Y-109027142D01*
X63702823Y-108931904D01*
X63702823Y-108122380D01*
X64083776Y-108122380D02*
X64750442Y-108122380D01*
X64321871Y-109122380D01*
X60631395Y-130562380D02*
X61298061Y-130562380D01*
X60869490Y-131562380D01*
X62107585Y-130895714D02*
X62107585Y-131562380D01*
X61869490Y-130514761D02*
X61631395Y-131229047D01*
X62250442Y-131229047D01*
X62631395Y-131562380D02*
X62631395Y-130562380D01*
X62631395Y-131038571D02*
X63202823Y-131038571D01*
X63202823Y-131562380D02*
X63202823Y-130562380D01*
X64250442Y-131467142D02*
X64202823Y-131514761D01*
X64059966Y-131562380D01*
X63964728Y-131562380D01*
X63821871Y-131514761D01*
X63726633Y-131419523D01*
X63679014Y-131324285D01*
X63631395Y-131133809D01*
X63631395Y-130990952D01*
X63679014Y-130800476D01*
X63726633Y-130705238D01*
X63821871Y-130610000D01*
X63964728Y-130562380D01*
X64059966Y-130562380D01*
X64202823Y-130610000D01*
X64250442Y-130657619D01*
X65155204Y-130562380D02*
X64679014Y-130562380D01*
X64631395Y-131038571D01*
X64679014Y-130990952D01*
X64774252Y-130943333D01*
X65012347Y-130943333D01*
X65107585Y-130990952D01*
X65155204Y-131038571D01*
X65202823Y-131133809D01*
X65202823Y-131371904D01*
X65155204Y-131467142D01*
X65107585Y-131514761D01*
X65012347Y-131562380D01*
X64774252Y-131562380D01*
X64679014Y-131514761D01*
X64631395Y-131467142D01*
X65679014Y-131562380D02*
X65869490Y-131562380D01*
X65964728Y-131514761D01*
X66012347Y-131467142D01*
X66107585Y-131324285D01*
X66155204Y-131133809D01*
X66155204Y-130752857D01*
X66107585Y-130657619D01*
X66059966Y-130610000D01*
X65964728Y-130562380D01*
X65774252Y-130562380D01*
X65679014Y-130610000D01*
X65631395Y-130657619D01*
X65583776Y-130752857D01*
X65583776Y-130990952D01*
X65631395Y-131086190D01*
X65679014Y-131133809D01*
X65774252Y-131181428D01*
X65964728Y-131181428D01*
X66059966Y-131133809D01*
X66107585Y-131086190D01*
X66155204Y-130990952D01*
X67059966Y-130562380D02*
X66583776Y-130562380D01*
X66536157Y-131038571D01*
X66583776Y-130990952D01*
X66679014Y-130943333D01*
X66917109Y-130943333D01*
X67012347Y-130990952D01*
X67059966Y-131038571D01*
X67107585Y-131133809D01*
X67107585Y-131371904D01*
X67059966Y-131467142D01*
X67012347Y-131514761D01*
X66917109Y-131562380D01*
X66679014Y-131562380D01*
X66583776Y-131514761D01*
X66536157Y-131467142D01*
%TO.C,C10*%
X75323842Y-71477142D02*
X75276223Y-71524761D01*
X75133366Y-71572380D01*
X75038128Y-71572380D01*
X74895271Y-71524761D01*
X74800033Y-71429523D01*
X74752414Y-71334285D01*
X74704795Y-71143809D01*
X74704795Y-71000952D01*
X74752414Y-70810476D01*
X74800033Y-70715238D01*
X74895271Y-70620000D01*
X75038128Y-70572380D01*
X75133366Y-70572380D01*
X75276223Y-70620000D01*
X75323842Y-70667619D01*
X76276223Y-71572380D02*
X75704795Y-71572380D01*
X75990509Y-71572380D02*
X75990509Y-70572380D01*
X75895271Y-70715238D01*
X75800033Y-70810476D01*
X75704795Y-70858095D01*
X76895271Y-70572380D02*
X76990509Y-70572380D01*
X77085747Y-70620000D01*
X77133366Y-70667619D01*
X77180985Y-70762857D01*
X77228604Y-70953333D01*
X77228604Y-71191428D01*
X77180985Y-71381904D01*
X77133366Y-71477142D01*
X77085747Y-71524761D01*
X76990509Y-71572380D01*
X76895271Y-71572380D01*
X76800033Y-71524761D01*
X76752414Y-71477142D01*
X76704795Y-71381904D01*
X76657176Y-71191428D01*
X76657176Y-70953333D01*
X76704795Y-70762857D01*
X76752414Y-70667619D01*
X76800033Y-70620000D01*
X76895271Y-70572380D01*
X74252414Y-68032380D02*
X74347652Y-68032380D01*
X74442890Y-68080000D01*
X74490509Y-68127619D01*
X74538128Y-68222857D01*
X74585747Y-68413333D01*
X74585747Y-68651428D01*
X74538128Y-68841904D01*
X74490509Y-68937142D01*
X74442890Y-68984761D01*
X74347652Y-69032380D01*
X74252414Y-69032380D01*
X74157176Y-68984761D01*
X74109557Y-68937142D01*
X74061938Y-68841904D01*
X74014319Y-68651428D01*
X74014319Y-68413333D01*
X74061938Y-68222857D01*
X74109557Y-68127619D01*
X74157176Y-68080000D01*
X74252414Y-68032380D01*
X75014319Y-68937142D02*
X75061938Y-68984761D01*
X75014319Y-69032380D01*
X74966700Y-68984761D01*
X75014319Y-68937142D01*
X75014319Y-69032380D01*
X76014319Y-69032380D02*
X75442890Y-69032380D01*
X75728604Y-69032380D02*
X75728604Y-68032380D01*
X75633366Y-68175238D01*
X75538128Y-68270476D01*
X75442890Y-68318095D01*
X76442890Y-68365714D02*
X76442890Y-69365714D01*
X76919080Y-68889523D02*
X76966700Y-68984761D01*
X77061938Y-69032380D01*
X76442890Y-68889523D02*
X76490509Y-68984761D01*
X76585747Y-69032380D01*
X76776223Y-69032380D01*
X76871461Y-68984761D01*
X76919080Y-68889523D01*
X76919080Y-68365714D01*
X77823842Y-68508571D02*
X77490509Y-68508571D01*
X77490509Y-69032380D02*
X77490509Y-68032380D01*
X77966700Y-68032380D01*
%TO.C,R7*%
X142132133Y-62682380D02*
X141798800Y-62206190D01*
X141560704Y-62682380D02*
X141560704Y-61682380D01*
X141941657Y-61682380D01*
X142036895Y-61730000D01*
X142084514Y-61777619D01*
X142132133Y-61872857D01*
X142132133Y-62015714D01*
X142084514Y-62110952D01*
X142036895Y-62158571D01*
X141941657Y-62206190D01*
X141560704Y-62206190D01*
X142465466Y-61682380D02*
X143132133Y-61682380D01*
X142703561Y-62682380D01*
X135186895Y-62015714D02*
X135186895Y-62682380D01*
X134948800Y-61634761D02*
X134710704Y-62349047D01*
X135329752Y-62349047D01*
X135901180Y-61682380D02*
X135996419Y-61682380D01*
X136091657Y-61730000D01*
X136139276Y-61777619D01*
X136186895Y-61872857D01*
X136234514Y-62063333D01*
X136234514Y-62301428D01*
X136186895Y-62491904D01*
X136139276Y-62587142D01*
X136091657Y-62634761D01*
X135996419Y-62682380D01*
X135901180Y-62682380D01*
X135805942Y-62634761D01*
X135758323Y-62587142D01*
X135710704Y-62491904D01*
X135663085Y-62301428D01*
X135663085Y-62063333D01*
X135710704Y-61872857D01*
X135758323Y-61777619D01*
X135805942Y-61730000D01*
X135901180Y-61682380D01*
X136853561Y-61682380D02*
X136948800Y-61682380D01*
X137044038Y-61730000D01*
X137091657Y-61777619D01*
X137139276Y-61872857D01*
X137186895Y-62063333D01*
X137186895Y-62301428D01*
X137139276Y-62491904D01*
X137091657Y-62587142D01*
X137044038Y-62634761D01*
X136948800Y-62682380D01*
X136853561Y-62682380D01*
X136758323Y-62634761D01*
X136710704Y-62587142D01*
X136663085Y-62491904D01*
X136615466Y-62301428D01*
X136615466Y-62063333D01*
X136663085Y-61872857D01*
X136710704Y-61777619D01*
X136758323Y-61730000D01*
X136853561Y-61682380D01*
%TO.C,C9*%
X63716633Y-107037142D02*
X63669014Y-107084761D01*
X63526157Y-107132380D01*
X63430919Y-107132380D01*
X63288061Y-107084761D01*
X63192823Y-106989523D01*
X63145204Y-106894285D01*
X63097585Y-106703809D01*
X63097585Y-106560952D01*
X63145204Y-106370476D01*
X63192823Y-106275238D01*
X63288061Y-106180000D01*
X63430919Y-106132380D01*
X63526157Y-106132380D01*
X63669014Y-106180000D01*
X63716633Y-106227619D01*
X64192823Y-107132380D02*
X64383300Y-107132380D01*
X64478538Y-107084761D01*
X64526157Y-107037142D01*
X64621395Y-106894285D01*
X64669014Y-106703809D01*
X64669014Y-106322857D01*
X64621395Y-106227619D01*
X64573776Y-106180000D01*
X64478538Y-106132380D01*
X64288061Y-106132380D01*
X64192823Y-106180000D01*
X64145204Y-106227619D01*
X64097585Y-106322857D01*
X64097585Y-106560952D01*
X64145204Y-106656190D01*
X64192823Y-106703809D01*
X64288061Y-106751428D01*
X64478538Y-106751428D01*
X64573776Y-106703809D01*
X64621395Y-106656190D01*
X64669014Y-106560952D01*
X67419014Y-104702380D02*
X67514252Y-104702380D01*
X67609490Y-104750000D01*
X67657109Y-104797619D01*
X67704728Y-104892857D01*
X67752347Y-105083333D01*
X67752347Y-105321428D01*
X67704728Y-105511904D01*
X67657109Y-105607142D01*
X67609490Y-105654761D01*
X67514252Y-105702380D01*
X67419014Y-105702380D01*
X67323776Y-105654761D01*
X67276157Y-105607142D01*
X67228538Y-105511904D01*
X67180919Y-105321428D01*
X67180919Y-105083333D01*
X67228538Y-104892857D01*
X67276157Y-104797619D01*
X67323776Y-104750000D01*
X67419014Y-104702380D01*
X68180919Y-105607142D02*
X68228538Y-105654761D01*
X68180919Y-105702380D01*
X68133300Y-105654761D01*
X68180919Y-105607142D01*
X68180919Y-105702380D01*
X69180919Y-105702380D02*
X68609490Y-105702380D01*
X68895204Y-105702380D02*
X68895204Y-104702380D01*
X68799966Y-104845238D01*
X68704728Y-104940476D01*
X68609490Y-104988095D01*
X69609490Y-105035714D02*
X69609490Y-106035714D01*
X70085680Y-105559523D02*
X70133300Y-105654761D01*
X70228538Y-105702380D01*
X69609490Y-105559523D02*
X69657109Y-105654761D01*
X69752347Y-105702380D01*
X69942823Y-105702380D01*
X70038061Y-105654761D01*
X70085680Y-105559523D01*
X70085680Y-105035714D01*
X70990442Y-105178571D02*
X70657109Y-105178571D01*
X70657109Y-105702380D02*
X70657109Y-104702380D01*
X71133300Y-104702380D01*
%TO.C,U5*%
X50048095Y-42837380D02*
X50048095Y-43646904D01*
X50095714Y-43742142D01*
X50143333Y-43789761D01*
X50238571Y-43837380D01*
X50429047Y-43837380D01*
X50524285Y-43789761D01*
X50571904Y-43742142D01*
X50619523Y-43646904D01*
X50619523Y-42837380D01*
X51571904Y-42837380D02*
X51095714Y-42837380D01*
X51048095Y-43313571D01*
X51095714Y-43265952D01*
X51190952Y-43218333D01*
X51429047Y-43218333D01*
X51524285Y-43265952D01*
X51571904Y-43313571D01*
X51619523Y-43408809D01*
X51619523Y-43646904D01*
X51571904Y-43742142D01*
X51524285Y-43789761D01*
X51429047Y-43837380D01*
X51190952Y-43837380D01*
X51095714Y-43789761D01*
X51048095Y-43742142D01*
X48167142Y-62737380D02*
X48833809Y-62737380D01*
X48405238Y-63737380D01*
X49643333Y-63070714D02*
X49643333Y-63737380D01*
X49405238Y-62689761D02*
X49167142Y-63404047D01*
X49786190Y-63404047D01*
X50643333Y-63737380D02*
X50167142Y-63737380D01*
X50167142Y-62737380D01*
X50929047Y-63689761D02*
X51071904Y-63737380D01*
X51310000Y-63737380D01*
X51405238Y-63689761D01*
X51452857Y-63642142D01*
X51500476Y-63546904D01*
X51500476Y-63451666D01*
X51452857Y-63356428D01*
X51405238Y-63308809D01*
X51310000Y-63261190D01*
X51119523Y-63213571D01*
X51024285Y-63165952D01*
X50976666Y-63118333D01*
X50929047Y-63023095D01*
X50929047Y-62927857D01*
X50976666Y-62832619D01*
X51024285Y-62785000D01*
X51119523Y-62737380D01*
X51357619Y-62737380D01*
X51500476Y-62785000D01*
X51833809Y-62737380D02*
X52452857Y-62737380D01*
X52119523Y-63118333D01*
X52262380Y-63118333D01*
X52357619Y-63165952D01*
X52405238Y-63213571D01*
X52452857Y-63308809D01*
X52452857Y-63546904D01*
X52405238Y-63642142D01*
X52357619Y-63689761D01*
X52262380Y-63737380D01*
X51976666Y-63737380D01*
X51881428Y-63689761D01*
X51833809Y-63642142D01*
X52833809Y-62832619D02*
X52881428Y-62785000D01*
X52976666Y-62737380D01*
X53214761Y-62737380D01*
X53310000Y-62785000D01*
X53357619Y-62832619D01*
X53405238Y-62927857D01*
X53405238Y-63023095D01*
X53357619Y-63165952D01*
X52786190Y-63737380D01*
X53405238Y-63737380D01*
%TO.C,R11*%
X141655942Y-52522380D02*
X141322609Y-52046190D01*
X141084514Y-52522380D02*
X141084514Y-51522380D01*
X141465466Y-51522380D01*
X141560704Y-51570000D01*
X141608323Y-51617619D01*
X141655942Y-51712857D01*
X141655942Y-51855714D01*
X141608323Y-51950952D01*
X141560704Y-51998571D01*
X141465466Y-52046190D01*
X141084514Y-52046190D01*
X142608323Y-52522380D02*
X142036895Y-52522380D01*
X142322609Y-52522380D02*
X142322609Y-51522380D01*
X142227371Y-51665238D01*
X142132133Y-51760476D01*
X142036895Y-51808095D01*
X143560704Y-52522380D02*
X142989276Y-52522380D01*
X143274990Y-52522380D02*
X143274990Y-51522380D01*
X143179752Y-51665238D01*
X143084514Y-51760476D01*
X142989276Y-51808095D01*
X135186895Y-51855714D02*
X135186895Y-52522380D01*
X134948800Y-51474761D02*
X134710704Y-52189047D01*
X135329752Y-52189047D01*
X135901180Y-51522380D02*
X135996419Y-51522380D01*
X136091657Y-51570000D01*
X136139276Y-51617619D01*
X136186895Y-51712857D01*
X136234514Y-51903333D01*
X136234514Y-52141428D01*
X136186895Y-52331904D01*
X136139276Y-52427142D01*
X136091657Y-52474761D01*
X135996419Y-52522380D01*
X135901180Y-52522380D01*
X135805942Y-52474761D01*
X135758323Y-52427142D01*
X135710704Y-52331904D01*
X135663085Y-52141428D01*
X135663085Y-51903333D01*
X135710704Y-51712857D01*
X135758323Y-51617619D01*
X135805942Y-51570000D01*
X135901180Y-51522380D01*
X136853561Y-51522380D02*
X136948800Y-51522380D01*
X137044038Y-51570000D01*
X137091657Y-51617619D01*
X137139276Y-51712857D01*
X137186895Y-51903333D01*
X137186895Y-52141428D01*
X137139276Y-52331904D01*
X137091657Y-52427142D01*
X137044038Y-52474761D01*
X136948800Y-52522380D01*
X136853561Y-52522380D01*
X136758323Y-52474761D01*
X136710704Y-52427142D01*
X136663085Y-52331904D01*
X136615466Y-52141428D01*
X136615466Y-51903333D01*
X136663085Y-51712857D01*
X136710704Y-51617619D01*
X136758323Y-51570000D01*
X136853561Y-51522380D01*
%TO.C,R12*%
X117875942Y-62682380D02*
X117542609Y-62206190D01*
X117304514Y-62682380D02*
X117304514Y-61682380D01*
X117685466Y-61682380D01*
X117780704Y-61730000D01*
X117828323Y-61777619D01*
X117875942Y-61872857D01*
X117875942Y-62015714D01*
X117828323Y-62110952D01*
X117780704Y-62158571D01*
X117685466Y-62206190D01*
X117304514Y-62206190D01*
X118828323Y-62682380D02*
X118256895Y-62682380D01*
X118542609Y-62682380D02*
X118542609Y-61682380D01*
X118447371Y-61825238D01*
X118352133Y-61920476D01*
X118256895Y-61968095D01*
X119209276Y-61777619D02*
X119256895Y-61730000D01*
X119352133Y-61682380D01*
X119590228Y-61682380D01*
X119685466Y-61730000D01*
X119733085Y-61777619D01*
X119780704Y-61872857D01*
X119780704Y-61968095D01*
X119733085Y-62110952D01*
X119161657Y-62682380D01*
X119780704Y-62682380D01*
X123471180Y-62110952D02*
X123375942Y-62063333D01*
X123328323Y-62015714D01*
X123280704Y-61920476D01*
X123280704Y-61872857D01*
X123328323Y-61777619D01*
X123375942Y-61730000D01*
X123471180Y-61682380D01*
X123661657Y-61682380D01*
X123756895Y-61730000D01*
X123804514Y-61777619D01*
X123852133Y-61872857D01*
X123852133Y-61920476D01*
X123804514Y-62015714D01*
X123756895Y-62063333D01*
X123661657Y-62110952D01*
X123471180Y-62110952D01*
X123375942Y-62158571D01*
X123328323Y-62206190D01*
X123280704Y-62301428D01*
X123280704Y-62491904D01*
X123328323Y-62587142D01*
X123375942Y-62634761D01*
X123471180Y-62682380D01*
X123661657Y-62682380D01*
X123756895Y-62634761D01*
X123804514Y-62587142D01*
X123852133Y-62491904D01*
X123852133Y-62301428D01*
X123804514Y-62206190D01*
X123756895Y-62158571D01*
X123661657Y-62110952D01*
X124471180Y-61682380D02*
X124566419Y-61682380D01*
X124661657Y-61730000D01*
X124709276Y-61777619D01*
X124756895Y-61872857D01*
X124804514Y-62063333D01*
X124804514Y-62301428D01*
X124756895Y-62491904D01*
X124709276Y-62587142D01*
X124661657Y-62634761D01*
X124566419Y-62682380D01*
X124471180Y-62682380D01*
X124375942Y-62634761D01*
X124328323Y-62587142D01*
X124280704Y-62491904D01*
X124233085Y-62301428D01*
X124233085Y-62063333D01*
X124280704Y-61872857D01*
X124328323Y-61777619D01*
X124375942Y-61730000D01*
X124471180Y-61682380D01*
X125423561Y-61682380D02*
X125518800Y-61682380D01*
X125614038Y-61730000D01*
X125661657Y-61777619D01*
X125709276Y-61872857D01*
X125756895Y-62063333D01*
X125756895Y-62301428D01*
X125709276Y-62491904D01*
X125661657Y-62587142D01*
X125614038Y-62634761D01*
X125518800Y-62682380D01*
X125423561Y-62682380D01*
X125328323Y-62634761D01*
X125280704Y-62587142D01*
X125233085Y-62491904D01*
X125185466Y-62301428D01*
X125185466Y-62063333D01*
X125233085Y-61872857D01*
X125280704Y-61777619D01*
X125328323Y-61730000D01*
X125423561Y-61682380D01*
%TO.C,R8*%
X118352133Y-57602380D02*
X118018800Y-57126190D01*
X117780704Y-57602380D02*
X117780704Y-56602380D01*
X118161657Y-56602380D01*
X118256895Y-56650000D01*
X118304514Y-56697619D01*
X118352133Y-56792857D01*
X118352133Y-56935714D01*
X118304514Y-57030952D01*
X118256895Y-57078571D01*
X118161657Y-57126190D01*
X117780704Y-57126190D01*
X118923561Y-57030952D02*
X118828323Y-56983333D01*
X118780704Y-56935714D01*
X118733085Y-56840476D01*
X118733085Y-56792857D01*
X118780704Y-56697619D01*
X118828323Y-56650000D01*
X118923561Y-56602380D01*
X119114038Y-56602380D01*
X119209276Y-56650000D01*
X119256895Y-56697619D01*
X119304514Y-56792857D01*
X119304514Y-56840476D01*
X119256895Y-56935714D01*
X119209276Y-56983333D01*
X119114038Y-57030952D01*
X118923561Y-57030952D01*
X118828323Y-57078571D01*
X118780704Y-57126190D01*
X118733085Y-57221428D01*
X118733085Y-57411904D01*
X118780704Y-57507142D01*
X118828323Y-57554761D01*
X118923561Y-57602380D01*
X119114038Y-57602380D01*
X119209276Y-57554761D01*
X119256895Y-57507142D01*
X119304514Y-57411904D01*
X119304514Y-57221428D01*
X119256895Y-57126190D01*
X119209276Y-57078571D01*
X119114038Y-57030952D01*
X123471180Y-57030952D02*
X123375942Y-56983333D01*
X123328323Y-56935714D01*
X123280704Y-56840476D01*
X123280704Y-56792857D01*
X123328323Y-56697619D01*
X123375942Y-56650000D01*
X123471180Y-56602380D01*
X123661657Y-56602380D01*
X123756895Y-56650000D01*
X123804514Y-56697619D01*
X123852133Y-56792857D01*
X123852133Y-56840476D01*
X123804514Y-56935714D01*
X123756895Y-56983333D01*
X123661657Y-57030952D01*
X123471180Y-57030952D01*
X123375942Y-57078571D01*
X123328323Y-57126190D01*
X123280704Y-57221428D01*
X123280704Y-57411904D01*
X123328323Y-57507142D01*
X123375942Y-57554761D01*
X123471180Y-57602380D01*
X123661657Y-57602380D01*
X123756895Y-57554761D01*
X123804514Y-57507142D01*
X123852133Y-57411904D01*
X123852133Y-57221428D01*
X123804514Y-57126190D01*
X123756895Y-57078571D01*
X123661657Y-57030952D01*
X124471180Y-56602380D02*
X124566419Y-56602380D01*
X124661657Y-56650000D01*
X124709276Y-56697619D01*
X124756895Y-56792857D01*
X124804514Y-56983333D01*
X124804514Y-57221428D01*
X124756895Y-57411904D01*
X124709276Y-57507142D01*
X124661657Y-57554761D01*
X124566419Y-57602380D01*
X124471180Y-57602380D01*
X124375942Y-57554761D01*
X124328323Y-57507142D01*
X124280704Y-57411904D01*
X124233085Y-57221428D01*
X124233085Y-56983333D01*
X124280704Y-56792857D01*
X124328323Y-56697619D01*
X124375942Y-56650000D01*
X124471180Y-56602380D01*
X125423561Y-56602380D02*
X125518800Y-56602380D01*
X125614038Y-56650000D01*
X125661657Y-56697619D01*
X125709276Y-56792857D01*
X125756895Y-56983333D01*
X125756895Y-57221428D01*
X125709276Y-57411904D01*
X125661657Y-57507142D01*
X125614038Y-57554761D01*
X125518800Y-57602380D01*
X125423561Y-57602380D01*
X125328323Y-57554761D01*
X125280704Y-57507142D01*
X125233085Y-57411904D01*
X125185466Y-57221428D01*
X125185466Y-56983333D01*
X125233085Y-56792857D01*
X125280704Y-56697619D01*
X125328323Y-56650000D01*
X125423561Y-56602380D01*
%TO.C,R9*%
X142132133Y-57602380D02*
X141798800Y-57126190D01*
X141560704Y-57602380D02*
X141560704Y-56602380D01*
X141941657Y-56602380D01*
X142036895Y-56650000D01*
X142084514Y-56697619D01*
X142132133Y-56792857D01*
X142132133Y-56935714D01*
X142084514Y-57030952D01*
X142036895Y-57078571D01*
X141941657Y-57126190D01*
X141560704Y-57126190D01*
X142608323Y-57602380D02*
X142798800Y-57602380D01*
X142894038Y-57554761D01*
X142941657Y-57507142D01*
X143036895Y-57364285D01*
X143084514Y-57173809D01*
X143084514Y-56792857D01*
X143036895Y-56697619D01*
X142989276Y-56650000D01*
X142894038Y-56602380D01*
X142703561Y-56602380D01*
X142608323Y-56650000D01*
X142560704Y-56697619D01*
X142513085Y-56792857D01*
X142513085Y-57030952D01*
X142560704Y-57126190D01*
X142608323Y-57173809D01*
X142703561Y-57221428D01*
X142894038Y-57221428D01*
X142989276Y-57173809D01*
X143036895Y-57126190D01*
X143084514Y-57030952D01*
X135186895Y-56935714D02*
X135186895Y-57602380D01*
X134948800Y-56554761D02*
X134710704Y-57269047D01*
X135329752Y-57269047D01*
X135901180Y-56602380D02*
X135996419Y-56602380D01*
X136091657Y-56650000D01*
X136139276Y-56697619D01*
X136186895Y-56792857D01*
X136234514Y-56983333D01*
X136234514Y-57221428D01*
X136186895Y-57411904D01*
X136139276Y-57507142D01*
X136091657Y-57554761D01*
X135996419Y-57602380D01*
X135901180Y-57602380D01*
X135805942Y-57554761D01*
X135758323Y-57507142D01*
X135710704Y-57411904D01*
X135663085Y-57221428D01*
X135663085Y-56983333D01*
X135710704Y-56792857D01*
X135758323Y-56697619D01*
X135805942Y-56650000D01*
X135901180Y-56602380D01*
X136853561Y-56602380D02*
X136948800Y-56602380D01*
X137044038Y-56650000D01*
X137091657Y-56697619D01*
X137139276Y-56792857D01*
X137186895Y-56983333D01*
X137186895Y-57221428D01*
X137139276Y-57411904D01*
X137091657Y-57507142D01*
X137044038Y-57554761D01*
X136948800Y-57602380D01*
X136853561Y-57602380D01*
X136758323Y-57554761D01*
X136710704Y-57507142D01*
X136663085Y-57411904D01*
X136615466Y-57221428D01*
X136615466Y-56983333D01*
X136663085Y-56792857D01*
X136710704Y-56697619D01*
X136758323Y-56650000D01*
X136853561Y-56602380D01*
%TO.C,RR2*%
X87942380Y-90186666D02*
X87466190Y-90520000D01*
X87942380Y-90758095D02*
X86942380Y-90758095D01*
X86942380Y-90377142D01*
X86990000Y-90281904D01*
X87037619Y-90234285D01*
X87132857Y-90186666D01*
X87275714Y-90186666D01*
X87370952Y-90234285D01*
X87418571Y-90281904D01*
X87466190Y-90377142D01*
X87466190Y-90758095D01*
X87942380Y-89186666D02*
X87466190Y-89520000D01*
X87942380Y-89758095D02*
X86942380Y-89758095D01*
X86942380Y-89377142D01*
X86990000Y-89281904D01*
X87037619Y-89234285D01*
X87132857Y-89186666D01*
X87275714Y-89186666D01*
X87370952Y-89234285D01*
X87418571Y-89281904D01*
X87466190Y-89377142D01*
X87466190Y-89758095D01*
X87037619Y-88805714D02*
X86990000Y-88758095D01*
X86942380Y-88662857D01*
X86942380Y-88424761D01*
X86990000Y-88329523D01*
X87037619Y-88281904D01*
X87132857Y-88234285D01*
X87228095Y-88234285D01*
X87370952Y-88281904D01*
X87942380Y-88853333D01*
X87942380Y-88234285D01*
%TO.C,J7*%
X89627380Y-33470433D02*
X90341666Y-33470433D01*
X90484523Y-33518052D01*
X90579761Y-33613290D01*
X90627380Y-33756147D01*
X90627380Y-33851385D01*
X89627380Y-33089480D02*
X89627380Y-32422814D01*
X90627380Y-32851385D01*
X89162857Y-38669480D02*
X89162857Y-37669480D01*
X89734285Y-38669480D02*
X89305714Y-38098052D01*
X89734285Y-37669480D02*
X89162857Y-38240909D01*
X90162857Y-38145671D02*
X90496190Y-38145671D01*
X90639047Y-38669480D02*
X90162857Y-38669480D01*
X90162857Y-37669480D01*
X90639047Y-37669480D01*
X91258095Y-38193290D02*
X91258095Y-38669480D01*
X90924761Y-37669480D02*
X91258095Y-38193290D01*
X91591428Y-37669480D01*
X92258095Y-38145671D02*
X92400952Y-38193290D01*
X92448571Y-38240909D01*
X92496190Y-38336147D01*
X92496190Y-38479004D01*
X92448571Y-38574242D01*
X92400952Y-38621861D01*
X92305714Y-38669480D01*
X91924761Y-38669480D01*
X91924761Y-37669480D01*
X92258095Y-37669480D01*
X92353333Y-37717100D01*
X92400952Y-37764719D01*
X92448571Y-37859957D01*
X92448571Y-37955195D01*
X92400952Y-38050433D01*
X92353333Y-38098052D01*
X92258095Y-38145671D01*
X91924761Y-38145671D01*
X93115238Y-37669480D02*
X93305714Y-37669480D01*
X93400952Y-37717100D01*
X93496190Y-37812338D01*
X93543809Y-38002814D01*
X93543809Y-38336147D01*
X93496190Y-38526623D01*
X93400952Y-38621861D01*
X93305714Y-38669480D01*
X93115238Y-38669480D01*
X93020000Y-38621861D01*
X92924761Y-38526623D01*
X92877142Y-38336147D01*
X92877142Y-38002814D01*
X92924761Y-37812338D01*
X93020000Y-37717100D01*
X93115238Y-37669480D01*
X93924761Y-38383766D02*
X94400952Y-38383766D01*
X93829523Y-38669480D02*
X94162857Y-37669480D01*
X94496190Y-38669480D01*
X95400952Y-38669480D02*
X95067619Y-38193290D01*
X94829523Y-38669480D02*
X94829523Y-37669480D01*
X95210476Y-37669480D01*
X95305714Y-37717100D01*
X95353333Y-37764719D01*
X95400952Y-37859957D01*
X95400952Y-38002814D01*
X95353333Y-38098052D01*
X95305714Y-38145671D01*
X95210476Y-38193290D01*
X94829523Y-38193290D01*
X95829523Y-38669480D02*
X95829523Y-37669480D01*
X96067619Y-37669480D01*
X96210476Y-37717100D01*
X96305714Y-37812338D01*
X96353333Y-37907576D01*
X96400952Y-38098052D01*
X96400952Y-38240909D01*
X96353333Y-38431385D01*
X96305714Y-38526623D01*
X96210476Y-38621861D01*
X96067619Y-38669480D01*
X95829523Y-38669480D01*
X97543809Y-38383766D02*
X98020000Y-38383766D01*
X97448571Y-38669480D02*
X97781904Y-37669480D01*
X98115238Y-38669480D01*
X98448571Y-38669480D02*
X98448571Y-37669480D01*
X99020000Y-38669480D01*
X99020000Y-37669480D01*
X99496190Y-38669480D02*
X99496190Y-37669480D01*
X99734285Y-37669480D01*
X99877142Y-37717100D01*
X99972380Y-37812338D01*
X100020000Y-37907576D01*
X100067619Y-38098052D01*
X100067619Y-38240909D01*
X100020000Y-38431385D01*
X99972380Y-38526623D01*
X99877142Y-38621861D01*
X99734285Y-38669480D01*
X99496190Y-38669480D01*
X101258095Y-38669480D02*
X101258095Y-37669480D01*
X101591428Y-38383766D01*
X101924761Y-37669480D01*
X101924761Y-38669480D01*
X102591428Y-37669480D02*
X102781904Y-37669480D01*
X102877142Y-37717100D01*
X102972380Y-37812338D01*
X103020000Y-38002814D01*
X103020000Y-38336147D01*
X102972380Y-38526623D01*
X102877142Y-38621861D01*
X102781904Y-38669480D01*
X102591428Y-38669480D01*
X102496190Y-38621861D01*
X102400952Y-38526623D01*
X102353333Y-38336147D01*
X102353333Y-38002814D01*
X102400952Y-37812338D01*
X102496190Y-37717100D01*
X102591428Y-37669480D01*
X103448571Y-37669480D02*
X103448571Y-38479004D01*
X103496190Y-38574242D01*
X103543809Y-38621861D01*
X103639047Y-38669480D01*
X103829523Y-38669480D01*
X103924761Y-38621861D01*
X103972380Y-38574242D01*
X104020000Y-38479004D01*
X104020000Y-37669480D01*
X104448571Y-38621861D02*
X104591428Y-38669480D01*
X104829523Y-38669480D01*
X104924761Y-38621861D01*
X104972380Y-38574242D01*
X105020000Y-38479004D01*
X105020000Y-38383766D01*
X104972380Y-38288528D01*
X104924761Y-38240909D01*
X104829523Y-38193290D01*
X104639047Y-38145671D01*
X104543809Y-38098052D01*
X104496190Y-38050433D01*
X104448571Y-37955195D01*
X104448571Y-37859957D01*
X104496190Y-37764719D01*
X104543809Y-37717100D01*
X104639047Y-37669480D01*
X104877142Y-37669480D01*
X105020000Y-37717100D01*
X105448571Y-38145671D02*
X105781904Y-38145671D01*
X105924761Y-38669480D02*
X105448571Y-38669480D01*
X105448571Y-37669480D01*
X105924761Y-37669480D01*
%TO.C,C13*%
X50117142Y-40997142D02*
X50069523Y-41044761D01*
X49926666Y-41092380D01*
X49831428Y-41092380D01*
X49688571Y-41044761D01*
X49593333Y-40949523D01*
X49545714Y-40854285D01*
X49498095Y-40663809D01*
X49498095Y-40520952D01*
X49545714Y-40330476D01*
X49593333Y-40235238D01*
X49688571Y-40140000D01*
X49831428Y-40092380D01*
X49926666Y-40092380D01*
X50069523Y-40140000D01*
X50117142Y-40187619D01*
X51069523Y-41092380D02*
X50498095Y-41092380D01*
X50783809Y-41092380D02*
X50783809Y-40092380D01*
X50688571Y-40235238D01*
X50593333Y-40330476D01*
X50498095Y-40378095D01*
X51402857Y-40092380D02*
X52021904Y-40092380D01*
X51688571Y-40473333D01*
X51831428Y-40473333D01*
X51926666Y-40520952D01*
X51974285Y-40568571D01*
X52021904Y-40663809D01*
X52021904Y-40901904D01*
X51974285Y-40997142D01*
X51926666Y-41044761D01*
X51831428Y-41092380D01*
X51545714Y-41092380D01*
X51450476Y-41044761D01*
X51402857Y-40997142D01*
X49085714Y-37552380D02*
X49180952Y-37552380D01*
X49276190Y-37600000D01*
X49323809Y-37647619D01*
X49371428Y-37742857D01*
X49419047Y-37933333D01*
X49419047Y-38171428D01*
X49371428Y-38361904D01*
X49323809Y-38457142D01*
X49276190Y-38504761D01*
X49180952Y-38552380D01*
X49085714Y-38552380D01*
X48990476Y-38504761D01*
X48942857Y-38457142D01*
X48895238Y-38361904D01*
X48847619Y-38171428D01*
X48847619Y-37933333D01*
X48895238Y-37742857D01*
X48942857Y-37647619D01*
X48990476Y-37600000D01*
X49085714Y-37552380D01*
X49847619Y-38457142D02*
X49895238Y-38504761D01*
X49847619Y-38552380D01*
X49800000Y-38504761D01*
X49847619Y-38457142D01*
X49847619Y-38552380D01*
X50847619Y-38552380D02*
X50276190Y-38552380D01*
X50561904Y-38552380D02*
X50561904Y-37552380D01*
X50466666Y-37695238D01*
X50371428Y-37790476D01*
X50276190Y-37838095D01*
X51276190Y-37885714D02*
X51276190Y-38885714D01*
X51752380Y-38409523D02*
X51800000Y-38504761D01*
X51895238Y-38552380D01*
X51276190Y-38409523D02*
X51323809Y-38504761D01*
X51419047Y-38552380D01*
X51609523Y-38552380D01*
X51704761Y-38504761D01*
X51752380Y-38409523D01*
X51752380Y-37885714D01*
X52657142Y-38028571D02*
X52323809Y-38028571D01*
X52323809Y-38552380D02*
X52323809Y-37552380D01*
X52800000Y-37552380D01*
%TO.C,U11*%
X62655204Y-74607380D02*
X62655204Y-75416904D01*
X62702823Y-75512142D01*
X62750442Y-75559761D01*
X62845680Y-75607380D01*
X63036157Y-75607380D01*
X63131395Y-75559761D01*
X63179014Y-75512142D01*
X63226633Y-75416904D01*
X63226633Y-74607380D01*
X64226633Y-75607380D02*
X63655204Y-75607380D01*
X63940919Y-75607380D02*
X63940919Y-74607380D01*
X63845680Y-74750238D01*
X63750442Y-74845476D01*
X63655204Y-74893095D01*
X65179014Y-75607380D02*
X64607585Y-75607380D01*
X64893300Y-75607380D02*
X64893300Y-74607380D01*
X64798061Y-74750238D01*
X64702823Y-74845476D01*
X64607585Y-74893095D01*
X60631395Y-97047380D02*
X61298061Y-97047380D01*
X60869490Y-98047380D01*
X62107585Y-97380714D02*
X62107585Y-98047380D01*
X61869490Y-96999761D02*
X61631395Y-97714047D01*
X62250442Y-97714047D01*
X62631395Y-98047380D02*
X62631395Y-97047380D01*
X62631395Y-97523571D02*
X63202823Y-97523571D01*
X63202823Y-98047380D02*
X63202823Y-97047380D01*
X64250442Y-97952142D02*
X64202823Y-97999761D01*
X64059966Y-98047380D01*
X63964728Y-98047380D01*
X63821871Y-97999761D01*
X63726633Y-97904523D01*
X63679014Y-97809285D01*
X63631395Y-97618809D01*
X63631395Y-97475952D01*
X63679014Y-97285476D01*
X63726633Y-97190238D01*
X63821871Y-97095000D01*
X63964728Y-97047380D01*
X64059966Y-97047380D01*
X64202823Y-97095000D01*
X64250442Y-97142619D01*
X65202823Y-98047380D02*
X64631395Y-98047380D01*
X64917109Y-98047380D02*
X64917109Y-97047380D01*
X64821871Y-97190238D01*
X64726633Y-97285476D01*
X64631395Y-97333095D01*
X66059966Y-97047380D02*
X65869490Y-97047380D01*
X65774252Y-97095000D01*
X65726633Y-97142619D01*
X65631395Y-97285476D01*
X65583776Y-97475952D01*
X65583776Y-97856904D01*
X65631395Y-97952142D01*
X65679014Y-97999761D01*
X65774252Y-98047380D01*
X65964728Y-98047380D01*
X66059966Y-97999761D01*
X66107585Y-97952142D01*
X66155204Y-97856904D01*
X66155204Y-97618809D01*
X66107585Y-97523571D01*
X66059966Y-97475952D01*
X65964728Y-97428333D01*
X65774252Y-97428333D01*
X65679014Y-97475952D01*
X65631395Y-97523571D01*
X65583776Y-97618809D01*
X67059966Y-97047380D02*
X66583776Y-97047380D01*
X66536157Y-97523571D01*
X66583776Y-97475952D01*
X66679014Y-97428333D01*
X66917109Y-97428333D01*
X67012347Y-97475952D01*
X67059966Y-97523571D01*
X67107585Y-97618809D01*
X67107585Y-97856904D01*
X67059966Y-97952142D01*
X67012347Y-97999761D01*
X66917109Y-98047380D01*
X66679014Y-98047380D01*
X66583776Y-97999761D01*
X66536157Y-97952142D01*
%TO.C,J3*%
X80997380Y-33470433D02*
X81711666Y-33470433D01*
X81854523Y-33518052D01*
X81949761Y-33613290D01*
X81997380Y-33756147D01*
X81997380Y-33851385D01*
X80997380Y-33089480D02*
X80997380Y-32470433D01*
X81378333Y-32803766D01*
X81378333Y-32660909D01*
X81425952Y-32565671D01*
X81473571Y-32518052D01*
X81568809Y-32470433D01*
X81806904Y-32470433D01*
X81902142Y-32518052D01*
X81949761Y-32565671D01*
X81997380Y-32660909D01*
X81997380Y-32946623D01*
X81949761Y-33041861D01*
X81902142Y-33089480D01*
X82526666Y-36503766D02*
X83002857Y-36503766D01*
X82431428Y-36789480D02*
X82764761Y-35789480D01*
X83098095Y-36789480D01*
X83431428Y-35789480D02*
X83431428Y-36599004D01*
X83479047Y-36694242D01*
X83526666Y-36741861D01*
X83621904Y-36789480D01*
X83812380Y-36789480D01*
X83907619Y-36741861D01*
X83955238Y-36694242D01*
X84002857Y-36599004D01*
X84002857Y-35789480D01*
X84479047Y-36789480D02*
X84479047Y-35789480D01*
X84717142Y-35789480D01*
X84860000Y-35837100D01*
X84955238Y-35932338D01*
X85002857Y-36027576D01*
X85050476Y-36218052D01*
X85050476Y-36360909D01*
X85002857Y-36551385D01*
X84955238Y-36646623D01*
X84860000Y-36741861D01*
X84717142Y-36789480D01*
X84479047Y-36789480D01*
X85479047Y-36789480D02*
X85479047Y-35789480D01*
X86145714Y-35789480D02*
X86336190Y-35789480D01*
X86431428Y-35837100D01*
X86526666Y-35932338D01*
X86574285Y-36122814D01*
X86574285Y-36456147D01*
X86526666Y-36646623D01*
X86431428Y-36741861D01*
X86336190Y-36789480D01*
X86145714Y-36789480D01*
X86050476Y-36741861D01*
X85955238Y-36646623D01*
X85907619Y-36456147D01*
X85907619Y-36122814D01*
X85955238Y-35932338D01*
X86050476Y-35837100D01*
X86145714Y-35789480D01*
X87955238Y-35789480D02*
X88145714Y-35789480D01*
X88240952Y-35837100D01*
X88336190Y-35932338D01*
X88383809Y-36122814D01*
X88383809Y-36456147D01*
X88336190Y-36646623D01*
X88240952Y-36741861D01*
X88145714Y-36789480D01*
X87955238Y-36789480D01*
X87860000Y-36741861D01*
X87764761Y-36646623D01*
X87717142Y-36456147D01*
X87717142Y-36122814D01*
X87764761Y-35932338D01*
X87860000Y-35837100D01*
X87955238Y-35789480D01*
X88812380Y-35789480D02*
X88812380Y-36599004D01*
X88860000Y-36694242D01*
X88907619Y-36741861D01*
X89002857Y-36789480D01*
X89193333Y-36789480D01*
X89288571Y-36741861D01*
X89336190Y-36694242D01*
X89383809Y-36599004D01*
X89383809Y-35789480D01*
X89717142Y-35789480D02*
X90288571Y-35789480D01*
X90002857Y-36789480D02*
X90002857Y-35789480D01*
%TO.C,U14*%
X71585204Y-42837380D02*
X71585204Y-43646904D01*
X71632823Y-43742142D01*
X71680442Y-43789761D01*
X71775680Y-43837380D01*
X71966157Y-43837380D01*
X72061395Y-43789761D01*
X72109014Y-43742142D01*
X72156633Y-43646904D01*
X72156633Y-42837380D01*
X73156633Y-43837380D02*
X72585204Y-43837380D01*
X72870919Y-43837380D02*
X72870919Y-42837380D01*
X72775680Y-42980238D01*
X72680442Y-43075476D01*
X72585204Y-43123095D01*
X74013776Y-43170714D02*
X74013776Y-43837380D01*
X73775680Y-42789761D02*
X73537585Y-43504047D01*
X74156633Y-43504047D01*
X70180442Y-62737380D02*
X70847109Y-62737380D01*
X70418538Y-63737380D01*
X71656633Y-63070714D02*
X71656633Y-63737380D01*
X71418538Y-62689761D02*
X71180442Y-63404047D01*
X71799490Y-63404047D01*
X72656633Y-63737380D02*
X72180442Y-63737380D01*
X72180442Y-62737380D01*
X72942347Y-63689761D02*
X73085204Y-63737380D01*
X73323300Y-63737380D01*
X73418538Y-63689761D01*
X73466157Y-63642142D01*
X73513776Y-63546904D01*
X73513776Y-63451666D01*
X73466157Y-63356428D01*
X73418538Y-63308809D01*
X73323300Y-63261190D01*
X73132823Y-63213571D01*
X73037585Y-63165952D01*
X72989966Y-63118333D01*
X72942347Y-63023095D01*
X72942347Y-62927857D01*
X72989966Y-62832619D01*
X73037585Y-62785000D01*
X73132823Y-62737380D01*
X73370919Y-62737380D01*
X73513776Y-62785000D01*
X73847109Y-62737380D02*
X74466157Y-62737380D01*
X74132823Y-63118333D01*
X74275680Y-63118333D01*
X74370919Y-63165952D01*
X74418538Y-63213571D01*
X74466157Y-63308809D01*
X74466157Y-63546904D01*
X74418538Y-63642142D01*
X74370919Y-63689761D01*
X74275680Y-63737380D01*
X73989966Y-63737380D01*
X73894728Y-63689761D01*
X73847109Y-63642142D01*
X74847109Y-62832619D02*
X74894728Y-62785000D01*
X74989966Y-62737380D01*
X75228061Y-62737380D01*
X75323300Y-62785000D01*
X75370919Y-62832619D01*
X75418538Y-62927857D01*
X75418538Y-63023095D01*
X75370919Y-63165952D01*
X74799490Y-63737380D01*
X75418538Y-63737380D01*
%TO.C,J6*%
X121601666Y-40849780D02*
X121601666Y-41564066D01*
X121554047Y-41706923D01*
X121458809Y-41802161D01*
X121315952Y-41849780D01*
X121220714Y-41849780D01*
X122506428Y-40849780D02*
X122315952Y-40849780D01*
X122220714Y-40897400D01*
X122173095Y-40945019D01*
X122077857Y-41087876D01*
X122030238Y-41278352D01*
X122030238Y-41659304D01*
X122077857Y-41754542D01*
X122125476Y-41802161D01*
X122220714Y-41849780D01*
X122411190Y-41849780D01*
X122506428Y-41802161D01*
X122554047Y-41754542D01*
X122601666Y-41659304D01*
X122601666Y-41421209D01*
X122554047Y-41325971D01*
X122506428Y-41278352D01*
X122411190Y-41230733D01*
X122220714Y-41230733D01*
X122125476Y-41278352D01*
X122077857Y-41325971D01*
X122030238Y-41421209D01*
%TO.C,U15*%
X74971904Y-108252380D02*
X74971904Y-109061904D01*
X75019523Y-109157142D01*
X75067142Y-109204761D01*
X75162380Y-109252380D01*
X75352857Y-109252380D01*
X75448095Y-109204761D01*
X75495714Y-109157142D01*
X75543333Y-109061904D01*
X75543333Y-108252380D01*
X76543333Y-109252380D02*
X75971904Y-109252380D01*
X76257619Y-109252380D02*
X76257619Y-108252380D01*
X76162380Y-108395238D01*
X76067142Y-108490476D01*
X75971904Y-108538095D01*
X77448095Y-108252380D02*
X76971904Y-108252380D01*
X76924285Y-108728571D01*
X76971904Y-108680952D01*
X77067142Y-108633333D01*
X77305238Y-108633333D01*
X77400476Y-108680952D01*
X77448095Y-108728571D01*
X77495714Y-108823809D01*
X77495714Y-109061904D01*
X77448095Y-109157142D01*
X77400476Y-109204761D01*
X77305238Y-109252380D01*
X77067142Y-109252380D01*
X76971904Y-109204761D01*
X76924285Y-109157142D01*
X73090952Y-135772380D02*
X73757619Y-135772380D01*
X73329047Y-136772380D01*
X74567142Y-136105714D02*
X74567142Y-136772380D01*
X74329047Y-135724761D02*
X74090952Y-136439047D01*
X74710000Y-136439047D01*
X75567142Y-136772380D02*
X75090952Y-136772380D01*
X75090952Y-135772380D01*
X75852857Y-136724761D02*
X75995714Y-136772380D01*
X76233809Y-136772380D01*
X76329047Y-136724761D01*
X76376666Y-136677142D01*
X76424285Y-136581904D01*
X76424285Y-136486666D01*
X76376666Y-136391428D01*
X76329047Y-136343809D01*
X76233809Y-136296190D01*
X76043333Y-136248571D01*
X75948095Y-136200952D01*
X75900476Y-136153333D01*
X75852857Y-136058095D01*
X75852857Y-135962857D01*
X75900476Y-135867619D01*
X75948095Y-135820000D01*
X76043333Y-135772380D01*
X76281428Y-135772380D01*
X76424285Y-135820000D01*
X76805238Y-135867619D02*
X76852857Y-135820000D01*
X76948095Y-135772380D01*
X77186190Y-135772380D01*
X77281428Y-135820000D01*
X77329047Y-135867619D01*
X77376666Y-135962857D01*
X77376666Y-136058095D01*
X77329047Y-136200952D01*
X76757619Y-136772380D01*
X77376666Y-136772380D01*
X78233809Y-136105714D02*
X78233809Y-136772380D01*
X77995714Y-135724761D02*
X77757619Y-136439047D01*
X78376666Y-136439047D01*
X79186190Y-136105714D02*
X79186190Y-136772380D01*
X78948095Y-135724761D02*
X78710000Y-136439047D01*
X79329047Y-136439047D01*
%TO.C,C14*%
X63240442Y-71477142D02*
X63192823Y-71524761D01*
X63049966Y-71572380D01*
X62954728Y-71572380D01*
X62811871Y-71524761D01*
X62716633Y-71429523D01*
X62669014Y-71334285D01*
X62621395Y-71143809D01*
X62621395Y-71000952D01*
X62669014Y-70810476D01*
X62716633Y-70715238D01*
X62811871Y-70620000D01*
X62954728Y-70572380D01*
X63049966Y-70572380D01*
X63192823Y-70620000D01*
X63240442Y-70667619D01*
X64192823Y-71572380D02*
X63621395Y-71572380D01*
X63907109Y-71572380D02*
X63907109Y-70572380D01*
X63811871Y-70715238D01*
X63716633Y-70810476D01*
X63621395Y-70858095D01*
X65049966Y-70905714D02*
X65049966Y-71572380D01*
X64811871Y-70524761D02*
X64573776Y-71239047D01*
X65192823Y-71239047D01*
X62169014Y-68032380D02*
X62264252Y-68032380D01*
X62359490Y-68080000D01*
X62407109Y-68127619D01*
X62454728Y-68222857D01*
X62502347Y-68413333D01*
X62502347Y-68651428D01*
X62454728Y-68841904D01*
X62407109Y-68937142D01*
X62359490Y-68984761D01*
X62264252Y-69032380D01*
X62169014Y-69032380D01*
X62073776Y-68984761D01*
X62026157Y-68937142D01*
X61978538Y-68841904D01*
X61930919Y-68651428D01*
X61930919Y-68413333D01*
X61978538Y-68222857D01*
X62026157Y-68127619D01*
X62073776Y-68080000D01*
X62169014Y-68032380D01*
X62930919Y-68937142D02*
X62978538Y-68984761D01*
X62930919Y-69032380D01*
X62883300Y-68984761D01*
X62930919Y-68937142D01*
X62930919Y-69032380D01*
X63930919Y-69032380D02*
X63359490Y-69032380D01*
X63645204Y-69032380D02*
X63645204Y-68032380D01*
X63549966Y-68175238D01*
X63454728Y-68270476D01*
X63359490Y-68318095D01*
X64359490Y-68365714D02*
X64359490Y-69365714D01*
X64835680Y-68889523D02*
X64883300Y-68984761D01*
X64978538Y-69032380D01*
X64359490Y-68889523D02*
X64407109Y-68984761D01*
X64502347Y-69032380D01*
X64692823Y-69032380D01*
X64788061Y-68984761D01*
X64835680Y-68889523D01*
X64835680Y-68365714D01*
X65740442Y-68508571D02*
X65407109Y-68508571D01*
X65407109Y-69032380D02*
X65407109Y-68032380D01*
X65883300Y-68032380D01*
%TO.C,D6*%
X47521904Y-145752380D02*
X47521904Y-144752380D01*
X47760000Y-144752380D01*
X47902857Y-144800000D01*
X47998095Y-144895238D01*
X48045714Y-144990476D01*
X48093333Y-145180952D01*
X48093333Y-145323809D01*
X48045714Y-145514285D01*
X47998095Y-145609523D01*
X47902857Y-145704761D01*
X47760000Y-145752380D01*
X47521904Y-145752380D01*
X48950476Y-144752380D02*
X48760000Y-144752380D01*
X48664761Y-144800000D01*
X48617142Y-144847619D01*
X48521904Y-144990476D01*
X48474285Y-145180952D01*
X48474285Y-145561904D01*
X48521904Y-145657142D01*
X48569523Y-145704761D01*
X48664761Y-145752380D01*
X48855238Y-145752380D01*
X48950476Y-145704761D01*
X48998095Y-145657142D01*
X49045714Y-145561904D01*
X49045714Y-145323809D01*
X48998095Y-145228571D01*
X48950476Y-145180952D01*
X48855238Y-145133333D01*
X48664761Y-145133333D01*
X48569523Y-145180952D01*
X48521904Y-145228571D01*
X48474285Y-145323809D01*
X51197142Y-145752380D02*
X50625714Y-145752380D01*
X50911428Y-145752380D02*
X50911428Y-144752380D01*
X50816190Y-144895238D01*
X50720952Y-144990476D01*
X50625714Y-145038095D01*
X51625714Y-145752380D02*
X51625714Y-144752380D01*
X52197142Y-145752380D01*
X52197142Y-144752380D01*
X53101904Y-145085714D02*
X53101904Y-145752380D01*
X52863809Y-144704761D02*
X52625714Y-145419047D01*
X53244761Y-145419047D01*
X53816190Y-144752380D02*
X53911428Y-144752380D01*
X54006666Y-144800000D01*
X54054285Y-144847619D01*
X54101904Y-144942857D01*
X54149523Y-145133333D01*
X54149523Y-145371428D01*
X54101904Y-145561904D01*
X54054285Y-145657142D01*
X54006666Y-145704761D01*
X53911428Y-145752380D01*
X53816190Y-145752380D01*
X53720952Y-145704761D01*
X53673333Y-145657142D01*
X53625714Y-145561904D01*
X53578095Y-145371428D01*
X53578095Y-145133333D01*
X53625714Y-144942857D01*
X53673333Y-144847619D01*
X53720952Y-144800000D01*
X53816190Y-144752380D01*
X54768571Y-144752380D02*
X54863809Y-144752380D01*
X54959047Y-144800000D01*
X55006666Y-144847619D01*
X55054285Y-144942857D01*
X55101904Y-145133333D01*
X55101904Y-145371428D01*
X55054285Y-145561904D01*
X55006666Y-145657142D01*
X54959047Y-145704761D01*
X54863809Y-145752380D01*
X54768571Y-145752380D01*
X54673333Y-145704761D01*
X54625714Y-145657142D01*
X54578095Y-145561904D01*
X54530476Y-145371428D01*
X54530476Y-145133333D01*
X54578095Y-144942857D01*
X54625714Y-144847619D01*
X54673333Y-144800000D01*
X54768571Y-144752380D01*
X56054285Y-145752380D02*
X55482857Y-145752380D01*
X55768571Y-145752380D02*
X55768571Y-144752380D01*
X55673333Y-144895238D01*
X55578095Y-144990476D01*
X55482857Y-145038095D01*
%TO.C,U1*%
X75214795Y-74607380D02*
X75214795Y-75416904D01*
X75262414Y-75512142D01*
X75310033Y-75559761D01*
X75405271Y-75607380D01*
X75595747Y-75607380D01*
X75690985Y-75559761D01*
X75738604Y-75512142D01*
X75786223Y-75416904D01*
X75786223Y-74607380D01*
X76786223Y-75607380D02*
X76214795Y-75607380D01*
X76500509Y-75607380D02*
X76500509Y-74607380D01*
X76405271Y-74750238D01*
X76310033Y-74845476D01*
X76214795Y-74893095D01*
X73333842Y-94507380D02*
X74000509Y-94507380D01*
X73571938Y-95507380D01*
X74810033Y-94840714D02*
X74810033Y-95507380D01*
X74571938Y-94459761D02*
X74333842Y-95174047D01*
X74952890Y-95174047D01*
X75810033Y-95507380D02*
X75333842Y-95507380D01*
X75333842Y-94507380D01*
X76095747Y-95459761D02*
X76238604Y-95507380D01*
X76476700Y-95507380D01*
X76571938Y-95459761D01*
X76619557Y-95412142D01*
X76667176Y-95316904D01*
X76667176Y-95221666D01*
X76619557Y-95126428D01*
X76571938Y-95078809D01*
X76476700Y-95031190D01*
X76286223Y-94983571D01*
X76190985Y-94935952D01*
X76143366Y-94888333D01*
X76095747Y-94793095D01*
X76095747Y-94697857D01*
X76143366Y-94602619D01*
X76190985Y-94555000D01*
X76286223Y-94507380D01*
X76524319Y-94507380D01*
X76667176Y-94555000D01*
X77286223Y-94507380D02*
X77381461Y-94507380D01*
X77476700Y-94555000D01*
X77524319Y-94602619D01*
X77571938Y-94697857D01*
X77619557Y-94888333D01*
X77619557Y-95126428D01*
X77571938Y-95316904D01*
X77524319Y-95412142D01*
X77476700Y-95459761D01*
X77381461Y-95507380D01*
X77286223Y-95507380D01*
X77190985Y-95459761D01*
X77143366Y-95412142D01*
X77095747Y-95316904D01*
X77048128Y-95126428D01*
X77048128Y-94888333D01*
X77095747Y-94697857D01*
X77143366Y-94602619D01*
X77190985Y-94555000D01*
X77286223Y-94507380D01*
X78476700Y-94840714D02*
X78476700Y-95507380D01*
X78238604Y-94459761D02*
X78000509Y-95174047D01*
X78619557Y-95174047D01*
%TO.C,J5*%
X59082380Y-34130433D02*
X59796666Y-34130433D01*
X59939523Y-34178052D01*
X60034761Y-34273290D01*
X60082380Y-34416147D01*
X60082380Y-34511385D01*
X59082380Y-33178052D02*
X59082380Y-33654242D01*
X59558571Y-33701861D01*
X59510952Y-33654242D01*
X59463333Y-33559004D01*
X59463333Y-33320909D01*
X59510952Y-33225671D01*
X59558571Y-33178052D01*
X59653809Y-33130433D01*
X59891904Y-33130433D01*
X59987142Y-33178052D01*
X60034761Y-33225671D01*
X60082380Y-33320909D01*
X60082380Y-33559004D01*
X60034761Y-33654242D01*
X59987142Y-33701861D01*
X59571428Y-36265671D02*
X59904761Y-36265671D01*
X60047619Y-36789480D02*
X59571428Y-36789480D01*
X59571428Y-35789480D01*
X60047619Y-35789480D01*
X60428571Y-36741861D02*
X60571428Y-36789480D01*
X60809523Y-36789480D01*
X60904761Y-36741861D01*
X60952380Y-36694242D01*
X61000000Y-36599004D01*
X61000000Y-36503766D01*
X60952380Y-36408528D01*
X60904761Y-36360909D01*
X60809523Y-36313290D01*
X60619047Y-36265671D01*
X60523809Y-36218052D01*
X60476190Y-36170433D01*
X60428571Y-36075195D01*
X60428571Y-35979957D01*
X60476190Y-35884719D01*
X60523809Y-35837100D01*
X60619047Y-35789480D01*
X60857142Y-35789480D01*
X61000000Y-35837100D01*
X61428571Y-36789480D02*
X61428571Y-35789480D01*
X61809523Y-35789480D01*
X61904761Y-35837100D01*
X61952380Y-35884719D01*
X62000000Y-35979957D01*
X62000000Y-36122814D01*
X61952380Y-36218052D01*
X61904761Y-36265671D01*
X61809523Y-36313290D01*
X61428571Y-36313290D01*
X62190476Y-36884719D02*
X62952380Y-36884719D01*
X63142857Y-36741861D02*
X63285714Y-36789480D01*
X63523809Y-36789480D01*
X63619047Y-36741861D01*
X63666666Y-36694242D01*
X63714285Y-36599004D01*
X63714285Y-36503766D01*
X63666666Y-36408528D01*
X63619047Y-36360909D01*
X63523809Y-36313290D01*
X63333333Y-36265671D01*
X63238095Y-36218052D01*
X63190476Y-36170433D01*
X63142857Y-36075195D01*
X63142857Y-35979957D01*
X63190476Y-35884719D01*
X63238095Y-35837100D01*
X63333333Y-35789480D01*
X63571428Y-35789480D01*
X63714285Y-35837100D01*
X64142857Y-36265671D02*
X64476190Y-36265671D01*
X64619047Y-36789480D02*
X64142857Y-36789480D01*
X64142857Y-35789480D01*
X64619047Y-35789480D01*
X65619047Y-36789480D02*
X65285714Y-36313290D01*
X65047619Y-36789480D02*
X65047619Y-35789480D01*
X65428571Y-35789480D01*
X65523809Y-35837100D01*
X65571428Y-35884719D01*
X65619047Y-35979957D01*
X65619047Y-36122814D01*
X65571428Y-36218052D01*
X65523809Y-36265671D01*
X65428571Y-36313290D01*
X65047619Y-36313290D01*
X66047619Y-36789480D02*
X66047619Y-35789480D01*
X66476190Y-36503766D02*
X66952380Y-36503766D01*
X66380952Y-36789480D02*
X66714285Y-35789480D01*
X67047619Y-36789480D01*
X67857142Y-36789480D02*
X67380952Y-36789480D01*
X67380952Y-35789480D01*
X67952380Y-36884719D02*
X68714285Y-36884719D01*
X69142857Y-35789480D02*
X69238095Y-35789480D01*
X69333333Y-35837100D01*
X69380952Y-35884719D01*
X69428571Y-35979957D01*
X69476190Y-36170433D01*
X69476190Y-36408528D01*
X69428571Y-36599004D01*
X69380952Y-36694242D01*
X69333333Y-36741861D01*
X69238095Y-36789480D01*
X69142857Y-36789480D01*
X69047619Y-36741861D01*
X69000000Y-36694242D01*
X68952380Y-36599004D01*
X68904761Y-36408528D01*
X68904761Y-36170433D01*
X68952380Y-35979957D01*
X69000000Y-35884719D01*
X69047619Y-35837100D01*
X69142857Y-35789480D01*
%TO.C,J4*%
X71237380Y-33470433D02*
X71951666Y-33470433D01*
X72094523Y-33518052D01*
X72189761Y-33613290D01*
X72237380Y-33756147D01*
X72237380Y-33851385D01*
X71570714Y-32565671D02*
X72237380Y-32565671D01*
X71189761Y-32803766D02*
X71904047Y-33041861D01*
X71904047Y-32422814D01*
X71271428Y-36265671D02*
X71604761Y-36265671D01*
X71747619Y-36789480D02*
X71271428Y-36789480D01*
X71271428Y-35789480D01*
X71747619Y-35789480D01*
X72128571Y-36741861D02*
X72271428Y-36789480D01*
X72509523Y-36789480D01*
X72604761Y-36741861D01*
X72652380Y-36694242D01*
X72700000Y-36599004D01*
X72700000Y-36503766D01*
X72652380Y-36408528D01*
X72604761Y-36360909D01*
X72509523Y-36313290D01*
X72319047Y-36265671D01*
X72223809Y-36218052D01*
X72176190Y-36170433D01*
X72128571Y-36075195D01*
X72128571Y-35979957D01*
X72176190Y-35884719D01*
X72223809Y-35837100D01*
X72319047Y-35789480D01*
X72557142Y-35789480D01*
X72700000Y-35837100D01*
X73128571Y-36789480D02*
X73128571Y-35789480D01*
X73509523Y-35789480D01*
X73604761Y-35837100D01*
X73652380Y-35884719D01*
X73700000Y-35979957D01*
X73700000Y-36122814D01*
X73652380Y-36218052D01*
X73604761Y-36265671D01*
X73509523Y-36313290D01*
X73128571Y-36313290D01*
X73890476Y-36884719D02*
X74652380Y-36884719D01*
X74842857Y-36741861D02*
X74985714Y-36789480D01*
X75223809Y-36789480D01*
X75319047Y-36741861D01*
X75366666Y-36694242D01*
X75414285Y-36599004D01*
X75414285Y-36503766D01*
X75366666Y-36408528D01*
X75319047Y-36360909D01*
X75223809Y-36313290D01*
X75033333Y-36265671D01*
X74938095Y-36218052D01*
X74890476Y-36170433D01*
X74842857Y-36075195D01*
X74842857Y-35979957D01*
X74890476Y-35884719D01*
X74938095Y-35837100D01*
X75033333Y-35789480D01*
X75271428Y-35789480D01*
X75414285Y-35837100D01*
X75842857Y-36265671D02*
X76176190Y-36265671D01*
X76319047Y-36789480D02*
X75842857Y-36789480D01*
X75842857Y-35789480D01*
X76319047Y-35789480D01*
X77319047Y-36789480D02*
X76985714Y-36313290D01*
X76747619Y-36789480D02*
X76747619Y-35789480D01*
X77128571Y-35789480D01*
X77223809Y-35837100D01*
X77271428Y-35884719D01*
X77319047Y-35979957D01*
X77319047Y-36122814D01*
X77271428Y-36218052D01*
X77223809Y-36265671D01*
X77128571Y-36313290D01*
X76747619Y-36313290D01*
X77747619Y-36789480D02*
X77747619Y-35789480D01*
X78176190Y-36503766D02*
X78652380Y-36503766D01*
X78080952Y-36789480D02*
X78414285Y-35789480D01*
X78747619Y-36789480D01*
X79557142Y-36789480D02*
X79080952Y-36789480D01*
X79080952Y-35789480D01*
X79652380Y-36884719D02*
X80414285Y-36884719D01*
X81176190Y-36789480D02*
X80604761Y-36789480D01*
X80890476Y-36789480D02*
X80890476Y-35789480D01*
X80795238Y-35932338D01*
X80700000Y-36027576D01*
X80604761Y-36075195D01*
%TO.C,U16*%
X82591904Y-42837380D02*
X82591904Y-43646904D01*
X82639523Y-43742142D01*
X82687142Y-43789761D01*
X82782380Y-43837380D01*
X82972857Y-43837380D01*
X83068095Y-43789761D01*
X83115714Y-43742142D01*
X83163333Y-43646904D01*
X83163333Y-42837380D01*
X84163333Y-43837380D02*
X83591904Y-43837380D01*
X83877619Y-43837380D02*
X83877619Y-42837380D01*
X83782380Y-42980238D01*
X83687142Y-43075476D01*
X83591904Y-43123095D01*
X85020476Y-42837380D02*
X84830000Y-42837380D01*
X84734761Y-42885000D01*
X84687142Y-42932619D01*
X84591904Y-43075476D01*
X84544285Y-43265952D01*
X84544285Y-43646904D01*
X84591904Y-43742142D01*
X84639523Y-43789761D01*
X84734761Y-43837380D01*
X84925238Y-43837380D01*
X85020476Y-43789761D01*
X85068095Y-43742142D01*
X85115714Y-43646904D01*
X85115714Y-43408809D01*
X85068095Y-43313571D01*
X85020476Y-43265952D01*
X84925238Y-43218333D01*
X84734761Y-43218333D01*
X84639523Y-43265952D01*
X84591904Y-43313571D01*
X84544285Y-43408809D01*
X81187142Y-62737380D02*
X81853809Y-62737380D01*
X81425238Y-63737380D01*
X82663333Y-63070714D02*
X82663333Y-63737380D01*
X82425238Y-62689761D02*
X82187142Y-63404047D01*
X82806190Y-63404047D01*
X83663333Y-63737380D02*
X83187142Y-63737380D01*
X83187142Y-62737380D01*
X83949047Y-63689761D02*
X84091904Y-63737380D01*
X84330000Y-63737380D01*
X84425238Y-63689761D01*
X84472857Y-63642142D01*
X84520476Y-63546904D01*
X84520476Y-63451666D01*
X84472857Y-63356428D01*
X84425238Y-63308809D01*
X84330000Y-63261190D01*
X84139523Y-63213571D01*
X84044285Y-63165952D01*
X83996666Y-63118333D01*
X83949047Y-63023095D01*
X83949047Y-62927857D01*
X83996666Y-62832619D01*
X84044285Y-62785000D01*
X84139523Y-62737380D01*
X84377619Y-62737380D01*
X84520476Y-62785000D01*
X85139523Y-62737380D02*
X85234761Y-62737380D01*
X85330000Y-62785000D01*
X85377619Y-62832619D01*
X85425238Y-62927857D01*
X85472857Y-63118333D01*
X85472857Y-63356428D01*
X85425238Y-63546904D01*
X85377619Y-63642142D01*
X85330000Y-63689761D01*
X85234761Y-63737380D01*
X85139523Y-63737380D01*
X85044285Y-63689761D01*
X84996666Y-63642142D01*
X84949047Y-63546904D01*
X84901428Y-63356428D01*
X84901428Y-63118333D01*
X84949047Y-62927857D01*
X84996666Y-62832619D01*
X85044285Y-62785000D01*
X85139523Y-62737380D01*
X85806190Y-62737380D02*
X86472857Y-62737380D01*
X86044285Y-63737380D01*
%TO.C,U9*%
X51048095Y-74607380D02*
X51048095Y-75416904D01*
X51095714Y-75512142D01*
X51143333Y-75559761D01*
X51238571Y-75607380D01*
X51429047Y-75607380D01*
X51524285Y-75559761D01*
X51571904Y-75512142D01*
X51619523Y-75416904D01*
X51619523Y-74607380D01*
X52143333Y-75607380D02*
X52333809Y-75607380D01*
X52429047Y-75559761D01*
X52476666Y-75512142D01*
X52571904Y-75369285D01*
X52619523Y-75178809D01*
X52619523Y-74797857D01*
X52571904Y-74702619D01*
X52524285Y-74655000D01*
X52429047Y-74607380D01*
X52238571Y-74607380D01*
X52143333Y-74655000D01*
X52095714Y-74702619D01*
X52048095Y-74797857D01*
X52048095Y-75035952D01*
X52095714Y-75131190D01*
X52143333Y-75178809D01*
X52238571Y-75226428D01*
X52429047Y-75226428D01*
X52524285Y-75178809D01*
X52571904Y-75131190D01*
X52619523Y-75035952D01*
X48548095Y-97047380D02*
X49214761Y-97047380D01*
X48786190Y-98047380D01*
X50024285Y-97380714D02*
X50024285Y-98047380D01*
X49786190Y-96999761D02*
X49548095Y-97714047D01*
X50167142Y-97714047D01*
X50548095Y-98047380D02*
X50548095Y-97047380D01*
X50548095Y-97523571D02*
X51119523Y-97523571D01*
X51119523Y-98047380D02*
X51119523Y-97047380D01*
X52167142Y-97952142D02*
X52119523Y-97999761D01*
X51976666Y-98047380D01*
X51881428Y-98047380D01*
X51738571Y-97999761D01*
X51643333Y-97904523D01*
X51595714Y-97809285D01*
X51548095Y-97618809D01*
X51548095Y-97475952D01*
X51595714Y-97285476D01*
X51643333Y-97190238D01*
X51738571Y-97095000D01*
X51881428Y-97047380D01*
X51976666Y-97047380D01*
X52119523Y-97095000D01*
X52167142Y-97142619D01*
X53071904Y-97047380D02*
X52595714Y-97047380D01*
X52548095Y-97523571D01*
X52595714Y-97475952D01*
X52690952Y-97428333D01*
X52929047Y-97428333D01*
X53024285Y-97475952D01*
X53071904Y-97523571D01*
X53119523Y-97618809D01*
X53119523Y-97856904D01*
X53071904Y-97952142D01*
X53024285Y-97999761D01*
X52929047Y-98047380D01*
X52690952Y-98047380D01*
X52595714Y-97999761D01*
X52548095Y-97952142D01*
X53595714Y-98047380D02*
X53786190Y-98047380D01*
X53881428Y-97999761D01*
X53929047Y-97952142D01*
X54024285Y-97809285D01*
X54071904Y-97618809D01*
X54071904Y-97237857D01*
X54024285Y-97142619D01*
X53976666Y-97095000D01*
X53881428Y-97047380D01*
X53690952Y-97047380D01*
X53595714Y-97095000D01*
X53548095Y-97142619D01*
X53500476Y-97237857D01*
X53500476Y-97475952D01*
X53548095Y-97571190D01*
X53595714Y-97618809D01*
X53690952Y-97666428D01*
X53881428Y-97666428D01*
X53976666Y-97618809D01*
X54024285Y-97571190D01*
X54071904Y-97475952D01*
X54976666Y-97047380D02*
X54500476Y-97047380D01*
X54452857Y-97523571D01*
X54500476Y-97475952D01*
X54595714Y-97428333D01*
X54833809Y-97428333D01*
X54929047Y-97475952D01*
X54976666Y-97523571D01*
X55024285Y-97618809D01*
X55024285Y-97856904D01*
X54976666Y-97952142D01*
X54929047Y-97999761D01*
X54833809Y-98047380D01*
X54595714Y-98047380D01*
X54500476Y-97999761D01*
X54452857Y-97952142D01*
%TO.C,D3*%
X47521904Y-137682380D02*
X47521904Y-136682380D01*
X47760000Y-136682380D01*
X47902857Y-136730000D01*
X47998095Y-136825238D01*
X48045714Y-136920476D01*
X48093333Y-137110952D01*
X48093333Y-137253809D01*
X48045714Y-137444285D01*
X47998095Y-137539523D01*
X47902857Y-137634761D01*
X47760000Y-137682380D01*
X47521904Y-137682380D01*
X48426666Y-136682380D02*
X49045714Y-136682380D01*
X48712380Y-137063333D01*
X48855238Y-137063333D01*
X48950476Y-137110952D01*
X48998095Y-137158571D01*
X49045714Y-137253809D01*
X49045714Y-137491904D01*
X48998095Y-137587142D01*
X48950476Y-137634761D01*
X48855238Y-137682380D01*
X48569523Y-137682380D01*
X48474285Y-137634761D01*
X48426666Y-137587142D01*
X51197142Y-137612380D02*
X50625714Y-137612380D01*
X50911428Y-137612380D02*
X50911428Y-136612380D01*
X50816190Y-136755238D01*
X50720952Y-136850476D01*
X50625714Y-136898095D01*
X51625714Y-137612380D02*
X51625714Y-136612380D01*
X52197142Y-137612380D01*
X52197142Y-136612380D01*
X53101904Y-136945714D02*
X53101904Y-137612380D01*
X52863809Y-136564761D02*
X52625714Y-137279047D01*
X53244761Y-137279047D01*
X53816190Y-136612380D02*
X53911428Y-136612380D01*
X54006666Y-136660000D01*
X54054285Y-136707619D01*
X54101904Y-136802857D01*
X54149523Y-136993333D01*
X54149523Y-137231428D01*
X54101904Y-137421904D01*
X54054285Y-137517142D01*
X54006666Y-137564761D01*
X53911428Y-137612380D01*
X53816190Y-137612380D01*
X53720952Y-137564761D01*
X53673333Y-137517142D01*
X53625714Y-137421904D01*
X53578095Y-137231428D01*
X53578095Y-136993333D01*
X53625714Y-136802857D01*
X53673333Y-136707619D01*
X53720952Y-136660000D01*
X53816190Y-136612380D01*
X54768571Y-136612380D02*
X54863809Y-136612380D01*
X54959047Y-136660000D01*
X55006666Y-136707619D01*
X55054285Y-136802857D01*
X55101904Y-136993333D01*
X55101904Y-137231428D01*
X55054285Y-137421904D01*
X55006666Y-137517142D01*
X54959047Y-137564761D01*
X54863809Y-137612380D01*
X54768571Y-137612380D01*
X54673333Y-137564761D01*
X54625714Y-137517142D01*
X54578095Y-137421904D01*
X54530476Y-137231428D01*
X54530476Y-136993333D01*
X54578095Y-136802857D01*
X54625714Y-136707619D01*
X54673333Y-136660000D01*
X54768571Y-136612380D01*
X56054285Y-137612380D02*
X55482857Y-137612380D01*
X55768571Y-137612380D02*
X55768571Y-136612380D01*
X55673333Y-136755238D01*
X55578095Y-136850476D01*
X55482857Y-136898095D01*
D13*
%TO.C,SW1*%
X136780000Y-128585000D02*
X138133333Y-128585000D01*
X136780000Y-120965000D02*
X138133333Y-120965000D01*
X136780000Y-116675000D02*
X140840000Y-116675000D01*
X140840000Y-114135000D02*
X140840000Y-112865000D01*
X136780000Y-120485000D02*
X136780000Y-121755000D01*
X136780000Y-128345000D02*
X138133333Y-128345000D01*
X136780000Y-114065000D02*
X138133333Y-114065000D01*
X136780000Y-126645000D02*
X138133333Y-126645000D01*
X136780000Y-125925000D02*
X138133333Y-125925000D01*
X136780000Y-129305000D02*
X138133333Y-129305000D01*
X136780000Y-118065000D02*
X138133333Y-118065000D01*
X136780000Y-115645000D02*
X138133333Y-115645000D01*
X136780000Y-131845000D02*
X138133333Y-131845000D01*
X136780000Y-131725000D02*
X138133333Y-131725000D01*
X138133333Y-112865000D02*
X138133333Y-114135000D01*
X136780000Y-128105000D02*
X136780000Y-129375000D01*
X133860000Y-111080000D02*
X143760000Y-111080000D01*
X136780000Y-131245000D02*
X138133333Y-131245000D01*
X136780000Y-120605000D02*
X138133333Y-120605000D01*
X136780000Y-113825000D02*
X138133333Y-113825000D01*
X136780000Y-123265000D02*
X138133333Y-123265000D01*
X140840000Y-123025000D02*
X136780000Y-123025000D01*
X136780000Y-123985000D02*
X138133333Y-123985000D01*
X136780000Y-130645000D02*
X136780000Y-131915000D01*
X140840000Y-112865000D02*
X136780000Y-112865000D01*
X136780000Y-113705000D02*
X138133333Y-113705000D01*
X136780000Y-129375000D02*
X140840000Y-129375000D01*
X136780000Y-131005000D02*
X138133333Y-131005000D01*
X136780000Y-128825000D02*
X138133333Y-128825000D01*
X143760000Y-111080000D02*
X143760000Y-133701000D01*
X136780000Y-128225000D02*
X138133333Y-128225000D01*
X136780000Y-121565000D02*
X138133333Y-121565000D01*
X140840000Y-130645000D02*
X136780000Y-130645000D01*
X136780000Y-115525000D02*
X138133333Y-115525000D01*
X140840000Y-126835000D02*
X140840000Y-125565000D01*
X136780000Y-121085000D02*
X138133333Y-121085000D01*
X136780000Y-131365000D02*
X138133333Y-131365000D01*
X136780000Y-118425000D02*
X138133333Y-118425000D01*
X136780000Y-118905000D02*
X138133333Y-118905000D01*
X136780000Y-128705000D02*
X138133333Y-128705000D01*
X136780000Y-119025000D02*
X138133333Y-119025000D01*
X140840000Y-131915000D02*
X140840000Y-130645000D01*
X136780000Y-125565000D02*
X136780000Y-126835000D01*
X136780000Y-130765000D02*
X138133333Y-130765000D01*
X136780000Y-116365000D02*
X138133333Y-116365000D01*
X136780000Y-123145000D02*
X138133333Y-123145000D01*
X136780000Y-121445000D02*
X138133333Y-121445000D01*
X140840000Y-117945000D02*
X136780000Y-117945000D01*
X136780000Y-129185000D02*
X138133333Y-129185000D01*
X136780000Y-131605000D02*
X138133333Y-131605000D01*
X136780000Y-126045000D02*
X138133333Y-126045000D01*
X133620000Y-110840000D02*
X133620000Y-112223000D01*
X136780000Y-113585000D02*
X138133333Y-113585000D01*
X138133333Y-123025000D02*
X138133333Y-124295000D01*
X136780000Y-113105000D02*
X138133333Y-113105000D01*
X136780000Y-118305000D02*
X138133333Y-118305000D01*
X136780000Y-116485000D02*
X138133333Y-116485000D01*
X136780000Y-124225000D02*
X138133333Y-124225000D01*
X136780000Y-121685000D02*
X138133333Y-121685000D01*
X136780000Y-131915000D02*
X140840000Y-131915000D01*
X136780000Y-116005000D02*
X138133333Y-116005000D01*
X136780000Y-126525000D02*
X138133333Y-126525000D01*
X136780000Y-128465000D02*
X138133333Y-128465000D01*
X136780000Y-113225000D02*
X138133333Y-113225000D01*
X136780000Y-126165000D02*
X138133333Y-126165000D01*
X136780000Y-130885000D02*
X138133333Y-130885000D01*
X136780000Y-128945000D02*
X138133333Y-128945000D01*
X140840000Y-129375000D02*
X140840000Y-128105000D01*
X140840000Y-125565000D02*
X136780000Y-125565000D01*
X136780000Y-119145000D02*
X138133333Y-119145000D01*
X140840000Y-121755000D02*
X140840000Y-120485000D01*
X136780000Y-112865000D02*
X136780000Y-114135000D01*
X136780000Y-113465000D02*
X138133333Y-113465000D01*
X136780000Y-131125000D02*
X138133333Y-131125000D01*
X136780000Y-120725000D02*
X138133333Y-120725000D01*
X136780000Y-115405000D02*
X136780000Y-116675000D01*
X133860000Y-133701000D02*
X143760000Y-133701000D01*
X140840000Y-120485000D02*
X136780000Y-120485000D01*
X136780000Y-118545000D02*
X138133333Y-118545000D01*
X136780000Y-115765000D02*
X138133333Y-115765000D01*
X136780000Y-115885000D02*
X138133333Y-115885000D01*
X140840000Y-116675000D02*
X140840000Y-115405000D01*
X138133333Y-120485000D02*
X138133333Y-121755000D01*
X136780000Y-119215000D02*
X140840000Y-119215000D01*
X140840000Y-128105000D02*
X136780000Y-128105000D01*
X136780000Y-123505000D02*
X138133333Y-123505000D01*
X136780000Y-125685000D02*
X138133333Y-125685000D01*
X133620000Y-110840000D02*
X135004000Y-110840000D01*
X136780000Y-121325000D02*
X138133333Y-121325000D01*
X136780000Y-118665000D02*
X138133333Y-118665000D01*
X140840000Y-119215000D02*
X140840000Y-117945000D01*
X136780000Y-121755000D02*
X140840000Y-121755000D01*
X136780000Y-125805000D02*
X138133333Y-125805000D01*
X136780000Y-123865000D02*
X138133333Y-123865000D01*
X136780000Y-131485000D02*
X138133333Y-131485000D01*
X140840000Y-115405000D02*
X136780000Y-115405000D01*
X136780000Y-126405000D02*
X138133333Y-126405000D01*
X136780000Y-126285000D02*
X138133333Y-126285000D01*
X136780000Y-123625000D02*
X138133333Y-123625000D01*
X136780000Y-123385000D02*
X138133333Y-123385000D01*
X136780000Y-116605000D02*
X138133333Y-116605000D01*
X136780000Y-113345000D02*
X138133333Y-113345000D01*
X133860000Y-111080000D02*
X133860000Y-133701000D01*
X136780000Y-118785000D02*
X138133333Y-118785000D01*
X138133333Y-117945000D02*
X138133333Y-119215000D01*
X136780000Y-120845000D02*
X138133333Y-120845000D01*
X136780000Y-123745000D02*
X138133333Y-123745000D01*
X136780000Y-124105000D02*
X138133333Y-124105000D01*
X136780000Y-113945000D02*
X138133333Y-113945000D01*
X136780000Y-118185000D02*
X138133333Y-118185000D01*
X136780000Y-117945000D02*
X136780000Y-119215000D01*
X138133333Y-128105000D02*
X138133333Y-129375000D01*
X136780000Y-124295000D02*
X140840000Y-124295000D01*
X138133333Y-130645000D02*
X138133333Y-131915000D01*
X136780000Y-123025000D02*
X136780000Y-124295000D01*
X136780000Y-114135000D02*
X140840000Y-114135000D01*
X138133333Y-115405000D02*
X138133333Y-116675000D01*
X136780000Y-112985000D02*
X138133333Y-112985000D01*
X138133333Y-125565000D02*
X138133333Y-126835000D01*
X136780000Y-126835000D02*
X140840000Y-126835000D01*
X136780000Y-126765000D02*
X138133333Y-126765000D01*
X136780000Y-116245000D02*
X138133333Y-116245000D01*
X136780000Y-121205000D02*
X138133333Y-121205000D01*
X140840000Y-124295000D02*
X140840000Y-123025000D01*
X136780000Y-129065000D02*
X138133333Y-129065000D01*
X136780000Y-116125000D02*
X138133333Y-116125000D01*
%TO.C,C1*%
X90670000Y-107870000D02*
X85430000Y-107870000D01*
X85430000Y-107870000D02*
X85430000Y-107555000D01*
X90670000Y-105445000D02*
X90670000Y-105130000D01*
X85430000Y-105445000D02*
X85430000Y-105130000D01*
X90670000Y-105130000D02*
X85430000Y-105130000D01*
X90670000Y-107870000D02*
X90670000Y-107555000D01*
%TO.C,C2*%
X102753300Y-105310000D02*
X97513300Y-105310000D01*
X102753300Y-108050000D02*
X97513300Y-108050000D01*
X102753300Y-108050000D02*
X102753300Y-107735000D01*
X102753300Y-105625000D02*
X102753300Y-105310000D01*
X97513300Y-108050000D02*
X97513300Y-107735000D01*
X97513300Y-105625000D02*
X97513300Y-105310000D01*
%TO.C,C4*%
X121680000Y-105625000D02*
X121680000Y-105310000D01*
X126920000Y-108050000D02*
X126920000Y-107735000D01*
X126920000Y-105625000D02*
X126920000Y-105310000D01*
X126920000Y-108050000D02*
X121680000Y-108050000D01*
X126920000Y-105310000D02*
X121680000Y-105310000D01*
X121680000Y-108050000D02*
X121680000Y-107735000D01*
%TO.C,U2*%
X109576700Y-135190000D02*
X114876700Y-135190000D01*
X111226700Y-109670000D02*
X109576700Y-109670000D01*
X114876700Y-109670000D02*
X113226700Y-109670000D01*
X109576700Y-109670000D02*
X109576700Y-135190000D01*
X114876700Y-135190000D02*
X114876700Y-109670000D01*
X111226700Y-109670000D02*
G75*
G03*
X113226700Y-109670000I1000000J0D01*
G01*
%TO.C,U10*%
X126960000Y-109670000D02*
X125310000Y-109670000D01*
X121660000Y-135190000D02*
X126960000Y-135190000D01*
X123310000Y-109670000D02*
X121660000Y-109670000D01*
X121660000Y-109670000D02*
X121660000Y-135190000D01*
X126960000Y-135190000D02*
X126960000Y-109670000D01*
X123310000Y-109670000D02*
G75*
G03*
X125310000Y-109670000I1000000J0D01*
G01*
%TO.C,RR1*%
X132900000Y-112270000D02*
X130100000Y-112270000D01*
X132900000Y-109560000D02*
X130100000Y-109560000D01*
X130100000Y-132760000D02*
X132900000Y-132760000D01*
X132900000Y-132760000D02*
X132900000Y-109560000D01*
X130100000Y-109560000D02*
X130100000Y-132760000D01*
%TO.C,U6*%
X64466700Y-44385000D02*
X62816700Y-44385000D01*
X59166700Y-44385000D02*
X59166700Y-62285000D01*
X64466700Y-62285000D02*
X64466700Y-44385000D01*
X59166700Y-62285000D02*
X64466700Y-62285000D01*
X60816700Y-44385000D02*
X59166700Y-44385000D01*
X60816700Y-44385000D02*
G75*
G03*
X62816700Y-44385000I1000000J0D01*
G01*
%TO.C,C7*%
X78586700Y-105445000D02*
X78586700Y-105130000D01*
X73346700Y-107870000D02*
X73346700Y-107555000D01*
X78586700Y-107870000D02*
X73346700Y-107870000D01*
X78586700Y-107870000D02*
X78586700Y-107555000D01*
X73346700Y-105445000D02*
X73346700Y-105130000D01*
X78586700Y-105130000D02*
X73346700Y-105130000D01*
%TO.C,U3*%
X99143300Y-109670000D02*
X97493300Y-109670000D01*
X97493300Y-109670000D02*
X97493300Y-135190000D01*
X102793300Y-135190000D02*
X102793300Y-109670000D01*
X102793300Y-109670000D02*
X101143300Y-109670000D01*
X97493300Y-135190000D02*
X102793300Y-135190000D01*
X99143300Y-109670000D02*
G75*
G03*
X101143300Y-109670000I1000000J0D01*
G01*
%TO.C,C3*%
X109596700Y-105625000D02*
X109596700Y-105310000D01*
X114836700Y-105310000D02*
X109596700Y-105310000D01*
X109596700Y-108050000D02*
X109596700Y-107735000D01*
X114836700Y-105625000D02*
X114836700Y-105310000D01*
X114836700Y-108050000D02*
X109596700Y-108050000D01*
X114836700Y-108050000D02*
X114836700Y-107735000D01*
%TO.C,C5*%
X54420000Y-69750000D02*
X49180000Y-69750000D01*
X49180000Y-70065000D02*
X49180000Y-69750000D01*
X49180000Y-72490000D02*
X49180000Y-72175000D01*
X54420000Y-72490000D02*
X49180000Y-72490000D01*
X54420000Y-72490000D02*
X54420000Y-72175000D01*
X54420000Y-70065000D02*
X54420000Y-69750000D01*
%TO.C,U4*%
X90710000Y-109670000D02*
X89060000Y-109670000D01*
X90710000Y-135190000D02*
X90710000Y-109670000D01*
X85410000Y-135190000D02*
X90710000Y-135190000D01*
X85410000Y-109670000D02*
X85410000Y-135190000D01*
X87060000Y-109670000D02*
X85410000Y-109670000D01*
X87060000Y-109670000D02*
G75*
G03*
X89060000Y-109670000I1000000J0D01*
G01*
%TO.C,C6*%
X49180000Y-107870000D02*
X49180000Y-107555000D01*
X54420000Y-107870000D02*
X49180000Y-107870000D01*
X54420000Y-107870000D02*
X54420000Y-107555000D01*
X54420000Y-105130000D02*
X49180000Y-105130000D01*
X54420000Y-105445000D02*
X54420000Y-105130000D01*
X49180000Y-105445000D02*
X49180000Y-105130000D01*
%TO.C,C11*%
X83920000Y-67272000D02*
X83920000Y-72428000D01*
X80995225Y-68375000D02*
X81495225Y-68375000D01*
X84921000Y-70890000D02*
X84921000Y-72179000D01*
X85561000Y-70890000D02*
X85561000Y-71751000D01*
X84440000Y-70890000D02*
X84440000Y-72351000D01*
X84280000Y-67314000D02*
X84280000Y-68810000D01*
X85881000Y-70890000D02*
X85881000Y-71404000D01*
X84881000Y-67502000D02*
X84881000Y-68810000D01*
X85241000Y-67701000D02*
X85241000Y-68810000D01*
X84801000Y-70890000D02*
X84801000Y-72232000D01*
X83960000Y-67274000D02*
X83960000Y-72426000D01*
X85481000Y-67879000D02*
X85481000Y-68810000D01*
X85961000Y-70890000D02*
X85961000Y-71293000D01*
X83800000Y-67270000D02*
X83800000Y-72430000D01*
X84721000Y-67436000D02*
X84721000Y-68810000D01*
X84841000Y-70890000D02*
X84841000Y-72215000D01*
X84801000Y-67468000D02*
X84801000Y-68810000D01*
X85801000Y-68197000D02*
X85801000Y-68810000D01*
X84240000Y-70890000D02*
X84240000Y-72393000D01*
X84200000Y-70890000D02*
X84200000Y-72400000D01*
X85081000Y-67603000D02*
X85081000Y-68810000D01*
X85361000Y-67785000D02*
X85361000Y-68810000D01*
X84080000Y-70890000D02*
X84080000Y-72415000D01*
X85841000Y-68245000D02*
X85841000Y-68810000D01*
X85601000Y-67986000D02*
X85601000Y-68810000D01*
X85241000Y-70890000D02*
X85241000Y-71999000D01*
X85281000Y-70890000D02*
X85281000Y-71972000D01*
X85281000Y-67728000D02*
X85281000Y-68810000D01*
X84040000Y-70890000D02*
X84040000Y-72419000D01*
X86161000Y-68752000D02*
X86161000Y-70948000D01*
X85321000Y-70890000D02*
X85321000Y-71945000D01*
X84280000Y-70890000D02*
X84280000Y-72386000D01*
X85161000Y-67650000D02*
X85161000Y-68810000D01*
X84080000Y-67285000D02*
X84080000Y-68810000D01*
X86201000Y-68839000D02*
X86201000Y-70861000D01*
X84480000Y-67359000D02*
X84480000Y-68810000D01*
X84921000Y-67521000D02*
X84921000Y-68810000D01*
X85361000Y-70890000D02*
X85361000Y-71915000D01*
X84601000Y-67395000D02*
X84601000Y-68810000D01*
X84320000Y-70890000D02*
X84320000Y-72378000D01*
X85321000Y-67755000D02*
X85321000Y-68810000D01*
X84000000Y-67277000D02*
X84000000Y-72423000D01*
X86241000Y-68935000D02*
X86241000Y-70765000D01*
X84160000Y-67294000D02*
X84160000Y-68810000D01*
X85081000Y-70890000D02*
X85081000Y-72097000D01*
X86041000Y-70890000D02*
X86041000Y-71169000D01*
X85841000Y-70890000D02*
X85841000Y-71455000D01*
X86361000Y-69332000D02*
X86361000Y-70368000D01*
X84641000Y-67408000D02*
X84641000Y-68810000D01*
X84240000Y-67307000D02*
X84240000Y-68810000D01*
X85921000Y-70890000D02*
X85921000Y-71350000D01*
X86001000Y-70890000D02*
X86001000Y-71233000D01*
X85881000Y-68296000D02*
X85881000Y-68810000D01*
X85761000Y-68151000D02*
X85761000Y-68810000D01*
X85521000Y-67913000D02*
X85521000Y-68810000D01*
X86121000Y-68672000D02*
X86121000Y-71028000D01*
X84521000Y-70890000D02*
X84521000Y-72330000D01*
X84360000Y-67330000D02*
X84360000Y-68810000D01*
X84120000Y-67289000D02*
X84120000Y-68810000D01*
X85001000Y-67560000D02*
X85001000Y-68810000D01*
X86041000Y-68531000D02*
X86041000Y-68810000D01*
X84961000Y-70890000D02*
X84961000Y-72160000D01*
X84561000Y-67382000D02*
X84561000Y-68810000D01*
X84320000Y-67322000D02*
X84320000Y-68810000D01*
X85161000Y-70890000D02*
X85161000Y-72050000D01*
X86001000Y-68467000D02*
X86001000Y-68810000D01*
X85201000Y-67675000D02*
X85201000Y-68810000D01*
X85041000Y-70890000D02*
X85041000Y-72118000D01*
X85601000Y-70890000D02*
X85601000Y-71714000D01*
X81245225Y-68125000D02*
X81245225Y-68625000D01*
X85681000Y-68065000D02*
X85681000Y-68810000D01*
X85801000Y-70890000D02*
X85801000Y-71503000D01*
X85441000Y-67846000D02*
X85441000Y-68810000D01*
X85001000Y-70890000D02*
X85001000Y-72140000D01*
X85521000Y-70890000D02*
X85521000Y-71787000D01*
X85201000Y-70890000D02*
X85201000Y-72025000D01*
X85481000Y-70890000D02*
X85481000Y-71821000D01*
X84561000Y-70890000D02*
X84561000Y-72318000D01*
X84521000Y-67370000D02*
X84521000Y-68810000D01*
X84881000Y-70890000D02*
X84881000Y-72198000D01*
X84641000Y-70890000D02*
X84641000Y-72292000D01*
X84040000Y-67281000D02*
X84040000Y-68810000D01*
X85961000Y-68407000D02*
X85961000Y-68810000D01*
X86081000Y-68599000D02*
X86081000Y-68810000D01*
X86321000Y-69173000D02*
X86321000Y-70527000D01*
X85561000Y-67949000D02*
X85561000Y-68810000D01*
X85761000Y-70890000D02*
X85761000Y-71549000D01*
X84440000Y-67349000D02*
X84440000Y-68810000D01*
X84400000Y-70890000D02*
X84400000Y-72361000D01*
X84160000Y-70890000D02*
X84160000Y-72406000D01*
X84841000Y-67485000D02*
X84841000Y-68810000D01*
X86081000Y-70890000D02*
X86081000Y-71101000D01*
X85401000Y-67815000D02*
X85401000Y-68810000D01*
X84200000Y-67300000D02*
X84200000Y-68810000D01*
X85641000Y-70890000D02*
X85641000Y-71676000D01*
X84480000Y-70890000D02*
X84480000Y-72341000D01*
X84761000Y-70890000D02*
X84761000Y-72248000D01*
X85721000Y-70890000D02*
X85721000Y-71593000D01*
X86401000Y-69566000D02*
X86401000Y-70134000D01*
X85401000Y-70890000D02*
X85401000Y-71885000D01*
X85041000Y-67582000D02*
X85041000Y-68810000D01*
X83840000Y-67270000D02*
X83840000Y-72430000D01*
X84601000Y-70890000D02*
X84601000Y-72305000D01*
X84400000Y-67339000D02*
X84400000Y-68810000D01*
X84681000Y-67422000D02*
X84681000Y-68810000D01*
X85121000Y-70890000D02*
X85121000Y-72074000D01*
X84681000Y-70890000D02*
X84681000Y-72278000D01*
X86281000Y-69045000D02*
X86281000Y-70655000D01*
X85641000Y-68024000D02*
X85641000Y-68810000D01*
X83880000Y-67271000D02*
X83880000Y-72429000D01*
X84961000Y-67540000D02*
X84961000Y-68810000D01*
X85921000Y-68350000D02*
X85921000Y-68810000D01*
X84360000Y-70890000D02*
X84360000Y-72370000D01*
X85721000Y-68107000D02*
X85721000Y-68810000D01*
X84120000Y-70890000D02*
X84120000Y-72411000D01*
X84721000Y-70890000D02*
X84721000Y-72264000D01*
X85121000Y-67626000D02*
X85121000Y-68810000D01*
X84761000Y-67452000D02*
X84761000Y-68810000D01*
X85681000Y-70890000D02*
X85681000Y-71635000D01*
X85441000Y-70890000D02*
X85441000Y-71854000D01*
X86420000Y-69850000D02*
G75*
G03*
X86420000Y-69850000I-2620000J0D01*
G01*
%TO.C,C8*%
X76280000Y-42010000D02*
X71040000Y-42010000D01*
X71040000Y-42010000D02*
X71040000Y-41695000D01*
X76280000Y-39270000D02*
X71040000Y-39270000D01*
X76280000Y-42010000D02*
X76280000Y-41695000D01*
X71040000Y-39585000D02*
X71040000Y-39270000D01*
X76280000Y-39585000D02*
X76280000Y-39270000D01*
%TO.C,C12*%
X65615900Y-137880000D02*
X65615900Y-139295000D01*
X65374900Y-141375000D02*
X65374900Y-142855000D01*
X66215900Y-141375000D02*
X66215900Y-142510000D01*
X66255900Y-138186000D02*
X66255900Y-139295000D01*
X65895900Y-141375000D02*
X65895900Y-142683000D01*
X67055900Y-139016000D02*
X67055900Y-139295000D01*
X66895900Y-138781000D02*
X66895900Y-139295000D01*
X67255900Y-139420000D02*
X67255900Y-141250000D01*
X67175900Y-139237000D02*
X67175900Y-141433000D01*
X66855900Y-138730000D02*
X66855900Y-139295000D01*
X66455900Y-141375000D02*
X66455900Y-142339000D01*
X65895900Y-137987000D02*
X65895900Y-139295000D01*
X65054900Y-141375000D02*
X65054900Y-142904000D01*
X65454900Y-141375000D02*
X65454900Y-142836000D01*
X66095900Y-141375000D02*
X66095900Y-142582000D01*
X65054900Y-137766000D02*
X65054900Y-139295000D01*
X66935900Y-141375000D02*
X66935900Y-141835000D01*
X65695900Y-137907000D02*
X65695900Y-139295000D01*
X65014900Y-137762000D02*
X65014900Y-142908000D01*
X65855900Y-141375000D02*
X65855900Y-142700000D01*
X66775900Y-141375000D02*
X66775900Y-142034000D01*
X67095900Y-139084000D02*
X67095900Y-139295000D01*
X65494900Y-137844000D02*
X65494900Y-139295000D01*
X64934900Y-137757000D02*
X64934900Y-142913000D01*
X65655900Y-137893000D02*
X65655900Y-139295000D01*
X65174900Y-137779000D02*
X65174900Y-139295000D01*
X65414900Y-141375000D02*
X65414900Y-142846000D01*
X66615900Y-141375000D02*
X66615900Y-142199000D01*
X66695900Y-141375000D02*
X66695900Y-142120000D01*
X66415900Y-138300000D02*
X66415900Y-139295000D01*
X66295900Y-141375000D02*
X66295900Y-142457000D01*
X66735900Y-141375000D02*
X66735900Y-142078000D01*
X66895900Y-141375000D02*
X66895900Y-141889000D01*
X66175900Y-138135000D02*
X66175900Y-139295000D01*
X66455900Y-138331000D02*
X66455900Y-139295000D01*
X66055900Y-141375000D02*
X66055900Y-142603000D01*
X65815900Y-141375000D02*
X65815900Y-142717000D01*
X66095900Y-138088000D02*
X66095900Y-139295000D01*
X66375900Y-138270000D02*
X66375900Y-139295000D01*
X65334900Y-137807000D02*
X65334900Y-139295000D01*
X66015900Y-138045000D02*
X66015900Y-139295000D01*
X66655900Y-141375000D02*
X66655900Y-142161000D01*
X65134900Y-141375000D02*
X65134900Y-142896000D01*
X62010125Y-138860000D02*
X62510125Y-138860000D01*
X65254900Y-137792000D02*
X65254900Y-139295000D01*
X64854900Y-137755000D02*
X64854900Y-142915000D01*
X66415900Y-141375000D02*
X66415900Y-142370000D01*
X65695900Y-141375000D02*
X65695900Y-142763000D01*
X65615900Y-141375000D02*
X65615900Y-142790000D01*
X65575900Y-141375000D02*
X65575900Y-142803000D01*
X65494900Y-141375000D02*
X65494900Y-142826000D01*
X66135900Y-141375000D02*
X66135900Y-142559000D01*
X66815900Y-141375000D02*
X66815900Y-141988000D01*
X66375900Y-141375000D02*
X66375900Y-142400000D01*
X67375900Y-139817000D02*
X67375900Y-140853000D01*
X66255900Y-141375000D02*
X66255900Y-142484000D01*
X65174900Y-141375000D02*
X65174900Y-142891000D01*
X67295900Y-139530000D02*
X67295900Y-141140000D01*
X66535900Y-138398000D02*
X66535900Y-139295000D01*
X67415900Y-140051000D02*
X67415900Y-140619000D01*
X65374900Y-137815000D02*
X65374900Y-139295000D01*
X67015900Y-141375000D02*
X67015900Y-141718000D01*
X66695900Y-138550000D02*
X66695900Y-139295000D01*
X66335900Y-138240000D02*
X66335900Y-139295000D01*
X67335900Y-139658000D02*
X67335900Y-141012000D01*
X65775900Y-137937000D02*
X65775900Y-139295000D01*
X64974900Y-137759000D02*
X64974900Y-142911000D01*
X65575900Y-137867000D02*
X65575900Y-139295000D01*
X64814900Y-137755000D02*
X64814900Y-142915000D01*
X65935900Y-138006000D02*
X65935900Y-139295000D01*
X65975900Y-138025000D02*
X65975900Y-139295000D01*
X66575900Y-141375000D02*
X66575900Y-142236000D01*
X66815900Y-138682000D02*
X66815900Y-139295000D01*
X66335900Y-141375000D02*
X66335900Y-142430000D01*
X66295900Y-138213000D02*
X66295900Y-139295000D01*
X66215900Y-138160000D02*
X66215900Y-139295000D01*
X67095900Y-141375000D02*
X67095900Y-141586000D01*
X65134900Y-137774000D02*
X65134900Y-139295000D01*
X66495900Y-138364000D02*
X66495900Y-139295000D01*
X67015900Y-138952000D02*
X67015900Y-139295000D01*
X66615900Y-138471000D02*
X66615900Y-139295000D01*
X65294900Y-137799000D02*
X65294900Y-139295000D01*
X65735900Y-137921000D02*
X65735900Y-139295000D01*
X66015900Y-141375000D02*
X66015900Y-142625000D01*
X65975900Y-141375000D02*
X65975900Y-142645000D01*
X66055900Y-138067000D02*
X66055900Y-139295000D01*
X66775900Y-138636000D02*
X66775900Y-139295000D01*
X65334900Y-141375000D02*
X65334900Y-142863000D01*
X64894900Y-137756000D02*
X64894900Y-142914000D01*
X65254900Y-141375000D02*
X65254900Y-142878000D01*
X66175900Y-141375000D02*
X66175900Y-142535000D01*
X66495900Y-141375000D02*
X66495900Y-142306000D01*
X65535900Y-141375000D02*
X65535900Y-142815000D01*
X66935900Y-138835000D02*
X66935900Y-139295000D01*
X65735900Y-141375000D02*
X65735900Y-142749000D01*
X66975900Y-141375000D02*
X66975900Y-141778000D01*
X66655900Y-138509000D02*
X66655900Y-139295000D01*
X65775900Y-141375000D02*
X65775900Y-142733000D01*
X65214900Y-137785000D02*
X65214900Y-139295000D01*
X65655900Y-141375000D02*
X65655900Y-142777000D01*
X62260125Y-138610000D02*
X62260125Y-139110000D01*
X65094900Y-137770000D02*
X65094900Y-139295000D01*
X66735900Y-138592000D02*
X66735900Y-139295000D01*
X67055900Y-141375000D02*
X67055900Y-141654000D01*
X66135900Y-138111000D02*
X66135900Y-139295000D01*
X65414900Y-137824000D02*
X65414900Y-139295000D01*
X65294900Y-141375000D02*
X65294900Y-142871000D01*
X66535900Y-141375000D02*
X66535900Y-142272000D01*
X67215900Y-139324000D02*
X67215900Y-141346000D01*
X66855900Y-141375000D02*
X66855900Y-141940000D01*
X66575900Y-138434000D02*
X66575900Y-139295000D01*
X66975900Y-138892000D02*
X66975900Y-139295000D01*
X65214900Y-141375000D02*
X65214900Y-142885000D01*
X65855900Y-137970000D02*
X65855900Y-139295000D01*
X65094900Y-141375000D02*
X65094900Y-142900000D01*
X65535900Y-137855000D02*
X65535900Y-139295000D01*
X65935900Y-141375000D02*
X65935900Y-142664000D01*
X67135900Y-139157000D02*
X67135900Y-141513000D01*
X65454900Y-137834000D02*
X65454900Y-139295000D01*
X65815900Y-137953000D02*
X65815900Y-139295000D01*
X67434900Y-140335000D02*
G75*
G03*
X67434900Y-140335000I-2620000J0D01*
G01*
%TO.C,R2*%
X60230000Y-42010000D02*
X60230000Y-41680000D01*
X66770000Y-42010000D02*
X60230000Y-42010000D01*
X66770000Y-39600000D02*
X66770000Y-39270000D01*
X60230000Y-39270000D02*
X60230000Y-39600000D01*
X66770000Y-41680000D02*
X66770000Y-42010000D01*
X66770000Y-39270000D02*
X60230000Y-39270000D01*
%TO.C,P2*%
X105790000Y-144980000D02*
X105790000Y-147640000D01*
X135000000Y-139730000D02*
X136270000Y-139730000D01*
X109220000Y-153640000D02*
X109220000Y-147640000D01*
X104900000Y-142042929D02*
X104900000Y-142497071D01*
X115060000Y-142042929D02*
X115060000Y-142497071D01*
X104140000Y-142042929D02*
X104140000Y-142497071D01*
X79500000Y-142042929D02*
X79500000Y-142497071D01*
X133730000Y-144980000D02*
X133730000Y-147640000D01*
X126110000Y-144980000D02*
X126110000Y-147640000D01*
X116840000Y-153640000D02*
X116840000Y-147640000D01*
X86360000Y-144582929D02*
X86360000Y-144980000D01*
X121920000Y-153640000D02*
X121920000Y-147640000D01*
X127760000Y-144582929D02*
X127760000Y-144980000D01*
X99060000Y-142042929D02*
X99060000Y-142497071D01*
X131190000Y-144980000D02*
X131190000Y-147640000D01*
X96520000Y-142042929D02*
X96520000Y-142497071D01*
X104140000Y-144582929D02*
X104140000Y-144980000D01*
X79500000Y-144582929D02*
X79500000Y-144980000D01*
X130300000Y-142042929D02*
X130300000Y-142497071D01*
X93980000Y-144582929D02*
X93980000Y-144980000D01*
X76960000Y-144582929D02*
X76960000Y-144980000D01*
X117600000Y-153640000D02*
X116840000Y-153640000D01*
X130300000Y-147640000D02*
X130300000Y-153640000D01*
X128650000Y-144980000D02*
X128650000Y-147640000D01*
X125220000Y-147640000D02*
X125220000Y-153640000D01*
X87120000Y-147640000D02*
X87120000Y-153640000D01*
X112520000Y-144582929D02*
X112520000Y-144980000D01*
X76960000Y-153640000D02*
X76200000Y-153640000D01*
X96520000Y-153640000D02*
X96520000Y-147640000D01*
X87120000Y-153640000D02*
X86360000Y-153640000D01*
X104140000Y-153640000D02*
X104140000Y-147640000D01*
X127000000Y-153640000D02*
X127000000Y-147640000D01*
X135380000Y-147640000D02*
X135380000Y-153640000D01*
X135320000Y-147640000D02*
X135320000Y-153640000D01*
X88900000Y-144582929D02*
X88900000Y-144980000D01*
X122680000Y-144582929D02*
X122680000Y-144980000D01*
X111760000Y-144582929D02*
X111760000Y-144980000D01*
X104900000Y-147640000D02*
X104900000Y-153640000D01*
X84580000Y-144582929D02*
X84580000Y-144980000D01*
X79500000Y-147640000D02*
X79500000Y-153640000D01*
X132840000Y-147640000D02*
X132840000Y-153640000D01*
X112520000Y-142042929D02*
X112520000Y-142497071D01*
X78740000Y-142042929D02*
X78740000Y-142497071D01*
X119380000Y-142042929D02*
X119380000Y-142497071D01*
X101600000Y-144582929D02*
X101600000Y-144980000D01*
X89660000Y-142042929D02*
X89660000Y-142497071D01*
X114300000Y-153640000D02*
X114300000Y-147640000D01*
X74420000Y-144582929D02*
X74420000Y-144980000D01*
X99820000Y-147640000D02*
X99820000Y-153640000D01*
X73660000Y-142042929D02*
X73660000Y-142497071D01*
X81280000Y-144582929D02*
X81280000Y-144980000D01*
X135380000Y-153640000D02*
X134620000Y-153640000D01*
X121920000Y-142042929D02*
X121920000Y-142497071D01*
X93090000Y-144980000D02*
X93090000Y-147640000D01*
X110870000Y-144980000D02*
X110870000Y-147640000D01*
X122680000Y-142042929D02*
X122680000Y-142497071D01*
X107440000Y-142042929D02*
X107440000Y-142497071D01*
X76200000Y-144582929D02*
X76200000Y-144980000D01*
X98170000Y-144980000D02*
X98170000Y-147640000D01*
X75310000Y-144980000D02*
X75310000Y-147640000D01*
X109220000Y-144582929D02*
X109220000Y-144980000D01*
X130300000Y-144582929D02*
X130300000Y-144980000D01*
X125220000Y-144582929D02*
X125220000Y-144980000D01*
X107440000Y-147640000D02*
X107440000Y-153640000D01*
X100710000Y-144980000D02*
X100710000Y-147640000D01*
X134960000Y-147640000D02*
X134960000Y-153640000D01*
X129540000Y-142042929D02*
X129540000Y-142497071D01*
X73660000Y-153640000D02*
X73660000Y-147640000D01*
X129540000Y-153640000D02*
X129540000Y-147640000D01*
X119380000Y-153640000D02*
X119380000Y-147640000D01*
X124460000Y-153640000D02*
X124460000Y-147640000D01*
X124460000Y-144582929D02*
X124460000Y-144980000D01*
X134620000Y-144582929D02*
X134620000Y-144980000D01*
X112520000Y-147640000D02*
X112520000Y-153640000D01*
X132840000Y-142042929D02*
X132840000Y-142497071D01*
X115060000Y-153640000D02*
X114300000Y-153640000D01*
X82930000Y-144980000D02*
X82930000Y-147640000D01*
X76200000Y-153640000D02*
X76200000Y-147640000D01*
X87120000Y-142042929D02*
X87120000Y-142497071D01*
X112520000Y-153640000D02*
X111760000Y-153640000D01*
X135380000Y-144582929D02*
X135380000Y-144980000D01*
X115060000Y-147640000D02*
X115060000Y-153640000D01*
X81280000Y-142042929D02*
X81280000Y-142497071D01*
X74420000Y-142042929D02*
X74420000Y-142497071D01*
X120140000Y-144582929D02*
X120140000Y-144980000D01*
X74420000Y-153640000D02*
X73660000Y-153640000D01*
X103250000Y-144980000D02*
X103250000Y-147640000D01*
X120140000Y-147640000D02*
X120140000Y-153640000D01*
X85470000Y-144980000D02*
X85470000Y-147640000D01*
X99060000Y-144582929D02*
X99060000Y-144980000D01*
X92200000Y-142042929D02*
X92200000Y-142497071D01*
X101600000Y-153640000D02*
X101600000Y-147640000D01*
X79500000Y-153640000D02*
X78740000Y-153640000D01*
X76200000Y-142042929D02*
X76200000Y-142497071D01*
X129540000Y-144582929D02*
X129540000Y-144980000D01*
X97280000Y-144582929D02*
X97280000Y-144980000D01*
X73660000Y-144582929D02*
X73660000Y-144980000D01*
X109220000Y-142042929D02*
X109220000Y-142497071D01*
X121920000Y-144582929D02*
X121920000Y-144980000D01*
X97280000Y-153640000D02*
X96520000Y-153640000D01*
X80390000Y-144980000D02*
X80390000Y-147640000D01*
X132840000Y-144582929D02*
X132840000Y-144980000D01*
X84580000Y-147640000D02*
X84580000Y-153640000D01*
X104900000Y-144582929D02*
X104900000Y-144980000D01*
X90550000Y-144980000D02*
X90550000Y-147640000D01*
X86360000Y-153640000D02*
X86360000Y-147640000D01*
X117600000Y-142042929D02*
X117600000Y-142497071D01*
X97280000Y-142042929D02*
X97280000Y-142497071D01*
X127000000Y-144582929D02*
X127000000Y-144980000D01*
X83820000Y-144582929D02*
X83820000Y-144980000D01*
X132080000Y-144582929D02*
X132080000Y-144980000D01*
X82040000Y-153640000D02*
X81280000Y-153640000D01*
X132080000Y-142042929D02*
X132080000Y-142497071D01*
X115950000Y-144980000D02*
X115950000Y-147640000D01*
X114300000Y-144582929D02*
X114300000Y-144980000D01*
X125220000Y-153640000D02*
X124460000Y-153640000D01*
X102360000Y-142042929D02*
X102360000Y-142497071D01*
X111760000Y-153640000D02*
X111760000Y-147640000D01*
X127760000Y-153640000D02*
X127000000Y-153640000D01*
X122680000Y-147640000D02*
X122680000Y-153640000D01*
X109980000Y-142042929D02*
X109980000Y-142497071D01*
X136330000Y-147640000D02*
X136330000Y-144980000D01*
X99820000Y-153640000D02*
X99060000Y-153640000D01*
X117600000Y-144582929D02*
X117600000Y-144980000D01*
X95630000Y-144980000D02*
X95630000Y-147640000D01*
X130300000Y-153640000D02*
X129540000Y-153640000D01*
X136270000Y-139730000D02*
X136270000Y-141000000D01*
X82040000Y-144582929D02*
X82040000Y-144980000D01*
X87120000Y-144582929D02*
X87120000Y-144980000D01*
X107440000Y-144582929D02*
X107440000Y-144980000D01*
X83820000Y-153640000D02*
X83820000Y-147640000D01*
X116840000Y-142042929D02*
X116840000Y-142497071D01*
X109980000Y-153640000D02*
X109220000Y-153640000D01*
X91440000Y-142042929D02*
X91440000Y-142497071D01*
X124460000Y-142042929D02*
X124460000Y-142497071D01*
X106680000Y-153640000D02*
X106680000Y-147640000D01*
X119380000Y-144582929D02*
X119380000Y-144980000D01*
X113410000Y-144980000D02*
X113410000Y-147640000D01*
X93980000Y-153640000D02*
X93980000Y-147640000D01*
X134840000Y-147640000D02*
X134840000Y-153640000D01*
X76960000Y-147640000D02*
X76960000Y-153640000D01*
X132840000Y-153640000D02*
X132080000Y-153640000D01*
X93980000Y-142042929D02*
X93980000Y-142497071D01*
X101600000Y-142042929D02*
X101600000Y-142497071D01*
X84580000Y-142042929D02*
X84580000Y-142497071D01*
X96520000Y-144582929D02*
X96520000Y-144980000D01*
X120140000Y-142042929D02*
X120140000Y-142497071D01*
X134620000Y-153640000D02*
X134620000Y-147640000D01*
X99060000Y-153640000D02*
X99060000Y-147640000D01*
X109980000Y-147640000D02*
X109980000Y-153640000D01*
X91440000Y-153640000D02*
X91440000Y-147640000D01*
X72710000Y-147640000D02*
X136330000Y-147640000D01*
X94740000Y-144582929D02*
X94740000Y-144980000D01*
X123570000Y-144980000D02*
X123570000Y-147640000D01*
X116840000Y-144582929D02*
X116840000Y-144980000D01*
X127760000Y-142042929D02*
X127760000Y-142497071D01*
X122680000Y-153640000D02*
X121920000Y-153640000D01*
X89660000Y-147640000D02*
X89660000Y-153640000D01*
X106680000Y-144582929D02*
X106680000Y-144980000D01*
X92200000Y-144582929D02*
X92200000Y-144980000D01*
X102360000Y-144582929D02*
X102360000Y-144980000D01*
X125220000Y-142042929D02*
X125220000Y-142497071D01*
X78740000Y-144582929D02*
X78740000Y-144980000D01*
X94740000Y-147640000D02*
X94740000Y-153640000D01*
X82040000Y-147640000D02*
X82040000Y-153640000D01*
X117600000Y-147640000D02*
X117600000Y-153640000D01*
X114300000Y-142042929D02*
X114300000Y-142497071D01*
X78740000Y-153640000D02*
X78740000Y-147640000D01*
X72710000Y-144980000D02*
X72710000Y-147640000D01*
X135080000Y-147640000D02*
X135080000Y-153640000D01*
X88010000Y-144980000D02*
X88010000Y-147640000D01*
X127760000Y-147640000D02*
X127760000Y-153640000D01*
X108330000Y-144980000D02*
X108330000Y-147640000D01*
X99820000Y-144582929D02*
X99820000Y-144980000D01*
X135200000Y-147640000D02*
X135200000Y-153640000D01*
X88900000Y-142042929D02*
X88900000Y-142497071D01*
X88900000Y-153640000D02*
X88900000Y-147640000D01*
X86360000Y-142042929D02*
X86360000Y-142497071D01*
X132080000Y-153640000D02*
X132080000Y-147640000D01*
X92200000Y-147640000D02*
X92200000Y-153640000D01*
X91440000Y-144582929D02*
X91440000Y-144980000D01*
X120140000Y-153640000D02*
X119380000Y-153640000D01*
X92200000Y-153640000D02*
X91440000Y-153640000D01*
X127000000Y-142042929D02*
X127000000Y-142497071D01*
X94740000Y-142042929D02*
X94740000Y-142497071D01*
X76960000Y-142042929D02*
X76960000Y-142497071D01*
X118490000Y-144980000D02*
X118490000Y-147640000D01*
X115060000Y-144582929D02*
X115060000Y-144980000D01*
X104900000Y-153640000D02*
X104140000Y-153640000D01*
X94740000Y-153640000D02*
X93980000Y-153640000D01*
X106680000Y-142042929D02*
X106680000Y-142497071D01*
X89660000Y-153640000D02*
X88900000Y-153640000D01*
X102360000Y-147640000D02*
X102360000Y-153640000D01*
X109980000Y-144582929D02*
X109980000Y-144980000D01*
X111760000Y-142042929D02*
X111760000Y-142497071D01*
X74420000Y-147640000D02*
X74420000Y-153640000D01*
X107440000Y-153640000D02*
X106680000Y-153640000D01*
X83820000Y-142042929D02*
X83820000Y-142497071D01*
X81280000Y-153640000D02*
X81280000Y-147640000D01*
X134720000Y-147640000D02*
X134720000Y-153640000D01*
X99820000Y-142042929D02*
X99820000Y-142497071D01*
X135380000Y-142110000D02*
X135380000Y-142497071D01*
X77850000Y-144980000D02*
X77850000Y-147640000D01*
X134620000Y-142110000D02*
X134620000Y-142497071D01*
X89660000Y-144582929D02*
X89660000Y-144980000D01*
X136330000Y-144980000D02*
X72710000Y-144980000D01*
X121030000Y-144980000D02*
X121030000Y-147640000D01*
X97280000Y-147640000D02*
X97280000Y-153640000D01*
X102360000Y-153640000D02*
X101600000Y-153640000D01*
X84580000Y-153640000D02*
X83820000Y-153640000D01*
X82040000Y-142042929D02*
X82040000Y-142497071D01*
%TO.C,D2*%
X55290000Y-35746000D02*
X55290000Y-35590000D01*
X55290000Y-33430000D02*
X55290000Y-33274000D01*
X54770961Y-33430000D02*
G75*
G03*
X52688870Y-33430163I-1040961J-1080000D01*
G01*
X55290000Y-33274484D02*
G75*
G03*
X52057665Y-33431392I-1560000J-1235516D01*
G01*
X52688870Y-35589837D02*
G75*
G03*
X54770961Y-35590000I1041130J1079837D01*
G01*
X52057665Y-35588608D02*
G75*
G03*
X55290000Y-35745516I1672335J1078608D01*
G01*
%TO.C,R10*%
X127730000Y-53440000D02*
X121190000Y-53440000D01*
X121190000Y-50700000D02*
X121190000Y-51030000D01*
X121190000Y-53440000D02*
X121190000Y-53110000D01*
X127730000Y-53110000D02*
X127730000Y-53440000D01*
X127730000Y-51030000D02*
X127730000Y-50700000D01*
X127730000Y-50700000D02*
X121190000Y-50700000D01*
%TO.C,U8*%
X54460000Y-130110000D02*
X54460000Y-109670000D01*
X49160000Y-130110000D02*
X54460000Y-130110000D01*
X49160000Y-109670000D02*
X49160000Y-130110000D01*
X54460000Y-109670000D02*
X52810000Y-109670000D01*
X50810000Y-109670000D02*
X49160000Y-109670000D01*
X50810000Y-109670000D02*
G75*
G03*
X52810000Y-109670000I1000000J0D01*
G01*
%TO.C,U12*%
X97382500Y-71500000D02*
X97382500Y-43370000D01*
X97382500Y-71500000D02*
X133002500Y-71500000D01*
X96112500Y-71500000D02*
X94782500Y-71500000D01*
X97382500Y-43370000D02*
X133002500Y-43370000D01*
X94782500Y-71500000D02*
X94782500Y-70170000D01*
X133002500Y-71500000D02*
X133002500Y-43370000D01*
%TO.C,U13*%
X97382500Y-102980000D02*
X133002500Y-102980000D01*
X97382500Y-74850000D02*
X133002500Y-74850000D01*
X97382500Y-102980000D02*
X97382500Y-74850000D01*
X133002500Y-102980000D02*
X133002500Y-74850000D01*
X94782500Y-102980000D02*
X94782500Y-101650000D01*
X96112500Y-102980000D02*
X94782500Y-102980000D01*
%TO.C,U7*%
X61243300Y-109670000D02*
X61243300Y-130110000D01*
X61243300Y-130110000D02*
X66543300Y-130110000D01*
X62893300Y-109670000D02*
X61243300Y-109670000D01*
X66543300Y-130110000D02*
X66543300Y-109670000D01*
X66543300Y-109670000D02*
X64893300Y-109670000D01*
X62893300Y-109670000D02*
G75*
G03*
X64893300Y-109670000I1000000J0D01*
G01*
%TO.C,C10*%
X78586700Y-72175000D02*
X78586700Y-72490000D01*
X73346700Y-72175000D02*
X73346700Y-72490000D01*
X73346700Y-69750000D02*
X73346700Y-70065000D01*
X73346700Y-69750000D02*
X78586700Y-69750000D01*
X73346700Y-72490000D02*
X78586700Y-72490000D01*
X78586700Y-69750000D02*
X78586700Y-70065000D01*
%TO.C,R7*%
X139218800Y-60860000D02*
X139218800Y-61190000D01*
X139218800Y-63600000D02*
X139218800Y-63270000D01*
X132678800Y-61190000D02*
X132678800Y-60860000D01*
X132678800Y-63270000D02*
X132678800Y-63600000D01*
X132678800Y-63600000D02*
X139218800Y-63600000D01*
X132678800Y-60860000D02*
X139218800Y-60860000D01*
%TO.C,C9*%
X66503300Y-107870000D02*
X61263300Y-107870000D01*
X61263300Y-107870000D02*
X61263300Y-107555000D01*
X66503300Y-105445000D02*
X66503300Y-105130000D01*
X66503300Y-105130000D02*
X61263300Y-105130000D01*
X66503300Y-107870000D02*
X66503300Y-107555000D01*
X61263300Y-105445000D02*
X61263300Y-105130000D01*
%TO.C,U5*%
X53460000Y-44385000D02*
X51810000Y-44385000D01*
X49810000Y-44385000D02*
X48160000Y-44385000D01*
X53460000Y-62285000D02*
X53460000Y-44385000D01*
X48160000Y-44385000D02*
X48160000Y-62285000D01*
X48160000Y-62285000D02*
X53460000Y-62285000D01*
X49810000Y-44385000D02*
G75*
G03*
X51810000Y-44385000I1000000J0D01*
G01*
%TO.C,R11*%
X132678800Y-53440000D02*
X132678800Y-53110000D01*
X139218800Y-53440000D02*
X132678800Y-53440000D01*
X139218800Y-51030000D02*
X139218800Y-50700000D01*
X132678800Y-50700000D02*
X132678800Y-51030000D01*
X139218800Y-53110000D02*
X139218800Y-53440000D01*
X139218800Y-50700000D02*
X132678800Y-50700000D01*
%TO.C,R12*%
X127788800Y-60860000D02*
X121248800Y-60860000D01*
X121248800Y-63600000D02*
X121248800Y-63270000D01*
X121248800Y-60860000D02*
X121248800Y-61190000D01*
X127788800Y-63600000D02*
X121248800Y-63600000D01*
X127788800Y-61190000D02*
X127788800Y-60860000D01*
X127788800Y-63270000D02*
X127788800Y-63600000D01*
%TO.C,R8*%
X121248800Y-55780000D02*
X127788800Y-55780000D01*
X121248800Y-58520000D02*
X127788800Y-58520000D01*
X121248800Y-56110000D02*
X121248800Y-55780000D01*
X127788800Y-55780000D02*
X127788800Y-56110000D01*
X127788800Y-58520000D02*
X127788800Y-58190000D01*
X121248800Y-58190000D02*
X121248800Y-58520000D01*
%TO.C,R9*%
X139218800Y-55780000D02*
X139218800Y-56110000D01*
X132678800Y-56110000D02*
X132678800Y-55780000D01*
X132678800Y-58190000D02*
X132678800Y-58520000D01*
X139218800Y-58520000D02*
X139218800Y-58190000D01*
X132678800Y-55780000D02*
X139218800Y-55780000D01*
X132678800Y-58520000D02*
X139218800Y-58520000D01*
%TO.C,RR2*%
X86490000Y-79360000D02*
X83690000Y-79360000D01*
X83690000Y-76650000D02*
X83690000Y-99850000D01*
X86490000Y-99850000D02*
X86490000Y-76650000D01*
X86490000Y-76650000D02*
X83690000Y-76650000D01*
X83690000Y-99850000D02*
X86490000Y-99850000D01*
%TO.C,J7*%
X95365000Y-23707100D02*
X95365000Y-29707100D01*
X99685000Y-29707100D02*
X99685000Y-23707100D01*
X91175000Y-37617100D02*
X91175000Y-36347100D01*
X102985000Y-23707100D02*
X102985000Y-29707100D01*
X92825000Y-23707100D02*
X92825000Y-29707100D01*
X99685000Y-32764171D02*
X99685000Y-32367100D01*
X91115000Y-32367100D02*
X103935000Y-32367100D01*
X97145000Y-32764171D02*
X97145000Y-32367100D01*
X96255000Y-32367100D02*
X96255000Y-29707100D01*
X91115000Y-29707100D02*
X91115000Y-32367100D01*
X100445000Y-23707100D02*
X100445000Y-29707100D01*
X100445000Y-35304171D02*
X100445000Y-34850029D01*
X94605000Y-29707100D02*
X94605000Y-23707100D01*
X98795000Y-32367100D02*
X98795000Y-29707100D01*
X97145000Y-35304171D02*
X97145000Y-34850029D01*
X97905000Y-35304171D02*
X97905000Y-34850029D01*
X94605000Y-23707100D02*
X95365000Y-23707100D01*
X92605000Y-29707100D02*
X92605000Y-23707100D01*
X92365000Y-29707100D02*
X92365000Y-23707100D01*
X97905000Y-23707100D02*
X97905000Y-29707100D01*
X92065000Y-29707100D02*
X92065000Y-23707100D01*
X97905000Y-32764171D02*
X97905000Y-32367100D01*
X102985000Y-35304171D02*
X102985000Y-34850029D01*
X100445000Y-32764171D02*
X100445000Y-32367100D01*
X92825000Y-35237100D02*
X92825000Y-34850029D01*
X102225000Y-29707100D02*
X102225000Y-23707100D01*
X102225000Y-23707100D02*
X102985000Y-23707100D01*
X103935000Y-32367100D02*
X103935000Y-29707100D01*
X99685000Y-35304171D02*
X99685000Y-34850029D01*
X92065000Y-32764171D02*
X92065000Y-32367100D01*
X102225000Y-35304171D02*
X102225000Y-34850029D01*
X103935000Y-29707100D02*
X91115000Y-29707100D01*
X92065000Y-35237100D02*
X92065000Y-34850029D01*
X97145000Y-23707100D02*
X97905000Y-23707100D01*
X102225000Y-32764171D02*
X102225000Y-32367100D01*
X97145000Y-29707100D02*
X97145000Y-23707100D01*
X92825000Y-32764171D02*
X92825000Y-32367100D01*
X92485000Y-29707100D02*
X92485000Y-23707100D01*
X101335000Y-32367100D02*
X101335000Y-29707100D01*
X95365000Y-35304171D02*
X95365000Y-34850029D01*
X102985000Y-32764171D02*
X102985000Y-32367100D01*
X92065000Y-23707100D02*
X92825000Y-23707100D01*
X92445000Y-37617100D02*
X91175000Y-37617100D01*
X92725000Y-29707100D02*
X92725000Y-23707100D01*
X94605000Y-32764171D02*
X94605000Y-32367100D01*
X94605000Y-35304171D02*
X94605000Y-34850029D01*
X99685000Y-23707100D02*
X100445000Y-23707100D01*
X95365000Y-32764171D02*
X95365000Y-32367100D01*
X92245000Y-29707100D02*
X92245000Y-23707100D01*
X92125000Y-29707100D02*
X92125000Y-23707100D01*
X93715000Y-32367100D02*
X93715000Y-29707100D01*
%TO.C,C13*%
X53380000Y-39270000D02*
X53380000Y-39585000D01*
X48140000Y-41695000D02*
X48140000Y-42010000D01*
X48140000Y-42010000D02*
X53380000Y-42010000D01*
X53380000Y-41695000D02*
X53380000Y-42010000D01*
X48140000Y-39270000D02*
X53380000Y-39270000D01*
X48140000Y-39270000D02*
X48140000Y-39585000D01*
%TO.C,U11*%
X61243300Y-96595000D02*
X66543300Y-96595000D01*
X62893300Y-76155000D02*
X61243300Y-76155000D01*
X61243300Y-76155000D02*
X61243300Y-96595000D01*
X66543300Y-96595000D02*
X66543300Y-76155000D01*
X66543300Y-76155000D02*
X64893300Y-76155000D01*
X62893300Y-76155000D02*
G75*
G03*
X64893300Y-76155000I1000000J0D01*
G01*
%TO.C,J3*%
X84195000Y-32687100D02*
X84195000Y-32357100D01*
X85975000Y-29697100D02*
X85975000Y-23697100D01*
X83495000Y-29697100D02*
X83495000Y-23697100D01*
X86735000Y-23697100D02*
X86735000Y-29697100D01*
X87685000Y-29697100D02*
X82485000Y-29697100D01*
X82485000Y-29697100D02*
X82485000Y-32357100D01*
X82485000Y-32357100D02*
X87685000Y-32357100D01*
X84195000Y-23697100D02*
X84195000Y-29697100D01*
X83435000Y-32687100D02*
X83435000Y-32357100D01*
X86735000Y-32754171D02*
X86735000Y-32357100D01*
X87685000Y-32357100D02*
X87685000Y-29697100D01*
X85975000Y-23697100D02*
X86735000Y-23697100D01*
X83615000Y-29697100D02*
X83615000Y-23697100D01*
X83815000Y-35067100D02*
X82545000Y-35067100D01*
X83435000Y-29697100D02*
X83435000Y-23697100D01*
X83735000Y-29697100D02*
X83735000Y-23697100D01*
X84095000Y-29697100D02*
X84095000Y-23697100D01*
X83855000Y-29697100D02*
X83855000Y-23697100D01*
X85975000Y-32754171D02*
X85975000Y-32357100D01*
X83435000Y-23697100D02*
X84195000Y-23697100D01*
X85085000Y-32357100D02*
X85085000Y-29697100D01*
X82545000Y-35067100D02*
X82545000Y-33797100D01*
X83975000Y-29697100D02*
X83975000Y-23697100D01*
%TO.C,U14*%
X70173300Y-44385000D02*
X70173300Y-62285000D01*
X70173300Y-62285000D02*
X75473300Y-62285000D01*
X75473300Y-44385000D02*
X73823300Y-44385000D01*
X75473300Y-62285000D02*
X75473300Y-44385000D01*
X71823300Y-44385000D02*
X70173300Y-44385000D01*
X71823300Y-44385000D02*
G75*
G03*
X73823300Y-44385000I1000000J0D01*
G01*
%TO.C,J6*%
X137420000Y-31857400D02*
X137420000Y-40457400D01*
X117620000Y-40918725D02*
X117870000Y-41351738D01*
X106450000Y-40457400D02*
X106450000Y-31857400D01*
X117370000Y-41351738D02*
X117620000Y-40918725D01*
X117870000Y-41351738D02*
X117370000Y-41351738D01*
X137420000Y-40457400D02*
X106450000Y-40457400D01*
%TO.C,U15*%
X78860000Y-109800000D02*
X77210000Y-109800000D01*
X75210000Y-109800000D02*
X73560000Y-109800000D01*
X73560000Y-109800000D02*
X73560000Y-135320000D01*
X78860000Y-135320000D02*
X78860000Y-109800000D01*
X73560000Y-135320000D02*
X78860000Y-135320000D01*
X75210000Y-109800000D02*
G75*
G03*
X77210000Y-109800000I1000000J0D01*
G01*
%TO.C,C14*%
X66503300Y-72175000D02*
X66503300Y-72490000D01*
X66503300Y-69750000D02*
X66503300Y-70065000D01*
X61263300Y-72175000D02*
X61263300Y-72490000D01*
X61263300Y-72490000D02*
X66503300Y-72490000D01*
X61263300Y-69750000D02*
X66503300Y-69750000D01*
X61263300Y-69750000D02*
X61263300Y-70065000D01*
%TO.C,D6*%
X56060000Y-141530000D02*
X50620000Y-141530000D01*
X50620000Y-144470000D02*
X56060000Y-144470000D01*
X50620000Y-141530000D02*
X50620000Y-144470000D01*
X56060000Y-144470000D02*
X56060000Y-141530000D01*
X49600000Y-143000000D02*
X50620000Y-143000000D01*
X51640000Y-141530000D02*
X51640000Y-144470000D01*
X51520000Y-141530000D02*
X51520000Y-144470000D01*
X57080000Y-143000000D02*
X56060000Y-143000000D01*
X51400000Y-141530000D02*
X51400000Y-144470000D01*
%TO.C,U1*%
X73326700Y-76155000D02*
X73326700Y-94055000D01*
X74976700Y-76155000D02*
X73326700Y-76155000D01*
X78626700Y-94055000D02*
X78626700Y-76155000D01*
X78626700Y-76155000D02*
X76976700Y-76155000D01*
X73326700Y-94055000D02*
X78626700Y-94055000D01*
X74976700Y-76155000D02*
G75*
G03*
X76976700Y-76155000I1000000J0D01*
G01*
%TO.C,J5*%
X63230000Y-32467100D02*
X68370000Y-32467100D01*
X61960000Y-35127100D02*
X60630000Y-35127100D01*
X63230000Y-35127100D02*
X68370000Y-35127100D01*
X68370000Y-35127100D02*
X68370000Y-32467100D01*
X60630000Y-35127100D02*
X60630000Y-33797100D01*
X63230000Y-35127100D02*
X63230000Y-32467100D01*
%TO.C,J4*%
X73675000Y-32687100D02*
X73675000Y-32357100D01*
X76975000Y-23697100D02*
X76975000Y-29697100D01*
X74335000Y-29697100D02*
X74335000Y-23697100D01*
X74095000Y-29697100D02*
X74095000Y-23697100D01*
X76215000Y-29697100D02*
X76215000Y-23697100D01*
X79515000Y-32754171D02*
X79515000Y-32357100D01*
X73855000Y-29697100D02*
X73855000Y-23697100D01*
X76215000Y-23697100D02*
X76975000Y-23697100D01*
X78755000Y-23697100D02*
X79515000Y-23697100D01*
X73675000Y-23697100D02*
X74435000Y-23697100D01*
X75325000Y-32357100D02*
X75325000Y-29697100D01*
X73975000Y-29697100D02*
X73975000Y-23697100D01*
X76215000Y-32754171D02*
X76215000Y-32357100D01*
X74055000Y-35067100D02*
X72785000Y-35067100D01*
X78755000Y-32754171D02*
X78755000Y-32357100D01*
X72725000Y-29697100D02*
X72725000Y-32357100D01*
X74215000Y-29697100D02*
X74215000Y-23697100D01*
X72725000Y-32357100D02*
X80465000Y-32357100D01*
X76975000Y-32754171D02*
X76975000Y-32357100D01*
X74435000Y-23697100D02*
X74435000Y-29697100D01*
X72785000Y-35067100D02*
X72785000Y-33797100D01*
X78755000Y-29697100D02*
X78755000Y-23697100D01*
X74435000Y-32687100D02*
X74435000Y-32357100D01*
X80465000Y-32357100D02*
X80465000Y-29697100D01*
X80465000Y-29697100D02*
X72725000Y-29697100D01*
X73675000Y-29697100D02*
X73675000Y-23697100D01*
X79515000Y-23697100D02*
X79515000Y-29697100D01*
X73735000Y-29697100D02*
X73735000Y-23697100D01*
X77865000Y-32357100D02*
X77865000Y-29697100D01*
%TO.C,U16*%
X86480000Y-44385000D02*
X84830000Y-44385000D01*
X86480000Y-62285000D02*
X86480000Y-44385000D01*
X82830000Y-44385000D02*
X81180000Y-44385000D01*
X81180000Y-62285000D02*
X86480000Y-62285000D01*
X81180000Y-44385000D02*
X81180000Y-62285000D01*
X82830000Y-44385000D02*
G75*
G03*
X84830000Y-44385000I1000000J0D01*
G01*
%TO.C,U9*%
X54460000Y-76155000D02*
X52810000Y-76155000D01*
X50810000Y-76155000D02*
X49160000Y-76155000D01*
X49160000Y-96595000D02*
X54460000Y-96595000D01*
X54460000Y-96595000D02*
X54460000Y-76155000D01*
X49160000Y-76155000D02*
X49160000Y-96595000D01*
X50810000Y-76155000D02*
G75*
G03*
X52810000Y-76155000I1000000J0D01*
G01*
%TO.C,D3*%
X50620000Y-138230000D02*
X50620000Y-141170000D01*
X49600000Y-139700000D02*
X50620000Y-139700000D01*
X56060000Y-138230000D02*
X50620000Y-138230000D01*
X50620000Y-141170000D02*
X56060000Y-141170000D01*
X56060000Y-141170000D02*
X56060000Y-138230000D01*
X51640000Y-138230000D02*
X51640000Y-141170000D01*
X51520000Y-138230000D02*
X51520000Y-141170000D01*
X51400000Y-138230000D02*
X51400000Y-141170000D01*
X57080000Y-139700000D02*
X56060000Y-139700000D01*
%TD*%
M02*
