M48
; DRILL file {KiCad (6.0.11)} date Mon Jun 19 11:30:49 2023
; FORMAT={-:-/ absolute / inch / decimal}
; #@! TF.CreationDate,2023-06-19T11:30:49-05:00
; #@! TF.GenerationSoftware,Kicad,Pcbnew,(6.0.11)
; #@! TF.FileFunction,Plated,1,2,PTH
FMAT,2
INCH
; #@! TA.AperFunction,Plated,PTH,ViaDrill
T1C0.0157
; #@! TA.AperFunction,Plated,PTH,ComponentDrill
T2C0.0315
; #@! TA.AperFunction,Plated,PTH,ComponentDrill
T3C0.0354
; #@! TA.AperFunction,Plated,PTH,ComponentDrill
T4C0.0394
; #@! TA.AperFunction,Plated,PTH,ComponentDrill
T5C0.0433
; #@! TA.AperFunction,Plated,PTH,ComponentDrill
T6C0.0866
; #@! TA.AperFunction,Plated,PTH,ComponentDrill
T7C0.1260
%
G90
G05
T1
X1.9724Y-4.3081
X2.078Y-3.3388
X2.2133Y-2.1992
X2.2608Y-4.6144
X2.3211Y-5.1783
X2.3649Y-5.5711
X2.3904Y-2.0683
X2.3924Y-5.2235
X2.4145Y-4.6216
X2.4174Y-5.5555
X2.4399Y-4.7236
X2.4515Y-5.569
X2.4567Y-5.6023
X2.4905Y-2.3379
X2.5129Y-5.3573
X2.5355Y-3.2415
X2.5366Y-4.1929
X2.5675Y-2.8861
X2.5707Y-3.4565
X2.6105Y-4.0469
X2.691Y-2.9665
X2.7041Y-4.731
X2.726Y-4.4649
X2.745Y-2.8569
X2.7802Y-4.9888
X2.7884Y-4.7058
X2.7884Y-4.823
X2.7948Y-2.198
X2.8214Y-4.0519
X2.8776Y-5.3797
X2.9915Y-2.9294
X2.9922Y-5.4495
X3.0485Y-3.78
X3.0576Y-5.2702
X3.0609Y-4.6849
X3.0657Y-3.9531
X3.0756Y-3.085
X3.0948Y-4.6286
X3.0995Y-4.7296
X3.116Y-3.7411
X3.1209Y-3.9365
X3.2157Y-4.9541
X3.2332Y-4.1594
X3.237Y-2.3514
X3.2412Y-2.1267
X3.286Y-2.8693
X3.3291Y-2.9457
X3.364Y-2.0898
X3.3669Y-2.932
X3.4216Y-4.2636
X3.4242Y-5.4966
X3.4297Y-4.405
X3.4297Y-4.8049
X3.4527Y-5.0201
X3.4726Y-4.8967
X3.4894Y-3.0469
X3.5236Y-4.9237
X3.5327Y-5.3306
X3.5836Y-2.3509
X3.5927Y-3.3699
X3.6119Y-4.0492
X3.6603Y-3.677
X3.6741Y-4.9488
X3.6903Y-3.9234
X3.695Y-3.5195
X3.7021Y-5.0739
X3.7247Y-3.713
X3.73Y-3.6799
X3.7357Y-4.2636
X3.7413Y-1.5643
X3.8489Y-2.0926
X3.8661Y-4.8764
X3.882Y-4.6184
X3.8913Y-4.9613
X3.9129Y-1.5805
X3.9131Y-4.9921
X3.916Y-5.2074
X3.9292Y-4.5679
X3.9292Y-4.7339
X3.9408Y-5.0668
X3.9692Y-2.0703
X4.0066Y-2.1729
X4.0458Y-1.8958
X4.0712Y-2.194
X4.1605Y-3.7415
X4.1627Y-4.7201
X4.1652Y-4.6249
X4.1658Y-2.4179
X4.2053Y-4.6844
X4.2389Y-1.8574
X4.2623Y-3.752
X4.2641Y-2.4026
X4.2796Y-2.6376
X4.3386Y-2.4772
X4.3711Y-2.6245
X4.4034Y-5.1957
X4.4126Y-2.6321
X4.434Y-3.2511
X4.486Y-1.8843
X4.4879Y-3.2264
X4.5142Y-4.8524
X4.5445Y-3.1298
X4.5997Y-1.8142
X4.6701Y-2.9133
X4.6776Y-3.0595
X4.6815Y-4.928
X4.6952Y-4.7412
X4.7575Y-1.901
X4.8379Y-1.8244
X4.984Y-2.0073
X5.6708Y-4.8225
T2
X1.8504Y-1.7998
X1.8504Y-1.8998
X1.8504Y-1.9998
X1.8504Y-2.0998
X1.8504Y-2.1998
X1.8504Y-2.2998
X1.8504Y-2.3998
X1.8898Y-3.0506
X1.8898Y-3.1506
X1.8898Y-3.2506
X1.8898Y-3.3506
X1.8898Y-3.4506
X1.8898Y-3.5506
X1.8898Y-3.6506
X1.8898Y-3.7506
X1.8898Y-4.3701
X1.8898Y-4.4701
X1.8898Y-4.5701
X1.8898Y-4.6701
X1.8898Y-4.7701
X1.8898Y-4.8701
X1.8898Y-4.9701
X1.8898Y-5.0701
X1.9Y-1.6
X1.9409Y-2.8
X1.9409Y-4.1929
X2.0969Y-1.6
X2.1378Y-2.8
X2.1378Y-4.1929
X2.1504Y-1.7998
X2.1504Y-1.8998
X2.1504Y-1.9998
X2.1504Y-2.0998
X2.1504Y-2.1998
X2.1504Y-2.2998
X2.1504Y-2.3998
X2.1898Y-3.0506
X2.1898Y-3.1506
X2.1898Y-3.2506
X2.1898Y-3.3506
X2.1898Y-3.4506
X2.1898Y-3.5506
X2.1898Y-3.6506
X2.1898Y-3.7506
X2.1898Y-4.3701
X2.1898Y-4.4701
X2.1898Y-4.5701
X2.1898Y-4.6701
X2.1898Y-4.7701
X2.1898Y-4.8701
X2.1898Y-4.9701
X2.1898Y-5.0701
X2.2837Y-1.7998
X2.2837Y-1.8998
X2.2837Y-1.9998
X2.2837Y-2.0998
X2.2837Y-2.1998
X2.2837Y-2.2998
X2.2837Y-2.3998
X2.35Y-1.6
X2.3655Y-3.0506
X2.3655Y-3.1506
X2.3655Y-3.2506
X2.3655Y-3.3506
X2.3655Y-3.4506
X2.3655Y-3.5506
X2.3655Y-3.6506
X2.3655Y-3.7506
X2.3655Y-4.3701
X2.3655Y-4.4701
X2.3655Y-4.5701
X2.3655Y-4.6701
X2.3655Y-4.7701
X2.3655Y-4.8701
X2.3655Y-4.9701
X2.3655Y-5.0701
X2.4167Y-2.8
X2.4167Y-4.1929
X2.5026Y-5.525
X2.5837Y-1.7998
X2.5837Y-1.8998
X2.5837Y-1.9998
X2.5837Y-2.0998
X2.5837Y-2.1998
X2.5837Y-2.2998
X2.5837Y-2.3998
X2.601Y-5.525
X2.6135Y-2.8
X2.6135Y-4.1929
X2.65Y-1.6
X2.6655Y-3.0506
X2.6655Y-3.1506
X2.6655Y-3.2506
X2.6655Y-3.3506
X2.6655Y-3.4506
X2.6655Y-3.5506
X2.6655Y-3.6506
X2.6655Y-3.7506
X2.6655Y-4.3701
X2.6655Y-4.4701
X2.6655Y-4.5701
X2.6655Y-4.6701
X2.6655Y-4.7701
X2.6655Y-4.8701
X2.6655Y-4.9701
X2.6655Y-5.0701
X2.7171Y-1.7998
X2.7171Y-1.8998
X2.7171Y-1.9998
X2.7171Y-2.0998
X2.7171Y-2.1998
X2.7171Y-2.2998
X2.7171Y-2.3998
X2.8016Y-1.6
X2.8412Y-3.0506
X2.8412Y-3.1506
X2.8412Y-3.2506
X2.8412Y-3.3506
X2.8412Y-3.4506
X2.8412Y-3.5506
X2.8412Y-3.6506
X2.8504Y-4.3752
X2.8504Y-4.4752
X2.8504Y-4.5752
X2.8504Y-4.6752
X2.8504Y-4.7752
X2.8504Y-4.8752
X2.8504Y-4.9752
X2.8504Y-5.0752
X2.8504Y-5.1752
X2.8504Y-5.2752
X2.8924Y-2.8
X2.8924Y-4.1929
X2.9984Y-1.6
X3.0171Y-1.7998
X3.0171Y-1.8998
X3.0171Y-1.9998
X3.0171Y-2.0998
X3.0171Y-2.1998
X3.0171Y-2.2998
X3.0171Y-2.3998
X3.0892Y-2.8
X3.0892Y-4.1929
X3.1412Y-3.0506
X3.1412Y-3.1506
X3.1412Y-3.2506
X3.1412Y-3.3506
X3.1412Y-3.4506
X3.1412Y-3.5506
X3.1412Y-3.6506
X3.1504Y-1.7998
X3.1504Y-1.8998
X3.1504Y-1.9998
X3.1504Y-2.0998
X3.1504Y-2.1998
X3.1504Y-2.2998
X3.1504Y-2.3998
X3.1504Y-4.3752
X3.1504Y-4.4752
X3.1504Y-4.5752
X3.1504Y-4.6752
X3.1504Y-4.7752
X3.1504Y-4.8752
X3.1504Y-4.9752
X3.1504Y-5.0752
X3.1504Y-5.1752
X3.1504Y-5.2752
X3.25Y-2.75
X3.3169Y-4.3701
X3.3169Y-4.4701
X3.3169Y-4.5701
X3.3169Y-4.6701
X3.3169Y-4.7701
X3.3169Y-4.8701
X3.3169Y-4.9701
X3.3169Y-5.0701
X3.3169Y-5.1701
X3.3169Y-5.2701
X3.3484Y-2.75
X3.35Y-3.0744
X3.35Y-3.1744
X3.35Y-3.2744
X3.35Y-3.3744
X3.35Y-3.4744
X3.35Y-3.5744
X3.35Y-3.6744
X3.35Y-3.7744
X3.35Y-3.8744
X3.3681Y-4.1929
X3.4504Y-1.7998
X3.4504Y-1.8998
X3.4504Y-1.9998
X3.4504Y-2.0998
X3.4504Y-2.1998
X3.4504Y-2.2998
X3.4504Y-2.3998
X3.565Y-4.1929
X3.6169Y-4.3701
X3.6169Y-4.4701
X3.6169Y-4.5701
X3.6169Y-4.6701
X3.6169Y-4.7701
X3.6169Y-4.8701
X3.6169Y-4.9701
X3.6169Y-5.0701
X3.6169Y-5.1701
X3.6169Y-5.2701
X3.7926Y-4.3701
X3.7926Y-4.4701
X3.7926Y-4.5701
X3.7926Y-4.6701
X3.7926Y-4.7701
X3.7926Y-4.8701
X3.7926Y-4.9701
X3.7926Y-5.0701
X3.7926Y-5.1701
X3.7926Y-5.2701
X3.8438Y-4.2
X4.0407Y-4.2
X4.0926Y-4.3701
X4.0926Y-4.4701
X4.0926Y-4.5701
X4.0926Y-4.6701
X4.0926Y-4.7701
X4.0926Y-4.8701
X4.0926Y-4.9701
X4.0926Y-5.0701
X4.0926Y-5.1701
X4.0926Y-5.2701
X4.2684Y-4.3701
X4.2684Y-4.4701
X4.2684Y-4.5701
X4.2684Y-4.6701
X4.2684Y-4.7701
X4.2684Y-4.8701
X4.2684Y-4.9701
X4.2684Y-5.0701
X4.2684Y-5.1701
X4.2684Y-5.2701
X4.3196Y-4.2
X4.5164Y-4.2
X4.5684Y-4.3701
X4.5684Y-4.4701
X4.5684Y-4.5701
X4.5684Y-4.6701
X4.5684Y-4.7701
X4.5684Y-4.8701
X4.5684Y-4.9701
X4.5684Y-5.0701
X4.5684Y-5.1701
X4.5684Y-5.2701
X4.7441Y-4.3701
X4.7441Y-4.4701
X4.7441Y-4.5701
X4.7441Y-4.6701
X4.7441Y-4.7701
X4.7441Y-4.8701
X4.7441Y-4.9701
X4.7441Y-5.0701
X4.7441Y-5.1701
X4.7441Y-5.2701
X4.75Y-2.05
X4.7523Y-2.25
X4.7523Y-2.45
X4.7953Y-4.2
X4.9921Y-4.2
X5.0441Y-4.3701
X5.0441Y-4.4701
X5.0441Y-4.5701
X5.0441Y-4.6701
X5.0441Y-4.7701
X5.0441Y-4.8701
X5.0441Y-4.9701
X5.0441Y-5.0701
X5.0441Y-5.1701
X5.0441Y-5.2701
X5.05Y-2.05
X5.0523Y-2.25
X5.0523Y-2.45
X5.1772Y-4.3701
X5.1772Y-4.4701
X5.1772Y-4.5701
X5.1772Y-4.6701
X5.1772Y-4.7701
X5.1772Y-4.8701
X5.1772Y-4.9701
X5.1772Y-5.0701
X5.1772Y-5.1701
X5.2023Y-2.05
X5.2023Y-2.25
X5.2023Y-2.45
X5.315Y-4.4685
X5.315Y-4.5685
X5.315Y-4.6685
X5.315Y-4.7685
X5.315Y-4.8685
X5.315Y-4.9685
X5.315Y-5.0685
X5.315Y-5.1685
X5.5023Y-2.05
X5.5023Y-2.25
X5.5023Y-2.45
X5.615Y-4.4685
X5.615Y-4.5685
X5.615Y-4.6685
X5.615Y-4.7685
X5.615Y-4.8685
X5.615Y-4.9685
X5.615Y-5.0685
X5.615Y-5.1685
T3
X2.0654Y-1.3587
X2.1654Y-1.3587
T4
X2.4394Y-1.3306
X2.5394Y-1.3306
X2.6394Y-1.3306
X2.915Y-5.5512
X2.915Y-5.6512
X2.9156Y-1.3306
X3.015Y-5.5512
X3.015Y-5.6512
X3.0156Y-1.3306
X3.115Y-5.5512
X3.115Y-5.6512
X3.1156Y-1.3306
X3.215Y-5.5512
X3.215Y-5.6512
X3.2998Y-1.3306
X3.315Y-5.5512
X3.315Y-5.6512
X3.3998Y-1.3306
X3.415Y-5.5512
X3.415Y-5.6512
X3.515Y-5.5512
X3.515Y-5.6512
X3.615Y-5.5512
X3.615Y-5.6512
X3.6396Y-1.331
X3.6396Y-1.431
X3.715Y-5.5512
X3.715Y-5.6512
X3.7396Y-1.331
X3.7396Y-1.431
X3.784Y-1.761
X3.784Y-2.7626
X3.784Y-3.0004
X3.784Y-4.002
X3.815Y-5.5512
X3.815Y-5.6512
X3.8396Y-1.331
X3.8396Y-1.431
X3.884Y-1.761
X3.884Y-2.7626
X3.884Y-3.0004
X3.884Y-4.002
X3.915Y-5.5512
X3.915Y-5.6512
X3.9396Y-1.331
X3.9396Y-1.431
X3.984Y-1.761
X3.984Y-2.7626
X3.984Y-3.0004
X3.984Y-4.002
X4.015Y-5.5512
X4.015Y-5.6512
X4.0396Y-1.331
X4.0396Y-1.431
X4.084Y-1.761
X4.084Y-2.7626
X4.084Y-3.0004
X4.084Y-4.002
X4.115Y-5.5512
X4.115Y-5.6512
X4.184Y-1.761
X4.184Y-2.7626
X4.184Y-3.0004
X4.184Y-4.002
X4.215Y-5.5512
X4.215Y-5.6512
X4.284Y-1.761
X4.284Y-2.7626
X4.284Y-3.0004
X4.284Y-4.002
X4.315Y-5.5512
X4.315Y-5.6512
X4.384Y-1.761
X4.384Y-2.7626
X4.384Y-3.0004
X4.384Y-4.002
X4.415Y-5.5512
X4.415Y-5.6512
X4.484Y-1.761
X4.484Y-2.7626
X4.484Y-3.0004
X4.484Y-4.002
X4.515Y-5.5512
X4.515Y-5.6512
X4.584Y-1.761
X4.584Y-2.7626
X4.584Y-3.0004
X4.584Y-4.002
X4.5856Y-1.4491
X4.615Y-5.5512
X4.615Y-5.6512
X4.6307Y-1.3712
X4.6307Y-1.5271
X4.6758Y-1.4491
X4.684Y-1.761
X4.684Y-2.7626
X4.684Y-3.0004
X4.684Y-4.002
X4.715Y-5.5512
X4.715Y-5.6512
X4.7209Y-1.3712
X4.7209Y-1.5271
X4.7659Y-1.4491
X4.784Y-1.761
X4.784Y-2.7626
X4.784Y-3.0004
X4.784Y-4.002
X4.811Y-1.3712
X4.811Y-1.5271
X4.815Y-5.5512
X4.815Y-5.6512
X4.8561Y-1.4491
X4.884Y-1.761
X4.884Y-2.7626
X4.884Y-3.0004
X4.884Y-4.002
X4.9012Y-1.3712
X4.9012Y-1.5271
X4.915Y-5.5512
X4.915Y-5.6512
X4.9463Y-1.4491
X4.984Y-1.761
X4.984Y-2.7626
X4.984Y-3.0004
X4.984Y-4.002
X4.9913Y-1.3712
X4.9913Y-1.5271
X5.015Y-5.5512
X5.015Y-5.6512
X5.084Y-1.761
X5.084Y-2.7626
X5.084Y-3.0004
X5.084Y-4.002
X5.115Y-5.5512
X5.115Y-5.6512
X5.184Y-1.761
X5.184Y-2.7626
X5.184Y-3.0004
X5.184Y-4.002
X5.215Y-5.5512
X5.215Y-5.6512
X5.315Y-5.5512
X5.315Y-5.6512
T5
X1.9Y-5.5
X1.9Y-5.6299
X2.3Y-5.5
X2.3Y-5.6299
T6
X1.8898Y-1.3386
X5.5906Y-1.3386
T7
X4.3085Y-1.4464
X5.2927Y-1.4464
T0
M30
