G04 #@! TF.GenerationSoftware,KiCad,Pcbnew,(5.1.5)-3*
G04 #@! TF.CreationDate,2021-12-22T08:24:01-06:00*
G04 #@! TF.ProjectId,Z8065C02,5a383036-3543-4303-922e-6b696361645f,rev?*
G04 #@! TF.SameCoordinates,Original*
G04 #@! TF.FileFunction,Copper,L2,Bot*
G04 #@! TF.FilePolarity,Positive*
%FSLAX46Y46*%
G04 Gerber Fmt 4.6, Leading zero omitted, Abs format (unit mm)*
G04 Created by KiCad (PCBNEW (5.1.5)-3) date 2021-12-22 08:24:01*
%MOMM*%
%LPD*%
G04 APERTURE LIST*
%ADD10O,1.600000X2.400000*%
%ADD11R,1.600000X2.400000*%
%ADD12O,1.700000X1.700000*%
%ADD13R,1.700000X1.700000*%
%ADD14C,2.000000*%
%ADD15O,1.600000X1.600000*%
%ADD16C,1.600000*%
%ADD17C,1.800000*%
%ADD18R,1.800000X1.800000*%
%ADD19O,1.800000X1.800000*%
%ADD20R,1.600000X1.600000*%
%ADD21O,2.400000X1.600000*%
%ADD22R,2.400000X1.600000*%
%ADD23C,2.100000*%
%ADD24C,1.750000*%
%ADD25C,1.200000*%
%ADD26R,1.200000X1.200000*%
%ADD27C,0.800000*%
%ADD28C,1.000000*%
%ADD29C,0.250000*%
G04 APERTURE END LIST*
D10*
X79475000Y-121855000D03*
X94715000Y-129475000D03*
X82015000Y-121855000D03*
X92175000Y-129475000D03*
X84555000Y-121855000D03*
X89635000Y-129475000D03*
X87095000Y-121855000D03*
X87095000Y-129475000D03*
X89635000Y-121855000D03*
X84555000Y-129475000D03*
X92175000Y-121855000D03*
X82015000Y-129475000D03*
X94715000Y-121855000D03*
D11*
X79475000Y-129475000D03*
D12*
X73950000Y-86520000D03*
X73950000Y-89060000D03*
D13*
X73950000Y-91600000D03*
D14*
X99400000Y-35875000D03*
X104400000Y-35875000D03*
D15*
X93730000Y-87225000D03*
D16*
X101350000Y-87225000D03*
D17*
X72525000Y-97460000D03*
D18*
X72525000Y-100000000D03*
D15*
X90395000Y-87050000D03*
D16*
X82775000Y-87050000D03*
D15*
X82430000Y-98200000D03*
D16*
X90050000Y-98200000D03*
D15*
X90295000Y-90650000D03*
D16*
X82675000Y-90650000D03*
D15*
X90295000Y-94325000D03*
D16*
X82675000Y-94325000D03*
D17*
X72525000Y-120500000D03*
D18*
X72525000Y-123040000D03*
D17*
X72525000Y-103220000D03*
D18*
X72525000Y-105760000D03*
D17*
X72525000Y-114740000D03*
D18*
X72525000Y-117280000D03*
D17*
X72525000Y-108980000D03*
D18*
X72525000Y-111520000D03*
D19*
X86775000Y-103005000D03*
D18*
X86775000Y-110625000D03*
D14*
X93575000Y-105800000D03*
X93575000Y-110800000D03*
X84250000Y-59625000D03*
X84250000Y-64625000D03*
X84250000Y-76200000D03*
X84250000Y-81200000D03*
X100900000Y-92875000D03*
X100900000Y-97875000D03*
X131700000Y-68150000D03*
X131700000Y-73150000D03*
X131600000Y-52550000D03*
X131600000Y-57550000D03*
X84250000Y-43375000D03*
X84250000Y-48375000D03*
X131500000Y-37725000D03*
X131500000Y-42725000D03*
X130800000Y-105275000D03*
X130800000Y-110275000D03*
X131575000Y-82400000D03*
X131575000Y-87400000D03*
D15*
X100975000Y-121730000D03*
X118755000Y-129350000D03*
X103515000Y-121730000D03*
X116215000Y-129350000D03*
X106055000Y-121730000D03*
X113675000Y-129350000D03*
X108595000Y-121730000D03*
X111135000Y-129350000D03*
X111135000Y-121730000D03*
X108595000Y-129350000D03*
X113675000Y-121730000D03*
X106055000Y-129350000D03*
X116215000Y-121730000D03*
X103515000Y-129350000D03*
X118755000Y-121730000D03*
D20*
X100975000Y-129350000D03*
D15*
X138125000Y-121730000D03*
X155905000Y-129350000D03*
X140665000Y-121730000D03*
X153365000Y-129350000D03*
X143205000Y-121730000D03*
X150825000Y-129350000D03*
X145745000Y-121730000D03*
X148285000Y-129350000D03*
X148285000Y-121730000D03*
X145745000Y-129350000D03*
X150825000Y-121730000D03*
X143205000Y-129350000D03*
X153365000Y-121730000D03*
X140665000Y-129350000D03*
X155905000Y-121730000D03*
D20*
X138125000Y-129350000D03*
D21*
X123790000Y-38650000D03*
X108550000Y-86910000D03*
X123790000Y-41190000D03*
X108550000Y-84370000D03*
X123790000Y-43730000D03*
X108550000Y-81830000D03*
X123790000Y-46270000D03*
X108550000Y-79290000D03*
X123790000Y-48810000D03*
X108550000Y-76750000D03*
X123790000Y-51350000D03*
X108550000Y-74210000D03*
X123790000Y-53890000D03*
X108550000Y-71670000D03*
X123790000Y-56430000D03*
X108550000Y-69130000D03*
X123790000Y-58970000D03*
X108550000Y-66590000D03*
X123790000Y-61510000D03*
X108550000Y-64050000D03*
X123790000Y-64050000D03*
X108550000Y-61510000D03*
X123790000Y-66590000D03*
X108550000Y-58970000D03*
X123790000Y-69130000D03*
X108550000Y-56430000D03*
X123790000Y-71670000D03*
X108550000Y-53890000D03*
X123790000Y-74210000D03*
X108550000Y-51350000D03*
X123790000Y-76750000D03*
X108550000Y-48810000D03*
X123790000Y-79290000D03*
X108550000Y-46270000D03*
X123790000Y-81830000D03*
X108550000Y-43730000D03*
X123790000Y-84370000D03*
X108550000Y-41190000D03*
X123790000Y-86910000D03*
D22*
X108550000Y-38650000D03*
D10*
X87525000Y-58567500D03*
X102765000Y-66187500D03*
X90065000Y-58567500D03*
X100225000Y-66187500D03*
X92605000Y-58567500D03*
X97685000Y-66187500D03*
X95145000Y-58567500D03*
X95145000Y-66187500D03*
X97685000Y-58567500D03*
X92605000Y-66187500D03*
X100225000Y-58567500D03*
X90065000Y-66187500D03*
X102765000Y-58567500D03*
D11*
X87525000Y-66187500D03*
D10*
X87525000Y-74905000D03*
X102765000Y-82525000D03*
X90065000Y-74905000D03*
X100225000Y-82525000D03*
X92605000Y-74905000D03*
X97685000Y-82525000D03*
X95145000Y-74905000D03*
X95145000Y-82525000D03*
X97685000Y-74905000D03*
X92605000Y-82525000D03*
X100225000Y-74905000D03*
X90065000Y-82525000D03*
X102765000Y-74905000D03*
D11*
X87525000Y-82525000D03*
D10*
X134625000Y-51109200D03*
X157485000Y-58729200D03*
X137165000Y-51109200D03*
X154945000Y-58729200D03*
X139705000Y-51109200D03*
X152405000Y-58729200D03*
X142245000Y-51109200D03*
X149865000Y-58729200D03*
X144785000Y-51109200D03*
X147325000Y-58729200D03*
X147325000Y-51109200D03*
X144785000Y-58729200D03*
X149865000Y-51109200D03*
X142245000Y-58729200D03*
X152405000Y-51109200D03*
X139705000Y-58729200D03*
X154945000Y-51109200D03*
X137165000Y-58729200D03*
X157485000Y-51109200D03*
D11*
X134625000Y-58729200D03*
D10*
X96675000Y-104355000D03*
X119535000Y-111975000D03*
X99215000Y-104355000D03*
X116995000Y-111975000D03*
X101755000Y-104355000D03*
X114455000Y-111975000D03*
X104295000Y-104355000D03*
X111915000Y-111975000D03*
X106835000Y-104355000D03*
X109375000Y-111975000D03*
X109375000Y-104355000D03*
X106835000Y-111975000D03*
X111915000Y-104355000D03*
X104295000Y-111975000D03*
X114455000Y-104355000D03*
X101755000Y-111975000D03*
X116995000Y-104355000D03*
X99215000Y-111975000D03*
X119535000Y-104355000D03*
D11*
X96675000Y-111975000D03*
D10*
X134625000Y-36080000D03*
X157485000Y-43700000D03*
X137165000Y-36080000D03*
X154945000Y-43700000D03*
X139705000Y-36080000D03*
X152405000Y-43700000D03*
X142245000Y-36080000D03*
X149865000Y-43700000D03*
X144785000Y-36080000D03*
X147325000Y-43700000D03*
X147325000Y-36080000D03*
X144785000Y-43700000D03*
X149865000Y-36080000D03*
X142245000Y-43700000D03*
X152405000Y-36080000D03*
X139705000Y-43700000D03*
X154945000Y-36080000D03*
X137165000Y-43700000D03*
X157485000Y-36080000D03*
D11*
X134625000Y-43700000D03*
D10*
X134625000Y-81167500D03*
X157485000Y-88787500D03*
X137165000Y-81167500D03*
X154945000Y-88787500D03*
X139705000Y-81167500D03*
X152405000Y-88787500D03*
X142245000Y-81167500D03*
X149865000Y-88787500D03*
X144785000Y-81167500D03*
X147325000Y-88787500D03*
X147325000Y-81167500D03*
X144785000Y-88787500D03*
X149865000Y-81167500D03*
X142245000Y-88787500D03*
X152405000Y-81167500D03*
X139705000Y-88787500D03*
X154945000Y-81167500D03*
X137165000Y-88787500D03*
X157485000Y-81167500D03*
D11*
X134625000Y-88787500D03*
D10*
X134225000Y-104355000D03*
X157085000Y-111975000D03*
X136765000Y-104355000D03*
X154545000Y-111975000D03*
X139305000Y-104355000D03*
X152005000Y-111975000D03*
X141845000Y-104355000D03*
X149465000Y-111975000D03*
X144385000Y-104355000D03*
X146925000Y-111975000D03*
X146925000Y-104355000D03*
X144385000Y-111975000D03*
X149465000Y-104355000D03*
X141845000Y-111975000D03*
X152005000Y-104355000D03*
X139305000Y-111975000D03*
X154545000Y-104355000D03*
X136765000Y-111975000D03*
X157085000Y-104355000D03*
D11*
X134225000Y-111975000D03*
D10*
X104455000Y-91905000D03*
X119695000Y-99525000D03*
X106995000Y-91905000D03*
X117155000Y-99525000D03*
X109535000Y-91905000D03*
X114615000Y-99525000D03*
X112075000Y-91905000D03*
X112075000Y-99525000D03*
X114615000Y-91905000D03*
X109535000Y-99525000D03*
X117155000Y-91905000D03*
X106995000Y-99525000D03*
X119695000Y-91905000D03*
D11*
X104455000Y-99525000D03*
D10*
X87525000Y-42230000D03*
X102765000Y-49850000D03*
X90065000Y-42230000D03*
X100225000Y-49850000D03*
X92605000Y-42230000D03*
X97685000Y-49850000D03*
X95145000Y-42230000D03*
X95145000Y-49850000D03*
X97685000Y-42230000D03*
X92605000Y-49850000D03*
X100225000Y-42230000D03*
X90065000Y-49850000D03*
X102765000Y-42230000D03*
D11*
X87525000Y-49850000D03*
D10*
X134625000Y-66138300D03*
X157485000Y-73758300D03*
X137165000Y-66138300D03*
X154945000Y-73758300D03*
X139705000Y-66138300D03*
X152405000Y-73758300D03*
X142245000Y-66138300D03*
X149865000Y-73758300D03*
X144785000Y-66138300D03*
X147325000Y-73758300D03*
X147325000Y-66138300D03*
X144785000Y-73758300D03*
X149865000Y-66138300D03*
X142245000Y-73758300D03*
X152405000Y-66138300D03*
X139705000Y-73758300D03*
X154945000Y-66138300D03*
X137165000Y-73758300D03*
X157485000Y-66138300D03*
D11*
X134625000Y-73758300D03*
D23*
X73640000Y-42425000D03*
D24*
X71150000Y-41175000D03*
X71150000Y-36675000D03*
D23*
X73640000Y-35415000D03*
D15*
X99105000Y-117088000D03*
X101645000Y-117088000D03*
X104185000Y-117088000D03*
X106725000Y-117088000D03*
X109265000Y-117088000D03*
X111805000Y-117088000D03*
X114345000Y-117088000D03*
X116885000Y-117088000D03*
D20*
X119425000Y-117088000D03*
D15*
X136255000Y-117088000D03*
X138795000Y-117088000D03*
X141335000Y-117088000D03*
X143875000Y-117088000D03*
X146415000Y-117088000D03*
X148955000Y-117088000D03*
X151495000Y-117088000D03*
X154035000Y-117088000D03*
D20*
X156575000Y-117088000D03*
D15*
X157335000Y-99262500D03*
X154795000Y-99262500D03*
X152255000Y-99262500D03*
X149715000Y-99262500D03*
X147175000Y-99262500D03*
X144635000Y-99262500D03*
X142095000Y-99262500D03*
X139555000Y-99262500D03*
X137015000Y-99262500D03*
D20*
X134475000Y-99262500D03*
D15*
X80805000Y-117700000D03*
D16*
X88425000Y-117700000D03*
D15*
X80805000Y-114275000D03*
D16*
X88425000Y-114275000D03*
D15*
X71225000Y-53620000D03*
D16*
X71225000Y-46000000D03*
D12*
X80100000Y-37585000D03*
D13*
X80100000Y-40125000D03*
D12*
X165515000Y-105410000D03*
X162975000Y-105410000D03*
X165515000Y-102870000D03*
X162975000Y-102870000D03*
X165515000Y-100330000D03*
X162975000Y-100330000D03*
X165515000Y-97790000D03*
X162975000Y-97790000D03*
X165515000Y-95250000D03*
X162975000Y-95250000D03*
X165515000Y-92710000D03*
X162975000Y-92710000D03*
X165515000Y-90170000D03*
X162975000Y-90170000D03*
X165515000Y-87630000D03*
X162975000Y-87630000D03*
X165515000Y-85090000D03*
X162975000Y-85090000D03*
X165515000Y-82550000D03*
X162975000Y-82550000D03*
X165515000Y-80010000D03*
X162975000Y-80010000D03*
X165515000Y-77470000D03*
X162975000Y-77470000D03*
X165515000Y-74930000D03*
X162975000Y-74930000D03*
X165515000Y-72390000D03*
X162975000Y-72390000D03*
X165515000Y-69850000D03*
X162975000Y-69850000D03*
X165515000Y-67310000D03*
X162975000Y-67310000D03*
X165515000Y-64770000D03*
X162975000Y-64770000D03*
X165515000Y-62230000D03*
X162975000Y-62230000D03*
X165515000Y-59690000D03*
X162975000Y-59690000D03*
X165515000Y-57150000D03*
X162975000Y-57150000D03*
X165515000Y-54610000D03*
X162975000Y-54610000D03*
X165515000Y-52070000D03*
X162975000Y-52070000D03*
X165515000Y-49530000D03*
X162975000Y-49530000D03*
X165515000Y-46990000D03*
X162975000Y-46990000D03*
X165515000Y-44450000D03*
D13*
X162975000Y-44450000D03*
D12*
X74260000Y-70340000D03*
X76800000Y-70340000D03*
X74260000Y-72880000D03*
X76800000Y-72880000D03*
X74260000Y-75420000D03*
X76800000Y-75420000D03*
X74260000Y-77960000D03*
X76800000Y-77960000D03*
X74260000Y-80500000D03*
D13*
X76800000Y-80500000D03*
D12*
X74150000Y-58795000D03*
X74150000Y-61335000D03*
D13*
X74150000Y-63875000D03*
D17*
X72525000Y-126260000D03*
D18*
X72525000Y-128800000D03*
D25*
X164375000Y-36300000D03*
D26*
X164375000Y-38300000D03*
D25*
X163475000Y-119400000D03*
D26*
X163475000Y-117400000D03*
D25*
X79025000Y-50375000D03*
D26*
X79025000Y-52375000D03*
D27*
X128810000Y-90038600D03*
X153444000Y-68716200D03*
X153771700Y-86738000D03*
X139945200Y-78326100D03*
X159832800Y-85136900D03*
X140501800Y-72173700D03*
X157323400Y-93441800D03*
X155510300Y-94227400D03*
X97685000Y-91319100D03*
X147138300Y-91707000D03*
X152494700Y-92289000D03*
X160558100Y-81227000D03*
X96072300Y-91982200D03*
X141684600Y-78702600D03*
X160837300Y-78916800D03*
X154993400Y-83466400D03*
X129260300Y-97915300D03*
X139254600Y-70572200D03*
X156569100Y-68924300D03*
X157805800Y-70154900D03*
X161454200Y-74247700D03*
X122870000Y-105058600D03*
X129137800Y-40028300D03*
X159728000Y-66918100D03*
X154872500Y-46772500D03*
X159677900Y-44889300D03*
X126154100Y-55914700D03*
X150960800Y-67967200D03*
X124418800Y-101716400D03*
X130318400Y-74958800D03*
X157996700Y-62944000D03*
X121123600Y-101644700D03*
X129233500Y-72796100D03*
X147445500Y-61695600D03*
X157572900Y-96654300D03*
X159897800Y-43834500D03*
X120386300Y-56712400D03*
X160988600Y-51732500D03*
X160880500Y-43133100D03*
X127277300Y-48977200D03*
X156137600Y-91286900D03*
X156489200Y-77812900D03*
X159849200Y-74452900D03*
X136759000Y-108888200D03*
X138435000Y-68974800D03*
X156365800Y-62298000D03*
X113268200Y-96076900D03*
X145518900Y-82873000D03*
X114025000Y-56325000D03*
X121125000Y-49200000D03*
X145147600Y-78756100D03*
X114980300Y-88345200D03*
X135707600Y-86511500D03*
X144181500Y-77231600D03*
X129260300Y-98941100D03*
X137433000Y-75660600D03*
X92450000Y-78375000D03*
X113975000Y-75075000D03*
X116694200Y-72861400D03*
X112855800Y-51560400D03*
X112409600Y-52979700D03*
X127675300Y-46126400D03*
X119232100Y-87558400D03*
X121479300Y-88588500D03*
X123461900Y-92524900D03*
X126326100Y-77186600D03*
X123203100Y-88319700D03*
X119682500Y-73065900D03*
X121690500Y-94091500D03*
X125120500Y-94388800D03*
X125944400Y-66790400D03*
X126984300Y-61928200D03*
X128078000Y-60789900D03*
X128667100Y-67699000D03*
X156893700Y-54736300D03*
X107375000Y-89575000D03*
X132674700Y-74677900D03*
X105314700Y-73282900D03*
D28*
X131600000Y-52550000D02*
X129799600Y-50749600D01*
X129799600Y-50749600D02*
X129799600Y-41246700D01*
X129799600Y-41246700D02*
X130238100Y-40808200D01*
X130238100Y-40808200D02*
X130238100Y-38986900D01*
X130238100Y-38986900D02*
X131500000Y-37725000D01*
X157485000Y-75658600D02*
X157589500Y-75763100D01*
X157589500Y-75763100D02*
X157589500Y-78737800D01*
X157589500Y-78737800D02*
X158991600Y-80139900D01*
X158991600Y-80139900D02*
X158991600Y-84012400D01*
X158991600Y-84012400D02*
X157485000Y-85519000D01*
X157485000Y-85519000D02*
X157485000Y-86887200D01*
X119695000Y-97624700D02*
X120350300Y-97624700D01*
X120350300Y-97624700D02*
X124019700Y-93955300D01*
X124019700Y-93955300D02*
X124019700Y-93932600D01*
X124019700Y-93932600D02*
X124569800Y-93382500D01*
X124569800Y-93382500D02*
X124569800Y-87689800D01*
X124569800Y-87689800D02*
X123790000Y-86910000D01*
X157485000Y-56828900D02*
X158987700Y-55326200D01*
X158987700Y-55326200D02*
X158987700Y-47103000D01*
X158987700Y-47103000D02*
X157485000Y-45600300D01*
X119695000Y-101425300D02*
X119695000Y-101772100D01*
X119695000Y-101772100D02*
X121074300Y-103151400D01*
X121074300Y-103151400D02*
X121074300Y-108535400D01*
X121074300Y-108535400D02*
X119535000Y-110074700D01*
X84250000Y-40184700D02*
X81650300Y-37585000D01*
X84250000Y-43375000D02*
X84250000Y-40184700D01*
X84250000Y-40184700D02*
X88559700Y-35875000D01*
X88559700Y-35875000D02*
X99400000Y-35875000D01*
X80100000Y-37585000D02*
X81650300Y-37585000D01*
X131600000Y-52550000D02*
X129899300Y-54250700D01*
X129899300Y-54250700D02*
X129899300Y-62049700D01*
X129899300Y-62049700D02*
X131700000Y-63850400D01*
X131700000Y-63850400D02*
X131700000Y-68150000D01*
X100900000Y-92875000D02*
X99849200Y-91824200D01*
X99849200Y-91824200D02*
X99849200Y-86604100D01*
X99849200Y-86604100D02*
X102028000Y-84425300D01*
X102028000Y-84425300D02*
X102765000Y-84425300D01*
X79025000Y-50375000D02*
X79268900Y-50375000D01*
X79268900Y-50375000D02*
X84250000Y-55356100D01*
X84250000Y-55356100D02*
X84250000Y-59625000D01*
X162975000Y-72390000D02*
X161392300Y-70807300D01*
X161392300Y-70807300D02*
X161392300Y-64536800D01*
X161392300Y-64536800D02*
X157485000Y-60629500D01*
X119695000Y-99525000D02*
X119695000Y-97624700D01*
X157485000Y-73758300D02*
X157485000Y-75658600D01*
X157485000Y-43700000D02*
X157485000Y-41799700D01*
X157485000Y-41799700D02*
X162984700Y-36300000D01*
X162984700Y-36300000D02*
X164375000Y-36300000D01*
X157485000Y-43841100D02*
X157485000Y-43700000D01*
X157485000Y-43841100D02*
X157485000Y-45600300D01*
X162975000Y-97790000D02*
X159758500Y-101006500D01*
X159758500Y-101006500D02*
X159758500Y-107401200D01*
X159758500Y-107401200D02*
X157085000Y-110074700D01*
X145745000Y-129350000D02*
X148285000Y-129350000D01*
X102765000Y-82525000D02*
X102765000Y-84425300D01*
X93575000Y-105800000D02*
X93575000Y-100200000D01*
X93575000Y-100200000D02*
X100900000Y-92875000D01*
X119535000Y-113875300D02*
X120991900Y-115332200D01*
X120991900Y-115332200D02*
X120991900Y-125612800D01*
X120991900Y-125612800D02*
X118755000Y-127849700D01*
X119535000Y-111975000D02*
X119535000Y-110074700D01*
X119695000Y-99525000D02*
X119695000Y-101425300D01*
X102765000Y-49850000D02*
X102765000Y-51750300D01*
X97685000Y-58567500D02*
X97685000Y-56667200D01*
X102765000Y-51750300D02*
X102601900Y-51750300D01*
X102601900Y-51750300D02*
X97685000Y-56667200D01*
X118755000Y-129350000D02*
X118755000Y-127849700D01*
X119535000Y-111975000D02*
X119535000Y-113875300D01*
X106055000Y-129350000D02*
X108595000Y-129350000D01*
X157485000Y-58729200D02*
X157485000Y-60629500D01*
X157485000Y-57779000D02*
X157485000Y-58729200D01*
X157485000Y-57779000D02*
X157485000Y-56828900D01*
X157085000Y-111975000D02*
X157085000Y-110074700D01*
X161056600Y-119400000D02*
X161056600Y-122698100D01*
X161056600Y-122698100D02*
X155905000Y-127849700D01*
X157085000Y-113875300D02*
X161056600Y-117846900D01*
X161056600Y-117846900D02*
X161056600Y-119400000D01*
X163475000Y-119400000D02*
X161056600Y-119400000D01*
X155905000Y-129350000D02*
X155905000Y-127849700D01*
X157485000Y-88787500D02*
X157485000Y-86887200D01*
X157085000Y-111975000D02*
X157085000Y-113875300D01*
D29*
X87525000Y-49850000D02*
X87525000Y-51375300D01*
X87525000Y-51375300D02*
X86399700Y-52500600D01*
X86399700Y-52500600D02*
X86399700Y-67548400D01*
X86399700Y-67548400D02*
X91335000Y-72483700D01*
X91335000Y-72483700D02*
X91335000Y-83865000D01*
X91335000Y-83865000D02*
X91536800Y-84066800D01*
X91536800Y-84066800D02*
X91536800Y-94709900D01*
X91536800Y-94709900D02*
X86775000Y-99471700D01*
X86775000Y-99471700D02*
X86775000Y-103005000D01*
X86775000Y-103005000D02*
X86775000Y-104230300D01*
X86775000Y-104230300D02*
X80805000Y-110200300D01*
X80805000Y-110200300D02*
X80805000Y-114275000D01*
D28*
X131700000Y-73150000D02*
X131700000Y-70963600D01*
X131700000Y-70963600D02*
X134625000Y-68038600D01*
X84250000Y-48375000D02*
X87525000Y-45100000D01*
X87525000Y-45100000D02*
X87525000Y-42230000D01*
X104400000Y-35875000D02*
X101046100Y-39228900D01*
X101046100Y-39228900D02*
X90526100Y-39228900D01*
X90526100Y-39228900D02*
X87525000Y-42230000D01*
X104455000Y-91905000D02*
X104455000Y-93805300D01*
X100900000Y-97875000D02*
X100900000Y-97360300D01*
X100900000Y-97360300D02*
X104455000Y-93805300D01*
X104455000Y-91905000D02*
X104455000Y-90004700D01*
X101350000Y-87225000D02*
X104129700Y-90004700D01*
X104129700Y-90004700D02*
X104455000Y-90004700D01*
X134475000Y-97762200D02*
X131575000Y-94862200D01*
X131575000Y-94862200D02*
X131575000Y-87400000D01*
X134625000Y-37980300D02*
X131500000Y-41105300D01*
X131500000Y-41105300D02*
X131500000Y-42725000D01*
X96675000Y-104355000D02*
X96675000Y-106255300D01*
X93575000Y-110800000D02*
X96674900Y-107700100D01*
X96674900Y-107700100D02*
X96674900Y-106255300D01*
X96674900Y-106255300D02*
X96675000Y-106255300D01*
X88425000Y-113875300D02*
X90499700Y-113875300D01*
X90499700Y-113875300D02*
X93575000Y-110800000D01*
X134625000Y-49208900D02*
X131500000Y-46083900D01*
X131500000Y-46083900D02*
X131500000Y-42725000D01*
X134625000Y-53009500D02*
X131600000Y-56034500D01*
X131600000Y-56034500D02*
X131600000Y-57550000D01*
X87525000Y-74905000D02*
X87525000Y-73004700D01*
X87525000Y-73004700D02*
X84250000Y-69729700D01*
X84250000Y-69729700D02*
X84250000Y-64625000D01*
X87525000Y-80624700D02*
X87525000Y-74905000D01*
X87525000Y-80624700D02*
X84825300Y-80624700D01*
X84825300Y-80624700D02*
X84250000Y-81200000D01*
X84250000Y-81200000D02*
X84250000Y-85575000D01*
X84250000Y-85575000D02*
X82775000Y-87050000D01*
X87525000Y-82525000D02*
X87525000Y-80624700D01*
X82775000Y-87050000D02*
X82675000Y-87150000D01*
X82675000Y-87150000D02*
X82675000Y-90650000D01*
X131575000Y-87400000D02*
X134625000Y-84350000D01*
X134625000Y-84350000D02*
X134625000Y-83067800D01*
X134625000Y-51109200D02*
X134625000Y-49208900D01*
X88425000Y-113875300D02*
X86775000Y-112225300D01*
X88425000Y-114275000D02*
X88425000Y-113875300D01*
X82675000Y-90650000D02*
X82675000Y-94325000D01*
X134625000Y-36080000D02*
X134625000Y-37980300D01*
X134625000Y-64238000D02*
X131600000Y-61213000D01*
X131600000Y-61213000D02*
X131600000Y-57550000D01*
X134625000Y-51109200D02*
X134625000Y-53009500D01*
X134625000Y-66138300D02*
X134625000Y-68038600D01*
X134625000Y-66138300D02*
X134625000Y-64238000D01*
X134475000Y-99262500D02*
X134475000Y-97762200D01*
X134475000Y-100012600D02*
X134475000Y-99262500D01*
X134475000Y-100012600D02*
X134475000Y-100762800D01*
X86775000Y-110625000D02*
X86775000Y-112225300D01*
X88425000Y-117700000D02*
X88425000Y-114275000D01*
X134625000Y-81167500D02*
X134625000Y-83067800D01*
X134475000Y-100762800D02*
X134225000Y-101012800D01*
X134225000Y-101012800D02*
X134225000Y-104355000D01*
D29*
X80805000Y-117700000D02*
X80805000Y-118825300D01*
X72525000Y-126260000D02*
X79959700Y-118825300D01*
X79959700Y-118825300D02*
X80805000Y-118825300D01*
X157335000Y-98137200D02*
X156840800Y-97643000D01*
X156840800Y-97643000D02*
X156840800Y-95267200D01*
X156840800Y-95267200D02*
X158116400Y-93991600D01*
X158116400Y-93991600D02*
X158116400Y-93348800D01*
X158116400Y-93348800D02*
X162659900Y-88805300D01*
X162659900Y-88805300D02*
X162975000Y-88805300D01*
X157335000Y-99262500D02*
X157335000Y-98137200D01*
X162975000Y-87630000D02*
X162975000Y-88805300D01*
X128810000Y-90038600D02*
X128810000Y-82141700D01*
X128810000Y-82141700D02*
X133850400Y-77101300D01*
X133850400Y-77101300D02*
X133850400Y-76058200D01*
X133850400Y-76058200D02*
X134625000Y-75283600D01*
X134625000Y-73758300D02*
X134625000Y-75283600D01*
X134225000Y-110449700D02*
X132125300Y-108350000D01*
X132125300Y-108350000D02*
X132125300Y-104725900D01*
X132125300Y-104725900D02*
X128534900Y-101135500D01*
X128534900Y-101135500D02*
X128534900Y-90313700D01*
X128534900Y-90313700D02*
X128810000Y-90038600D01*
X134225000Y-111975000D02*
X134225000Y-110449700D01*
X137165000Y-66138300D02*
X137165000Y-68144000D01*
X137165000Y-68144000D02*
X134625000Y-70684000D01*
X134625000Y-70684000D02*
X134625000Y-73758300D01*
X134625000Y-44248400D02*
X137165000Y-41708400D01*
X137165000Y-41708400D02*
X137165000Y-36080000D01*
X134625000Y-43700000D02*
X134625000Y-44248400D01*
X134625000Y-44462600D02*
X134625000Y-45225300D01*
X134625000Y-44462600D02*
X134625000Y-44248400D01*
X137165000Y-51109200D02*
X137165000Y-47765300D01*
X137165000Y-47765300D02*
X134625000Y-45225300D01*
X137165000Y-66138300D02*
X137165000Y-62794500D01*
X137165000Y-62794500D02*
X134625000Y-60254500D01*
X134625000Y-58729200D02*
X134625000Y-60254500D01*
X74260000Y-72880000D02*
X74260000Y-70340000D01*
X74260000Y-75420000D02*
X74260000Y-72880000D01*
X74260000Y-77960000D02*
X74260000Y-75420000D01*
X74260000Y-80500000D02*
X74260000Y-77960000D01*
X87525000Y-58567500D02*
X87525000Y-57042200D01*
X87525000Y-57042200D02*
X88785800Y-55781400D01*
X88785800Y-55781400D02*
X88785800Y-49131000D01*
X88785800Y-49131000D02*
X93643900Y-44272900D01*
X93643900Y-44272900D02*
X97682200Y-44272900D01*
X97682200Y-44272900D02*
X98955000Y-43000100D01*
X98955000Y-43000100D02*
X98955000Y-41436700D01*
X98955000Y-41436700D02*
X99853000Y-40538700D01*
X99853000Y-40538700D02*
X102711300Y-40538700D01*
X102711300Y-40538700D02*
X105725400Y-37524600D01*
X105725400Y-37524600D02*
X110075400Y-37524600D01*
X110075400Y-37524600D02*
X112395900Y-39845100D01*
X112395900Y-39845100D02*
X125206200Y-39845100D01*
X125206200Y-39845100D02*
X130966300Y-34085000D01*
X130966300Y-34085000D02*
X164184000Y-34085000D01*
X164184000Y-34085000D02*
X165811200Y-35712200D01*
X165811200Y-35712200D02*
X165811200Y-40661500D01*
X165811200Y-40661500D02*
X164339600Y-42133100D01*
X164339600Y-42133100D02*
X164339600Y-50055600D01*
X164339600Y-50055600D02*
X165084000Y-50800000D01*
X165084000Y-50800000D02*
X165987700Y-50800000D01*
X165987700Y-50800000D02*
X166729400Y-51541700D01*
X166729400Y-51541700D02*
X166729400Y-55935600D01*
X166729400Y-55935600D02*
X165515000Y-57150000D01*
X92605000Y-58567500D02*
X92605000Y-60092800D01*
X87525000Y-66187500D02*
X87525000Y-64662200D01*
X87525000Y-64662200D02*
X92094400Y-60092800D01*
X92094400Y-60092800D02*
X92605000Y-60092800D01*
X153771700Y-86738000D02*
X153771700Y-69043900D01*
X153771700Y-69043900D02*
X153444000Y-68716200D01*
X139945200Y-78326100D02*
X143370400Y-74900900D01*
X143370400Y-74900900D02*
X143370400Y-72793700D01*
X143370400Y-72793700D02*
X144785000Y-71379100D01*
X144785000Y-71379100D02*
X144785000Y-66138300D01*
X149865000Y-66138300D02*
X150186600Y-66138300D01*
X150186600Y-66138300D02*
X152022100Y-67973800D01*
X152022100Y-67973800D02*
X153752200Y-67973800D01*
X153752200Y-67973800D02*
X158610600Y-72832200D01*
X158610600Y-72832200D02*
X158610600Y-77912400D01*
X158610600Y-77912400D02*
X159832800Y-79134600D01*
X159832800Y-79134600D02*
X159832800Y-85136900D01*
X140501800Y-72173700D02*
X140501800Y-68460400D01*
X140501800Y-68460400D02*
X139705000Y-67663600D01*
X139705000Y-66138300D02*
X139705000Y-67663600D01*
X154795000Y-99262500D02*
X155920300Y-99262500D01*
X165515000Y-87630000D02*
X165515000Y-88805300D01*
X165515000Y-88805300D02*
X165882300Y-88805300D01*
X165882300Y-88805300D02*
X166715500Y-89638500D01*
X166715500Y-89638500D02*
X166715500Y-93186000D01*
X166715500Y-93186000D02*
X165921500Y-93980000D01*
X165921500Y-93980000D02*
X162517100Y-93980000D01*
X162517100Y-93980000D02*
X159704100Y-96793000D01*
X159704100Y-96793000D02*
X159704100Y-98487300D01*
X159704100Y-98487300D02*
X157803600Y-100387800D01*
X157803600Y-100387800D02*
X156764200Y-100387800D01*
X156764200Y-100387800D02*
X155920300Y-99543900D01*
X155920300Y-99543900D02*
X155920300Y-99262500D01*
X165515000Y-83914700D02*
X165147600Y-83914700D01*
X165147600Y-83914700D02*
X164339700Y-83106800D01*
X164339700Y-83106800D02*
X164339700Y-82223900D01*
X164339700Y-82223900D02*
X163490400Y-81374600D01*
X163490400Y-81374600D02*
X162669700Y-81374600D01*
X162669700Y-81374600D02*
X161562600Y-80267500D01*
X161562600Y-80267500D02*
X161562600Y-78616300D01*
X161562600Y-78616300D02*
X159061000Y-76114700D01*
X159061000Y-76114700D02*
X159061000Y-72620600D01*
X159061000Y-72620600D02*
X152578700Y-66138300D01*
X152578700Y-66138300D02*
X152405000Y-66138300D01*
X165515000Y-85090000D02*
X165515000Y-83914700D01*
X162975000Y-85090000D02*
X162975000Y-86265300D01*
X162975000Y-86265300D02*
X162607600Y-86265300D01*
X162607600Y-86265300D02*
X161799700Y-87073200D01*
X161799700Y-87073200D02*
X161799700Y-88965500D01*
X161799700Y-88965500D02*
X157323400Y-93441800D01*
X157485000Y-66138300D02*
X157485000Y-67663600D01*
X165515000Y-82550000D02*
X165515000Y-81374700D01*
X165515000Y-81374700D02*
X165147600Y-81374700D01*
X165147600Y-81374700D02*
X164339700Y-80566800D01*
X164339700Y-80566800D02*
X164339700Y-79673700D01*
X164339700Y-79673700D02*
X163406000Y-78740000D01*
X163406000Y-78740000D02*
X162576900Y-78740000D01*
X162576900Y-78740000D02*
X160658400Y-76821500D01*
X160658400Y-76821500D02*
X160658400Y-71491400D01*
X160658400Y-71491400D02*
X159010300Y-69843300D01*
X159010300Y-69843300D02*
X159010300Y-69188900D01*
X159010300Y-69188900D02*
X157485000Y-67663600D01*
X162975000Y-82550000D02*
X162975000Y-83725300D01*
X162975000Y-83725300D02*
X162607600Y-83725300D01*
X162607600Y-83725300D02*
X161799700Y-84533200D01*
X161799700Y-84533200D02*
X161799700Y-85515900D01*
X161799700Y-85515900D02*
X161283600Y-86032000D01*
X161283600Y-86032000D02*
X161283600Y-88454100D01*
X161283600Y-88454100D02*
X155510300Y-94227400D01*
X147138300Y-91707000D02*
X147138300Y-98100500D01*
X147138300Y-98100500D02*
X147175000Y-98137200D01*
X147175000Y-99262500D02*
X147175000Y-98137200D01*
X97685000Y-82525000D02*
X97685000Y-91319100D01*
X160558100Y-81227000D02*
X160558100Y-85483700D01*
X160558100Y-85483700D02*
X159032800Y-87009000D01*
X159032800Y-87009000D02*
X159032800Y-89431100D01*
X159032800Y-89431100D02*
X156174900Y-92289000D01*
X156174900Y-92289000D02*
X152494700Y-92289000D01*
X96072300Y-91982200D02*
X95145000Y-91054900D01*
X95145000Y-91054900D02*
X95145000Y-82525000D01*
X90065000Y-51375300D02*
X93875000Y-55185300D01*
X93875000Y-55185300D02*
X93875000Y-79729700D01*
X93875000Y-79729700D02*
X95145000Y-80999700D01*
X90065000Y-49850000D02*
X90065000Y-51375300D01*
X95145000Y-82525000D02*
X95145000Y-80999700D01*
X139705000Y-79642200D02*
X140745000Y-79642200D01*
X140745000Y-79642200D02*
X141684600Y-78702600D01*
X139705000Y-81167500D02*
X139705000Y-79642200D01*
X160837300Y-78916800D02*
X160837300Y-80480500D01*
X160837300Y-80480500D02*
X160837400Y-80480500D01*
X160837400Y-80480500D02*
X161287600Y-80930700D01*
X161287600Y-80930700D02*
X161287600Y-85391100D01*
X161287600Y-85391100D02*
X159998500Y-86680200D01*
X159998500Y-86680200D02*
X159998500Y-89102300D01*
X159998500Y-89102300D02*
X155598700Y-93502100D01*
X155598700Y-93502100D02*
X155207200Y-93502100D01*
X155207200Y-93502100D02*
X153525000Y-95184300D01*
X153525000Y-95184300D02*
X153525000Y-99624200D01*
X153525000Y-99624200D02*
X152761400Y-100387800D01*
X152761400Y-100387800D02*
X151684200Y-100387800D01*
X151684200Y-100387800D02*
X150840300Y-99543900D01*
X150840300Y-99543900D02*
X150840300Y-99262500D01*
X149715000Y-99262500D02*
X150840300Y-99262500D01*
X152255000Y-99262500D02*
X152255000Y-98137200D01*
X154993400Y-83466400D02*
X154993400Y-86544500D01*
X154993400Y-86544500D02*
X153675000Y-87862900D01*
X153675000Y-87862900D02*
X153675000Y-89901400D01*
X153675000Y-89901400D02*
X151761800Y-91814600D01*
X151761800Y-91814600D02*
X151761800Y-97644000D01*
X151761800Y-97644000D02*
X152255000Y-98137200D01*
X129260300Y-97915300D02*
X129260300Y-90847900D01*
X129260300Y-90847900D02*
X129344200Y-90764000D01*
X129344200Y-90764000D02*
X129344200Y-90530200D01*
X129344200Y-90530200D02*
X129535300Y-90339100D01*
X129535300Y-90339100D02*
X129535300Y-89738100D01*
X129535300Y-89738100D02*
X129344200Y-89547000D01*
X129344200Y-89547000D02*
X129344200Y-84731300D01*
X129344200Y-84731300D02*
X130249600Y-83825900D01*
X130249600Y-83825900D02*
X130249600Y-81750800D01*
X130249600Y-81750800D02*
X131813100Y-80187300D01*
X131813100Y-80187300D02*
X131813100Y-79775500D01*
X131813100Y-79775500D02*
X134300700Y-77287900D01*
X134300700Y-77287900D02*
X134300700Y-77206000D01*
X134300700Y-77206000D02*
X135990400Y-75516300D01*
X135990400Y-75516300D02*
X135990400Y-71223100D01*
X135990400Y-71223100D02*
X137709600Y-69503900D01*
X137709600Y-69503900D02*
X137709600Y-68660500D01*
X137709600Y-68660500D02*
X138455100Y-67915000D01*
X157805800Y-70154900D02*
X156575200Y-68924300D01*
X156575200Y-68924300D02*
X156569100Y-68924300D01*
X139705000Y-37605300D02*
X140897300Y-38797600D01*
X140897300Y-38797600D02*
X140897300Y-62867500D01*
X140897300Y-62867500D02*
X138565300Y-65199500D01*
X138565300Y-65199500D02*
X138565300Y-67804800D01*
X138565300Y-67804800D02*
X138455100Y-67915000D01*
X138455100Y-67915000D02*
X139254600Y-68714600D01*
X139254600Y-68714600D02*
X139254600Y-70572200D01*
X139705000Y-36080000D02*
X139705000Y-37605300D01*
X165515000Y-67310000D02*
X165515000Y-68485300D01*
X165515000Y-68485300D02*
X165147600Y-68485300D01*
X165147600Y-68485300D02*
X164339700Y-69293200D01*
X164339700Y-69293200D02*
X164339700Y-72697300D01*
X164339700Y-72697300D02*
X163471600Y-73565400D01*
X163471600Y-73565400D02*
X162136500Y-73565400D01*
X162136500Y-73565400D02*
X161454200Y-74247700D01*
X129137800Y-40028300D02*
X128972100Y-40194000D01*
X128972100Y-40194000D02*
X128972100Y-63808800D01*
X128972100Y-63808800D02*
X129958800Y-64795500D01*
X129958800Y-64795500D02*
X129958800Y-73706100D01*
X129958800Y-73706100D02*
X128852700Y-74812200D01*
X128852700Y-74812200D02*
X128852700Y-79314900D01*
X128852700Y-79314900D02*
X126296200Y-81871400D01*
X126296200Y-81871400D02*
X126296200Y-98011400D01*
X126296200Y-98011400D02*
X122870000Y-101437600D01*
X122870000Y-101437600D02*
X122870000Y-105058600D01*
X144785000Y-36080000D02*
X144785000Y-37605300D01*
X159728000Y-66918100D02*
X159728000Y-66323600D01*
X159728000Y-66323600D02*
X157759600Y-64355200D01*
X157759600Y-64355200D02*
X155951300Y-64355200D01*
X155951300Y-64355200D02*
X151135000Y-59538900D01*
X151135000Y-59538900D02*
X151135000Y-42906700D01*
X151135000Y-42906700D02*
X145833600Y-37605300D01*
X145833600Y-37605300D02*
X144785000Y-37605300D01*
X149865000Y-34554700D02*
X132789400Y-34554700D01*
X132789400Y-34554700D02*
X128400700Y-38943400D01*
X128400700Y-38943400D02*
X128400700Y-51342300D01*
X128400700Y-51342300D02*
X124583000Y-55160000D01*
X124583000Y-55160000D02*
X123049200Y-55160000D01*
X123049200Y-55160000D02*
X118506700Y-59702500D01*
X118506700Y-59702500D02*
X118506700Y-88080400D01*
X118506700Y-88080400D02*
X121292200Y-90865900D01*
X121292200Y-90865900D02*
X121292200Y-92994900D01*
X121292200Y-92994900D02*
X115885000Y-98402100D01*
X115885000Y-98402100D02*
X115885000Y-100287500D01*
X115885000Y-100287500D02*
X114509400Y-101663100D01*
X114509400Y-101663100D02*
X112529900Y-101663100D01*
X112529900Y-101663100D02*
X110645000Y-103548000D01*
X110645000Y-103548000D02*
X110645000Y-105570600D01*
X110645000Y-105570600D02*
X109375000Y-106840600D01*
X109375000Y-106840600D02*
X109375000Y-111975000D01*
X149865000Y-34554700D02*
X163993700Y-34554700D01*
X163993700Y-34554700D02*
X165305500Y-35866500D01*
X165305500Y-35866500D02*
X165305500Y-39031200D01*
X165305500Y-39031200D02*
X164312000Y-40024700D01*
X164312000Y-40024700D02*
X162647000Y-40024700D01*
X162647000Y-40024700D02*
X158952600Y-43719100D01*
X158952600Y-43719100D02*
X158952600Y-45824000D01*
X158952600Y-45824000D02*
X159813000Y-46684400D01*
X159813000Y-46684400D02*
X159813000Y-60800000D01*
X159813000Y-60800000D02*
X162607700Y-63594700D01*
X162607700Y-63594700D02*
X162975000Y-63594700D01*
X149865000Y-36080000D02*
X149865000Y-34554700D01*
X162975000Y-64770000D02*
X162975000Y-63594700D01*
X114455000Y-110449700D02*
X118379700Y-106525000D01*
X118379700Y-106525000D02*
X118379700Y-97753500D01*
X118379700Y-97753500D02*
X121316400Y-94816800D01*
X121316400Y-94816800D02*
X121991000Y-94816800D01*
X121991000Y-94816800D02*
X122415800Y-94392000D01*
X122415800Y-94392000D02*
X122415800Y-90639300D01*
X122415800Y-90639300D02*
X120414000Y-88637500D01*
X120414000Y-88637500D02*
X120414000Y-60265100D01*
X120414000Y-60265100D02*
X123123700Y-57555400D01*
X123123700Y-57555400D02*
X124789800Y-57555400D01*
X124789800Y-57555400D02*
X126154100Y-56191100D01*
X126154100Y-56191100D02*
X126154100Y-55914700D01*
X159677900Y-44889300D02*
X160263300Y-45474700D01*
X160263300Y-45474700D02*
X160263300Y-58710300D01*
X160263300Y-58710300D02*
X162607700Y-61054700D01*
X162607700Y-61054700D02*
X162975000Y-61054700D01*
X154945000Y-37605300D02*
X156072300Y-38732600D01*
X156072300Y-38732600D02*
X156072300Y-45572700D01*
X156072300Y-45572700D02*
X154872500Y-46772500D01*
X154945000Y-36080000D02*
X154945000Y-37605300D01*
X162975000Y-62230000D02*
X162975000Y-61054700D01*
X114455000Y-111975000D02*
X114455000Y-110449700D01*
X149865000Y-81167500D02*
X149865000Y-79642200D01*
X149865000Y-79642200D02*
X151047900Y-78459300D01*
X151047900Y-78459300D02*
X151047900Y-68054300D01*
X151047900Y-68054300D02*
X150960800Y-67967200D01*
X130318400Y-74958800D02*
X130318400Y-78486100D01*
X130318400Y-78486100D02*
X126958800Y-81845700D01*
X126958800Y-81845700D02*
X126958800Y-99176400D01*
X126958800Y-99176400D02*
X124418800Y-101716400D01*
X154945000Y-43700000D02*
X154945000Y-45225300D01*
X157996700Y-62944000D02*
X157880900Y-63059800D01*
X157880900Y-63059800D02*
X156063100Y-63059800D01*
X156063100Y-63059800D02*
X153795700Y-60792400D01*
X153795700Y-60792400D02*
X153795700Y-46374600D01*
X153795700Y-46374600D02*
X154945000Y-45225300D01*
X121123600Y-101644700D02*
X125845800Y-96922500D01*
X125845800Y-96922500D02*
X125845800Y-81684900D01*
X125845800Y-81684900D02*
X128402400Y-79128300D01*
X128402400Y-79128300D02*
X128402400Y-74625600D01*
X128402400Y-74625600D02*
X129233500Y-73794500D01*
X129233500Y-73794500D02*
X129233500Y-72796100D01*
X149865000Y-45225300D02*
X146163500Y-48926800D01*
X146163500Y-48926800D02*
X146163500Y-60413600D01*
X146163500Y-60413600D02*
X147445500Y-61695600D01*
X149865000Y-43700000D02*
X149865000Y-45225300D01*
X165515000Y-54610000D02*
X165515000Y-55785300D01*
X165515000Y-55785300D02*
X165147700Y-55785300D01*
X165147700Y-55785300D02*
X164339600Y-56593400D01*
X164339600Y-56593400D02*
X164339600Y-57675600D01*
X164339600Y-57675600D02*
X165084000Y-58420000D01*
X165084000Y-58420000D02*
X165987700Y-58420000D01*
X165987700Y-58420000D02*
X166768400Y-59200700D01*
X166768400Y-59200700D02*
X166768400Y-85529200D01*
X166768400Y-85529200D02*
X165843000Y-86454600D01*
X165843000Y-86454600D02*
X164989400Y-86454600D01*
X164989400Y-86454600D02*
X164150400Y-87293600D01*
X164150400Y-87293600D02*
X164150400Y-90695600D01*
X164150400Y-90695600D02*
X163406000Y-91440000D01*
X163406000Y-91440000D02*
X162518200Y-91440000D01*
X162518200Y-91440000D02*
X157572900Y-96385300D01*
X157572900Y-96385300D02*
X157572900Y-96654300D01*
X162975000Y-54610000D02*
X162975000Y-53434700D01*
X162975000Y-53434700D02*
X162607600Y-53434700D01*
X162607600Y-53434700D02*
X161799700Y-52626800D01*
X161799700Y-52626800D02*
X161799700Y-51283900D01*
X161799700Y-51283900D02*
X161078200Y-50562400D01*
X161078200Y-50562400D02*
X161078200Y-45014900D01*
X161078200Y-45014900D02*
X159897800Y-43834500D01*
X109375000Y-104355000D02*
X109375000Y-101870000D01*
X109375000Y-101870000D02*
X110949600Y-100295400D01*
X110949600Y-100295400D02*
X110949600Y-98615800D01*
X110949600Y-98615800D02*
X111862600Y-97702800D01*
X111862600Y-97702800D02*
X115947400Y-97702800D01*
X115947400Y-97702800D02*
X120841800Y-92808400D01*
X120841800Y-92808400D02*
X120841800Y-91052500D01*
X120841800Y-91052500D02*
X118040600Y-88251300D01*
X118040600Y-88251300D02*
X118040600Y-59058100D01*
X118040600Y-59058100D02*
X120386300Y-56712400D01*
X146925000Y-102829700D02*
X146049700Y-101954400D01*
X146049700Y-101954400D02*
X146049700Y-83748300D01*
X146049700Y-83748300D02*
X146279000Y-83519000D01*
X146279000Y-83519000D02*
X146279000Y-82607300D01*
X146279000Y-82607300D02*
X146028800Y-82357100D01*
X146028800Y-82357100D02*
X146028800Y-62927800D01*
X146028800Y-62927800D02*
X144785000Y-61684000D01*
X144785000Y-61684000D02*
X144785000Y-58729200D01*
X165515000Y-53245300D02*
X165147600Y-53245300D01*
X165147600Y-53245300D02*
X164339700Y-54053200D01*
X164339700Y-54053200D02*
X164339700Y-54945600D01*
X164339700Y-54945600D02*
X163468800Y-55816500D01*
X163468800Y-55816500D02*
X162472400Y-55816500D01*
X162472400Y-55816500D02*
X160988700Y-54332800D01*
X160988700Y-54332800D02*
X160988700Y-51732500D01*
X160988700Y-51732500D02*
X160988600Y-51732500D01*
X165515000Y-52070000D02*
X165515000Y-53245300D01*
X146925000Y-104355000D02*
X146925000Y-102829700D01*
X104295000Y-102829700D02*
X105725000Y-102829700D01*
X105725000Y-102829700D02*
X108148000Y-100406700D01*
X108148000Y-100406700D02*
X108148000Y-98877400D01*
X108148000Y-98877400D02*
X110223200Y-96802200D01*
X110223200Y-96802200D02*
X113568700Y-96802200D01*
X113568700Y-96802200D02*
X115836400Y-94534500D01*
X115836400Y-94534500D02*
X115836400Y-59824400D01*
X115836400Y-59824400D02*
X123040800Y-52620000D01*
X123040800Y-52620000D02*
X124548700Y-52620000D01*
X124548700Y-52620000D02*
X127277300Y-49891400D01*
X127277300Y-49891400D02*
X127277300Y-48977200D01*
X162975000Y-52070000D02*
X162975000Y-50894700D01*
X162975000Y-50894700D02*
X162616700Y-50894700D01*
X162616700Y-50894700D02*
X161574500Y-49852500D01*
X161574500Y-49852500D02*
X161574500Y-43827100D01*
X161574500Y-43827100D02*
X160880500Y-43133100D01*
X104295000Y-104355000D02*
X104295000Y-102829700D01*
X156137600Y-91286900D02*
X156137600Y-78164500D01*
X156137600Y-78164500D02*
X156489200Y-77812900D01*
X149865000Y-60254500D02*
X151091400Y-60254500D01*
X151091400Y-60254500D02*
X156070400Y-65233500D01*
X156070400Y-65233500D02*
X156070400Y-67221700D01*
X156070400Y-67221700D02*
X158531200Y-69682500D01*
X158531200Y-69682500D02*
X158531200Y-70319300D01*
X158531200Y-70319300D02*
X159849200Y-71637300D01*
X159849200Y-71637300D02*
X159849200Y-74452900D01*
X149865000Y-58729200D02*
X149865000Y-60254500D01*
X136765000Y-113500300D02*
X133257200Y-113500300D01*
X133257200Y-113500300D02*
X132646500Y-112889600D01*
X132646500Y-112889600D02*
X132646500Y-109643200D01*
X132646500Y-109643200D02*
X128084500Y-105081200D01*
X128084500Y-105081200D02*
X128084500Y-82230200D01*
X128084500Y-82230200D02*
X133400100Y-76914600D01*
X133400100Y-76914600D02*
X133400100Y-71222300D01*
X133400100Y-71222300D02*
X135789800Y-68832600D01*
X135789800Y-68832600D02*
X135789800Y-63458500D01*
X135789800Y-63458500D02*
X133487700Y-61156400D01*
X133487700Y-61156400D02*
X133487700Y-57326500D01*
X133487700Y-57326500D02*
X138179700Y-52634500D01*
X138179700Y-52634500D02*
X139705000Y-52634500D01*
X136765000Y-111975000D02*
X136765000Y-113500300D01*
X139705000Y-51109200D02*
X139705000Y-52634500D01*
X157085000Y-104355000D02*
X157085000Y-102829700D01*
X157085000Y-102829700D02*
X157085000Y-101946400D01*
X157085000Y-101946400D02*
X162511400Y-96520000D01*
X162511400Y-96520000D02*
X165916600Y-96520000D01*
X165916600Y-96520000D02*
X167218800Y-95217800D01*
X167218800Y-95217800D02*
X167218800Y-49501800D01*
X167218800Y-49501800D02*
X165882300Y-48165300D01*
X165882300Y-48165300D02*
X165515000Y-48165300D01*
X165515000Y-46990000D02*
X165515000Y-48165300D01*
X144785000Y-52634500D02*
X143515000Y-53904500D01*
X143515000Y-53904500D02*
X143515000Y-70450000D01*
X143515000Y-70450000D02*
X140882600Y-73082400D01*
X140882600Y-73082400D02*
X140882600Y-75249700D01*
X140882600Y-75249700D02*
X135755400Y-80376900D01*
X135755400Y-80376900D02*
X135755400Y-84692000D01*
X135755400Y-84692000D02*
X133499600Y-86947800D01*
X133499600Y-86947800D02*
X133499600Y-94792700D01*
X133499600Y-94792700D02*
X135639500Y-96932600D01*
X135639500Y-96932600D02*
X135639500Y-105292800D01*
X135639500Y-105292800D02*
X140796400Y-110449700D01*
X140796400Y-110449700D02*
X141845000Y-110449700D01*
X141845000Y-111975000D02*
X141845000Y-110449700D01*
X144785000Y-51109200D02*
X144785000Y-52634500D01*
X136759000Y-108888200D02*
X132575600Y-104704800D01*
X132575600Y-104704800D02*
X132575600Y-104539300D01*
X132575600Y-104539300D02*
X130435900Y-102399600D01*
X130435900Y-102399600D02*
X130435900Y-89364900D01*
X130435900Y-89364900D02*
X130246500Y-89175500D01*
X130246500Y-89175500D02*
X130246500Y-86328800D01*
X130246500Y-86328800D02*
X133378900Y-83196400D01*
X133378900Y-83196400D02*
X133378900Y-80363700D01*
X133378900Y-80363700D02*
X137356700Y-76385900D01*
X137356700Y-76385900D02*
X137734200Y-76385900D01*
X137734200Y-76385900D02*
X138435000Y-75685100D01*
X138435000Y-75685100D02*
X138435000Y-68974800D01*
X154945000Y-52634500D02*
X156168400Y-53857900D01*
X156168400Y-53857900D02*
X156168400Y-62100600D01*
X156168400Y-62100600D02*
X156365800Y-62298000D01*
X154945000Y-51109200D02*
X154945000Y-52634500D01*
X149865000Y-51109200D02*
X149865000Y-52634500D01*
X149865000Y-52634500D02*
X148589600Y-53909900D01*
X148589600Y-53909900D02*
X148589600Y-99439500D01*
X148589600Y-99439500D02*
X148195000Y-99834100D01*
X148195000Y-99834100D02*
X148195000Y-105541900D01*
X148195000Y-105541900D02*
X146925000Y-106811900D01*
X146925000Y-106811900D02*
X146925000Y-111975000D01*
X71225000Y-53620000D02*
X71225000Y-52494700D01*
X71150000Y-41175000D02*
X70099700Y-42225300D01*
X70099700Y-42225300D02*
X70099700Y-51369400D01*
X70099700Y-51369400D02*
X71225000Y-52494700D01*
X136255000Y-117088000D02*
X136255000Y-115962700D01*
X139305000Y-111975000D02*
X139305000Y-113500300D01*
X139305000Y-113500300D02*
X136842600Y-115962700D01*
X136842600Y-115962700D02*
X136255000Y-115962700D01*
X136255000Y-117088000D02*
X136255000Y-118213300D01*
X136255000Y-118213300D02*
X138125000Y-120083300D01*
X138125000Y-120083300D02*
X138125000Y-121730000D01*
X143205000Y-121730000D02*
X143205000Y-120604700D01*
X141335000Y-117088000D02*
X141335000Y-118734700D01*
X141335000Y-118734700D02*
X143205000Y-120604700D01*
X149465000Y-104355000D02*
X149465000Y-105880300D01*
X148955000Y-117088000D02*
X148955000Y-115962700D01*
X148955000Y-115962700D02*
X148306900Y-115314600D01*
X148306900Y-115314600D02*
X148306900Y-107038400D01*
X148306900Y-107038400D02*
X149465000Y-105880300D01*
X151495000Y-117088000D02*
X150369700Y-117088000D01*
X144385000Y-104355000D02*
X144385000Y-105880300D01*
X144385000Y-105880300D02*
X145655000Y-107150300D01*
X145655000Y-107150300D02*
X145655000Y-114633800D01*
X145655000Y-114633800D02*
X147540400Y-116519200D01*
X147540400Y-116519200D02*
X147540400Y-117304000D01*
X147540400Y-117304000D02*
X148449700Y-118213300D01*
X148449700Y-118213300D02*
X149525800Y-118213300D01*
X149525800Y-118213300D02*
X150369700Y-117369400D01*
X150369700Y-117369400D02*
X150369700Y-117088000D01*
X154035000Y-117088000D02*
X152909700Y-117088000D01*
X139305000Y-104355000D02*
X139305000Y-105880300D01*
X139305000Y-105880300D02*
X143115000Y-109690300D01*
X143115000Y-109690300D02*
X143115000Y-112730700D01*
X143115000Y-112730700D02*
X145145000Y-114760700D01*
X145145000Y-114760700D02*
X145145000Y-117437700D01*
X145145000Y-117437700D02*
X146407500Y-118700200D01*
X146407500Y-118700200D02*
X151578800Y-118700200D01*
X151578800Y-118700200D02*
X152909700Y-117369300D01*
X152909700Y-117369300D02*
X152909700Y-117088000D01*
X101755000Y-111975000D02*
X101755000Y-113500300D01*
X99105000Y-117088000D02*
X99105000Y-115962700D01*
X101755000Y-113500300D02*
X101567400Y-113500300D01*
X101567400Y-113500300D02*
X99105000Y-115962700D01*
X99105000Y-117088000D02*
X99105000Y-118213300D01*
X99105000Y-118213300D02*
X100975000Y-120083300D01*
X100975000Y-120083300D02*
X100975000Y-121730000D01*
X101645000Y-117088000D02*
X101645000Y-118213300D01*
X101645000Y-118213300D02*
X103515000Y-120083300D01*
X103515000Y-120083300D02*
X103515000Y-121730000D01*
X104185000Y-117088000D02*
X104185000Y-118213300D01*
X104185000Y-118213300D02*
X106055000Y-120083300D01*
X106055000Y-120083300D02*
X106055000Y-121730000D01*
X108595000Y-121730000D02*
X108595000Y-120604700D01*
X106725000Y-117088000D02*
X106725000Y-118734700D01*
X106725000Y-118734700D02*
X108595000Y-120604700D01*
X111135000Y-121730000D02*
X111135000Y-120604700D01*
X109265000Y-117088000D02*
X109265000Y-118213300D01*
X109265000Y-118213300D02*
X109265000Y-118734700D01*
X109265000Y-118734700D02*
X111135000Y-120604700D01*
X116995000Y-105880300D02*
X113299000Y-109576300D01*
X113299000Y-109576300D02*
X113299000Y-114420700D01*
X113299000Y-114420700D02*
X115615000Y-116736700D01*
X115615000Y-116736700D02*
X115615000Y-118846400D01*
X115615000Y-118846400D02*
X117380400Y-120611800D01*
X117380400Y-120611800D02*
X117380400Y-122218400D01*
X117380400Y-122218400D02*
X116240700Y-123358100D01*
X116240700Y-123358100D02*
X112763100Y-123358100D01*
X112763100Y-123358100D02*
X111135000Y-121730000D01*
X116995000Y-104355000D02*
X116995000Y-105880300D01*
X111915000Y-104355000D02*
X111915000Y-105880300D01*
X111805000Y-117088000D02*
X111805000Y-115962700D01*
X111805000Y-115962700D02*
X110785600Y-114943300D01*
X110785600Y-114943300D02*
X110785600Y-107009700D01*
X110785600Y-107009700D02*
X111915000Y-105880300D01*
X113675000Y-120604700D02*
X111805000Y-118734700D01*
X111805000Y-118734700D02*
X111805000Y-117088000D01*
X113675000Y-121730000D02*
X113675000Y-120604700D01*
X115089700Y-121730000D02*
X115089700Y-122011300D01*
X115089700Y-122011300D02*
X114234600Y-122866400D01*
X114234600Y-122866400D02*
X113210300Y-122866400D01*
X113210300Y-122866400D02*
X112405000Y-122061100D01*
X112405000Y-122061100D02*
X112405000Y-121237800D01*
X112405000Y-121237800D02*
X110535000Y-119367800D01*
X110535000Y-119367800D02*
X110535000Y-116736700D01*
X110535000Y-116736700D02*
X108196700Y-114398400D01*
X108196700Y-114398400D02*
X108196700Y-107242000D01*
X108196700Y-107242000D02*
X106835000Y-105880300D01*
X106835000Y-104355000D02*
X106835000Y-105880300D01*
X114345000Y-117088000D02*
X114345000Y-118213300D01*
X114345000Y-118213300D02*
X115089700Y-118958000D01*
X115089700Y-118958000D02*
X115089700Y-121730000D01*
X116215000Y-121730000D02*
X115089700Y-121730000D01*
X101755000Y-105880300D02*
X105565000Y-109690300D01*
X105565000Y-109690300D02*
X105565000Y-113144700D01*
X105565000Y-113144700D02*
X107995000Y-115574700D01*
X107995000Y-115574700D02*
X107995000Y-119231500D01*
X107995000Y-119231500D02*
X109865000Y-121101500D01*
X109865000Y-121101500D02*
X109865000Y-122124200D01*
X109865000Y-122124200D02*
X111588000Y-123847200D01*
X111588000Y-123847200D02*
X116637800Y-123847200D01*
X116637800Y-123847200D02*
X118755000Y-121730000D01*
X101755000Y-104355000D02*
X101755000Y-105880300D01*
X116885000Y-117088000D02*
X116885000Y-118213300D01*
X116885000Y-118213300D02*
X118755000Y-120083300D01*
X118755000Y-120083300D02*
X118755000Y-121730000D01*
X113268200Y-84508100D02*
X113268200Y-96076900D01*
X142095000Y-99262500D02*
X142095000Y-98137200D01*
X142095000Y-98137200D02*
X143515000Y-96717200D01*
X143515000Y-96717200D02*
X143515000Y-84876900D01*
X143515000Y-84876900D02*
X145518900Y-82873000D01*
X113268200Y-84508100D02*
X113268200Y-76393200D01*
X113249999Y-74726999D02*
X114025000Y-73951998D01*
X113268200Y-76393200D02*
X113249999Y-76374999D01*
X113249999Y-76374999D02*
X113249999Y-74726999D01*
X114025000Y-73951998D02*
X114025000Y-56325000D01*
X114025000Y-56325000D02*
X114025000Y-56325000D01*
X110000000Y-47320000D02*
X108950000Y-46270000D01*
X110000000Y-47720000D02*
X110000000Y-47320000D01*
X111480000Y-49200000D02*
X110000000Y-47720000D01*
X108950000Y-46270000D02*
X108550000Y-46270000D01*
X121125000Y-49200000D02*
X111480000Y-49200000D01*
X136765000Y-102829700D02*
X137623000Y-102829700D01*
X137623000Y-102829700D02*
X140825000Y-99627700D01*
X140825000Y-99627700D02*
X140825000Y-90898100D01*
X140825000Y-90898100D02*
X141119600Y-90603500D01*
X141119600Y-90603500D02*
X141119600Y-85926500D01*
X141119600Y-85926500D02*
X143417900Y-83628200D01*
X143417900Y-83628200D02*
X143417900Y-80485800D01*
X143417900Y-80485800D02*
X145147600Y-78756100D01*
X136765000Y-104355000D02*
X136765000Y-102829700D01*
X138556800Y-86511500D02*
X141072200Y-83996100D01*
X141072200Y-83996100D02*
X141072200Y-80340900D01*
X141072200Y-80340900D02*
X144181500Y-77231600D01*
X139555000Y-98137200D02*
X138556800Y-97139000D01*
X138556800Y-97139000D02*
X138556800Y-86511500D01*
X138556800Y-86511500D02*
X135707600Y-86511500D01*
X108550000Y-51350000D02*
X110075300Y-51350000D01*
X114980300Y-88345200D02*
X114980300Y-52650700D01*
X114980300Y-52650700D02*
X113122000Y-50792400D01*
X113122000Y-50792400D02*
X110632900Y-50792400D01*
X110632900Y-50792400D02*
X110075300Y-51350000D01*
X139555000Y-99262500D02*
X139555000Y-98137200D01*
X137433000Y-75660600D02*
X132928500Y-80165100D01*
X132928500Y-80165100D02*
X132928500Y-82921900D01*
X132928500Y-82921900D02*
X129794600Y-86055800D01*
X129794600Y-86055800D02*
X129794600Y-89360500D01*
X129794600Y-89360500D02*
X129985600Y-89551500D01*
X129985600Y-89551500D02*
X129985600Y-98215800D01*
X129985600Y-98215800D02*
X129260300Y-98941100D01*
X142245000Y-75283600D02*
X141927200Y-75283600D01*
X141927200Y-75283600D02*
X138524100Y-78686700D01*
X138524100Y-78686700D02*
X138524100Y-82560200D01*
X138524100Y-82560200D02*
X134625000Y-86459300D01*
X134625000Y-86459300D02*
X134625000Y-87262200D01*
X134625000Y-88787500D02*
X134625000Y-87262200D01*
X142245000Y-73758300D02*
X142245000Y-75283600D01*
X114615000Y-90455000D02*
X114100000Y-89940000D01*
X114615000Y-91905000D02*
X114615000Y-90455000D01*
X114100000Y-89940000D02*
X114100000Y-78575000D01*
X92605000Y-81075000D02*
X92450000Y-80920000D01*
X92605000Y-82525000D02*
X92605000Y-81075000D01*
X92450000Y-80920000D02*
X92450000Y-78375000D01*
X92450000Y-78375000D02*
X92450000Y-78375000D01*
X113975000Y-78450000D02*
X113975000Y-75075000D01*
X114100000Y-78575000D02*
X113975000Y-78450000D01*
X109535000Y-99525000D02*
X109535000Y-99367800D01*
X109535000Y-99367800D02*
X111650300Y-97252500D01*
X111650300Y-97252500D02*
X113810500Y-97252500D01*
X113810500Y-97252500D02*
X118310600Y-92752400D01*
X118310600Y-92752400D02*
X118310600Y-89888300D01*
X118310600Y-89888300D02*
X116694200Y-88271900D01*
X116694200Y-88271900D02*
X116694200Y-72861400D01*
X122264700Y-48810000D02*
X118583900Y-45129200D01*
X118583900Y-45129200D02*
X110075300Y-45129200D01*
X110075300Y-41190000D02*
X110075300Y-45129200D01*
X123790000Y-48810000D02*
X122264700Y-48810000D01*
X108550000Y-41190000D02*
X110075300Y-41190000D01*
X110075300Y-76750000D02*
X113134900Y-73690400D01*
X113134900Y-73690400D02*
X113134900Y-51839500D01*
X113134900Y-51839500D02*
X112855800Y-51560400D01*
X108550000Y-76750000D02*
X110075300Y-76750000D01*
X108550000Y-74210000D02*
X110075300Y-74210000D01*
X112409600Y-52979700D02*
X112409600Y-71875700D01*
X112409600Y-71875700D02*
X110075300Y-74210000D01*
X127675300Y-46126400D02*
X127675300Y-46949600D01*
X127675300Y-46949600D02*
X124544900Y-50080000D01*
X124544900Y-50080000D02*
X107811400Y-50080000D01*
X107811400Y-50080000D02*
X107024700Y-50866700D01*
X107024700Y-50866700D02*
X107024700Y-71670000D01*
X108550000Y-71670000D02*
X107024700Y-71670000D01*
X119232100Y-87558400D02*
X118957100Y-87283400D01*
X118957100Y-87283400D02*
X118957100Y-61012600D01*
X118957100Y-61012600D02*
X123539700Y-56430000D01*
X123539700Y-56430000D02*
X123790000Y-56430000D01*
X121479300Y-88588500D02*
X120864400Y-87973600D01*
X120864400Y-87973600D02*
X120864400Y-61895600D01*
X120864400Y-61895600D02*
X123790000Y-58970000D01*
X123461900Y-92524900D02*
X123461900Y-89633900D01*
X123461900Y-89633900D02*
X122204600Y-88376600D01*
X122204600Y-88376600D02*
X122204600Y-88257300D01*
X122204600Y-88257300D02*
X121326400Y-87379100D01*
X121326400Y-87379100D02*
X121326400Y-62448300D01*
X121326400Y-62448300D02*
X122264700Y-61510000D01*
X123790000Y-61510000D02*
X122264700Y-61510000D01*
X125315300Y-64050000D02*
X126669700Y-65404400D01*
X126669700Y-65404400D02*
X126669700Y-73173800D01*
X126669700Y-73173800D02*
X126326100Y-73517400D01*
X126326100Y-73517400D02*
X126326100Y-77186600D01*
X123790000Y-64050000D02*
X125315300Y-64050000D01*
X123203100Y-88319700D02*
X121776700Y-86893300D01*
X121776700Y-86893300D02*
X121776700Y-67078000D01*
X121776700Y-67078000D02*
X122264700Y-66590000D01*
X123790000Y-66590000D02*
X122264700Y-66590000D01*
X119682500Y-73065900D02*
X119957500Y-73340900D01*
X119957500Y-73340900D02*
X119957500Y-88817900D01*
X119957500Y-88817900D02*
X121742500Y-90602900D01*
X121742500Y-90602900D02*
X121742500Y-94039500D01*
X121742500Y-94039500D02*
X121690500Y-94091500D01*
X122264700Y-71670000D02*
X122264700Y-84838800D01*
X122264700Y-84838800D02*
X123065900Y-85640000D01*
X123065900Y-85640000D02*
X124518900Y-85640000D01*
X124518900Y-85640000D02*
X125395100Y-86516200D01*
X125395100Y-86516200D02*
X125395100Y-94114200D01*
X125395100Y-94114200D02*
X125120500Y-94388800D01*
X123790000Y-71670000D02*
X122264700Y-71670000D01*
X123790000Y-76750000D02*
X125315300Y-76750000D01*
X125944400Y-66790400D02*
X125315300Y-67419500D01*
X125315300Y-67419500D02*
X125315300Y-76750000D01*
X123790000Y-79290000D02*
X125320300Y-79290000D01*
X125320300Y-79290000D02*
X127051400Y-77558900D01*
X127051400Y-77558900D02*
X127051400Y-73972900D01*
X127051400Y-73972900D02*
X127164100Y-73860200D01*
X127164100Y-73860200D02*
X127164100Y-62108000D01*
X127164100Y-62108000D02*
X126984300Y-61928200D01*
X128078000Y-60789900D02*
X127727000Y-61140900D01*
X127727000Y-61140900D02*
X127727000Y-73980700D01*
X127727000Y-73980700D02*
X127501700Y-74206000D01*
X127501700Y-74206000D02*
X127501700Y-78118300D01*
X127501700Y-78118300D02*
X123790000Y-81830000D01*
X125315300Y-84370000D02*
X125315300Y-80941600D01*
X125315300Y-80941600D02*
X127952100Y-78304800D01*
X127952100Y-78304800D02*
X127952100Y-74439000D01*
X127952100Y-74439000D02*
X128508100Y-73883000D01*
X128508100Y-73883000D02*
X128508100Y-67858000D01*
X128508100Y-67858000D02*
X128667100Y-67699000D01*
X157485000Y-52634500D02*
X156893700Y-53225800D01*
X156893700Y-53225800D02*
X156893700Y-54736300D01*
X157485000Y-51109200D02*
X157485000Y-52634500D01*
X123790000Y-84370000D02*
X125315300Y-84370000D01*
X72525000Y-114740000D02*
X84872400Y-102392600D01*
X84872400Y-102392600D02*
X84872400Y-97197900D01*
X84872400Y-97197900D02*
X90295000Y-91775300D01*
X90295000Y-90650000D02*
X90295000Y-91775300D01*
X72525000Y-117280000D02*
X79413300Y-117280000D01*
X79413300Y-117280000D02*
X81930400Y-114762900D01*
X81930400Y-114762900D02*
X81930400Y-110945600D01*
X81930400Y-110945600D02*
X88165100Y-104710900D01*
X88165100Y-104710900D02*
X88165100Y-101811600D01*
X88165100Y-101811600D02*
X96797600Y-93179100D01*
X96797600Y-93179100D02*
X96797600Y-91681700D01*
X96797600Y-91681700D02*
X96548200Y-91432300D01*
X96548200Y-91432300D02*
X96548200Y-48446800D01*
X96548200Y-48446800D02*
X102765000Y-42230000D01*
X72525000Y-105760000D02*
X72525000Y-104534700D01*
X72525000Y-104534700D02*
X72984500Y-104534700D01*
X72984500Y-104534700D02*
X80854300Y-96664900D01*
X80854300Y-96664900D02*
X80854300Y-65095700D01*
X80854300Y-65095700D02*
X85575400Y-60374600D01*
X85575400Y-60374600D02*
X85575400Y-49339200D01*
X85575400Y-49339200D02*
X91092100Y-43822500D01*
X91092100Y-43822500D02*
X96092500Y-43822500D01*
X96092500Y-43822500D02*
X97685000Y-42230000D01*
X90395000Y-87050000D02*
X90395000Y-88175300D01*
X72525000Y-120500000D02*
X71290500Y-119265500D01*
X71290500Y-119265500D02*
X71290500Y-114168900D01*
X71290500Y-114168900D02*
X72581700Y-112877700D01*
X72581700Y-112877700D02*
X73458300Y-112877700D01*
X73458300Y-112877700D02*
X83900400Y-102435600D01*
X83900400Y-102435600D02*
X83900400Y-94669900D01*
X83900400Y-94669900D02*
X90395000Y-88175300D01*
X97685000Y-48324700D02*
X98698900Y-48324700D01*
X98698900Y-48324700D02*
X107024700Y-39998900D01*
X107024700Y-39998900D02*
X107024700Y-38650000D01*
X97685000Y-49850000D02*
X97685000Y-48324700D01*
X108550000Y-38650000D02*
X107024700Y-38650000D01*
X106995000Y-91905000D02*
X106995000Y-91505000D01*
X106665685Y-89575000D02*
X107375000Y-89575000D01*
X107696700Y-45129200D02*
X106109000Y-46716900D01*
X110075300Y-45129200D02*
X107696700Y-45129200D01*
X106109000Y-46716900D02*
X106150000Y-85625000D01*
X106150000Y-85625000D02*
X106149999Y-89059314D01*
X106149999Y-89059314D02*
X106665685Y-89575000D01*
X106995000Y-89955000D02*
X107375000Y-89575000D01*
X106995000Y-91905000D02*
X106995000Y-89955000D01*
X112075000Y-91905000D02*
X112075000Y-93430300D01*
X99215000Y-104355000D02*
X99215000Y-102298000D01*
X99215000Y-102298000D02*
X108082700Y-93430300D01*
X108082700Y-93430300D02*
X112075000Y-93430300D01*
X123790000Y-38650000D02*
X122264700Y-38650000D01*
X73950000Y-89060000D02*
X73950000Y-87884700D01*
X73950000Y-87884700D02*
X74317300Y-87884700D01*
X74317300Y-87884700D02*
X75475000Y-86727000D01*
X75475000Y-86727000D02*
X75475000Y-52546200D01*
X75475000Y-52546200D02*
X82892700Y-45128500D01*
X82892700Y-45128500D02*
X84421500Y-45128500D01*
X84421500Y-45128500D02*
X85600200Y-43949800D01*
X85600200Y-43949800D02*
X85600200Y-42098800D01*
X85600200Y-42098800D02*
X89547100Y-38151900D01*
X89547100Y-38151900D02*
X99948600Y-38151900D01*
X99948600Y-38151900D02*
X103600000Y-34500500D01*
X103600000Y-34500500D02*
X118115200Y-34500500D01*
X118115200Y-34500500D02*
X122264700Y-38650000D01*
X84555000Y-131000300D02*
X118700700Y-131000300D01*
X118700700Y-131000300D02*
X127409200Y-122291800D01*
X127409200Y-122291800D02*
X127409200Y-82043600D01*
X127409200Y-82043600D02*
X132674700Y-76778100D01*
X132674700Y-76778100D02*
X132674700Y-74677900D01*
X84555000Y-129475000D02*
X84555000Y-131000300D01*
X99199700Y-106394400D02*
X100485000Y-105109100D01*
X100485000Y-105109100D02*
X100485000Y-103590300D01*
X100485000Y-103590300D02*
X103025000Y-101050300D01*
X103025000Y-101050300D02*
X104455000Y-101050300D01*
X82015000Y-127949700D02*
X83063600Y-127949700D01*
X83063600Y-127949700D02*
X88365000Y-122648300D01*
X88365000Y-122648300D02*
X88365000Y-121104000D01*
X88365000Y-121104000D02*
X95231000Y-114238000D01*
X95231000Y-114238000D02*
X95231000Y-110363100D01*
X95231000Y-110363100D02*
X99199700Y-106394400D01*
X104455000Y-99525000D02*
X104455000Y-101050300D01*
X82015000Y-129475000D02*
X82015000Y-127949700D01*
X98081100Y-105275800D02*
X98081100Y-102795000D01*
X105314700Y-89862702D02*
X105314700Y-73282900D01*
X99199700Y-106394400D02*
X98081100Y-105275800D01*
X105642100Y-90190102D02*
X105314700Y-89862702D01*
X98081100Y-102795000D02*
X105642100Y-95234000D01*
X105642100Y-95234000D02*
X105642100Y-90190102D01*
X79475000Y-127949700D02*
X80600300Y-126824400D01*
X80600300Y-126824400D02*
X80600300Y-120328400D01*
X80600300Y-120328400D02*
X82698500Y-118230200D01*
X82698500Y-118230200D02*
X82698500Y-111373200D01*
X82698500Y-111373200D02*
X89964200Y-104107500D01*
X89964200Y-104107500D02*
X89964200Y-101757100D01*
X89964200Y-101757100D02*
X99013900Y-92707400D01*
X99013900Y-92707400D02*
X99013900Y-80680300D01*
X99013900Y-80680300D02*
X104514100Y-75180100D01*
X104514100Y-75180100D02*
X104514100Y-46240600D01*
X104514100Y-46240600D02*
X107024700Y-43730000D01*
X79475000Y-129475000D02*
X79475000Y-127949700D01*
X108550000Y-43730000D02*
X107024700Y-43730000D01*
M02*
