M48
; DRILL file {KiCad (5.1.5)-3} date 12/13/2021 7:45:02 PM
; FORMAT={-:-/ absolute / inch / decimal}
; #@! TF.CreationDate,2021-12-13T19:45:02-06:00
; #@! TF.GenerationSoftware,Kicad,Pcbnew,(5.1.5)-3
; #@! TF.FileFunction,Plated,1,2,PTH
FMAT,2
INCH
T1C0.0157
T2C0.0236
T3C0.0315
T4C0.0354
T5C0.0390
T6C0.0394
T7C0.0512
%
G90
G05
T1
X3.7824Y-3.6213
X3.8459Y-3.5952
X4.1462Y-2.8852
X4.4256Y-2.0858
X4.4431Y-2.0299
X4.4594Y-3.7826
X4.5268Y-3.4782
X4.5943Y-2.8686
X4.6942Y-3.4472
X4.7119Y-2.8766
X4.7396Y-2.2328
X4.7686Y-4.0018
X4.7826Y-3.4877
X4.791Y-3.7044
X4.8374Y-4.1362
X4.8505Y-3.4772
X4.8607Y-3.6427
X4.8984Y-4.0046
X4.926Y-3.7161
X4.9584Y-2.6295
X4.9667Y-2.2014
X4.9735Y-3.0388
X4.9994Y-2.4381
X5.0109Y-1.9282
X5.0266Y-1.816
X5.0424Y-2.3933
X5.0656Y-2.6653
X5.0713Y-3.5448
X5.0842Y-1.5759
X5.0879Y-2.866
X5.089Y-3.8549
X5.089Y-3.8953
X5.1306Y-2.9511
X5.2234Y-2.9401
X5.3428Y-3.406
X5.3842Y-4.2869
X5.4107Y-2.9788
X5.4502Y-2.7155
X5.4825Y-2.7784
X5.5097Y-3.0837
X5.5316Y-2.8415
X5.5781Y-3.0985
X5.6764Y-3.0406
X5.7145Y-3.1006
X5.7291Y-3.2627
X5.7928Y-3.6105
X5.8049Y-2.429
X5.9433Y-2.6759
X6.0037Y-3.6334
X6.0411Y-2.7054
X6.054Y-3.4149
X6.0973Y-1.8414
X6.1021Y-3.2861
X6.1225Y-3.7097
X6.1471Y-3.594
X6.1561Y-2.4527
X6.161Y-3.0635
X6.1641Y-2.7136
X6.1769Y-2.155
X6.1938Y-3.6788
X6.2037Y-3.8053
X6.2128Y-2.762
X6.2203Y-2.4781
X6.2865Y-1.7673
X6.2885Y-2.6346
X6.2926Y-3.3518
X6.2933Y-2.9312
X6.2952Y-1.7258
X6.3212Y-3.1979
X6.3322Y-3.107
X6.3339Y-1.6982
X6.3381Y-2.0367
X6.3565Y-2.9231
T2
X6.436Y-4.622
X6.436Y-4.7008
X6.4715Y-1.4291
X6.4715Y-1.5079
X3.1112Y-1.9833
X3.1112Y-2.062
T3
X5.3002Y-3.1956
X5.3002Y-3.4956
X5.4002Y-3.1956
X5.4002Y-3.4956
X5.5002Y-3.1956
X5.5002Y-3.4956
X5.6002Y-3.1956
X5.6002Y-3.4956
X5.7002Y-3.1956
X5.7002Y-3.4956
X5.8002Y-3.1956
X5.8002Y-3.4956
X5.9002Y-3.1956
X5.9002Y-3.4956
X6.0002Y-3.1956
X6.0002Y-3.4956
X6.1002Y-3.1956
X6.1002Y-3.4956
X6.2002Y-3.1956
X6.2002Y-3.4956
X5.2844Y-4.1085
X5.2844Y-4.4085
X5.3844Y-4.1085
X5.3844Y-4.4085
X5.4844Y-4.1085
X5.4844Y-4.4085
X5.5844Y-4.1085
X5.5844Y-4.4085
X5.6844Y-4.1085
X5.6844Y-4.4085
X5.7844Y-4.1085
X5.7844Y-4.4085
X5.8844Y-4.1085
X5.8844Y-4.4085
X5.9844Y-4.1085
X5.9844Y-4.4085
X6.0844Y-4.1085
X6.0844Y-4.4085
X6.1844Y-4.1085
X6.1844Y-4.4085
X3.2589Y-3.4272
X3.5589Y-3.4272
X3.4459Y-2.949
X3.4459Y-3.249
X3.5459Y-2.949
X3.5459Y-3.249
X3.6459Y-2.949
X3.6459Y-3.249
X3.7459Y-2.949
X3.7459Y-3.249
X3.8459Y-2.949
X3.8459Y-3.249
X3.9459Y-2.949
X3.9459Y-3.249
X4.0459Y-2.949
X4.0459Y-3.249
X5.3002Y-1.4205
X5.3002Y-1.7205
X5.4002Y-1.4205
X5.4002Y-1.7205
X5.5002Y-1.4205
X5.5002Y-1.7205
X5.6002Y-1.4205
X5.6002Y-1.7205
X5.7002Y-1.4205
X5.7002Y-1.7205
X5.8002Y-1.4205
X5.8002Y-1.7205
X5.9002Y-1.4205
X5.9002Y-1.7205
X6.0002Y-1.4205
X6.0002Y-1.7205
X6.1002Y-1.4205
X6.1002Y-1.7205
X6.2002Y-1.4205
X6.2002Y-1.7205
X3.9754Y-4.7925
X3.9754Y-5.0925
X4.0754Y-4.7925
X4.0754Y-5.0925
X4.1754Y-4.7925
X4.1754Y-5.0925
X4.2754Y-4.7925
X4.2754Y-5.0925
X4.3754Y-4.7925
X4.3754Y-5.0925
X4.4754Y-4.7925
X4.4754Y-5.0925
X4.5754Y-4.7925
X4.5754Y-5.0925
X4.6754Y-4.7925
X4.6754Y-5.0925
X3.6902Y-3.4341
X3.9902Y-3.4341
X5.438Y-4.7925
X5.438Y-5.0925
X5.538Y-4.7925
X5.538Y-5.0925
X5.638Y-4.7925
X5.638Y-5.0925
X5.738Y-4.7925
X5.738Y-5.0925
X5.838Y-4.7925
X5.838Y-5.0925
X5.938Y-4.7925
X5.938Y-5.0925
X6.038Y-4.7925
X6.038Y-5.0925
X6.138Y-4.7925
X6.138Y-5.0925
X4.2736Y-1.5217
X4.2736Y-1.6217
X4.2736Y-1.7217
X4.2736Y-1.8217
X4.2736Y-1.9217
X4.2736Y-2.0217
X4.2736Y-2.1217
X4.2736Y-2.2217
X4.2736Y-2.3217
X4.2736Y-2.4217
X4.2736Y-2.5217
X4.2736Y-2.6217
X4.2736Y-2.7217
X4.2736Y-2.8217
X4.2736Y-2.9217
X4.2736Y-3.0217
X4.2736Y-3.1217
X4.2736Y-3.2217
X4.2736Y-3.3217
X4.2736Y-3.4217
X4.8736Y-1.5217
X4.8736Y-1.6217
X4.8736Y-1.7217
X4.8736Y-1.8217
X4.8736Y-1.9217
X4.8736Y-2.0217
X4.8736Y-2.1217
X4.8736Y-2.2217
X4.8736Y-2.3217
X4.8736Y-2.4217
X4.8736Y-2.5217
X4.8736Y-2.6217
X4.8736Y-2.7217
X4.8736Y-2.8217
X4.8736Y-2.9217
X4.8736Y-3.0217
X4.8736Y-3.1217
X4.8736Y-3.2217
X4.8736Y-3.3217
X4.8736Y-3.4217
X5.2943Y-3.908
X5.3943Y-3.908
X5.4943Y-3.908
X5.5943Y-3.908
X5.6943Y-3.908
X5.7943Y-3.908
X5.8943Y-3.908
X5.9943Y-3.908
X6.0943Y-3.908
X6.1943Y-3.908
X5.3644Y-4.6098
X5.4644Y-4.6098
X5.5644Y-4.6098
X5.6644Y-4.6098
X5.7644Y-4.6098
X5.8644Y-4.6098
X5.9644Y-4.6098
X6.0644Y-4.6098
X6.1644Y-4.6098
X3.2549Y-3.7136
X3.5549Y-3.7136
X3.1813Y-4.6339
X3.4813Y-4.6339
X5.3002Y-2.0122
X5.3002Y-2.3122
X5.4002Y-2.0122
X5.4002Y-2.3122
X5.5002Y-2.0122
X5.5002Y-2.3122
X5.6002Y-2.0122
X5.6002Y-2.3122
X5.7002Y-2.0122
X5.7002Y-2.3122
X5.8002Y-2.0122
X5.8002Y-2.3122
X5.9002Y-2.0122
X5.9002Y-2.3122
X6.0002Y-2.0122
X6.0002Y-2.3122
X6.1002Y-2.0122
X6.1002Y-2.3122
X6.2002Y-2.0122
X6.2002Y-2.3122
X3.9018Y-4.6098
X4.0018Y-4.6098
X4.1018Y-4.6098
X4.2018Y-4.6098
X4.3018Y-4.6098
X4.4018Y-4.6098
X4.5018Y-4.6098
X4.6018Y-4.6098
X4.7018Y-4.6098
X3.2549Y-3.5689
X3.5549Y-3.5689
X3.1289Y-4.7974
X3.1289Y-5.0974
X3.2289Y-4.7974
X3.2289Y-5.0974
X3.3289Y-4.7974
X3.3289Y-5.0974
X3.4289Y-4.7974
X3.4289Y-5.0974
X3.5289Y-4.7974
X3.5289Y-5.0974
X3.6289Y-4.7974
X3.6289Y-5.0974
X3.7289Y-4.7974
X3.7289Y-5.0974
X3.8061Y-4.1085
X3.8061Y-4.4085
X3.9061Y-4.1085
X3.9061Y-4.4085
X4.0061Y-4.1085
X4.0061Y-4.4085
X4.1061Y-4.1085
X4.1061Y-4.4085
X4.2061Y-4.1085
X4.2061Y-4.4085
X4.3061Y-4.1085
X4.3061Y-4.4085
X4.4061Y-4.1085
X4.4061Y-4.4085
X4.5061Y-4.1085
X4.5061Y-4.4085
X4.6061Y-4.1085
X4.6061Y-4.4085
X4.7061Y-4.1085
X4.7061Y-4.4085
X4.1124Y-3.6183
X4.1124Y-3.9183
X4.2124Y-3.6183
X4.2124Y-3.9183
X4.3124Y-3.6183
X4.3124Y-3.9183
X4.4124Y-3.6183
X4.4124Y-3.9183
X4.5124Y-3.6183
X4.5124Y-3.9183
X4.6124Y-3.6183
X4.6124Y-3.9183
X4.7124Y-3.6183
X4.7124Y-3.9183
X3.1813Y-4.499
X3.4813Y-4.499
X3.2453Y-3.8661
X3.5453Y-3.8661
X3.4459Y-1.6626
X3.4459Y-1.9626
X3.5459Y-1.6626
X3.5459Y-1.9626
X3.6459Y-1.6626
X3.6459Y-1.9626
X3.7459Y-1.6626
X3.7459Y-1.9626
X3.8459Y-1.6626
X3.8459Y-1.9626
X3.9459Y-1.6626
X3.9459Y-1.9626
X4.0459Y-1.6626
X4.0459Y-1.9626
X2.8041Y-1.811
X2.8041Y-2.111
X3.4459Y-2.3058
X3.4459Y-2.6058
X3.5459Y-2.3058
X3.5459Y-2.6058
X3.6459Y-2.3058
X3.6459Y-2.6058
X3.7459Y-2.3058
X3.7459Y-2.6058
X3.8459Y-2.3058
X3.8459Y-2.6058
X3.9459Y-2.3058
X3.9459Y-2.6058
X4.0459Y-2.3058
X4.0459Y-2.6058
X5.3002Y-2.6039
X5.3002Y-2.9039
X5.4002Y-2.6039
X5.4002Y-2.9039
X5.5002Y-2.6039
X5.5002Y-2.9039
X5.6002Y-2.6039
X5.6002Y-2.9039
X5.7002Y-2.6039
X5.7002Y-2.9039
X5.8002Y-2.6039
X5.8002Y-2.9039
X5.9002Y-2.6039
X5.9002Y-2.9039
X6.0002Y-2.6039
X6.0002Y-2.9039
X6.1002Y-2.6039
X6.1002Y-2.9039
X6.2002Y-2.6039
X6.2002Y-2.9039
T4
X2.8553Y-4.2906
X2.8553Y-4.3906
X3.4163Y-4.0553
X3.4163Y-4.3553
X2.8553Y-3.837
X2.8553Y-3.937
X2.8553Y-4.9709
X2.8553Y-5.0709
X2.8553Y-4.7441
X2.8553Y-4.8441
X2.8553Y-4.5173
X2.8553Y-4.6173
X2.8553Y-4.0638
X2.8553Y-4.1638
T5
X2.8012Y-1.4439
X2.8012Y-1.6211
T6
X2.9114Y-3.4063
X2.9114Y-3.5063
X2.9114Y-3.6063
X5.1811Y-2.0689
X5.1811Y-2.2657
X3.1535Y-1.4797
X3.1535Y-1.5797
X5.185Y-2.6831
X5.185Y-2.8799
X2.9193Y-2.3148
X2.9193Y-2.4148
X2.9193Y-2.5148
X3.9724Y-3.6565
X3.9724Y-3.8533
X6.4163Y-1.75
X6.4163Y-1.85
X6.4163Y-1.95
X6.4163Y-2.05
X6.4163Y-2.15
X6.4163Y-2.25
X6.4163Y-2.35
X6.4163Y-2.45
X6.4163Y-2.55
X6.4163Y-2.65
X6.4163Y-2.75
X6.4163Y-2.85
X6.4163Y-2.95
X6.4163Y-3.05
X6.4163Y-3.15
X6.4163Y-3.25
X6.4163Y-3.35
X6.4163Y-3.45
X6.4163Y-3.55
X6.4163Y-3.65
X6.4163Y-3.75
X6.4163Y-3.85
X6.4163Y-3.95
X6.4163Y-4.05
X6.4163Y-4.15
X6.5163Y-1.75
X6.5163Y-1.85
X6.5163Y-1.95
X6.5163Y-2.05
X6.5163Y-2.15
X6.5163Y-2.25
X6.5163Y-2.35
X6.5163Y-2.45
X6.5163Y-2.55
X6.5163Y-2.65
X6.5163Y-2.75
X6.5163Y-2.85
X6.5163Y-2.95
X6.5163Y-3.05
X6.5163Y-3.15
X6.5163Y-3.25
X6.5163Y-3.35
X6.5163Y-3.45
X6.5163Y-3.55
X6.5163Y-3.65
X6.5163Y-3.75
X6.5163Y-3.85
X6.5163Y-3.95
X6.5163Y-4.05
X6.5163Y-4.15
X3.3169Y-2.3474
X3.3169Y-2.5443
X5.1496Y-4.1447
X5.1496Y-4.3415
X5.1801Y-3.2441
X5.1801Y-3.4409
X3.9134Y-1.4124
X4.1102Y-1.4124
X2.9236Y-2.7693
X2.9236Y-2.8693
X2.9236Y-2.9693
X2.9236Y-3.0693
X2.9236Y-3.1693
X3.0236Y-2.7693
X3.0236Y-2.8693
X3.0236Y-2.9693
X3.0236Y-3.0693
X3.0236Y-3.1693
X5.1772Y-1.4852
X5.1772Y-1.6821
X3.6841Y-4.1654
X3.6841Y-4.3622
X3.3169Y-3.0
X3.3169Y-3.1969
X3.3169Y-1.7077
X3.3169Y-1.9045
T7
X2.8992Y-1.3943
X2.8992Y-1.6703
T0
M30
