G04 #@! TF.GenerationSoftware,KiCad,Pcbnew,(5.1.5)-3*
G04 #@! TF.CreationDate,2021-12-26T09:20:25-06:00*
G04 #@! TF.ProjectId,Z8065C02,5a383036-3543-4303-922e-6b696361645f,rev?*
G04 #@! TF.SameCoordinates,Original*
G04 #@! TF.FileFunction,Legend,Top*
G04 #@! TF.FilePolarity,Positive*
%FSLAX46Y46*%
G04 Gerber Fmt 4.6, Leading zero omitted, Abs format (unit mm)*
G04 Created by KiCad (PCBNEW (5.1.5)-3) date 2021-12-26 09:20:25*
%MOMM*%
%LPD*%
G04 APERTURE LIST*
%ADD10C,0.150000*%
%ADD11C,0.120000*%
G04 APERTURE END LIST*
D10*
X127652380Y-130171428D02*
X126652380Y-130171428D01*
X127366666Y-129838095D01*
X126652380Y-129504761D01*
X127652380Y-129504761D01*
X127128571Y-128695238D02*
X127176190Y-128552380D01*
X127223809Y-128504761D01*
X127319047Y-128457142D01*
X127461904Y-128457142D01*
X127557142Y-128504761D01*
X127604761Y-128552380D01*
X127652380Y-128647619D01*
X127652380Y-129028571D01*
X126652380Y-129028571D01*
X126652380Y-128695238D01*
X126700000Y-128600000D01*
X126747619Y-128552380D01*
X126842857Y-128504761D01*
X126938095Y-128504761D01*
X127033333Y-128552380D01*
X127080952Y-128600000D01*
X127128571Y-128695238D01*
X127128571Y-129028571D01*
X127557142Y-127457142D02*
X127604761Y-127504761D01*
X127652380Y-127647619D01*
X127652380Y-127742857D01*
X127604761Y-127885714D01*
X127509523Y-127980952D01*
X127414285Y-128028571D01*
X127223809Y-128076190D01*
X127080952Y-128076190D01*
X126890476Y-128028571D01*
X126795238Y-127980952D01*
X126700000Y-127885714D01*
X126652380Y-127742857D01*
X126652380Y-127647619D01*
X126700000Y-127504761D01*
X126747619Y-127457142D01*
X126652380Y-125838095D02*
X126652380Y-126028571D01*
X126700000Y-126123809D01*
X126747619Y-126171428D01*
X126890476Y-126266666D01*
X127080952Y-126314285D01*
X127461904Y-126314285D01*
X127557142Y-126266666D01*
X127604761Y-126219047D01*
X127652380Y-126123809D01*
X127652380Y-125933333D01*
X127604761Y-125838095D01*
X127557142Y-125790476D01*
X127461904Y-125742857D01*
X127223809Y-125742857D01*
X127128571Y-125790476D01*
X127080952Y-125838095D01*
X127033333Y-125933333D01*
X127033333Y-126123809D01*
X127080952Y-126219047D01*
X127128571Y-126266666D01*
X127223809Y-126314285D01*
X126652380Y-124838095D02*
X126652380Y-125314285D01*
X127128571Y-125361904D01*
X127080952Y-125314285D01*
X127033333Y-125219047D01*
X127033333Y-124980952D01*
X127080952Y-124885714D01*
X127128571Y-124838095D01*
X127223809Y-124790476D01*
X127461904Y-124790476D01*
X127557142Y-124838095D01*
X127604761Y-124885714D01*
X127652380Y-124980952D01*
X127652380Y-125219047D01*
X127604761Y-125314285D01*
X127557142Y-125361904D01*
X126652380Y-124171428D02*
X126652380Y-124076190D01*
X126700000Y-123980952D01*
X126747619Y-123933333D01*
X126842857Y-123885714D01*
X127033333Y-123838095D01*
X127271428Y-123838095D01*
X127461904Y-123885714D01*
X127557142Y-123933333D01*
X127604761Y-123980952D01*
X127652380Y-124076190D01*
X127652380Y-124171428D01*
X127604761Y-124266666D01*
X127557142Y-124314285D01*
X127461904Y-124361904D01*
X127271428Y-124409523D01*
X127033333Y-124409523D01*
X126842857Y-124361904D01*
X126747619Y-124314285D01*
X126700000Y-124266666D01*
X126652380Y-124171428D01*
X126747619Y-123457142D02*
X126700000Y-123409523D01*
X126652380Y-123314285D01*
X126652380Y-123076190D01*
X126700000Y-122980952D01*
X126747619Y-122933333D01*
X126842857Y-122885714D01*
X126938095Y-122885714D01*
X127080952Y-122933333D01*
X127652380Y-123504761D01*
X127652380Y-122885714D01*
X127557142Y-121123809D02*
X127604761Y-121171428D01*
X127652380Y-121314285D01*
X127652380Y-121409523D01*
X127604761Y-121552380D01*
X127509523Y-121647619D01*
X127414285Y-121695238D01*
X127223809Y-121742857D01*
X127080952Y-121742857D01*
X126890476Y-121695238D01*
X126795238Y-121647619D01*
X126700000Y-121552380D01*
X126652380Y-121409523D01*
X126652380Y-121314285D01*
X126700000Y-121171428D01*
X126747619Y-121123809D01*
X127652380Y-120695238D02*
X126652380Y-120695238D01*
X126652380Y-120314285D01*
X126700000Y-120219047D01*
X126747619Y-120171428D01*
X126842857Y-120123809D01*
X126985714Y-120123809D01*
X127080952Y-120171428D01*
X127128571Y-120219047D01*
X127176190Y-120314285D01*
X127176190Y-120695238D01*
X126652380Y-119695238D02*
X127461904Y-119695238D01*
X127557142Y-119647619D01*
X127604761Y-119600000D01*
X127652380Y-119504761D01*
X127652380Y-119314285D01*
X127604761Y-119219047D01*
X127557142Y-119171428D01*
X127461904Y-119123809D01*
X126652380Y-119123809D01*
X127128571Y-117552380D02*
X127176190Y-117409523D01*
X127223809Y-117361904D01*
X127319047Y-117314285D01*
X127461904Y-117314285D01*
X127557142Y-117361904D01*
X127604761Y-117409523D01*
X127652380Y-117504761D01*
X127652380Y-117885714D01*
X126652380Y-117885714D01*
X126652380Y-117552380D01*
X126700000Y-117457142D01*
X126747619Y-117409523D01*
X126842857Y-117361904D01*
X126938095Y-117361904D01*
X127033333Y-117409523D01*
X127080952Y-117457142D01*
X127128571Y-117552380D01*
X127128571Y-117885714D01*
X127652380Y-116742857D02*
X127604761Y-116838095D01*
X127557142Y-116885714D01*
X127461904Y-116933333D01*
X127176190Y-116933333D01*
X127080952Y-116885714D01*
X127033333Y-116838095D01*
X126985714Y-116742857D01*
X126985714Y-116600000D01*
X127033333Y-116504761D01*
X127080952Y-116457142D01*
X127176190Y-116409523D01*
X127461904Y-116409523D01*
X127557142Y-116457142D01*
X127604761Y-116504761D01*
X127652380Y-116600000D01*
X127652380Y-116742857D01*
X127652380Y-115552380D02*
X127128571Y-115552380D01*
X127033333Y-115600000D01*
X126985714Y-115695238D01*
X126985714Y-115885714D01*
X127033333Y-115980952D01*
X127604761Y-115552380D02*
X127652380Y-115647619D01*
X127652380Y-115885714D01*
X127604761Y-115980952D01*
X127509523Y-116028571D01*
X127414285Y-116028571D01*
X127319047Y-115980952D01*
X127271428Y-115885714D01*
X127271428Y-115647619D01*
X127223809Y-115552380D01*
X127652380Y-115076190D02*
X126985714Y-115076190D01*
X127176190Y-115076190D02*
X127080952Y-115028571D01*
X127033333Y-114980952D01*
X126985714Y-114885714D01*
X126985714Y-114790476D01*
X127652380Y-114028571D02*
X126652380Y-114028571D01*
X127604761Y-114028571D02*
X127652380Y-114123809D01*
X127652380Y-114314285D01*
X127604761Y-114409523D01*
X127557142Y-114457142D01*
X127461904Y-114504761D01*
X127176190Y-114504761D01*
X127080952Y-114457142D01*
X127033333Y-114409523D01*
X126985714Y-114314285D01*
X126985714Y-114123809D01*
X127033333Y-114028571D01*
X129302380Y-128195238D02*
X129302380Y-128766666D01*
X129302380Y-128480952D02*
X128302380Y-128480952D01*
X128445238Y-128576190D01*
X128540476Y-128671428D01*
X128588095Y-128766666D01*
X128397619Y-127814285D02*
X128350000Y-127766666D01*
X128302380Y-127671428D01*
X128302380Y-127433333D01*
X128350000Y-127338095D01*
X128397619Y-127290476D01*
X128492857Y-127242857D01*
X128588095Y-127242857D01*
X128730952Y-127290476D01*
X129302380Y-127861904D01*
X129302380Y-127242857D01*
X128254761Y-126100000D02*
X129540476Y-126957142D01*
X128397619Y-125814285D02*
X128350000Y-125766666D01*
X128302380Y-125671428D01*
X128302380Y-125433333D01*
X128350000Y-125338095D01*
X128397619Y-125290476D01*
X128492857Y-125242857D01*
X128588095Y-125242857D01*
X128730952Y-125290476D01*
X129302380Y-125861904D01*
X129302380Y-125242857D01*
X128302380Y-124338095D02*
X128302380Y-124814285D01*
X128778571Y-124861904D01*
X128730952Y-124814285D01*
X128683333Y-124719047D01*
X128683333Y-124480952D01*
X128730952Y-124385714D01*
X128778571Y-124338095D01*
X128873809Y-124290476D01*
X129111904Y-124290476D01*
X129207142Y-124338095D01*
X129254761Y-124385714D01*
X129302380Y-124480952D01*
X129302380Y-124719047D01*
X129254761Y-124814285D01*
X129207142Y-124861904D01*
X128254761Y-123147619D02*
X129540476Y-124004761D01*
X128397619Y-122861904D02*
X128350000Y-122814285D01*
X128302380Y-122719047D01*
X128302380Y-122480952D01*
X128350000Y-122385714D01*
X128397619Y-122338095D01*
X128492857Y-122290476D01*
X128588095Y-122290476D01*
X128730952Y-122338095D01*
X129302380Y-122909523D01*
X129302380Y-122290476D01*
X128302380Y-121671428D02*
X128302380Y-121576190D01*
X128350000Y-121480952D01*
X128397619Y-121433333D01*
X128492857Y-121385714D01*
X128683333Y-121338095D01*
X128921428Y-121338095D01*
X129111904Y-121385714D01*
X129207142Y-121433333D01*
X129254761Y-121480952D01*
X129302380Y-121576190D01*
X129302380Y-121671428D01*
X129254761Y-121766666D01*
X129207142Y-121814285D01*
X129111904Y-121861904D01*
X128921428Y-121909523D01*
X128683333Y-121909523D01*
X128492857Y-121861904D01*
X128397619Y-121814285D01*
X128350000Y-121766666D01*
X128302380Y-121671428D01*
X128397619Y-120957142D02*
X128350000Y-120909523D01*
X128302380Y-120814285D01*
X128302380Y-120576190D01*
X128350000Y-120480952D01*
X128397619Y-120433333D01*
X128492857Y-120385714D01*
X128588095Y-120385714D01*
X128730952Y-120433333D01*
X129302380Y-121004761D01*
X129302380Y-120385714D01*
X129302380Y-119433333D02*
X129302380Y-120004761D01*
X129302380Y-119719047D02*
X128302380Y-119719047D01*
X128445238Y-119814285D01*
X128540476Y-119909523D01*
X128588095Y-120004761D01*
X128302380Y-118385714D02*
X129302380Y-118052380D01*
X128302380Y-117719047D01*
X129302380Y-116861904D02*
X129302380Y-117433333D01*
X129302380Y-117147619D02*
X128302380Y-117147619D01*
X128445238Y-117242857D01*
X128540476Y-117338095D01*
X128588095Y-117433333D01*
X129207142Y-116433333D02*
X129254761Y-116385714D01*
X129302380Y-116433333D01*
X129254761Y-116480952D01*
X129207142Y-116433333D01*
X129302380Y-116433333D01*
X128302380Y-115766666D02*
X128302380Y-115671428D01*
X128350000Y-115576190D01*
X128397619Y-115528571D01*
X128492857Y-115480952D01*
X128683333Y-115433333D01*
X128921428Y-115433333D01*
X129111904Y-115480952D01*
X129207142Y-115528571D01*
X129254761Y-115576190D01*
X129302380Y-115671428D01*
X129302380Y-115766666D01*
X129254761Y-115861904D01*
X129207142Y-115909523D01*
X129111904Y-115957142D01*
X128921428Y-116004761D01*
X128683333Y-116004761D01*
X128492857Y-115957142D01*
X128397619Y-115909523D01*
X128350000Y-115861904D01*
X128302380Y-115766666D01*
X130952380Y-126147619D02*
X129952380Y-126147619D01*
X129952380Y-125909523D01*
X130000000Y-125766666D01*
X130095238Y-125671428D01*
X130190476Y-125623809D01*
X130380952Y-125576190D01*
X130523809Y-125576190D01*
X130714285Y-125623809D01*
X130809523Y-125671428D01*
X130904761Y-125766666D01*
X130952380Y-125909523D01*
X130952380Y-126147619D01*
X130952380Y-124719047D02*
X130428571Y-124719047D01*
X130333333Y-124766666D01*
X130285714Y-124861904D01*
X130285714Y-125052380D01*
X130333333Y-125147619D01*
X130904761Y-124719047D02*
X130952380Y-124814285D01*
X130952380Y-125052380D01*
X130904761Y-125147619D01*
X130809523Y-125195238D01*
X130714285Y-125195238D01*
X130619047Y-125147619D01*
X130571428Y-125052380D01*
X130571428Y-124814285D01*
X130523809Y-124719047D01*
X130285714Y-124242857D02*
X130952380Y-124242857D01*
X130380952Y-124242857D02*
X130333333Y-124195238D01*
X130285714Y-124100000D01*
X130285714Y-123957142D01*
X130333333Y-123861904D01*
X130428571Y-123814285D01*
X130952380Y-123814285D01*
X129952380Y-122671428D02*
X130952380Y-122433333D01*
X130238095Y-122242857D01*
X130952380Y-122052380D01*
X129952380Y-121814285D01*
X130904761Y-121052380D02*
X130952380Y-121147619D01*
X130952380Y-121338095D01*
X130904761Y-121433333D01*
X130809523Y-121480952D01*
X130428571Y-121480952D01*
X130333333Y-121433333D01*
X130285714Y-121338095D01*
X130285714Y-121147619D01*
X130333333Y-121052380D01*
X130428571Y-121004761D01*
X130523809Y-121004761D01*
X130619047Y-121480952D01*
X130952380Y-120576190D02*
X130285714Y-120576190D01*
X130476190Y-120576190D02*
X130380952Y-120528571D01*
X130333333Y-120480952D01*
X130285714Y-120385714D01*
X130285714Y-120290476D01*
X130285714Y-119957142D02*
X130952380Y-119957142D01*
X130380952Y-119957142D02*
X130333333Y-119909523D01*
X130285714Y-119814285D01*
X130285714Y-119671428D01*
X130333333Y-119576190D01*
X130428571Y-119528571D01*
X130952380Y-119528571D01*
X130904761Y-118671428D02*
X130952380Y-118766666D01*
X130952380Y-118957142D01*
X130904761Y-119052380D01*
X130809523Y-119100000D01*
X130428571Y-119100000D01*
X130333333Y-119052380D01*
X130285714Y-118957142D01*
X130285714Y-118766666D01*
X130333333Y-118671428D01*
X130428571Y-118623809D01*
X130523809Y-118623809D01*
X130619047Y-119100000D01*
X130952380Y-118195238D02*
X130285714Y-118195238D01*
X130476190Y-118195238D02*
X130380952Y-118147619D01*
X130333333Y-118100000D01*
X130285714Y-118004761D01*
X130285714Y-117909523D01*
D11*
X77185000Y-108165000D02*
X77185000Y-118665000D01*
X95205000Y-108165000D02*
X77185000Y-108165000D01*
X95205000Y-118665000D02*
X95205000Y-108165000D01*
X77185000Y-118665000D02*
X95205000Y-118665000D01*
X77245000Y-111165000D02*
X77245000Y-112415000D01*
X95145000Y-111165000D02*
X77245000Y-111165000D01*
X95145000Y-115665000D02*
X95145000Y-111165000D01*
X77245000Y-115665000D02*
X95145000Y-115665000D01*
X77245000Y-114415000D02*
X77245000Y-115665000D01*
X77245000Y-112415000D02*
G75*
G02X77245000Y-114415000I0J-1000000D01*
G01*
X94670000Y-104405000D02*
X94670000Y-107145000D01*
X86930000Y-104405000D02*
X86930000Y-107145000D01*
X86930000Y-107145000D02*
X94670000Y-107145000D01*
X86930000Y-104405000D02*
X94670000Y-104405000D01*
X85570000Y-104530000D02*
X85570000Y-107270000D01*
X77830000Y-104530000D02*
X77830000Y-107270000D01*
X77830000Y-107270000D02*
X85570000Y-107270000D01*
X77830000Y-104530000D02*
X85570000Y-104530000D01*
X78085000Y-120415000D02*
X78085000Y-130915000D01*
X96105000Y-120415000D02*
X78085000Y-120415000D01*
X96105000Y-130915000D02*
X96105000Y-120415000D01*
X78085000Y-130915000D02*
X96105000Y-130915000D01*
X78145000Y-123415000D02*
X78145000Y-124665000D01*
X96045000Y-123415000D02*
X78145000Y-123415000D01*
X96045000Y-127915000D02*
X96045000Y-123415000D01*
X78145000Y-127915000D02*
X96045000Y-127915000D01*
X78145000Y-126665000D02*
X78145000Y-127915000D01*
X78145000Y-124665000D02*
G75*
G02X78145000Y-126665000I0J-1000000D01*
G01*
X75220000Y-92870000D02*
X73950000Y-92870000D01*
X75220000Y-91600000D02*
X75220000Y-92870000D01*
X72907071Y-86140000D02*
X72510000Y-86140000D01*
X72907071Y-86900000D02*
X72510000Y-86900000D01*
X63850000Y-86140000D02*
X69850000Y-86140000D01*
X63850000Y-86900000D02*
X63850000Y-86140000D01*
X69850000Y-86900000D02*
X63850000Y-86900000D01*
X72510000Y-87790000D02*
X69850000Y-87790000D01*
X72907071Y-88680000D02*
X72510000Y-88680000D01*
X72907071Y-89440000D02*
X72510000Y-89440000D01*
X63850000Y-88680000D02*
X69850000Y-88680000D01*
X63850000Y-89440000D02*
X63850000Y-88680000D01*
X69850000Y-89440000D02*
X63850000Y-89440000D01*
X72510000Y-90330000D02*
X69850000Y-90330000D01*
X72840000Y-91220000D02*
X72510000Y-91220000D01*
X72840000Y-91980000D02*
X72510000Y-91980000D01*
X69850000Y-91320000D02*
X63850000Y-91320000D01*
X69850000Y-91440000D02*
X63850000Y-91440000D01*
X69850000Y-91560000D02*
X63850000Y-91560000D01*
X69850000Y-91680000D02*
X63850000Y-91680000D01*
X69850000Y-91800000D02*
X63850000Y-91800000D01*
X69850000Y-91920000D02*
X63850000Y-91920000D01*
X63850000Y-91220000D02*
X69850000Y-91220000D01*
X63850000Y-91980000D02*
X63850000Y-91220000D01*
X69850000Y-91980000D02*
X63850000Y-91980000D01*
X69850000Y-92930000D02*
X72510000Y-92930000D01*
X69850000Y-85190000D02*
X69850000Y-92930000D01*
X72510000Y-85190000D02*
X69850000Y-85190000D01*
X72510000Y-92930000D02*
X72510000Y-85190000D01*
X98030000Y-37245000D02*
X98030000Y-34505000D01*
X105770000Y-37245000D02*
X105770000Y-34505000D01*
X105770000Y-34505000D02*
X98030000Y-34505000D01*
X105770000Y-37245000D02*
X98030000Y-37245000D01*
X94270000Y-85855000D02*
X94270000Y-86185000D01*
X100810000Y-85855000D02*
X94270000Y-85855000D01*
X100810000Y-86185000D02*
X100810000Y-85855000D01*
X94270000Y-88595000D02*
X94270000Y-88265000D01*
X100810000Y-88595000D02*
X94270000Y-88595000D01*
X100810000Y-88265000D02*
X100810000Y-88595000D01*
X73605000Y-100290000D02*
X73761000Y-100290000D01*
X71289000Y-100290000D02*
X71445000Y-100290000D01*
X73604837Y-97688870D02*
G75*
G02X73605000Y-99770961I-1079837J-1041130D01*
G01*
X71445163Y-97688870D02*
G75*
G03X71445000Y-99770961I1079837J-1041130D01*
G01*
X73603608Y-97057665D02*
G75*
G02X73760516Y-100290000I-1078608J-1672335D01*
G01*
X71446392Y-97057665D02*
G75*
G03X71289484Y-100290000I1078608J-1672335D01*
G01*
X89320000Y-88420000D02*
X89320000Y-88090000D01*
X82780000Y-88420000D02*
X89320000Y-88420000D01*
X82780000Y-88090000D02*
X82780000Y-88420000D01*
X89320000Y-85680000D02*
X89320000Y-86010000D01*
X82780000Y-85680000D02*
X89320000Y-85680000D01*
X82780000Y-86010000D02*
X82780000Y-85680000D01*
X82780000Y-96480000D02*
X82780000Y-96810000D01*
X89320000Y-96480000D02*
X82780000Y-96480000D01*
X89320000Y-96810000D02*
X89320000Y-96480000D01*
X82780000Y-99220000D02*
X82780000Y-98890000D01*
X89320000Y-99220000D02*
X82780000Y-99220000D01*
X89320000Y-98890000D02*
X89320000Y-99220000D01*
X89320000Y-92020000D02*
X89320000Y-91690000D01*
X82780000Y-92020000D02*
X89320000Y-92020000D01*
X82780000Y-91690000D02*
X82780000Y-92020000D01*
X89320000Y-89280000D02*
X89320000Y-89610000D01*
X82780000Y-89280000D02*
X89320000Y-89280000D01*
X82780000Y-89610000D02*
X82780000Y-89280000D01*
X89320000Y-95620000D02*
X89320000Y-95290000D01*
X82780000Y-95620000D02*
X89320000Y-95620000D01*
X82780000Y-95290000D02*
X82780000Y-95620000D01*
X89320000Y-92880000D02*
X89320000Y-93210000D01*
X82780000Y-92880000D02*
X89320000Y-92880000D01*
X82780000Y-93210000D02*
X82780000Y-92880000D01*
X73605000Y-123330000D02*
X73761000Y-123330000D01*
X71289000Y-123330000D02*
X71445000Y-123330000D01*
X73604837Y-120728870D02*
G75*
G02X73605000Y-122810961I-1079837J-1041130D01*
G01*
X71445163Y-120728870D02*
G75*
G03X71445000Y-122810961I1079837J-1041130D01*
G01*
X73603608Y-120097665D02*
G75*
G02X73760516Y-123330000I-1078608J-1672335D01*
G01*
X71446392Y-120097665D02*
G75*
G03X71289484Y-123330000I1078608J-1672335D01*
G01*
X73605000Y-106050000D02*
X73761000Y-106050000D01*
X71289000Y-106050000D02*
X71445000Y-106050000D01*
X73604837Y-103448870D02*
G75*
G02X73605000Y-105530961I-1079837J-1041130D01*
G01*
X71445163Y-103448870D02*
G75*
G03X71445000Y-105530961I1079837J-1041130D01*
G01*
X73603608Y-102817665D02*
G75*
G02X73760516Y-106050000I-1078608J-1672335D01*
G01*
X71446392Y-102817665D02*
G75*
G03X71289484Y-106050000I1078608J-1672335D01*
G01*
X73605000Y-117570000D02*
X73761000Y-117570000D01*
X71289000Y-117570000D02*
X71445000Y-117570000D01*
X73604837Y-114968870D02*
G75*
G02X73605000Y-117050961I-1079837J-1041130D01*
G01*
X71445163Y-114968870D02*
G75*
G03X71445000Y-117050961I1079837J-1041130D01*
G01*
X73603608Y-114337665D02*
G75*
G02X73760516Y-117570000I-1078608J-1672335D01*
G01*
X71446392Y-114337665D02*
G75*
G03X71289484Y-117570000I1078608J-1672335D01*
G01*
X73605000Y-111810000D02*
X73761000Y-111810000D01*
X71289000Y-111810000D02*
X71445000Y-111810000D01*
X73604837Y-109208870D02*
G75*
G02X73605000Y-111290961I-1079837J-1041130D01*
G01*
X71445163Y-109208870D02*
G75*
G03X71445000Y-111290961I1079837J-1041130D01*
G01*
X73603608Y-108577665D02*
G75*
G02X73760516Y-111810000I-1078608J-1672335D01*
G01*
X71446392Y-108577665D02*
G75*
G03X71289484Y-111810000I1078608J-1672335D01*
G01*
X98755000Y-97630000D02*
X101695000Y-97630000D01*
X98755000Y-97390000D02*
X101695000Y-97390000D01*
X98755000Y-97510000D02*
X101695000Y-97510000D01*
X101695000Y-92970000D02*
X101365000Y-92970000D01*
X101695000Y-98410000D02*
X101695000Y-92970000D01*
X101365000Y-98410000D02*
X101695000Y-98410000D01*
X98755000Y-92970000D02*
X99085000Y-92970000D01*
X98755000Y-98410000D02*
X98755000Y-92970000D01*
X99085000Y-98410000D02*
X98755000Y-98410000D01*
X96105000Y-102355000D02*
X98845000Y-102355000D01*
X96105000Y-110095000D02*
X98845000Y-110095000D01*
X98845000Y-110095000D02*
X98845000Y-102355000D01*
X96105000Y-110095000D02*
X96105000Y-102355000D01*
X82880000Y-58255000D02*
X85620000Y-58255000D01*
X82880000Y-65995000D02*
X85620000Y-65995000D01*
X85620000Y-65995000D02*
X85620000Y-58255000D01*
X82880000Y-65995000D02*
X82880000Y-58255000D01*
X82880000Y-74830000D02*
X85620000Y-74830000D01*
X82880000Y-82570000D02*
X85620000Y-82570000D01*
X85620000Y-82570000D02*
X85620000Y-74830000D01*
X82880000Y-82570000D02*
X82880000Y-74830000D01*
X103705000Y-90055000D02*
X106445000Y-90055000D01*
X103705000Y-97795000D02*
X106445000Y-97795000D01*
X106445000Y-97795000D02*
X106445000Y-90055000D01*
X103705000Y-97795000D02*
X103705000Y-90055000D01*
X130330000Y-66780000D02*
X133070000Y-66780000D01*
X130330000Y-74520000D02*
X133070000Y-74520000D01*
X133070000Y-74520000D02*
X133070000Y-66780000D01*
X130330000Y-74520000D02*
X130330000Y-66780000D01*
X130230000Y-51180000D02*
X132970000Y-51180000D01*
X130230000Y-58920000D02*
X132970000Y-58920000D01*
X132970000Y-58920000D02*
X132970000Y-51180000D01*
X130230000Y-58920000D02*
X130230000Y-51180000D01*
X82880000Y-42005000D02*
X85620000Y-42005000D01*
X82880000Y-49745000D02*
X85620000Y-49745000D01*
X85620000Y-49745000D02*
X85620000Y-42005000D01*
X82880000Y-49745000D02*
X82880000Y-42005000D01*
X130130000Y-36355000D02*
X132870000Y-36355000D01*
X130130000Y-44095000D02*
X132870000Y-44095000D01*
X132870000Y-44095000D02*
X132870000Y-36355000D01*
X130130000Y-44095000D02*
X130130000Y-36355000D01*
X129430000Y-103905000D02*
X132170000Y-103905000D01*
X129430000Y-111645000D02*
X132170000Y-111645000D01*
X132170000Y-111645000D02*
X132170000Y-103905000D01*
X129430000Y-111645000D02*
X129430000Y-103905000D01*
X130205000Y-81030000D02*
X132945000Y-81030000D01*
X130205000Y-88770000D02*
X132945000Y-88770000D01*
X132945000Y-88770000D02*
X132945000Y-81030000D01*
X130205000Y-88770000D02*
X130205000Y-81030000D01*
X120220000Y-126193333D02*
X121490000Y-126193333D01*
X121420000Y-127400000D02*
X121420000Y-126193333D01*
X121300000Y-127400000D02*
X121300000Y-126193333D01*
X121180000Y-127400000D02*
X121180000Y-126193333D01*
X121060000Y-127400000D02*
X121060000Y-126193333D01*
X120940000Y-127400000D02*
X120940000Y-126193333D01*
X120820000Y-127400000D02*
X120820000Y-126193333D01*
X120700000Y-127400000D02*
X120700000Y-126193333D01*
X120580000Y-127400000D02*
X120580000Y-126193333D01*
X120460000Y-127400000D02*
X120460000Y-126193333D01*
X120340000Y-127400000D02*
X120340000Y-126193333D01*
X120220000Y-123780000D02*
X120220000Y-127400000D01*
X121490000Y-123780000D02*
X120220000Y-123780000D01*
X121490000Y-127400000D02*
X121490000Y-123780000D01*
X120220000Y-127400000D02*
X121490000Y-127400000D01*
X117680000Y-126193333D02*
X118950000Y-126193333D01*
X118880000Y-127400000D02*
X118880000Y-126193333D01*
X118760000Y-127400000D02*
X118760000Y-126193333D01*
X118640000Y-127400000D02*
X118640000Y-126193333D01*
X118520000Y-127400000D02*
X118520000Y-126193333D01*
X118400000Y-127400000D02*
X118400000Y-126193333D01*
X118280000Y-127400000D02*
X118280000Y-126193333D01*
X118160000Y-127400000D02*
X118160000Y-126193333D01*
X118040000Y-127400000D02*
X118040000Y-126193333D01*
X117920000Y-127400000D02*
X117920000Y-126193333D01*
X117800000Y-127400000D02*
X117800000Y-126193333D01*
X117680000Y-123780000D02*
X117680000Y-127400000D01*
X118950000Y-123780000D02*
X117680000Y-123780000D01*
X118950000Y-127400000D02*
X118950000Y-123780000D01*
X117680000Y-127400000D02*
X118950000Y-127400000D01*
X115140000Y-126193333D02*
X116410000Y-126193333D01*
X116340000Y-127400000D02*
X116340000Y-126193333D01*
X116220000Y-127400000D02*
X116220000Y-126193333D01*
X116100000Y-127400000D02*
X116100000Y-126193333D01*
X115980000Y-127400000D02*
X115980000Y-126193333D01*
X115860000Y-127400000D02*
X115860000Y-126193333D01*
X115740000Y-127400000D02*
X115740000Y-126193333D01*
X115620000Y-127400000D02*
X115620000Y-126193333D01*
X115500000Y-127400000D02*
X115500000Y-126193333D01*
X115380000Y-127400000D02*
X115380000Y-126193333D01*
X115260000Y-127400000D02*
X115260000Y-126193333D01*
X115140000Y-123780000D02*
X115140000Y-127400000D01*
X116410000Y-123780000D02*
X115140000Y-123780000D01*
X116410000Y-127400000D02*
X116410000Y-123780000D01*
X115140000Y-127400000D02*
X116410000Y-127400000D01*
X112600000Y-126193333D02*
X113870000Y-126193333D01*
X113800000Y-127400000D02*
X113800000Y-126193333D01*
X113680000Y-127400000D02*
X113680000Y-126193333D01*
X113560000Y-127400000D02*
X113560000Y-126193333D01*
X113440000Y-127400000D02*
X113440000Y-126193333D01*
X113320000Y-127400000D02*
X113320000Y-126193333D01*
X113200000Y-127400000D02*
X113200000Y-126193333D01*
X113080000Y-127400000D02*
X113080000Y-126193333D01*
X112960000Y-127400000D02*
X112960000Y-126193333D01*
X112840000Y-127400000D02*
X112840000Y-126193333D01*
X112720000Y-127400000D02*
X112720000Y-126193333D01*
X112600000Y-123780000D02*
X112600000Y-127400000D01*
X113870000Y-123780000D02*
X112600000Y-123780000D01*
X113870000Y-127400000D02*
X113870000Y-123780000D01*
X112600000Y-127400000D02*
X113870000Y-127400000D01*
X110060000Y-126193333D02*
X111330000Y-126193333D01*
X111260000Y-127400000D02*
X111260000Y-126193333D01*
X111140000Y-127400000D02*
X111140000Y-126193333D01*
X111020000Y-127400000D02*
X111020000Y-126193333D01*
X110900000Y-127400000D02*
X110900000Y-126193333D01*
X110780000Y-127400000D02*
X110780000Y-126193333D01*
X110660000Y-127400000D02*
X110660000Y-126193333D01*
X110540000Y-127400000D02*
X110540000Y-126193333D01*
X110420000Y-127400000D02*
X110420000Y-126193333D01*
X110300000Y-127400000D02*
X110300000Y-126193333D01*
X110180000Y-127400000D02*
X110180000Y-126193333D01*
X110060000Y-123780000D02*
X110060000Y-127400000D01*
X111330000Y-123780000D02*
X110060000Y-123780000D01*
X111330000Y-127400000D02*
X111330000Y-123780000D01*
X110060000Y-127400000D02*
X111330000Y-127400000D01*
X107520000Y-126193333D02*
X108790000Y-126193333D01*
X108720000Y-127400000D02*
X108720000Y-126193333D01*
X108600000Y-127400000D02*
X108600000Y-126193333D01*
X108480000Y-127400000D02*
X108480000Y-126193333D01*
X108360000Y-127400000D02*
X108360000Y-126193333D01*
X108240000Y-127400000D02*
X108240000Y-126193333D01*
X108120000Y-127400000D02*
X108120000Y-126193333D01*
X108000000Y-127400000D02*
X108000000Y-126193333D01*
X107880000Y-127400000D02*
X107880000Y-126193333D01*
X107760000Y-127400000D02*
X107760000Y-126193333D01*
X107640000Y-127400000D02*
X107640000Y-126193333D01*
X107520000Y-123780000D02*
X107520000Y-127400000D01*
X108790000Y-123780000D02*
X107520000Y-123780000D01*
X108790000Y-127400000D02*
X108790000Y-123780000D01*
X107520000Y-127400000D02*
X108790000Y-127400000D01*
X104980000Y-126193333D02*
X106250000Y-126193333D01*
X106180000Y-127400000D02*
X106180000Y-126193333D01*
X106060000Y-127400000D02*
X106060000Y-126193333D01*
X105940000Y-127400000D02*
X105940000Y-126193333D01*
X105820000Y-127400000D02*
X105820000Y-126193333D01*
X105700000Y-127400000D02*
X105700000Y-126193333D01*
X105580000Y-127400000D02*
X105580000Y-126193333D01*
X105460000Y-127400000D02*
X105460000Y-126193333D01*
X105340000Y-127400000D02*
X105340000Y-126193333D01*
X105220000Y-127400000D02*
X105220000Y-126193333D01*
X105100000Y-127400000D02*
X105100000Y-126193333D01*
X104980000Y-123780000D02*
X104980000Y-127400000D01*
X106250000Y-123780000D02*
X104980000Y-123780000D01*
X106250000Y-127400000D02*
X106250000Y-123780000D01*
X104980000Y-127400000D02*
X106250000Y-127400000D01*
X102440000Y-126193333D02*
X103710000Y-126193333D01*
X103640000Y-127400000D02*
X103640000Y-126193333D01*
X103520000Y-127400000D02*
X103520000Y-126193333D01*
X103400000Y-127400000D02*
X103400000Y-126193333D01*
X103280000Y-127400000D02*
X103280000Y-126193333D01*
X103160000Y-127400000D02*
X103160000Y-126193333D01*
X103040000Y-127400000D02*
X103040000Y-126193333D01*
X102920000Y-127400000D02*
X102920000Y-126193333D01*
X102800000Y-127400000D02*
X102800000Y-126193333D01*
X102680000Y-127400000D02*
X102680000Y-126193333D01*
X102560000Y-127400000D02*
X102560000Y-126193333D01*
X102440000Y-123780000D02*
X102440000Y-127400000D01*
X103710000Y-123780000D02*
X102440000Y-123780000D01*
X103710000Y-127400000D02*
X103710000Y-123780000D01*
X102440000Y-127400000D02*
X103710000Y-127400000D01*
X100725000Y-129240000D02*
X102035000Y-129240000D01*
X100725000Y-129240000D02*
X100725000Y-127857000D01*
X104066000Y-122179000D02*
X104626000Y-122179000D01*
X100965000Y-122179000D02*
X102085000Y-122179000D01*
X106606000Y-122179000D02*
X107166000Y-122179000D01*
X109146000Y-122179000D02*
X109706000Y-122179000D01*
X111686000Y-122179000D02*
X112246000Y-122179000D01*
X114226000Y-122179000D02*
X114786000Y-122179000D01*
X116766000Y-122179000D02*
X117326000Y-122179000D01*
X119306000Y-122179000D02*
X119865000Y-122179000D01*
X121846000Y-122179000D02*
X122966000Y-122179000D01*
X121845000Y-129000000D02*
X122966000Y-129000000D01*
X119305000Y-129000000D02*
X119865000Y-129000000D01*
X116765000Y-129000000D02*
X117325000Y-129000000D01*
X114225000Y-129000000D02*
X114785000Y-129000000D01*
X111685000Y-129000000D02*
X112245000Y-129000000D01*
X109145000Y-129000000D02*
X109706000Y-129000000D01*
X106605000Y-129000000D02*
X107166000Y-129000000D01*
X104115000Y-129000000D02*
X104626000Y-129000000D01*
X100965000Y-129000000D02*
X102035000Y-129000000D01*
X122966000Y-129000000D02*
X122966000Y-122179000D01*
X100965000Y-129000000D02*
X100965000Y-122179000D01*
X155270000Y-126143333D02*
X156540000Y-126143333D01*
X156470000Y-127350000D02*
X156470000Y-126143333D01*
X156350000Y-127350000D02*
X156350000Y-126143333D01*
X156230000Y-127350000D02*
X156230000Y-126143333D01*
X156110000Y-127350000D02*
X156110000Y-126143333D01*
X155990000Y-127350000D02*
X155990000Y-126143333D01*
X155870000Y-127350000D02*
X155870000Y-126143333D01*
X155750000Y-127350000D02*
X155750000Y-126143333D01*
X155630000Y-127350000D02*
X155630000Y-126143333D01*
X155510000Y-127350000D02*
X155510000Y-126143333D01*
X155390000Y-127350000D02*
X155390000Y-126143333D01*
X155270000Y-123730000D02*
X155270000Y-127350000D01*
X156540000Y-123730000D02*
X155270000Y-123730000D01*
X156540000Y-127350000D02*
X156540000Y-123730000D01*
X155270000Y-127350000D02*
X156540000Y-127350000D01*
X152730000Y-126143333D02*
X154000000Y-126143333D01*
X153930000Y-127350000D02*
X153930000Y-126143333D01*
X153810000Y-127350000D02*
X153810000Y-126143333D01*
X153690000Y-127350000D02*
X153690000Y-126143333D01*
X153570000Y-127350000D02*
X153570000Y-126143333D01*
X153450000Y-127350000D02*
X153450000Y-126143333D01*
X153330000Y-127350000D02*
X153330000Y-126143333D01*
X153210000Y-127350000D02*
X153210000Y-126143333D01*
X153090000Y-127350000D02*
X153090000Y-126143333D01*
X152970000Y-127350000D02*
X152970000Y-126143333D01*
X152850000Y-127350000D02*
X152850000Y-126143333D01*
X152730000Y-123730000D02*
X152730000Y-127350000D01*
X154000000Y-123730000D02*
X152730000Y-123730000D01*
X154000000Y-127350000D02*
X154000000Y-123730000D01*
X152730000Y-127350000D02*
X154000000Y-127350000D01*
X150190000Y-126143333D02*
X151460000Y-126143333D01*
X151390000Y-127350000D02*
X151390000Y-126143333D01*
X151270000Y-127350000D02*
X151270000Y-126143333D01*
X151150000Y-127350000D02*
X151150000Y-126143333D01*
X151030000Y-127350000D02*
X151030000Y-126143333D01*
X150910000Y-127350000D02*
X150910000Y-126143333D01*
X150790000Y-127350000D02*
X150790000Y-126143333D01*
X150670000Y-127350000D02*
X150670000Y-126143333D01*
X150550000Y-127350000D02*
X150550000Y-126143333D01*
X150430000Y-127350000D02*
X150430000Y-126143333D01*
X150310000Y-127350000D02*
X150310000Y-126143333D01*
X150190000Y-123730000D02*
X150190000Y-127350000D01*
X151460000Y-123730000D02*
X150190000Y-123730000D01*
X151460000Y-127350000D02*
X151460000Y-123730000D01*
X150190000Y-127350000D02*
X151460000Y-127350000D01*
X147650000Y-126143333D02*
X148920000Y-126143333D01*
X148850000Y-127350000D02*
X148850000Y-126143333D01*
X148730000Y-127350000D02*
X148730000Y-126143333D01*
X148610000Y-127350000D02*
X148610000Y-126143333D01*
X148490000Y-127350000D02*
X148490000Y-126143333D01*
X148370000Y-127350000D02*
X148370000Y-126143333D01*
X148250000Y-127350000D02*
X148250000Y-126143333D01*
X148130000Y-127350000D02*
X148130000Y-126143333D01*
X148010000Y-127350000D02*
X148010000Y-126143333D01*
X147890000Y-127350000D02*
X147890000Y-126143333D01*
X147770000Y-127350000D02*
X147770000Y-126143333D01*
X147650000Y-123730000D02*
X147650000Y-127350000D01*
X148920000Y-123730000D02*
X147650000Y-123730000D01*
X148920000Y-127350000D02*
X148920000Y-123730000D01*
X147650000Y-127350000D02*
X148920000Y-127350000D01*
X145110000Y-126143333D02*
X146380000Y-126143333D01*
X146310000Y-127350000D02*
X146310000Y-126143333D01*
X146190000Y-127350000D02*
X146190000Y-126143333D01*
X146070000Y-127350000D02*
X146070000Y-126143333D01*
X145950000Y-127350000D02*
X145950000Y-126143333D01*
X145830000Y-127350000D02*
X145830000Y-126143333D01*
X145710000Y-127350000D02*
X145710000Y-126143333D01*
X145590000Y-127350000D02*
X145590000Y-126143333D01*
X145470000Y-127350000D02*
X145470000Y-126143333D01*
X145350000Y-127350000D02*
X145350000Y-126143333D01*
X145230000Y-127350000D02*
X145230000Y-126143333D01*
X145110000Y-123730000D02*
X145110000Y-127350000D01*
X146380000Y-123730000D02*
X145110000Y-123730000D01*
X146380000Y-127350000D02*
X146380000Y-123730000D01*
X145110000Y-127350000D02*
X146380000Y-127350000D01*
X142570000Y-126143333D02*
X143840000Y-126143333D01*
X143770000Y-127350000D02*
X143770000Y-126143333D01*
X143650000Y-127350000D02*
X143650000Y-126143333D01*
X143530000Y-127350000D02*
X143530000Y-126143333D01*
X143410000Y-127350000D02*
X143410000Y-126143333D01*
X143290000Y-127350000D02*
X143290000Y-126143333D01*
X143170000Y-127350000D02*
X143170000Y-126143333D01*
X143050000Y-127350000D02*
X143050000Y-126143333D01*
X142930000Y-127350000D02*
X142930000Y-126143333D01*
X142810000Y-127350000D02*
X142810000Y-126143333D01*
X142690000Y-127350000D02*
X142690000Y-126143333D01*
X142570000Y-123730000D02*
X142570000Y-127350000D01*
X143840000Y-123730000D02*
X142570000Y-123730000D01*
X143840000Y-127350000D02*
X143840000Y-123730000D01*
X142570000Y-127350000D02*
X143840000Y-127350000D01*
X140030000Y-126143333D02*
X141300000Y-126143333D01*
X141230000Y-127350000D02*
X141230000Y-126143333D01*
X141110000Y-127350000D02*
X141110000Y-126143333D01*
X140990000Y-127350000D02*
X140990000Y-126143333D01*
X140870000Y-127350000D02*
X140870000Y-126143333D01*
X140750000Y-127350000D02*
X140750000Y-126143333D01*
X140630000Y-127350000D02*
X140630000Y-126143333D01*
X140510000Y-127350000D02*
X140510000Y-126143333D01*
X140390000Y-127350000D02*
X140390000Y-126143333D01*
X140270000Y-127350000D02*
X140270000Y-126143333D01*
X140150000Y-127350000D02*
X140150000Y-126143333D01*
X140030000Y-123730000D02*
X140030000Y-127350000D01*
X141300000Y-123730000D02*
X140030000Y-123730000D01*
X141300000Y-127350000D02*
X141300000Y-123730000D01*
X140030000Y-127350000D02*
X141300000Y-127350000D01*
X137490000Y-126143333D02*
X138760000Y-126143333D01*
X138690000Y-127350000D02*
X138690000Y-126143333D01*
X138570000Y-127350000D02*
X138570000Y-126143333D01*
X138450000Y-127350000D02*
X138450000Y-126143333D01*
X138330000Y-127350000D02*
X138330000Y-126143333D01*
X138210000Y-127350000D02*
X138210000Y-126143333D01*
X138090000Y-127350000D02*
X138090000Y-126143333D01*
X137970000Y-127350000D02*
X137970000Y-126143333D01*
X137850000Y-127350000D02*
X137850000Y-126143333D01*
X137730000Y-127350000D02*
X137730000Y-126143333D01*
X137610000Y-127350000D02*
X137610000Y-126143333D01*
X137490000Y-123730000D02*
X137490000Y-127350000D01*
X138760000Y-123730000D02*
X137490000Y-123730000D01*
X138760000Y-127350000D02*
X138760000Y-123730000D01*
X137490000Y-127350000D02*
X138760000Y-127350000D01*
X135775000Y-129190000D02*
X137085000Y-129190000D01*
X135775000Y-129190000D02*
X135775000Y-127807000D01*
X139116000Y-122129000D02*
X139676000Y-122129000D01*
X136015000Y-122129000D02*
X137135000Y-122129000D01*
X141656000Y-122129000D02*
X142216000Y-122129000D01*
X144196000Y-122129000D02*
X144756000Y-122129000D01*
X146736000Y-122129000D02*
X147296000Y-122129000D01*
X149276000Y-122129000D02*
X149836000Y-122129000D01*
X151816000Y-122129000D02*
X152376000Y-122129000D01*
X154356000Y-122129000D02*
X154915000Y-122129000D01*
X156896000Y-122129000D02*
X158016000Y-122129000D01*
X156895000Y-128950000D02*
X158016000Y-128950000D01*
X154355000Y-128950000D02*
X154915000Y-128950000D01*
X151815000Y-128950000D02*
X152375000Y-128950000D01*
X149275000Y-128950000D02*
X149835000Y-128950000D01*
X146735000Y-128950000D02*
X147295000Y-128950000D01*
X144195000Y-128950000D02*
X144756000Y-128950000D01*
X141655000Y-128950000D02*
X142216000Y-128950000D01*
X139165000Y-128950000D02*
X139676000Y-128950000D01*
X136015000Y-128950000D02*
X137085000Y-128950000D01*
X158016000Y-128950000D02*
X158016000Y-122129000D01*
X136015000Y-128950000D02*
X136015000Y-122129000D01*
X125230000Y-37260000D02*
X107110000Y-37260000D01*
X125230000Y-88300000D02*
X125230000Y-37260000D01*
X107110000Y-88300000D02*
X125230000Y-88300000D01*
X107110000Y-37260000D02*
X107110000Y-88300000D01*
X122230000Y-37320000D02*
X117170000Y-37320000D01*
X122230000Y-88240000D02*
X122230000Y-37320000D01*
X110110000Y-88240000D02*
X122230000Y-88240000D01*
X110110000Y-37320000D02*
X110110000Y-88240000D01*
X115170000Y-37320000D02*
X110110000Y-37320000D01*
X117170000Y-37320000D02*
G75*
G02X115170000Y-37320000I-1000000J0D01*
G01*
X86135000Y-57127500D02*
X86135000Y-67627500D01*
X104155000Y-57127500D02*
X86135000Y-57127500D01*
X104155000Y-67627500D02*
X104155000Y-57127500D01*
X86135000Y-67627500D02*
X104155000Y-67627500D01*
X86195000Y-60127500D02*
X86195000Y-61377500D01*
X104095000Y-60127500D02*
X86195000Y-60127500D01*
X104095000Y-64627500D02*
X104095000Y-60127500D01*
X86195000Y-64627500D02*
X104095000Y-64627500D01*
X86195000Y-63377500D02*
X86195000Y-64627500D01*
X86195000Y-61377500D02*
G75*
G02X86195000Y-63377500I0J-1000000D01*
G01*
X86135000Y-73465000D02*
X86135000Y-83965000D01*
X104155000Y-73465000D02*
X86135000Y-73465000D01*
X104155000Y-83965000D02*
X104155000Y-73465000D01*
X86135000Y-83965000D02*
X104155000Y-83965000D01*
X86195000Y-76465000D02*
X86195000Y-77715000D01*
X104095000Y-76465000D02*
X86195000Y-76465000D01*
X104095000Y-80965000D02*
X104095000Y-76465000D01*
X86195000Y-80965000D02*
X104095000Y-80965000D01*
X86195000Y-79715000D02*
X86195000Y-80965000D01*
X86195000Y-77715000D02*
G75*
G02X86195000Y-79715000I0J-1000000D01*
G01*
X133235000Y-49669200D02*
X133235000Y-60169200D01*
X158875000Y-49669200D02*
X133235000Y-49669200D01*
X158875000Y-60169200D02*
X158875000Y-49669200D01*
X133235000Y-60169200D02*
X158875000Y-60169200D01*
X133295000Y-52669200D02*
X133295000Y-53919200D01*
X158815000Y-52669200D02*
X133295000Y-52669200D01*
X158815000Y-57169200D02*
X158815000Y-52669200D01*
X133295000Y-57169200D02*
X158815000Y-57169200D01*
X133295000Y-55919200D02*
X133295000Y-57169200D01*
X133295000Y-53919200D02*
G75*
G02X133295000Y-55919200I0J-1000000D01*
G01*
X99710000Y-102415000D02*
X99710000Y-112915000D01*
X125350000Y-102415000D02*
X99710000Y-102415000D01*
X125350000Y-112915000D02*
X125350000Y-102415000D01*
X99710000Y-112915000D02*
X125350000Y-112915000D01*
X99770000Y-105415000D02*
X99770000Y-106665000D01*
X125290000Y-105415000D02*
X99770000Y-105415000D01*
X125290000Y-109915000D02*
X125290000Y-105415000D01*
X99770000Y-109915000D02*
X125290000Y-109915000D01*
X99770000Y-108665000D02*
X99770000Y-109915000D01*
X99770000Y-106665000D02*
G75*
G02X99770000Y-108665000I0J-1000000D01*
G01*
X133235000Y-34640000D02*
X133235000Y-45140000D01*
X158875000Y-34640000D02*
X133235000Y-34640000D01*
X158875000Y-45140000D02*
X158875000Y-34640000D01*
X133235000Y-45140000D02*
X158875000Y-45140000D01*
X133295000Y-37640000D02*
X133295000Y-38890000D01*
X158815000Y-37640000D02*
X133295000Y-37640000D01*
X158815000Y-42140000D02*
X158815000Y-37640000D01*
X133295000Y-42140000D02*
X158815000Y-42140000D01*
X133295000Y-40890000D02*
X133295000Y-42140000D01*
X133295000Y-38890000D02*
G75*
G02X133295000Y-40890000I0J-1000000D01*
G01*
X133235000Y-79727500D02*
X133235000Y-90227500D01*
X158875000Y-79727500D02*
X133235000Y-79727500D01*
X158875000Y-90227500D02*
X158875000Y-79727500D01*
X133235000Y-90227500D02*
X158875000Y-90227500D01*
X133295000Y-82727500D02*
X133295000Y-83977500D01*
X158815000Y-82727500D02*
X133295000Y-82727500D01*
X158815000Y-87227500D02*
X158815000Y-82727500D01*
X133295000Y-87227500D02*
X158815000Y-87227500D01*
X133295000Y-85977500D02*
X133295000Y-87227500D01*
X133295000Y-83977500D02*
G75*
G02X133295000Y-85977500I0J-1000000D01*
G01*
X132835000Y-102915000D02*
X132835000Y-113415000D01*
X158475000Y-102915000D02*
X132835000Y-102915000D01*
X158475000Y-113415000D02*
X158475000Y-102915000D01*
X132835000Y-113415000D02*
X158475000Y-113415000D01*
X132895000Y-105915000D02*
X132895000Y-107165000D01*
X158415000Y-105915000D02*
X132895000Y-105915000D01*
X158415000Y-110415000D02*
X158415000Y-105915000D01*
X132895000Y-110415000D02*
X158415000Y-110415000D01*
X132895000Y-109165000D02*
X132895000Y-110415000D01*
X132895000Y-107165000D02*
G75*
G02X132895000Y-109165000I0J-1000000D01*
G01*
X107185000Y-90215000D02*
X107185000Y-100715000D01*
X125205000Y-90215000D02*
X107185000Y-90215000D01*
X125205000Y-100715000D02*
X125205000Y-90215000D01*
X107185000Y-100715000D02*
X125205000Y-100715000D01*
X107245000Y-93215000D02*
X107245000Y-94465000D01*
X125145000Y-93215000D02*
X107245000Y-93215000D01*
X125145000Y-97715000D02*
X125145000Y-93215000D01*
X107245000Y-97715000D02*
X125145000Y-97715000D01*
X107245000Y-96465000D02*
X107245000Y-97715000D01*
X107245000Y-94465000D02*
G75*
G02X107245000Y-96465000I0J-1000000D01*
G01*
X86135000Y-40790000D02*
X86135000Y-51290000D01*
X104155000Y-40790000D02*
X86135000Y-40790000D01*
X104155000Y-51290000D02*
X104155000Y-40790000D01*
X86135000Y-51290000D02*
X104155000Y-51290000D01*
X86195000Y-43790000D02*
X86195000Y-45040000D01*
X104095000Y-43790000D02*
X86195000Y-43790000D01*
X104095000Y-48290000D02*
X104095000Y-43790000D01*
X86195000Y-48290000D02*
X104095000Y-48290000D01*
X86195000Y-47040000D02*
X86195000Y-48290000D01*
X86195000Y-45040000D02*
G75*
G02X86195000Y-47040000I0J-1000000D01*
G01*
X133235000Y-64698300D02*
X133235000Y-75198300D01*
X158875000Y-64698300D02*
X133235000Y-64698300D01*
X158875000Y-75198300D02*
X158875000Y-64698300D01*
X133235000Y-75198300D02*
X158875000Y-75198300D01*
X133295000Y-67698300D02*
X133295000Y-68948300D01*
X158815000Y-67698300D02*
X133295000Y-67698300D01*
X158815000Y-72198300D02*
X158815000Y-67698300D01*
X133295000Y-72198300D02*
X158815000Y-72198300D01*
X133295000Y-70948300D02*
X133295000Y-72198300D01*
X133295000Y-68948300D02*
G75*
G02X133295000Y-70948300I0J-1000000D01*
G01*
X72120000Y-40625000D02*
X72120000Y-37225000D01*
X72120000Y-42265000D02*
X72120000Y-41725000D01*
X74950000Y-35065000D02*
X75460000Y-35065000D01*
X75460000Y-35585000D02*
X75460000Y-35065000D01*
X74950000Y-35585000D02*
X75460000Y-35585000D01*
X72120000Y-36125000D02*
X72120000Y-35585000D01*
X74950000Y-42785000D02*
X75460000Y-42785000D01*
X74950000Y-42265000D02*
X75460000Y-42265000D01*
X72120000Y-35585000D02*
X72350000Y-35585000D01*
X68450000Y-42785000D02*
X72350000Y-42785000D01*
X75460000Y-42785000D02*
X75460000Y-42265000D01*
X68450000Y-35065000D02*
X72350000Y-35065000D01*
X68450000Y-42785000D02*
X68450000Y-35065000D01*
X72120000Y-42265000D02*
X72350000Y-42265000D01*
X120255000Y-118538000D02*
X120255000Y-115738000D01*
X99765000Y-118538000D02*
X122965000Y-118538000D01*
X99765000Y-115738000D02*
X99765000Y-118538000D01*
X122965000Y-115738000D02*
X99765000Y-115738000D01*
X122965000Y-118538000D02*
X122965000Y-115738000D01*
X155305000Y-118488000D02*
X155305000Y-115688000D01*
X134815000Y-118488000D02*
X158015000Y-118488000D01*
X134815000Y-115688000D02*
X134815000Y-118488000D01*
X158015000Y-115688000D02*
X134815000Y-115688000D01*
X158015000Y-118488000D02*
X158015000Y-115688000D01*
X135745000Y-97862500D02*
X135745000Y-100662500D01*
X158775000Y-97862500D02*
X133035000Y-97862500D01*
X158775000Y-100662500D02*
X158775000Y-97862500D01*
X133035000Y-100662500D02*
X158775000Y-100662500D01*
X133035000Y-97862500D02*
X133035000Y-100662500D01*
X93155000Y-98780000D02*
X93485000Y-98780000D01*
X93155000Y-92240000D02*
X93155000Y-98780000D01*
X93485000Y-92240000D02*
X93155000Y-92240000D01*
X95895000Y-98780000D02*
X95565000Y-98780000D01*
X95895000Y-92240000D02*
X95895000Y-98780000D01*
X95565000Y-92240000D02*
X95895000Y-92240000D01*
X82780000Y-100080000D02*
X82780000Y-100410000D01*
X89320000Y-100080000D02*
X82780000Y-100080000D01*
X89320000Y-100410000D02*
X89320000Y-100080000D01*
X82780000Y-102820000D02*
X82780000Y-102490000D01*
X89320000Y-102820000D02*
X82780000Y-102820000D01*
X89320000Y-102490000D02*
X89320000Y-102820000D01*
X69855000Y-53080000D02*
X70185000Y-53080000D01*
X69855000Y-46540000D02*
X69855000Y-53080000D01*
X70185000Y-46540000D02*
X69855000Y-46540000D01*
X72595000Y-53080000D02*
X72265000Y-53080000D01*
X72595000Y-46540000D02*
X72595000Y-53080000D01*
X72265000Y-46540000D02*
X72595000Y-46540000D01*
X81430000Y-41455000D02*
X80100000Y-41455000D01*
X81430000Y-40125000D02*
X81430000Y-41455000D01*
X81430000Y-38855000D02*
X78770000Y-38855000D01*
X78770000Y-38855000D02*
X78770000Y-36255000D01*
X81430000Y-38855000D02*
X81430000Y-36255000D01*
X81430000Y-36255000D02*
X78770000Y-36255000D01*
X161705000Y-43180000D02*
X162975000Y-43180000D01*
X161705000Y-44450000D02*
X161705000Y-43180000D01*
X164017929Y-105790000D02*
X164472071Y-105790000D01*
X164017929Y-105030000D02*
X164472071Y-105030000D01*
X166557929Y-105790000D02*
X166955000Y-105790000D01*
X166557929Y-105030000D02*
X166955000Y-105030000D01*
X175615000Y-105790000D02*
X169615000Y-105790000D01*
X175615000Y-105030000D02*
X175615000Y-105790000D01*
X169615000Y-105030000D02*
X175615000Y-105030000D01*
X166955000Y-104140000D02*
X169615000Y-104140000D01*
X164017929Y-103250000D02*
X164472071Y-103250000D01*
X164017929Y-102490000D02*
X164472071Y-102490000D01*
X166557929Y-103250000D02*
X166955000Y-103250000D01*
X166557929Y-102490000D02*
X166955000Y-102490000D01*
X175615000Y-103250000D02*
X169615000Y-103250000D01*
X175615000Y-102490000D02*
X175615000Y-103250000D01*
X169615000Y-102490000D02*
X175615000Y-102490000D01*
X166955000Y-101600000D02*
X169615000Y-101600000D01*
X164017929Y-100710000D02*
X164472071Y-100710000D01*
X164017929Y-99950000D02*
X164472071Y-99950000D01*
X166557929Y-100710000D02*
X166955000Y-100710000D01*
X166557929Y-99950000D02*
X166955000Y-99950000D01*
X175615000Y-100710000D02*
X169615000Y-100710000D01*
X175615000Y-99950000D02*
X175615000Y-100710000D01*
X169615000Y-99950000D02*
X175615000Y-99950000D01*
X166955000Y-99060000D02*
X169615000Y-99060000D01*
X164017929Y-98170000D02*
X164472071Y-98170000D01*
X164017929Y-97410000D02*
X164472071Y-97410000D01*
X166557929Y-98170000D02*
X166955000Y-98170000D01*
X166557929Y-97410000D02*
X166955000Y-97410000D01*
X175615000Y-98170000D02*
X169615000Y-98170000D01*
X175615000Y-97410000D02*
X175615000Y-98170000D01*
X169615000Y-97410000D02*
X175615000Y-97410000D01*
X166955000Y-96520000D02*
X169615000Y-96520000D01*
X164017929Y-95630000D02*
X164472071Y-95630000D01*
X164017929Y-94870000D02*
X164472071Y-94870000D01*
X166557929Y-95630000D02*
X166955000Y-95630000D01*
X166557929Y-94870000D02*
X166955000Y-94870000D01*
X175615000Y-95630000D02*
X169615000Y-95630000D01*
X175615000Y-94870000D02*
X175615000Y-95630000D01*
X169615000Y-94870000D02*
X175615000Y-94870000D01*
X166955000Y-93980000D02*
X169615000Y-93980000D01*
X164017929Y-93090000D02*
X164472071Y-93090000D01*
X164017929Y-92330000D02*
X164472071Y-92330000D01*
X166557929Y-93090000D02*
X166955000Y-93090000D01*
X166557929Y-92330000D02*
X166955000Y-92330000D01*
X175615000Y-93090000D02*
X169615000Y-93090000D01*
X175615000Y-92330000D02*
X175615000Y-93090000D01*
X169615000Y-92330000D02*
X175615000Y-92330000D01*
X166955000Y-91440000D02*
X169615000Y-91440000D01*
X164017929Y-90550000D02*
X164472071Y-90550000D01*
X164017929Y-89790000D02*
X164472071Y-89790000D01*
X166557929Y-90550000D02*
X166955000Y-90550000D01*
X166557929Y-89790000D02*
X166955000Y-89790000D01*
X175615000Y-90550000D02*
X169615000Y-90550000D01*
X175615000Y-89790000D02*
X175615000Y-90550000D01*
X169615000Y-89790000D02*
X175615000Y-89790000D01*
X166955000Y-88900000D02*
X169615000Y-88900000D01*
X164017929Y-88010000D02*
X164472071Y-88010000D01*
X164017929Y-87250000D02*
X164472071Y-87250000D01*
X166557929Y-88010000D02*
X166955000Y-88010000D01*
X166557929Y-87250000D02*
X166955000Y-87250000D01*
X175615000Y-88010000D02*
X169615000Y-88010000D01*
X175615000Y-87250000D02*
X175615000Y-88010000D01*
X169615000Y-87250000D02*
X175615000Y-87250000D01*
X166955000Y-86360000D02*
X169615000Y-86360000D01*
X164017929Y-85470000D02*
X164472071Y-85470000D01*
X164017929Y-84710000D02*
X164472071Y-84710000D01*
X166557929Y-85470000D02*
X166955000Y-85470000D01*
X166557929Y-84710000D02*
X166955000Y-84710000D01*
X175615000Y-85470000D02*
X169615000Y-85470000D01*
X175615000Y-84710000D02*
X175615000Y-85470000D01*
X169615000Y-84710000D02*
X175615000Y-84710000D01*
X166955000Y-83820000D02*
X169615000Y-83820000D01*
X164017929Y-82930000D02*
X164472071Y-82930000D01*
X164017929Y-82170000D02*
X164472071Y-82170000D01*
X166557929Y-82930000D02*
X166955000Y-82930000D01*
X166557929Y-82170000D02*
X166955000Y-82170000D01*
X175615000Y-82930000D02*
X169615000Y-82930000D01*
X175615000Y-82170000D02*
X175615000Y-82930000D01*
X169615000Y-82170000D02*
X175615000Y-82170000D01*
X166955000Y-81280000D02*
X169615000Y-81280000D01*
X164017929Y-80390000D02*
X164472071Y-80390000D01*
X164017929Y-79630000D02*
X164472071Y-79630000D01*
X166557929Y-80390000D02*
X166955000Y-80390000D01*
X166557929Y-79630000D02*
X166955000Y-79630000D01*
X175615000Y-80390000D02*
X169615000Y-80390000D01*
X175615000Y-79630000D02*
X175615000Y-80390000D01*
X169615000Y-79630000D02*
X175615000Y-79630000D01*
X166955000Y-78740000D02*
X169615000Y-78740000D01*
X164017929Y-77850000D02*
X164472071Y-77850000D01*
X164017929Y-77090000D02*
X164472071Y-77090000D01*
X166557929Y-77850000D02*
X166955000Y-77850000D01*
X166557929Y-77090000D02*
X166955000Y-77090000D01*
X175615000Y-77850000D02*
X169615000Y-77850000D01*
X175615000Y-77090000D02*
X175615000Y-77850000D01*
X169615000Y-77090000D02*
X175615000Y-77090000D01*
X166955000Y-76200000D02*
X169615000Y-76200000D01*
X164017929Y-75310000D02*
X164472071Y-75310000D01*
X164017929Y-74550000D02*
X164472071Y-74550000D01*
X166557929Y-75310000D02*
X166955000Y-75310000D01*
X166557929Y-74550000D02*
X166955000Y-74550000D01*
X175615000Y-75310000D02*
X169615000Y-75310000D01*
X175615000Y-74550000D02*
X175615000Y-75310000D01*
X169615000Y-74550000D02*
X175615000Y-74550000D01*
X166955000Y-73660000D02*
X169615000Y-73660000D01*
X164017929Y-72770000D02*
X164472071Y-72770000D01*
X164017929Y-72010000D02*
X164472071Y-72010000D01*
X166557929Y-72770000D02*
X166955000Y-72770000D01*
X166557929Y-72010000D02*
X166955000Y-72010000D01*
X175615000Y-72770000D02*
X169615000Y-72770000D01*
X175615000Y-72010000D02*
X175615000Y-72770000D01*
X169615000Y-72010000D02*
X175615000Y-72010000D01*
X166955000Y-71120000D02*
X169615000Y-71120000D01*
X164017929Y-70230000D02*
X164472071Y-70230000D01*
X164017929Y-69470000D02*
X164472071Y-69470000D01*
X166557929Y-70230000D02*
X166955000Y-70230000D01*
X166557929Y-69470000D02*
X166955000Y-69470000D01*
X175615000Y-70230000D02*
X169615000Y-70230000D01*
X175615000Y-69470000D02*
X175615000Y-70230000D01*
X169615000Y-69470000D02*
X175615000Y-69470000D01*
X166955000Y-68580000D02*
X169615000Y-68580000D01*
X164017929Y-67690000D02*
X164472071Y-67690000D01*
X164017929Y-66930000D02*
X164472071Y-66930000D01*
X166557929Y-67690000D02*
X166955000Y-67690000D01*
X166557929Y-66930000D02*
X166955000Y-66930000D01*
X175615000Y-67690000D02*
X169615000Y-67690000D01*
X175615000Y-66930000D02*
X175615000Y-67690000D01*
X169615000Y-66930000D02*
X175615000Y-66930000D01*
X166955000Y-66040000D02*
X169615000Y-66040000D01*
X164017929Y-65150000D02*
X164472071Y-65150000D01*
X164017929Y-64390000D02*
X164472071Y-64390000D01*
X166557929Y-65150000D02*
X166955000Y-65150000D01*
X166557929Y-64390000D02*
X166955000Y-64390000D01*
X175615000Y-65150000D02*
X169615000Y-65150000D01*
X175615000Y-64390000D02*
X175615000Y-65150000D01*
X169615000Y-64390000D02*
X175615000Y-64390000D01*
X166955000Y-63500000D02*
X169615000Y-63500000D01*
X164017929Y-62610000D02*
X164472071Y-62610000D01*
X164017929Y-61850000D02*
X164472071Y-61850000D01*
X166557929Y-62610000D02*
X166955000Y-62610000D01*
X166557929Y-61850000D02*
X166955000Y-61850000D01*
X175615000Y-62610000D02*
X169615000Y-62610000D01*
X175615000Y-61850000D02*
X175615000Y-62610000D01*
X169615000Y-61850000D02*
X175615000Y-61850000D01*
X166955000Y-60960000D02*
X169615000Y-60960000D01*
X164017929Y-60070000D02*
X164472071Y-60070000D01*
X164017929Y-59310000D02*
X164472071Y-59310000D01*
X166557929Y-60070000D02*
X166955000Y-60070000D01*
X166557929Y-59310000D02*
X166955000Y-59310000D01*
X175615000Y-60070000D02*
X169615000Y-60070000D01*
X175615000Y-59310000D02*
X175615000Y-60070000D01*
X169615000Y-59310000D02*
X175615000Y-59310000D01*
X166955000Y-58420000D02*
X169615000Y-58420000D01*
X164017929Y-57530000D02*
X164472071Y-57530000D01*
X164017929Y-56770000D02*
X164472071Y-56770000D01*
X166557929Y-57530000D02*
X166955000Y-57530000D01*
X166557929Y-56770000D02*
X166955000Y-56770000D01*
X175615000Y-57530000D02*
X169615000Y-57530000D01*
X175615000Y-56770000D02*
X175615000Y-57530000D01*
X169615000Y-56770000D02*
X175615000Y-56770000D01*
X166955000Y-55880000D02*
X169615000Y-55880000D01*
X164017929Y-54990000D02*
X164472071Y-54990000D01*
X164017929Y-54230000D02*
X164472071Y-54230000D01*
X166557929Y-54990000D02*
X166955000Y-54990000D01*
X166557929Y-54230000D02*
X166955000Y-54230000D01*
X175615000Y-54990000D02*
X169615000Y-54990000D01*
X175615000Y-54230000D02*
X175615000Y-54990000D01*
X169615000Y-54230000D02*
X175615000Y-54230000D01*
X166955000Y-53340000D02*
X169615000Y-53340000D01*
X164017929Y-52450000D02*
X164472071Y-52450000D01*
X164017929Y-51690000D02*
X164472071Y-51690000D01*
X166557929Y-52450000D02*
X166955000Y-52450000D01*
X166557929Y-51690000D02*
X166955000Y-51690000D01*
X175615000Y-52450000D02*
X169615000Y-52450000D01*
X175615000Y-51690000D02*
X175615000Y-52450000D01*
X169615000Y-51690000D02*
X175615000Y-51690000D01*
X166955000Y-50800000D02*
X169615000Y-50800000D01*
X164017929Y-49910000D02*
X164472071Y-49910000D01*
X164017929Y-49150000D02*
X164472071Y-49150000D01*
X166557929Y-49910000D02*
X166955000Y-49910000D01*
X166557929Y-49150000D02*
X166955000Y-49150000D01*
X175615000Y-49910000D02*
X169615000Y-49910000D01*
X175615000Y-49150000D02*
X175615000Y-49910000D01*
X169615000Y-49150000D02*
X175615000Y-49150000D01*
X166955000Y-48260000D02*
X169615000Y-48260000D01*
X164017929Y-47370000D02*
X164472071Y-47370000D01*
X164017929Y-46610000D02*
X164472071Y-46610000D01*
X166557929Y-47370000D02*
X166955000Y-47370000D01*
X166557929Y-46610000D02*
X166955000Y-46610000D01*
X175615000Y-47370000D02*
X169615000Y-47370000D01*
X175615000Y-46610000D02*
X175615000Y-47370000D01*
X169615000Y-46610000D02*
X175615000Y-46610000D01*
X166955000Y-45720000D02*
X169615000Y-45720000D01*
X164085000Y-44830000D02*
X164472071Y-44830000D01*
X164085000Y-44070000D02*
X164472071Y-44070000D01*
X166557929Y-44830000D02*
X166955000Y-44830000D01*
X166557929Y-44070000D02*
X166955000Y-44070000D01*
X169615000Y-44730000D02*
X175615000Y-44730000D01*
X169615000Y-44610000D02*
X175615000Y-44610000D01*
X169615000Y-44490000D02*
X175615000Y-44490000D01*
X169615000Y-44370000D02*
X175615000Y-44370000D01*
X169615000Y-44250000D02*
X175615000Y-44250000D01*
X169615000Y-44130000D02*
X175615000Y-44130000D01*
X175615000Y-44830000D02*
X169615000Y-44830000D01*
X175615000Y-44070000D02*
X175615000Y-44830000D01*
X169615000Y-44070000D02*
X175615000Y-44070000D01*
X169615000Y-43120000D02*
X166955000Y-43120000D01*
X169615000Y-106740000D02*
X169615000Y-43120000D01*
X166955000Y-106740000D02*
X169615000Y-106740000D01*
X166955000Y-43120000D02*
X166955000Y-106740000D01*
X78070000Y-81770000D02*
X76800000Y-81770000D01*
X78070000Y-80500000D02*
X78070000Y-81770000D01*
X75757071Y-69960000D02*
X75302929Y-69960000D01*
X75757071Y-70720000D02*
X75302929Y-70720000D01*
X73217071Y-69960000D02*
X72820000Y-69960000D01*
X73217071Y-70720000D02*
X72820000Y-70720000D01*
X64160000Y-69960000D02*
X70160000Y-69960000D01*
X64160000Y-70720000D02*
X64160000Y-69960000D01*
X70160000Y-70720000D02*
X64160000Y-70720000D01*
X72820000Y-71610000D02*
X70160000Y-71610000D01*
X75757071Y-72500000D02*
X75302929Y-72500000D01*
X75757071Y-73260000D02*
X75302929Y-73260000D01*
X73217071Y-72500000D02*
X72820000Y-72500000D01*
X73217071Y-73260000D02*
X72820000Y-73260000D01*
X64160000Y-72500000D02*
X70160000Y-72500000D01*
X64160000Y-73260000D02*
X64160000Y-72500000D01*
X70160000Y-73260000D02*
X64160000Y-73260000D01*
X72820000Y-74150000D02*
X70160000Y-74150000D01*
X75757071Y-75040000D02*
X75302929Y-75040000D01*
X75757071Y-75800000D02*
X75302929Y-75800000D01*
X73217071Y-75040000D02*
X72820000Y-75040000D01*
X73217071Y-75800000D02*
X72820000Y-75800000D01*
X64160000Y-75040000D02*
X70160000Y-75040000D01*
X64160000Y-75800000D02*
X64160000Y-75040000D01*
X70160000Y-75800000D02*
X64160000Y-75800000D01*
X72820000Y-76690000D02*
X70160000Y-76690000D01*
X75757071Y-77580000D02*
X75302929Y-77580000D01*
X75757071Y-78340000D02*
X75302929Y-78340000D01*
X73217071Y-77580000D02*
X72820000Y-77580000D01*
X73217071Y-78340000D02*
X72820000Y-78340000D01*
X64160000Y-77580000D02*
X70160000Y-77580000D01*
X64160000Y-78340000D02*
X64160000Y-77580000D01*
X70160000Y-78340000D02*
X64160000Y-78340000D01*
X72820000Y-79230000D02*
X70160000Y-79230000D01*
X75690000Y-80120000D02*
X75302929Y-80120000D01*
X75690000Y-80880000D02*
X75302929Y-80880000D01*
X73217071Y-80120000D02*
X72820000Y-80120000D01*
X73217071Y-80880000D02*
X72820000Y-80880000D01*
X70160000Y-80220000D02*
X64160000Y-80220000D01*
X70160000Y-80340000D02*
X64160000Y-80340000D01*
X70160000Y-80460000D02*
X64160000Y-80460000D01*
X70160000Y-80580000D02*
X64160000Y-80580000D01*
X70160000Y-80700000D02*
X64160000Y-80700000D01*
X70160000Y-80820000D02*
X64160000Y-80820000D01*
X64160000Y-80120000D02*
X70160000Y-80120000D01*
X64160000Y-80880000D02*
X64160000Y-80120000D01*
X70160000Y-80880000D02*
X64160000Y-80880000D01*
X70160000Y-81830000D02*
X72820000Y-81830000D01*
X70160000Y-69010000D02*
X70160000Y-81830000D01*
X72820000Y-69010000D02*
X70160000Y-69010000D01*
X72820000Y-81830000D02*
X72820000Y-69010000D01*
X75420000Y-65145000D02*
X74150000Y-65145000D01*
X75420000Y-63875000D02*
X75420000Y-65145000D01*
X73107071Y-58415000D02*
X72710000Y-58415000D01*
X73107071Y-59175000D02*
X72710000Y-59175000D01*
X64050000Y-58415000D02*
X70050000Y-58415000D01*
X64050000Y-59175000D02*
X64050000Y-58415000D01*
X70050000Y-59175000D02*
X64050000Y-59175000D01*
X72710000Y-60065000D02*
X70050000Y-60065000D01*
X73107071Y-60955000D02*
X72710000Y-60955000D01*
X73107071Y-61715000D02*
X72710000Y-61715000D01*
X64050000Y-60955000D02*
X70050000Y-60955000D01*
X64050000Y-61715000D02*
X64050000Y-60955000D01*
X70050000Y-61715000D02*
X64050000Y-61715000D01*
X72710000Y-62605000D02*
X70050000Y-62605000D01*
X73040000Y-63495000D02*
X72710000Y-63495000D01*
X73040000Y-64255000D02*
X72710000Y-64255000D01*
X70050000Y-63595000D02*
X64050000Y-63595000D01*
X70050000Y-63715000D02*
X64050000Y-63715000D01*
X70050000Y-63835000D02*
X64050000Y-63835000D01*
X70050000Y-63955000D02*
X64050000Y-63955000D01*
X70050000Y-64075000D02*
X64050000Y-64075000D01*
X70050000Y-64195000D02*
X64050000Y-64195000D01*
X64050000Y-63495000D02*
X70050000Y-63495000D01*
X64050000Y-64255000D02*
X64050000Y-63495000D01*
X70050000Y-64255000D02*
X64050000Y-64255000D01*
X70050000Y-65205000D02*
X72710000Y-65205000D01*
X70050000Y-57465000D02*
X70050000Y-65205000D01*
X72710000Y-57465000D02*
X70050000Y-57465000D01*
X72710000Y-65205000D02*
X72710000Y-57465000D01*
X73605000Y-129090000D02*
X73761000Y-129090000D01*
X71289000Y-129090000D02*
X71445000Y-129090000D01*
X73604837Y-126488870D02*
G75*
G02X73605000Y-128570961I-1079837J-1041130D01*
G01*
X71445163Y-126488870D02*
G75*
G03X71445000Y-128570961I1079837J-1041130D01*
G01*
X73603608Y-125857665D02*
G75*
G02X73760516Y-129090000I-1078608J-1672335D01*
G01*
X71446392Y-125857665D02*
G75*
G03X71289484Y-129090000I1078608J-1672335D01*
G01*
X162980000Y-39369801D02*
X163380000Y-39369801D01*
X163180000Y-39569801D02*
X163180000Y-39169801D01*
X164005000Y-35219000D02*
X164745000Y-35219000D01*
X163838000Y-35259000D02*
X164912000Y-35259000D01*
X163711000Y-35299000D02*
X165039000Y-35299000D01*
X163607000Y-35339000D02*
X165143000Y-35339000D01*
X163516000Y-35379000D02*
X165234000Y-35379000D01*
X163435000Y-35419000D02*
X165315000Y-35419000D01*
X163362000Y-35459000D02*
X165388000Y-35459000D01*
X165215000Y-35499000D02*
X165455000Y-35499000D01*
X163295000Y-35499000D02*
X163535000Y-35499000D01*
X165215000Y-35539000D02*
X165517000Y-35539000D01*
X163233000Y-35539000D02*
X163535000Y-35539000D01*
X165215000Y-35579000D02*
X165575000Y-35579000D01*
X163175000Y-35579000D02*
X163535000Y-35579000D01*
X165215000Y-35619000D02*
X165629000Y-35619000D01*
X163121000Y-35619000D02*
X163535000Y-35619000D01*
X165215000Y-35659000D02*
X165679000Y-35659000D01*
X163071000Y-35659000D02*
X163535000Y-35659000D01*
X165215000Y-35699000D02*
X165726000Y-35699000D01*
X163024000Y-35699000D02*
X163535000Y-35699000D01*
X165215000Y-35739000D02*
X165771000Y-35739000D01*
X162979000Y-35739000D02*
X163535000Y-35739000D01*
X165215000Y-35779000D02*
X165813000Y-35779000D01*
X162937000Y-35779000D02*
X163535000Y-35779000D01*
X165215000Y-35819000D02*
X165853000Y-35819000D01*
X162897000Y-35819000D02*
X163535000Y-35819000D01*
X165215000Y-35859000D02*
X165891000Y-35859000D01*
X162859000Y-35859000D02*
X163535000Y-35859000D01*
X165215000Y-35899000D02*
X165927000Y-35899000D01*
X162823000Y-35899000D02*
X163535000Y-35899000D01*
X165215000Y-35939000D02*
X165962000Y-35939000D01*
X162788000Y-35939000D02*
X163535000Y-35939000D01*
X165215000Y-35979000D02*
X165994000Y-35979000D01*
X162756000Y-35979000D02*
X163535000Y-35979000D01*
X165215000Y-36019000D02*
X166025000Y-36019000D01*
X162725000Y-36019000D02*
X163535000Y-36019000D01*
X165215000Y-36059000D02*
X166055000Y-36059000D01*
X162695000Y-36059000D02*
X163535000Y-36059000D01*
X165215000Y-36099000D02*
X166083000Y-36099000D01*
X162667000Y-36099000D02*
X163535000Y-36099000D01*
X165215000Y-36139000D02*
X166110000Y-36139000D01*
X162640000Y-36139000D02*
X163535000Y-36139000D01*
X165215000Y-36179000D02*
X166135000Y-36179000D01*
X162615000Y-36179000D02*
X163535000Y-36179000D01*
X165215000Y-36219000D02*
X166160000Y-36219000D01*
X162590000Y-36219000D02*
X163535000Y-36219000D01*
X165215000Y-36259000D02*
X166183000Y-36259000D01*
X162567000Y-36259000D02*
X163535000Y-36259000D01*
X165215000Y-36299000D02*
X166205000Y-36299000D01*
X162545000Y-36299000D02*
X163535000Y-36299000D01*
X165215000Y-36339000D02*
X166226000Y-36339000D01*
X162524000Y-36339000D02*
X163535000Y-36339000D01*
X165215000Y-36379000D02*
X166245000Y-36379000D01*
X162505000Y-36379000D02*
X163535000Y-36379000D01*
X165215000Y-36419000D02*
X166264000Y-36419000D01*
X162486000Y-36419000D02*
X163535000Y-36419000D01*
X165215000Y-36459000D02*
X166282000Y-36459000D01*
X162468000Y-36459000D02*
X163535000Y-36459000D01*
X165215000Y-36499000D02*
X166299000Y-36499000D01*
X162451000Y-36499000D02*
X163535000Y-36499000D01*
X165215000Y-36539000D02*
X166315000Y-36539000D01*
X162435000Y-36539000D02*
X163535000Y-36539000D01*
X165215000Y-36579000D02*
X166329000Y-36579000D01*
X162421000Y-36579000D02*
X163535000Y-36579000D01*
X165215000Y-36620000D02*
X166343000Y-36620000D01*
X162407000Y-36620000D02*
X163535000Y-36620000D01*
X165215000Y-36660000D02*
X166357000Y-36660000D01*
X162393000Y-36660000D02*
X163535000Y-36660000D01*
X165215000Y-36700000D02*
X166369000Y-36700000D01*
X162381000Y-36700000D02*
X163535000Y-36700000D01*
X165215000Y-36740000D02*
X166380000Y-36740000D01*
X162370000Y-36740000D02*
X163535000Y-36740000D01*
X165215000Y-36780000D02*
X166391000Y-36780000D01*
X162359000Y-36780000D02*
X163535000Y-36780000D01*
X165215000Y-36820000D02*
X166400000Y-36820000D01*
X162350000Y-36820000D02*
X163535000Y-36820000D01*
X165215000Y-36860000D02*
X166409000Y-36860000D01*
X162341000Y-36860000D02*
X163535000Y-36860000D01*
X165215000Y-36900000D02*
X166417000Y-36900000D01*
X162333000Y-36900000D02*
X163535000Y-36900000D01*
X165215000Y-36940000D02*
X166425000Y-36940000D01*
X162325000Y-36940000D02*
X163535000Y-36940000D01*
X165215000Y-36980000D02*
X166431000Y-36980000D01*
X162319000Y-36980000D02*
X163535000Y-36980000D01*
X165215000Y-37020000D02*
X166437000Y-37020000D01*
X162313000Y-37020000D02*
X163535000Y-37020000D01*
X165215000Y-37060000D02*
X166442000Y-37060000D01*
X162308000Y-37060000D02*
X163535000Y-37060000D01*
X165215000Y-37100000D02*
X166446000Y-37100000D01*
X162304000Y-37100000D02*
X163535000Y-37100000D01*
X162301000Y-37140000D02*
X166449000Y-37140000D01*
X162298000Y-37180000D02*
X166452000Y-37180000D01*
X162296000Y-37220000D02*
X166454000Y-37220000D01*
X162295000Y-37260000D02*
X166455000Y-37260000D01*
X162295000Y-37300000D02*
X166455000Y-37300000D01*
X166495000Y-37300000D02*
G75*
G03X166495000Y-37300000I-2120000J0D01*
G01*
X164870000Y-116330199D02*
X164470000Y-116330199D01*
X164670000Y-116130199D02*
X164670000Y-116530199D01*
X163845000Y-120481000D02*
X163105000Y-120481000D01*
X164012000Y-120441000D02*
X162938000Y-120441000D01*
X164139000Y-120401000D02*
X162811000Y-120401000D01*
X164243000Y-120361000D02*
X162707000Y-120361000D01*
X164334000Y-120321000D02*
X162616000Y-120321000D01*
X164415000Y-120281000D02*
X162535000Y-120281000D01*
X164488000Y-120241000D02*
X162462000Y-120241000D01*
X162635000Y-120201000D02*
X162395000Y-120201000D01*
X164555000Y-120201000D02*
X164315000Y-120201000D01*
X162635000Y-120161000D02*
X162333000Y-120161000D01*
X164617000Y-120161000D02*
X164315000Y-120161000D01*
X162635000Y-120121000D02*
X162275000Y-120121000D01*
X164675000Y-120121000D02*
X164315000Y-120121000D01*
X162635000Y-120081000D02*
X162221000Y-120081000D01*
X164729000Y-120081000D02*
X164315000Y-120081000D01*
X162635000Y-120041000D02*
X162171000Y-120041000D01*
X164779000Y-120041000D02*
X164315000Y-120041000D01*
X162635000Y-120001000D02*
X162124000Y-120001000D01*
X164826000Y-120001000D02*
X164315000Y-120001000D01*
X162635000Y-119961000D02*
X162079000Y-119961000D01*
X164871000Y-119961000D02*
X164315000Y-119961000D01*
X162635000Y-119921000D02*
X162037000Y-119921000D01*
X164913000Y-119921000D02*
X164315000Y-119921000D01*
X162635000Y-119881000D02*
X161997000Y-119881000D01*
X164953000Y-119881000D02*
X164315000Y-119881000D01*
X162635000Y-119841000D02*
X161959000Y-119841000D01*
X164991000Y-119841000D02*
X164315000Y-119841000D01*
X162635000Y-119801000D02*
X161923000Y-119801000D01*
X165027000Y-119801000D02*
X164315000Y-119801000D01*
X162635000Y-119761000D02*
X161888000Y-119761000D01*
X165062000Y-119761000D02*
X164315000Y-119761000D01*
X162635000Y-119721000D02*
X161856000Y-119721000D01*
X165094000Y-119721000D02*
X164315000Y-119721000D01*
X162635000Y-119681000D02*
X161825000Y-119681000D01*
X165125000Y-119681000D02*
X164315000Y-119681000D01*
X162635000Y-119641000D02*
X161795000Y-119641000D01*
X165155000Y-119641000D02*
X164315000Y-119641000D01*
X162635000Y-119601000D02*
X161767000Y-119601000D01*
X165183000Y-119601000D02*
X164315000Y-119601000D01*
X162635000Y-119561000D02*
X161740000Y-119561000D01*
X165210000Y-119561000D02*
X164315000Y-119561000D01*
X162635000Y-119521000D02*
X161715000Y-119521000D01*
X165235000Y-119521000D02*
X164315000Y-119521000D01*
X162635000Y-119481000D02*
X161690000Y-119481000D01*
X165260000Y-119481000D02*
X164315000Y-119481000D01*
X162635000Y-119441000D02*
X161667000Y-119441000D01*
X165283000Y-119441000D02*
X164315000Y-119441000D01*
X162635000Y-119401000D02*
X161645000Y-119401000D01*
X165305000Y-119401000D02*
X164315000Y-119401000D01*
X162635000Y-119361000D02*
X161624000Y-119361000D01*
X165326000Y-119361000D02*
X164315000Y-119361000D01*
X162635000Y-119321000D02*
X161605000Y-119321000D01*
X165345000Y-119321000D02*
X164315000Y-119321000D01*
X162635000Y-119281000D02*
X161586000Y-119281000D01*
X165364000Y-119281000D02*
X164315000Y-119281000D01*
X162635000Y-119241000D02*
X161568000Y-119241000D01*
X165382000Y-119241000D02*
X164315000Y-119241000D01*
X162635000Y-119201000D02*
X161551000Y-119201000D01*
X165399000Y-119201000D02*
X164315000Y-119201000D01*
X162635000Y-119161000D02*
X161535000Y-119161000D01*
X165415000Y-119161000D02*
X164315000Y-119161000D01*
X162635000Y-119121000D02*
X161521000Y-119121000D01*
X165429000Y-119121000D02*
X164315000Y-119121000D01*
X162635000Y-119080000D02*
X161507000Y-119080000D01*
X165443000Y-119080000D02*
X164315000Y-119080000D01*
X162635000Y-119040000D02*
X161493000Y-119040000D01*
X165457000Y-119040000D02*
X164315000Y-119040000D01*
X162635000Y-119000000D02*
X161481000Y-119000000D01*
X165469000Y-119000000D02*
X164315000Y-119000000D01*
X162635000Y-118960000D02*
X161470000Y-118960000D01*
X165480000Y-118960000D02*
X164315000Y-118960000D01*
X162635000Y-118920000D02*
X161459000Y-118920000D01*
X165491000Y-118920000D02*
X164315000Y-118920000D01*
X162635000Y-118880000D02*
X161450000Y-118880000D01*
X165500000Y-118880000D02*
X164315000Y-118880000D01*
X162635000Y-118840000D02*
X161441000Y-118840000D01*
X165509000Y-118840000D02*
X164315000Y-118840000D01*
X162635000Y-118800000D02*
X161433000Y-118800000D01*
X165517000Y-118800000D02*
X164315000Y-118800000D01*
X162635000Y-118760000D02*
X161425000Y-118760000D01*
X165525000Y-118760000D02*
X164315000Y-118760000D01*
X162635000Y-118720000D02*
X161419000Y-118720000D01*
X165531000Y-118720000D02*
X164315000Y-118720000D01*
X162635000Y-118680000D02*
X161413000Y-118680000D01*
X165537000Y-118680000D02*
X164315000Y-118680000D01*
X162635000Y-118640000D02*
X161408000Y-118640000D01*
X165542000Y-118640000D02*
X164315000Y-118640000D01*
X162635000Y-118600000D02*
X161404000Y-118600000D01*
X165546000Y-118600000D02*
X164315000Y-118600000D01*
X165549000Y-118560000D02*
X161401000Y-118560000D01*
X165552000Y-118520000D02*
X161398000Y-118520000D01*
X165554000Y-118480000D02*
X161396000Y-118480000D01*
X165555000Y-118440000D02*
X161395000Y-118440000D01*
X165555000Y-118400000D02*
X161395000Y-118400000D01*
X165595000Y-118400000D02*
G75*
G03X165595000Y-118400000I-2120000J0D01*
G01*
X77630000Y-53444801D02*
X78030000Y-53444801D01*
X77830000Y-53644801D02*
X77830000Y-53244801D01*
X78655000Y-49294000D02*
X79395000Y-49294000D01*
X78488000Y-49334000D02*
X79562000Y-49334000D01*
X78361000Y-49374000D02*
X79689000Y-49374000D01*
X78257000Y-49414000D02*
X79793000Y-49414000D01*
X78166000Y-49454000D02*
X79884000Y-49454000D01*
X78085000Y-49494000D02*
X79965000Y-49494000D01*
X78012000Y-49534000D02*
X80038000Y-49534000D01*
X79865000Y-49574000D02*
X80105000Y-49574000D01*
X77945000Y-49574000D02*
X78185000Y-49574000D01*
X79865000Y-49614000D02*
X80167000Y-49614000D01*
X77883000Y-49614000D02*
X78185000Y-49614000D01*
X79865000Y-49654000D02*
X80225000Y-49654000D01*
X77825000Y-49654000D02*
X78185000Y-49654000D01*
X79865000Y-49694000D02*
X80279000Y-49694000D01*
X77771000Y-49694000D02*
X78185000Y-49694000D01*
X79865000Y-49734000D02*
X80329000Y-49734000D01*
X77721000Y-49734000D02*
X78185000Y-49734000D01*
X79865000Y-49774000D02*
X80376000Y-49774000D01*
X77674000Y-49774000D02*
X78185000Y-49774000D01*
X79865000Y-49814000D02*
X80421000Y-49814000D01*
X77629000Y-49814000D02*
X78185000Y-49814000D01*
X79865000Y-49854000D02*
X80463000Y-49854000D01*
X77587000Y-49854000D02*
X78185000Y-49854000D01*
X79865000Y-49894000D02*
X80503000Y-49894000D01*
X77547000Y-49894000D02*
X78185000Y-49894000D01*
X79865000Y-49934000D02*
X80541000Y-49934000D01*
X77509000Y-49934000D02*
X78185000Y-49934000D01*
X79865000Y-49974000D02*
X80577000Y-49974000D01*
X77473000Y-49974000D02*
X78185000Y-49974000D01*
X79865000Y-50014000D02*
X80612000Y-50014000D01*
X77438000Y-50014000D02*
X78185000Y-50014000D01*
X79865000Y-50054000D02*
X80644000Y-50054000D01*
X77406000Y-50054000D02*
X78185000Y-50054000D01*
X79865000Y-50094000D02*
X80675000Y-50094000D01*
X77375000Y-50094000D02*
X78185000Y-50094000D01*
X79865000Y-50134000D02*
X80705000Y-50134000D01*
X77345000Y-50134000D02*
X78185000Y-50134000D01*
X79865000Y-50174000D02*
X80733000Y-50174000D01*
X77317000Y-50174000D02*
X78185000Y-50174000D01*
X79865000Y-50214000D02*
X80760000Y-50214000D01*
X77290000Y-50214000D02*
X78185000Y-50214000D01*
X79865000Y-50254000D02*
X80785000Y-50254000D01*
X77265000Y-50254000D02*
X78185000Y-50254000D01*
X79865000Y-50294000D02*
X80810000Y-50294000D01*
X77240000Y-50294000D02*
X78185000Y-50294000D01*
X79865000Y-50334000D02*
X80833000Y-50334000D01*
X77217000Y-50334000D02*
X78185000Y-50334000D01*
X79865000Y-50374000D02*
X80855000Y-50374000D01*
X77195000Y-50374000D02*
X78185000Y-50374000D01*
X79865000Y-50414000D02*
X80876000Y-50414000D01*
X77174000Y-50414000D02*
X78185000Y-50414000D01*
X79865000Y-50454000D02*
X80895000Y-50454000D01*
X77155000Y-50454000D02*
X78185000Y-50454000D01*
X79865000Y-50494000D02*
X80914000Y-50494000D01*
X77136000Y-50494000D02*
X78185000Y-50494000D01*
X79865000Y-50534000D02*
X80932000Y-50534000D01*
X77118000Y-50534000D02*
X78185000Y-50534000D01*
X79865000Y-50574000D02*
X80949000Y-50574000D01*
X77101000Y-50574000D02*
X78185000Y-50574000D01*
X79865000Y-50614000D02*
X80965000Y-50614000D01*
X77085000Y-50614000D02*
X78185000Y-50614000D01*
X79865000Y-50654000D02*
X80979000Y-50654000D01*
X77071000Y-50654000D02*
X78185000Y-50654000D01*
X79865000Y-50695000D02*
X80993000Y-50695000D01*
X77057000Y-50695000D02*
X78185000Y-50695000D01*
X79865000Y-50735000D02*
X81007000Y-50735000D01*
X77043000Y-50735000D02*
X78185000Y-50735000D01*
X79865000Y-50775000D02*
X81019000Y-50775000D01*
X77031000Y-50775000D02*
X78185000Y-50775000D01*
X79865000Y-50815000D02*
X81030000Y-50815000D01*
X77020000Y-50815000D02*
X78185000Y-50815000D01*
X79865000Y-50855000D02*
X81041000Y-50855000D01*
X77009000Y-50855000D02*
X78185000Y-50855000D01*
X79865000Y-50895000D02*
X81050000Y-50895000D01*
X77000000Y-50895000D02*
X78185000Y-50895000D01*
X79865000Y-50935000D02*
X81059000Y-50935000D01*
X76991000Y-50935000D02*
X78185000Y-50935000D01*
X79865000Y-50975000D02*
X81067000Y-50975000D01*
X76983000Y-50975000D02*
X78185000Y-50975000D01*
X79865000Y-51015000D02*
X81075000Y-51015000D01*
X76975000Y-51015000D02*
X78185000Y-51015000D01*
X79865000Y-51055000D02*
X81081000Y-51055000D01*
X76969000Y-51055000D02*
X78185000Y-51055000D01*
X79865000Y-51095000D02*
X81087000Y-51095000D01*
X76963000Y-51095000D02*
X78185000Y-51095000D01*
X79865000Y-51135000D02*
X81092000Y-51135000D01*
X76958000Y-51135000D02*
X78185000Y-51135000D01*
X79865000Y-51175000D02*
X81096000Y-51175000D01*
X76954000Y-51175000D02*
X78185000Y-51175000D01*
X76951000Y-51215000D02*
X81099000Y-51215000D01*
X76948000Y-51255000D02*
X81102000Y-51255000D01*
X76946000Y-51295000D02*
X81104000Y-51295000D01*
X76945000Y-51335000D02*
X81105000Y-51335000D01*
X76945000Y-51375000D02*
X81105000Y-51375000D01*
X81145000Y-51375000D02*
G75*
G03X81145000Y-51375000I-2120000J0D01*
G01*
D10*
X78011904Y-118777380D02*
X78011904Y-119586904D01*
X78059523Y-119682142D01*
X78107142Y-119729761D01*
X78202380Y-119777380D01*
X78392857Y-119777380D01*
X78488095Y-119729761D01*
X78535714Y-119682142D01*
X78583333Y-119586904D01*
X78583333Y-118777380D01*
X79583333Y-119777380D02*
X79011904Y-119777380D01*
X79297619Y-119777380D02*
X79297619Y-118777380D01*
X79202380Y-118920238D01*
X79107142Y-119015476D01*
X79011904Y-119063095D01*
X79916666Y-118777380D02*
X80535714Y-118777380D01*
X80202380Y-119158333D01*
X80345238Y-119158333D01*
X80440476Y-119205952D01*
X80488095Y-119253571D01*
X80535714Y-119348809D01*
X80535714Y-119586904D01*
X80488095Y-119682142D01*
X80440476Y-119729761D01*
X80345238Y-119777380D01*
X80059523Y-119777380D01*
X79964285Y-119729761D01*
X79916666Y-119682142D01*
X90057142Y-118777380D02*
X90723809Y-118777380D01*
X90295238Y-119777380D01*
X91533333Y-119110714D02*
X91533333Y-119777380D01*
X91295238Y-118729761D02*
X91057142Y-119444047D01*
X91676190Y-119444047D01*
X92533333Y-119777380D02*
X92057142Y-119777380D01*
X92057142Y-118777380D01*
X92819047Y-119729761D02*
X92961904Y-119777380D01*
X93200000Y-119777380D01*
X93295238Y-119729761D01*
X93342857Y-119682142D01*
X93390476Y-119586904D01*
X93390476Y-119491666D01*
X93342857Y-119396428D01*
X93295238Y-119348809D01*
X93200000Y-119301190D01*
X93009523Y-119253571D01*
X92914285Y-119205952D01*
X92866666Y-119158333D01*
X92819047Y-119063095D01*
X92819047Y-118967857D01*
X92866666Y-118872619D01*
X92914285Y-118825000D01*
X93009523Y-118777380D01*
X93247619Y-118777380D01*
X93390476Y-118825000D01*
X94009523Y-118777380D02*
X94104761Y-118777380D01*
X94200000Y-118825000D01*
X94247619Y-118872619D01*
X94295238Y-118967857D01*
X94342857Y-119158333D01*
X94342857Y-119396428D01*
X94295238Y-119586904D01*
X94247619Y-119682142D01*
X94200000Y-119729761D01*
X94104761Y-119777380D01*
X94009523Y-119777380D01*
X93914285Y-119729761D01*
X93866666Y-119682142D01*
X93819047Y-119586904D01*
X93771428Y-119396428D01*
X93771428Y-119158333D01*
X93819047Y-118967857D01*
X93866666Y-118872619D01*
X93914285Y-118825000D01*
X94009523Y-118777380D01*
X95200000Y-119110714D02*
X95200000Y-119777380D01*
X94961904Y-118729761D02*
X94723809Y-119444047D01*
X95342857Y-119444047D01*
X90082142Y-106082142D02*
X90034523Y-106129761D01*
X89891666Y-106177380D01*
X89796428Y-106177380D01*
X89653571Y-106129761D01*
X89558333Y-106034523D01*
X89510714Y-105939285D01*
X89463095Y-105748809D01*
X89463095Y-105605952D01*
X89510714Y-105415476D01*
X89558333Y-105320238D01*
X89653571Y-105225000D01*
X89796428Y-105177380D01*
X89891666Y-105177380D01*
X90034523Y-105225000D01*
X90082142Y-105272619D01*
X91034523Y-106177380D02*
X90463095Y-106177380D01*
X90748809Y-106177380D02*
X90748809Y-105177380D01*
X90653571Y-105320238D01*
X90558333Y-105415476D01*
X90463095Y-105463095D01*
X91891666Y-105177380D02*
X91701190Y-105177380D01*
X91605952Y-105225000D01*
X91558333Y-105272619D01*
X91463095Y-105415476D01*
X91415476Y-105605952D01*
X91415476Y-105986904D01*
X91463095Y-106082142D01*
X91510714Y-106129761D01*
X91605952Y-106177380D01*
X91796428Y-106177380D01*
X91891666Y-106129761D01*
X91939285Y-106082142D01*
X91986904Y-105986904D01*
X91986904Y-105748809D01*
X91939285Y-105653571D01*
X91891666Y-105605952D01*
X91796428Y-105558333D01*
X91605952Y-105558333D01*
X91510714Y-105605952D01*
X91463095Y-105653571D01*
X91415476Y-105748809D01*
X85677380Y-106889285D02*
X85677380Y-106794047D01*
X85725000Y-106698809D01*
X85772619Y-106651190D01*
X85867857Y-106603571D01*
X86058333Y-106555952D01*
X86296428Y-106555952D01*
X86486904Y-106603571D01*
X86582142Y-106651190D01*
X86629761Y-106698809D01*
X86677380Y-106794047D01*
X86677380Y-106889285D01*
X86629761Y-106984523D01*
X86582142Y-107032142D01*
X86486904Y-107079761D01*
X86296428Y-107127380D01*
X86058333Y-107127380D01*
X85867857Y-107079761D01*
X85772619Y-107032142D01*
X85725000Y-106984523D01*
X85677380Y-106889285D01*
X86582142Y-106127380D02*
X86629761Y-106079761D01*
X86677380Y-106127380D01*
X86629761Y-106175000D01*
X86582142Y-106127380D01*
X86677380Y-106127380D01*
X86677380Y-105127380D02*
X86677380Y-105698809D01*
X86677380Y-105413095D02*
X85677380Y-105413095D01*
X85820238Y-105508333D01*
X85915476Y-105603571D01*
X85963095Y-105698809D01*
X86010714Y-104270238D02*
X86677380Y-104270238D01*
X86010714Y-104698809D02*
X86534523Y-104698809D01*
X86629761Y-104651190D01*
X86677380Y-104555952D01*
X86677380Y-104413095D01*
X86629761Y-104317857D01*
X86582142Y-104270238D01*
X81032142Y-106182142D02*
X80984523Y-106229761D01*
X80841666Y-106277380D01*
X80746428Y-106277380D01*
X80603571Y-106229761D01*
X80508333Y-106134523D01*
X80460714Y-106039285D01*
X80413095Y-105848809D01*
X80413095Y-105705952D01*
X80460714Y-105515476D01*
X80508333Y-105420238D01*
X80603571Y-105325000D01*
X80746428Y-105277380D01*
X80841666Y-105277380D01*
X80984523Y-105325000D01*
X81032142Y-105372619D01*
X81984523Y-106277380D02*
X81413095Y-106277380D01*
X81698809Y-106277380D02*
X81698809Y-105277380D01*
X81603571Y-105420238D01*
X81508333Y-105515476D01*
X81413095Y-105563095D01*
X82889285Y-105277380D02*
X82413095Y-105277380D01*
X82365476Y-105753571D01*
X82413095Y-105705952D01*
X82508333Y-105658333D01*
X82746428Y-105658333D01*
X82841666Y-105705952D01*
X82889285Y-105753571D01*
X82936904Y-105848809D01*
X82936904Y-106086904D01*
X82889285Y-106182142D01*
X82841666Y-106229761D01*
X82746428Y-106277380D01*
X82508333Y-106277380D01*
X82413095Y-106229761D01*
X82365476Y-106182142D01*
X76452380Y-107189285D02*
X76452380Y-107094047D01*
X76500000Y-106998809D01*
X76547619Y-106951190D01*
X76642857Y-106903571D01*
X76833333Y-106855952D01*
X77071428Y-106855952D01*
X77261904Y-106903571D01*
X77357142Y-106951190D01*
X77404761Y-106998809D01*
X77452380Y-107094047D01*
X77452380Y-107189285D01*
X77404761Y-107284523D01*
X77357142Y-107332142D01*
X77261904Y-107379761D01*
X77071428Y-107427380D01*
X76833333Y-107427380D01*
X76642857Y-107379761D01*
X76547619Y-107332142D01*
X76500000Y-107284523D01*
X76452380Y-107189285D01*
X77357142Y-106427380D02*
X77404761Y-106379761D01*
X77452380Y-106427380D01*
X77404761Y-106475000D01*
X77357142Y-106427380D01*
X77452380Y-106427380D01*
X77452380Y-105427380D02*
X77452380Y-105998809D01*
X77452380Y-105713095D02*
X76452380Y-105713095D01*
X76595238Y-105808333D01*
X76690476Y-105903571D01*
X76738095Y-105998809D01*
X76785714Y-104570238D02*
X77452380Y-104570238D01*
X76785714Y-104998809D02*
X77309523Y-104998809D01*
X77404761Y-104951190D01*
X77452380Y-104855952D01*
X77452380Y-104713095D01*
X77404761Y-104617857D01*
X77357142Y-104570238D01*
X87086904Y-131327380D02*
X87086904Y-132136904D01*
X87134523Y-132232142D01*
X87182142Y-132279761D01*
X87277380Y-132327380D01*
X87467857Y-132327380D01*
X87563095Y-132279761D01*
X87610714Y-132232142D01*
X87658333Y-132136904D01*
X87658333Y-131327380D01*
X88658333Y-132327380D02*
X88086904Y-132327380D01*
X88372619Y-132327380D02*
X88372619Y-131327380D01*
X88277380Y-131470238D01*
X88182142Y-131565476D01*
X88086904Y-131613095D01*
X89039285Y-131422619D02*
X89086904Y-131375000D01*
X89182142Y-131327380D01*
X89420238Y-131327380D01*
X89515476Y-131375000D01*
X89563095Y-131422619D01*
X89610714Y-131517857D01*
X89610714Y-131613095D01*
X89563095Y-131755952D01*
X88991666Y-132327380D01*
X89610714Y-132327380D01*
X90582142Y-131352380D02*
X91248809Y-131352380D01*
X90820238Y-132352380D01*
X92058333Y-131685714D02*
X92058333Y-132352380D01*
X91820238Y-131304761D02*
X91582142Y-132019047D01*
X92201190Y-132019047D01*
X93058333Y-132352380D02*
X92582142Y-132352380D01*
X92582142Y-131352380D01*
X93344047Y-132304761D02*
X93486904Y-132352380D01*
X93725000Y-132352380D01*
X93820238Y-132304761D01*
X93867857Y-132257142D01*
X93915476Y-132161904D01*
X93915476Y-132066666D01*
X93867857Y-131971428D01*
X93820238Y-131923809D01*
X93725000Y-131876190D01*
X93534523Y-131828571D01*
X93439285Y-131780952D01*
X93391666Y-131733333D01*
X93344047Y-131638095D01*
X93344047Y-131542857D01*
X93391666Y-131447619D01*
X93439285Y-131400000D01*
X93534523Y-131352380D01*
X93772619Y-131352380D01*
X93915476Y-131400000D01*
X94248809Y-131352380D02*
X94867857Y-131352380D01*
X94534523Y-131733333D01*
X94677380Y-131733333D01*
X94772619Y-131780952D01*
X94820238Y-131828571D01*
X94867857Y-131923809D01*
X94867857Y-132161904D01*
X94820238Y-132257142D01*
X94772619Y-132304761D01*
X94677380Y-132352380D01*
X94391666Y-132352380D01*
X94296428Y-132304761D01*
X94248809Y-132257142D01*
X95248809Y-131447619D02*
X95296428Y-131400000D01*
X95391666Y-131352380D01*
X95629761Y-131352380D01*
X95725000Y-131400000D01*
X95772619Y-131447619D01*
X95820238Y-131542857D01*
X95820238Y-131638095D01*
X95772619Y-131780952D01*
X95201190Y-132352380D01*
X95820238Y-132352380D01*
X69231666Y-93322380D02*
X69231666Y-94036666D01*
X69184047Y-94179523D01*
X69088809Y-94274761D01*
X68945952Y-94322380D01*
X68850714Y-94322380D01*
X70136428Y-93655714D02*
X70136428Y-94322380D01*
X69898333Y-93274761D02*
X69660238Y-93989047D01*
X70279285Y-93989047D01*
X76002380Y-93130952D02*
X76002380Y-93321428D01*
X76050000Y-93416666D01*
X76097619Y-93464285D01*
X76240476Y-93559523D01*
X76430952Y-93607142D01*
X76811904Y-93607142D01*
X76907142Y-93559523D01*
X76954761Y-93511904D01*
X77002380Y-93416666D01*
X77002380Y-93226190D01*
X76954761Y-93130952D01*
X76907142Y-93083333D01*
X76811904Y-93035714D01*
X76573809Y-93035714D01*
X76478571Y-93083333D01*
X76430952Y-93130952D01*
X76383333Y-93226190D01*
X76383333Y-93416666D01*
X76430952Y-93511904D01*
X76478571Y-93559523D01*
X76573809Y-93607142D01*
X76002380Y-92130952D02*
X76002380Y-92607142D01*
X76478571Y-92654761D01*
X76430952Y-92607142D01*
X76383333Y-92511904D01*
X76383333Y-92273809D01*
X76430952Y-92178571D01*
X76478571Y-92130952D01*
X76573809Y-92083333D01*
X76811904Y-92083333D01*
X76907142Y-92130952D01*
X76954761Y-92178571D01*
X77002380Y-92273809D01*
X77002380Y-92511904D01*
X76954761Y-92607142D01*
X76907142Y-92654761D01*
X76002380Y-91464285D02*
X76002380Y-91369047D01*
X76050000Y-91273809D01*
X76097619Y-91226190D01*
X76192857Y-91178571D01*
X76383333Y-91130952D01*
X76621428Y-91130952D01*
X76811904Y-91178571D01*
X76907142Y-91226190D01*
X76954761Y-91273809D01*
X77002380Y-91369047D01*
X77002380Y-91464285D01*
X76954761Y-91559523D01*
X76907142Y-91607142D01*
X76811904Y-91654761D01*
X76621428Y-91702380D01*
X76383333Y-91702380D01*
X76192857Y-91654761D01*
X76097619Y-91607142D01*
X76050000Y-91559523D01*
X76002380Y-91464285D01*
X76097619Y-90750000D02*
X76050000Y-90702380D01*
X76002380Y-90607142D01*
X76002380Y-90369047D01*
X76050000Y-90273809D01*
X76097619Y-90226190D01*
X76192857Y-90178571D01*
X76288095Y-90178571D01*
X76430952Y-90226190D01*
X77002380Y-90797619D01*
X77002380Y-90178571D01*
X77002380Y-88416666D02*
X76526190Y-88750000D01*
X77002380Y-88988095D02*
X76002380Y-88988095D01*
X76002380Y-88607142D01*
X76050000Y-88511904D01*
X76097619Y-88464285D01*
X76192857Y-88416666D01*
X76335714Y-88416666D01*
X76430952Y-88464285D01*
X76478571Y-88511904D01*
X76526190Y-88607142D01*
X76526190Y-88988095D01*
X76478571Y-87988095D02*
X76478571Y-87654761D01*
X77002380Y-87511904D02*
X77002380Y-87988095D01*
X76002380Y-87988095D01*
X76002380Y-87511904D01*
X76954761Y-87130952D02*
X77002380Y-86988095D01*
X77002380Y-86750000D01*
X76954761Y-86654761D01*
X76907142Y-86607142D01*
X76811904Y-86559523D01*
X76716666Y-86559523D01*
X76621428Y-86607142D01*
X76573809Y-86654761D01*
X76526190Y-86750000D01*
X76478571Y-86940476D01*
X76430952Y-87035714D01*
X76383333Y-87083333D01*
X76288095Y-87130952D01*
X76192857Y-87130952D01*
X76097619Y-87083333D01*
X76050000Y-87035714D01*
X76002380Y-86940476D01*
X76002380Y-86702380D01*
X76050000Y-86559523D01*
X76478571Y-86130952D02*
X76478571Y-85797619D01*
X77002380Y-85654761D02*
X77002380Y-86130952D01*
X76002380Y-86130952D01*
X76002380Y-85654761D01*
X76002380Y-85369047D02*
X76002380Y-84797619D01*
X77002380Y-85083333D02*
X76002380Y-85083333D01*
X100635714Y-37752380D02*
X100730952Y-37752380D01*
X100826190Y-37800000D01*
X100873809Y-37847619D01*
X100921428Y-37942857D01*
X100969047Y-38133333D01*
X100969047Y-38371428D01*
X100921428Y-38561904D01*
X100873809Y-38657142D01*
X100826190Y-38704761D01*
X100730952Y-38752380D01*
X100635714Y-38752380D01*
X100540476Y-38704761D01*
X100492857Y-38657142D01*
X100445238Y-38561904D01*
X100397619Y-38371428D01*
X100397619Y-38133333D01*
X100445238Y-37942857D01*
X100492857Y-37847619D01*
X100540476Y-37800000D01*
X100635714Y-37752380D01*
X101397619Y-38657142D02*
X101445238Y-38704761D01*
X101397619Y-38752380D01*
X101350000Y-38704761D01*
X101397619Y-38657142D01*
X101397619Y-38752380D01*
X102397619Y-38752380D02*
X101826190Y-38752380D01*
X102111904Y-38752380D02*
X102111904Y-37752380D01*
X102016666Y-37895238D01*
X101921428Y-37990476D01*
X101826190Y-38038095D01*
X103254761Y-38085714D02*
X103254761Y-38752380D01*
X102826190Y-38085714D02*
X102826190Y-38609523D01*
X102873809Y-38704761D01*
X102969047Y-38752380D01*
X103111904Y-38752380D01*
X103207142Y-38704761D01*
X103254761Y-38657142D01*
X101257142Y-36232142D02*
X101209523Y-36279761D01*
X101066666Y-36327380D01*
X100971428Y-36327380D01*
X100828571Y-36279761D01*
X100733333Y-36184523D01*
X100685714Y-36089285D01*
X100638095Y-35898809D01*
X100638095Y-35755952D01*
X100685714Y-35565476D01*
X100733333Y-35470238D01*
X100828571Y-35375000D01*
X100971428Y-35327380D01*
X101066666Y-35327380D01*
X101209523Y-35375000D01*
X101257142Y-35422619D01*
X102209523Y-36327380D02*
X101638095Y-36327380D01*
X101923809Y-36327380D02*
X101923809Y-35327380D01*
X101828571Y-35470238D01*
X101733333Y-35565476D01*
X101638095Y-35613095D01*
X103066666Y-35660714D02*
X103066666Y-36327380D01*
X102828571Y-35279761D02*
X102590476Y-35994047D01*
X103209523Y-35994047D01*
X97383333Y-88002380D02*
X97050000Y-87526190D01*
X96811904Y-88002380D02*
X96811904Y-87002380D01*
X97192857Y-87002380D01*
X97288095Y-87050000D01*
X97335714Y-87097619D01*
X97383333Y-87192857D01*
X97383333Y-87335714D01*
X97335714Y-87430952D01*
X97288095Y-87478571D01*
X97192857Y-87526190D01*
X96811904Y-87526190D01*
X97954761Y-87430952D02*
X97859523Y-87383333D01*
X97811904Y-87335714D01*
X97764285Y-87240476D01*
X97764285Y-87192857D01*
X97811904Y-87097619D01*
X97859523Y-87050000D01*
X97954761Y-87002380D01*
X98145238Y-87002380D01*
X98240476Y-87050000D01*
X98288095Y-87097619D01*
X98335714Y-87192857D01*
X98335714Y-87240476D01*
X98288095Y-87335714D01*
X98240476Y-87383333D01*
X98145238Y-87430952D01*
X97954761Y-87430952D01*
X97859523Y-87478571D01*
X97811904Y-87526190D01*
X97764285Y-87621428D01*
X97764285Y-87811904D01*
X97811904Y-87907142D01*
X97859523Y-87954761D01*
X97954761Y-88002380D01*
X98145238Y-88002380D01*
X98240476Y-87954761D01*
X98288095Y-87907142D01*
X98335714Y-87811904D01*
X98335714Y-87621428D01*
X98288095Y-87526190D01*
X98240476Y-87478571D01*
X98145238Y-87430952D01*
X96638095Y-89310714D02*
X96638095Y-89977380D01*
X96400000Y-88929761D02*
X96161904Y-89644047D01*
X96780952Y-89644047D01*
X97066666Y-88977380D02*
X97733333Y-88977380D01*
X97304761Y-89977380D01*
X98304761Y-88977380D02*
X98400000Y-88977380D01*
X98495238Y-89025000D01*
X98542857Y-89072619D01*
X98590476Y-89167857D01*
X98638095Y-89358333D01*
X98638095Y-89596428D01*
X98590476Y-89786904D01*
X98542857Y-89882142D01*
X98495238Y-89929761D01*
X98400000Y-89977380D01*
X98304761Y-89977380D01*
X98209523Y-89929761D01*
X98161904Y-89882142D01*
X98114285Y-89786904D01*
X98066666Y-89596428D01*
X98066666Y-89358333D01*
X98114285Y-89167857D01*
X98161904Y-89072619D01*
X98209523Y-89025000D01*
X98304761Y-88977380D01*
X70017380Y-99468095D02*
X69017380Y-99468095D01*
X69017380Y-99230000D01*
X69065000Y-99087142D01*
X69160238Y-98991904D01*
X69255476Y-98944285D01*
X69445952Y-98896666D01*
X69588809Y-98896666D01*
X69779285Y-98944285D01*
X69874523Y-98991904D01*
X69969761Y-99087142D01*
X70017380Y-99230000D01*
X70017380Y-99468095D01*
X69017380Y-98563333D02*
X69017380Y-97896666D01*
X70017380Y-98325238D01*
X74937380Y-99968095D02*
X74937380Y-100158571D01*
X74985000Y-100253809D01*
X75032619Y-100301428D01*
X75175476Y-100396666D01*
X75365952Y-100444285D01*
X75746904Y-100444285D01*
X75842142Y-100396666D01*
X75889761Y-100349047D01*
X75937380Y-100253809D01*
X75937380Y-100063333D01*
X75889761Y-99968095D01*
X75842142Y-99920476D01*
X75746904Y-99872857D01*
X75508809Y-99872857D01*
X75413571Y-99920476D01*
X75365952Y-99968095D01*
X75318333Y-100063333D01*
X75318333Y-100253809D01*
X75365952Y-100349047D01*
X75413571Y-100396666D01*
X75508809Y-100444285D01*
X74937380Y-98968095D02*
X74937380Y-99444285D01*
X75413571Y-99491904D01*
X75365952Y-99444285D01*
X75318333Y-99349047D01*
X75318333Y-99110952D01*
X75365952Y-99015714D01*
X75413571Y-98968095D01*
X75508809Y-98920476D01*
X75746904Y-98920476D01*
X75842142Y-98968095D01*
X75889761Y-99015714D01*
X75937380Y-99110952D01*
X75937380Y-99349047D01*
X75889761Y-99444285D01*
X75842142Y-99491904D01*
X74937380Y-98301428D02*
X74937380Y-98206190D01*
X74985000Y-98110952D01*
X75032619Y-98063333D01*
X75127857Y-98015714D01*
X75318333Y-97968095D01*
X75556428Y-97968095D01*
X75746904Y-98015714D01*
X75842142Y-98063333D01*
X75889761Y-98110952D01*
X75937380Y-98206190D01*
X75937380Y-98301428D01*
X75889761Y-98396666D01*
X75842142Y-98444285D01*
X75746904Y-98491904D01*
X75556428Y-98539523D01*
X75318333Y-98539523D01*
X75127857Y-98491904D01*
X75032619Y-98444285D01*
X74985000Y-98396666D01*
X74937380Y-98301428D01*
X75032619Y-97587142D02*
X74985000Y-97539523D01*
X74937380Y-97444285D01*
X74937380Y-97206190D01*
X74985000Y-97110952D01*
X75032619Y-97063333D01*
X75127857Y-97015714D01*
X75223095Y-97015714D01*
X75365952Y-97063333D01*
X75937380Y-97634761D01*
X75937380Y-97015714D01*
X85773333Y-87502380D02*
X85440000Y-87026190D01*
X85201904Y-87502380D02*
X85201904Y-86502380D01*
X85582857Y-86502380D01*
X85678095Y-86550000D01*
X85725714Y-86597619D01*
X85773333Y-86692857D01*
X85773333Y-86835714D01*
X85725714Y-86930952D01*
X85678095Y-86978571D01*
X85582857Y-87026190D01*
X85201904Y-87026190D01*
X86106666Y-86502380D02*
X86773333Y-86502380D01*
X86344761Y-87502380D01*
X78553095Y-86760714D02*
X78553095Y-87427380D01*
X78315000Y-86379761D02*
X78076904Y-87094047D01*
X78695952Y-87094047D01*
X78981666Y-86427380D02*
X79648333Y-86427380D01*
X79219761Y-87427380D01*
X80219761Y-86427380D02*
X80315000Y-86427380D01*
X80410238Y-86475000D01*
X80457857Y-86522619D01*
X80505476Y-86617857D01*
X80553095Y-86808333D01*
X80553095Y-87046428D01*
X80505476Y-87236904D01*
X80457857Y-87332142D01*
X80410238Y-87379761D01*
X80315000Y-87427380D01*
X80219761Y-87427380D01*
X80124523Y-87379761D01*
X80076904Y-87332142D01*
X80029285Y-87236904D01*
X79981666Y-87046428D01*
X79981666Y-86808333D01*
X80029285Y-86617857D01*
X80076904Y-86522619D01*
X80124523Y-86475000D01*
X80219761Y-86427380D01*
X86193333Y-98652380D02*
X85860000Y-98176190D01*
X85621904Y-98652380D02*
X85621904Y-97652380D01*
X86002857Y-97652380D01*
X86098095Y-97700000D01*
X86145714Y-97747619D01*
X86193333Y-97842857D01*
X86193333Y-97985714D01*
X86145714Y-98080952D01*
X86098095Y-98128571D01*
X86002857Y-98176190D01*
X85621904Y-98176190D01*
X87050476Y-97652380D02*
X86860000Y-97652380D01*
X86764761Y-97700000D01*
X86717142Y-97747619D01*
X86621904Y-97890476D01*
X86574285Y-98080952D01*
X86574285Y-98461904D01*
X86621904Y-98557142D01*
X86669523Y-98604761D01*
X86764761Y-98652380D01*
X86955238Y-98652380D01*
X87050476Y-98604761D01*
X87098095Y-98557142D01*
X87145714Y-98461904D01*
X87145714Y-98223809D01*
X87098095Y-98128571D01*
X87050476Y-98080952D01*
X86955238Y-98033333D01*
X86764761Y-98033333D01*
X86669523Y-98080952D01*
X86621904Y-98128571D01*
X86574285Y-98223809D01*
X78498095Y-97485714D02*
X78498095Y-98152380D01*
X78260000Y-97104761D02*
X78021904Y-97819047D01*
X78640952Y-97819047D01*
X78926666Y-97152380D02*
X79593333Y-97152380D01*
X79164761Y-98152380D01*
X80164761Y-97152380D02*
X80260000Y-97152380D01*
X80355238Y-97200000D01*
X80402857Y-97247619D01*
X80450476Y-97342857D01*
X80498095Y-97533333D01*
X80498095Y-97771428D01*
X80450476Y-97961904D01*
X80402857Y-98057142D01*
X80355238Y-98104761D01*
X80260000Y-98152380D01*
X80164761Y-98152380D01*
X80069523Y-98104761D01*
X80021904Y-98057142D01*
X79974285Y-97961904D01*
X79926666Y-97771428D01*
X79926666Y-97533333D01*
X79974285Y-97342857D01*
X80021904Y-97247619D01*
X80069523Y-97200000D01*
X80164761Y-97152380D01*
X86023333Y-91227380D02*
X85690000Y-90751190D01*
X85451904Y-91227380D02*
X85451904Y-90227380D01*
X85832857Y-90227380D01*
X85928095Y-90275000D01*
X85975714Y-90322619D01*
X86023333Y-90417857D01*
X86023333Y-90560714D01*
X85975714Y-90655952D01*
X85928095Y-90703571D01*
X85832857Y-90751190D01*
X85451904Y-90751190D01*
X86928095Y-90227380D02*
X86451904Y-90227380D01*
X86404285Y-90703571D01*
X86451904Y-90655952D01*
X86547142Y-90608333D01*
X86785238Y-90608333D01*
X86880476Y-90655952D01*
X86928095Y-90703571D01*
X86975714Y-90798809D01*
X86975714Y-91036904D01*
X86928095Y-91132142D01*
X86880476Y-91179761D01*
X86785238Y-91227380D01*
X86547142Y-91227380D01*
X86451904Y-91179761D01*
X86404285Y-91132142D01*
X78653095Y-90285714D02*
X78653095Y-90952380D01*
X78415000Y-89904761D02*
X78176904Y-90619047D01*
X78795952Y-90619047D01*
X79081666Y-89952380D02*
X79748333Y-89952380D01*
X79319761Y-90952380D01*
X80319761Y-89952380D02*
X80415000Y-89952380D01*
X80510238Y-90000000D01*
X80557857Y-90047619D01*
X80605476Y-90142857D01*
X80653095Y-90333333D01*
X80653095Y-90571428D01*
X80605476Y-90761904D01*
X80557857Y-90857142D01*
X80510238Y-90904761D01*
X80415000Y-90952380D01*
X80319761Y-90952380D01*
X80224523Y-90904761D01*
X80176904Y-90857142D01*
X80129285Y-90761904D01*
X80081666Y-90571428D01*
X80081666Y-90333333D01*
X80129285Y-90142857D01*
X80176904Y-90047619D01*
X80224523Y-90000000D01*
X80319761Y-89952380D01*
X85948333Y-94702380D02*
X85615000Y-94226190D01*
X85376904Y-94702380D02*
X85376904Y-93702380D01*
X85757857Y-93702380D01*
X85853095Y-93750000D01*
X85900714Y-93797619D01*
X85948333Y-93892857D01*
X85948333Y-94035714D01*
X85900714Y-94130952D01*
X85853095Y-94178571D01*
X85757857Y-94226190D01*
X85376904Y-94226190D01*
X86805476Y-94035714D02*
X86805476Y-94702380D01*
X86567380Y-93654761D02*
X86329285Y-94369047D01*
X86948333Y-94369047D01*
X78578095Y-94035714D02*
X78578095Y-94702380D01*
X78340000Y-93654761D02*
X78101904Y-94369047D01*
X78720952Y-94369047D01*
X79006666Y-93702380D02*
X79673333Y-93702380D01*
X79244761Y-94702380D01*
X80244761Y-93702380D02*
X80340000Y-93702380D01*
X80435238Y-93750000D01*
X80482857Y-93797619D01*
X80530476Y-93892857D01*
X80578095Y-94083333D01*
X80578095Y-94321428D01*
X80530476Y-94511904D01*
X80482857Y-94607142D01*
X80435238Y-94654761D01*
X80340000Y-94702380D01*
X80244761Y-94702380D01*
X80149523Y-94654761D01*
X80101904Y-94607142D01*
X80054285Y-94511904D01*
X80006666Y-94321428D01*
X80006666Y-94083333D01*
X80054285Y-93892857D01*
X80101904Y-93797619D01*
X80149523Y-93750000D01*
X80244761Y-93702380D01*
X70017380Y-122508095D02*
X69017380Y-122508095D01*
X69017380Y-122270000D01*
X69065000Y-122127142D01*
X69160238Y-122031904D01*
X69255476Y-121984285D01*
X69445952Y-121936666D01*
X69588809Y-121936666D01*
X69779285Y-121984285D01*
X69874523Y-122031904D01*
X69969761Y-122127142D01*
X70017380Y-122270000D01*
X70017380Y-122508095D01*
X69017380Y-121079523D02*
X69017380Y-121270000D01*
X69065000Y-121365238D01*
X69112619Y-121412857D01*
X69255476Y-121508095D01*
X69445952Y-121555714D01*
X69826904Y-121555714D01*
X69922142Y-121508095D01*
X69969761Y-121460476D01*
X70017380Y-121365238D01*
X70017380Y-121174761D01*
X69969761Y-121079523D01*
X69922142Y-121031904D01*
X69826904Y-120984285D01*
X69588809Y-120984285D01*
X69493571Y-121031904D01*
X69445952Y-121079523D01*
X69398333Y-121174761D01*
X69398333Y-121365238D01*
X69445952Y-121460476D01*
X69493571Y-121508095D01*
X69588809Y-121555714D01*
X75937380Y-122865238D02*
X74937380Y-122865238D01*
X75937380Y-122293809D01*
X74937380Y-122293809D01*
X75937380Y-121817619D02*
X74937380Y-121817619D01*
X75651666Y-121484285D01*
X74937380Y-121150952D01*
X75937380Y-121150952D01*
X75937380Y-120674761D02*
X74937380Y-120674761D01*
X70017380Y-105228095D02*
X69017380Y-105228095D01*
X69017380Y-104990000D01*
X69065000Y-104847142D01*
X69160238Y-104751904D01*
X69255476Y-104704285D01*
X69445952Y-104656666D01*
X69588809Y-104656666D01*
X69779285Y-104704285D01*
X69874523Y-104751904D01*
X69969761Y-104847142D01*
X70017380Y-104990000D01*
X70017380Y-105228095D01*
X69017380Y-103751904D02*
X69017380Y-104228095D01*
X69493571Y-104275714D01*
X69445952Y-104228095D01*
X69398333Y-104132857D01*
X69398333Y-103894761D01*
X69445952Y-103799523D01*
X69493571Y-103751904D01*
X69588809Y-103704285D01*
X69826904Y-103704285D01*
X69922142Y-103751904D01*
X69969761Y-103799523D01*
X70017380Y-103894761D01*
X70017380Y-104132857D01*
X69969761Y-104228095D01*
X69922142Y-104275714D01*
X75937380Y-105394761D02*
X74937380Y-105394761D01*
X75937380Y-104918571D02*
X74937380Y-104918571D01*
X75937380Y-104347142D01*
X74937380Y-104347142D01*
X74937380Y-104013809D02*
X74937380Y-103442380D01*
X75937380Y-103728095D02*
X74937380Y-103728095D01*
X70017380Y-116748095D02*
X69017380Y-116748095D01*
X69017380Y-116510000D01*
X69065000Y-116367142D01*
X69160238Y-116271904D01*
X69255476Y-116224285D01*
X69445952Y-116176666D01*
X69588809Y-116176666D01*
X69779285Y-116224285D01*
X69874523Y-116271904D01*
X69969761Y-116367142D01*
X70017380Y-116510000D01*
X70017380Y-116748095D01*
X69350714Y-115319523D02*
X70017380Y-115319523D01*
X68969761Y-115557619D02*
X69684047Y-115795714D01*
X69684047Y-115176666D01*
X75937380Y-116748095D02*
X74937380Y-116748095D01*
X75651666Y-116414761D01*
X74937380Y-116081428D01*
X75937380Y-116081428D01*
X75937380Y-115129047D02*
X75937380Y-115605238D01*
X74937380Y-115605238D01*
X70017380Y-110988095D02*
X69017380Y-110988095D01*
X69017380Y-110750000D01*
X69065000Y-110607142D01*
X69160238Y-110511904D01*
X69255476Y-110464285D01*
X69445952Y-110416666D01*
X69588809Y-110416666D01*
X69779285Y-110464285D01*
X69874523Y-110511904D01*
X69969761Y-110607142D01*
X70017380Y-110750000D01*
X70017380Y-110988095D01*
X69017380Y-110083333D02*
X69017380Y-109464285D01*
X69398333Y-109797619D01*
X69398333Y-109654761D01*
X69445952Y-109559523D01*
X69493571Y-109511904D01*
X69588809Y-109464285D01*
X69826904Y-109464285D01*
X69922142Y-109511904D01*
X69969761Y-109559523D01*
X70017380Y-109654761D01*
X70017380Y-109940476D01*
X69969761Y-110035714D01*
X69922142Y-110083333D01*
X74937380Y-111083333D02*
X75937380Y-110750000D01*
X74937380Y-110416666D01*
X75937380Y-110083333D02*
X74937380Y-110083333D01*
X74937380Y-109702380D01*
X74985000Y-109607142D01*
X75032619Y-109559523D01*
X75127857Y-109511904D01*
X75270714Y-109511904D01*
X75365952Y-109559523D01*
X75413571Y-109607142D01*
X75461190Y-109702380D01*
X75461190Y-110083333D01*
X100877380Y-96113095D02*
X99877380Y-96113095D01*
X99877380Y-95875000D01*
X99925000Y-95732142D01*
X100020238Y-95636904D01*
X100115476Y-95589285D01*
X100305952Y-95541666D01*
X100448809Y-95541666D01*
X100639285Y-95589285D01*
X100734523Y-95636904D01*
X100829761Y-95732142D01*
X100877380Y-95875000D01*
X100877380Y-96113095D01*
X100877380Y-94589285D02*
X100877380Y-95160714D01*
X100877380Y-94875000D02*
X99877380Y-94875000D01*
X100020238Y-94970238D01*
X100115476Y-95065476D01*
X100163095Y-95160714D01*
X98327380Y-97892857D02*
X98327380Y-98464285D01*
X98327380Y-98178571D02*
X97327380Y-98178571D01*
X97470238Y-98273809D01*
X97565476Y-98369047D01*
X97613095Y-98464285D01*
X98327380Y-97464285D02*
X97327380Y-97464285D01*
X98327380Y-96892857D01*
X97327380Y-96892857D01*
X97660714Y-95988095D02*
X98327380Y-95988095D01*
X97279761Y-96226190D02*
X97994047Y-96464285D01*
X97994047Y-95845238D01*
X98327380Y-94940476D02*
X98327380Y-95511904D01*
X98327380Y-95226190D02*
X97327380Y-95226190D01*
X97470238Y-95321428D01*
X97565476Y-95416666D01*
X97613095Y-95511904D01*
X97660714Y-94083333D02*
X98327380Y-94083333D01*
X97279761Y-94321428D02*
X97994047Y-94559523D01*
X97994047Y-93940476D01*
X97755952Y-93416666D02*
X97708333Y-93511904D01*
X97660714Y-93559523D01*
X97565476Y-93607142D01*
X97517857Y-93607142D01*
X97422619Y-93559523D01*
X97375000Y-93511904D01*
X97327380Y-93416666D01*
X97327380Y-93226190D01*
X97375000Y-93130952D01*
X97422619Y-93083333D01*
X97517857Y-93035714D01*
X97565476Y-93035714D01*
X97660714Y-93083333D01*
X97708333Y-93130952D01*
X97755952Y-93226190D01*
X97755952Y-93416666D01*
X97803571Y-93511904D01*
X97851190Y-93559523D01*
X97946428Y-93607142D01*
X98136904Y-93607142D01*
X98232142Y-93559523D01*
X98279761Y-93511904D01*
X98327380Y-93416666D01*
X98327380Y-93226190D01*
X98279761Y-93130952D01*
X98232142Y-93083333D01*
X98136904Y-93035714D01*
X97946428Y-93035714D01*
X97851190Y-93083333D01*
X97803571Y-93130952D01*
X97755952Y-93226190D01*
X98082142Y-107042857D02*
X98129761Y-107090476D01*
X98177380Y-107233333D01*
X98177380Y-107328571D01*
X98129761Y-107471428D01*
X98034523Y-107566666D01*
X97939285Y-107614285D01*
X97748809Y-107661904D01*
X97605952Y-107661904D01*
X97415476Y-107614285D01*
X97320238Y-107566666D01*
X97225000Y-107471428D01*
X97177380Y-107328571D01*
X97177380Y-107233333D01*
X97225000Y-107090476D01*
X97272619Y-107042857D01*
X98177380Y-106090476D02*
X98177380Y-106661904D01*
X98177380Y-106376190D02*
X97177380Y-106376190D01*
X97320238Y-106471428D01*
X97415476Y-106566666D01*
X97463095Y-106661904D01*
X98177380Y-105138095D02*
X98177380Y-105709523D01*
X98177380Y-105423809D02*
X97177380Y-105423809D01*
X97320238Y-105519047D01*
X97415476Y-105614285D01*
X97463095Y-105709523D01*
X94752380Y-106864285D02*
X94752380Y-106769047D01*
X94800000Y-106673809D01*
X94847619Y-106626190D01*
X94942857Y-106578571D01*
X95133333Y-106530952D01*
X95371428Y-106530952D01*
X95561904Y-106578571D01*
X95657142Y-106626190D01*
X95704761Y-106673809D01*
X95752380Y-106769047D01*
X95752380Y-106864285D01*
X95704761Y-106959523D01*
X95657142Y-107007142D01*
X95561904Y-107054761D01*
X95371428Y-107102380D01*
X95133333Y-107102380D01*
X94942857Y-107054761D01*
X94847619Y-107007142D01*
X94800000Y-106959523D01*
X94752380Y-106864285D01*
X95657142Y-106102380D02*
X95704761Y-106054761D01*
X95752380Y-106102380D01*
X95704761Y-106150000D01*
X95657142Y-106102380D01*
X95752380Y-106102380D01*
X95752380Y-105102380D02*
X95752380Y-105673809D01*
X95752380Y-105388095D02*
X94752380Y-105388095D01*
X94895238Y-105483333D01*
X94990476Y-105578571D01*
X95038095Y-105673809D01*
X95085714Y-104245238D02*
X95752380Y-104245238D01*
X95085714Y-104673809D02*
X95609523Y-104673809D01*
X95704761Y-104626190D01*
X95752380Y-104530952D01*
X95752380Y-104388095D01*
X95704761Y-104292857D01*
X95657142Y-104245238D01*
X84757142Y-62992857D02*
X84804761Y-63040476D01*
X84852380Y-63183333D01*
X84852380Y-63278571D01*
X84804761Y-63421428D01*
X84709523Y-63516666D01*
X84614285Y-63564285D01*
X84423809Y-63611904D01*
X84280952Y-63611904D01*
X84090476Y-63564285D01*
X83995238Y-63516666D01*
X83900000Y-63421428D01*
X83852380Y-63278571D01*
X83852380Y-63183333D01*
X83900000Y-63040476D01*
X83947619Y-62992857D01*
X84852380Y-62040476D02*
X84852380Y-62611904D01*
X84852380Y-62326190D02*
X83852380Y-62326190D01*
X83995238Y-62421428D01*
X84090476Y-62516666D01*
X84138095Y-62611904D01*
X83852380Y-61421428D02*
X83852380Y-61326190D01*
X83900000Y-61230952D01*
X83947619Y-61183333D01*
X84042857Y-61135714D01*
X84233333Y-61088095D01*
X84471428Y-61088095D01*
X84661904Y-61135714D01*
X84757142Y-61183333D01*
X84804761Y-61230952D01*
X84852380Y-61326190D01*
X84852380Y-61421428D01*
X84804761Y-61516666D01*
X84757142Y-61564285D01*
X84661904Y-61611904D01*
X84471428Y-61659523D01*
X84233333Y-61659523D01*
X84042857Y-61611904D01*
X83947619Y-61564285D01*
X83900000Y-61516666D01*
X83852380Y-61421428D01*
X81502380Y-63564285D02*
X81502380Y-63469047D01*
X81550000Y-63373809D01*
X81597619Y-63326190D01*
X81692857Y-63278571D01*
X81883333Y-63230952D01*
X82121428Y-63230952D01*
X82311904Y-63278571D01*
X82407142Y-63326190D01*
X82454761Y-63373809D01*
X82502380Y-63469047D01*
X82502380Y-63564285D01*
X82454761Y-63659523D01*
X82407142Y-63707142D01*
X82311904Y-63754761D01*
X82121428Y-63802380D01*
X81883333Y-63802380D01*
X81692857Y-63754761D01*
X81597619Y-63707142D01*
X81550000Y-63659523D01*
X81502380Y-63564285D01*
X82407142Y-62802380D02*
X82454761Y-62754761D01*
X82502380Y-62802380D01*
X82454761Y-62850000D01*
X82407142Y-62802380D01*
X82502380Y-62802380D01*
X82502380Y-61802380D02*
X82502380Y-62373809D01*
X82502380Y-62088095D02*
X81502380Y-62088095D01*
X81645238Y-62183333D01*
X81740476Y-62278571D01*
X81788095Y-62373809D01*
X81835714Y-60945238D02*
X82502380Y-60945238D01*
X81835714Y-61373809D02*
X82359523Y-61373809D01*
X82454761Y-61326190D01*
X82502380Y-61230952D01*
X82502380Y-61088095D01*
X82454761Y-60992857D01*
X82407142Y-60945238D01*
X84732142Y-78866666D02*
X84779761Y-78914285D01*
X84827380Y-79057142D01*
X84827380Y-79152380D01*
X84779761Y-79295238D01*
X84684523Y-79390476D01*
X84589285Y-79438095D01*
X84398809Y-79485714D01*
X84255952Y-79485714D01*
X84065476Y-79438095D01*
X83970238Y-79390476D01*
X83875000Y-79295238D01*
X83827380Y-79152380D01*
X83827380Y-79057142D01*
X83875000Y-78914285D01*
X83922619Y-78866666D01*
X84827380Y-78390476D02*
X84827380Y-78200000D01*
X84779761Y-78104761D01*
X84732142Y-78057142D01*
X84589285Y-77961904D01*
X84398809Y-77914285D01*
X84017857Y-77914285D01*
X83922619Y-77961904D01*
X83875000Y-78009523D01*
X83827380Y-78104761D01*
X83827380Y-78295238D01*
X83875000Y-78390476D01*
X83922619Y-78438095D01*
X84017857Y-78485714D01*
X84255952Y-78485714D01*
X84351190Y-78438095D01*
X84398809Y-78390476D01*
X84446428Y-78295238D01*
X84446428Y-78104761D01*
X84398809Y-78009523D01*
X84351190Y-77961904D01*
X84255952Y-77914285D01*
X81577380Y-79914285D02*
X81577380Y-79819047D01*
X81625000Y-79723809D01*
X81672619Y-79676190D01*
X81767857Y-79628571D01*
X81958333Y-79580952D01*
X82196428Y-79580952D01*
X82386904Y-79628571D01*
X82482142Y-79676190D01*
X82529761Y-79723809D01*
X82577380Y-79819047D01*
X82577380Y-79914285D01*
X82529761Y-80009523D01*
X82482142Y-80057142D01*
X82386904Y-80104761D01*
X82196428Y-80152380D01*
X81958333Y-80152380D01*
X81767857Y-80104761D01*
X81672619Y-80057142D01*
X81625000Y-80009523D01*
X81577380Y-79914285D01*
X82482142Y-79152380D02*
X82529761Y-79104761D01*
X82577380Y-79152380D01*
X82529761Y-79200000D01*
X82482142Y-79152380D01*
X82577380Y-79152380D01*
X82577380Y-78152380D02*
X82577380Y-78723809D01*
X82577380Y-78438095D02*
X81577380Y-78438095D01*
X81720238Y-78533333D01*
X81815476Y-78628571D01*
X81863095Y-78723809D01*
X81910714Y-77295238D02*
X82577380Y-77295238D01*
X81910714Y-77723809D02*
X82434523Y-77723809D01*
X82529761Y-77676190D01*
X82577380Y-77580952D01*
X82577380Y-77438095D01*
X82529761Y-77342857D01*
X82482142Y-77295238D01*
X105532142Y-94291666D02*
X105579761Y-94339285D01*
X105627380Y-94482142D01*
X105627380Y-94577380D01*
X105579761Y-94720238D01*
X105484523Y-94815476D01*
X105389285Y-94863095D01*
X105198809Y-94910714D01*
X105055952Y-94910714D01*
X104865476Y-94863095D01*
X104770238Y-94815476D01*
X104675000Y-94720238D01*
X104627380Y-94577380D01*
X104627380Y-94482142D01*
X104675000Y-94339285D01*
X104722619Y-94291666D01*
X105055952Y-93720238D02*
X105008333Y-93815476D01*
X104960714Y-93863095D01*
X104865476Y-93910714D01*
X104817857Y-93910714D01*
X104722619Y-93863095D01*
X104675000Y-93815476D01*
X104627380Y-93720238D01*
X104627380Y-93529761D01*
X104675000Y-93434523D01*
X104722619Y-93386904D01*
X104817857Y-93339285D01*
X104865476Y-93339285D01*
X104960714Y-93386904D01*
X105008333Y-93434523D01*
X105055952Y-93529761D01*
X105055952Y-93720238D01*
X105103571Y-93815476D01*
X105151190Y-93863095D01*
X105246428Y-93910714D01*
X105436904Y-93910714D01*
X105532142Y-93863095D01*
X105579761Y-93815476D01*
X105627380Y-93720238D01*
X105627380Y-93529761D01*
X105579761Y-93434523D01*
X105532142Y-93386904D01*
X105436904Y-93339285D01*
X105246428Y-93339285D01*
X105151190Y-93386904D01*
X105103571Y-93434523D01*
X105055952Y-93529761D01*
X102252380Y-95339285D02*
X102252380Y-95244047D01*
X102300000Y-95148809D01*
X102347619Y-95101190D01*
X102442857Y-95053571D01*
X102633333Y-95005952D01*
X102871428Y-95005952D01*
X103061904Y-95053571D01*
X103157142Y-95101190D01*
X103204761Y-95148809D01*
X103252380Y-95244047D01*
X103252380Y-95339285D01*
X103204761Y-95434523D01*
X103157142Y-95482142D01*
X103061904Y-95529761D01*
X102871428Y-95577380D01*
X102633333Y-95577380D01*
X102442857Y-95529761D01*
X102347619Y-95482142D01*
X102300000Y-95434523D01*
X102252380Y-95339285D01*
X103157142Y-94577380D02*
X103204761Y-94529761D01*
X103252380Y-94577380D01*
X103204761Y-94625000D01*
X103157142Y-94577380D01*
X103252380Y-94577380D01*
X103252380Y-93577380D02*
X103252380Y-94148809D01*
X103252380Y-93863095D02*
X102252380Y-93863095D01*
X102395238Y-93958333D01*
X102490476Y-94053571D01*
X102538095Y-94148809D01*
X102585714Y-92720238D02*
X103252380Y-92720238D01*
X102585714Y-93148809D02*
X103109523Y-93148809D01*
X103204761Y-93101190D01*
X103252380Y-93005952D01*
X103252380Y-92863095D01*
X103204761Y-92767857D01*
X103157142Y-92720238D01*
X132007142Y-70941666D02*
X132054761Y-70989285D01*
X132102380Y-71132142D01*
X132102380Y-71227380D01*
X132054761Y-71370238D01*
X131959523Y-71465476D01*
X131864285Y-71513095D01*
X131673809Y-71560714D01*
X131530952Y-71560714D01*
X131340476Y-71513095D01*
X131245238Y-71465476D01*
X131150000Y-71370238D01*
X131102380Y-71227380D01*
X131102380Y-71132142D01*
X131150000Y-70989285D01*
X131197619Y-70941666D01*
X131102380Y-70608333D02*
X131102380Y-69941666D01*
X132102380Y-70370238D01*
X128602380Y-72414285D02*
X128602380Y-72319047D01*
X128650000Y-72223809D01*
X128697619Y-72176190D01*
X128792857Y-72128571D01*
X128983333Y-72080952D01*
X129221428Y-72080952D01*
X129411904Y-72128571D01*
X129507142Y-72176190D01*
X129554761Y-72223809D01*
X129602380Y-72319047D01*
X129602380Y-72414285D01*
X129554761Y-72509523D01*
X129507142Y-72557142D01*
X129411904Y-72604761D01*
X129221428Y-72652380D01*
X128983333Y-72652380D01*
X128792857Y-72604761D01*
X128697619Y-72557142D01*
X128650000Y-72509523D01*
X128602380Y-72414285D01*
X129507142Y-71652380D02*
X129554761Y-71604761D01*
X129602380Y-71652380D01*
X129554761Y-71700000D01*
X129507142Y-71652380D01*
X129602380Y-71652380D01*
X129602380Y-70652380D02*
X129602380Y-71223809D01*
X129602380Y-70938095D02*
X128602380Y-70938095D01*
X128745238Y-71033333D01*
X128840476Y-71128571D01*
X128888095Y-71223809D01*
X128935714Y-69795238D02*
X129602380Y-69795238D01*
X128935714Y-70223809D02*
X129459523Y-70223809D01*
X129554761Y-70176190D01*
X129602380Y-70080952D01*
X129602380Y-69938095D01*
X129554761Y-69842857D01*
X129507142Y-69795238D01*
X132207142Y-55191666D02*
X132254761Y-55239285D01*
X132302380Y-55382142D01*
X132302380Y-55477380D01*
X132254761Y-55620238D01*
X132159523Y-55715476D01*
X132064285Y-55763095D01*
X131873809Y-55810714D01*
X131730952Y-55810714D01*
X131540476Y-55763095D01*
X131445238Y-55715476D01*
X131350000Y-55620238D01*
X131302380Y-55477380D01*
X131302380Y-55382142D01*
X131350000Y-55239285D01*
X131397619Y-55191666D01*
X131302380Y-54334523D02*
X131302380Y-54525000D01*
X131350000Y-54620238D01*
X131397619Y-54667857D01*
X131540476Y-54763095D01*
X131730952Y-54810714D01*
X132111904Y-54810714D01*
X132207142Y-54763095D01*
X132254761Y-54715476D01*
X132302380Y-54620238D01*
X132302380Y-54429761D01*
X132254761Y-54334523D01*
X132207142Y-54286904D01*
X132111904Y-54239285D01*
X131873809Y-54239285D01*
X131778571Y-54286904D01*
X131730952Y-54334523D01*
X131683333Y-54429761D01*
X131683333Y-54620238D01*
X131730952Y-54715476D01*
X131778571Y-54763095D01*
X131873809Y-54810714D01*
X128777380Y-56389285D02*
X128777380Y-56294047D01*
X128825000Y-56198809D01*
X128872619Y-56151190D01*
X128967857Y-56103571D01*
X129158333Y-56055952D01*
X129396428Y-56055952D01*
X129586904Y-56103571D01*
X129682142Y-56151190D01*
X129729761Y-56198809D01*
X129777380Y-56294047D01*
X129777380Y-56389285D01*
X129729761Y-56484523D01*
X129682142Y-56532142D01*
X129586904Y-56579761D01*
X129396428Y-56627380D01*
X129158333Y-56627380D01*
X128967857Y-56579761D01*
X128872619Y-56532142D01*
X128825000Y-56484523D01*
X128777380Y-56389285D01*
X129682142Y-55627380D02*
X129729761Y-55579761D01*
X129777380Y-55627380D01*
X129729761Y-55675000D01*
X129682142Y-55627380D01*
X129777380Y-55627380D01*
X129777380Y-54627380D02*
X129777380Y-55198809D01*
X129777380Y-54913095D02*
X128777380Y-54913095D01*
X128920238Y-55008333D01*
X129015476Y-55103571D01*
X129063095Y-55198809D01*
X129110714Y-53770238D02*
X129777380Y-53770238D01*
X129110714Y-54198809D02*
X129634523Y-54198809D01*
X129729761Y-54151190D01*
X129777380Y-54055952D01*
X129777380Y-53913095D01*
X129729761Y-53817857D01*
X129682142Y-53770238D01*
X81427380Y-47239285D02*
X81427380Y-47144047D01*
X81475000Y-47048809D01*
X81522619Y-47001190D01*
X81617857Y-46953571D01*
X81808333Y-46905952D01*
X82046428Y-46905952D01*
X82236904Y-46953571D01*
X82332142Y-47001190D01*
X82379761Y-47048809D01*
X82427380Y-47144047D01*
X82427380Y-47239285D01*
X82379761Y-47334523D01*
X82332142Y-47382142D01*
X82236904Y-47429761D01*
X82046428Y-47477380D01*
X81808333Y-47477380D01*
X81617857Y-47429761D01*
X81522619Y-47382142D01*
X81475000Y-47334523D01*
X81427380Y-47239285D01*
X82332142Y-46477380D02*
X82379761Y-46429761D01*
X82427380Y-46477380D01*
X82379761Y-46525000D01*
X82332142Y-46477380D01*
X82427380Y-46477380D01*
X82427380Y-45477380D02*
X82427380Y-46048809D01*
X82427380Y-45763095D02*
X81427380Y-45763095D01*
X81570238Y-45858333D01*
X81665476Y-45953571D01*
X81713095Y-46048809D01*
X81760714Y-44620238D02*
X82427380Y-44620238D01*
X81760714Y-45048809D02*
X82284523Y-45048809D01*
X82379761Y-45001190D01*
X82427380Y-44905952D01*
X82427380Y-44763095D01*
X82379761Y-44667857D01*
X82332142Y-44620238D01*
X84607142Y-46041666D02*
X84654761Y-46089285D01*
X84702380Y-46232142D01*
X84702380Y-46327380D01*
X84654761Y-46470238D01*
X84559523Y-46565476D01*
X84464285Y-46613095D01*
X84273809Y-46660714D01*
X84130952Y-46660714D01*
X83940476Y-46613095D01*
X83845238Y-46565476D01*
X83750000Y-46470238D01*
X83702380Y-46327380D01*
X83702380Y-46232142D01*
X83750000Y-46089285D01*
X83797619Y-46041666D01*
X83702380Y-45136904D02*
X83702380Y-45613095D01*
X84178571Y-45660714D01*
X84130952Y-45613095D01*
X84083333Y-45517857D01*
X84083333Y-45279761D01*
X84130952Y-45184523D01*
X84178571Y-45136904D01*
X84273809Y-45089285D01*
X84511904Y-45089285D01*
X84607142Y-45136904D01*
X84654761Y-45184523D01*
X84702380Y-45279761D01*
X84702380Y-45517857D01*
X84654761Y-45613095D01*
X84607142Y-45660714D01*
X132132142Y-40366666D02*
X132179761Y-40414285D01*
X132227380Y-40557142D01*
X132227380Y-40652380D01*
X132179761Y-40795238D01*
X132084523Y-40890476D01*
X131989285Y-40938095D01*
X131798809Y-40985714D01*
X131655952Y-40985714D01*
X131465476Y-40938095D01*
X131370238Y-40890476D01*
X131275000Y-40795238D01*
X131227380Y-40652380D01*
X131227380Y-40557142D01*
X131275000Y-40414285D01*
X131322619Y-40366666D01*
X131560714Y-39509523D02*
X132227380Y-39509523D01*
X131179761Y-39747619D02*
X131894047Y-39985714D01*
X131894047Y-39366666D01*
X128652380Y-41689285D02*
X128652380Y-41594047D01*
X128700000Y-41498809D01*
X128747619Y-41451190D01*
X128842857Y-41403571D01*
X129033333Y-41355952D01*
X129271428Y-41355952D01*
X129461904Y-41403571D01*
X129557142Y-41451190D01*
X129604761Y-41498809D01*
X129652380Y-41594047D01*
X129652380Y-41689285D01*
X129604761Y-41784523D01*
X129557142Y-41832142D01*
X129461904Y-41879761D01*
X129271428Y-41927380D01*
X129033333Y-41927380D01*
X128842857Y-41879761D01*
X128747619Y-41832142D01*
X128700000Y-41784523D01*
X128652380Y-41689285D01*
X129557142Y-40927380D02*
X129604761Y-40879761D01*
X129652380Y-40927380D01*
X129604761Y-40975000D01*
X129557142Y-40927380D01*
X129652380Y-40927380D01*
X129652380Y-39927380D02*
X129652380Y-40498809D01*
X129652380Y-40213095D02*
X128652380Y-40213095D01*
X128795238Y-40308333D01*
X128890476Y-40403571D01*
X128938095Y-40498809D01*
X128985714Y-39070238D02*
X129652380Y-39070238D01*
X128985714Y-39498809D02*
X129509523Y-39498809D01*
X129604761Y-39451190D01*
X129652380Y-39355952D01*
X129652380Y-39213095D01*
X129604761Y-39117857D01*
X129557142Y-39070238D01*
X131307142Y-107791666D02*
X131354761Y-107839285D01*
X131402380Y-107982142D01*
X131402380Y-108077380D01*
X131354761Y-108220238D01*
X131259523Y-108315476D01*
X131164285Y-108363095D01*
X130973809Y-108410714D01*
X130830952Y-108410714D01*
X130640476Y-108363095D01*
X130545238Y-108315476D01*
X130450000Y-108220238D01*
X130402380Y-108077380D01*
X130402380Y-107982142D01*
X130450000Y-107839285D01*
X130497619Y-107791666D01*
X130402380Y-107458333D02*
X130402380Y-106839285D01*
X130783333Y-107172619D01*
X130783333Y-107029761D01*
X130830952Y-106934523D01*
X130878571Y-106886904D01*
X130973809Y-106839285D01*
X131211904Y-106839285D01*
X131307142Y-106886904D01*
X131354761Y-106934523D01*
X131402380Y-107029761D01*
X131402380Y-107315476D01*
X131354761Y-107410714D01*
X131307142Y-107458333D01*
X127752380Y-108989285D02*
X127752380Y-108894047D01*
X127800000Y-108798809D01*
X127847619Y-108751190D01*
X127942857Y-108703571D01*
X128133333Y-108655952D01*
X128371428Y-108655952D01*
X128561904Y-108703571D01*
X128657142Y-108751190D01*
X128704761Y-108798809D01*
X128752380Y-108894047D01*
X128752380Y-108989285D01*
X128704761Y-109084523D01*
X128657142Y-109132142D01*
X128561904Y-109179761D01*
X128371428Y-109227380D01*
X128133333Y-109227380D01*
X127942857Y-109179761D01*
X127847619Y-109132142D01*
X127800000Y-109084523D01*
X127752380Y-108989285D01*
X128657142Y-108227380D02*
X128704761Y-108179761D01*
X128752380Y-108227380D01*
X128704761Y-108275000D01*
X128657142Y-108227380D01*
X128752380Y-108227380D01*
X128752380Y-107227380D02*
X128752380Y-107798809D01*
X128752380Y-107513095D02*
X127752380Y-107513095D01*
X127895238Y-107608333D01*
X127990476Y-107703571D01*
X128038095Y-107798809D01*
X128085714Y-106370238D02*
X128752380Y-106370238D01*
X128085714Y-106798809D02*
X128609523Y-106798809D01*
X128704761Y-106751190D01*
X128752380Y-106655952D01*
X128752380Y-106513095D01*
X128704761Y-106417857D01*
X128657142Y-106370238D01*
X132207142Y-85041666D02*
X132254761Y-85089285D01*
X132302380Y-85232142D01*
X132302380Y-85327380D01*
X132254761Y-85470238D01*
X132159523Y-85565476D01*
X132064285Y-85613095D01*
X131873809Y-85660714D01*
X131730952Y-85660714D01*
X131540476Y-85613095D01*
X131445238Y-85565476D01*
X131350000Y-85470238D01*
X131302380Y-85327380D01*
X131302380Y-85232142D01*
X131350000Y-85089285D01*
X131397619Y-85041666D01*
X131397619Y-84660714D02*
X131350000Y-84613095D01*
X131302380Y-84517857D01*
X131302380Y-84279761D01*
X131350000Y-84184523D01*
X131397619Y-84136904D01*
X131492857Y-84089285D01*
X131588095Y-84089285D01*
X131730952Y-84136904D01*
X132302380Y-84708333D01*
X132302380Y-84089285D01*
X128577380Y-86089285D02*
X128577380Y-85994047D01*
X128625000Y-85898809D01*
X128672619Y-85851190D01*
X128767857Y-85803571D01*
X128958333Y-85755952D01*
X129196428Y-85755952D01*
X129386904Y-85803571D01*
X129482142Y-85851190D01*
X129529761Y-85898809D01*
X129577380Y-85994047D01*
X129577380Y-86089285D01*
X129529761Y-86184523D01*
X129482142Y-86232142D01*
X129386904Y-86279761D01*
X129196428Y-86327380D01*
X128958333Y-86327380D01*
X128767857Y-86279761D01*
X128672619Y-86232142D01*
X128625000Y-86184523D01*
X128577380Y-86089285D01*
X129482142Y-85327380D02*
X129529761Y-85279761D01*
X129577380Y-85327380D01*
X129529761Y-85375000D01*
X129482142Y-85327380D01*
X129577380Y-85327380D01*
X129577380Y-84327380D02*
X129577380Y-84898809D01*
X129577380Y-84613095D02*
X128577380Y-84613095D01*
X128720238Y-84708333D01*
X128815476Y-84803571D01*
X128863095Y-84898809D01*
X128910714Y-83470238D02*
X129577380Y-83470238D01*
X128910714Y-83898809D02*
X129434523Y-83898809D01*
X129529761Y-83851190D01*
X129577380Y-83755952D01*
X129577380Y-83613095D01*
X129529761Y-83517857D01*
X129482142Y-83470238D01*
X100369761Y-126923333D02*
X100417380Y-126780476D01*
X100417380Y-126542380D01*
X100369761Y-126447142D01*
X100322142Y-126399523D01*
X100226904Y-126351904D01*
X100131666Y-126351904D01*
X100036428Y-126399523D01*
X99988809Y-126447142D01*
X99941190Y-126542380D01*
X99893571Y-126732857D01*
X99845952Y-126828095D01*
X99798333Y-126875714D01*
X99703095Y-126923333D01*
X99607857Y-126923333D01*
X99512619Y-126875714D01*
X99465000Y-126828095D01*
X99417380Y-126732857D01*
X99417380Y-126494761D01*
X99465000Y-126351904D01*
X99417380Y-126018571D02*
X100417380Y-125780476D01*
X99703095Y-125590000D01*
X100417380Y-125399523D01*
X99417380Y-125161428D01*
X99417380Y-124875714D02*
X99417380Y-124256666D01*
X99798333Y-124590000D01*
X99798333Y-124447142D01*
X99845952Y-124351904D01*
X99893571Y-124304285D01*
X99988809Y-124256666D01*
X100226904Y-124256666D01*
X100322142Y-124304285D01*
X100369761Y-124351904D01*
X100417380Y-124447142D01*
X100417380Y-124732857D01*
X100369761Y-124828095D01*
X100322142Y-124875714D01*
X124702380Y-131635714D02*
X123702380Y-131635714D01*
X123702380Y-130969047D02*
X123702380Y-130778571D01*
X123750000Y-130683333D01*
X123845238Y-130588095D01*
X124035714Y-130540476D01*
X124369047Y-130540476D01*
X124559523Y-130588095D01*
X124654761Y-130683333D01*
X124702380Y-130778571D01*
X124702380Y-130969047D01*
X124654761Y-131064285D01*
X124559523Y-131159523D01*
X124369047Y-131207142D01*
X124035714Y-131207142D01*
X123845238Y-131159523D01*
X123750000Y-131064285D01*
X123702380Y-130969047D01*
X124416666Y-129397619D02*
X124416666Y-128921428D01*
X124702380Y-129492857D02*
X123702380Y-129159523D01*
X124702380Y-128826190D01*
X124702380Y-128492857D02*
X123702380Y-128492857D01*
X123702380Y-128254761D01*
X123750000Y-128111904D01*
X123845238Y-128016666D01*
X123940476Y-127969047D01*
X124130952Y-127921428D01*
X124273809Y-127921428D01*
X124464285Y-127969047D01*
X124559523Y-128016666D01*
X124654761Y-128111904D01*
X124702380Y-128254761D01*
X124702380Y-128492857D01*
X124702380Y-127492857D02*
X123702380Y-127492857D01*
X123702380Y-127254761D01*
X123750000Y-127111904D01*
X123845238Y-127016666D01*
X123940476Y-126969047D01*
X124130952Y-126921428D01*
X124273809Y-126921428D01*
X124464285Y-126969047D01*
X124559523Y-127016666D01*
X124654761Y-127111904D01*
X124702380Y-127254761D01*
X124702380Y-127492857D01*
X124702380Y-125921428D02*
X124226190Y-126254761D01*
X124702380Y-126492857D02*
X123702380Y-126492857D01*
X123702380Y-126111904D01*
X123750000Y-126016666D01*
X123797619Y-125969047D01*
X123892857Y-125921428D01*
X124035714Y-125921428D01*
X124130952Y-125969047D01*
X124178571Y-126016666D01*
X124226190Y-126111904D01*
X124226190Y-126492857D01*
X124178571Y-125492857D02*
X124178571Y-125159523D01*
X124702380Y-125016666D02*
X124702380Y-125492857D01*
X123702380Y-125492857D01*
X123702380Y-125016666D01*
X124654761Y-124635714D02*
X124702380Y-124492857D01*
X124702380Y-124254761D01*
X124654761Y-124159523D01*
X124607142Y-124111904D01*
X124511904Y-124064285D01*
X124416666Y-124064285D01*
X124321428Y-124111904D01*
X124273809Y-124159523D01*
X124226190Y-124254761D01*
X124178571Y-124445238D01*
X124130952Y-124540476D01*
X124083333Y-124588095D01*
X123988095Y-124635714D01*
X123892857Y-124635714D01*
X123797619Y-124588095D01*
X123750000Y-124540476D01*
X123702380Y-124445238D01*
X123702380Y-124207142D01*
X123750000Y-124064285D01*
X124654761Y-123683333D02*
X124702380Y-123540476D01*
X124702380Y-123302380D01*
X124654761Y-123207142D01*
X124607142Y-123159523D01*
X124511904Y-123111904D01*
X124416666Y-123111904D01*
X124321428Y-123159523D01*
X124273809Y-123207142D01*
X124226190Y-123302380D01*
X124178571Y-123492857D01*
X124130952Y-123588095D01*
X124083333Y-123635714D01*
X123988095Y-123683333D01*
X123892857Y-123683333D01*
X123797619Y-123635714D01*
X123750000Y-123588095D01*
X123702380Y-123492857D01*
X123702380Y-123254761D01*
X123750000Y-123111904D01*
X124654761Y-121969047D02*
X124702380Y-121826190D01*
X124702380Y-121588095D01*
X124654761Y-121492857D01*
X124607142Y-121445238D01*
X124511904Y-121397619D01*
X124416666Y-121397619D01*
X124321428Y-121445238D01*
X124273809Y-121492857D01*
X124226190Y-121588095D01*
X124178571Y-121778571D01*
X124130952Y-121873809D01*
X124083333Y-121921428D01*
X123988095Y-121969047D01*
X123892857Y-121969047D01*
X123797619Y-121921428D01*
X123750000Y-121873809D01*
X123702380Y-121778571D01*
X123702380Y-121540476D01*
X123750000Y-121397619D01*
X124178571Y-120969047D02*
X124178571Y-120635714D01*
X124702380Y-120492857D02*
X124702380Y-120969047D01*
X123702380Y-120969047D01*
X123702380Y-120492857D01*
X124702380Y-119588095D02*
X124702380Y-120064285D01*
X123702380Y-120064285D01*
X124178571Y-119254761D02*
X124178571Y-118921428D01*
X124702380Y-118778571D02*
X124702380Y-119254761D01*
X123702380Y-119254761D01*
X123702380Y-118778571D01*
X124607142Y-117778571D02*
X124654761Y-117826190D01*
X124702380Y-117969047D01*
X124702380Y-118064285D01*
X124654761Y-118207142D01*
X124559523Y-118302380D01*
X124464285Y-118350000D01*
X124273809Y-118397619D01*
X124130952Y-118397619D01*
X123940476Y-118350000D01*
X123845238Y-118302380D01*
X123750000Y-118207142D01*
X123702380Y-118064285D01*
X123702380Y-117969047D01*
X123750000Y-117826190D01*
X123797619Y-117778571D01*
X123702380Y-117492857D02*
X123702380Y-116921428D01*
X124702380Y-117207142D02*
X123702380Y-117207142D01*
X135419761Y-126873333D02*
X135467380Y-126730476D01*
X135467380Y-126492380D01*
X135419761Y-126397142D01*
X135372142Y-126349523D01*
X135276904Y-126301904D01*
X135181666Y-126301904D01*
X135086428Y-126349523D01*
X135038809Y-126397142D01*
X134991190Y-126492380D01*
X134943571Y-126682857D01*
X134895952Y-126778095D01*
X134848333Y-126825714D01*
X134753095Y-126873333D01*
X134657857Y-126873333D01*
X134562619Y-126825714D01*
X134515000Y-126778095D01*
X134467380Y-126682857D01*
X134467380Y-126444761D01*
X134515000Y-126301904D01*
X134467380Y-125968571D02*
X135467380Y-125730476D01*
X134753095Y-125540000D01*
X135467380Y-125349523D01*
X134467380Y-125111428D01*
X135467380Y-124206666D02*
X135467380Y-124778095D01*
X135467380Y-124492380D02*
X134467380Y-124492380D01*
X134610238Y-124587619D01*
X134705476Y-124682857D01*
X134753095Y-124778095D01*
X159467380Y-131373333D02*
X158467380Y-131373333D01*
X158467380Y-130706666D02*
X158467380Y-130516190D01*
X158515000Y-130420952D01*
X158610238Y-130325714D01*
X158800714Y-130278095D01*
X159134047Y-130278095D01*
X159324523Y-130325714D01*
X159419761Y-130420952D01*
X159467380Y-130516190D01*
X159467380Y-130706666D01*
X159419761Y-130801904D01*
X159324523Y-130897142D01*
X159134047Y-130944761D01*
X158800714Y-130944761D01*
X158610238Y-130897142D01*
X158515000Y-130801904D01*
X158467380Y-130706666D01*
X159467380Y-129087619D02*
X158467380Y-129087619D01*
X158467380Y-128706666D01*
X158515000Y-128611428D01*
X158562619Y-128563809D01*
X158657857Y-128516190D01*
X158800714Y-128516190D01*
X158895952Y-128563809D01*
X158943571Y-128611428D01*
X158991190Y-128706666D01*
X158991190Y-129087619D01*
X159181666Y-128135238D02*
X159181666Y-127659047D01*
X159467380Y-128230476D02*
X158467380Y-127897142D01*
X159467380Y-127563809D01*
X158515000Y-126706666D02*
X158467380Y-126801904D01*
X158467380Y-126944761D01*
X158515000Y-127087619D01*
X158610238Y-127182857D01*
X158705476Y-127230476D01*
X158895952Y-127278095D01*
X159038809Y-127278095D01*
X159229285Y-127230476D01*
X159324523Y-127182857D01*
X159419761Y-127087619D01*
X159467380Y-126944761D01*
X159467380Y-126849523D01*
X159419761Y-126706666D01*
X159372142Y-126659047D01*
X159038809Y-126659047D01*
X159038809Y-126849523D01*
X158943571Y-126230476D02*
X158943571Y-125897142D01*
X159467380Y-125754285D02*
X159467380Y-126230476D01*
X158467380Y-126230476D01*
X158467380Y-125754285D01*
X159419761Y-124611428D02*
X159467380Y-124468571D01*
X159467380Y-124230476D01*
X159419761Y-124135238D01*
X159372142Y-124087619D01*
X159276904Y-124040000D01*
X159181666Y-124040000D01*
X159086428Y-124087619D01*
X159038809Y-124135238D01*
X158991190Y-124230476D01*
X158943571Y-124420952D01*
X158895952Y-124516190D01*
X158848333Y-124563809D01*
X158753095Y-124611428D01*
X158657857Y-124611428D01*
X158562619Y-124563809D01*
X158515000Y-124516190D01*
X158467380Y-124420952D01*
X158467380Y-124182857D01*
X158515000Y-124040000D01*
X158943571Y-123611428D02*
X158943571Y-123278095D01*
X159467380Y-123135238D02*
X159467380Y-123611428D01*
X158467380Y-123611428D01*
X158467380Y-123135238D01*
X159467380Y-122230476D02*
X159467380Y-122706666D01*
X158467380Y-122706666D01*
X158943571Y-121897142D02*
X158943571Y-121563809D01*
X159467380Y-121420952D02*
X159467380Y-121897142D01*
X158467380Y-121897142D01*
X158467380Y-121420952D01*
X159372142Y-120420952D02*
X159419761Y-120468571D01*
X159467380Y-120611428D01*
X159467380Y-120706666D01*
X159419761Y-120849523D01*
X159324523Y-120944761D01*
X159229285Y-120992380D01*
X159038809Y-121040000D01*
X158895952Y-121040000D01*
X158705476Y-120992380D01*
X158610238Y-120944761D01*
X158515000Y-120849523D01*
X158467380Y-120706666D01*
X158467380Y-120611428D01*
X158515000Y-120468571D01*
X158562619Y-120420952D01*
X158467380Y-120135238D02*
X158467380Y-119563809D01*
X159467380Y-119849523D02*
X158467380Y-119849523D01*
X115408095Y-35772380D02*
X115408095Y-36581904D01*
X115455714Y-36677142D01*
X115503333Y-36724761D01*
X115598571Y-36772380D01*
X115789047Y-36772380D01*
X115884285Y-36724761D01*
X115931904Y-36677142D01*
X115979523Y-36581904D01*
X115979523Y-35772380D01*
X116884285Y-35772380D02*
X116693809Y-35772380D01*
X116598571Y-35820000D01*
X116550952Y-35867619D01*
X116455714Y-36010476D01*
X116408095Y-36200952D01*
X116408095Y-36581904D01*
X116455714Y-36677142D01*
X116503333Y-36724761D01*
X116598571Y-36772380D01*
X116789047Y-36772380D01*
X116884285Y-36724761D01*
X116931904Y-36677142D01*
X116979523Y-36581904D01*
X116979523Y-36343809D01*
X116931904Y-36248571D01*
X116884285Y-36200952D01*
X116789047Y-36153333D01*
X116598571Y-36153333D01*
X116503333Y-36200952D01*
X116455714Y-36248571D01*
X116408095Y-36343809D01*
X111955714Y-88692380D02*
X112193809Y-89692380D01*
X112384285Y-88978095D01*
X112574761Y-89692380D01*
X112812857Y-88692380D01*
X113622380Y-88692380D02*
X113431904Y-88692380D01*
X113336666Y-88740000D01*
X113289047Y-88787619D01*
X113193809Y-88930476D01*
X113146190Y-89120952D01*
X113146190Y-89501904D01*
X113193809Y-89597142D01*
X113241428Y-89644761D01*
X113336666Y-89692380D01*
X113527142Y-89692380D01*
X113622380Y-89644761D01*
X113670000Y-89597142D01*
X113717619Y-89501904D01*
X113717619Y-89263809D01*
X113670000Y-89168571D01*
X113622380Y-89120952D01*
X113527142Y-89073333D01*
X113336666Y-89073333D01*
X113241428Y-89120952D01*
X113193809Y-89168571D01*
X113146190Y-89263809D01*
X114622380Y-88692380D02*
X114146190Y-88692380D01*
X114098571Y-89168571D01*
X114146190Y-89120952D01*
X114241428Y-89073333D01*
X114479523Y-89073333D01*
X114574761Y-89120952D01*
X114622380Y-89168571D01*
X114670000Y-89263809D01*
X114670000Y-89501904D01*
X114622380Y-89597142D01*
X114574761Y-89644761D01*
X114479523Y-89692380D01*
X114241428Y-89692380D01*
X114146190Y-89644761D01*
X114098571Y-89597142D01*
X115670000Y-89597142D02*
X115622380Y-89644761D01*
X115479523Y-89692380D01*
X115384285Y-89692380D01*
X115241428Y-89644761D01*
X115146190Y-89549523D01*
X115098571Y-89454285D01*
X115050952Y-89263809D01*
X115050952Y-89120952D01*
X115098571Y-88930476D01*
X115146190Y-88835238D01*
X115241428Y-88740000D01*
X115384285Y-88692380D01*
X115479523Y-88692380D01*
X115622380Y-88740000D01*
X115670000Y-88787619D01*
X116289047Y-88692380D02*
X116384285Y-88692380D01*
X116479523Y-88740000D01*
X116527142Y-88787619D01*
X116574761Y-88882857D01*
X116622380Y-89073333D01*
X116622380Y-89311428D01*
X116574761Y-89501904D01*
X116527142Y-89597142D01*
X116479523Y-89644761D01*
X116384285Y-89692380D01*
X116289047Y-89692380D01*
X116193809Y-89644761D01*
X116146190Y-89597142D01*
X116098571Y-89501904D01*
X116050952Y-89311428D01*
X116050952Y-89073333D01*
X116098571Y-88882857D01*
X116146190Y-88787619D01*
X116193809Y-88740000D01*
X116289047Y-88692380D01*
X117003333Y-88787619D02*
X117050952Y-88740000D01*
X117146190Y-88692380D01*
X117384285Y-88692380D01*
X117479523Y-88740000D01*
X117527142Y-88787619D01*
X117574761Y-88882857D01*
X117574761Y-88978095D01*
X117527142Y-89120952D01*
X116955714Y-89692380D01*
X117574761Y-89692380D01*
X117955714Y-89644761D02*
X118098571Y-89692380D01*
X118336666Y-89692380D01*
X118431904Y-89644761D01*
X118479523Y-89597142D01*
X118527142Y-89501904D01*
X118527142Y-89406666D01*
X118479523Y-89311428D01*
X118431904Y-89263809D01*
X118336666Y-89216190D01*
X118146190Y-89168571D01*
X118050952Y-89120952D01*
X118003333Y-89073333D01*
X117955714Y-88978095D01*
X117955714Y-88882857D01*
X118003333Y-88787619D01*
X118050952Y-88740000D01*
X118146190Y-88692380D01*
X118384285Y-88692380D01*
X118527142Y-88740000D01*
X118860476Y-89692380D02*
X119384285Y-89025714D01*
X118860476Y-89025714D02*
X119384285Y-89692380D01*
X119765238Y-89692380D02*
X119765238Y-88692380D01*
X120146190Y-88692380D01*
X120241428Y-88740000D01*
X120289047Y-88787619D01*
X120336666Y-88882857D01*
X120336666Y-89025714D01*
X120289047Y-89120952D01*
X120241428Y-89168571D01*
X120146190Y-89216190D01*
X119765238Y-89216190D01*
X95402380Y-63286904D02*
X96211904Y-63286904D01*
X96307142Y-63239285D01*
X96354761Y-63191666D01*
X96402380Y-63096428D01*
X96402380Y-62905952D01*
X96354761Y-62810714D01*
X96307142Y-62763095D01*
X96211904Y-62715476D01*
X95402380Y-62715476D01*
X96402380Y-61715476D02*
X96402380Y-62286904D01*
X96402380Y-62001190D02*
X95402380Y-62001190D01*
X95545238Y-62096428D01*
X95640476Y-62191666D01*
X95688095Y-62286904D01*
X104547380Y-65020357D02*
X104547380Y-64353690D01*
X105547380Y-64782261D01*
X104880714Y-63544166D02*
X105547380Y-63544166D01*
X104499761Y-63782261D02*
X105214047Y-64020357D01*
X105214047Y-63401309D01*
X105547380Y-62544166D02*
X105547380Y-63020357D01*
X104547380Y-63020357D01*
X105499761Y-62258452D02*
X105547380Y-62115595D01*
X105547380Y-61877500D01*
X105499761Y-61782261D01*
X105452142Y-61734642D01*
X105356904Y-61687023D01*
X105261666Y-61687023D01*
X105166428Y-61734642D01*
X105118809Y-61782261D01*
X105071190Y-61877500D01*
X105023571Y-62067976D01*
X104975952Y-62163214D01*
X104928333Y-62210833D01*
X104833095Y-62258452D01*
X104737857Y-62258452D01*
X104642619Y-62210833D01*
X104595000Y-62163214D01*
X104547380Y-62067976D01*
X104547380Y-61829880D01*
X104595000Y-61687023D01*
X105547380Y-61210833D02*
X105547380Y-61020357D01*
X105499761Y-60925119D01*
X105452142Y-60877500D01*
X105309285Y-60782261D01*
X105118809Y-60734642D01*
X104737857Y-60734642D01*
X104642619Y-60782261D01*
X104595000Y-60829880D01*
X104547380Y-60925119D01*
X104547380Y-61115595D01*
X104595000Y-61210833D01*
X104642619Y-61258452D01*
X104737857Y-61306071D01*
X104975952Y-61306071D01*
X105071190Y-61258452D01*
X105118809Y-61210833D01*
X105166428Y-61115595D01*
X105166428Y-60925119D01*
X105118809Y-60829880D01*
X105071190Y-60782261D01*
X104975952Y-60734642D01*
X104547380Y-60401309D02*
X104547380Y-59782261D01*
X104928333Y-60115595D01*
X104928333Y-59972738D01*
X104975952Y-59877500D01*
X105023571Y-59829880D01*
X105118809Y-59782261D01*
X105356904Y-59782261D01*
X105452142Y-59829880D01*
X105499761Y-59877500D01*
X105547380Y-59972738D01*
X105547380Y-60258452D01*
X105499761Y-60353690D01*
X105452142Y-60401309D01*
X95077380Y-80013095D02*
X95886904Y-80013095D01*
X95982142Y-79965476D01*
X96029761Y-79917857D01*
X96077380Y-79822619D01*
X96077380Y-79632142D01*
X96029761Y-79536904D01*
X95982142Y-79489285D01*
X95886904Y-79441666D01*
X95077380Y-79441666D01*
X96077380Y-78441666D02*
X96077380Y-79013095D01*
X96077380Y-78727380D02*
X95077380Y-78727380D01*
X95220238Y-78822619D01*
X95315476Y-78917857D01*
X95363095Y-79013095D01*
X96077380Y-77489285D02*
X96077380Y-78060714D01*
X96077380Y-77775000D02*
X95077380Y-77775000D01*
X95220238Y-77870238D01*
X95315476Y-77965476D01*
X95363095Y-78060714D01*
X104547380Y-81357857D02*
X104547380Y-80691190D01*
X105547380Y-81119761D01*
X104880714Y-79881666D02*
X105547380Y-79881666D01*
X104499761Y-80119761D02*
X105214047Y-80357857D01*
X105214047Y-79738809D01*
X105547380Y-78881666D02*
X105547380Y-79357857D01*
X104547380Y-79357857D01*
X105499761Y-78595952D02*
X105547380Y-78453095D01*
X105547380Y-78215000D01*
X105499761Y-78119761D01*
X105452142Y-78072142D01*
X105356904Y-78024523D01*
X105261666Y-78024523D01*
X105166428Y-78072142D01*
X105118809Y-78119761D01*
X105071190Y-78215000D01*
X105023571Y-78405476D01*
X104975952Y-78500714D01*
X104928333Y-78548333D01*
X104833095Y-78595952D01*
X104737857Y-78595952D01*
X104642619Y-78548333D01*
X104595000Y-78500714D01*
X104547380Y-78405476D01*
X104547380Y-78167380D01*
X104595000Y-78024523D01*
X104547380Y-77691190D02*
X104547380Y-77024523D01*
X105547380Y-77453095D01*
X104880714Y-76215000D02*
X105547380Y-76215000D01*
X104499761Y-76453095D02*
X105214047Y-76691190D01*
X105214047Y-76072142D01*
X145252380Y-56354795D02*
X146061904Y-56354795D01*
X146157142Y-56307176D01*
X146204761Y-56259557D01*
X146252380Y-56164319D01*
X146252380Y-55973842D01*
X146204761Y-55878604D01*
X146157142Y-55830985D01*
X146061904Y-55783366D01*
X145252380Y-55783366D01*
X146252380Y-54783366D02*
X146252380Y-55354795D01*
X146252380Y-55069080D02*
X145252380Y-55069080D01*
X145395238Y-55164319D01*
X145490476Y-55259557D01*
X145538095Y-55354795D01*
X145252380Y-54164319D02*
X145252380Y-54069080D01*
X145300000Y-53973842D01*
X145347619Y-53926223D01*
X145442857Y-53878604D01*
X145633333Y-53830985D01*
X145871428Y-53830985D01*
X146061904Y-53878604D01*
X146157142Y-53926223D01*
X146204761Y-53973842D01*
X146252380Y-54069080D01*
X146252380Y-54164319D01*
X146204761Y-54259557D01*
X146157142Y-54307176D01*
X146061904Y-54354795D01*
X145871428Y-54402414D01*
X145633333Y-54402414D01*
X145442857Y-54354795D01*
X145347619Y-54307176D01*
X145300000Y-54259557D01*
X145252380Y-54164319D01*
X159267380Y-58038247D02*
X159267380Y-57371580D01*
X160267380Y-57800152D01*
X159600714Y-56562057D02*
X160267380Y-56562057D01*
X159219761Y-56800152D02*
X159934047Y-57038247D01*
X159934047Y-56419200D01*
X160267380Y-55562057D02*
X160267380Y-56038247D01*
X159267380Y-56038247D01*
X160219761Y-55276342D02*
X160267380Y-55133485D01*
X160267380Y-54895390D01*
X160219761Y-54800152D01*
X160172142Y-54752533D01*
X160076904Y-54704914D01*
X159981666Y-54704914D01*
X159886428Y-54752533D01*
X159838809Y-54800152D01*
X159791190Y-54895390D01*
X159743571Y-55085866D01*
X159695952Y-55181104D01*
X159648333Y-55228723D01*
X159553095Y-55276342D01*
X159457857Y-55276342D01*
X159362619Y-55228723D01*
X159315000Y-55181104D01*
X159267380Y-55085866D01*
X159267380Y-54847771D01*
X159315000Y-54704914D01*
X159362619Y-54323961D02*
X159315000Y-54276342D01*
X159267380Y-54181104D01*
X159267380Y-53943009D01*
X159315000Y-53847771D01*
X159362619Y-53800152D01*
X159457857Y-53752533D01*
X159553095Y-53752533D01*
X159695952Y-53800152D01*
X160267380Y-54371580D01*
X160267380Y-53752533D01*
X159600714Y-52895390D02*
X160267380Y-52895390D01*
X159219761Y-53133485D02*
X159934047Y-53371580D01*
X159934047Y-52752533D01*
X159600714Y-51943009D02*
X160267380Y-51943009D01*
X159219761Y-52181104D02*
X159934047Y-52419200D01*
X159934047Y-51800152D01*
X112502380Y-108761904D02*
X113311904Y-108761904D01*
X113407142Y-108714285D01*
X113454761Y-108666666D01*
X113502380Y-108571428D01*
X113502380Y-108380952D01*
X113454761Y-108285714D01*
X113407142Y-108238095D01*
X113311904Y-108190476D01*
X112502380Y-108190476D01*
X113502380Y-107666666D02*
X113502380Y-107476190D01*
X113454761Y-107380952D01*
X113407142Y-107333333D01*
X113264285Y-107238095D01*
X113073809Y-107190476D01*
X112692857Y-107190476D01*
X112597619Y-107238095D01*
X112550000Y-107285714D01*
X112502380Y-107380952D01*
X112502380Y-107571428D01*
X112550000Y-107666666D01*
X112597619Y-107714285D01*
X112692857Y-107761904D01*
X112930952Y-107761904D01*
X113026190Y-107714285D01*
X113073809Y-107666666D01*
X113121428Y-107571428D01*
X113121428Y-107380952D01*
X113073809Y-107285714D01*
X113026190Y-107238095D01*
X112930952Y-107190476D01*
X125742380Y-110784047D02*
X125742380Y-110117380D01*
X126742380Y-110545952D01*
X126075714Y-109307857D02*
X126742380Y-109307857D01*
X125694761Y-109545952D02*
X126409047Y-109784047D01*
X126409047Y-109165000D01*
X126742380Y-108307857D02*
X126742380Y-108784047D01*
X125742380Y-108784047D01*
X126694761Y-108022142D02*
X126742380Y-107879285D01*
X126742380Y-107641190D01*
X126694761Y-107545952D01*
X126647142Y-107498333D01*
X126551904Y-107450714D01*
X126456666Y-107450714D01*
X126361428Y-107498333D01*
X126313809Y-107545952D01*
X126266190Y-107641190D01*
X126218571Y-107831666D01*
X126170952Y-107926904D01*
X126123333Y-107974523D01*
X126028095Y-108022142D01*
X125932857Y-108022142D01*
X125837619Y-107974523D01*
X125790000Y-107926904D01*
X125742380Y-107831666D01*
X125742380Y-107593571D01*
X125790000Y-107450714D01*
X125742380Y-106593571D02*
X125742380Y-106784047D01*
X125790000Y-106879285D01*
X125837619Y-106926904D01*
X125980476Y-107022142D01*
X126170952Y-107069761D01*
X126551904Y-107069761D01*
X126647142Y-107022142D01*
X126694761Y-106974523D01*
X126742380Y-106879285D01*
X126742380Y-106688809D01*
X126694761Y-106593571D01*
X126647142Y-106545952D01*
X126551904Y-106498333D01*
X126313809Y-106498333D01*
X126218571Y-106545952D01*
X126170952Y-106593571D01*
X126123333Y-106688809D01*
X126123333Y-106879285D01*
X126170952Y-106974523D01*
X126218571Y-107022142D01*
X126313809Y-107069761D01*
X126170952Y-105926904D02*
X126123333Y-106022142D01*
X126075714Y-106069761D01*
X125980476Y-106117380D01*
X125932857Y-106117380D01*
X125837619Y-106069761D01*
X125790000Y-106022142D01*
X125742380Y-105926904D01*
X125742380Y-105736428D01*
X125790000Y-105641190D01*
X125837619Y-105593571D01*
X125932857Y-105545952D01*
X125980476Y-105545952D01*
X126075714Y-105593571D01*
X126123333Y-105641190D01*
X126170952Y-105736428D01*
X126170952Y-105926904D01*
X126218571Y-106022142D01*
X126266190Y-106069761D01*
X126361428Y-106117380D01*
X126551904Y-106117380D01*
X126647142Y-106069761D01*
X126694761Y-106022142D01*
X126742380Y-105926904D01*
X126742380Y-105736428D01*
X126694761Y-105641190D01*
X126647142Y-105593571D01*
X126551904Y-105545952D01*
X126361428Y-105545952D01*
X126266190Y-105593571D01*
X126218571Y-105641190D01*
X126170952Y-105736428D01*
X126170952Y-104974523D02*
X126123333Y-105069761D01*
X126075714Y-105117380D01*
X125980476Y-105165000D01*
X125932857Y-105165000D01*
X125837619Y-105117380D01*
X125790000Y-105069761D01*
X125742380Y-104974523D01*
X125742380Y-104784047D01*
X125790000Y-104688809D01*
X125837619Y-104641190D01*
X125932857Y-104593571D01*
X125980476Y-104593571D01*
X126075714Y-104641190D01*
X126123333Y-104688809D01*
X126170952Y-104784047D01*
X126170952Y-104974523D01*
X126218571Y-105069761D01*
X126266190Y-105117380D01*
X126361428Y-105165000D01*
X126551904Y-105165000D01*
X126647142Y-105117380D01*
X126694761Y-105069761D01*
X126742380Y-104974523D01*
X126742380Y-104784047D01*
X126694761Y-104688809D01*
X126647142Y-104641190D01*
X126551904Y-104593571D01*
X126361428Y-104593571D01*
X126266190Y-104641190D01*
X126218571Y-104688809D01*
X126170952Y-104784047D01*
X146152380Y-40461904D02*
X146961904Y-40461904D01*
X147057142Y-40414285D01*
X147104761Y-40366666D01*
X147152380Y-40271428D01*
X147152380Y-40080952D01*
X147104761Y-39985714D01*
X147057142Y-39938095D01*
X146961904Y-39890476D01*
X146152380Y-39890476D01*
X146580952Y-39271428D02*
X146533333Y-39366666D01*
X146485714Y-39414285D01*
X146390476Y-39461904D01*
X146342857Y-39461904D01*
X146247619Y-39414285D01*
X146200000Y-39366666D01*
X146152380Y-39271428D01*
X146152380Y-39080952D01*
X146200000Y-38985714D01*
X146247619Y-38938095D01*
X146342857Y-38890476D01*
X146390476Y-38890476D01*
X146485714Y-38938095D01*
X146533333Y-38985714D01*
X146580952Y-39080952D01*
X146580952Y-39271428D01*
X146628571Y-39366666D01*
X146676190Y-39414285D01*
X146771428Y-39461904D01*
X146961904Y-39461904D01*
X147057142Y-39414285D01*
X147104761Y-39366666D01*
X147152380Y-39271428D01*
X147152380Y-39080952D01*
X147104761Y-38985714D01*
X147057142Y-38938095D01*
X146961904Y-38890476D01*
X146771428Y-38890476D01*
X146676190Y-38938095D01*
X146628571Y-38985714D01*
X146580952Y-39080952D01*
X159267380Y-43009047D02*
X159267380Y-42342380D01*
X160267380Y-42770952D01*
X159600714Y-41532857D02*
X160267380Y-41532857D01*
X159219761Y-41770952D02*
X159934047Y-42009047D01*
X159934047Y-41390000D01*
X160267380Y-40532857D02*
X160267380Y-41009047D01*
X159267380Y-41009047D01*
X160219761Y-40247142D02*
X160267380Y-40104285D01*
X160267380Y-39866190D01*
X160219761Y-39770952D01*
X160172142Y-39723333D01*
X160076904Y-39675714D01*
X159981666Y-39675714D01*
X159886428Y-39723333D01*
X159838809Y-39770952D01*
X159791190Y-39866190D01*
X159743571Y-40056666D01*
X159695952Y-40151904D01*
X159648333Y-40199523D01*
X159553095Y-40247142D01*
X159457857Y-40247142D01*
X159362619Y-40199523D01*
X159315000Y-40151904D01*
X159267380Y-40056666D01*
X159267380Y-39818571D01*
X159315000Y-39675714D01*
X159362619Y-39294761D02*
X159315000Y-39247142D01*
X159267380Y-39151904D01*
X159267380Y-38913809D01*
X159315000Y-38818571D01*
X159362619Y-38770952D01*
X159457857Y-38723333D01*
X159553095Y-38723333D01*
X159695952Y-38770952D01*
X160267380Y-39342380D01*
X160267380Y-38723333D01*
X159600714Y-37866190D02*
X160267380Y-37866190D01*
X159219761Y-38104285D02*
X159934047Y-38342380D01*
X159934047Y-37723333D01*
X159600714Y-36913809D02*
X160267380Y-36913809D01*
X159219761Y-37151904D02*
X159934047Y-37390000D01*
X159934047Y-36770952D01*
X146302380Y-85486904D02*
X147111904Y-85486904D01*
X147207142Y-85439285D01*
X147254761Y-85391666D01*
X147302380Y-85296428D01*
X147302380Y-85105952D01*
X147254761Y-85010714D01*
X147207142Y-84963095D01*
X147111904Y-84915476D01*
X146302380Y-84915476D01*
X146302380Y-84534523D02*
X146302380Y-83867857D01*
X147302380Y-84296428D01*
X159267380Y-88096547D02*
X159267380Y-87429880D01*
X160267380Y-87858452D01*
X159600714Y-86620357D02*
X160267380Y-86620357D01*
X159219761Y-86858452D02*
X159934047Y-87096547D01*
X159934047Y-86477500D01*
X160267380Y-85620357D02*
X160267380Y-86096547D01*
X159267380Y-86096547D01*
X160219761Y-85334642D02*
X160267380Y-85191785D01*
X160267380Y-84953690D01*
X160219761Y-84858452D01*
X160172142Y-84810833D01*
X160076904Y-84763214D01*
X159981666Y-84763214D01*
X159886428Y-84810833D01*
X159838809Y-84858452D01*
X159791190Y-84953690D01*
X159743571Y-85144166D01*
X159695952Y-85239404D01*
X159648333Y-85287023D01*
X159553095Y-85334642D01*
X159457857Y-85334642D01*
X159362619Y-85287023D01*
X159315000Y-85239404D01*
X159267380Y-85144166D01*
X159267380Y-84906071D01*
X159315000Y-84763214D01*
X159362619Y-84382261D02*
X159315000Y-84334642D01*
X159267380Y-84239404D01*
X159267380Y-84001309D01*
X159315000Y-83906071D01*
X159362619Y-83858452D01*
X159457857Y-83810833D01*
X159553095Y-83810833D01*
X159695952Y-83858452D01*
X160267380Y-84429880D01*
X160267380Y-83810833D01*
X159600714Y-82953690D02*
X160267380Y-82953690D01*
X159219761Y-83191785D02*
X159934047Y-83429880D01*
X159934047Y-82810833D01*
X159267380Y-81953690D02*
X159267380Y-82429880D01*
X159743571Y-82477500D01*
X159695952Y-82429880D01*
X159648333Y-82334642D01*
X159648333Y-82096547D01*
X159695952Y-82001309D01*
X159743571Y-81953690D01*
X159838809Y-81906071D01*
X160076904Y-81906071D01*
X160172142Y-81953690D01*
X160219761Y-82001309D01*
X160267380Y-82096547D01*
X160267380Y-82334642D01*
X160219761Y-82429880D01*
X160172142Y-82477500D01*
X146152380Y-108961904D02*
X146961904Y-108961904D01*
X147057142Y-108914285D01*
X147104761Y-108866666D01*
X147152380Y-108771428D01*
X147152380Y-108580952D01*
X147104761Y-108485714D01*
X147057142Y-108438095D01*
X146961904Y-108390476D01*
X146152380Y-108390476D01*
X146152380Y-107438095D02*
X146152380Y-107914285D01*
X146628571Y-107961904D01*
X146580952Y-107914285D01*
X146533333Y-107819047D01*
X146533333Y-107580952D01*
X146580952Y-107485714D01*
X146628571Y-107438095D01*
X146723809Y-107390476D01*
X146961904Y-107390476D01*
X147057142Y-107438095D01*
X147104761Y-107485714D01*
X147152380Y-107580952D01*
X147152380Y-107819047D01*
X147104761Y-107914285D01*
X147057142Y-107961904D01*
X158867380Y-111284047D02*
X158867380Y-110617380D01*
X159867380Y-111045952D01*
X159200714Y-109807857D02*
X159867380Y-109807857D01*
X158819761Y-110045952D02*
X159534047Y-110284047D01*
X159534047Y-109665000D01*
X159867380Y-108807857D02*
X159867380Y-109284047D01*
X158867380Y-109284047D01*
X159819761Y-108522142D02*
X159867380Y-108379285D01*
X159867380Y-108141190D01*
X159819761Y-108045952D01*
X159772142Y-107998333D01*
X159676904Y-107950714D01*
X159581666Y-107950714D01*
X159486428Y-107998333D01*
X159438809Y-108045952D01*
X159391190Y-108141190D01*
X159343571Y-108331666D01*
X159295952Y-108426904D01*
X159248333Y-108474523D01*
X159153095Y-108522142D01*
X159057857Y-108522142D01*
X158962619Y-108474523D01*
X158915000Y-108426904D01*
X158867380Y-108331666D01*
X158867380Y-108093571D01*
X158915000Y-107950714D01*
X158867380Y-107093571D02*
X158867380Y-107284047D01*
X158915000Y-107379285D01*
X158962619Y-107426904D01*
X159105476Y-107522142D01*
X159295952Y-107569761D01*
X159676904Y-107569761D01*
X159772142Y-107522142D01*
X159819761Y-107474523D01*
X159867380Y-107379285D01*
X159867380Y-107188809D01*
X159819761Y-107093571D01*
X159772142Y-107045952D01*
X159676904Y-106998333D01*
X159438809Y-106998333D01*
X159343571Y-107045952D01*
X159295952Y-107093571D01*
X159248333Y-107188809D01*
X159248333Y-107379285D01*
X159295952Y-107474523D01*
X159343571Y-107522142D01*
X159438809Y-107569761D01*
X159295952Y-106426904D02*
X159248333Y-106522142D01*
X159200714Y-106569761D01*
X159105476Y-106617380D01*
X159057857Y-106617380D01*
X158962619Y-106569761D01*
X158915000Y-106522142D01*
X158867380Y-106426904D01*
X158867380Y-106236428D01*
X158915000Y-106141190D01*
X158962619Y-106093571D01*
X159057857Y-106045952D01*
X159105476Y-106045952D01*
X159200714Y-106093571D01*
X159248333Y-106141190D01*
X159295952Y-106236428D01*
X159295952Y-106426904D01*
X159343571Y-106522142D01*
X159391190Y-106569761D01*
X159486428Y-106617380D01*
X159676904Y-106617380D01*
X159772142Y-106569761D01*
X159819761Y-106522142D01*
X159867380Y-106426904D01*
X159867380Y-106236428D01*
X159819761Y-106141190D01*
X159772142Y-106093571D01*
X159676904Y-106045952D01*
X159486428Y-106045952D01*
X159391190Y-106093571D01*
X159343571Y-106141190D01*
X159295952Y-106236428D01*
X159295952Y-105474523D02*
X159248333Y-105569761D01*
X159200714Y-105617380D01*
X159105476Y-105665000D01*
X159057857Y-105665000D01*
X158962619Y-105617380D01*
X158915000Y-105569761D01*
X158867380Y-105474523D01*
X158867380Y-105284047D01*
X158915000Y-105188809D01*
X158962619Y-105141190D01*
X159057857Y-105093571D01*
X159105476Y-105093571D01*
X159200714Y-105141190D01*
X159248333Y-105188809D01*
X159295952Y-105284047D01*
X159295952Y-105474523D01*
X159343571Y-105569761D01*
X159391190Y-105617380D01*
X159486428Y-105665000D01*
X159676904Y-105665000D01*
X159772142Y-105617380D01*
X159819761Y-105569761D01*
X159867380Y-105474523D01*
X159867380Y-105284047D01*
X159819761Y-105188809D01*
X159772142Y-105141190D01*
X159676904Y-105093571D01*
X159486428Y-105093571D01*
X159391190Y-105141190D01*
X159343571Y-105188809D01*
X159295952Y-105284047D01*
X114472380Y-95811904D02*
X115281904Y-95811904D01*
X115377142Y-95764285D01*
X115424761Y-95716666D01*
X115472380Y-95621428D01*
X115472380Y-95430952D01*
X115424761Y-95335714D01*
X115377142Y-95288095D01*
X115281904Y-95240476D01*
X114472380Y-95240476D01*
X114805714Y-94335714D02*
X115472380Y-94335714D01*
X114424761Y-94573809D02*
X115139047Y-94811904D01*
X115139047Y-94192857D01*
X125597380Y-98107857D02*
X125597380Y-97441190D01*
X126597380Y-97869761D01*
X125930714Y-96631666D02*
X126597380Y-96631666D01*
X125549761Y-96869761D02*
X126264047Y-97107857D01*
X126264047Y-96488809D01*
X126597380Y-95631666D02*
X126597380Y-96107857D01*
X125597380Y-96107857D01*
X126549761Y-95345952D02*
X126597380Y-95203095D01*
X126597380Y-94965000D01*
X126549761Y-94869761D01*
X126502142Y-94822142D01*
X126406904Y-94774523D01*
X126311666Y-94774523D01*
X126216428Y-94822142D01*
X126168809Y-94869761D01*
X126121190Y-94965000D01*
X126073571Y-95155476D01*
X126025952Y-95250714D01*
X125978333Y-95298333D01*
X125883095Y-95345952D01*
X125787857Y-95345952D01*
X125692619Y-95298333D01*
X125645000Y-95250714D01*
X125597380Y-95155476D01*
X125597380Y-94917380D01*
X125645000Y-94774523D01*
X125597380Y-94155476D02*
X125597380Y-94060238D01*
X125645000Y-93965000D01*
X125692619Y-93917380D01*
X125787857Y-93869761D01*
X125978333Y-93822142D01*
X126216428Y-93822142D01*
X126406904Y-93869761D01*
X126502142Y-93917380D01*
X126549761Y-93965000D01*
X126597380Y-94060238D01*
X126597380Y-94155476D01*
X126549761Y-94250714D01*
X126502142Y-94298333D01*
X126406904Y-94345952D01*
X126216428Y-94393571D01*
X125978333Y-94393571D01*
X125787857Y-94345952D01*
X125692619Y-94298333D01*
X125645000Y-94250714D01*
X125597380Y-94155476D01*
X125930714Y-92965000D02*
X126597380Y-92965000D01*
X125549761Y-93203095D02*
X126264047Y-93441190D01*
X126264047Y-92822142D01*
X94277380Y-46611904D02*
X95086904Y-46611904D01*
X95182142Y-46564285D01*
X95229761Y-46516666D01*
X95277380Y-46421428D01*
X95277380Y-46230952D01*
X95229761Y-46135714D01*
X95182142Y-46088095D01*
X95086904Y-46040476D01*
X94277380Y-46040476D01*
X94277380Y-45659523D02*
X94277380Y-45040476D01*
X94658333Y-45373809D01*
X94658333Y-45230952D01*
X94705952Y-45135714D01*
X94753571Y-45088095D01*
X94848809Y-45040476D01*
X95086904Y-45040476D01*
X95182142Y-45088095D01*
X95229761Y-45135714D01*
X95277380Y-45230952D01*
X95277380Y-45516666D01*
X95229761Y-45611904D01*
X95182142Y-45659523D01*
X104547380Y-48682857D02*
X104547380Y-48016190D01*
X105547380Y-48444761D01*
X104880714Y-47206666D02*
X105547380Y-47206666D01*
X104499761Y-47444761D02*
X105214047Y-47682857D01*
X105214047Y-47063809D01*
X105547380Y-46206666D02*
X105547380Y-46682857D01*
X104547380Y-46682857D01*
X105499761Y-45920952D02*
X105547380Y-45778095D01*
X105547380Y-45540000D01*
X105499761Y-45444761D01*
X105452142Y-45397142D01*
X105356904Y-45349523D01*
X105261666Y-45349523D01*
X105166428Y-45397142D01*
X105118809Y-45444761D01*
X105071190Y-45540000D01*
X105023571Y-45730476D01*
X104975952Y-45825714D01*
X104928333Y-45873333D01*
X104833095Y-45920952D01*
X104737857Y-45920952D01*
X104642619Y-45873333D01*
X104595000Y-45825714D01*
X104547380Y-45730476D01*
X104547380Y-45492380D01*
X104595000Y-45349523D01*
X104547380Y-44730476D02*
X104547380Y-44635238D01*
X104595000Y-44540000D01*
X104642619Y-44492380D01*
X104737857Y-44444761D01*
X104928333Y-44397142D01*
X105166428Y-44397142D01*
X105356904Y-44444761D01*
X105452142Y-44492380D01*
X105499761Y-44540000D01*
X105547380Y-44635238D01*
X105547380Y-44730476D01*
X105499761Y-44825714D01*
X105452142Y-44873333D01*
X105356904Y-44920952D01*
X105166428Y-44968571D01*
X104928333Y-44968571D01*
X104737857Y-44920952D01*
X104642619Y-44873333D01*
X104595000Y-44825714D01*
X104547380Y-44730476D01*
X104547380Y-44063809D02*
X104547380Y-43397142D01*
X105547380Y-43825714D01*
X145752380Y-70645204D02*
X146561904Y-70645204D01*
X146657142Y-70597585D01*
X146704761Y-70549966D01*
X146752380Y-70454728D01*
X146752380Y-70264252D01*
X146704761Y-70169014D01*
X146657142Y-70121395D01*
X146561904Y-70073776D01*
X145752380Y-70073776D01*
X145847619Y-69645204D02*
X145800000Y-69597585D01*
X145752380Y-69502347D01*
X145752380Y-69264252D01*
X145800000Y-69169014D01*
X145847619Y-69121395D01*
X145942857Y-69073776D01*
X146038095Y-69073776D01*
X146180952Y-69121395D01*
X146752380Y-69692823D01*
X146752380Y-69073776D01*
X159267380Y-73067347D02*
X159267380Y-72400680D01*
X160267380Y-72829252D01*
X159600714Y-71591157D02*
X160267380Y-71591157D01*
X159219761Y-71829252D02*
X159934047Y-72067347D01*
X159934047Y-71448300D01*
X160267380Y-70591157D02*
X160267380Y-71067347D01*
X159267380Y-71067347D01*
X160219761Y-70305442D02*
X160267380Y-70162585D01*
X160267380Y-69924490D01*
X160219761Y-69829252D01*
X160172142Y-69781633D01*
X160076904Y-69734014D01*
X159981666Y-69734014D01*
X159886428Y-69781633D01*
X159838809Y-69829252D01*
X159791190Y-69924490D01*
X159743571Y-70114966D01*
X159695952Y-70210204D01*
X159648333Y-70257823D01*
X159553095Y-70305442D01*
X159457857Y-70305442D01*
X159362619Y-70257823D01*
X159315000Y-70210204D01*
X159267380Y-70114966D01*
X159267380Y-69876871D01*
X159315000Y-69734014D01*
X159362619Y-69353061D02*
X159315000Y-69305442D01*
X159267380Y-69210204D01*
X159267380Y-68972109D01*
X159315000Y-68876871D01*
X159362619Y-68829252D01*
X159457857Y-68781633D01*
X159553095Y-68781633D01*
X159695952Y-68829252D01*
X160267380Y-69400680D01*
X160267380Y-68781633D01*
X159600714Y-67924490D02*
X160267380Y-67924490D01*
X159219761Y-68162585D02*
X159934047Y-68400680D01*
X159934047Y-67781633D01*
X159600714Y-66972109D02*
X160267380Y-66972109D01*
X159219761Y-67210204D02*
X159934047Y-67448300D01*
X159934047Y-66829252D01*
X73234761Y-40258333D02*
X73282380Y-40115476D01*
X73282380Y-39877380D01*
X73234761Y-39782142D01*
X73187142Y-39734523D01*
X73091904Y-39686904D01*
X72996666Y-39686904D01*
X72901428Y-39734523D01*
X72853809Y-39782142D01*
X72806190Y-39877380D01*
X72758571Y-40067857D01*
X72710952Y-40163095D01*
X72663333Y-40210714D01*
X72568095Y-40258333D01*
X72472857Y-40258333D01*
X72377619Y-40210714D01*
X72330000Y-40163095D01*
X72282380Y-40067857D01*
X72282380Y-39829761D01*
X72330000Y-39686904D01*
X72282380Y-39353571D02*
X73282380Y-39115476D01*
X72568095Y-38925000D01*
X73282380Y-38734523D01*
X72282380Y-38496428D01*
X72377619Y-38163095D02*
X72330000Y-38115476D01*
X72282380Y-38020238D01*
X72282380Y-37782142D01*
X72330000Y-37686904D01*
X72377619Y-37639285D01*
X72472857Y-37591666D01*
X72568095Y-37591666D01*
X72710952Y-37639285D01*
X73282380Y-38210714D01*
X73282380Y-37591666D01*
X76992260Y-40377380D02*
X76516070Y-40710714D01*
X76992260Y-40948809D02*
X75992260Y-40948809D01*
X75992260Y-40567857D01*
X76039880Y-40472619D01*
X76087499Y-40425000D01*
X76182737Y-40377380D01*
X76325594Y-40377380D01*
X76420832Y-40425000D01*
X76468451Y-40472619D01*
X76516070Y-40567857D01*
X76516070Y-40948809D01*
X76468451Y-39948809D02*
X76468451Y-39615476D01*
X76992260Y-39472619D02*
X76992260Y-39948809D01*
X75992260Y-39948809D01*
X75992260Y-39472619D01*
X76944641Y-39091666D02*
X76992260Y-38948809D01*
X76992260Y-38710714D01*
X76944641Y-38615476D01*
X76897022Y-38567857D01*
X76801784Y-38520238D01*
X76706546Y-38520238D01*
X76611308Y-38567857D01*
X76563689Y-38615476D01*
X76516070Y-38710714D01*
X76468451Y-38901190D01*
X76420832Y-38996428D01*
X76373213Y-39044047D01*
X76277975Y-39091666D01*
X76182737Y-39091666D01*
X76087499Y-39044047D01*
X76039880Y-38996428D01*
X75992260Y-38901190D01*
X75992260Y-38663095D01*
X76039880Y-38520238D01*
X76468451Y-38091666D02*
X76468451Y-37758333D01*
X76992260Y-37615476D02*
X76992260Y-38091666D01*
X75992260Y-38091666D01*
X75992260Y-37615476D01*
X75992260Y-37329761D02*
X75992260Y-36758333D01*
X76992260Y-37044047D02*
X75992260Y-37044047D01*
X109404523Y-119990380D02*
X109071190Y-119514190D01*
X108833095Y-119990380D02*
X108833095Y-118990380D01*
X109214047Y-118990380D01*
X109309285Y-119038000D01*
X109356904Y-119085619D01*
X109404523Y-119180857D01*
X109404523Y-119323714D01*
X109356904Y-119418952D01*
X109309285Y-119466571D01*
X109214047Y-119514190D01*
X108833095Y-119514190D01*
X109833095Y-119990380D02*
X109833095Y-118990380D01*
X110404523Y-119990380D01*
X110404523Y-118990380D01*
X110785476Y-118990380D02*
X111404523Y-118990380D01*
X111071190Y-119371333D01*
X111214047Y-119371333D01*
X111309285Y-119418952D01*
X111356904Y-119466571D01*
X111404523Y-119561809D01*
X111404523Y-119799904D01*
X111356904Y-119895142D01*
X111309285Y-119942761D01*
X111214047Y-119990380D01*
X110928333Y-119990380D01*
X110833095Y-119942761D01*
X110785476Y-119895142D01*
X99960714Y-115077380D02*
X99389285Y-115077380D01*
X99675000Y-115077380D02*
X99675000Y-114077380D01*
X99579761Y-114220238D01*
X99484523Y-114315476D01*
X99389285Y-114363095D01*
X100389285Y-115077380D02*
X100389285Y-114077380D01*
X100960714Y-115077380D02*
X100532142Y-114505952D01*
X100960714Y-114077380D02*
X100389285Y-114648809D01*
X144454523Y-119940380D02*
X144121190Y-119464190D01*
X143883095Y-119940380D02*
X143883095Y-118940380D01*
X144264047Y-118940380D01*
X144359285Y-118988000D01*
X144406904Y-119035619D01*
X144454523Y-119130857D01*
X144454523Y-119273714D01*
X144406904Y-119368952D01*
X144359285Y-119416571D01*
X144264047Y-119464190D01*
X143883095Y-119464190D01*
X144883095Y-119940380D02*
X144883095Y-118940380D01*
X145454523Y-119940380D01*
X145454523Y-118940380D01*
X145883095Y-119035619D02*
X145930714Y-118988000D01*
X146025952Y-118940380D01*
X146264047Y-118940380D01*
X146359285Y-118988000D01*
X146406904Y-119035619D01*
X146454523Y-119130857D01*
X146454523Y-119226095D01*
X146406904Y-119368952D01*
X145835476Y-119940380D01*
X146454523Y-119940380D01*
X133110714Y-117427880D02*
X132539285Y-117427880D01*
X132825000Y-117427880D02*
X132825000Y-116427880D01*
X132729761Y-116570738D01*
X132634523Y-116665976D01*
X132539285Y-116713595D01*
X133539285Y-117427880D02*
X133539285Y-116427880D01*
X134110714Y-117427880D02*
X133682142Y-116856452D01*
X134110714Y-116427880D02*
X133539285Y-116999309D01*
X146484523Y-97314880D02*
X146151190Y-96838690D01*
X145913095Y-97314880D02*
X145913095Y-96314880D01*
X146294047Y-96314880D01*
X146389285Y-96362500D01*
X146436904Y-96410119D01*
X146484523Y-96505357D01*
X146484523Y-96648214D01*
X146436904Y-96743452D01*
X146389285Y-96791071D01*
X146294047Y-96838690D01*
X145913095Y-96838690D01*
X146913095Y-97314880D02*
X146913095Y-96314880D01*
X147484523Y-97314880D01*
X147484523Y-96314880D01*
X148484523Y-97314880D02*
X147913095Y-97314880D01*
X148198809Y-97314880D02*
X148198809Y-96314880D01*
X148103571Y-96457738D01*
X148008333Y-96552976D01*
X147913095Y-96600595D01*
X128861904Y-99260714D02*
X128861904Y-99927380D01*
X128623809Y-98879761D02*
X128385714Y-99594047D01*
X129004761Y-99594047D01*
X129290476Y-98927380D02*
X129957142Y-98927380D01*
X129528571Y-99927380D01*
X130528571Y-98927380D02*
X130623809Y-98927380D01*
X130719047Y-98975000D01*
X130766666Y-99022619D01*
X130814285Y-99117857D01*
X130861904Y-99308333D01*
X130861904Y-99546428D01*
X130814285Y-99736904D01*
X130766666Y-99832142D01*
X130719047Y-99879761D01*
X130623809Y-99927380D01*
X130528571Y-99927380D01*
X130433333Y-99879761D01*
X130385714Y-99832142D01*
X130338095Y-99736904D01*
X130290476Y-99546428D01*
X130290476Y-99308333D01*
X130338095Y-99117857D01*
X130385714Y-99022619D01*
X130433333Y-98975000D01*
X130528571Y-98927380D01*
X131480952Y-98927380D02*
X131576190Y-98927380D01*
X131671428Y-98975000D01*
X131719047Y-99022619D01*
X131766666Y-99117857D01*
X131814285Y-99308333D01*
X131814285Y-99546428D01*
X131766666Y-99736904D01*
X131719047Y-99832142D01*
X131671428Y-99879761D01*
X131576190Y-99927380D01*
X131480952Y-99927380D01*
X131385714Y-99879761D01*
X131338095Y-99832142D01*
X131290476Y-99736904D01*
X131242857Y-99546428D01*
X131242857Y-99308333D01*
X131290476Y-99117857D01*
X131338095Y-99022619D01*
X131385714Y-98975000D01*
X131480952Y-98927380D01*
X95027380Y-95966666D02*
X94551190Y-96300000D01*
X95027380Y-96538095D02*
X94027380Y-96538095D01*
X94027380Y-96157142D01*
X94075000Y-96061904D01*
X94122619Y-96014285D01*
X94217857Y-95966666D01*
X94360714Y-95966666D01*
X94455952Y-96014285D01*
X94503571Y-96061904D01*
X94551190Y-96157142D01*
X94551190Y-96538095D01*
X94027380Y-95633333D02*
X94027380Y-95014285D01*
X94408333Y-95347619D01*
X94408333Y-95204761D01*
X94455952Y-95109523D01*
X94503571Y-95061904D01*
X94598809Y-95014285D01*
X94836904Y-95014285D01*
X94932142Y-95061904D01*
X94979761Y-95109523D01*
X95027380Y-95204761D01*
X95027380Y-95490476D01*
X94979761Y-95585714D01*
X94932142Y-95633333D01*
X94485714Y-102786904D02*
X95152380Y-102786904D01*
X94104761Y-103025000D02*
X94819047Y-103263095D01*
X94819047Y-102644047D01*
X94152380Y-102358333D02*
X94152380Y-101691666D01*
X95152380Y-102120238D01*
X94152380Y-101120238D02*
X94152380Y-101025000D01*
X94200000Y-100929761D01*
X94247619Y-100882142D01*
X94342857Y-100834523D01*
X94533333Y-100786904D01*
X94771428Y-100786904D01*
X94961904Y-100834523D01*
X95057142Y-100882142D01*
X95104761Y-100929761D01*
X95152380Y-101025000D01*
X95152380Y-101120238D01*
X95104761Y-101215476D01*
X95057142Y-101263095D01*
X94961904Y-101310714D01*
X94771428Y-101358333D01*
X94533333Y-101358333D01*
X94342857Y-101310714D01*
X94247619Y-101263095D01*
X94200000Y-101215476D01*
X94152380Y-101120238D01*
X85668333Y-101877380D02*
X85335000Y-101401190D01*
X85096904Y-101877380D02*
X85096904Y-100877380D01*
X85477857Y-100877380D01*
X85573095Y-100925000D01*
X85620714Y-100972619D01*
X85668333Y-101067857D01*
X85668333Y-101210714D01*
X85620714Y-101305952D01*
X85573095Y-101353571D01*
X85477857Y-101401190D01*
X85096904Y-101401190D01*
X86049285Y-100972619D02*
X86096904Y-100925000D01*
X86192142Y-100877380D01*
X86430238Y-100877380D01*
X86525476Y-100925000D01*
X86573095Y-100972619D01*
X86620714Y-101067857D01*
X86620714Y-101163095D01*
X86573095Y-101305952D01*
X86001666Y-101877380D01*
X86620714Y-101877380D01*
X78894523Y-102052380D02*
X78323095Y-102052380D01*
X78608809Y-102052380D02*
X78608809Y-101052380D01*
X78513571Y-101195238D01*
X78418333Y-101290476D01*
X78323095Y-101338095D01*
X79513571Y-101052380D02*
X79608809Y-101052380D01*
X79704047Y-101100000D01*
X79751666Y-101147619D01*
X79799285Y-101242857D01*
X79846904Y-101433333D01*
X79846904Y-101671428D01*
X79799285Y-101861904D01*
X79751666Y-101957142D01*
X79704047Y-102004761D01*
X79608809Y-102052380D01*
X79513571Y-102052380D01*
X79418333Y-102004761D01*
X79370714Y-101957142D01*
X79323095Y-101861904D01*
X79275476Y-101671428D01*
X79275476Y-101433333D01*
X79323095Y-101242857D01*
X79370714Y-101147619D01*
X79418333Y-101100000D01*
X79513571Y-101052380D01*
X80275476Y-102052380D02*
X80275476Y-101052380D01*
X80846904Y-102052380D02*
X80418333Y-101480952D01*
X80846904Y-101052380D02*
X80275476Y-101623809D01*
X74047380Y-49976666D02*
X73571190Y-50310000D01*
X74047380Y-50548095D02*
X73047380Y-50548095D01*
X73047380Y-50167142D01*
X73095000Y-50071904D01*
X73142619Y-50024285D01*
X73237857Y-49976666D01*
X73380714Y-49976666D01*
X73475952Y-50024285D01*
X73523571Y-50071904D01*
X73571190Y-50167142D01*
X73571190Y-50548095D01*
X74047380Y-49024285D02*
X74047380Y-49595714D01*
X74047380Y-49310000D02*
X73047380Y-49310000D01*
X73190238Y-49405238D01*
X73285476Y-49500476D01*
X73333095Y-49595714D01*
X69307380Y-50000476D02*
X69307380Y-50571904D01*
X69307380Y-50286190D02*
X68307380Y-50286190D01*
X68450238Y-50381428D01*
X68545476Y-50476666D01*
X68593095Y-50571904D01*
X68307380Y-49381428D02*
X68307380Y-49286190D01*
X68355000Y-49190952D01*
X68402619Y-49143333D01*
X68497857Y-49095714D01*
X68688333Y-49048095D01*
X68926428Y-49048095D01*
X69116904Y-49095714D01*
X69212142Y-49143333D01*
X69259761Y-49190952D01*
X69307380Y-49286190D01*
X69307380Y-49381428D01*
X69259761Y-49476666D01*
X69212142Y-49524285D01*
X69116904Y-49571904D01*
X68926428Y-49619523D01*
X68688333Y-49619523D01*
X68497857Y-49571904D01*
X68402619Y-49524285D01*
X68355000Y-49476666D01*
X68307380Y-49381428D01*
X71677380Y-49976666D02*
X71201190Y-50310000D01*
X71677380Y-50548095D02*
X70677380Y-50548095D01*
X70677380Y-50167142D01*
X70725000Y-50071904D01*
X70772619Y-50024285D01*
X70867857Y-49976666D01*
X71010714Y-49976666D01*
X71105952Y-50024285D01*
X71153571Y-50071904D01*
X71201190Y-50167142D01*
X71201190Y-50548095D01*
X71677380Y-49024285D02*
X71677380Y-49595714D01*
X71677380Y-49310000D02*
X70677380Y-49310000D01*
X70820238Y-49405238D01*
X70915476Y-49500476D01*
X70963095Y-49595714D01*
X79266666Y-41907380D02*
X79266666Y-42621666D01*
X79219047Y-42764523D01*
X79123809Y-42859761D01*
X78980952Y-42907380D01*
X78885714Y-42907380D01*
X79742857Y-42907380D02*
X79742857Y-41907380D01*
X80123809Y-41907380D01*
X80219047Y-41955000D01*
X80266666Y-42002619D01*
X80314285Y-42097857D01*
X80314285Y-42240714D01*
X80266666Y-42335952D01*
X80219047Y-42383571D01*
X80123809Y-42431190D01*
X79742857Y-42431190D01*
X81266666Y-42907380D02*
X80695238Y-42907380D01*
X80980952Y-42907380D02*
X80980952Y-41907380D01*
X80885714Y-42050238D01*
X80790476Y-42145476D01*
X80695238Y-42193095D01*
X82727380Y-40827380D02*
X82251190Y-41160714D01*
X82727380Y-41398809D02*
X81727380Y-41398809D01*
X81727380Y-41017857D01*
X81775000Y-40922619D01*
X81822619Y-40875000D01*
X81917857Y-40827380D01*
X82060714Y-40827380D01*
X82155952Y-40875000D01*
X82203571Y-40922619D01*
X82251190Y-41017857D01*
X82251190Y-41398809D01*
X82203571Y-40398809D02*
X82203571Y-40065476D01*
X82727380Y-39922619D02*
X82727380Y-40398809D01*
X81727380Y-40398809D01*
X81727380Y-39922619D01*
X82679761Y-39541666D02*
X82727380Y-39398809D01*
X82727380Y-39160714D01*
X82679761Y-39065476D01*
X82632142Y-39017857D01*
X82536904Y-38970238D01*
X82441666Y-38970238D01*
X82346428Y-39017857D01*
X82298809Y-39065476D01*
X82251190Y-39160714D01*
X82203571Y-39351190D01*
X82155952Y-39446428D01*
X82108333Y-39494047D01*
X82013095Y-39541666D01*
X81917857Y-39541666D01*
X81822619Y-39494047D01*
X81775000Y-39446428D01*
X81727380Y-39351190D01*
X81727380Y-39113095D01*
X81775000Y-38970238D01*
X82203571Y-38541666D02*
X82203571Y-38208333D01*
X82727380Y-38065476D02*
X82727380Y-38541666D01*
X81727380Y-38541666D01*
X81727380Y-38065476D01*
X81727380Y-37779761D02*
X81727380Y-37208333D01*
X82727380Y-37494047D02*
X81727380Y-37494047D01*
X168296666Y-41632380D02*
X168296666Y-42346666D01*
X168249047Y-42489523D01*
X168153809Y-42584761D01*
X168010952Y-42632380D01*
X167915714Y-42632380D01*
X168677619Y-41632380D02*
X169296666Y-41632380D01*
X168963333Y-42013333D01*
X169106190Y-42013333D01*
X169201428Y-42060952D01*
X169249047Y-42108571D01*
X169296666Y-42203809D01*
X169296666Y-42441904D01*
X169249047Y-42537142D01*
X169201428Y-42584761D01*
X169106190Y-42632380D01*
X168820476Y-42632380D01*
X168725238Y-42584761D01*
X168677619Y-42537142D01*
X161277380Y-105914285D02*
X160277380Y-105914285D01*
X160991666Y-105580952D01*
X160277380Y-105247619D01*
X161277380Y-105247619D01*
X160753571Y-104438095D02*
X160801190Y-104295238D01*
X160848809Y-104247619D01*
X160944047Y-104200000D01*
X161086904Y-104200000D01*
X161182142Y-104247619D01*
X161229761Y-104295238D01*
X161277380Y-104390476D01*
X161277380Y-104771428D01*
X160277380Y-104771428D01*
X160277380Y-104438095D01*
X160325000Y-104342857D01*
X160372619Y-104295238D01*
X160467857Y-104247619D01*
X160563095Y-104247619D01*
X160658333Y-104295238D01*
X160705952Y-104342857D01*
X160753571Y-104438095D01*
X160753571Y-104771428D01*
X161182142Y-103200000D02*
X161229761Y-103247619D01*
X161277380Y-103390476D01*
X161277380Y-103485714D01*
X161229761Y-103628571D01*
X161134523Y-103723809D01*
X161039285Y-103771428D01*
X160848809Y-103819047D01*
X160705952Y-103819047D01*
X160515476Y-103771428D01*
X160420238Y-103723809D01*
X160325000Y-103628571D01*
X160277380Y-103485714D01*
X160277380Y-103390476D01*
X160325000Y-103247619D01*
X160372619Y-103200000D01*
X160753571Y-101676190D02*
X160801190Y-101533333D01*
X160848809Y-101485714D01*
X160944047Y-101438095D01*
X161086904Y-101438095D01*
X161182142Y-101485714D01*
X161229761Y-101533333D01*
X161277380Y-101628571D01*
X161277380Y-102009523D01*
X160277380Y-102009523D01*
X160277380Y-101676190D01*
X160325000Y-101580952D01*
X160372619Y-101533333D01*
X160467857Y-101485714D01*
X160563095Y-101485714D01*
X160658333Y-101533333D01*
X160705952Y-101580952D01*
X160753571Y-101676190D01*
X160753571Y-102009523D01*
X160610714Y-100580952D02*
X161277380Y-100580952D01*
X160610714Y-101009523D02*
X161134523Y-101009523D01*
X161229761Y-100961904D01*
X161277380Y-100866666D01*
X161277380Y-100723809D01*
X161229761Y-100628571D01*
X161182142Y-100580952D01*
X161229761Y-100152380D02*
X161277380Y-100057142D01*
X161277380Y-99866666D01*
X161229761Y-99771428D01*
X161134523Y-99723809D01*
X161086904Y-99723809D01*
X160991666Y-99771428D01*
X160944047Y-99866666D01*
X160944047Y-100009523D01*
X160896428Y-100104761D01*
X160801190Y-100152380D01*
X160753571Y-100152380D01*
X160658333Y-100104761D01*
X160610714Y-100009523D01*
X160610714Y-99866666D01*
X160658333Y-99771428D01*
X161182142Y-97961904D02*
X161229761Y-98009523D01*
X161277380Y-98152380D01*
X161277380Y-98247619D01*
X161229761Y-98390476D01*
X161134523Y-98485714D01*
X161039285Y-98533333D01*
X160848809Y-98580952D01*
X160705952Y-98580952D01*
X160515476Y-98533333D01*
X160420238Y-98485714D01*
X160325000Y-98390476D01*
X160277380Y-98247619D01*
X160277380Y-98152380D01*
X160325000Y-98009523D01*
X160372619Y-97961904D01*
X161277380Y-97390476D02*
X161229761Y-97485714D01*
X161182142Y-97533333D01*
X161086904Y-97580952D01*
X160801190Y-97580952D01*
X160705952Y-97533333D01*
X160658333Y-97485714D01*
X160610714Y-97390476D01*
X160610714Y-97247619D01*
X160658333Y-97152380D01*
X160705952Y-97104761D01*
X160801190Y-97057142D01*
X161086904Y-97057142D01*
X161182142Y-97104761D01*
X161229761Y-97152380D01*
X161277380Y-97247619D01*
X161277380Y-97390476D01*
X160610714Y-96628571D02*
X161277380Y-96628571D01*
X160705952Y-96628571D02*
X160658333Y-96580952D01*
X160610714Y-96485714D01*
X160610714Y-96342857D01*
X160658333Y-96247619D01*
X160753571Y-96200000D01*
X161277380Y-96200000D01*
X160610714Y-95723809D02*
X161277380Y-95723809D01*
X160705952Y-95723809D02*
X160658333Y-95676190D01*
X160610714Y-95580952D01*
X160610714Y-95438095D01*
X160658333Y-95342857D01*
X160753571Y-95295238D01*
X161277380Y-95295238D01*
X161229761Y-94438095D02*
X161277380Y-94533333D01*
X161277380Y-94723809D01*
X161229761Y-94819047D01*
X161134523Y-94866666D01*
X160753571Y-94866666D01*
X160658333Y-94819047D01*
X160610714Y-94723809D01*
X160610714Y-94533333D01*
X160658333Y-94438095D01*
X160753571Y-94390476D01*
X160848809Y-94390476D01*
X160944047Y-94866666D01*
X161229761Y-93533333D02*
X161277380Y-93628571D01*
X161277380Y-93819047D01*
X161229761Y-93914285D01*
X161182142Y-93961904D01*
X161086904Y-94009523D01*
X160801190Y-94009523D01*
X160705952Y-93961904D01*
X160658333Y-93914285D01*
X160610714Y-93819047D01*
X160610714Y-93628571D01*
X160658333Y-93533333D01*
X160610714Y-93247619D02*
X160610714Y-92866666D01*
X160277380Y-93104761D02*
X161134523Y-93104761D01*
X161229761Y-93057142D01*
X161277380Y-92961904D01*
X161277380Y-92866666D01*
X161277380Y-92390476D02*
X161229761Y-92485714D01*
X161182142Y-92533333D01*
X161086904Y-92580952D01*
X160801190Y-92580952D01*
X160705952Y-92533333D01*
X160658333Y-92485714D01*
X160610714Y-92390476D01*
X160610714Y-92247619D01*
X160658333Y-92152380D01*
X160705952Y-92104761D01*
X160801190Y-92057142D01*
X161086904Y-92057142D01*
X161182142Y-92104761D01*
X161229761Y-92152380D01*
X161277380Y-92247619D01*
X161277380Y-92390476D01*
X161277380Y-91628571D02*
X160610714Y-91628571D01*
X160801190Y-91628571D02*
X160705952Y-91580952D01*
X160658333Y-91533333D01*
X160610714Y-91438095D01*
X160610714Y-91342857D01*
X70811666Y-82222380D02*
X70811666Y-82936666D01*
X70764047Y-83079523D01*
X70668809Y-83174761D01*
X70525952Y-83222380D01*
X70430714Y-83222380D01*
X71240238Y-82317619D02*
X71287857Y-82270000D01*
X71383095Y-82222380D01*
X71621190Y-82222380D01*
X71716428Y-82270000D01*
X71764047Y-82317619D01*
X71811666Y-82412857D01*
X71811666Y-82508095D01*
X71764047Y-82650952D01*
X71192619Y-83222380D01*
X71811666Y-83222380D01*
X79482142Y-80107142D02*
X79529761Y-80154761D01*
X79577380Y-80297619D01*
X79577380Y-80392857D01*
X79529761Y-80535714D01*
X79434523Y-80630952D01*
X79339285Y-80678571D01*
X79148809Y-80726190D01*
X79005952Y-80726190D01*
X78815476Y-80678571D01*
X78720238Y-80630952D01*
X78625000Y-80535714D01*
X78577380Y-80392857D01*
X78577380Y-80297619D01*
X78625000Y-80154761D01*
X78672619Y-80107142D01*
X79577380Y-79202380D02*
X79577380Y-79678571D01*
X78577380Y-79678571D01*
X78577380Y-78678571D02*
X78577380Y-78488095D01*
X78625000Y-78392857D01*
X78720238Y-78297619D01*
X78910714Y-78250000D01*
X79244047Y-78250000D01*
X79434523Y-78297619D01*
X79529761Y-78392857D01*
X79577380Y-78488095D01*
X79577380Y-78678571D01*
X79529761Y-78773809D01*
X79434523Y-78869047D01*
X79244047Y-78916666D01*
X78910714Y-78916666D01*
X78720238Y-78869047D01*
X78625000Y-78773809D01*
X78577380Y-78678571D01*
X79482142Y-77250000D02*
X79529761Y-77297619D01*
X79577380Y-77440476D01*
X79577380Y-77535714D01*
X79529761Y-77678571D01*
X79434523Y-77773809D01*
X79339285Y-77821428D01*
X79148809Y-77869047D01*
X79005952Y-77869047D01*
X78815476Y-77821428D01*
X78720238Y-77773809D01*
X78625000Y-77678571D01*
X78577380Y-77535714D01*
X78577380Y-77440476D01*
X78625000Y-77297619D01*
X78672619Y-77250000D01*
X79577380Y-76821428D02*
X78577380Y-76821428D01*
X79577380Y-76250000D02*
X79005952Y-76678571D01*
X78577380Y-76250000D02*
X79148809Y-76821428D01*
X79577380Y-75059523D02*
X78577380Y-75059523D01*
X78577380Y-74821428D01*
X78625000Y-74678571D01*
X78720238Y-74583333D01*
X78815476Y-74535714D01*
X79005952Y-74488095D01*
X79148809Y-74488095D01*
X79339285Y-74535714D01*
X79434523Y-74583333D01*
X79529761Y-74678571D01*
X79577380Y-74821428D01*
X79577380Y-75059523D01*
X79577380Y-74059523D02*
X78577380Y-74059523D01*
X78577380Y-73726190D02*
X79577380Y-73392857D01*
X78577380Y-73059523D01*
X79577380Y-72726190D02*
X78577380Y-72726190D01*
X79577380Y-72250000D02*
X78577380Y-72250000D01*
X78577380Y-72011904D01*
X78625000Y-71869047D01*
X78720238Y-71773809D01*
X78815476Y-71726190D01*
X79005952Y-71678571D01*
X79148809Y-71678571D01*
X79339285Y-71726190D01*
X79434523Y-71773809D01*
X79529761Y-71869047D01*
X79577380Y-72011904D01*
X79577380Y-72250000D01*
X79053571Y-71250000D02*
X79053571Y-70916666D01*
X79577380Y-70773809D02*
X79577380Y-71250000D01*
X78577380Y-71250000D01*
X78577380Y-70773809D01*
X79577380Y-69773809D02*
X79101190Y-70107142D01*
X79577380Y-70345238D02*
X78577380Y-70345238D01*
X78577380Y-69964285D01*
X78625000Y-69869047D01*
X78672619Y-69821428D01*
X78767857Y-69773809D01*
X78910714Y-69773809D01*
X79005952Y-69821428D01*
X79053571Y-69869047D01*
X79101190Y-69964285D01*
X79101190Y-70345238D01*
X69431666Y-65597380D02*
X69431666Y-66311666D01*
X69384047Y-66454523D01*
X69288809Y-66549761D01*
X69145952Y-66597380D01*
X69050714Y-66597380D01*
X70431666Y-66597380D02*
X69860238Y-66597380D01*
X70145952Y-66597380D02*
X70145952Y-65597380D01*
X70050714Y-65740238D01*
X69955476Y-65835476D01*
X69860238Y-65883095D01*
X76277380Y-65075000D02*
X76277380Y-65265476D01*
X76325000Y-65360714D01*
X76372619Y-65408333D01*
X76515476Y-65503571D01*
X76705952Y-65551190D01*
X77086904Y-65551190D01*
X77182142Y-65503571D01*
X77229761Y-65455952D01*
X77277380Y-65360714D01*
X77277380Y-65170238D01*
X77229761Y-65075000D01*
X77182142Y-65027380D01*
X77086904Y-64979761D01*
X76848809Y-64979761D01*
X76753571Y-65027380D01*
X76705952Y-65075000D01*
X76658333Y-65170238D01*
X76658333Y-65360714D01*
X76705952Y-65455952D01*
X76753571Y-65503571D01*
X76848809Y-65551190D01*
X76277380Y-64075000D02*
X76277380Y-64551190D01*
X76753571Y-64598809D01*
X76705952Y-64551190D01*
X76658333Y-64455952D01*
X76658333Y-64217857D01*
X76705952Y-64122619D01*
X76753571Y-64075000D01*
X76848809Y-64027380D01*
X77086904Y-64027380D01*
X77182142Y-64075000D01*
X77229761Y-64122619D01*
X77277380Y-64217857D01*
X77277380Y-64455952D01*
X77229761Y-64551190D01*
X77182142Y-64598809D01*
X76277380Y-63408333D02*
X76277380Y-63313095D01*
X76325000Y-63217857D01*
X76372619Y-63170238D01*
X76467857Y-63122619D01*
X76658333Y-63075000D01*
X76896428Y-63075000D01*
X77086904Y-63122619D01*
X77182142Y-63170238D01*
X77229761Y-63217857D01*
X77277380Y-63313095D01*
X77277380Y-63408333D01*
X77229761Y-63503571D01*
X77182142Y-63551190D01*
X77086904Y-63598809D01*
X76896428Y-63646428D01*
X76658333Y-63646428D01*
X76467857Y-63598809D01*
X76372619Y-63551190D01*
X76325000Y-63503571D01*
X76277380Y-63408333D01*
X76372619Y-62694047D02*
X76325000Y-62646428D01*
X76277380Y-62551190D01*
X76277380Y-62313095D01*
X76325000Y-62217857D01*
X76372619Y-62170238D01*
X76467857Y-62122619D01*
X76563095Y-62122619D01*
X76705952Y-62170238D01*
X77277380Y-62741666D01*
X77277380Y-62122619D01*
X76277380Y-60741666D02*
X76277380Y-60551190D01*
X76325000Y-60455952D01*
X76420238Y-60360714D01*
X76610714Y-60313095D01*
X76944047Y-60313095D01*
X77134523Y-60360714D01*
X77229761Y-60455952D01*
X77277380Y-60551190D01*
X77277380Y-60741666D01*
X77229761Y-60836904D01*
X77134523Y-60932142D01*
X76944047Y-60979761D01*
X76610714Y-60979761D01*
X76420238Y-60932142D01*
X76325000Y-60836904D01*
X76277380Y-60741666D01*
X77277380Y-59884523D02*
X76277380Y-59884523D01*
X77277380Y-59313095D01*
X76277380Y-59313095D01*
X77277380Y-58360714D02*
X77277380Y-58836904D01*
X76277380Y-58836904D01*
X76801190Y-57836904D02*
X77277380Y-57836904D01*
X76277380Y-58170238D02*
X76801190Y-57836904D01*
X76277380Y-57503571D01*
X70017380Y-128268095D02*
X69017380Y-128268095D01*
X69017380Y-128030000D01*
X69065000Y-127887142D01*
X69160238Y-127791904D01*
X69255476Y-127744285D01*
X69445952Y-127696666D01*
X69588809Y-127696666D01*
X69779285Y-127744285D01*
X69874523Y-127791904D01*
X69969761Y-127887142D01*
X70017380Y-128030000D01*
X70017380Y-128268095D01*
X69112619Y-127315714D02*
X69065000Y-127268095D01*
X69017380Y-127172857D01*
X69017380Y-126934761D01*
X69065000Y-126839523D01*
X69112619Y-126791904D01*
X69207857Y-126744285D01*
X69303095Y-126744285D01*
X69445952Y-126791904D01*
X70017380Y-127363333D01*
X70017380Y-126744285D01*
X75937380Y-129839523D02*
X74937380Y-129839523D01*
X74937380Y-129458571D01*
X74985000Y-129363333D01*
X75032619Y-129315714D01*
X75127857Y-129268095D01*
X75270714Y-129268095D01*
X75365952Y-129315714D01*
X75413571Y-129363333D01*
X75461190Y-129458571D01*
X75461190Y-129839523D01*
X74937380Y-128649047D02*
X74937380Y-128458571D01*
X74985000Y-128363333D01*
X75080238Y-128268095D01*
X75270714Y-128220476D01*
X75604047Y-128220476D01*
X75794523Y-128268095D01*
X75889761Y-128363333D01*
X75937380Y-128458571D01*
X75937380Y-128649047D01*
X75889761Y-128744285D01*
X75794523Y-128839523D01*
X75604047Y-128887142D01*
X75270714Y-128887142D01*
X75080238Y-128839523D01*
X74985000Y-128744285D01*
X74937380Y-128649047D01*
X74937380Y-127887142D02*
X75937380Y-127649047D01*
X75223095Y-127458571D01*
X75937380Y-127268095D01*
X74937380Y-127030000D01*
X75413571Y-126649047D02*
X75413571Y-126315714D01*
X75937380Y-126172857D02*
X75937380Y-126649047D01*
X74937380Y-126649047D01*
X74937380Y-126172857D01*
X75937380Y-125172857D02*
X75461190Y-125506190D01*
X75937380Y-125744285D02*
X74937380Y-125744285D01*
X74937380Y-125363333D01*
X74985000Y-125268095D01*
X75032619Y-125220476D01*
X75127857Y-125172857D01*
X75270714Y-125172857D01*
X75365952Y-125220476D01*
X75413571Y-125268095D01*
X75461190Y-125363333D01*
X75461190Y-125744285D01*
X161482142Y-37942857D02*
X161529761Y-37990476D01*
X161577380Y-38133333D01*
X161577380Y-38228571D01*
X161529761Y-38371428D01*
X161434523Y-38466666D01*
X161339285Y-38514285D01*
X161148809Y-38561904D01*
X161005952Y-38561904D01*
X160815476Y-38514285D01*
X160720238Y-38466666D01*
X160625000Y-38371428D01*
X160577380Y-38228571D01*
X160577380Y-38133333D01*
X160625000Y-37990476D01*
X160672619Y-37942857D01*
X161577380Y-36990476D02*
X161577380Y-37561904D01*
X161577380Y-37276190D02*
X160577380Y-37276190D01*
X160720238Y-37371428D01*
X160815476Y-37466666D01*
X160863095Y-37561904D01*
X160577380Y-36657142D02*
X160577380Y-36038095D01*
X160958333Y-36371428D01*
X160958333Y-36228571D01*
X161005952Y-36133333D01*
X161053571Y-36085714D01*
X161148809Y-36038095D01*
X161386904Y-36038095D01*
X161482142Y-36085714D01*
X161529761Y-36133333D01*
X161577380Y-36228571D01*
X161577380Y-36514285D01*
X161529761Y-36609523D01*
X161482142Y-36657142D01*
X168077380Y-37942857D02*
X168077380Y-38514285D01*
X168077380Y-38228571D02*
X167077380Y-38228571D01*
X167220238Y-38323809D01*
X167315476Y-38419047D01*
X167363095Y-38514285D01*
X167077380Y-37323809D02*
X167077380Y-37228571D01*
X167125000Y-37133333D01*
X167172619Y-37085714D01*
X167267857Y-37038095D01*
X167458333Y-36990476D01*
X167696428Y-36990476D01*
X167886904Y-37038095D01*
X167982142Y-37085714D01*
X168029761Y-37133333D01*
X168077380Y-37228571D01*
X168077380Y-37323809D01*
X168029761Y-37419047D01*
X167982142Y-37466666D01*
X167886904Y-37514285D01*
X167696428Y-37561904D01*
X167458333Y-37561904D01*
X167267857Y-37514285D01*
X167172619Y-37466666D01*
X167125000Y-37419047D01*
X167077380Y-37323809D01*
X167410714Y-36133333D02*
X168077380Y-36133333D01*
X167410714Y-36561904D02*
X167934523Y-36561904D01*
X168029761Y-36514285D01*
X168077380Y-36419047D01*
X168077380Y-36276190D01*
X168029761Y-36180952D01*
X167982142Y-36133333D01*
X167082142Y-119042857D02*
X167129761Y-119090476D01*
X167177380Y-119233333D01*
X167177380Y-119328571D01*
X167129761Y-119471428D01*
X167034523Y-119566666D01*
X166939285Y-119614285D01*
X166748809Y-119661904D01*
X166605952Y-119661904D01*
X166415476Y-119614285D01*
X166320238Y-119566666D01*
X166225000Y-119471428D01*
X166177380Y-119328571D01*
X166177380Y-119233333D01*
X166225000Y-119090476D01*
X166272619Y-119042857D01*
X167177380Y-118090476D02*
X167177380Y-118661904D01*
X167177380Y-118376190D02*
X166177380Y-118376190D01*
X166320238Y-118471428D01*
X166415476Y-118566666D01*
X166463095Y-118661904D01*
X166272619Y-117709523D02*
X166225000Y-117661904D01*
X166177380Y-117566666D01*
X166177380Y-117328571D01*
X166225000Y-117233333D01*
X166272619Y-117185714D01*
X166367857Y-117138095D01*
X166463095Y-117138095D01*
X166605952Y-117185714D01*
X167177380Y-117757142D01*
X167177380Y-117138095D01*
X163952380Y-122992857D02*
X163952380Y-123564285D01*
X163952380Y-123278571D02*
X162952380Y-123278571D01*
X163095238Y-123373809D01*
X163190476Y-123469047D01*
X163238095Y-123564285D01*
X162952380Y-122373809D02*
X162952380Y-122278571D01*
X163000000Y-122183333D01*
X163047619Y-122135714D01*
X163142857Y-122088095D01*
X163333333Y-122040476D01*
X163571428Y-122040476D01*
X163761904Y-122088095D01*
X163857142Y-122135714D01*
X163904761Y-122183333D01*
X163952380Y-122278571D01*
X163952380Y-122373809D01*
X163904761Y-122469047D01*
X163857142Y-122516666D01*
X163761904Y-122564285D01*
X163571428Y-122611904D01*
X163333333Y-122611904D01*
X163142857Y-122564285D01*
X163047619Y-122516666D01*
X163000000Y-122469047D01*
X162952380Y-122373809D01*
X163285714Y-121183333D02*
X163952380Y-121183333D01*
X163285714Y-121611904D02*
X163809523Y-121611904D01*
X163904761Y-121564285D01*
X163952380Y-121469047D01*
X163952380Y-121326190D01*
X163904761Y-121230952D01*
X163857142Y-121183333D01*
X76132142Y-51541666D02*
X76179761Y-51589285D01*
X76227380Y-51732142D01*
X76227380Y-51827380D01*
X76179761Y-51970238D01*
X76084523Y-52065476D01*
X75989285Y-52113095D01*
X75798809Y-52160714D01*
X75655952Y-52160714D01*
X75465476Y-52113095D01*
X75370238Y-52065476D01*
X75275000Y-51970238D01*
X75227380Y-51827380D01*
X75227380Y-51732142D01*
X75275000Y-51589285D01*
X75322619Y-51541666D01*
X76227380Y-50589285D02*
X76227380Y-51160714D01*
X76227380Y-50875000D02*
X75227380Y-50875000D01*
X75370238Y-50970238D01*
X75465476Y-51065476D01*
X75513095Y-51160714D01*
X82727380Y-52017857D02*
X82727380Y-52589285D01*
X82727380Y-52303571D02*
X81727380Y-52303571D01*
X81870238Y-52398809D01*
X81965476Y-52494047D01*
X82013095Y-52589285D01*
X81727380Y-51398809D02*
X81727380Y-51303571D01*
X81775000Y-51208333D01*
X81822619Y-51160714D01*
X81917857Y-51113095D01*
X82108333Y-51065476D01*
X82346428Y-51065476D01*
X82536904Y-51113095D01*
X82632142Y-51160714D01*
X82679761Y-51208333D01*
X82727380Y-51303571D01*
X82727380Y-51398809D01*
X82679761Y-51494047D01*
X82632142Y-51541666D01*
X82536904Y-51589285D01*
X82346428Y-51636904D01*
X82108333Y-51636904D01*
X81917857Y-51589285D01*
X81822619Y-51541666D01*
X81775000Y-51494047D01*
X81727380Y-51398809D01*
X82060714Y-50208333D02*
X82727380Y-50208333D01*
X82060714Y-50636904D02*
X82584523Y-50636904D01*
X82679761Y-50589285D01*
X82727380Y-50494047D01*
X82727380Y-50351190D01*
X82679761Y-50255952D01*
X82632142Y-50208333D01*
M02*
