M48
; DRILL file {KiCad (5.1.5)-3} date 9/8/2022 7:37:52 AM
; FORMAT={-:-/ absolute / inch / decimal}
; #@! TF.CreationDate,2022-09-08T07:37:52-05:00
; #@! TF.GenerationSoftware,Kicad,Pcbnew,(5.1.5)-3
; #@! TF.FileFunction,Plated,1,2,PTH
FMAT,2
INCH
T1C0.0157
T2C0.0236
T3C0.0315
T4C0.0354
T5C0.0390
T6C0.0394
T7C0.0512
%
G90
G05
T1
X3.2973Y-4.0127
X3.4663Y-3.7497
X3.5708Y-4.4697
X3.8124Y-3.8478
X3.9033Y-4.1419
X4.0901Y-2.2554
X4.3809Y-1.6745
X4.4154Y-3.6496
X4.4177Y-3.7984
X4.4215Y-2.8057
X4.4529Y-4.9223
X4.4644Y-2.37
X4.4681Y-2.6046
X4.4854Y-3.5275
X4.4872Y-3.4319
X4.4937Y-3.6887
X4.5176Y-3.5565
X4.5184Y-3.3986
X4.5634Y-2.5227
X4.5634Y-2.572
X4.5746Y-3.3294
X4.5911Y-4.5336
X4.5915Y-2.9912
X4.6028Y-2.5266
X4.6096Y-3.1252
X4.6274Y-2.8744
X4.6873Y-3.9981
X4.819Y-3.9175
X4.8303Y-2.6558
X4.8344Y-3.9746
X4.8542Y-3.3768
X4.8593Y-3.266
X4.872Y-3.203
X4.8871Y-3.7462
X4.8887Y-3.3203
X4.9574Y-4.0884
X4.9716Y-3.955
X4.9961Y-3.1434
X4.9968Y-4.0056
X5.0Y-3.1841
X5.0136Y-1.6595
X5.0408Y-3.1833
X5.0691Y-2.5979
X5.0915Y-2.5601
X5.111Y-2.9336
X5.1148Y-1.8266
X5.1261Y-1.931
X5.1689Y-2.732
X5.1694Y-4.2905
X5.176Y-3.9715
X5.1813Y-2.5183
X5.1816Y-3.192
X5.2666Y-1.6033
X5.3295Y-1.8958
X5.3992Y-2.8068
X5.4352Y-3.8271
X5.4387Y-3.0289
X5.4444Y-2.7896
X5.4689Y-3.3145
X5.6013Y-2.4802
X5.6513Y-2.7765
X5.7328Y-1.7909
X5.7362Y-2.2021
X5.7629Y-2.7631
X5.8014Y-2.1714
X5.8102Y-2.3982
X5.8623Y-2.7393
X5.8779Y-3.0321
X5.8829Y-2.1785
X5.8919Y-3.0991
X5.9559Y-2.7588
X5.9594Y-2.4566
X6.0815Y-2.8433
X6.0815Y-3.1259
X6.0972Y-3.8152
X6.1431Y-3.2919
X6.1642Y-3.3339
X6.1715Y-3.0224
X6.1742Y-2.7612
X6.1814Y-3.522
X6.1886Y-3.084
X6.1925Y-3.1411
X6.2336Y-1.9515
X6.2444Y-1.6787
X6.2525Y-2.9461
X6.259Y-2.0728
X6.2702Y-2.9866
X6.2778Y-3.4507
X6.2781Y-2.5861
X6.2838Y-3.3558
X6.2946Y-3.3976
X6.3263Y-3.0872
T2
X6.436Y-4.622
X6.436Y-4.7008
X3.0669Y-2.0728
X3.0669Y-2.1516
X6.4715Y-1.4291
X6.4715Y-1.5079
X4.8986Y-2.9892
X4.9774Y-2.9892
X4.2707Y-1.5541
X4.3494Y-1.5541
T3
X3.2378Y-3.8524
X3.5378Y-3.8524
X3.2378Y-3.9941
X3.5378Y-3.9941
X3.3661Y-2.2965
X3.3661Y-2.5965
X3.4661Y-2.2965
X3.4661Y-2.5965
X3.5661Y-2.2965
X3.5661Y-2.5965
X3.6661Y-2.2965
X3.6661Y-2.5965
X3.7661Y-2.2965
X3.7661Y-2.5965
X3.8661Y-2.2965
X3.8661Y-2.5965
X3.9661Y-2.2965
X3.9661Y-2.5965
X4.1638Y-1.787
X4.1638Y-1.887
X4.1638Y-1.987
X4.1638Y-2.087
X4.1638Y-2.187
X4.1638Y-2.287
X4.1638Y-2.387
X4.1638Y-2.487
X4.1638Y-2.587
X4.1638Y-2.687
X4.1638Y-2.787
X4.1638Y-2.887
X4.1638Y-2.987
X4.1638Y-3.087
X4.1638Y-3.187
X4.1638Y-3.287
X4.1638Y-3.387
X4.1638Y-3.487
X4.1638Y-3.587
X4.1638Y-3.687
X4.7638Y-1.787
X4.7638Y-1.887
X4.7638Y-1.987
X4.7638Y-2.087
X4.7638Y-2.187
X4.7638Y-2.287
X4.7638Y-2.387
X4.7638Y-2.487
X4.7638Y-2.587
X4.7638Y-2.687
X4.7638Y-2.787
X4.7638Y-2.887
X4.7638Y-2.987
X4.7638Y-3.087
X4.7638Y-3.187
X4.7638Y-3.287
X4.7638Y-3.387
X4.7638Y-3.487
X4.7638Y-3.587
X4.7638Y-3.687
X3.2378Y-3.5689
X3.5378Y-3.5689
X3.7215Y-3.6102
X3.7215Y-3.9102
X3.9803Y-4.0888
X3.9803Y-4.3888
X4.0803Y-4.0888
X4.0803Y-4.3888
X4.1803Y-4.0888
X4.1803Y-4.3888
X4.2803Y-4.0888
X4.2803Y-4.3888
X4.3803Y-4.0888
X4.3803Y-4.3888
X4.4803Y-4.0888
X4.4803Y-4.3888
X4.5803Y-4.0888
X4.5803Y-4.3888
X4.6803Y-4.0888
X4.6803Y-4.3888
X4.7803Y-4.0888
X4.7803Y-4.3888
X4.8803Y-4.0888
X4.8803Y-4.3888
X3.1073Y-1.4154
X3.4073Y-1.4154
X4.4321Y-1.4193
X4.7321Y-1.4193
X4.0581Y-4.7945
X4.0581Y-5.0945
X4.1581Y-4.7945
X4.1581Y-5.0945
X4.2581Y-4.7945
X4.2581Y-5.0945
X4.3581Y-4.7945
X4.3581Y-5.0945
X4.4581Y-4.7945
X4.4581Y-5.0945
X4.5581Y-4.7945
X4.5581Y-5.0945
X4.6581Y-4.7945
X4.6581Y-5.0945
X4.7581Y-4.7945
X4.7581Y-5.0945
X3.2378Y-3.4272
X3.5378Y-3.4272
X5.2372Y-2.6511
X5.2372Y-2.9511
X5.3372Y-2.6511
X5.3372Y-2.9511
X5.4372Y-2.6511
X5.4372Y-2.9511
X5.5372Y-2.6511
X5.5372Y-2.9511
X5.6372Y-2.6511
X5.6372Y-2.9511
X5.7372Y-2.6511
X5.7372Y-2.9511
X5.8372Y-2.6511
X5.8372Y-2.9511
X5.9372Y-2.6511
X5.9372Y-2.9511
X6.0372Y-2.6511
X6.0372Y-2.9511
X6.1372Y-2.6511
X6.1372Y-2.9511
X3.9844Y-4.6117
X4.0844Y-4.6117
X4.1844Y-4.6117
X4.2844Y-4.6117
X4.3844Y-4.6117
X4.4844Y-4.6117
X4.5844Y-4.6117
X4.6844Y-4.6117
X4.7844Y-4.6117
X3.4449Y-2.7913
X3.7449Y-2.7913
X3.0768Y-4.324
X3.0768Y-4.624
X3.1768Y-4.324
X3.1768Y-4.624
X3.2768Y-4.324
X3.2768Y-4.624
X3.3768Y-4.324
X3.3768Y-4.624
X3.4768Y-4.324
X3.4768Y-4.624
X3.5768Y-4.324
X3.5768Y-4.624
X3.6768Y-4.324
X3.6768Y-4.624
X3.3661Y-1.6419
X3.3661Y-1.9419
X3.4661Y-1.6419
X3.4661Y-1.9419
X3.5661Y-1.6419
X3.5661Y-1.9419
X3.6661Y-1.6419
X3.6661Y-1.9419
X3.7661Y-1.6419
X3.7661Y-1.9419
X3.8661Y-1.6419
X3.8661Y-1.9419
X3.9661Y-1.6419
X3.9661Y-1.9419
X5.2352Y-3.3988
X5.2352Y-3.6988
X5.3352Y-3.3988
X5.3352Y-3.6988
X5.4352Y-3.3988
X5.4352Y-3.6988
X5.5352Y-3.3988
X5.5352Y-3.6988
X5.6352Y-3.3988
X5.6352Y-3.6988
X5.7352Y-3.3988
X5.7352Y-3.6988
X5.8352Y-3.3988
X5.8352Y-3.6988
X5.9352Y-3.3988
X5.9352Y-3.6988
X6.0352Y-3.3988
X6.0352Y-3.6988
X6.1352Y-3.3988
X6.1352Y-3.6988
X3.2378Y-3.7106
X3.5378Y-3.7106
X5.3644Y-4.6098
X5.4644Y-4.6098
X5.5644Y-4.6098
X5.6644Y-4.6098
X5.7644Y-4.6098
X5.8644Y-4.6098
X5.9644Y-4.6098
X6.0644Y-4.6098
X6.1644Y-4.6098
X5.2244Y-4.1035
X5.2244Y-4.4035
X5.3244Y-4.1035
X5.3244Y-4.4035
X5.4244Y-4.1035
X5.4244Y-4.4035
X5.5244Y-4.1035
X5.5244Y-4.4035
X5.6244Y-4.1035
X5.6244Y-4.4035
X5.7244Y-4.1035
X5.7244Y-4.4035
X5.8244Y-4.1035
X5.8244Y-4.4035
X5.9244Y-4.1035
X5.9244Y-4.4035
X6.0244Y-4.1035
X6.0244Y-4.4035
X6.1244Y-4.1035
X6.1244Y-4.4035
X5.438Y-4.7925
X5.438Y-5.0925
X5.538Y-4.7925
X5.538Y-5.0925
X5.638Y-4.7925
X5.638Y-5.0925
X5.738Y-4.7925
X5.738Y-5.0925
X5.838Y-4.7925
X5.838Y-5.0925
X5.938Y-4.7925
X5.938Y-5.0925
X6.038Y-4.7925
X6.038Y-5.0925
X6.138Y-4.7925
X6.138Y-5.0925
X3.3661Y-2.9441
X3.3661Y-3.2441
X3.4661Y-2.9441
X3.4661Y-3.2441
X3.5661Y-2.9441
X3.5661Y-3.2441
X3.6661Y-2.9441
X3.6661Y-3.2441
X3.7661Y-2.9441
X3.7661Y-3.2441
X3.8661Y-2.9441
X3.8661Y-3.2441
X3.9661Y-2.9441
X3.9661Y-3.2441
X3.1289Y-4.7974
X3.1289Y-5.0974
X3.2289Y-4.7974
X3.2289Y-5.0974
X3.3289Y-4.7974
X3.3289Y-5.0974
X3.4289Y-4.7974
X3.4289Y-5.0974
X3.5289Y-4.7974
X3.5289Y-5.0974
X3.6289Y-4.7974
X3.6289Y-5.0974
X3.7289Y-4.7974
X3.7289Y-5.0974
X3.6902Y-3.4341
X3.9902Y-3.4341
X3.8821Y-1.4163
X4.1821Y-1.4163
X5.2362Y-2.0304
X5.2362Y-2.3304
X5.3362Y-2.0304
X5.3362Y-2.3304
X5.4362Y-2.0304
X5.4362Y-2.3304
X5.5362Y-2.0304
X5.5362Y-2.3304
X5.6362Y-2.0304
X5.6362Y-2.3304
X5.7362Y-2.0304
X5.7362Y-2.3304
X5.8362Y-2.0304
X5.8362Y-2.3304
X5.9362Y-2.0304
X5.9362Y-2.3304
X6.0362Y-2.0304
X6.0362Y-2.3304
X6.1362Y-2.0304
X6.1362Y-2.3304
X5.2343Y-3.9031
X5.3343Y-3.9031
X5.4343Y-3.9031
X5.5343Y-3.9031
X5.6343Y-3.9031
X5.7343Y-3.9031
X5.8343Y-3.9031
X5.9343Y-3.9031
X6.0343Y-3.9031
X6.1343Y-3.9031
X5.2382Y-3.2165
X5.3382Y-3.2165
X5.4382Y-3.2165
X5.5382Y-3.2165
X5.6382Y-3.2165
X5.7382Y-3.2165
X5.8382Y-3.2165
X5.9382Y-3.2165
X6.0382Y-3.2165
X6.1382Y-3.2165
X5.2461Y-1.4096
X5.2461Y-1.7096
X5.3461Y-1.4096
X5.3461Y-1.7096
X5.4461Y-1.4096
X5.4461Y-1.7096
X5.5461Y-1.4096
X5.5461Y-1.7096
X5.6461Y-1.4096
X5.6461Y-1.7096
X5.7461Y-1.4096
X5.7461Y-1.7096
X5.8461Y-1.4096
X5.8461Y-1.7096
X5.9461Y-1.4096
X5.9461Y-1.7096
X6.0461Y-1.4096
X6.0461Y-1.7096
X6.1461Y-1.4096
X6.1461Y-1.7096
T4
X2.8553Y-4.0638
X2.8553Y-4.1638
X2.8553Y-4.7441
X2.8553Y-4.8441
X3.9459Y-3.6173
X3.9459Y-3.9173
X2.8553Y-4.2906
X2.8553Y-4.3906
X2.8553Y-3.837
X2.8553Y-3.937
X2.8553Y-4.5173
X2.8553Y-4.6173
X2.8553Y-4.9709
X2.8553Y-5.0709
T5
X2.8012Y-1.4439
X2.8012Y-1.6211
T6
X2.9193Y-2.3148
X2.9193Y-2.4148
X2.9193Y-2.5148
X5.1152Y-1.4094
X5.1152Y-1.6063
X5.0955Y-4.1024
X5.0955Y-4.2992
X3.2343Y-2.2943
X3.2343Y-2.4911
X5.0984Y-2.0344
X5.0984Y-2.2313
X3.2205Y-1.6388
X3.2205Y-1.8356
X3.2343Y-2.9429
X3.2343Y-3.1398
X6.4154Y-1.6909
X6.4154Y-1.7909
X6.4154Y-1.8909
X6.4154Y-1.9909
X6.4154Y-2.0909
X6.4154Y-2.1909
X6.4154Y-2.2909
X6.4154Y-2.3909
X6.4154Y-2.4909
X6.4154Y-2.5909
X6.4154Y-2.6909
X6.4154Y-2.7909
X6.4154Y-2.8909
X6.4154Y-2.9909
X6.4154Y-3.0909
X6.4154Y-3.1909
X6.4154Y-3.2909
X6.4154Y-3.3909
X6.4154Y-3.4909
X6.4154Y-3.5909
X6.4154Y-3.6909
X6.4154Y-3.7909
X6.4154Y-3.8909
X6.4154Y-3.9909
X6.4154Y-4.0909
X6.5154Y-1.6909
X6.5154Y-1.7909
X6.5154Y-1.8909
X6.5154Y-1.9909
X6.5154Y-2.0909
X6.5154Y-2.1909
X6.5154Y-2.2909
X6.5154Y-2.3909
X6.5154Y-2.4909
X6.5154Y-2.5909
X6.5154Y-2.6909
X6.5154Y-2.7909
X6.5154Y-2.8909
X6.5154Y-2.9909
X6.5154Y-3.0909
X6.5154Y-3.1909
X6.5154Y-3.2909
X6.5154Y-3.3909
X6.5154Y-3.4909
X6.5154Y-3.5909
X6.5154Y-3.6909
X6.5154Y-3.7909
X6.5154Y-3.8909
X6.5154Y-3.9909
X6.5154Y-4.0909
X5.1033Y-3.4016
X5.1033Y-3.5984
X2.9114Y-3.4063
X2.9114Y-3.5063
X2.9114Y-3.6063
X2.7904Y-1.8321
X2.7904Y-1.9321
X4.5581Y-3.8533
X4.7549Y-3.8533
X5.1083Y-2.6516
X5.1083Y-2.8484
X3.5423Y-1.4163
X3.7392Y-1.4163
X3.1181Y-4.1693
X3.315Y-4.1693
X3.8642Y-4.8967
X3.8642Y-5.0935
X3.8573Y-4.0846
X3.8573Y-4.2815
X2.9039Y-2.8112
X2.9039Y-2.9112
X2.9039Y-3.0112
X2.9039Y-3.1112
X3.0039Y-2.8112
X3.0039Y-2.9112
X3.0039Y-3.0112
X3.0039Y-3.1112
T7
X2.8992Y-1.3943
X2.8992Y-1.6703
T0
M30
