M48
; DRILL file {KiCad (5.1.5)-3} date 12/12/2021 10:10:50 AM
; FORMAT={-:-/ absolute / inch / decimal}
; #@! TF.CreationDate,2021-12-12T10:10:50-06:00
; #@! TF.GenerationSoftware,Kicad,Pcbnew,(5.1.5)-3
; #@! TF.FileFunction,Plated,1,2,PTH
FMAT,2
INCH
T1C0.0157
T2C0.0236
T3C0.0315
T4C0.0354
T5C0.0390
T6C0.0394
T7C0.0512
%
G90
G05
T1
X3.4878Y-3.7921
X3.6648Y-2.7239
X3.755Y-3.7568
X4.1255Y-4.0058
X4.142Y-2.3717
X4.3733Y-3.3526
X4.3806Y-3.3132
X4.4078Y-3.7473
X4.4315Y-1.8737
X4.4871Y-4.2139
X4.5388Y-2.4528
X4.546Y-2.85
X4.5501Y-1.6848
X4.5958Y-3.1947
X4.6096Y-3.846
X4.6195Y-2.3043
X4.6251Y-3.5196
X4.6621Y-3.5401
X4.6676Y-2.4584
X4.725Y-3.6902
X4.7599Y-4.0601
X4.813Y-2.387
X4.8153Y-2.2596
X4.8207Y-3.6489
X4.8578Y-3.7957
X4.8864Y-3.8244
X4.9357Y-1.5826
X4.9403Y-3.9165
X4.9403Y-4.1022
X4.9695Y-3.2851
X4.9726Y-4.1712
X4.9906Y-3.2106
X4.9962Y-1.4624
X4.9995Y-1.8271
X4.9997Y-2.5697
X5.0097Y-2.0152
X5.0419Y-2.3722
X5.0467Y-2.1337
X5.0555Y-2.7862
X5.1134Y-2.6876
X5.1325Y-2.1328
X5.1372Y-3.9703
X5.18Y-2.1386
X5.2005Y-3.9992
X5.2309Y-4.1989
X5.2328Y-1.4348
X5.2418Y-3.5827
X5.2494Y-3.0332
X5.3002Y-3.6911
X5.3293Y-2.4566
X5.4405Y-2.689
X5.4493Y-3.2833
X5.5295Y-3.2712
X5.5344Y-4.24
X5.5818Y-2.101
X5.5873Y-2.5064
X5.6248Y-2.7664
X5.6446Y-3.0074
X5.6942Y-3.0891
X5.6969Y-2.7102
X5.7023Y-2.4879
X5.7265Y-2.4554
X5.7363Y-4.0176
X5.7551Y-3.6419
X5.7958Y-2.5127
X5.8295Y-2.4702
X5.8344Y-4.2017
X5.8559Y-2.2134
X5.8764Y-4.1984
X5.908Y-3.7758
X5.9266Y-2.4711
X5.9502Y-2.9604
X5.97Y-3.4086
X5.9775Y-3.0883
X5.9832Y-2.7866
X5.9909Y-2.1834
X6.0029Y-1.8921
X6.0539Y-2.8314
X6.0711Y-2.7434
X6.0736Y-3.8239
X6.1142Y-2.7291
X6.1707Y-3.8133
X6.179Y-2.8022
X6.203Y-2.1209
X6.2204Y-3.0587
X6.2299Y-3.6519
X6.2527Y-2.4202
X6.3123Y-2.7541
X6.3381Y-3.1396
X6.3518Y-2.1999
T2
X3.1112Y-1.9833
X3.1112Y-2.062
X6.436Y-4.622
X6.436Y-4.7008
X6.4715Y-1.4291
X6.4715Y-1.5079
T3
X4.2736Y-1.5217
X4.2736Y-1.6217
X4.2736Y-1.7217
X4.2736Y-1.8217
X4.2736Y-1.9217
X4.2736Y-2.0217
X4.2736Y-2.1217
X4.2736Y-2.2217
X4.2736Y-2.3217
X4.2736Y-2.4217
X4.2736Y-2.5217
X4.2736Y-2.6217
X4.2736Y-2.7217
X4.2736Y-2.8217
X4.2736Y-2.9217
X4.2736Y-3.0217
X4.2736Y-3.1217
X4.2736Y-3.2217
X4.2736Y-3.3217
X4.2736Y-3.4217
X4.8736Y-1.5217
X4.8736Y-1.6217
X4.8736Y-1.7217
X4.8736Y-1.8217
X4.8736Y-1.9217
X4.8736Y-2.0217
X4.8736Y-2.1217
X4.8736Y-2.2217
X4.8736Y-2.3217
X4.8736Y-2.4217
X4.8736Y-2.5217
X4.8736Y-2.6217
X4.8736Y-2.7217
X4.8736Y-2.8217
X4.8736Y-2.9217
X4.8736Y-3.0217
X4.8736Y-3.1217
X4.8736Y-3.2217
X4.8736Y-3.3217
X4.8736Y-3.4217
X5.2844Y-4.1085
X5.2844Y-4.4085
X5.3844Y-4.1085
X5.3844Y-4.4085
X5.4844Y-4.1085
X5.4844Y-4.4085
X5.5844Y-4.1085
X5.5844Y-4.4085
X5.6844Y-4.1085
X5.6844Y-4.4085
X5.7844Y-4.1085
X5.7844Y-4.4085
X5.8844Y-4.1085
X5.8844Y-4.4085
X5.9844Y-4.1085
X5.9844Y-4.4085
X6.0844Y-4.1085
X6.0844Y-4.4085
X6.1844Y-4.1085
X6.1844Y-4.4085
X3.8061Y-4.1085
X3.8061Y-4.4085
X3.9061Y-4.1085
X3.9061Y-4.4085
X4.0061Y-4.1085
X4.0061Y-4.4085
X4.1061Y-4.1085
X4.1061Y-4.4085
X4.2061Y-4.1085
X4.2061Y-4.4085
X4.3061Y-4.1085
X4.3061Y-4.4085
X4.4061Y-4.1085
X4.4061Y-4.4085
X4.5061Y-4.1085
X4.5061Y-4.4085
X4.6061Y-4.1085
X4.6061Y-4.4085
X4.7061Y-4.1085
X4.7061Y-4.4085
X5.438Y-4.7925
X5.438Y-5.0925
X5.538Y-4.7925
X5.538Y-5.0925
X5.638Y-4.7925
X5.638Y-5.0925
X5.738Y-4.7925
X5.738Y-5.0925
X5.838Y-4.7925
X5.838Y-5.0925
X5.938Y-4.7925
X5.938Y-5.0925
X6.038Y-4.7925
X6.038Y-5.0925
X6.138Y-4.7925
X6.138Y-5.0925
X5.3644Y-4.6098
X5.4644Y-4.6098
X5.5644Y-4.6098
X5.6644Y-4.6098
X5.7644Y-4.6098
X5.8644Y-4.6098
X5.9644Y-4.6098
X6.0644Y-4.6098
X6.1644Y-4.6098
X5.3002Y-2.0122
X5.3002Y-2.3122
X5.4002Y-2.0122
X5.4002Y-2.3122
X5.5002Y-2.0122
X5.5002Y-2.3122
X5.6002Y-2.0122
X5.6002Y-2.3122
X5.7002Y-2.0122
X5.7002Y-2.3122
X5.8002Y-2.0122
X5.8002Y-2.3122
X5.9002Y-2.0122
X5.9002Y-2.3122
X6.0002Y-2.0122
X6.0002Y-2.3122
X6.1002Y-2.0122
X6.1002Y-2.3122
X6.2002Y-2.0122
X6.2002Y-2.3122
X3.9754Y-4.7925
X3.9754Y-5.0925
X4.0754Y-4.7925
X4.0754Y-5.0925
X4.1754Y-4.7925
X4.1754Y-5.0925
X4.2754Y-4.7925
X4.2754Y-5.0925
X4.3754Y-4.7925
X4.3754Y-5.0925
X4.4754Y-4.7925
X4.4754Y-5.0925
X4.5754Y-4.7925
X4.5754Y-5.0925
X4.6754Y-4.7925
X4.6754Y-5.0925
X3.2549Y-3.5689
X3.5549Y-3.5689
X3.2549Y-3.7136
X3.5549Y-3.7136
X5.2943Y-3.908
X5.3943Y-3.908
X5.4943Y-3.908
X5.5943Y-3.908
X5.6943Y-3.908
X5.7943Y-3.908
X5.8943Y-3.908
X5.9943Y-3.908
X6.0943Y-3.908
X6.1943Y-3.908
X3.9018Y-4.6098
X4.0018Y-4.6098
X4.1018Y-4.6098
X4.2018Y-4.6098
X4.3018Y-4.6098
X4.4018Y-4.6098
X4.5018Y-4.6098
X4.6018Y-4.6098
X4.7018Y-4.6098
X3.4459Y-2.949
X3.4459Y-3.249
X3.5459Y-2.949
X3.5459Y-3.249
X3.6459Y-2.949
X3.6459Y-3.249
X3.7459Y-2.949
X3.7459Y-3.249
X3.8459Y-2.949
X3.8459Y-3.249
X3.9459Y-2.949
X3.9459Y-3.249
X4.0459Y-2.949
X4.0459Y-3.249
X3.2453Y-3.8661
X3.5453Y-3.8661
X3.1289Y-4.7974
X3.1289Y-5.0974
X3.2289Y-4.7974
X3.2289Y-5.0974
X3.3289Y-4.7974
X3.3289Y-5.0974
X3.4289Y-4.7974
X3.4289Y-5.0974
X3.5289Y-4.7974
X3.5289Y-5.0974
X3.6289Y-4.7974
X3.6289Y-5.0974
X3.7289Y-4.7974
X3.7289Y-5.0974
X3.2589Y-3.4272
X3.5589Y-3.4272
X2.8041Y-1.811
X2.8041Y-2.111
X5.3002Y-2.6039
X5.3002Y-2.9039
X5.4002Y-2.6039
X5.4002Y-2.9039
X5.5002Y-2.6039
X5.5002Y-2.9039
X5.6002Y-2.6039
X5.6002Y-2.9039
X5.7002Y-2.6039
X5.7002Y-2.9039
X5.8002Y-2.6039
X5.8002Y-2.9039
X5.9002Y-2.6039
X5.9002Y-2.9039
X6.0002Y-2.6039
X6.0002Y-2.9039
X6.1002Y-2.6039
X6.1002Y-2.9039
X6.2002Y-2.6039
X6.2002Y-2.9039
X3.4459Y-2.3058
X3.4459Y-2.6058
X3.5459Y-2.3058
X3.5459Y-2.6058
X3.6459Y-2.3058
X3.6459Y-2.6058
X3.7459Y-2.3058
X3.7459Y-2.6058
X3.8459Y-2.3058
X3.8459Y-2.6058
X3.9459Y-2.3058
X3.9459Y-2.6058
X4.0459Y-2.3058
X4.0459Y-2.6058
X3.6902Y-3.4341
X3.9902Y-3.4341
X3.1813Y-4.6339
X3.4813Y-4.6339
X3.4459Y-1.6626
X3.4459Y-1.9626
X3.5459Y-1.6626
X3.5459Y-1.9626
X3.6459Y-1.6626
X3.6459Y-1.9626
X3.7459Y-1.6626
X3.7459Y-1.9626
X3.8459Y-1.6626
X3.8459Y-1.9626
X3.9459Y-1.6626
X3.9459Y-1.9626
X4.0459Y-1.6626
X4.0459Y-1.9626
X5.3002Y-3.1956
X5.3002Y-3.4956
X5.4002Y-3.1956
X5.4002Y-3.4956
X5.5002Y-3.1956
X5.5002Y-3.4956
X5.6002Y-3.1956
X5.6002Y-3.4956
X5.7002Y-3.1956
X5.7002Y-3.4956
X5.8002Y-3.1956
X5.8002Y-3.4956
X5.9002Y-3.1956
X5.9002Y-3.4956
X6.0002Y-3.1956
X6.0002Y-3.4956
X6.1002Y-3.1956
X6.1002Y-3.4956
X6.2002Y-3.1956
X6.2002Y-3.4956
X3.1813Y-4.499
X3.4813Y-4.499
X4.1124Y-3.6183
X4.1124Y-3.9183
X4.2124Y-3.6183
X4.2124Y-3.9183
X4.3124Y-3.6183
X4.3124Y-3.9183
X4.4124Y-3.6183
X4.4124Y-3.9183
X4.5124Y-3.6183
X4.5124Y-3.9183
X4.6124Y-3.6183
X4.6124Y-3.9183
X4.7124Y-3.6183
X4.7124Y-3.9183
X5.3002Y-1.4205
X5.3002Y-1.7205
X5.4002Y-1.4205
X5.4002Y-1.7205
X5.5002Y-1.4205
X5.5002Y-1.7205
X5.6002Y-1.4205
X5.6002Y-1.7205
X5.7002Y-1.4205
X5.7002Y-1.7205
X5.8002Y-1.4205
X5.8002Y-1.7205
X5.9002Y-1.4205
X5.9002Y-1.7205
X6.0002Y-1.4205
X6.0002Y-1.7205
X6.1002Y-1.4205
X6.1002Y-1.7205
X6.2002Y-1.4205
X6.2002Y-1.7205
T4
X3.4163Y-4.0553
X3.4163Y-4.3553
X2.8553Y-3.837
X2.8553Y-3.937
X2.8553Y-4.0638
X2.8553Y-4.1638
X2.8553Y-4.2906
X2.8553Y-4.3906
X2.8553Y-4.9709
X2.8553Y-5.0709
X2.8553Y-4.5173
X2.8553Y-4.6173
X2.8553Y-4.7441
X2.8553Y-4.8441
T5
X2.8012Y-1.4439
X2.8012Y-1.6211
T6
X3.6841Y-4.1654
X3.6841Y-4.3622
X5.1811Y-2.0689
X5.1811Y-2.2657
X6.4163Y-1.75
X6.4163Y-1.85
X6.4163Y-1.95
X6.4163Y-2.05
X6.4163Y-2.15
X6.4163Y-2.25
X6.4163Y-2.35
X6.4163Y-2.45
X6.4163Y-2.55
X6.4163Y-2.65
X6.4163Y-2.75
X6.4163Y-2.85
X6.4163Y-2.95
X6.4163Y-3.05
X6.4163Y-3.15
X6.4163Y-3.25
X6.4163Y-3.35
X6.4163Y-3.45
X6.4163Y-3.55
X6.4163Y-3.65
X6.4163Y-3.75
X6.4163Y-3.85
X6.4163Y-3.95
X6.4163Y-4.05
X6.4163Y-4.15
X6.5163Y-1.75
X6.5163Y-1.85
X6.5163Y-1.95
X6.5163Y-2.05
X6.5163Y-2.15
X6.5163Y-2.25
X6.5163Y-2.35
X6.5163Y-2.45
X6.5163Y-2.55
X6.5163Y-2.65
X6.5163Y-2.75
X6.5163Y-2.85
X6.5163Y-2.95
X6.5163Y-3.05
X6.5163Y-3.15
X6.5163Y-3.25
X6.5163Y-3.35
X6.5163Y-3.45
X6.5163Y-3.55
X6.5163Y-3.65
X6.5163Y-3.75
X6.5163Y-3.85
X6.5163Y-3.95
X6.5163Y-4.05
X6.5163Y-4.15
X2.9236Y-2.7693
X2.9236Y-2.8693
X2.9236Y-2.9693
X2.9236Y-3.0693
X2.9236Y-3.1693
X3.0236Y-2.7693
X3.0236Y-2.8693
X3.0236Y-2.9693
X3.0236Y-3.0693
X3.0236Y-3.1693
X5.185Y-2.6831
X5.185Y-2.8799
X3.1535Y-1.4797
X3.1535Y-1.5797
X2.9193Y-2.3148
X2.9193Y-2.4148
X2.9193Y-2.5148
X5.1801Y-3.2441
X5.1801Y-3.4409
X3.9724Y-3.6565
X3.9724Y-3.8533
X5.1496Y-4.1447
X5.1496Y-4.3415
X3.3169Y-1.7077
X3.3169Y-1.9045
X3.3169Y-3.0
X3.3169Y-3.1969
X3.3169Y-2.3474
X3.3169Y-2.5443
X5.1772Y-1.4852
X5.1772Y-1.6821
X2.9114Y-3.4063
X2.9114Y-3.5063
X2.9114Y-3.6063
X3.9134Y-1.4124
X4.1102Y-1.4124
T7
X2.8992Y-1.3943
X2.8992Y-1.6703
T0
M30
