M48
; DRILL file {KiCad (5.1.5)-3} date 12/26/2021 9:20:31 AM
; FORMAT={-:-/ absolute / inch / decimal}
; #@! TF.CreationDate,2021-12-26T09:20:31-06:00
; #@! TF.GenerationSoftware,Kicad,Pcbnew,(5.1.5)-3
; #@! TF.FileFunction,Plated,1,2,PTH
FMAT,2
INCH
T1C0.0157
T2C0.0236
T3C0.0315
T4C0.0354
T5C0.0390
T6C0.0394
T7C0.0512
%
G90
G05
T1
X3.0417Y-4.7092
X3.5396Y-2.1653
X3.5672Y-1.7605
X3.6835Y-3.8305
X3.7567Y-4.1502
X3.7752Y-1.8607
X3.8112Y-2.0935
X3.8949Y-3.4569
X4.1008Y-3.3687
X4.1472Y-1.6675
X4.1691Y-1.7791
X4.1758Y-2.2773
X4.3189Y-3.7085
X4.3363Y-3.2711
X4.3389Y-1.9506
X4.3431Y-2.2476
X4.358Y-1.4597
X4.3664Y-1.9189
X4.427Y-3.7781
X4.4584Y-3.0305
X4.4736Y-3.4876
X4.4905Y-2.3184
X4.5077Y-2.431
X4.5297Y-2.4872
X4.5299Y-1.7764
X4.5681Y-2.108
X4.5727Y-2.2813
X4.5936Y-3.4934
X4.6244Y-2.4024
X4.6257Y-3.5388
X4.6356Y-2.4681
X4.6412Y-3.756
X4.6438Y-3.316
X4.6734Y-2.9717
X4.6734Y-3.4869
X4.7213Y-3.6787
X4.7461Y-3.7713
X4.7653Y-2.6231
X4.7653Y-3.3943
X4.7844Y-2.4217
X4.7872Y-3.5054
X4.8263Y-3.5605
X4.9249Y-3.8002
X4.9383Y-3.0514
X4.9537Y-1.9352
X4.9723Y-3.4852
X4.9725Y-1.782
X4.9811Y-2.0159
X4.9876Y-1.83
X4.9898Y-3.6122
X4.99Y-3.5246
X5.0181Y-3.2336
X5.0368Y-1.8817
X5.0513Y-1.3768
X5.0665Y-2.1928
X5.1083Y-3.9897
X5.1109Y-2.4285
X5.1201Y-2.9318
X5.1405Y-1.4208
X5.1593Y-3.5109
X5.1593Y-3.8234
X5.1706Y-1.8899
X5.1732Y-1.947
X5.1772Y-1.6096
X5.1883Y-3.9445
X5.2048Y-3.7516
X5.2055Y-2.5406
X5.2139Y-3.1119
X5.2459Y-2.7974
X5.2783Y-3.0227
X5.283Y-2.4899
X5.2976Y-2.4445
X5.3216Y-3.7507
X5.3497Y-2.4526
X5.3576Y-2.0985
X5.3749Y-3.5969
X5.378Y-2.4231
X5.3844Y-2.7797
X5.426Y-3.2828
X5.434Y-2.2514
X5.4447Y-3.9663
X5.5465Y-2.1732
X5.5713Y-2.9938
X5.5732Y-3.6196
X5.6037Y-2.8136
X5.6136Y-2.4388
X5.6569Y-2.5264
X5.6576Y-3.1167
X5.707Y-3.9877
X5.7204Y-2.785
X5.7252Y-2.5334
X5.7417Y-3.0766
X5.7481Y-2.3845
X5.7502Y-3.0301
X5.8002Y-2.7764
X5.8312Y-2.0761
X5.8382Y-3.5518
X5.8396Y-3.0203
X5.8927Y-2.1546
X5.8974Y-2.7816
X5.94Y-2.8335
X5.9559Y-2.1861
X5.9699Y-4.2576
X5.9725Y-2.4902
X5.9825Y-2.6876
X5.9971Y-2.8062
X6.0074Y-3.1099
X6.0354Y-2.8445
X6.0441Y-4.0212
X6.1243Y-3.0475
X6.1465Y-2.4664
X6.1522Y-3.1086
X6.179Y-2.5047
X6.2002Y-3.6949
X6.251Y-3.0353
X6.2545Y-3.6707
X6.2657Y-1.8397
X6.2888Y-2.1721
X6.2943Y-3.0789
X6.2943Y-3.6065
X6.3056Y-2.7037
X6.3065Y-1.7991
X6.3094Y-2.8214
X6.3562Y-3.469
X6.4701Y-2.9851
T2
X6.436Y-4.622
X6.436Y-4.7008
X6.4715Y-1.4291
X6.4715Y-1.5079
X3.1112Y-1.9833
X3.1112Y-2.062
T3
X5.3002Y-2.6039
X5.3002Y-2.9039
X5.4002Y-2.6039
X5.4002Y-2.9039
X5.5002Y-2.6039
X5.5002Y-2.9039
X5.6002Y-2.6039
X5.6002Y-2.9039
X5.7002Y-2.6039
X5.7002Y-2.9039
X5.8002Y-2.6039
X5.8002Y-2.9039
X5.9002Y-2.6039
X5.9002Y-2.9039
X6.0002Y-2.6039
X6.0002Y-2.9039
X6.1002Y-2.6039
X6.1002Y-2.9039
X6.2002Y-2.6039
X6.2002Y-2.9039
X5.3644Y-4.6098
X5.4644Y-4.6098
X5.5644Y-4.6098
X5.6644Y-4.6098
X5.7644Y-4.6098
X5.8644Y-4.6098
X5.9644Y-4.6098
X6.0644Y-4.6098
X6.1644Y-4.6098
X3.2378Y-3.9941
X3.5378Y-3.9941
X2.8041Y-1.811
X2.8041Y-2.111
X3.6902Y-3.4341
X3.9902Y-3.4341
X3.9803Y-4.0888
X3.9803Y-4.3888
X4.0803Y-4.0888
X4.0803Y-4.3888
X4.1803Y-4.0888
X4.1803Y-4.3888
X4.2803Y-4.0888
X4.2803Y-4.3888
X4.3803Y-4.0888
X4.3803Y-4.3888
X4.4803Y-4.0888
X4.4803Y-4.3888
X4.5803Y-4.0888
X4.5803Y-4.3888
X4.6803Y-4.0888
X4.6803Y-4.3888
X4.7803Y-4.0888
X4.7803Y-4.3888
X4.8803Y-4.0888
X4.8803Y-4.3888
X4.2746Y-3.6085
X4.2746Y-3.9085
X4.3746Y-3.6085
X4.3746Y-3.9085
X4.4746Y-3.6085
X4.4746Y-3.9085
X4.5746Y-3.6085
X4.5746Y-3.9085
X4.6746Y-3.6085
X4.6746Y-3.9085
X4.7746Y-3.6085
X4.7746Y-3.9085
X4.8746Y-3.6085
X4.8746Y-3.9085
X3.4459Y-1.6626
X3.4459Y-1.9626
X3.5459Y-1.6626
X3.5459Y-1.9626
X3.6459Y-1.6626
X3.6459Y-1.9626
X3.7459Y-1.6626
X3.7459Y-1.9626
X3.8459Y-1.6626
X3.8459Y-1.9626
X3.9459Y-1.6626
X3.9459Y-1.9626
X4.0459Y-1.6626
X4.0459Y-1.9626
X3.7215Y-3.6102
X3.7215Y-3.9102
X4.0581Y-4.7945
X4.0581Y-5.0945
X4.1581Y-4.7945
X4.1581Y-5.0945
X4.2581Y-4.7945
X4.2581Y-5.0945
X4.3581Y-4.7945
X4.3581Y-5.0945
X4.4581Y-4.7945
X4.4581Y-5.0945
X4.5581Y-4.7945
X4.5581Y-5.0945
X4.6581Y-4.7945
X4.6581Y-5.0945
X4.7581Y-4.7945
X4.7581Y-5.0945
X5.3002Y-3.1956
X5.3002Y-3.4956
X5.4002Y-3.1956
X5.4002Y-3.4956
X5.5002Y-3.1956
X5.5002Y-3.4956
X5.6002Y-3.1956
X5.6002Y-3.4956
X5.7002Y-3.1956
X5.7002Y-3.4956
X5.8002Y-3.1956
X5.8002Y-3.4956
X5.9002Y-3.1956
X5.9002Y-3.4956
X6.0002Y-3.1956
X6.0002Y-3.4956
X6.1002Y-3.1956
X6.1002Y-3.4956
X6.2002Y-3.1956
X6.2002Y-3.4956
X5.3002Y-1.4205
X5.3002Y-1.7205
X5.4002Y-1.4205
X5.4002Y-1.7205
X5.5002Y-1.4205
X5.5002Y-1.7205
X5.6002Y-1.4205
X5.6002Y-1.7205
X5.7002Y-1.4205
X5.7002Y-1.7205
X5.8002Y-1.4205
X5.8002Y-1.7205
X5.9002Y-1.4205
X5.9002Y-1.7205
X6.0002Y-1.4205
X6.0002Y-1.7205
X6.1002Y-1.4205
X6.1002Y-1.7205
X6.2002Y-1.4205
X6.2002Y-1.7205
X3.4459Y-2.3058
X3.4459Y-2.6058
X3.5459Y-2.3058
X3.5459Y-2.6058
X3.6459Y-2.3058
X3.6459Y-2.6058
X3.7459Y-2.3058
X3.7459Y-2.6058
X3.8459Y-2.3058
X3.8459Y-2.6058
X3.9459Y-2.3058
X3.9459Y-2.6058
X4.0459Y-2.3058
X4.0459Y-2.6058
X5.2844Y-4.1085
X5.2844Y-4.4085
X5.3844Y-4.1085
X5.3844Y-4.4085
X5.4844Y-4.1085
X5.4844Y-4.4085
X5.5844Y-4.1085
X5.5844Y-4.4085
X5.6844Y-4.1085
X5.6844Y-4.4085
X5.7844Y-4.1085
X5.7844Y-4.4085
X5.8844Y-4.1085
X5.8844Y-4.4085
X5.9844Y-4.1085
X5.9844Y-4.4085
X6.0844Y-4.1085
X6.0844Y-4.4085
X6.1844Y-4.1085
X6.1844Y-4.4085
X5.3002Y-2.0122
X5.3002Y-2.3122
X5.4002Y-2.0122
X5.4002Y-2.3122
X5.5002Y-2.0122
X5.5002Y-2.3122
X5.6002Y-2.0122
X5.6002Y-2.3122
X5.7002Y-2.0122
X5.7002Y-2.3122
X5.8002Y-2.0122
X5.8002Y-2.3122
X5.9002Y-2.0122
X5.9002Y-2.3122
X6.0002Y-2.0122
X6.0002Y-2.3122
X6.1002Y-2.0122
X6.1002Y-2.3122
X6.2002Y-2.0122
X6.2002Y-2.3122
X3.0935Y-4.3152
X3.0935Y-4.6152
X3.1935Y-4.3152
X3.1935Y-4.6152
X3.2935Y-4.3152
X3.2935Y-4.6152
X3.3935Y-4.3152
X3.3935Y-4.6152
X3.4935Y-4.3152
X3.4935Y-4.6152
X3.5935Y-4.3152
X3.5935Y-4.6152
X3.6935Y-4.3152
X3.6935Y-4.6152
X3.4459Y-2.949
X3.4459Y-3.249
X3.5459Y-2.949
X3.5459Y-3.249
X3.6459Y-2.949
X3.6459Y-3.249
X3.7459Y-2.949
X3.7459Y-3.249
X3.8459Y-2.949
X3.8459Y-3.249
X3.9459Y-2.949
X3.9459Y-3.249
X4.0459Y-2.949
X4.0459Y-3.249
X4.2736Y-1.5217
X4.2736Y-1.6217
X4.2736Y-1.7217
X4.2736Y-1.8217
X4.2736Y-1.9217
X4.2736Y-2.0217
X4.2736Y-2.1217
X4.2736Y-2.2217
X4.2736Y-2.3217
X4.2736Y-2.4217
X4.2736Y-2.5217
X4.2736Y-2.6217
X4.2736Y-2.7217
X4.2736Y-2.8217
X4.2736Y-2.9217
X4.2736Y-3.0217
X4.2736Y-3.1217
X4.2736Y-3.2217
X4.2736Y-3.3217
X4.2736Y-3.4217
X4.8736Y-1.5217
X4.8736Y-1.6217
X4.8736Y-1.7217
X4.8736Y-1.8217
X4.8736Y-1.9217
X4.8736Y-2.0217
X4.8736Y-2.1217
X4.8736Y-2.2217
X4.8736Y-2.3217
X4.8736Y-2.4217
X4.8736Y-2.5217
X4.8736Y-2.6217
X4.8736Y-2.7217
X4.8736Y-2.8217
X4.8736Y-2.9217
X4.8736Y-3.0217
X4.8736Y-3.1217
X4.8736Y-3.2217
X4.8736Y-3.3217
X4.8736Y-3.4217
X3.2378Y-3.5689
X3.5378Y-3.5689
X3.1289Y-4.7974
X3.1289Y-5.0974
X3.2289Y-4.7974
X3.2289Y-5.0974
X3.3289Y-4.7974
X3.3289Y-5.0974
X3.4289Y-4.7974
X3.4289Y-5.0974
X3.5289Y-4.7974
X3.5289Y-5.0974
X3.6289Y-4.7974
X3.6289Y-5.0974
X3.7289Y-4.7974
X3.7289Y-5.0974
X3.2378Y-3.4272
X3.5378Y-3.4272
X3.9844Y-4.6117
X4.0844Y-4.6117
X4.1844Y-4.6117
X4.2844Y-4.6117
X4.3844Y-4.6117
X4.4844Y-4.6117
X4.5844Y-4.6117
X4.6844Y-4.6117
X4.7844Y-4.6117
X5.438Y-4.7925
X5.438Y-5.0925
X5.538Y-4.7925
X5.538Y-5.0925
X5.638Y-4.7925
X5.638Y-5.0925
X5.738Y-4.7925
X5.738Y-5.0925
X5.838Y-4.7925
X5.838Y-5.0925
X5.938Y-4.7925
X5.938Y-5.0925
X6.038Y-4.7925
X6.038Y-5.0925
X6.138Y-4.7925
X6.138Y-5.0925
X5.2943Y-3.908
X5.3943Y-3.908
X5.4943Y-3.908
X5.5943Y-3.908
X5.6943Y-3.908
X5.7943Y-3.908
X5.8943Y-3.908
X5.9943Y-3.908
X6.0943Y-3.908
X6.1943Y-3.908
X3.2378Y-3.8524
X3.5378Y-3.8524
X3.2378Y-3.7106
X3.5378Y-3.7106
T4
X2.8553Y-4.7441
X2.8553Y-4.8441
X2.8553Y-3.837
X2.8553Y-3.937
X2.8553Y-4.5173
X2.8553Y-4.6173
X2.8553Y-4.9709
X2.8553Y-5.0709
X2.8553Y-4.2906
X2.8553Y-4.3906
X2.8553Y-4.0638
X2.8553Y-4.1638
X3.9459Y-3.6173
X3.9459Y-3.9173
T5
X2.8012Y-1.4439
X2.8012Y-1.6211
T6
X2.9236Y-2.7693
X2.9236Y-2.8693
X2.9236Y-2.9693
X2.9236Y-3.0693
X2.9236Y-3.1693
X3.0236Y-2.7693
X3.0236Y-2.8693
X3.0236Y-2.9693
X3.0236Y-3.0693
X3.0236Y-3.1693
X3.8376Y-4.0837
X3.8376Y-4.2805
X5.1811Y-2.0689
X5.1811Y-2.2657
X3.9134Y-1.4124
X4.1102Y-1.4124
X5.185Y-2.6831
X5.185Y-2.8799
X3.1181Y-4.1693
X3.315Y-4.1693
X3.3169Y-2.3474
X3.3169Y-2.5443
X5.1801Y-3.2441
X5.1801Y-3.4409
X2.9193Y-2.3148
X2.9193Y-2.4148
X2.9193Y-2.5148
X4.1368Y-3.5994
X4.1368Y-3.7963
X3.1535Y-1.4797
X3.1535Y-1.5797
X5.1496Y-4.1447
X5.1496Y-4.3415
X5.1772Y-1.4852
X5.1772Y-1.6821
X2.9114Y-3.4063
X2.9114Y-3.5063
X2.9114Y-3.6063
X6.4163Y-1.75
X6.4163Y-1.85
X6.4163Y-1.95
X6.4163Y-2.05
X6.4163Y-2.15
X6.4163Y-2.25
X6.4163Y-2.35
X6.4163Y-2.45
X6.4163Y-2.55
X6.4163Y-2.65
X6.4163Y-2.75
X6.4163Y-2.85
X6.4163Y-2.95
X6.4163Y-3.05
X6.4163Y-3.15
X6.4163Y-3.25
X6.4163Y-3.35
X6.4163Y-3.45
X6.4163Y-3.55
X6.4163Y-3.65
X6.4163Y-3.75
X6.4163Y-3.85
X6.4163Y-3.95
X6.4163Y-4.05
X6.4163Y-4.15
X6.5163Y-1.75
X6.5163Y-1.85
X6.5163Y-1.95
X6.5163Y-2.05
X6.5163Y-2.15
X6.5163Y-2.25
X6.5163Y-2.35
X6.5163Y-2.45
X6.5163Y-2.55
X6.5163Y-2.65
X6.5163Y-2.75
X6.5163Y-2.85
X6.5163Y-2.95
X6.5163Y-3.05
X6.5163Y-3.15
X6.5163Y-3.25
X6.5163Y-3.35
X6.5163Y-3.45
X6.5163Y-3.55
X6.5163Y-3.65
X6.5163Y-3.75
X6.5163Y-3.85
X6.5163Y-3.95
X6.5163Y-4.05
X6.5163Y-4.15
X3.3169Y-1.7077
X3.3169Y-1.9045
X3.3169Y-3.0
X3.3169Y-3.1969
X3.4764Y-4.1644
X3.6732Y-4.1644
T7
X2.8992Y-1.3943
X2.8992Y-1.6703
T0
M30
