G04 #@! TF.GenerationSoftware,KiCad,Pcbnew,(6.0.6)*
G04 #@! TF.CreationDate,2022-10-22T15:33:35-05:00*
G04 #@! TF.ProjectId,Z8065C02,5a383036-3543-4303-922e-6b696361645f,rev?*
G04 #@! TF.SameCoordinates,Original*
G04 #@! TF.FileFunction,Soldermask,Bot*
G04 #@! TF.FilePolarity,Negative*
%FSLAX46Y46*%
G04 Gerber Fmt 4.6, Leading zero omitted, Abs format (unit mm)*
G04 Created by KiCad (PCBNEW (6.0.6)) date 2022-10-22 15:33:35*
%MOMM*%
%LPD*%
G01*
G04 APERTURE LIST*
G04 Aperture macros list*
%AMRoundRect*
0 Rectangle with rounded corners*
0 $1 Rounding radius*
0 $2 $3 $4 $5 $6 $7 $8 $9 X,Y pos of 4 corners*
0 Add a 4 corners polygon primitive as box body*
4,1,4,$2,$3,$4,$5,$6,$7,$8,$9,$2,$3,0*
0 Add four circle primitives for the rounded corners*
1,1,$1+$1,$2,$3*
1,1,$1+$1,$4,$5*
1,1,$1+$1,$6,$7*
1,1,$1+$1,$8,$9*
0 Add four rect primitives between the rounded corners*
20,1,$1+$1,$2,$3,$4,$5,0*
20,1,$1+$1,$4,$5,$6,$7,0*
20,1,$1+$1,$6,$7,$8,$9,0*
20,1,$1+$1,$8,$9,$2,$3,0*%
G04 Aperture macros list end*
%ADD10RoundRect,0.051000X-0.600000X0.600000X-0.600000X-0.600000X0.600000X-0.600000X0.600000X0.600000X0*%
%ADD11C,1.302000*%
%ADD12C,2.102000*%
%ADD13RoundRect,0.051000X0.600000X-0.600000X0.600000X0.600000X-0.600000X0.600000X-0.600000X-0.600000X0*%
%ADD14RoundRect,0.051000X0.900000X-0.900000X0.900000X0.900000X-0.900000X0.900000X-0.900000X-0.900000X0*%
%ADD15O,1.902000X1.902000*%
%ADD16C,1.902000*%
%ADD17RoundRect,0.051000X0.850000X0.850000X-0.850000X0.850000X-0.850000X-0.850000X0.850000X-0.850000X0*%
%ADD18O,1.802000X1.802000*%
%ADD19C,1.702000*%
%ADD20O,1.702000X1.702000*%
%ADD21RoundRect,0.051000X0.800000X0.800000X-0.800000X0.800000X-0.800000X-0.800000X0.800000X-0.800000X0*%
%ADD22RoundRect,0.051000X0.800000X-0.800000X0.800000X0.800000X-0.800000X0.800000X-0.800000X-0.800000X0*%
%ADD23C,2.202000*%
%ADD24C,1.852000*%
%ADD25RoundRect,0.051000X0.800000X-1.200000X0.800000X1.200000X-0.800000X1.200000X-0.800000X-1.200000X0*%
%ADD26O,1.702000X2.502000*%
%ADD27RoundRect,0.051000X-0.850000X-0.850000X0.850000X-0.850000X0.850000X0.850000X-0.850000X0.850000X0*%
%ADD28RoundRect,0.051000X1.200000X0.800000X-1.200000X0.800000X-1.200000X-0.800000X1.200000X-0.800000X0*%
%ADD29O,2.502000X1.702000*%
%ADD30RoundRect,0.051000X-0.600000X-0.600000X0.600000X-0.600000X0.600000X0.600000X-0.600000X0.600000X0*%
%ADD31RoundRect,0.051000X0.600000X0.600000X-0.600000X0.600000X-0.600000X-0.600000X0.600000X-0.600000X0*%
%ADD32RoundRect,0.051000X-0.800000X-0.800000X0.800000X-0.800000X0.800000X0.800000X-0.800000X0.800000X0*%
G04 APERTURE END LIST*
D10*
X77900000Y-52650000D03*
D11*
X77900000Y-54650000D03*
D12*
X81800000Y-41625000D03*
X81800000Y-46625000D03*
X82150000Y-74750000D03*
X82150000Y-79750000D03*
X82150000Y-58275000D03*
X82150000Y-63275000D03*
D10*
X163475000Y-117400000D03*
D11*
X163475000Y-119400000D03*
D13*
X164375000Y-38300000D03*
D11*
X164375000Y-36300000D03*
D14*
X100225000Y-99500000D03*
D15*
X100225000Y-91880000D03*
D14*
X72525000Y-128800000D03*
D16*
X72525000Y-126260000D03*
D17*
X74150000Y-63875000D03*
D18*
X74150000Y-61335000D03*
X74150000Y-58795000D03*
D17*
X70875000Y-49075000D03*
D18*
X70875000Y-46535000D03*
D19*
X78925000Y-35950000D03*
D20*
X86545000Y-35950000D03*
D19*
X89860000Y-101450000D03*
D20*
X82240000Y-101450000D03*
D19*
X94525000Y-91700000D03*
D20*
X94525000Y-99320000D03*
D21*
X156575000Y-117088000D03*
D20*
X154035000Y-117088000D03*
X151495000Y-117088000D03*
X148955000Y-117088000D03*
X146415000Y-117088000D03*
X143875000Y-117088000D03*
X141335000Y-117088000D03*
X138795000Y-117088000D03*
X136255000Y-117088000D03*
D22*
X138125000Y-129350000D03*
D20*
X140665000Y-129350000D03*
X143205000Y-129350000D03*
X145745000Y-129350000D03*
X148285000Y-129350000D03*
X150825000Y-129350000D03*
X153365000Y-129350000D03*
X155905000Y-129350000D03*
X155905000Y-121730000D03*
X153365000Y-121730000D03*
X150825000Y-121730000D03*
X148285000Y-121730000D03*
X145745000Y-121730000D03*
X143205000Y-121730000D03*
X140665000Y-121730000D03*
X138125000Y-121730000D03*
D23*
X73640000Y-42425000D03*
X73640000Y-35415000D03*
D24*
X71150000Y-41175000D03*
X71150000Y-36675000D03*
D22*
X103075000Y-129400000D03*
D20*
X105615000Y-129400000D03*
X108155000Y-129400000D03*
X110695000Y-129400000D03*
X113235000Y-129400000D03*
X115775000Y-129400000D03*
X118315000Y-129400000D03*
X120855000Y-129400000D03*
X120855000Y-121780000D03*
X118315000Y-121780000D03*
X115775000Y-121780000D03*
X113235000Y-121780000D03*
X110695000Y-121780000D03*
X108155000Y-121780000D03*
X105615000Y-121780000D03*
X103075000Y-121780000D03*
D25*
X85500000Y-49325000D03*
D26*
X88040000Y-49325000D03*
X90580000Y-49325000D03*
X93120000Y-49325000D03*
X95660000Y-49325000D03*
X98200000Y-49325000D03*
X100740000Y-49325000D03*
X100740000Y-41705000D03*
X98200000Y-41705000D03*
X95660000Y-41705000D03*
X93120000Y-41705000D03*
X90580000Y-41705000D03*
X88040000Y-41705000D03*
X85500000Y-41705000D03*
D25*
X85500000Y-65950000D03*
D26*
X88040000Y-65950000D03*
X90580000Y-65950000D03*
X93120000Y-65950000D03*
X95660000Y-65950000D03*
X98200000Y-65950000D03*
X100740000Y-65950000D03*
X100740000Y-58330000D03*
X98200000Y-58330000D03*
X95660000Y-58330000D03*
X93120000Y-58330000D03*
X90580000Y-58330000D03*
X88040000Y-58330000D03*
X85500000Y-58330000D03*
D25*
X78150000Y-117450000D03*
D26*
X80690000Y-117450000D03*
X83230000Y-117450000D03*
X85770000Y-117450000D03*
X88310000Y-117450000D03*
X90850000Y-117450000D03*
X93390000Y-117450000D03*
X93390000Y-109830000D03*
X90850000Y-109830000D03*
X88310000Y-109830000D03*
X85770000Y-109830000D03*
X83230000Y-109830000D03*
X80690000Y-109830000D03*
X78150000Y-109830000D03*
D25*
X101100000Y-111475000D03*
D26*
X103640000Y-111475000D03*
X106180000Y-111475000D03*
X108720000Y-111475000D03*
X111260000Y-111475000D03*
X113800000Y-111475000D03*
X116340000Y-111475000D03*
X118880000Y-111475000D03*
X121420000Y-111475000D03*
X123960000Y-111475000D03*
X123960000Y-103855000D03*
X121420000Y-103855000D03*
X118880000Y-103855000D03*
X116340000Y-103855000D03*
X113800000Y-103855000D03*
X111260000Y-103855000D03*
X108720000Y-103855000D03*
X106180000Y-103855000D03*
X103640000Y-103855000D03*
X101100000Y-103855000D03*
D25*
X85500000Y-82400000D03*
D26*
X88040000Y-82400000D03*
X90580000Y-82400000D03*
X93120000Y-82400000D03*
X95660000Y-82400000D03*
X98200000Y-82400000D03*
X100740000Y-82400000D03*
X100740000Y-74780000D03*
X98200000Y-74780000D03*
X95660000Y-74780000D03*
X93120000Y-74780000D03*
X90580000Y-74780000D03*
X88040000Y-74780000D03*
X85500000Y-74780000D03*
D21*
X121525000Y-117138000D03*
D20*
X118985000Y-117138000D03*
X116445000Y-117138000D03*
X113905000Y-117138000D03*
X111365000Y-117138000D03*
X108825000Y-117138000D03*
X106285000Y-117138000D03*
X103745000Y-117138000D03*
X101205000Y-117138000D03*
D12*
X115775000Y-97875000D03*
X120775000Y-97875000D03*
D19*
X89860000Y-97850000D03*
D20*
X82240000Y-97850000D03*
D14*
X72525000Y-111520000D03*
D16*
X72525000Y-108980000D03*
D19*
X89900000Y-90600000D03*
D20*
X82280000Y-90600000D03*
D14*
X72525000Y-123040000D03*
D16*
X72525000Y-120500000D03*
D14*
X72525000Y-117280000D03*
D16*
X72525000Y-114740000D03*
D19*
X89860000Y-94250000D03*
D20*
X82240000Y-94250000D03*
D14*
X72525000Y-105760000D03*
D16*
X72525000Y-103220000D03*
D19*
X89800000Y-87000000D03*
D20*
X82180000Y-87000000D03*
D14*
X72525000Y-100000000D03*
D16*
X72525000Y-97460000D03*
D19*
X101350000Y-87225000D03*
D20*
X93730000Y-87225000D03*
D12*
X94975000Y-35975000D03*
X89975000Y-35975000D03*
X97975000Y-103750000D03*
X97975000Y-108750000D03*
D17*
X73950000Y-91600000D03*
D18*
X73950000Y-89060000D03*
X73950000Y-86520000D03*
D25*
X79475000Y-129475000D03*
D26*
X82015000Y-129475000D03*
X84555000Y-129475000D03*
X87095000Y-129475000D03*
X89635000Y-129475000D03*
X92175000Y-129475000D03*
X94715000Y-129475000D03*
X94715000Y-121855000D03*
X92175000Y-121855000D03*
X89635000Y-121855000D03*
X87095000Y-121855000D03*
X84555000Y-121855000D03*
X82015000Y-121855000D03*
X79475000Y-121855000D03*
D12*
X79200000Y-105900000D03*
X84200000Y-105900000D03*
X98150000Y-124375000D03*
X98150000Y-129375000D03*
D17*
X76300000Y-79025000D03*
D18*
X73760000Y-79025000D03*
X76300000Y-76485000D03*
X73760000Y-76485000D03*
X76300000Y-73945000D03*
X73760000Y-73945000D03*
X76300000Y-71405000D03*
X73760000Y-71405000D03*
D27*
X162950000Y-42950000D03*
D18*
X165490000Y-42950000D03*
X162950000Y-45490000D03*
X165490000Y-45490000D03*
X162950000Y-48030000D03*
X165490000Y-48030000D03*
X162950000Y-50570000D03*
X165490000Y-50570000D03*
X162950000Y-53110000D03*
X165490000Y-53110000D03*
X162950000Y-55650000D03*
X165490000Y-55650000D03*
X162950000Y-58190000D03*
X165490000Y-58190000D03*
X162950000Y-60730000D03*
X165490000Y-60730000D03*
X162950000Y-63270000D03*
X165490000Y-63270000D03*
X162950000Y-65810000D03*
X165490000Y-65810000D03*
X162950000Y-68350000D03*
X165490000Y-68350000D03*
X162950000Y-70890000D03*
X165490000Y-70890000D03*
X162950000Y-73430000D03*
X165490000Y-73430000D03*
X162950000Y-75970000D03*
X165490000Y-75970000D03*
X162950000Y-78510000D03*
X165490000Y-78510000D03*
X162950000Y-81050000D03*
X165490000Y-81050000D03*
X162950000Y-83590000D03*
X165490000Y-83590000D03*
X162950000Y-86130000D03*
X165490000Y-86130000D03*
X162950000Y-88670000D03*
X165490000Y-88670000D03*
X162950000Y-91210000D03*
X165490000Y-91210000D03*
X162950000Y-93750000D03*
X165490000Y-93750000D03*
X162950000Y-96290000D03*
X165490000Y-96290000D03*
X162950000Y-98830000D03*
X165490000Y-98830000D03*
X162950000Y-101370000D03*
X165490000Y-101370000D03*
X162950000Y-103910000D03*
X165490000Y-103910000D03*
D28*
X121000000Y-93650000D03*
D29*
X121000000Y-91110000D03*
X121000000Y-88570000D03*
X121000000Y-86030000D03*
X121000000Y-83490000D03*
X121000000Y-80950000D03*
X121000000Y-78410000D03*
X121000000Y-75870000D03*
X121000000Y-73330000D03*
X121000000Y-70790000D03*
X121000000Y-68250000D03*
X121000000Y-65710000D03*
X121000000Y-63170000D03*
X121000000Y-60630000D03*
X121000000Y-58090000D03*
X121000000Y-55550000D03*
X121000000Y-53010000D03*
X121000000Y-50470000D03*
X121000000Y-47930000D03*
X121000000Y-45390000D03*
X105760000Y-45390000D03*
X105760000Y-47930000D03*
X105760000Y-50470000D03*
X105760000Y-53010000D03*
X105760000Y-55550000D03*
X105760000Y-58090000D03*
X105760000Y-60630000D03*
X105760000Y-63170000D03*
X105760000Y-65710000D03*
X105760000Y-68250000D03*
X105760000Y-70790000D03*
X105760000Y-73330000D03*
X105760000Y-75870000D03*
X105760000Y-78410000D03*
X105760000Y-80950000D03*
X105760000Y-83490000D03*
X105760000Y-86030000D03*
X105760000Y-88570000D03*
X105760000Y-91110000D03*
X105760000Y-93650000D03*
D30*
X124425000Y-75925000D03*
D11*
X126425000Y-75925000D03*
D19*
X106225000Y-35975000D03*
D20*
X98605000Y-35975000D03*
D31*
X107572600Y-40000000D03*
D11*
X105572600Y-40000000D03*
D25*
X133250000Y-43425000D03*
D26*
X135790000Y-43425000D03*
X138330000Y-43425000D03*
X140870000Y-43425000D03*
X143410000Y-43425000D03*
X145950000Y-43425000D03*
X148490000Y-43425000D03*
X151030000Y-43425000D03*
X153570000Y-43425000D03*
X156110000Y-43425000D03*
X156110000Y-35805000D03*
X153570000Y-35805000D03*
X151030000Y-35805000D03*
X148490000Y-35805000D03*
X145950000Y-35805000D03*
X143410000Y-35805000D03*
X140870000Y-35805000D03*
X138330000Y-35805000D03*
X135790000Y-35805000D03*
X133250000Y-35805000D03*
D12*
X129925000Y-35800000D03*
X129925000Y-40800000D03*
X129700000Y-67300000D03*
X129700000Y-72300000D03*
X129625000Y-86400000D03*
X129625000Y-91400000D03*
X129300000Y-51600000D03*
X129300000Y-56600000D03*
X129425000Y-104200000D03*
X129425000Y-109200000D03*
D32*
X133775000Y-64300000D03*
D20*
X136315000Y-64300000D03*
X138855000Y-64300000D03*
X141395000Y-64300000D03*
X143935000Y-64300000D03*
X146475000Y-64300000D03*
X149015000Y-64300000D03*
X151555000Y-64300000D03*
X154095000Y-64300000D03*
X156635000Y-64300000D03*
D32*
X132950000Y-99137500D03*
D20*
X135490000Y-99137500D03*
X138030000Y-99137500D03*
X140570000Y-99137500D03*
X143110000Y-99137500D03*
X145650000Y-99137500D03*
X148190000Y-99137500D03*
X150730000Y-99137500D03*
X153270000Y-99137500D03*
X155810000Y-99137500D03*
D25*
X133175000Y-91600000D03*
D26*
X135715000Y-91600000D03*
X138255000Y-91600000D03*
X140795000Y-91600000D03*
X143335000Y-91600000D03*
X145875000Y-91600000D03*
X148415000Y-91600000D03*
X150955000Y-91600000D03*
X153495000Y-91600000D03*
X156035000Y-91600000D03*
X156035000Y-83980000D03*
X153495000Y-83980000D03*
X150955000Y-83980000D03*
X148415000Y-83980000D03*
X145875000Y-83980000D03*
X143335000Y-83980000D03*
X140795000Y-83980000D03*
X138255000Y-83980000D03*
X135715000Y-83980000D03*
X133175000Y-83980000D03*
D25*
X133175000Y-76900000D03*
D26*
X135715000Y-76900000D03*
X138255000Y-76900000D03*
X140795000Y-76900000D03*
X143335000Y-76900000D03*
X145875000Y-76900000D03*
X148415000Y-76900000D03*
X150955000Y-76900000D03*
X153495000Y-76900000D03*
X156035000Y-76900000D03*
X156035000Y-69280000D03*
X153495000Y-69280000D03*
X150955000Y-69280000D03*
X148415000Y-69280000D03*
X145875000Y-69280000D03*
X143335000Y-69280000D03*
X140795000Y-69280000D03*
X138255000Y-69280000D03*
X135715000Y-69280000D03*
X133175000Y-69280000D03*
D25*
X132700000Y-111850000D03*
D26*
X135240000Y-111850000D03*
X137780000Y-111850000D03*
X140320000Y-111850000D03*
X142860000Y-111850000D03*
X145400000Y-111850000D03*
X147940000Y-111850000D03*
X150480000Y-111850000D03*
X153020000Y-111850000D03*
X155560000Y-111850000D03*
X155560000Y-104230000D03*
X153020000Y-104230000D03*
X150480000Y-104230000D03*
X147940000Y-104230000D03*
X145400000Y-104230000D03*
X142860000Y-104230000D03*
X140320000Y-104230000D03*
X137780000Y-104230000D03*
X135240000Y-104230000D03*
X132700000Y-104230000D03*
D25*
X133000000Y-59191700D03*
D26*
X135540000Y-59191700D03*
X138080000Y-59191700D03*
X140620000Y-59191700D03*
X143160000Y-59191700D03*
X145700000Y-59191700D03*
X148240000Y-59191700D03*
X150780000Y-59191700D03*
X153320000Y-59191700D03*
X155860000Y-59191700D03*
X155860000Y-51571700D03*
X153320000Y-51571700D03*
X150780000Y-51571700D03*
X148240000Y-51571700D03*
X145700000Y-51571700D03*
X143160000Y-51571700D03*
X140620000Y-51571700D03*
X138080000Y-51571700D03*
X135540000Y-51571700D03*
X133000000Y-51571700D03*
D32*
X112050000Y-38600000D03*
D20*
X114590000Y-38600000D03*
X117130000Y-38600000D03*
X119670000Y-38600000D03*
X122210000Y-38600000D03*
X124750000Y-38600000D03*
M02*
