M48
; DRILL file {KiCad (5.1.5)-3} date 6/14/2022 7:42:03 PM
; FORMAT={-:-/ absolute / inch / decimal}
; #@! TF.CreationDate,2022-06-14T19:42:03-05:00
; #@! TF.GenerationSoftware,Kicad,Pcbnew,(5.1.5)-3
; #@! TF.FileFunction,Plated,1,2,PTH
FMAT,2
INCH
T1C0.0157
T2C0.0236
T3C0.0315
T4C0.0354
T5C0.0390
T6C0.0394
T7C0.0512
%
G90
G05
T1
X3.3127Y-3.3876
X3.4104Y-2.9954
X3.8723Y-3.7424
X3.9294Y-3.7634
X3.9818Y-2.0215
X3.994Y-3.8111
X4.0209Y-3.6592
X4.0528Y-3.6144
X4.0662Y-2.1696
X4.0853Y-3.829
X4.1117Y-3.9943
X4.2404Y-1.9151
X4.26Y-3.4315
X4.2602Y-2.5226
X4.2669Y-2.4268
X4.2702Y-2.471
X4.2967Y-3.7027
X4.3174Y-3.5677
X4.319Y-2.6387
X4.3264Y-2.5876
X4.3267Y-3.6277
X4.3273Y-2.4838
X4.3447Y-2.6736
X4.3568Y-4.0145
X4.3624Y-2.7993
X4.42Y-2.6404
X4.4414Y-3.8006
X4.4727Y-2.7901
X4.5597Y-3.0039
X4.5789Y-3.0585
X4.6632Y-3.3109
X4.6747Y-3.0966
X4.6906Y-2.8858
X4.7266Y-4.1495
X4.8694Y-2.5212
X4.8864Y-3.3276
X4.8992Y-2.4921
X4.9541Y-3.256
X4.9624Y-2.4673
X4.9884Y-1.9098
X4.9909Y-3.3053
X4.9977Y-3.2527
X5.1591Y-3.226
X5.2375Y-4.2586
X5.2899Y-1.8796
X5.2931Y-2.2703
X5.302Y-3.8425
X5.3917Y-2.5444
X5.4209Y-1.935
X5.4521Y-4.3026
X5.5131Y-1.7774
X5.5855Y-3.8093
X5.6309Y-2.507
X5.7362Y-2.4665
X5.7631Y-3.5021
X5.7953Y-2.7034
X5.7961Y-1.6646
X5.81Y-1.6174
X5.8247Y-2.8204
X6.1057Y-3.1592
X6.1679Y-2.7322
X6.2424Y-2.2605
X6.274Y-3.4125
X6.2808Y-2.0874
X6.3022Y-3.3711
X6.3271Y-2.0662
T2
X6.4715Y-1.4291
X6.4715Y-1.5079
X4.8986Y-2.9892
X4.9774Y-2.9892
X6.436Y-4.622
X6.436Y-4.7008
X3.0669Y-2.0728
X3.0669Y-2.1516
X4.2707Y-1.5541
X4.3494Y-1.5541
T3
X3.3661Y-2.9441
X3.3661Y-3.2441
X3.4661Y-2.9441
X3.4661Y-3.2441
X3.5661Y-2.9441
X3.5661Y-3.2441
X3.6661Y-2.9441
X3.6661Y-3.2441
X3.7661Y-2.9441
X3.7661Y-3.2441
X3.8661Y-2.9441
X3.8661Y-3.2441
X3.9661Y-2.9441
X3.9661Y-3.2441
X3.9844Y-4.6117
X4.0844Y-4.6117
X4.1844Y-4.6117
X4.2844Y-4.6117
X4.3844Y-4.6117
X4.4844Y-4.6117
X4.5844Y-4.6117
X4.6844Y-4.6117
X4.7844Y-4.6117
X3.6902Y-3.4341
X3.9902Y-3.4341
X5.3644Y-4.6098
X5.4644Y-4.6098
X5.5644Y-4.6098
X5.6644Y-4.6098
X5.7644Y-4.6098
X5.8644Y-4.6098
X5.9644Y-4.6098
X6.0644Y-4.6098
X6.1644Y-4.6098
X3.2378Y-3.5689
X3.5378Y-3.5689
X3.3661Y-1.6419
X3.3661Y-1.9419
X3.4661Y-1.6419
X3.4661Y-1.9419
X3.5661Y-1.6419
X3.5661Y-1.9419
X3.6661Y-1.6419
X3.6661Y-1.9419
X3.7661Y-1.6419
X3.7661Y-1.9419
X3.8661Y-1.6419
X3.8661Y-1.9419
X3.9661Y-1.6419
X3.9661Y-1.9419
X5.438Y-4.7925
X5.438Y-5.0925
X5.538Y-4.7925
X5.538Y-5.0925
X5.638Y-4.7925
X5.638Y-5.0925
X5.738Y-4.7925
X5.738Y-5.0925
X5.838Y-4.7925
X5.838Y-5.0925
X5.938Y-4.7925
X5.938Y-5.0925
X6.038Y-4.7925
X6.038Y-5.0925
X6.138Y-4.7925
X6.138Y-5.0925
X3.8821Y-1.4163
X4.1821Y-1.4163
X5.2372Y-2.6511
X5.2372Y-2.9511
X5.3372Y-2.6511
X5.3372Y-2.9511
X5.4372Y-2.6511
X5.4372Y-2.9511
X5.5372Y-2.6511
X5.5372Y-2.9511
X5.6372Y-2.6511
X5.6372Y-2.9511
X5.7372Y-2.6511
X5.7372Y-2.9511
X5.8372Y-2.6511
X5.8372Y-2.9511
X5.9372Y-2.6511
X5.9372Y-2.9511
X6.0372Y-2.6511
X6.0372Y-2.9511
X6.1372Y-2.6511
X6.1372Y-2.9511
X4.0581Y-4.7945
X4.0581Y-5.0945
X4.1581Y-4.7945
X4.1581Y-5.0945
X4.2581Y-4.7945
X4.2581Y-5.0945
X4.3581Y-4.7945
X4.3581Y-5.0945
X4.4581Y-4.7945
X4.4581Y-5.0945
X4.5581Y-4.7945
X4.5581Y-5.0945
X4.6581Y-4.7945
X4.6581Y-5.0945
X4.7581Y-4.7945
X4.7581Y-5.0945
X3.7215Y-3.6102
X3.7215Y-3.9102
X3.3661Y-2.2965
X3.3661Y-2.5965
X3.4661Y-2.2965
X3.4661Y-2.5965
X3.5661Y-2.2965
X3.5661Y-2.5965
X3.6661Y-2.2965
X3.6661Y-2.5965
X3.7661Y-2.2965
X3.7661Y-2.5965
X3.8661Y-2.2965
X3.8661Y-2.5965
X3.9661Y-2.2965
X3.9661Y-2.5965
X3.1289Y-4.7974
X3.1289Y-5.0974
X3.2289Y-4.7974
X3.2289Y-5.0974
X3.3289Y-4.7974
X3.3289Y-5.0974
X3.4289Y-4.7974
X3.4289Y-5.0974
X3.5289Y-4.7974
X3.5289Y-5.0974
X3.6289Y-4.7974
X3.6289Y-5.0974
X3.7289Y-4.7974
X3.7289Y-5.0974
X4.1638Y-1.787
X4.1638Y-1.887
X4.1638Y-1.987
X4.1638Y-2.087
X4.1638Y-2.187
X4.1638Y-2.287
X4.1638Y-2.387
X4.1638Y-2.487
X4.1638Y-2.587
X4.1638Y-2.687
X4.1638Y-2.787
X4.1638Y-2.887
X4.1638Y-2.987
X4.1638Y-3.087
X4.1638Y-3.187
X4.1638Y-3.287
X4.1638Y-3.387
X4.1638Y-3.487
X4.1638Y-3.587
X4.1638Y-3.687
X4.7638Y-1.787
X4.7638Y-1.887
X4.7638Y-1.987
X4.7638Y-2.087
X4.7638Y-2.187
X4.7638Y-2.287
X4.7638Y-2.387
X4.7638Y-2.487
X4.7638Y-2.587
X4.7638Y-2.687
X4.7638Y-2.787
X4.7638Y-2.887
X4.7638Y-2.987
X4.7638Y-3.087
X4.7638Y-3.187
X4.7638Y-3.287
X4.7638Y-3.387
X4.7638Y-3.487
X4.7638Y-3.587
X4.7638Y-3.687
X5.2362Y-2.0304
X5.2362Y-2.3304
X5.3362Y-2.0304
X5.3362Y-2.3304
X5.4362Y-2.0304
X5.4362Y-2.3304
X5.5362Y-2.0304
X5.5362Y-2.3304
X5.6362Y-2.0304
X5.6362Y-2.3304
X5.7362Y-2.0304
X5.7362Y-2.3304
X5.8362Y-2.0304
X5.8362Y-2.3304
X5.9362Y-2.0304
X5.9362Y-2.3304
X6.0362Y-2.0304
X6.0362Y-2.3304
X6.1362Y-2.0304
X6.1362Y-2.3304
X4.4321Y-1.4193
X4.7321Y-1.4193
X3.1073Y-1.4154
X3.4073Y-1.4154
X3.2378Y-3.8524
X3.5378Y-3.8524
X5.2352Y-3.3988
X5.2352Y-3.6988
X5.3352Y-3.3988
X5.3352Y-3.6988
X5.4352Y-3.3988
X5.4352Y-3.6988
X5.5352Y-3.3988
X5.5352Y-3.6988
X5.6352Y-3.3988
X5.6352Y-3.6988
X5.7352Y-3.3988
X5.7352Y-3.6988
X5.8352Y-3.3988
X5.8352Y-3.6988
X5.9352Y-3.3988
X5.9352Y-3.6988
X6.0352Y-3.3988
X6.0352Y-3.6988
X6.1352Y-3.3988
X6.1352Y-3.6988
X5.2382Y-3.2165
X5.3382Y-3.2165
X5.4382Y-3.2165
X5.5382Y-3.2165
X5.6382Y-3.2165
X5.7382Y-3.2165
X5.8382Y-3.2165
X5.9382Y-3.2165
X6.0382Y-3.2165
X6.1382Y-3.2165
X5.2343Y-3.9031
X5.3343Y-3.9031
X5.4343Y-3.9031
X5.5343Y-3.9031
X5.6343Y-3.9031
X5.7343Y-3.9031
X5.8343Y-3.9031
X5.9343Y-3.9031
X6.0343Y-3.9031
X6.1343Y-3.9031
X3.2378Y-3.4272
X3.5378Y-3.4272
X3.2378Y-3.9941
X3.5378Y-3.9941
X5.2244Y-4.1035
X5.2244Y-4.4035
X5.3244Y-4.1035
X5.3244Y-4.4035
X5.4244Y-4.1035
X5.4244Y-4.4035
X5.5244Y-4.1035
X5.5244Y-4.4035
X5.6244Y-4.1035
X5.6244Y-4.4035
X5.7244Y-4.1035
X5.7244Y-4.4035
X5.8244Y-4.1035
X5.8244Y-4.4035
X5.9244Y-4.1035
X5.9244Y-4.4035
X6.0244Y-4.1035
X6.0244Y-4.4035
X6.1244Y-4.1035
X6.1244Y-4.4035
X3.0768Y-4.324
X3.0768Y-4.624
X3.1768Y-4.324
X3.1768Y-4.624
X3.2768Y-4.324
X3.2768Y-4.624
X3.3768Y-4.324
X3.3768Y-4.624
X3.4768Y-4.324
X3.4768Y-4.624
X3.5768Y-4.324
X3.5768Y-4.624
X3.6768Y-4.324
X3.6768Y-4.624
X5.2461Y-1.4096
X5.2461Y-1.7096
X5.3461Y-1.4096
X5.3461Y-1.7096
X5.4461Y-1.4096
X5.4461Y-1.7096
X5.5461Y-1.4096
X5.5461Y-1.7096
X5.6461Y-1.4096
X5.6461Y-1.7096
X5.7461Y-1.4096
X5.7461Y-1.7096
X5.8461Y-1.4096
X5.8461Y-1.7096
X5.9461Y-1.4096
X5.9461Y-1.7096
X6.0461Y-1.4096
X6.0461Y-1.7096
X6.1461Y-1.4096
X6.1461Y-1.7096
X3.9803Y-4.0888
X3.9803Y-4.3888
X4.0803Y-4.0888
X4.0803Y-4.3888
X4.1803Y-4.0888
X4.1803Y-4.3888
X4.2803Y-4.0888
X4.2803Y-4.3888
X4.3803Y-4.0888
X4.3803Y-4.3888
X4.4803Y-4.0888
X4.4803Y-4.3888
X4.5803Y-4.0888
X4.5803Y-4.3888
X4.6803Y-4.0888
X4.6803Y-4.3888
X4.7803Y-4.0888
X4.7803Y-4.3888
X4.8803Y-4.0888
X4.8803Y-4.3888
X3.2378Y-3.7106
X3.5378Y-3.7106
T4
X2.8553Y-4.2906
X2.8553Y-4.3906
X3.9459Y-3.6173
X3.9459Y-3.9173
X2.8553Y-4.9709
X2.8553Y-5.0709
X2.8553Y-4.0638
X2.8553Y-4.1638
X2.8553Y-4.7441
X2.8553Y-4.8441
X2.8553Y-3.837
X2.8553Y-3.937
X2.8553Y-4.5173
X2.8553Y-4.6173
T5
X2.8012Y-1.4439
X2.8012Y-1.6211
T6
X5.1033Y-3.4016
X5.1033Y-3.5984
X3.2343Y-2.9429
X3.2343Y-3.1398
X2.7904Y-1.8321
X2.7904Y-1.9321
X3.1181Y-4.1693
X3.315Y-4.1693
X5.0955Y-4.1024
X5.0955Y-4.2992
X3.2343Y-2.2943
X3.2343Y-2.4911
X3.8573Y-4.0846
X3.8573Y-4.2815
X5.0984Y-2.0344
X5.0984Y-2.2313
X5.1083Y-2.6516
X5.1083Y-2.8484
X3.2205Y-1.6388
X3.2205Y-1.8356
X6.4154Y-1.6909
X6.4154Y-1.7909
X6.4154Y-1.8909
X6.4154Y-1.9909
X6.4154Y-2.0909
X6.4154Y-2.1909
X6.4154Y-2.2909
X6.4154Y-2.3909
X6.4154Y-2.4909
X6.4154Y-2.5909
X6.4154Y-2.6909
X6.4154Y-2.7909
X6.4154Y-2.8909
X6.4154Y-2.9909
X6.4154Y-3.0909
X6.4154Y-3.1909
X6.4154Y-3.2909
X6.4154Y-3.3909
X6.4154Y-3.4909
X6.4154Y-3.5909
X6.4154Y-3.6909
X6.4154Y-3.7909
X6.4154Y-3.8909
X6.4154Y-3.9909
X6.4154Y-4.0909
X6.5154Y-1.6909
X6.5154Y-1.7909
X6.5154Y-1.8909
X6.5154Y-1.9909
X6.5154Y-2.0909
X6.5154Y-2.1909
X6.5154Y-2.2909
X6.5154Y-2.3909
X6.5154Y-2.4909
X6.5154Y-2.5909
X6.5154Y-2.6909
X6.5154Y-2.7909
X6.5154Y-2.8909
X6.5154Y-2.9909
X6.5154Y-3.0909
X6.5154Y-3.1909
X6.5154Y-3.2909
X6.5154Y-3.3909
X6.5154Y-3.4909
X6.5154Y-3.5909
X6.5154Y-3.6909
X6.5154Y-3.7909
X6.5154Y-3.8909
X6.5154Y-3.9909
X6.5154Y-4.0909
X3.8642Y-4.8967
X3.8642Y-5.0935
X5.1152Y-1.4094
X5.1152Y-1.6063
X2.9039Y-2.8112
X2.9039Y-2.9112
X2.9039Y-3.0112
X2.9039Y-3.1112
X3.0039Y-2.8112
X3.0039Y-2.9112
X3.0039Y-3.0112
X3.0039Y-3.1112
X2.9193Y-2.3148
X2.9193Y-2.4148
X2.9193Y-2.5148
X2.9114Y-3.4063
X2.9114Y-3.5063
X2.9114Y-3.6063
X4.5581Y-3.8533
X4.7549Y-3.8533
X3.5423Y-1.4163
X3.7392Y-1.4163
T7
X2.8992Y-1.3943
X2.8992Y-1.6703
T0
M30
