G04 #@! TF.GenerationSoftware,KiCad,Pcbnew,(5.1.5)-3*
G04 #@! TF.CreationDate,2022-06-16T07:38:39-05:00*
G04 #@! TF.ProjectId,Z8065C02,5a383036-3543-4303-922e-6b696361645f,rev?*
G04 #@! TF.SameCoordinates,Original*
G04 #@! TF.FileFunction,Copper,L2,Bot*
G04 #@! TF.FilePolarity,Positive*
%FSLAX46Y46*%
G04 Gerber Fmt 4.6, Leading zero omitted, Abs format (unit mm)*
G04 Created by KiCad (PCBNEW (5.1.5)-3) date 2022-06-16 07:38:39*
%MOMM*%
%LPD*%
G04 APERTURE LIST*
%ADD10O,1.600000X1.600000*%
%ADD11C,1.600000*%
%ADD12O,2.400000X1.600000*%
%ADD13R,2.400000X1.600000*%
%ADD14C,1.200000*%
%ADD15R,1.200000X1.200000*%
%ADD16R,1.600000X1.600000*%
%ADD17O,1.700000X1.700000*%
%ADD18R,1.700000X1.700000*%
%ADD19C,2.000000*%
%ADD20O,1.600000X2.400000*%
%ADD21R,1.600000X2.400000*%
%ADD22C,1.800000*%
%ADD23R,1.800000X1.800000*%
%ADD24O,1.800000X1.800000*%
%ADD25C,2.100000*%
%ADD26C,1.750000*%
%ADD27C,0.800000*%
%ADD28C,0.750000*%
%ADD29C,0.250000*%
%ADD30C,0.800000*%
G04 APERTURE END LIST*
D10*
X95120000Y-70900000D03*
D11*
X87500000Y-70900000D03*
D12*
X105760000Y-93650000D03*
X121000000Y-45390000D03*
X105760000Y-91110000D03*
X121000000Y-47930000D03*
X105760000Y-88570000D03*
X121000000Y-50470000D03*
X105760000Y-86030000D03*
X121000000Y-53010000D03*
X105760000Y-83490000D03*
X121000000Y-55550000D03*
X105760000Y-80950000D03*
X121000000Y-58090000D03*
X105760000Y-78410000D03*
X121000000Y-60630000D03*
X105760000Y-75870000D03*
X121000000Y-63170000D03*
X105760000Y-73330000D03*
X121000000Y-65710000D03*
X105760000Y-70790000D03*
X121000000Y-68250000D03*
X105760000Y-68250000D03*
X121000000Y-70790000D03*
X105760000Y-65710000D03*
X121000000Y-73330000D03*
X105760000Y-63170000D03*
X121000000Y-75870000D03*
X105760000Y-60630000D03*
X121000000Y-78410000D03*
X105760000Y-58090000D03*
X121000000Y-80950000D03*
X105760000Y-55550000D03*
X121000000Y-83490000D03*
X105760000Y-53010000D03*
X121000000Y-86030000D03*
X105760000Y-50470000D03*
X121000000Y-88570000D03*
X105760000Y-47930000D03*
X121000000Y-91110000D03*
X105760000Y-45390000D03*
D13*
X121000000Y-93650000D03*
D14*
X108475000Y-39475000D03*
D15*
X110475000Y-39475000D03*
D14*
X126425000Y-75925000D03*
D15*
X124425000Y-75925000D03*
D10*
X155910000Y-81700000D03*
X153370000Y-81700000D03*
X150830000Y-81700000D03*
X148290000Y-81700000D03*
X145750000Y-81700000D03*
X143210000Y-81700000D03*
X140670000Y-81700000D03*
X138130000Y-81700000D03*
X135590000Y-81700000D03*
D16*
X133050000Y-81700000D03*
D10*
X120195000Y-36050000D03*
D11*
X112575000Y-36050000D03*
D10*
X98605000Y-35975000D03*
D11*
X106225000Y-35975000D03*
D17*
X73760000Y-71405000D03*
X76300000Y-71405000D03*
X73760000Y-73945000D03*
X76300000Y-73945000D03*
X73760000Y-76485000D03*
X76300000Y-76485000D03*
X73760000Y-79025000D03*
D18*
X76300000Y-79025000D03*
D17*
X165490000Y-103910000D03*
X162950000Y-103910000D03*
X165490000Y-101370000D03*
X162950000Y-101370000D03*
X165490000Y-98830000D03*
X162950000Y-98830000D03*
X165490000Y-96290000D03*
X162950000Y-96290000D03*
X165490000Y-93750000D03*
X162950000Y-93750000D03*
X165490000Y-91210000D03*
X162950000Y-91210000D03*
X165490000Y-88670000D03*
X162950000Y-88670000D03*
X165490000Y-86130000D03*
X162950000Y-86130000D03*
X165490000Y-83590000D03*
X162950000Y-83590000D03*
X165490000Y-81050000D03*
X162950000Y-81050000D03*
X165490000Y-78510000D03*
X162950000Y-78510000D03*
X165490000Y-75970000D03*
X162950000Y-75970000D03*
X165490000Y-73430000D03*
X162950000Y-73430000D03*
X165490000Y-70890000D03*
X162950000Y-70890000D03*
X165490000Y-68350000D03*
X162950000Y-68350000D03*
X165490000Y-65810000D03*
X162950000Y-65810000D03*
X165490000Y-63270000D03*
X162950000Y-63270000D03*
X165490000Y-60730000D03*
X162950000Y-60730000D03*
X165490000Y-58190000D03*
X162950000Y-58190000D03*
X165490000Y-55650000D03*
X162950000Y-55650000D03*
X165490000Y-53110000D03*
X162950000Y-53110000D03*
X165490000Y-50570000D03*
X162950000Y-50570000D03*
X165490000Y-48030000D03*
X162950000Y-48030000D03*
X165490000Y-45490000D03*
X162950000Y-45490000D03*
X165490000Y-42950000D03*
D18*
X162950000Y-42950000D03*
D19*
X98150000Y-129375000D03*
X98150000Y-124375000D03*
X84200000Y-105900000D03*
X79200000Y-105900000D03*
D20*
X79475000Y-121855000D03*
X94715000Y-129475000D03*
X82015000Y-121855000D03*
X92175000Y-129475000D03*
X84555000Y-121855000D03*
X89635000Y-129475000D03*
X87095000Y-121855000D03*
X87095000Y-129475000D03*
X89635000Y-121855000D03*
X84555000Y-129475000D03*
X92175000Y-121855000D03*
X82015000Y-129475000D03*
X94715000Y-121855000D03*
D21*
X79475000Y-129475000D03*
D17*
X73950000Y-86520000D03*
X73950000Y-89060000D03*
D18*
X73950000Y-91600000D03*
D19*
X89975000Y-35975000D03*
X94975000Y-35975000D03*
D10*
X93730000Y-87225000D03*
D11*
X101350000Y-87225000D03*
D22*
X72525000Y-97460000D03*
D23*
X72525000Y-100000000D03*
D10*
X89860000Y-87050000D03*
D11*
X82240000Y-87050000D03*
D10*
X82240000Y-97850000D03*
D11*
X89860000Y-97850000D03*
D10*
X89860000Y-90650000D03*
D11*
X82240000Y-90650000D03*
D10*
X89860000Y-94250000D03*
D11*
X82240000Y-94250000D03*
D22*
X72525000Y-120500000D03*
D23*
X72525000Y-123040000D03*
D22*
X72525000Y-103220000D03*
D23*
X72525000Y-105760000D03*
D22*
X72525000Y-114740000D03*
D23*
X72525000Y-117280000D03*
D22*
X72525000Y-108980000D03*
D23*
X72525000Y-111520000D03*
D24*
X100225000Y-91880000D03*
D23*
X100225000Y-99500000D03*
D19*
X97975000Y-108750000D03*
X97975000Y-103750000D03*
X82150000Y-63275000D03*
X82150000Y-58275000D03*
X82150000Y-79750000D03*
X82150000Y-74750000D03*
X120775000Y-97875000D03*
X115775000Y-97875000D03*
X129750000Y-72350000D03*
X129750000Y-67350000D03*
X129500000Y-56675000D03*
X129500000Y-51675000D03*
X81800000Y-46625000D03*
X81800000Y-41625000D03*
X129925000Y-40800000D03*
X129925000Y-35800000D03*
X129425000Y-109200000D03*
X129425000Y-104200000D03*
X129625000Y-91400000D03*
X129625000Y-86400000D03*
D10*
X103075000Y-121780000D03*
X120855000Y-129400000D03*
X105615000Y-121780000D03*
X118315000Y-129400000D03*
X108155000Y-121780000D03*
X115775000Y-129400000D03*
X110695000Y-121780000D03*
X113235000Y-129400000D03*
X113235000Y-121780000D03*
X110695000Y-129400000D03*
X115775000Y-121780000D03*
X108155000Y-129400000D03*
X118315000Y-121780000D03*
X105615000Y-129400000D03*
X120855000Y-121780000D03*
D16*
X103075000Y-129400000D03*
D10*
X138125000Y-121730000D03*
X155905000Y-129350000D03*
X140665000Y-121730000D03*
X153365000Y-129350000D03*
X143205000Y-121730000D03*
X150825000Y-129350000D03*
X145745000Y-121730000D03*
X148285000Y-129350000D03*
X148285000Y-121730000D03*
X145745000Y-129350000D03*
X150825000Y-121730000D03*
X143205000Y-129350000D03*
X153365000Y-121730000D03*
X140665000Y-129350000D03*
X155905000Y-121730000D03*
D16*
X138125000Y-129350000D03*
D20*
X85500000Y-41705000D03*
X100740000Y-49325000D03*
X88040000Y-41705000D03*
X98200000Y-49325000D03*
X90580000Y-41705000D03*
X95660000Y-49325000D03*
X93120000Y-41705000D03*
X93120000Y-49325000D03*
X95660000Y-41705000D03*
X90580000Y-49325000D03*
X98200000Y-41705000D03*
X88040000Y-49325000D03*
X100740000Y-41705000D03*
D21*
X85500000Y-49325000D03*
D20*
X85500000Y-74780000D03*
X100740000Y-82400000D03*
X88040000Y-74780000D03*
X98200000Y-82400000D03*
X90580000Y-74780000D03*
X95660000Y-82400000D03*
X93120000Y-74780000D03*
X93120000Y-82400000D03*
X95660000Y-74780000D03*
X90580000Y-82400000D03*
X98200000Y-74780000D03*
X88040000Y-82400000D03*
X100740000Y-74780000D03*
D21*
X85500000Y-82400000D03*
D20*
X133250000Y-35805000D03*
X156110000Y-43425000D03*
X135790000Y-35805000D03*
X153570000Y-43425000D03*
X138330000Y-35805000D03*
X151030000Y-43425000D03*
X140870000Y-35805000D03*
X148490000Y-43425000D03*
X143410000Y-35805000D03*
X145950000Y-43425000D03*
X145950000Y-35805000D03*
X143410000Y-43425000D03*
X148490000Y-35805000D03*
X140870000Y-43425000D03*
X151030000Y-35805000D03*
X138330000Y-43425000D03*
X153570000Y-35805000D03*
X135790000Y-43425000D03*
X156110000Y-35805000D03*
D21*
X133250000Y-43425000D03*
D20*
X101100000Y-103855000D03*
X123960000Y-111475000D03*
X103640000Y-103855000D03*
X121420000Y-111475000D03*
X106180000Y-103855000D03*
X118880000Y-111475000D03*
X108720000Y-103855000D03*
X116340000Y-111475000D03*
X111260000Y-103855000D03*
X113800000Y-111475000D03*
X113800000Y-103855000D03*
X111260000Y-111475000D03*
X116340000Y-103855000D03*
X108720000Y-111475000D03*
X118880000Y-103855000D03*
X106180000Y-111475000D03*
X121420000Y-103855000D03*
X103640000Y-111475000D03*
X123960000Y-103855000D03*
D21*
X101100000Y-111475000D03*
D20*
X133000000Y-51571700D03*
X155860000Y-59191700D03*
X135540000Y-51571700D03*
X153320000Y-59191700D03*
X138080000Y-51571700D03*
X150780000Y-59191700D03*
X140620000Y-51571700D03*
X148240000Y-59191700D03*
X143160000Y-51571700D03*
X145700000Y-59191700D03*
X145700000Y-51571700D03*
X143160000Y-59191700D03*
X148240000Y-51571700D03*
X140620000Y-59191700D03*
X150780000Y-51571700D03*
X138080000Y-59191700D03*
X153320000Y-51571700D03*
X135540000Y-59191700D03*
X155860000Y-51571700D03*
D21*
X133000000Y-59191700D03*
D20*
X132975000Y-86330000D03*
X155835000Y-93950000D03*
X135515000Y-86330000D03*
X153295000Y-93950000D03*
X138055000Y-86330000D03*
X150755000Y-93950000D03*
X140595000Y-86330000D03*
X148215000Y-93950000D03*
X143135000Y-86330000D03*
X145675000Y-93950000D03*
X145675000Y-86330000D03*
X143135000Y-93950000D03*
X148215000Y-86330000D03*
X140595000Y-93950000D03*
X150755000Y-86330000D03*
X138055000Y-93950000D03*
X153295000Y-86330000D03*
X135515000Y-93950000D03*
X155835000Y-86330000D03*
D21*
X132975000Y-93950000D03*
D20*
X132700000Y-104230000D03*
X155560000Y-111850000D03*
X135240000Y-104230000D03*
X153020000Y-111850000D03*
X137780000Y-104230000D03*
X150480000Y-111850000D03*
X140320000Y-104230000D03*
X147940000Y-111850000D03*
X142860000Y-104230000D03*
X145400000Y-111850000D03*
X145400000Y-104230000D03*
X142860000Y-111850000D03*
X147940000Y-104230000D03*
X140320000Y-111850000D03*
X150480000Y-104230000D03*
X137780000Y-111850000D03*
X153020000Y-104230000D03*
X135240000Y-111850000D03*
X155560000Y-104230000D03*
D21*
X132700000Y-111850000D03*
D20*
X78150000Y-109830000D03*
X93390000Y-117450000D03*
X80690000Y-109830000D03*
X90850000Y-117450000D03*
X83230000Y-109830000D03*
X88310000Y-117450000D03*
X85770000Y-109830000D03*
X85770000Y-117450000D03*
X88310000Y-109830000D03*
X83230000Y-117450000D03*
X90850000Y-109830000D03*
X80690000Y-117450000D03*
X93390000Y-109830000D03*
D21*
X78150000Y-117450000D03*
D20*
X85500000Y-58330000D03*
X100740000Y-65950000D03*
X88040000Y-58330000D03*
X98200000Y-65950000D03*
X90580000Y-58330000D03*
X95660000Y-65950000D03*
X93120000Y-58330000D03*
X93120000Y-65950000D03*
X95660000Y-58330000D03*
X90580000Y-65950000D03*
X98200000Y-58330000D03*
X88040000Y-65950000D03*
X100740000Y-58330000D03*
D21*
X85500000Y-65950000D03*
D20*
X133025000Y-67338300D03*
X155885000Y-74958300D03*
X135565000Y-67338300D03*
X153345000Y-74958300D03*
X138105000Y-67338300D03*
X150805000Y-74958300D03*
X140645000Y-67338300D03*
X148265000Y-74958300D03*
X143185000Y-67338300D03*
X145725000Y-74958300D03*
X145725000Y-67338300D03*
X143185000Y-74958300D03*
X148265000Y-67338300D03*
X140645000Y-74958300D03*
X150805000Y-67338300D03*
X138105000Y-74958300D03*
X153345000Y-67338300D03*
X135565000Y-74958300D03*
X155885000Y-67338300D03*
D21*
X133025000Y-74958300D03*
D25*
X73640000Y-42425000D03*
D26*
X71150000Y-41175000D03*
X71150000Y-36675000D03*
D25*
X73640000Y-35415000D03*
D10*
X101205000Y-117138000D03*
X103745000Y-117138000D03*
X106285000Y-117138000D03*
X108825000Y-117138000D03*
X111365000Y-117138000D03*
X113905000Y-117138000D03*
X116445000Y-117138000D03*
X118985000Y-117138000D03*
D16*
X121525000Y-117138000D03*
D10*
X136255000Y-117088000D03*
X138795000Y-117088000D03*
X141335000Y-117088000D03*
X143875000Y-117088000D03*
X146415000Y-117088000D03*
X148955000Y-117088000D03*
X151495000Y-117088000D03*
X154035000Y-117088000D03*
D16*
X156575000Y-117088000D03*
D10*
X155810000Y-99137500D03*
X153270000Y-99137500D03*
X150730000Y-99137500D03*
X148190000Y-99137500D03*
X145650000Y-99137500D03*
X143110000Y-99137500D03*
X140570000Y-99137500D03*
X138030000Y-99137500D03*
X135490000Y-99137500D03*
D16*
X132950000Y-99137500D03*
D10*
X94525000Y-99320000D03*
D11*
X94525000Y-91700000D03*
D10*
X82240000Y-101450000D03*
D11*
X89860000Y-101450000D03*
D10*
X86545000Y-35950000D03*
D11*
X78925000Y-35950000D03*
D17*
X70875000Y-46535000D03*
D18*
X70875000Y-49075000D03*
D17*
X74150000Y-58795000D03*
X74150000Y-61335000D03*
D18*
X74150000Y-63875000D03*
D22*
X72525000Y-126260000D03*
D23*
X72525000Y-128800000D03*
D14*
X164375000Y-36300000D03*
D15*
X164375000Y-38300000D03*
D14*
X163475000Y-119400000D03*
D15*
X163475000Y-117400000D03*
D14*
X77900000Y-54650000D03*
D15*
X77900000Y-52650000D03*
D27*
X158557100Y-57416400D03*
X84141400Y-86046100D03*
X147947800Y-71639100D03*
X123683500Y-64039100D03*
X103767300Y-97255500D03*
X147199600Y-68667200D03*
X134672000Y-97599000D03*
X101447100Y-96802200D03*
X156664400Y-69399000D03*
X146382700Y-88953300D03*
X160074700Y-85625300D03*
X159360700Y-86677600D03*
X159532400Y-53019000D03*
X108209600Y-64073500D03*
X109891000Y-65724200D03*
X110355700Y-67908200D03*
X109914400Y-63089700D03*
X155085800Y-80243600D03*
X113607600Y-70868800D03*
X108463700Y-62764100D03*
X160708100Y-52482600D03*
X134363900Y-47740800D03*
X110806000Y-71101600D03*
X143024900Y-63676600D03*
X141872500Y-96755000D03*
X108204400Y-87160200D03*
X118737200Y-78653700D03*
X124439200Y-63300200D03*
X109701600Y-67023200D03*
X110663900Y-101968900D03*
X138482500Y-109286500D03*
X107706600Y-48642800D03*
X101137300Y-51346500D03*
X140031700Y-45146800D03*
X108378300Y-61640400D03*
X112812600Y-96534300D03*
X147220000Y-42280700D03*
X112268600Y-67065300D03*
X134445700Y-57666400D03*
X120054600Y-105398200D03*
X133031900Y-108169400D03*
X147575100Y-41083200D03*
X137692000Y-49149300D03*
X126705700Y-48508900D03*
X145700000Y-62649200D03*
X136948700Y-64627300D03*
X126046000Y-62669700D03*
X86625400Y-76082300D03*
X102129600Y-92943200D03*
X99807100Y-95589300D03*
X98356400Y-95058100D03*
X103282700Y-55108500D03*
X102940700Y-91807000D03*
X109136100Y-94048800D03*
X125834300Y-82701900D03*
X126942100Y-82619800D03*
X126770100Y-83954300D03*
X109897100Y-92142800D03*
X109661700Y-90619500D03*
X119141600Y-73298700D03*
X131040800Y-81940000D03*
X115815700Y-76300000D03*
X118445300Y-84097100D03*
X116302900Y-77686300D03*
X124115000Y-84521700D03*
X104438400Y-101454800D03*
D28*
X84200000Y-105900000D02*
X85121400Y-104978600D01*
X85121400Y-104978600D02*
X85121400Y-84862800D01*
X85121400Y-84862800D02*
X82150000Y-81891400D01*
X82150000Y-81891400D02*
X82150000Y-79750000D01*
X96550100Y-127699700D02*
X96550100Y-119017900D01*
X96550100Y-119017900D02*
X97975000Y-117593000D01*
X97975000Y-117593000D02*
X97975000Y-108750000D01*
X162950000Y-70890000D02*
X162950000Y-70763400D01*
X162950000Y-70763400D02*
X155860000Y-63673400D01*
X155860000Y-63673400D02*
X155860000Y-60967000D01*
X129750000Y-72350000D02*
X128174600Y-70774600D01*
X128174600Y-70774600D02*
X128174600Y-58000400D01*
X128174600Y-58000400D02*
X129500000Y-56675000D01*
X96550100Y-127699700D02*
X96550100Y-127775100D01*
X96550100Y-127775100D02*
X98150000Y-129375000D01*
X96550100Y-127699700D02*
X94715000Y-127699700D01*
X94715000Y-129475000D02*
X94715000Y-127699700D01*
X156110000Y-45200300D02*
X158557100Y-47647400D01*
X158557100Y-47647400D02*
X158557100Y-57416400D01*
X155860000Y-59191700D02*
X155860000Y-60967000D01*
X156110000Y-43425000D02*
X156110000Y-45200300D01*
X129625000Y-91400000D02*
X131000400Y-92775400D01*
X131000400Y-92775400D02*
X131000400Y-107624600D01*
X131000400Y-107624600D02*
X129425000Y-109200000D01*
X82150000Y-63275000D02*
X83726100Y-64851100D01*
X83726100Y-64851100D02*
X83726100Y-78173900D01*
X83726100Y-78173900D02*
X82150000Y-79750000D01*
X129515000Y-119364700D02*
X129425000Y-119274700D01*
X129425000Y-119274700D02*
X129425000Y-109200000D01*
X156110000Y-41649700D02*
X161459700Y-36300000D01*
X161459700Y-36300000D02*
X164375000Y-36300000D01*
X156110000Y-43425000D02*
X156110000Y-41649700D01*
X162950000Y-96290000D02*
X161524700Y-96290000D01*
X155835000Y-93950000D02*
X155835000Y-95725300D01*
X155835000Y-95725300D02*
X160960000Y-95725300D01*
X160960000Y-95725300D02*
X161524700Y-96290000D01*
X90580000Y-49325000D02*
X90580000Y-47549700D01*
X95660000Y-41705000D02*
X95660000Y-43480300D01*
X90580000Y-47549700D02*
X91590600Y-47549700D01*
X91590600Y-47549700D02*
X95660000Y-43480300D01*
X143205000Y-129350000D02*
X145745000Y-129350000D01*
X127924600Y-42800400D02*
X127924600Y-55099600D01*
X127924600Y-55099600D02*
X129500000Y-56675000D01*
X129925000Y-40800000D02*
X127924600Y-42800400D01*
X127924600Y-42800400D02*
X111720800Y-42800400D01*
X111720800Y-42800400D02*
X108475000Y-39554600D01*
X108475000Y-39554600D02*
X108475000Y-39475000D01*
X140665000Y-129350000D02*
X139289700Y-129350000D01*
X138125000Y-128662300D02*
X138602000Y-128662300D01*
X138602000Y-128662300D02*
X139289700Y-129350000D01*
X138125000Y-128662300D02*
X138125000Y-127974700D01*
X138125000Y-129350000D02*
X138125000Y-128662300D01*
X126425000Y-75925000D02*
X129750000Y-72600000D01*
X129750000Y-72600000D02*
X129750000Y-72350000D01*
X145745000Y-129350000D02*
X148285000Y-129350000D01*
X138125000Y-127974700D02*
X129515000Y-119364700D01*
X120855000Y-128024700D02*
X129515000Y-119364700D01*
X120855000Y-129400000D02*
X120855000Y-128024700D01*
X120775000Y-97875000D02*
X125366400Y-102466400D01*
X125366400Y-102466400D02*
X125366400Y-108293300D01*
X125366400Y-108293300D02*
X123960000Y-109699700D01*
X123960000Y-111475000D02*
X123960000Y-109699700D01*
X160807200Y-119400000D02*
X163475000Y-119400000D01*
X155560000Y-113625300D02*
X160807200Y-118872500D01*
X160807200Y-118872500D02*
X160807200Y-119400000D01*
X155905000Y-127974700D02*
X160807200Y-123072500D01*
X160807200Y-123072500D02*
X160807200Y-119400000D01*
X155905000Y-129350000D02*
X155905000Y-127974700D01*
X155560000Y-111850000D02*
X155560000Y-113625300D01*
D29*
X91332000Y-59587700D02*
X91705300Y-59214400D01*
X91705300Y-59214400D02*
X91705300Y-57463800D01*
X91705300Y-57463800D02*
X91046200Y-56804700D01*
X91046200Y-56804700D02*
X90113800Y-56804700D01*
X90113800Y-56804700D02*
X89284800Y-57633700D01*
X89284800Y-57633700D02*
X89284800Y-59081300D01*
X89284800Y-59081300D02*
X88508500Y-59857600D01*
X88508500Y-59857600D02*
X81835900Y-59857600D01*
X81835900Y-59857600D02*
X78825300Y-56847000D01*
X78825300Y-56847000D02*
X78825300Y-54240300D01*
X78825300Y-54240300D02*
X78160300Y-53575300D01*
X78160300Y-53575300D02*
X77900000Y-53575300D01*
X85500000Y-65187300D02*
X85732400Y-65187300D01*
X85732400Y-65187300D02*
X91332000Y-59587700D01*
X77900000Y-52650000D02*
X77900000Y-53575300D01*
X85500000Y-65950000D02*
X85500000Y-65187300D01*
X99325010Y-66526014D02*
X99325010Y-65084006D01*
X97068854Y-62827850D02*
X94572150Y-62827850D01*
X101865010Y-69066014D02*
X99325010Y-66526014D01*
X101865010Y-76743986D02*
X101865010Y-69066014D01*
X99325010Y-65084006D02*
X97068854Y-62827850D01*
X96930000Y-81678996D02*
X101865010Y-76743986D01*
X100225000Y-90654700D02*
X96930000Y-87359700D01*
X100225000Y-91880000D02*
X100225000Y-90654700D01*
X96930000Y-87359700D02*
X96930000Y-81678996D01*
X94572150Y-62827850D02*
X91332000Y-59587700D01*
D30*
X94975000Y-35975000D02*
X93366100Y-37583900D01*
X93366100Y-37583900D02*
X85841100Y-37583900D01*
X85841100Y-37583900D02*
X81800000Y-41625000D01*
X98605000Y-35975000D02*
X94975000Y-35975000D01*
X121525000Y-117138000D02*
X121525000Y-115737700D01*
X121525000Y-115737700D02*
X122137600Y-115737700D01*
X122137600Y-115737700D02*
X127319200Y-110556100D01*
X127319200Y-110556100D02*
X127319200Y-106305800D01*
X127319200Y-106305800D02*
X129425000Y-104200000D01*
X121494500Y-96269500D02*
X117380500Y-96269500D01*
X117380500Y-96269500D02*
X115775000Y-97875000D01*
X129425000Y-104200000D02*
X121494500Y-96269500D01*
X129625000Y-86400000D02*
X129625000Y-88139000D01*
X129625000Y-88139000D02*
X121494500Y-96269500D01*
X129625000Y-86400000D02*
X129625000Y-82325300D01*
X129625000Y-82325300D02*
X124425000Y-77125300D01*
X124425000Y-75925000D02*
X124425000Y-77125300D01*
X82240000Y-94250000D02*
X83641900Y-95651900D01*
X83641900Y-95651900D02*
X83641900Y-98459600D01*
X83641900Y-98459600D02*
X82451500Y-99650000D01*
X82451500Y-99650000D02*
X82029200Y-99650000D01*
X82029200Y-99650000D02*
X79200000Y-102479200D01*
X79200000Y-102479200D02*
X79200000Y-105900000D01*
X82240000Y-90650000D02*
X82240000Y-87050000D01*
X101100000Y-103855000D02*
X101100000Y-105655300D01*
X101100000Y-105655300D02*
X99699600Y-107055700D01*
X99699600Y-107055700D02*
X99699600Y-122825400D01*
X99699600Y-122825400D02*
X98150000Y-124375000D01*
X132700000Y-106030300D02*
X132031600Y-106698700D01*
X132031600Y-106698700D02*
X132031600Y-108645300D01*
X132031600Y-108645300D02*
X131298200Y-109378700D01*
X131298200Y-109378700D02*
X131298200Y-116961200D01*
X131298200Y-116961200D02*
X137925400Y-123588400D01*
X137925400Y-123588400D02*
X156064900Y-123588400D01*
X156064900Y-123588400D02*
X157331900Y-122321400D01*
X157331900Y-122321400D02*
X157331900Y-119245200D01*
X157331900Y-119245200D02*
X156575000Y-118488300D01*
X132700000Y-104230000D02*
X132700000Y-106030300D01*
X156575000Y-117088000D02*
X156575000Y-118488300D01*
X131121100Y-53372000D02*
X131121100Y-65978900D01*
X131121100Y-65978900D02*
X129750000Y-67350000D01*
X120195000Y-36050000D02*
X118794700Y-36050000D01*
X118794700Y-36050000D02*
X115369700Y-39475000D01*
X115369700Y-39475000D02*
X110475000Y-39475000D01*
X95660000Y-49325000D02*
X95660000Y-51125300D01*
X95660000Y-51125300D02*
X91804500Y-51125300D01*
X91804500Y-51125300D02*
X85500000Y-57429800D01*
X85500000Y-57429800D02*
X82995200Y-57429800D01*
X82995200Y-57429800D02*
X82150000Y-58275000D01*
X85500000Y-58330000D02*
X85500000Y-57429800D01*
X131121100Y-53372000D02*
X131121100Y-53296100D01*
X131121100Y-53296100D02*
X129500000Y-51675000D01*
X133000000Y-53372000D02*
X131121100Y-53372000D01*
X133000000Y-51571700D02*
X133000000Y-53372000D01*
X133250000Y-35805000D02*
X133250000Y-37605300D01*
X133000000Y-51571700D02*
X133000000Y-49771400D01*
X133000000Y-49771400D02*
X131849600Y-48621000D01*
X131849600Y-48621000D02*
X131849600Y-39005700D01*
X131849600Y-39005700D02*
X133250000Y-37605300D01*
X89860000Y-101450000D02*
X89860000Y-97850000D01*
X85500000Y-74780000D02*
X85500000Y-76580300D01*
X85500000Y-82400000D02*
X85500000Y-80599700D01*
X85500000Y-80599700D02*
X85500000Y-76580300D01*
X121000000Y-75870000D02*
X122800300Y-75870000D01*
X124425000Y-75925000D02*
X122855300Y-75925000D01*
X122855300Y-75925000D02*
X122800300Y-75870000D01*
X78150000Y-108029700D02*
X78150000Y-106950000D01*
X78150000Y-106950000D02*
X79200000Y-105900000D01*
X78150000Y-109830000D02*
X78150000Y-108029700D01*
X132975000Y-86330000D02*
X132975000Y-84529700D01*
X132975000Y-84529700D02*
X133050000Y-84454700D01*
X133050000Y-84454700D02*
X133050000Y-81700000D01*
D29*
X72525000Y-126260000D02*
X79663300Y-119121700D01*
X79663300Y-119121700D02*
X86090800Y-119121700D01*
X86090800Y-119121700D02*
X86895400Y-118317100D01*
X86895400Y-118317100D02*
X86895400Y-113708400D01*
X86895400Y-113708400D02*
X89580000Y-111023800D01*
X89580000Y-111023800D02*
X89580000Y-108226200D01*
X89580000Y-108226200D02*
X92949400Y-104856800D01*
X92949400Y-104856800D02*
X92949400Y-102020900D01*
X92949400Y-102020900D02*
X94525000Y-100445300D01*
X94525000Y-99320000D02*
X94525000Y-100445300D01*
X74150000Y-59970300D02*
X73782700Y-59970300D01*
X73782700Y-59970300D02*
X69900900Y-63852100D01*
X69900900Y-63852100D02*
X69900900Y-128454500D01*
X69900900Y-128454500D02*
X72930900Y-131484500D01*
X72930900Y-131484500D02*
X155417000Y-131484500D01*
X155417000Y-131484500D02*
X164400400Y-122501100D01*
X164400400Y-122501100D02*
X164400400Y-119003400D01*
X164400400Y-119003400D02*
X163722400Y-118325400D01*
X163722400Y-118325400D02*
X162696200Y-118325400D01*
X162696200Y-118325400D02*
X158011700Y-113640900D01*
X158011700Y-113640900D02*
X158011700Y-110679800D01*
X158011700Y-110679800D02*
X154395400Y-107063500D01*
X154395400Y-107063500D02*
X154395400Y-101677400D01*
X154395400Y-101677400D02*
X155810000Y-100262800D01*
X155810000Y-99137500D02*
X155810000Y-100262800D01*
X74150000Y-58795000D02*
X74150000Y-59970300D01*
X74150000Y-62510300D02*
X73342000Y-62510300D01*
X73342000Y-62510300D02*
X70368700Y-65483600D01*
X70368700Y-65483600D02*
X70368700Y-125878700D01*
X70368700Y-125878700D02*
X71989200Y-127499200D01*
X71989200Y-127499200D02*
X88467400Y-127499200D01*
X90850000Y-109830000D02*
X90850000Y-111355300D01*
X88467400Y-127499200D02*
X89184500Y-127499200D01*
X89184500Y-127499200D02*
X89635000Y-127949700D01*
X88467400Y-127499200D02*
X88467400Y-120363400D01*
X88467400Y-120363400D02*
X89435400Y-119395400D01*
X89435400Y-119395400D02*
X89435400Y-112769900D01*
X89435400Y-112769900D02*
X90850000Y-111355300D01*
X89635000Y-129475000D02*
X89635000Y-127949700D01*
X74150000Y-61335000D02*
X74150000Y-62510300D01*
X135790000Y-35898400D02*
X134146900Y-34255300D01*
X134146900Y-34255300D02*
X102388500Y-34255300D01*
X102388500Y-34255300D02*
X97791100Y-38852700D01*
X97791100Y-38852700D02*
X86116600Y-38852700D01*
X86116600Y-38852700D02*
X83200000Y-41769300D01*
X83200000Y-41769300D02*
X83200000Y-43071100D01*
X83200000Y-43071100D02*
X75372500Y-50898600D01*
X75372500Y-50898600D02*
X75372500Y-60112500D01*
X75372500Y-60112500D02*
X74150000Y-61335000D01*
X133000000Y-60717000D02*
X133000000Y-63248000D01*
X133000000Y-63248000D02*
X135565000Y-65813000D01*
X133025000Y-74958300D02*
X133025000Y-73433000D01*
X133025000Y-73433000D02*
X135565000Y-70893000D01*
X135565000Y-70893000D02*
X135565000Y-68863600D01*
X135790000Y-35898400D02*
X135790000Y-37330300D01*
X135790000Y-35805000D02*
X135790000Y-35898400D01*
X133025000Y-74958300D02*
X133025000Y-76483600D01*
X133025000Y-76483600D02*
X134175400Y-77634000D01*
X134175400Y-77634000D02*
X134175400Y-83465100D01*
X134175400Y-83465100D02*
X135515000Y-84804700D01*
X135515000Y-86330000D02*
X135515000Y-84804700D01*
X135540000Y-51571700D02*
X135540000Y-50046400D01*
X135540000Y-50046400D02*
X135540000Y-47240300D01*
X135540000Y-47240300D02*
X133250000Y-44950300D01*
X133250000Y-43425000D02*
X133250000Y-44950300D01*
X135540000Y-52005200D02*
X135540000Y-51571700D01*
X135540000Y-52910400D02*
X135540000Y-55126400D01*
X135540000Y-55126400D02*
X133000000Y-57666400D01*
X135565000Y-67338300D02*
X135565000Y-68863600D01*
X133250000Y-41899700D02*
X135790000Y-39359700D01*
X135790000Y-39359700D02*
X135790000Y-37330300D01*
X135565000Y-67338300D02*
X135565000Y-65813000D01*
X133000000Y-59191700D02*
X133000000Y-60717000D01*
X133250000Y-43425000D02*
X133250000Y-41899700D01*
X135540000Y-52005200D02*
X135540000Y-52910400D01*
X133000000Y-59191700D02*
X133000000Y-57666400D01*
X73760000Y-79025000D02*
X74935300Y-79025000D01*
X74935300Y-79025000D02*
X74935300Y-79833100D01*
X74935300Y-79833100D02*
X75302500Y-80200300D01*
X75302500Y-80200300D02*
X78295600Y-80200300D01*
X78295600Y-80200300D02*
X84141400Y-86046100D01*
X147947800Y-71639100D02*
X149539700Y-71639100D01*
X149539700Y-71639100D02*
X152075000Y-74174400D01*
X152075000Y-74174400D02*
X152075000Y-76207000D01*
X152075000Y-76207000D02*
X155910000Y-80042000D01*
X155910000Y-80042000D02*
X155910000Y-81700000D01*
X73760000Y-76485000D02*
X73760000Y-73945000D01*
X85500000Y-40179700D02*
X85952600Y-39727100D01*
X85952600Y-39727100D02*
X102122800Y-39727100D01*
X102122800Y-39727100D02*
X118493900Y-56098200D01*
X118493900Y-56098200D02*
X118493900Y-60131500D01*
X118493900Y-60131500D02*
X120117800Y-61755400D01*
X120117800Y-61755400D02*
X121618100Y-61755400D01*
X121618100Y-61755400D02*
X123683500Y-63820800D01*
X123683500Y-63820800D02*
X123683500Y-64039100D01*
X85500000Y-41705000D02*
X85500000Y-40179700D01*
X93120000Y-43230300D02*
X92071400Y-43230300D01*
X92071400Y-43230300D02*
X86625400Y-48676300D01*
X86625400Y-48676300D02*
X86625400Y-50723800D01*
X86625400Y-50723800D02*
X86497700Y-50851500D01*
X86497700Y-50851500D02*
X77306200Y-50851500D01*
X77306200Y-50851500D02*
X76300000Y-51857700D01*
X76300000Y-51857700D02*
X76300000Y-70229700D01*
X76300000Y-71405000D02*
X76300000Y-70229700D01*
X93120000Y-41705000D02*
X93120000Y-43230300D01*
X100740000Y-43230300D02*
X97181100Y-43230300D01*
X97181100Y-43230300D02*
X91994600Y-48416800D01*
X91994600Y-48416800D02*
X91994600Y-49909400D01*
X91994600Y-49909400D02*
X90240800Y-51663200D01*
X90240800Y-51663200D02*
X77163000Y-51663200D01*
X77163000Y-51663200D02*
X76921300Y-51904900D01*
X76921300Y-51904900D02*
X76921300Y-56190300D01*
X76921300Y-56190300D02*
X77475300Y-56744300D01*
X77475300Y-56744300D02*
X77475300Y-71961800D01*
X77475300Y-71961800D02*
X76667400Y-72769700D01*
X76667400Y-72769700D02*
X76300000Y-72769700D01*
X76300000Y-73945000D02*
X76300000Y-72769700D01*
X100740000Y-41705000D02*
X100740000Y-43230300D01*
X76300000Y-76485000D02*
X76300000Y-75309700D01*
X98200000Y-41705000D02*
X98200000Y-40179700D01*
X98200000Y-40179700D02*
X90097200Y-40179700D01*
X90097200Y-40179700D02*
X89310000Y-40966900D01*
X89310000Y-40966900D02*
X89310000Y-42433800D01*
X89310000Y-42433800D02*
X82501900Y-49241900D01*
X82501900Y-49241900D02*
X78267200Y-49241900D01*
X78267200Y-49241900D02*
X75849600Y-51659500D01*
X75849600Y-51659500D02*
X75849600Y-67162000D01*
X75849600Y-67162000D02*
X75124700Y-67886900D01*
X75124700Y-67886900D02*
X75124700Y-74501800D01*
X75124700Y-74501800D02*
X75932600Y-75309700D01*
X75932600Y-75309700D02*
X76300000Y-75309700D01*
X90580000Y-41705000D02*
X90580000Y-43230300D01*
X85500000Y-49325000D02*
X85500000Y-47799700D01*
X85500000Y-47799700D02*
X90069400Y-43230300D01*
X90069400Y-43230300D02*
X90580000Y-43230300D01*
X165490000Y-90034700D02*
X165122600Y-90034700D01*
X165122600Y-90034700D02*
X164314700Y-89226800D01*
X164314700Y-89226800D02*
X164314700Y-88368300D01*
X164314700Y-88368300D02*
X163346400Y-87400000D01*
X163346400Y-87400000D02*
X162553600Y-87400000D01*
X162553600Y-87400000D02*
X161700600Y-86547000D01*
X161700600Y-86547000D02*
X161700600Y-82752500D01*
X161700600Y-82752500D02*
X159345300Y-80397200D01*
X159345300Y-80397200D02*
X159345300Y-74863900D01*
X159345300Y-74863900D02*
X153345000Y-68863600D01*
X165490000Y-91210000D02*
X165490000Y-90034700D01*
X153345000Y-67338300D02*
X153345000Y-68863600D01*
X101100000Y-111475000D02*
X101100000Y-109949700D01*
X103767300Y-97255500D02*
X103767300Y-100534500D01*
X103767300Y-100534500D02*
X102225300Y-102076500D01*
X102225300Y-102076500D02*
X102225300Y-108824400D01*
X102225300Y-108824400D02*
X101100000Y-109949700D01*
X98200000Y-59855300D02*
X102815800Y-64471100D01*
X102815800Y-64471100D02*
X102815800Y-88228700D01*
X102815800Y-88228700D02*
X103767300Y-89180200D01*
X103767300Y-89180200D02*
X103767300Y-97255500D01*
X98200000Y-58330000D02*
X98200000Y-59855300D01*
X162950000Y-90034700D02*
X162582700Y-90034700D01*
X162582700Y-90034700D02*
X160800000Y-88252000D01*
X160800000Y-88252000D02*
X160800000Y-85324800D01*
X160800000Y-85324800D02*
X157534000Y-82058800D01*
X157534000Y-82058800D02*
X157533900Y-82058800D01*
X157533900Y-82058800D02*
X157533900Y-78698000D01*
X157533900Y-78698000D02*
X154615000Y-75779100D01*
X154615000Y-75779100D02*
X154615000Y-74188200D01*
X154615000Y-74188200D02*
X150644400Y-70217600D01*
X150644400Y-70217600D02*
X146064300Y-70217600D01*
X146064300Y-70217600D02*
X143185000Y-67338300D01*
X162950000Y-91210000D02*
X162950000Y-90034700D01*
X148265000Y-67338300D02*
X148265000Y-65813000D01*
X148265000Y-65813000D02*
X148765200Y-65312800D01*
X148765200Y-65312800D02*
X155872100Y-65312800D01*
X155872100Y-65312800D02*
X157421500Y-66862200D01*
X157421500Y-66862200D02*
X157421500Y-67666500D01*
X157421500Y-67666500D02*
X161774700Y-72019700D01*
X161774700Y-72019700D02*
X161774700Y-73919000D01*
X161774700Y-73919000D02*
X162589100Y-74733400D01*
X162589100Y-74733400D02*
X163397600Y-74733400D01*
X163397600Y-74733400D02*
X164314600Y-75650400D01*
X164314600Y-75650400D02*
X164314600Y-76495600D01*
X164314600Y-76495600D02*
X165059000Y-77240000D01*
X165059000Y-77240000D02*
X165962700Y-77240000D01*
X165962700Y-77240000D02*
X166689000Y-77966300D01*
X166689000Y-77966300D02*
X166689000Y-84056400D01*
X166689000Y-84056400D02*
X165885400Y-84860000D01*
X165885400Y-84860000D02*
X165095200Y-84860000D01*
X165095200Y-84860000D02*
X164285300Y-85669900D01*
X164285300Y-85669900D02*
X164285300Y-87465300D01*
X164285300Y-87465300D02*
X165490000Y-88670000D01*
X162950000Y-88670000D02*
X161250300Y-86970300D01*
X161250300Y-86970300D02*
X161250300Y-84871500D01*
X161250300Y-84871500D02*
X158840400Y-82461600D01*
X158840400Y-82461600D02*
X158840400Y-75871400D01*
X158840400Y-75871400D02*
X152016500Y-69047500D01*
X152016500Y-69047500D02*
X147579900Y-69047500D01*
X147579900Y-69047500D02*
X147199600Y-68667200D01*
X165490000Y-86130000D02*
X165490000Y-87305300D01*
X153270000Y-99137500D02*
X153270000Y-98012200D01*
X165490000Y-87305300D02*
X165857400Y-87305300D01*
X165857400Y-87305300D02*
X166665300Y-88113200D01*
X166665300Y-88113200D02*
X166665300Y-91698400D01*
X166665300Y-91698400D02*
X165939200Y-92424500D01*
X165939200Y-92424500D02*
X155347800Y-92424500D01*
X155347800Y-92424500D02*
X154684600Y-93087700D01*
X154684600Y-93087700D02*
X154684600Y-96597600D01*
X154684600Y-96597600D02*
X153270000Y-98012200D01*
X164314700Y-83590000D02*
X164314700Y-83222600D01*
X164314700Y-83222600D02*
X163506800Y-82414700D01*
X163506800Y-82414700D02*
X162643800Y-82414700D01*
X162643800Y-82414700D02*
X160191800Y-79962700D01*
X160191800Y-79962700D02*
X160191800Y-75001400D01*
X160191800Y-75001400D02*
X154615000Y-69424600D01*
X154615000Y-69424600D02*
X154615000Y-66561000D01*
X154615000Y-66561000D02*
X153867000Y-65813000D01*
X153867000Y-65813000D02*
X150805000Y-65813000D01*
X165490000Y-83590000D02*
X164314700Y-83590000D01*
X150805000Y-67338300D02*
X150805000Y-65813000D01*
X164314700Y-81050000D02*
X164314700Y-80682600D01*
X164314700Y-80682600D02*
X163506800Y-79874700D01*
X163506800Y-79874700D02*
X162630500Y-79874700D01*
X162630500Y-79874700D02*
X160945500Y-78189700D01*
X160945500Y-78189700D02*
X160945500Y-75118200D01*
X160945500Y-75118200D02*
X155885000Y-70057700D01*
X155885000Y-70057700D02*
X155885000Y-68863600D01*
X165490000Y-81050000D02*
X164314700Y-81050000D01*
X155885000Y-67338300D02*
X155885000Y-68863600D01*
X95660000Y-82400000D02*
X95660000Y-90311500D01*
X95660000Y-90311500D02*
X101447000Y-96098500D01*
X101447000Y-96098500D02*
X101447000Y-96802200D01*
X101447000Y-96802200D02*
X101447100Y-96802200D01*
X134672000Y-97599000D02*
X135569300Y-97599000D01*
X135569300Y-97599000D02*
X136760000Y-98789700D01*
X136760000Y-98789700D02*
X136760000Y-99526400D01*
X136760000Y-99526400D02*
X137496400Y-100262800D01*
X137496400Y-100262800D02*
X143680800Y-100262800D01*
X143680800Y-100262800D02*
X144524700Y-99418900D01*
X144524700Y-99418900D02*
X144524700Y-99137500D01*
X145650000Y-99137500D02*
X144524700Y-99137500D01*
X88040000Y-65950000D02*
X88040000Y-64424700D01*
X93120000Y-82400000D02*
X93120000Y-80874700D01*
X93120000Y-80874700D02*
X94297900Y-79696800D01*
X94297900Y-65069300D02*
X93653300Y-64424700D01*
X93653300Y-64424700D02*
X88040000Y-64424700D01*
X162950000Y-77334700D02*
X162582600Y-77334700D01*
X162582600Y-77334700D02*
X161774700Y-76526800D01*
X161774700Y-76526800D02*
X161774700Y-75017200D01*
X161774700Y-75017200D02*
X156664400Y-69906900D01*
X156664400Y-69906900D02*
X156664400Y-69399000D01*
X162950000Y-78510000D02*
X162950000Y-77334700D01*
X99325010Y-75645994D02*
X99325010Y-69325010D01*
X94297900Y-79696800D02*
X95274204Y-79696800D01*
X95274204Y-79696800D02*
X99325010Y-75645994D01*
X99325010Y-69325010D02*
X98600000Y-68600000D01*
X94297900Y-66578904D02*
X94297900Y-65069300D01*
X96318996Y-68600000D02*
X94297900Y-66578904D01*
X98600000Y-68600000D02*
X96318996Y-68600000D01*
X165490000Y-74794700D02*
X165122600Y-74794700D01*
X165122600Y-74794700D02*
X164314700Y-73986800D01*
X164314700Y-73986800D02*
X164314700Y-73093700D01*
X164314700Y-73093700D02*
X163475600Y-72254600D01*
X163475600Y-72254600D02*
X162646500Y-72254600D01*
X162646500Y-72254600D02*
X158031100Y-67639200D01*
X158031100Y-67639200D02*
X158031100Y-66834900D01*
X158031100Y-66834900D02*
X156058700Y-64862500D01*
X156058700Y-64862500D02*
X143635400Y-64862500D01*
X143635400Y-64862500D02*
X142050700Y-66447200D01*
X142050700Y-66447200D02*
X142050700Y-68195600D01*
X142050700Y-68195600D02*
X146219500Y-72364400D01*
X146219500Y-72364400D02*
X147679400Y-72364400D01*
X147679400Y-72364400D02*
X149391400Y-74076400D01*
X149391400Y-74076400D02*
X149391400Y-76467000D01*
X149391400Y-76467000D02*
X147020000Y-78838400D01*
X147020000Y-78838400D02*
X147020000Y-88316000D01*
X147020000Y-88316000D02*
X146382700Y-88953300D01*
X165490000Y-75970000D02*
X165490000Y-74794700D01*
X148190000Y-98012200D02*
X148752600Y-98012200D01*
X148752600Y-98012200D02*
X152025000Y-94739800D01*
X152025000Y-94739800D02*
X152025000Y-92998700D01*
X152025000Y-92998700D02*
X156024300Y-88999400D01*
X156024300Y-88999400D02*
X156442600Y-88999400D01*
X156442600Y-88999400D02*
X157984100Y-87457900D01*
X157984100Y-87457900D02*
X157984100Y-86991200D01*
X157984100Y-86991200D02*
X159350000Y-85625300D01*
X159350000Y-85625300D02*
X160074700Y-85625300D01*
X148190000Y-99137500D02*
X148190000Y-98012200D01*
X153295000Y-92424700D02*
X153654200Y-92424700D01*
X153654200Y-92424700D02*
X159360700Y-86718200D01*
X159360700Y-86718200D02*
X159360700Y-86677600D01*
X153295000Y-93950000D02*
X153295000Y-92424700D01*
X108209600Y-64073500D02*
X107971600Y-64311500D01*
X107971600Y-64311500D02*
X105145700Y-64311500D01*
X105145700Y-64311500D02*
X104234700Y-65222500D01*
X104234700Y-65222500D02*
X104234700Y-78883700D01*
X104234700Y-78883700D02*
X105031000Y-79680000D01*
X105031000Y-79680000D02*
X106484000Y-79680000D01*
X106484000Y-79680000D02*
X107305400Y-80501400D01*
X107305400Y-80501400D02*
X107305400Y-87482900D01*
X107305400Y-87482900D02*
X107745200Y-87922700D01*
X107745200Y-87922700D02*
X107745200Y-99173800D01*
X107745200Y-99173800D02*
X105054600Y-101864400D01*
X105054600Y-101864400D02*
X105054600Y-108535100D01*
X105054600Y-108535100D02*
X103640000Y-109949700D01*
X162950000Y-68350000D02*
X162950000Y-67174700D01*
X159532400Y-53019000D02*
X159532400Y-56436600D01*
X159532400Y-56436600D02*
X162650400Y-59554600D01*
X162650400Y-59554600D02*
X163533400Y-59554600D01*
X163533400Y-59554600D02*
X164125300Y-60146500D01*
X164125300Y-60146500D02*
X164125300Y-66366800D01*
X164125300Y-66366800D02*
X163317400Y-67174700D01*
X163317400Y-67174700D02*
X162950000Y-67174700D01*
X103640000Y-111475000D02*
X103640000Y-109949700D01*
X108720000Y-111475000D02*
X108720000Y-109949700D01*
X109891000Y-65724200D02*
X108954900Y-66660300D01*
X108954900Y-66660300D02*
X108954900Y-75664700D01*
X108954900Y-75664700D02*
X109391500Y-76101300D01*
X109391500Y-76101300D02*
X109391500Y-82756600D01*
X109391500Y-82756600D02*
X110837300Y-84202400D01*
X110837300Y-84202400D02*
X110837300Y-92272000D01*
X110837300Y-92272000D02*
X109938600Y-93170700D01*
X109938600Y-93170700D02*
X109938600Y-108731100D01*
X109938600Y-108731100D02*
X108720000Y-109949700D01*
X143160000Y-53097000D02*
X147371800Y-57308800D01*
X147371800Y-57308800D02*
X155981700Y-57308800D01*
X155981700Y-57308800D02*
X161774700Y-63101800D01*
X161774700Y-63101800D02*
X161774700Y-63826800D01*
X161774700Y-63826800D02*
X162582600Y-64634700D01*
X162582600Y-64634700D02*
X162950000Y-64634700D01*
X162950000Y-65810000D02*
X162950000Y-64634700D01*
X143160000Y-51571700D02*
X143160000Y-53097000D01*
X113800000Y-109949700D02*
X112385400Y-108535100D01*
X112385400Y-108535100D02*
X112385400Y-101826700D01*
X112385400Y-101826700D02*
X111132600Y-100573900D01*
X111132600Y-100573900D02*
X111132600Y-93843800D01*
X111132600Y-93843800D02*
X111742100Y-93234300D01*
X111742100Y-93234300D02*
X111742100Y-83833400D01*
X111742100Y-83833400D02*
X110348100Y-82439400D01*
X110348100Y-82439400D02*
X110348100Y-75147200D01*
X110348100Y-75147200D02*
X110080600Y-74879700D01*
X110080600Y-74879700D02*
X110080600Y-68183300D01*
X110080600Y-68183300D02*
X110355700Y-67908200D01*
X148240000Y-51571700D02*
X148240000Y-53097000D01*
X148240000Y-53097000D02*
X152406800Y-53097000D01*
X152406800Y-53097000D02*
X162579800Y-63270000D01*
X162579800Y-63270000D02*
X162950000Y-63270000D01*
X113800000Y-111475000D02*
X113800000Y-109949700D01*
X118880000Y-109949700D02*
X122593500Y-106236200D01*
X122593500Y-106236200D02*
X122593500Y-102998000D01*
X122593500Y-102998000D02*
X120602300Y-101006800D01*
X120602300Y-101006800D02*
X116351500Y-101006800D01*
X116351500Y-101006800D02*
X113997700Y-98653000D01*
X113997700Y-98653000D02*
X113997700Y-82904500D01*
X113997700Y-82904500D02*
X112882200Y-81789000D01*
X112882200Y-81789000D02*
X112882200Y-70059600D01*
X112882200Y-70059600D02*
X112999100Y-69942700D01*
X112999100Y-69942700D02*
X112999100Y-66174400D01*
X112999100Y-66174400D02*
X109914400Y-63089700D01*
X153320000Y-53097000D02*
X153320000Y-53206500D01*
X153320000Y-53206500D02*
X160843500Y-60730000D01*
X160843500Y-60730000D02*
X161774700Y-60730000D01*
X162950000Y-60730000D02*
X161774700Y-60730000D01*
X153320000Y-51571700D02*
X153320000Y-53097000D01*
X118880000Y-111475000D02*
X118880000Y-109949700D01*
X145675000Y-93950000D02*
X145675000Y-92424700D01*
X145675000Y-92424700D02*
X150160000Y-87939700D01*
X150160000Y-87939700D02*
X156228500Y-87939700D01*
X156228500Y-87939700D02*
X156970900Y-87197300D01*
X156970900Y-87197300D02*
X156970900Y-85053400D01*
X156970900Y-85053400D02*
X154754800Y-82837300D01*
X154754800Y-82837300D02*
X154754800Y-80574600D01*
X154754800Y-80574600D02*
X155085800Y-80243600D01*
X123960000Y-102329700D02*
X120830700Y-99200400D01*
X120830700Y-99200400D02*
X115182000Y-99200400D01*
X115182000Y-99200400D02*
X114448000Y-98466400D01*
X114448000Y-98466400D02*
X114448000Y-82717900D01*
X114448000Y-82717900D02*
X113607600Y-81877500D01*
X113607600Y-81877500D02*
X113607600Y-70868800D01*
X123960000Y-103855000D02*
X123960000Y-102329700D01*
X118880000Y-103855000D02*
X116984300Y-101959300D01*
X116984300Y-101959300D02*
X115950300Y-101959300D01*
X115950300Y-101959300D02*
X112040000Y-98049000D01*
X112040000Y-98049000D02*
X112040000Y-94210200D01*
X112040000Y-94210200D02*
X112642700Y-93607500D01*
X112642700Y-93607500D02*
X112642700Y-83460200D01*
X112642700Y-83460200D02*
X111531300Y-82348800D01*
X111531300Y-82348800D02*
X111531300Y-70801100D01*
X111531300Y-70801100D02*
X111081000Y-70350800D01*
X111081000Y-70350800D02*
X111081000Y-65888400D01*
X111081000Y-65888400D02*
X110191500Y-64998900D01*
X110191500Y-64998900D02*
X110161000Y-64998900D01*
X110161000Y-64998900D02*
X108463700Y-63301600D01*
X108463700Y-63301600D02*
X108463700Y-62764100D01*
X162950000Y-55650000D02*
X162950000Y-54474700D01*
X162950000Y-54474700D02*
X162584500Y-54474700D01*
X162584500Y-54474700D02*
X160708100Y-52598300D01*
X160708100Y-52598300D02*
X160708100Y-52482600D01*
X134363900Y-47740800D02*
X134363900Y-55177000D01*
X134363900Y-55177000D02*
X131874700Y-57666200D01*
X131874700Y-57666200D02*
X131874700Y-79878200D01*
X131874700Y-79878200D02*
X131775300Y-79977600D01*
X131775300Y-79977600D02*
X131775300Y-100055300D01*
X131775300Y-100055300D02*
X134424700Y-102704700D01*
X134424700Y-102704700D02*
X140320000Y-102704700D01*
X140320000Y-104230000D02*
X140320000Y-102704700D01*
X113800000Y-103855000D02*
X113800000Y-101893000D01*
X113800000Y-101893000D02*
X111583000Y-99676000D01*
X111583000Y-99676000D02*
X111583000Y-94030300D01*
X111583000Y-94030300D02*
X112192400Y-93420900D01*
X112192400Y-93420900D02*
X112192400Y-83646800D01*
X112192400Y-83646800D02*
X110806000Y-82260400D01*
X110806000Y-82260400D02*
X110806000Y-71101600D01*
X143160000Y-60717000D02*
X143024900Y-60852100D01*
X143024900Y-60852100D02*
X143024900Y-63676600D01*
X143160000Y-59191700D02*
X143160000Y-60717000D01*
X141872500Y-96755000D02*
X141872500Y-85195000D01*
X141872500Y-85195000D02*
X139472300Y-82794800D01*
X139472300Y-82794800D02*
X139472300Y-64504700D01*
X139472300Y-64504700D02*
X141745400Y-62231600D01*
X141745400Y-62231600D02*
X141745400Y-48927500D01*
X141745400Y-48927500D02*
X143410000Y-47262900D01*
X143410000Y-47262900D02*
X143410000Y-43425000D01*
X124439200Y-63300200D02*
X124439200Y-64357000D01*
X124439200Y-64357000D02*
X121909400Y-66886800D01*
X121909400Y-66886800D02*
X120312600Y-66886800D01*
X120312600Y-66886800D02*
X117957300Y-69242100D01*
X117957300Y-69242100D02*
X117957300Y-74747300D01*
X117957300Y-74747300D02*
X118737200Y-75527200D01*
X118737200Y-75527200D02*
X118737200Y-78653700D01*
X108720000Y-102329700D02*
X108204400Y-101814100D01*
X108204400Y-101814100D02*
X108204400Y-87160200D01*
X108720000Y-103855000D02*
X108720000Y-102329700D01*
X110663900Y-101968900D02*
X110663900Y-93225600D01*
X110663900Y-93225600D02*
X111291800Y-92597700D01*
X111291800Y-92597700D02*
X111291800Y-84020000D01*
X111291800Y-84020000D02*
X109897800Y-82626000D01*
X109897800Y-82626000D02*
X109897800Y-75333800D01*
X109897800Y-75333800D02*
X109567000Y-75003000D01*
X109567000Y-75003000D02*
X109567000Y-67157800D01*
X109567000Y-67157800D02*
X109701600Y-67023200D01*
X150480000Y-102704700D02*
X142340900Y-102704700D01*
X142340900Y-102704700D02*
X141734600Y-103311000D01*
X141734600Y-103311000D02*
X141734600Y-106034400D01*
X141734600Y-106034400D02*
X138482500Y-109286500D01*
X150480000Y-104230000D02*
X150480000Y-102704700D01*
X138330000Y-37330300D02*
X139455400Y-38455700D01*
X139455400Y-38455700D02*
X139455400Y-44570500D01*
X139455400Y-44570500D02*
X140031700Y-45146800D01*
X101137300Y-51346500D02*
X103139200Y-49344600D01*
X103139200Y-49344600D02*
X107004800Y-49344600D01*
X107004800Y-49344600D02*
X107706600Y-48642800D01*
X138330000Y-35805000D02*
X138330000Y-37330300D01*
X165490000Y-45490000D02*
X165490000Y-46665300D01*
X155560000Y-104230000D02*
X155560000Y-102704700D01*
X155560000Y-102704700D02*
X160799300Y-97465400D01*
X160799300Y-97465400D02*
X163475600Y-97465400D01*
X163475600Y-97465400D02*
X164314600Y-96626400D01*
X164314600Y-96626400D02*
X164314600Y-95764400D01*
X164314600Y-95764400D02*
X165091200Y-94987800D01*
X165091200Y-94987800D02*
X165977000Y-94987800D01*
X165977000Y-94987800D02*
X167139400Y-93825400D01*
X167139400Y-93825400D02*
X167139400Y-47947400D01*
X167139400Y-47947400D02*
X165857300Y-46665300D01*
X165857300Y-46665300D02*
X165490000Y-46665300D01*
X153570000Y-43425000D02*
X153570000Y-41899700D01*
X165490000Y-45490000D02*
X165490000Y-44314700D01*
X165490000Y-44314700D02*
X165122700Y-44314700D01*
X165122700Y-44314700D02*
X164304900Y-43496900D01*
X164304900Y-43496900D02*
X164304900Y-40569300D01*
X164304900Y-40569300D02*
X165305800Y-39568400D01*
X165305800Y-39568400D02*
X165305800Y-35860900D01*
X165305800Y-35860900D02*
X164804000Y-35359100D01*
X164804000Y-35359100D02*
X160110600Y-35359100D01*
X160110600Y-35359100D02*
X153570000Y-41899700D01*
X112812600Y-96534300D02*
X113097100Y-96249800D01*
X113097100Y-96249800D02*
X113097100Y-83277700D01*
X113097100Y-83277700D02*
X111981600Y-82162200D01*
X111981600Y-82162200D02*
X111981600Y-70614500D01*
X111981600Y-70614500D02*
X111531300Y-70164200D01*
X111531300Y-70164200D02*
X111531300Y-65701800D01*
X111531300Y-65701800D02*
X110378100Y-64548600D01*
X110378100Y-64548600D02*
X110347600Y-64548600D01*
X110347600Y-64548600D02*
X109189100Y-63390100D01*
X109189100Y-63390100D02*
X109189100Y-62451200D01*
X109189100Y-62451200D02*
X108378300Y-61640400D01*
X143410000Y-37330300D02*
X143410000Y-38470700D01*
X143410000Y-38470700D02*
X147220000Y-42280700D01*
X143410000Y-35805000D02*
X143410000Y-37330300D01*
X120054600Y-105398200D02*
X120054600Y-102977200D01*
X120054600Y-102977200D02*
X118534600Y-101457200D01*
X118534600Y-101457200D02*
X116165000Y-101457200D01*
X116165000Y-101457200D02*
X113547400Y-98839600D01*
X113547400Y-98839600D02*
X113547400Y-83091100D01*
X113547400Y-83091100D02*
X112431900Y-81975600D01*
X112431900Y-81975600D02*
X112431900Y-67228600D01*
X112431900Y-67228600D02*
X112268600Y-67065300D01*
X153570000Y-34279700D02*
X153119700Y-33829400D01*
X153119700Y-33829400D02*
X138238900Y-33829400D01*
X138238900Y-33829400D02*
X136954600Y-35113700D01*
X136954600Y-35113700D02*
X136954600Y-55157500D01*
X136954600Y-55157500D02*
X134445700Y-57666400D01*
X153570000Y-35371500D02*
X153570000Y-34279700D01*
X153570000Y-35805000D02*
X153570000Y-35371500D01*
X148490000Y-35805000D02*
X148490000Y-37330300D01*
X145400000Y-111850000D02*
X145400000Y-110324700D01*
X145400000Y-110324700D02*
X146448600Y-110324700D01*
X146448600Y-110324700D02*
X151622800Y-105150500D01*
X151622800Y-105150500D02*
X151622800Y-103134600D01*
X151622800Y-103134600D02*
X149412100Y-100923900D01*
X149412100Y-100923900D02*
X135670800Y-100923900D01*
X135670800Y-100923900D02*
X134075400Y-99328500D01*
X134075400Y-99328500D02*
X134075400Y-98132500D01*
X134075400Y-98132500D02*
X133906100Y-97963200D01*
X133906100Y-97963200D02*
X133906100Y-95593800D01*
X133906100Y-95593800D02*
X134100400Y-95399500D01*
X134100400Y-95399500D02*
X134100400Y-91742700D01*
X134100400Y-91742700D02*
X136738400Y-89104700D01*
X136738400Y-89104700D02*
X136738400Y-66008700D01*
X136738400Y-66008700D02*
X136208500Y-65478800D01*
X136208500Y-65478800D02*
X136208500Y-60723400D01*
X136208500Y-60723400D02*
X136810000Y-60121900D01*
X136810000Y-60121900D02*
X136810000Y-56839800D01*
X136810000Y-56839800D02*
X139350000Y-54299800D01*
X139350000Y-54299800D02*
X139350000Y-48484600D01*
X139350000Y-48484600D02*
X142140000Y-45694600D01*
X142140000Y-45694600D02*
X142140000Y-35082400D01*
X142140000Y-35082400D02*
X142942700Y-34279700D01*
X142942700Y-34279700D02*
X143942100Y-34279700D01*
X143942100Y-34279700D02*
X144680000Y-35017600D01*
X144680000Y-35017600D02*
X144680000Y-36566700D01*
X144680000Y-36566700D02*
X145443600Y-37330300D01*
X145443600Y-37330300D02*
X148490000Y-37330300D01*
X72002100Y-42027100D02*
X71150000Y-41175000D01*
X70875000Y-47899700D02*
X71242300Y-47899700D01*
X71242300Y-47899700D02*
X72055600Y-47086400D01*
X72055600Y-47086400D02*
X72055600Y-42080600D01*
X72055600Y-42080600D02*
X72002100Y-42027100D01*
X85419700Y-35950000D02*
X84249200Y-37120500D01*
X84249200Y-37120500D02*
X76908700Y-37120500D01*
X76908700Y-37120500D02*
X72002100Y-42027100D01*
X86545000Y-35950000D02*
X85419700Y-35950000D01*
X70875000Y-49075000D02*
X70875000Y-47899700D01*
X136255000Y-118213300D02*
X136255000Y-118734700D01*
X136255000Y-118734700D02*
X138125000Y-120604700D01*
X137780000Y-111850000D02*
X137780000Y-114437700D01*
X137780000Y-114437700D02*
X136255000Y-115962700D01*
X138125000Y-121730000D02*
X138125000Y-120604700D01*
X136255000Y-117088000D02*
X136255000Y-115962700D01*
X136255000Y-117088000D02*
X136255000Y-118213300D01*
X139920300Y-117088000D02*
X139920300Y-116315000D01*
X139920300Y-116315000D02*
X142860000Y-113375300D01*
X140665000Y-121730000D02*
X140665000Y-120604700D01*
X138795000Y-118213300D02*
X138795000Y-118734700D01*
X138795000Y-118734700D02*
X140665000Y-120604700D01*
X138795000Y-117088000D02*
X139920300Y-117088000D01*
X142860000Y-111850000D02*
X142860000Y-113375300D01*
X138795000Y-117088000D02*
X138795000Y-118213300D01*
X143205000Y-121730000D02*
X143205000Y-120604700D01*
X141335000Y-118213300D02*
X141335000Y-118734700D01*
X141335000Y-118734700D02*
X143205000Y-120604700D01*
X141335000Y-117088000D02*
X141335000Y-118213300D01*
X145745000Y-121730000D02*
X145745000Y-120083300D01*
X145745000Y-120083300D02*
X143875000Y-118213300D01*
X143875000Y-117088000D02*
X143875000Y-118213300D01*
X146415000Y-118213300D02*
X148285000Y-120083300D01*
X148285000Y-120083300D02*
X148285000Y-121730000D01*
X153020000Y-105755300D02*
X149210000Y-109565300D01*
X149210000Y-109565300D02*
X149210000Y-113167700D01*
X149210000Y-113167700D02*
X146415000Y-115962700D01*
X146415000Y-117088000D02*
X146415000Y-115962700D01*
X153020000Y-104230000D02*
X153020000Y-105755300D01*
X146415000Y-117088000D02*
X146415000Y-118213300D01*
X150825000Y-120604700D02*
X148955000Y-118734700D01*
X148955000Y-118734700D02*
X148955000Y-118213300D01*
X150825000Y-121730000D02*
X150825000Y-120604700D01*
X148955000Y-117088000D02*
X148955000Y-118213300D01*
X151495000Y-117088000D02*
X151495000Y-118213300D01*
X153224400Y-121730000D02*
X152239700Y-121730000D01*
X153365000Y-121730000D02*
X153224400Y-121730000D01*
X151495000Y-118213300D02*
X153224400Y-119942700D01*
X153224400Y-119942700D02*
X153224400Y-121730000D01*
X142860000Y-105755300D02*
X144035800Y-106931100D01*
X144035800Y-106931100D02*
X144035800Y-115222400D01*
X144035800Y-115222400D02*
X145145000Y-116331600D01*
X145145000Y-116331600D02*
X145145000Y-118053000D01*
X145145000Y-118053000D02*
X147015000Y-119923000D01*
X147015000Y-119923000D02*
X147015000Y-122068600D01*
X147015000Y-122068600D02*
X147801700Y-122855300D01*
X147801700Y-122855300D02*
X151395800Y-122855300D01*
X151395800Y-122855300D02*
X152239700Y-122011400D01*
X152239700Y-122011400D02*
X152239700Y-121730000D01*
X142860000Y-104230000D02*
X142860000Y-105755300D01*
X154035000Y-117088000D02*
X154035000Y-118213300D01*
X154035000Y-118213300D02*
X155905000Y-120083300D01*
X155905000Y-120083300D02*
X155905000Y-121730000D01*
X102330300Y-117138000D02*
X102330300Y-116850000D01*
X102330300Y-116850000D02*
X106180000Y-113000300D01*
X101205000Y-118263300D02*
X101205000Y-118784700D01*
X101205000Y-118784700D02*
X103075000Y-120654700D01*
X103075000Y-121780000D02*
X103075000Y-120654700D01*
X101205000Y-117138000D02*
X102330300Y-117138000D01*
X106180000Y-111475000D02*
X106180000Y-113000300D01*
X101205000Y-117138000D02*
X101205000Y-118263300D01*
X103745000Y-117138000D02*
X103745000Y-118263300D01*
X103745000Y-118263300D02*
X105615000Y-120133300D01*
X105615000Y-120133300D02*
X105615000Y-121780000D01*
X108155000Y-121780000D02*
X108155000Y-120654700D01*
X106285000Y-117138000D02*
X106285000Y-118784700D01*
X106285000Y-118784700D02*
X108155000Y-120654700D01*
X108825000Y-117138000D02*
X108825000Y-118263300D01*
X108825000Y-118263300D02*
X110695000Y-120133300D01*
X110695000Y-120133300D02*
X110695000Y-121780000D01*
X113235000Y-121780000D02*
X114360300Y-121780000D01*
X114360300Y-121780000D02*
X114360300Y-122061300D01*
X114360300Y-122061300D02*
X115216300Y-122917300D01*
X115216300Y-122917300D02*
X118842300Y-122917300D01*
X118842300Y-122917300D02*
X119452300Y-122307300D01*
X119452300Y-122307300D02*
X119452300Y-120633700D01*
X119452300Y-120633700D02*
X117705600Y-118887000D01*
X117705600Y-118887000D02*
X117705600Y-109326300D01*
X117705600Y-109326300D02*
X121420000Y-105611900D01*
X121420000Y-105611900D02*
X121420000Y-103855000D01*
X111365000Y-118263300D02*
X113235000Y-120133300D01*
X113235000Y-120133300D02*
X113235000Y-121780000D01*
X111365000Y-117138000D02*
X111365000Y-118263300D01*
X113905000Y-117138000D02*
X113905000Y-118263300D01*
X113905000Y-118263300D02*
X115775000Y-120133300D01*
X115775000Y-120133300D02*
X115775000Y-121780000D01*
X116445000Y-117138000D02*
X116445000Y-116012700D01*
X116445000Y-116012700D02*
X116304300Y-116012700D01*
X116304300Y-116012700D02*
X112674600Y-112383000D01*
X112674600Y-112383000D02*
X112674600Y-110689200D01*
X112674600Y-110689200D02*
X111260000Y-109274600D01*
X111260000Y-109274600D02*
X111260000Y-103855000D01*
X116445000Y-117419300D02*
X116445000Y-117138000D01*
X116445000Y-117419300D02*
X116445000Y-118263300D01*
X116445000Y-118263300D02*
X117189700Y-119008000D01*
X117189700Y-119008000D02*
X117189700Y-121780000D01*
X118315000Y-121780000D02*
X117189700Y-121780000D01*
X118985000Y-117138000D02*
X118985000Y-118263300D01*
X118985000Y-118263300D02*
X120855000Y-120133300D01*
X120855000Y-120133300D02*
X120855000Y-121780000D01*
X106180000Y-103855000D02*
X106180000Y-105380300D01*
X120855000Y-121780000D02*
X119215900Y-123419100D01*
X119215900Y-123419100D02*
X113226300Y-123419100D01*
X113226300Y-123419100D02*
X111965000Y-122157800D01*
X111965000Y-122157800D02*
X111965000Y-120273300D01*
X111965000Y-120273300D02*
X110095000Y-118403300D01*
X110095000Y-118403300D02*
X110095000Y-116811800D01*
X110095000Y-116811800D02*
X107450000Y-114166800D01*
X107450000Y-114166800D02*
X107450000Y-106650300D01*
X107450000Y-106650300D02*
X106180000Y-105380300D01*
X93120000Y-56804700D02*
X95546800Y-54377900D01*
X95546800Y-54377900D02*
X106587000Y-54377900D01*
X106587000Y-54377900D02*
X107301200Y-55092100D01*
X107301200Y-55092100D02*
X107301200Y-56034600D01*
X107301200Y-56034600D02*
X106515800Y-56820000D01*
X106515800Y-56820000D02*
X104973900Y-56820000D01*
X104973900Y-56820000D02*
X104228500Y-57565400D01*
X104228500Y-57565400D02*
X104228500Y-58600700D01*
X104228500Y-58600700D02*
X105132400Y-59504600D01*
X105132400Y-59504600D02*
X108629100Y-59504600D01*
X108629100Y-59504600D02*
X115233500Y-66109000D01*
X115233500Y-66109000D02*
X115233500Y-71542500D01*
X115233500Y-71542500D02*
X115089000Y-71687000D01*
X115089000Y-71687000D02*
X115089000Y-81448200D01*
X115089000Y-81448200D02*
X115798900Y-82158100D01*
X115798900Y-82158100D02*
X115798900Y-82476700D01*
X115798900Y-82476700D02*
X119352200Y-86030000D01*
X119352200Y-86030000D02*
X119474700Y-86030000D01*
X153345000Y-74958300D02*
X153345000Y-76483600D01*
X141695300Y-99137500D02*
X141695300Y-98872400D01*
X141695300Y-98872400D02*
X143904100Y-96663600D01*
X143904100Y-96663600D02*
X144954600Y-96663600D01*
X144954600Y-96663600D02*
X146945000Y-94673200D01*
X146945000Y-94673200D02*
X146945000Y-93224600D01*
X146945000Y-93224600D02*
X151620500Y-88549100D01*
X151620500Y-88549100D02*
X156256000Y-88549100D01*
X156256000Y-88549100D02*
X157421200Y-87383900D01*
X157421200Y-87383900D02*
X157421200Y-84641500D01*
X157421200Y-84641500D02*
X157083500Y-84303800D01*
X157083500Y-84303800D02*
X157083500Y-80222100D01*
X157083500Y-80222100D02*
X153345000Y-76483600D01*
X140570000Y-99137500D02*
X141695300Y-99137500D01*
X93120000Y-58330000D02*
X93120000Y-56804700D01*
X121000000Y-86030000D02*
X119474700Y-86030000D01*
X135240000Y-104230000D02*
X135240000Y-105961300D01*
X135240000Y-105961300D02*
X133031900Y-108169400D01*
X119474700Y-80950000D02*
X117980100Y-79455400D01*
X117980100Y-79455400D02*
X117980100Y-76043900D01*
X117980100Y-76043900D02*
X117132800Y-75196600D01*
X117132800Y-75196600D02*
X117132800Y-62387200D01*
X117132800Y-62387200D02*
X106625400Y-51879800D01*
X106625400Y-51879800D02*
X102348900Y-51879800D01*
X102348900Y-51879800D02*
X101498900Y-52729800D01*
X101498900Y-52729800D02*
X92114900Y-52729800D01*
X92114900Y-52729800D02*
X88040000Y-56804700D01*
X88040000Y-58330000D02*
X88040000Y-56804700D01*
X121000000Y-80950000D02*
X119474700Y-80950000D01*
X139155300Y-99137500D02*
X139155300Y-98960600D01*
X139155300Y-98960600D02*
X140635600Y-97480300D01*
X140635600Y-97480300D02*
X142173000Y-97480300D01*
X142173000Y-97480300D02*
X144405000Y-95248300D01*
X144405000Y-95248300D02*
X144405000Y-80343600D01*
X144405000Y-80343600D02*
X148265000Y-76483600D01*
X138030000Y-99137500D02*
X139155300Y-99137500D01*
X148265000Y-74958300D02*
X148265000Y-76483600D01*
X93120000Y-65950000D02*
X93120000Y-67475300D01*
X93120000Y-67475300D02*
X91850000Y-68745300D01*
X91850000Y-68745300D02*
X91850000Y-69750000D01*
X93000000Y-70900000D02*
X95120000Y-70900000D01*
X91850000Y-69750000D02*
X93000000Y-70900000D01*
X94320001Y-77134699D02*
X90580000Y-80874700D01*
X94320001Y-71699999D02*
X94320001Y-77134699D01*
X90580000Y-80874700D02*
X90580000Y-82400000D01*
X95120000Y-70900000D02*
X94320001Y-71699999D01*
X73950000Y-86520000D02*
X76106100Y-86520000D01*
X76106100Y-86520000D02*
X84403500Y-94817400D01*
X84403500Y-94817400D02*
X84403500Y-102571000D01*
X84403500Y-102571000D02*
X80690000Y-106284500D01*
X80690000Y-106284500D02*
X80690000Y-109830000D01*
X151030000Y-43425000D02*
X151030000Y-41899700D01*
X151030000Y-41899700D02*
X148391600Y-41899700D01*
X148391600Y-41899700D02*
X147575100Y-41083200D01*
X140870000Y-44950300D02*
X140870000Y-45971300D01*
X140870000Y-45971300D02*
X137692000Y-49149300D01*
X140870000Y-43425000D02*
X140870000Y-44950300D01*
X122525300Y-53010000D02*
X122525300Y-52689300D01*
X122525300Y-52689300D02*
X126705700Y-48508900D01*
X121000000Y-53010000D02*
X122525300Y-53010000D01*
X145700000Y-60717000D02*
X145700000Y-62649200D01*
X145700000Y-59191700D02*
X145700000Y-60717000D01*
X140620000Y-60717000D02*
X136948700Y-64388300D01*
X136948700Y-64388300D02*
X136948700Y-64627300D01*
X140620000Y-59191700D02*
X140620000Y-60717000D01*
X121000000Y-73330000D02*
X122525300Y-73330000D01*
X122525300Y-73330000D02*
X126046000Y-69809300D01*
X126046000Y-69809300D02*
X126046000Y-62669700D01*
X85770000Y-117450000D02*
X85770000Y-112884900D01*
X85770000Y-112884900D02*
X87148100Y-111506800D01*
X87148100Y-111506800D02*
X87148100Y-107823000D01*
X87148100Y-107823000D02*
X91435700Y-103535400D01*
X91435700Y-103535400D02*
X91435700Y-86999300D01*
X91435700Y-86999300D02*
X89320100Y-84883700D01*
X89320100Y-84883700D02*
X88494400Y-84883700D01*
X88494400Y-84883700D02*
X86625400Y-83014700D01*
X86625400Y-83014700D02*
X86625400Y-76082300D01*
X89860000Y-91775300D02*
X88284400Y-93350900D01*
X88284400Y-93350900D02*
X88284400Y-103740500D01*
X88284400Y-103740500D02*
X84190000Y-107834900D01*
X84190000Y-107834900D02*
X83225400Y-107834900D01*
X83225400Y-107834900D02*
X81960000Y-109100300D01*
X81960000Y-109100300D02*
X81960000Y-110558100D01*
X81960000Y-110558100D02*
X79716100Y-112802000D01*
X79716100Y-112802000D02*
X74463000Y-112802000D01*
X74463000Y-112802000D02*
X72525000Y-114740000D01*
X89860000Y-90650000D02*
X89860000Y-91775300D01*
X82240000Y-97850000D02*
X81114700Y-97850000D01*
X72525000Y-103220000D02*
X75744700Y-103220000D01*
X75744700Y-103220000D02*
X81114700Y-97850000D01*
X89860000Y-87050000D02*
X89860000Y-88175300D01*
X89860000Y-88175300D02*
X90985300Y-89300600D01*
X90985300Y-89300600D02*
X90985300Y-101944600D01*
X90985300Y-101944600D02*
X84500000Y-108429900D01*
X84500000Y-108429900D02*
X84500000Y-110584000D01*
X84500000Y-110584000D02*
X80495500Y-114588500D01*
X80495500Y-114588500D02*
X78436500Y-114588500D01*
X78436500Y-114588500D02*
X72525000Y-120500000D01*
X72525000Y-123040000D02*
X72525000Y-121814700D01*
X72525000Y-121814700D02*
X72065500Y-121814700D01*
X72065500Y-121814700D02*
X70819100Y-120568300D01*
X70819100Y-120568300D02*
X70819100Y-80219700D01*
X70819100Y-80219700D02*
X73189200Y-77849600D01*
X73189200Y-77849600D02*
X76652300Y-77849600D01*
X76652300Y-77849600D02*
X79836400Y-74665500D01*
X79836400Y-74665500D02*
X79836400Y-63684100D01*
X79836400Y-63684100D02*
X81730100Y-61790400D01*
X81730100Y-61790400D02*
X87239400Y-61790400D01*
X87239400Y-61790400D02*
X90580000Y-58449800D01*
X90580000Y-58449800D02*
X90580000Y-58330000D01*
X72525000Y-100000000D02*
X72525000Y-101225300D01*
X72525000Y-101225300D02*
X71281300Y-102469000D01*
X71281300Y-102469000D02*
X71281300Y-115293700D01*
X71281300Y-115293700D02*
X72042200Y-116054600D01*
X72042200Y-116054600D02*
X74745600Y-116054600D01*
X74745600Y-116054600D02*
X76945700Y-113854500D01*
X76945700Y-113854500D02*
X79326300Y-113854500D01*
X79326300Y-113854500D02*
X83230000Y-109950800D01*
X83230000Y-109950800D02*
X83230000Y-109830000D01*
X84555000Y-129475000D02*
X84555000Y-127949700D01*
X102129600Y-92943200D02*
X102172500Y-92986100D01*
X102172500Y-92986100D02*
X102172500Y-99818300D01*
X102172500Y-99818300D02*
X99426400Y-102564400D01*
X99426400Y-102564400D02*
X99426400Y-104204500D01*
X99426400Y-104204500D02*
X95560400Y-108070500D01*
X95560400Y-108070500D02*
X95560400Y-118239000D01*
X95560400Y-118239000D02*
X93445000Y-120354400D01*
X93445000Y-120354400D02*
X93445000Y-122616600D01*
X93445000Y-122616600D02*
X90905000Y-125156600D01*
X90905000Y-125156600D02*
X90905000Y-130222000D01*
X90905000Y-130222000D02*
X90092900Y-131034100D01*
X90092900Y-131034100D02*
X89202300Y-131034100D01*
X89202300Y-131034100D02*
X88365000Y-130196800D01*
X88365000Y-130196800D02*
X88365000Y-128746900D01*
X88365000Y-128746900D02*
X87567800Y-127949700D01*
X87567800Y-127949700D02*
X84555000Y-127949700D01*
X92175000Y-120329700D02*
X92504500Y-120329700D01*
X92504500Y-120329700D02*
X94515400Y-118318800D01*
X94515400Y-118318800D02*
X94515400Y-102390600D01*
X94515400Y-102390600D02*
X99807100Y-97098900D01*
X99807100Y-97098900D02*
X99807100Y-95589300D01*
X92175000Y-121855000D02*
X92175000Y-120329700D01*
X87095000Y-129475000D02*
X87095000Y-131000300D01*
X79475000Y-129475000D02*
X79475000Y-131000300D01*
X79475000Y-131000300D02*
X87095000Y-131000300D01*
X90850000Y-115924700D02*
X92007800Y-114766900D01*
X92007800Y-114766900D02*
X92007800Y-107602600D01*
X92007800Y-107602600D02*
X94064800Y-105545600D01*
X94064800Y-105545600D02*
X94064800Y-101542400D01*
X94064800Y-101542400D02*
X98356300Y-97250900D01*
X98356300Y-97250900D02*
X98356300Y-95058100D01*
X98356300Y-95058100D02*
X98356400Y-95058100D01*
X90850000Y-117450000D02*
X90850000Y-115924700D01*
X121000000Y-91110000D02*
X122525300Y-91110000D01*
X106225000Y-35975000D02*
X106225000Y-42773900D01*
X106225000Y-42773900D02*
X120317400Y-56866300D01*
X120317400Y-56866300D02*
X121803500Y-56866300D01*
X121803500Y-56866300D02*
X125166800Y-60229600D01*
X125166800Y-60229600D02*
X125166800Y-66130900D01*
X125166800Y-66130900D02*
X121777700Y-69520000D01*
X121777700Y-69520000D02*
X120235900Y-69520000D01*
X120235900Y-69520000D02*
X118414600Y-71341300D01*
X118414600Y-71341300D02*
X118414600Y-73871300D01*
X118414600Y-73871300D02*
X119283800Y-74740500D01*
X119283800Y-74740500D02*
X119283800Y-76166400D01*
X119283800Y-76166400D02*
X120257400Y-77140000D01*
X120257400Y-77140000D02*
X122502300Y-77140000D01*
X122502300Y-77140000D02*
X127684000Y-82321700D01*
X127684000Y-82321700D02*
X127684000Y-85951300D01*
X127684000Y-85951300D02*
X122525300Y-91110000D01*
X104234700Y-88570000D02*
X103282700Y-87618000D01*
X103282700Y-87618000D02*
X103282700Y-55108500D01*
X105760000Y-88570000D02*
X104234700Y-88570000D01*
X94715000Y-120329700D02*
X94715000Y-119862600D01*
X94715000Y-119862600D02*
X96286800Y-118290800D01*
X96286800Y-118290800D02*
X96286800Y-107981100D01*
X96286800Y-107981100D02*
X99876800Y-104391100D01*
X99876800Y-104391100D02*
X99876800Y-102937900D01*
X99876800Y-102937900D02*
X102940700Y-99874000D01*
X102940700Y-99874000D02*
X102940700Y-91807000D01*
X94715000Y-121855000D02*
X94715000Y-120329700D01*
X88310000Y-108304700D02*
X88310000Y-109830000D01*
X91886000Y-104728700D02*
X88310000Y-108304700D01*
X90580000Y-67475300D02*
X89454700Y-68600600D01*
X90580000Y-65950000D02*
X90580000Y-67475300D01*
X89454700Y-68600600D02*
X89454700Y-84346700D01*
X91886000Y-86778000D02*
X91886000Y-104728700D01*
X89454700Y-84346700D02*
X91886000Y-86778000D01*
X105760000Y-78410000D02*
X107285300Y-78410000D01*
X109136100Y-94048800D02*
X108933100Y-93845800D01*
X108933100Y-93845800D02*
X108933100Y-86333000D01*
X108933100Y-86333000D02*
X108040300Y-85440200D01*
X108040300Y-85440200D02*
X108040300Y-79165000D01*
X108040300Y-79165000D02*
X107285300Y-78410000D01*
X125834300Y-82701900D02*
X125447900Y-82315500D01*
X125447900Y-82315500D02*
X120202000Y-82315500D01*
X120202000Y-82315500D02*
X117397600Y-79511100D01*
X117397600Y-79511100D02*
X117397600Y-76735100D01*
X117397600Y-76735100D02*
X115683800Y-75021300D01*
X115683800Y-75021300D02*
X115683800Y-65922400D01*
X115683800Y-65922400D02*
X107851400Y-58090000D01*
X107851400Y-58090000D02*
X107285300Y-58090000D01*
X105760000Y-58090000D02*
X107285300Y-58090000D01*
X155835000Y-84804700D02*
X153855600Y-82825300D01*
X153855600Y-82825300D02*
X153370000Y-82825300D01*
X153370000Y-81700000D02*
X153370000Y-82825300D01*
X155835000Y-86330000D02*
X155835000Y-84804700D01*
X107285300Y-60630000D02*
X107454200Y-60461100D01*
X107454200Y-60461100D02*
X108948700Y-60461100D01*
X108948700Y-60461100D02*
X114783200Y-66295600D01*
X114783200Y-66295600D02*
X114783200Y-71355900D01*
X114783200Y-71355900D02*
X114638700Y-71500400D01*
X114638700Y-71500400D02*
X114638700Y-81634800D01*
X114638700Y-81634800D02*
X115348600Y-82344700D01*
X115348600Y-82344700D02*
X115348600Y-82716200D01*
X115348600Y-82716200D02*
X119824300Y-87191900D01*
X119824300Y-87191900D02*
X122470600Y-87191900D01*
X122470600Y-87191900D02*
X126942100Y-82720400D01*
X126942100Y-82720400D02*
X126942100Y-82619800D01*
X105760000Y-60630000D02*
X107285300Y-60630000D01*
X153295000Y-84804700D02*
X151315600Y-82825300D01*
X151315600Y-82825300D02*
X150830000Y-82825300D01*
X150830000Y-81700000D02*
X150830000Y-82825300D01*
X153295000Y-86330000D02*
X153295000Y-84804700D01*
X107285300Y-63170000D02*
X107285300Y-61644700D01*
X107285300Y-61644700D02*
X108018600Y-60911400D01*
X108018600Y-60911400D02*
X108762100Y-60911400D01*
X108762100Y-60911400D02*
X114332900Y-66482200D01*
X114332900Y-66482200D02*
X114332900Y-71169300D01*
X114332900Y-71169300D02*
X114188400Y-71313800D01*
X114188400Y-71313800D02*
X114188400Y-81821400D01*
X114188400Y-81821400D02*
X114898300Y-82531300D01*
X114898300Y-82531300D02*
X114898300Y-84543600D01*
X114898300Y-84543600D02*
X120106100Y-89751400D01*
X120106100Y-89751400D02*
X121863500Y-89751400D01*
X121863500Y-89751400D02*
X126770100Y-84844800D01*
X126770100Y-84844800D02*
X126770100Y-83954300D01*
X105760000Y-63170000D02*
X107285300Y-63170000D01*
X150755000Y-84804700D02*
X148775600Y-82825300D01*
X148775600Y-82825300D02*
X148290000Y-82825300D01*
X148290000Y-81700000D02*
X148290000Y-82825300D01*
X150755000Y-86330000D02*
X150755000Y-84804700D01*
X109897100Y-92142800D02*
X110387000Y-91652900D01*
X110387000Y-91652900D02*
X110387000Y-85386600D01*
X110387000Y-85386600D02*
X108941100Y-83940700D01*
X108941100Y-83940700D02*
X108941100Y-76606100D01*
X108941100Y-76606100D02*
X108279300Y-75944300D01*
X108279300Y-75944300D02*
X108279300Y-66704000D01*
X108279300Y-66704000D02*
X107285300Y-65710000D01*
X105760000Y-65710000D02*
X107285300Y-65710000D01*
X107285300Y-68250000D02*
X107285300Y-77218500D01*
X107285300Y-77218500D02*
X108490700Y-78423900D01*
X108490700Y-78423900D02*
X108490700Y-84127200D01*
X108490700Y-84127200D02*
X109661700Y-85298200D01*
X109661700Y-85298200D02*
X109661700Y-90619500D01*
X105760000Y-68250000D02*
X107285300Y-68250000D01*
X131040800Y-81940000D02*
X125350400Y-76249600D01*
X125350400Y-76249600D02*
X125350400Y-75120800D01*
X125350400Y-75120800D02*
X124685000Y-74455400D01*
X124685000Y-74455400D02*
X120132000Y-74455400D01*
X120132000Y-74455400D02*
X119141600Y-73465000D01*
X119141600Y-73465000D02*
X119141600Y-73298700D01*
X143135000Y-86330000D02*
X143135000Y-84804700D01*
X140670000Y-81700000D02*
X140670000Y-82825300D01*
X143135000Y-84804700D02*
X142649400Y-84804700D01*
X142649400Y-84804700D02*
X140670000Y-82825300D01*
X115815700Y-76300000D02*
X115577600Y-76538100D01*
X115577600Y-76538100D02*
X115577600Y-81229400D01*
X115577600Y-81229400D02*
X118445300Y-84097100D01*
X138130000Y-81700000D02*
X138130000Y-82825300D01*
X140595000Y-86330000D02*
X140595000Y-84804700D01*
X140595000Y-84804700D02*
X138615600Y-82825300D01*
X138615600Y-82825300D02*
X138130000Y-82825300D01*
X124115000Y-84521700D02*
X123995900Y-84640800D01*
X123995900Y-84640800D02*
X120126100Y-84640800D01*
X120126100Y-84640800D02*
X116302900Y-80817600D01*
X116302900Y-80817600D02*
X116302900Y-77686300D01*
X104234700Y-55550000D02*
X103733100Y-56051600D01*
X103733100Y-56051600D02*
X103733100Y-86061500D01*
X103733100Y-86061500D02*
X104971600Y-87300000D01*
X104971600Y-87300000D02*
X106485600Y-87300000D01*
X106485600Y-87300000D02*
X107294900Y-88109300D01*
X107294900Y-88109300D02*
X107294900Y-98598300D01*
X107294900Y-98598300D02*
X104438400Y-101454800D01*
X105760000Y-55550000D02*
X104234700Y-55550000D01*
M02*
