G04 #@! TF.GenerationSoftware,KiCad,Pcbnew,(5.1.5)-3*
G04 #@! TF.CreationDate,2022-06-16T07:38:39-05:00*
G04 #@! TF.ProjectId,Z8065C02,5a383036-3543-4303-922e-6b696361645f,rev?*
G04 #@! TF.SameCoordinates,Original*
G04 #@! TF.FileFunction,Copper,L1,Top*
G04 #@! TF.FilePolarity,Positive*
%FSLAX46Y46*%
G04 Gerber Fmt 4.6, Leading zero omitted, Abs format (unit mm)*
G04 Created by KiCad (PCBNEW (5.1.5)-3) date 2022-06-16 07:38:39*
%MOMM*%
%LPD*%
G04 APERTURE LIST*
%ADD10O,1.600000X1.600000*%
%ADD11C,1.600000*%
%ADD12O,2.400000X1.600000*%
%ADD13R,2.400000X1.600000*%
%ADD14C,1.200000*%
%ADD15R,1.200000X1.200000*%
%ADD16R,1.600000X1.600000*%
%ADD17O,1.700000X1.700000*%
%ADD18R,1.700000X1.700000*%
%ADD19C,2.000000*%
%ADD20O,1.600000X2.400000*%
%ADD21R,1.600000X2.400000*%
%ADD22C,1.800000*%
%ADD23R,1.800000X1.800000*%
%ADD24O,1.800000X1.800000*%
%ADD25C,2.100000*%
%ADD26C,1.750000*%
%ADD27C,0.800000*%
%ADD28C,0.750000*%
%ADD29C,0.250000*%
%ADD30C,0.800000*%
G04 APERTURE END LIST*
D10*
X95120000Y-70900000D03*
D11*
X87500000Y-70900000D03*
D12*
X105760000Y-93650000D03*
X121000000Y-45390000D03*
X105760000Y-91110000D03*
X121000000Y-47930000D03*
X105760000Y-88570000D03*
X121000000Y-50470000D03*
X105760000Y-86030000D03*
X121000000Y-53010000D03*
X105760000Y-83490000D03*
X121000000Y-55550000D03*
X105760000Y-80950000D03*
X121000000Y-58090000D03*
X105760000Y-78410000D03*
X121000000Y-60630000D03*
X105760000Y-75870000D03*
X121000000Y-63170000D03*
X105760000Y-73330000D03*
X121000000Y-65710000D03*
X105760000Y-70790000D03*
X121000000Y-68250000D03*
X105760000Y-68250000D03*
X121000000Y-70790000D03*
X105760000Y-65710000D03*
X121000000Y-73330000D03*
X105760000Y-63170000D03*
X121000000Y-75870000D03*
X105760000Y-60630000D03*
X121000000Y-78410000D03*
X105760000Y-58090000D03*
X121000000Y-80950000D03*
X105760000Y-55550000D03*
X121000000Y-83490000D03*
X105760000Y-53010000D03*
X121000000Y-86030000D03*
X105760000Y-50470000D03*
X121000000Y-88570000D03*
X105760000Y-47930000D03*
X121000000Y-91110000D03*
X105760000Y-45390000D03*
D13*
X121000000Y-93650000D03*
D14*
X108475000Y-39475000D03*
D15*
X110475000Y-39475000D03*
D14*
X126425000Y-75925000D03*
D15*
X124425000Y-75925000D03*
D10*
X155910000Y-81700000D03*
X153370000Y-81700000D03*
X150830000Y-81700000D03*
X148290000Y-81700000D03*
X145750000Y-81700000D03*
X143210000Y-81700000D03*
X140670000Y-81700000D03*
X138130000Y-81700000D03*
X135590000Y-81700000D03*
D16*
X133050000Y-81700000D03*
D10*
X120195000Y-36050000D03*
D11*
X112575000Y-36050000D03*
D10*
X98605000Y-35975000D03*
D11*
X106225000Y-35975000D03*
D17*
X73760000Y-71405000D03*
X76300000Y-71405000D03*
X73760000Y-73945000D03*
X76300000Y-73945000D03*
X73760000Y-76485000D03*
X76300000Y-76485000D03*
X73760000Y-79025000D03*
D18*
X76300000Y-79025000D03*
D17*
X165490000Y-103910000D03*
X162950000Y-103910000D03*
X165490000Y-101370000D03*
X162950000Y-101370000D03*
X165490000Y-98830000D03*
X162950000Y-98830000D03*
X165490000Y-96290000D03*
X162950000Y-96290000D03*
X165490000Y-93750000D03*
X162950000Y-93750000D03*
X165490000Y-91210000D03*
X162950000Y-91210000D03*
X165490000Y-88670000D03*
X162950000Y-88670000D03*
X165490000Y-86130000D03*
X162950000Y-86130000D03*
X165490000Y-83590000D03*
X162950000Y-83590000D03*
X165490000Y-81050000D03*
X162950000Y-81050000D03*
X165490000Y-78510000D03*
X162950000Y-78510000D03*
X165490000Y-75970000D03*
X162950000Y-75970000D03*
X165490000Y-73430000D03*
X162950000Y-73430000D03*
X165490000Y-70890000D03*
X162950000Y-70890000D03*
X165490000Y-68350000D03*
X162950000Y-68350000D03*
X165490000Y-65810000D03*
X162950000Y-65810000D03*
X165490000Y-63270000D03*
X162950000Y-63270000D03*
X165490000Y-60730000D03*
X162950000Y-60730000D03*
X165490000Y-58190000D03*
X162950000Y-58190000D03*
X165490000Y-55650000D03*
X162950000Y-55650000D03*
X165490000Y-53110000D03*
X162950000Y-53110000D03*
X165490000Y-50570000D03*
X162950000Y-50570000D03*
X165490000Y-48030000D03*
X162950000Y-48030000D03*
X165490000Y-45490000D03*
X162950000Y-45490000D03*
X165490000Y-42950000D03*
D18*
X162950000Y-42950000D03*
D19*
X98150000Y-129375000D03*
X98150000Y-124375000D03*
X84200000Y-105900000D03*
X79200000Y-105900000D03*
D20*
X79475000Y-121855000D03*
X94715000Y-129475000D03*
X82015000Y-121855000D03*
X92175000Y-129475000D03*
X84555000Y-121855000D03*
X89635000Y-129475000D03*
X87095000Y-121855000D03*
X87095000Y-129475000D03*
X89635000Y-121855000D03*
X84555000Y-129475000D03*
X92175000Y-121855000D03*
X82015000Y-129475000D03*
X94715000Y-121855000D03*
D21*
X79475000Y-129475000D03*
D17*
X73950000Y-86520000D03*
X73950000Y-89060000D03*
D18*
X73950000Y-91600000D03*
D19*
X89975000Y-35975000D03*
X94975000Y-35975000D03*
D10*
X93730000Y-87225000D03*
D11*
X101350000Y-87225000D03*
D22*
X72525000Y-97460000D03*
D23*
X72525000Y-100000000D03*
D10*
X89860000Y-87050000D03*
D11*
X82240000Y-87050000D03*
D10*
X82240000Y-97850000D03*
D11*
X89860000Y-97850000D03*
D10*
X89860000Y-90650000D03*
D11*
X82240000Y-90650000D03*
D10*
X89860000Y-94250000D03*
D11*
X82240000Y-94250000D03*
D22*
X72525000Y-120500000D03*
D23*
X72525000Y-123040000D03*
D22*
X72525000Y-103220000D03*
D23*
X72525000Y-105760000D03*
D22*
X72525000Y-114740000D03*
D23*
X72525000Y-117280000D03*
D22*
X72525000Y-108980000D03*
D23*
X72525000Y-111520000D03*
D24*
X100225000Y-91880000D03*
D23*
X100225000Y-99500000D03*
D19*
X97975000Y-108750000D03*
X97975000Y-103750000D03*
X82150000Y-63275000D03*
X82150000Y-58275000D03*
X82150000Y-79750000D03*
X82150000Y-74750000D03*
X120775000Y-97875000D03*
X115775000Y-97875000D03*
X129750000Y-72350000D03*
X129750000Y-67350000D03*
X129500000Y-56675000D03*
X129500000Y-51675000D03*
X81800000Y-46625000D03*
X81800000Y-41625000D03*
X129925000Y-40800000D03*
X129925000Y-35800000D03*
X129425000Y-109200000D03*
X129425000Y-104200000D03*
X129625000Y-91400000D03*
X129625000Y-86400000D03*
D10*
X103075000Y-121780000D03*
X120855000Y-129400000D03*
X105615000Y-121780000D03*
X118315000Y-129400000D03*
X108155000Y-121780000D03*
X115775000Y-129400000D03*
X110695000Y-121780000D03*
X113235000Y-129400000D03*
X113235000Y-121780000D03*
X110695000Y-129400000D03*
X115775000Y-121780000D03*
X108155000Y-129400000D03*
X118315000Y-121780000D03*
X105615000Y-129400000D03*
X120855000Y-121780000D03*
D16*
X103075000Y-129400000D03*
D10*
X138125000Y-121730000D03*
X155905000Y-129350000D03*
X140665000Y-121730000D03*
X153365000Y-129350000D03*
X143205000Y-121730000D03*
X150825000Y-129350000D03*
X145745000Y-121730000D03*
X148285000Y-129350000D03*
X148285000Y-121730000D03*
X145745000Y-129350000D03*
X150825000Y-121730000D03*
X143205000Y-129350000D03*
X153365000Y-121730000D03*
X140665000Y-129350000D03*
X155905000Y-121730000D03*
D16*
X138125000Y-129350000D03*
D20*
X85500000Y-41705000D03*
X100740000Y-49325000D03*
X88040000Y-41705000D03*
X98200000Y-49325000D03*
X90580000Y-41705000D03*
X95660000Y-49325000D03*
X93120000Y-41705000D03*
X93120000Y-49325000D03*
X95660000Y-41705000D03*
X90580000Y-49325000D03*
X98200000Y-41705000D03*
X88040000Y-49325000D03*
X100740000Y-41705000D03*
D21*
X85500000Y-49325000D03*
D20*
X85500000Y-74780000D03*
X100740000Y-82400000D03*
X88040000Y-74780000D03*
X98200000Y-82400000D03*
X90580000Y-74780000D03*
X95660000Y-82400000D03*
X93120000Y-74780000D03*
X93120000Y-82400000D03*
X95660000Y-74780000D03*
X90580000Y-82400000D03*
X98200000Y-74780000D03*
X88040000Y-82400000D03*
X100740000Y-74780000D03*
D21*
X85500000Y-82400000D03*
D20*
X133250000Y-35805000D03*
X156110000Y-43425000D03*
X135790000Y-35805000D03*
X153570000Y-43425000D03*
X138330000Y-35805000D03*
X151030000Y-43425000D03*
X140870000Y-35805000D03*
X148490000Y-43425000D03*
X143410000Y-35805000D03*
X145950000Y-43425000D03*
X145950000Y-35805000D03*
X143410000Y-43425000D03*
X148490000Y-35805000D03*
X140870000Y-43425000D03*
X151030000Y-35805000D03*
X138330000Y-43425000D03*
X153570000Y-35805000D03*
X135790000Y-43425000D03*
X156110000Y-35805000D03*
D21*
X133250000Y-43425000D03*
D20*
X101100000Y-103855000D03*
X123960000Y-111475000D03*
X103640000Y-103855000D03*
X121420000Y-111475000D03*
X106180000Y-103855000D03*
X118880000Y-111475000D03*
X108720000Y-103855000D03*
X116340000Y-111475000D03*
X111260000Y-103855000D03*
X113800000Y-111475000D03*
X113800000Y-103855000D03*
X111260000Y-111475000D03*
X116340000Y-103855000D03*
X108720000Y-111475000D03*
X118880000Y-103855000D03*
X106180000Y-111475000D03*
X121420000Y-103855000D03*
X103640000Y-111475000D03*
X123960000Y-103855000D03*
D21*
X101100000Y-111475000D03*
D20*
X133000000Y-51571700D03*
X155860000Y-59191700D03*
X135540000Y-51571700D03*
X153320000Y-59191700D03*
X138080000Y-51571700D03*
X150780000Y-59191700D03*
X140620000Y-51571700D03*
X148240000Y-59191700D03*
X143160000Y-51571700D03*
X145700000Y-59191700D03*
X145700000Y-51571700D03*
X143160000Y-59191700D03*
X148240000Y-51571700D03*
X140620000Y-59191700D03*
X150780000Y-51571700D03*
X138080000Y-59191700D03*
X153320000Y-51571700D03*
X135540000Y-59191700D03*
X155860000Y-51571700D03*
D21*
X133000000Y-59191700D03*
D20*
X132975000Y-86330000D03*
X155835000Y-93950000D03*
X135515000Y-86330000D03*
X153295000Y-93950000D03*
X138055000Y-86330000D03*
X150755000Y-93950000D03*
X140595000Y-86330000D03*
X148215000Y-93950000D03*
X143135000Y-86330000D03*
X145675000Y-93950000D03*
X145675000Y-86330000D03*
X143135000Y-93950000D03*
X148215000Y-86330000D03*
X140595000Y-93950000D03*
X150755000Y-86330000D03*
X138055000Y-93950000D03*
X153295000Y-86330000D03*
X135515000Y-93950000D03*
X155835000Y-86330000D03*
D21*
X132975000Y-93950000D03*
D20*
X132700000Y-104230000D03*
X155560000Y-111850000D03*
X135240000Y-104230000D03*
X153020000Y-111850000D03*
X137780000Y-104230000D03*
X150480000Y-111850000D03*
X140320000Y-104230000D03*
X147940000Y-111850000D03*
X142860000Y-104230000D03*
X145400000Y-111850000D03*
X145400000Y-104230000D03*
X142860000Y-111850000D03*
X147940000Y-104230000D03*
X140320000Y-111850000D03*
X150480000Y-104230000D03*
X137780000Y-111850000D03*
X153020000Y-104230000D03*
X135240000Y-111850000D03*
X155560000Y-104230000D03*
D21*
X132700000Y-111850000D03*
D20*
X78150000Y-109830000D03*
X93390000Y-117450000D03*
X80690000Y-109830000D03*
X90850000Y-117450000D03*
X83230000Y-109830000D03*
X88310000Y-117450000D03*
X85770000Y-109830000D03*
X85770000Y-117450000D03*
X88310000Y-109830000D03*
X83230000Y-117450000D03*
X90850000Y-109830000D03*
X80690000Y-117450000D03*
X93390000Y-109830000D03*
D21*
X78150000Y-117450000D03*
D20*
X85500000Y-58330000D03*
X100740000Y-65950000D03*
X88040000Y-58330000D03*
X98200000Y-65950000D03*
X90580000Y-58330000D03*
X95660000Y-65950000D03*
X93120000Y-58330000D03*
X93120000Y-65950000D03*
X95660000Y-58330000D03*
X90580000Y-65950000D03*
X98200000Y-58330000D03*
X88040000Y-65950000D03*
X100740000Y-58330000D03*
D21*
X85500000Y-65950000D03*
D20*
X133025000Y-67338300D03*
X155885000Y-74958300D03*
X135565000Y-67338300D03*
X153345000Y-74958300D03*
X138105000Y-67338300D03*
X150805000Y-74958300D03*
X140645000Y-67338300D03*
X148265000Y-74958300D03*
X143185000Y-67338300D03*
X145725000Y-74958300D03*
X145725000Y-67338300D03*
X143185000Y-74958300D03*
X148265000Y-67338300D03*
X140645000Y-74958300D03*
X150805000Y-67338300D03*
X138105000Y-74958300D03*
X153345000Y-67338300D03*
X135565000Y-74958300D03*
X155885000Y-67338300D03*
D21*
X133025000Y-74958300D03*
D25*
X73640000Y-42425000D03*
D26*
X71150000Y-41175000D03*
X71150000Y-36675000D03*
D25*
X73640000Y-35415000D03*
D10*
X101205000Y-117138000D03*
X103745000Y-117138000D03*
X106285000Y-117138000D03*
X108825000Y-117138000D03*
X111365000Y-117138000D03*
X113905000Y-117138000D03*
X116445000Y-117138000D03*
X118985000Y-117138000D03*
D16*
X121525000Y-117138000D03*
D10*
X136255000Y-117088000D03*
X138795000Y-117088000D03*
X141335000Y-117088000D03*
X143875000Y-117088000D03*
X146415000Y-117088000D03*
X148955000Y-117088000D03*
X151495000Y-117088000D03*
X154035000Y-117088000D03*
D16*
X156575000Y-117088000D03*
D10*
X155810000Y-99137500D03*
X153270000Y-99137500D03*
X150730000Y-99137500D03*
X148190000Y-99137500D03*
X145650000Y-99137500D03*
X143110000Y-99137500D03*
X140570000Y-99137500D03*
X138030000Y-99137500D03*
X135490000Y-99137500D03*
D16*
X132950000Y-99137500D03*
D10*
X94525000Y-99320000D03*
D11*
X94525000Y-91700000D03*
D10*
X82240000Y-101450000D03*
D11*
X89860000Y-101450000D03*
D10*
X86545000Y-35950000D03*
D11*
X78925000Y-35950000D03*
D17*
X70875000Y-46535000D03*
D18*
X70875000Y-49075000D03*
D17*
X74150000Y-58795000D03*
X74150000Y-61335000D03*
D18*
X74150000Y-63875000D03*
D22*
X72525000Y-126260000D03*
D23*
X72525000Y-128800000D03*
D14*
X164375000Y-36300000D03*
D15*
X164375000Y-38300000D03*
D14*
X163475000Y-119400000D03*
D15*
X163475000Y-117400000D03*
D14*
X77900000Y-54650000D03*
D15*
X77900000Y-52650000D03*
D27*
X158557100Y-57416400D03*
X84141400Y-86046100D03*
X147947800Y-71639100D03*
X123683500Y-64039100D03*
X103767300Y-97255500D03*
X147199600Y-68667200D03*
X134672000Y-97599000D03*
X101447100Y-96802200D03*
X156664400Y-69399000D03*
X146382700Y-88953300D03*
X160074700Y-85625300D03*
X159360700Y-86677600D03*
X159532400Y-53019000D03*
X108209600Y-64073500D03*
X109891000Y-65724200D03*
X110355700Y-67908200D03*
X109914400Y-63089700D03*
X155085800Y-80243600D03*
X113607600Y-70868800D03*
X108463700Y-62764100D03*
X160708100Y-52482600D03*
X134363900Y-47740800D03*
X110806000Y-71101600D03*
X143024900Y-63676600D03*
X141872500Y-96755000D03*
X108204400Y-87160200D03*
X118737200Y-78653700D03*
X124439200Y-63300200D03*
X109701600Y-67023200D03*
X110663900Y-101968900D03*
X138482500Y-109286500D03*
X107706600Y-48642800D03*
X101137300Y-51346500D03*
X140031700Y-45146800D03*
X108378300Y-61640400D03*
X112812600Y-96534300D03*
X147220000Y-42280700D03*
X112268600Y-67065300D03*
X134445700Y-57666400D03*
X120054600Y-105398200D03*
X133031900Y-108169400D03*
X147575100Y-41083200D03*
X137692000Y-49149300D03*
X126705700Y-48508900D03*
X145700000Y-62649200D03*
X136948700Y-64627300D03*
X126046000Y-62669700D03*
X86625400Y-76082300D03*
X102129600Y-92943200D03*
X99807100Y-95589300D03*
X98356400Y-95058100D03*
X103282700Y-55108500D03*
X102940700Y-91807000D03*
X109136100Y-94048800D03*
X125834300Y-82701900D03*
X126942100Y-82619800D03*
X126770100Y-83954300D03*
X109897100Y-92142800D03*
X109661700Y-90619500D03*
X119141600Y-73298700D03*
X131040800Y-81940000D03*
X115815700Y-76300000D03*
X118445300Y-84097100D03*
X116302900Y-77686300D03*
X124115000Y-84521700D03*
X104438400Y-101454800D03*
D28*
X100740000Y-65950000D02*
X100740000Y-67725300D01*
X99865300Y-79750000D02*
X100740000Y-80624700D01*
X82150000Y-79750000D02*
X99865300Y-79750000D01*
X100740000Y-67725300D02*
X102168400Y-69153700D01*
X102168400Y-69153700D02*
X102168400Y-77446900D01*
X102168400Y-77446900D02*
X99865300Y-79750000D01*
X100740000Y-82400000D02*
X100740000Y-80624700D01*
X155560000Y-111850000D02*
X155560000Y-110074700D01*
X155560000Y-110074700D02*
X157335300Y-108299400D01*
X157335300Y-108299400D02*
X157335300Y-101904700D01*
X157335300Y-101904700D02*
X162950000Y-96290000D01*
X155324600Y-72622600D02*
X155885000Y-73183000D01*
X129750000Y-72350000D02*
X130022600Y-72622600D01*
X130022600Y-72622600D02*
X155324600Y-72622600D01*
X155324600Y-72622600D02*
X155324600Y-72118300D01*
X155324600Y-72118300D02*
X157639800Y-69803100D01*
X157639800Y-69803100D02*
X157639800Y-62746800D01*
X157639800Y-62746800D02*
X155860000Y-60967000D01*
X155860000Y-59191700D02*
X155860000Y-60967000D01*
X155885000Y-74958300D02*
X155885000Y-73183000D01*
X84200000Y-105900000D02*
X95125000Y-105900000D01*
X95125000Y-105900000D02*
X97975000Y-108750000D01*
X155860000Y-57416400D02*
X158557100Y-57416400D01*
X155860000Y-59191700D02*
X155860000Y-57416400D01*
X140665000Y-129350000D02*
X143205000Y-129350000D01*
X93390000Y-117450000D02*
X93390000Y-115674700D01*
X129625000Y-91400000D02*
X125025300Y-91400000D01*
X125025300Y-91400000D02*
X122775300Y-93650000D01*
X110695000Y-129400000D02*
X113235000Y-129400000D01*
X108155000Y-129400000D02*
X110695000Y-129400000D01*
X72525000Y-128800000D02*
X74000300Y-128800000D01*
X94715000Y-129475000D02*
X94715000Y-131250300D01*
X94715000Y-131250300D02*
X76450600Y-131250300D01*
X76450600Y-131250300D02*
X74000300Y-128800000D01*
X103075000Y-129400000D02*
X101699700Y-129400000D01*
X98150000Y-129375000D02*
X101674700Y-129375000D01*
X101674700Y-129375000D02*
X101699700Y-129400000D01*
X70875000Y-46535000D02*
X70875000Y-45109700D01*
X70875000Y-45109700D02*
X69682400Y-43917100D01*
X69682400Y-43917100D02*
X69682400Y-38142600D01*
X69682400Y-38142600D02*
X71150000Y-36675000D01*
X79747600Y-46625000D02*
X79657600Y-46535000D01*
X79657600Y-46535000D02*
X70875000Y-46535000D01*
X97975000Y-108750000D02*
X97975000Y-111089700D01*
X97975000Y-111089700D02*
X93390000Y-115674700D01*
X115775000Y-129400000D02*
X118315000Y-129400000D01*
X113235000Y-129400000D02*
X115775000Y-129400000D01*
X103984700Y-45390000D02*
X97569700Y-45390000D01*
X97569700Y-45390000D02*
X95660000Y-43480300D01*
X77904000Y-54650000D02*
X77972400Y-54650000D01*
X77972400Y-54650000D02*
X79747600Y-52874800D01*
X79747600Y-52874800D02*
X79747600Y-46625000D01*
X77900000Y-54650000D02*
X77904000Y-54650000D01*
X77904000Y-54650000D02*
X77904000Y-63275000D01*
X77904000Y-63275000D02*
X76175300Y-63275000D01*
X76175300Y-63275000D02*
X75575300Y-63875000D01*
X82150000Y-63275000D02*
X77904000Y-63275000D01*
X123960000Y-111475000D02*
X123960000Y-109699700D01*
X129425000Y-109200000D02*
X124459700Y-109200000D01*
X124459700Y-109200000D02*
X123960000Y-109699700D01*
X153365000Y-129350000D02*
X155905000Y-129350000D01*
X150825000Y-129350000D02*
X153365000Y-129350000D01*
X105615000Y-129400000D02*
X108155000Y-129400000D01*
X81800000Y-46625000D02*
X86227700Y-46625000D01*
X86227700Y-46625000D02*
X88040000Y-48437300D01*
X79747600Y-46625000D02*
X81800000Y-46625000D01*
X88040000Y-48437300D02*
X88927600Y-47549700D01*
X88927600Y-47549700D02*
X90580000Y-47549700D01*
X148285000Y-129350000D02*
X150825000Y-129350000D01*
X90580000Y-49325000D02*
X90580000Y-47549700D01*
X88040000Y-49325000D02*
X88040000Y-48437300D01*
X108475000Y-39475000D02*
X108475000Y-42675000D01*
X108475000Y-42675000D02*
X105760000Y-45390000D01*
X105760000Y-45390000D02*
X103984700Y-45390000D01*
X95660000Y-41705000D02*
X95660000Y-39929700D01*
X89975000Y-35975000D02*
X93929700Y-39929700D01*
X93929700Y-39929700D02*
X95660000Y-39929700D01*
X74150000Y-63875000D02*
X75575300Y-63875000D01*
X95660000Y-41705000D02*
X95660000Y-43480300D01*
X118315000Y-129400000D02*
X120855000Y-129400000D01*
X121000000Y-93650000D02*
X122775300Y-93650000D01*
X105615000Y-129400000D02*
X103075000Y-129400000D01*
D29*
X82240000Y-101450000D02*
X83365300Y-101450000D01*
X100225000Y-91880000D02*
X98667300Y-91880000D01*
X98667300Y-91880000D02*
X91189200Y-99358100D01*
X91189200Y-99358100D02*
X85457200Y-99358100D01*
X85457200Y-99358100D02*
X83365300Y-101450000D01*
X77900000Y-52650000D02*
X76974700Y-52650000D01*
X76974700Y-52650000D02*
X72224300Y-47899600D01*
X72224300Y-47899600D02*
X70567700Y-47899600D01*
X70567700Y-47899600D02*
X68964800Y-46296700D01*
X68964800Y-46296700D02*
X68964800Y-37112700D01*
X68964800Y-37112700D02*
X72049000Y-34028500D01*
X72049000Y-34028500D02*
X77003500Y-34028500D01*
X77003500Y-34028500D02*
X78925000Y-35950000D01*
D30*
X133250000Y-35805000D02*
X129930000Y-35805000D01*
X129930000Y-35805000D02*
X129925000Y-35800000D01*
X98605000Y-35975000D02*
X100005300Y-35975000D01*
X110475000Y-39475000D02*
X109222800Y-38222800D01*
X109222800Y-38222800D02*
X102253100Y-38222800D01*
X102253100Y-38222800D02*
X100005300Y-35975000D01*
X85500000Y-82400000D02*
X85500000Y-84200300D01*
X82240000Y-87050000D02*
X82240000Y-86508600D01*
X82240000Y-86508600D02*
X84548300Y-84200300D01*
X84548300Y-84200300D02*
X85500000Y-84200300D01*
X94525000Y-91700000D02*
X99000000Y-87225000D01*
X99000000Y-87225000D02*
X101350000Y-87225000D01*
X91292100Y-92849600D02*
X93375400Y-92849600D01*
X93375400Y-92849600D02*
X94525000Y-91700000D01*
X101725300Y-99500000D02*
X114150000Y-99500000D01*
X114150000Y-99500000D02*
X115775000Y-97875000D01*
X82150000Y-74750000D02*
X83920300Y-72979700D01*
X83920300Y-72979700D02*
X85500000Y-72979700D01*
X79475000Y-121855000D02*
X79475000Y-120054700D01*
X78150000Y-109830000D02*
X78150000Y-111630300D01*
X78150000Y-111630300D02*
X76715000Y-113065300D01*
X76715000Y-113065300D02*
X76715000Y-118866300D01*
X76715000Y-118866300D02*
X77903400Y-120054700D01*
X77903400Y-120054700D02*
X79475000Y-120054700D01*
X97975000Y-103750000D02*
X95675000Y-101450000D01*
X95675000Y-101450000D02*
X89860000Y-101450000D01*
X100225000Y-102054700D02*
X99670300Y-102054700D01*
X99670300Y-102054700D02*
X97975000Y-103750000D01*
X83640400Y-92849600D02*
X91292100Y-92849600D01*
X82240000Y-94250000D02*
X83640400Y-92849600D01*
X83640400Y-92849600D02*
X82240000Y-91449200D01*
X82240000Y-91449200D02*
X82240000Y-90650000D01*
X120195000Y-36050000D02*
X121595300Y-36050000D01*
X129925000Y-35800000D02*
X121845300Y-35800000D01*
X121845300Y-35800000D02*
X121595300Y-36050000D01*
X163980000Y-117400000D02*
X163668000Y-117088000D01*
X163668000Y-117088000D02*
X156575000Y-117088000D01*
X163980000Y-117400000D02*
X163475000Y-117400000D01*
X167000000Y-94350000D02*
X167000000Y-96175000D01*
X167000000Y-96175000D02*
X166940000Y-96235000D01*
X166940000Y-96235000D02*
X166940000Y-115335000D01*
X166940000Y-115335000D02*
X164875000Y-117400000D01*
X164875000Y-117400000D02*
X163980000Y-117400000D01*
X132975000Y-86330000D02*
X132975000Y-88130300D01*
X129625000Y-86400000D02*
X131355300Y-88130300D01*
X131355300Y-88130300D02*
X132975000Y-88130300D01*
X95660000Y-49325000D02*
X95660000Y-47524700D01*
X81800000Y-41625000D02*
X85770300Y-45595300D01*
X85770300Y-45595300D02*
X93730600Y-45595300D01*
X93730600Y-45595300D02*
X95660000Y-47524700D01*
X132950000Y-99137500D02*
X132950000Y-100537800D01*
X132700000Y-102429700D02*
X132700000Y-100787800D01*
X132700000Y-100787800D02*
X132950000Y-100537800D01*
X129425000Y-104200000D02*
X131195300Y-102429700D01*
X131195300Y-102429700D02*
X132700000Y-102429700D01*
X85500000Y-74780000D02*
X85500000Y-72979700D01*
X130280900Y-68868800D02*
X129750000Y-68337900D01*
X129750000Y-68337900D02*
X129750000Y-67350000D01*
X133025000Y-69138600D02*
X130550700Y-69138600D01*
X130550700Y-69138600D02*
X130280900Y-68868800D01*
X130280900Y-68868800D02*
X124425000Y-74724700D01*
X124425000Y-75925000D02*
X124425000Y-74724700D01*
X89860000Y-97850000D02*
X91292100Y-96417900D01*
X91292100Y-96417900D02*
X91292100Y-92849600D01*
X167000000Y-68657900D02*
X167000000Y-39525000D01*
X167000000Y-39525000D02*
X165775000Y-38300000D01*
X165775000Y-38300000D02*
X164375000Y-38300000D01*
X100225000Y-99500000D02*
X101725300Y-99500000D01*
X101100000Y-103855000D02*
X101100000Y-102054700D01*
X101100000Y-102054700D02*
X100225000Y-102054700D01*
X100225000Y-102054700D02*
X100225000Y-101000300D01*
X100225000Y-99500000D02*
X100225000Y-101000300D01*
X132700000Y-104230000D02*
X132700000Y-102429700D01*
X133025000Y-67338300D02*
X133025000Y-69138600D01*
X165490000Y-68350000D02*
X166692000Y-68350000D01*
X166692000Y-68350000D02*
X167000000Y-68657900D01*
X167000000Y-68657900D02*
X167000000Y-94350000D01*
X167000000Y-94350000D02*
X166750000Y-94600000D01*
X166750000Y-94600000D02*
X166340000Y-94600000D01*
X166340000Y-94600000D02*
X165490000Y-93750000D01*
X85500000Y-72900000D02*
X87500000Y-70900000D01*
D29*
X85500000Y-72979700D02*
X85500000Y-72900000D01*
X162950000Y-86130000D02*
X162950000Y-87305300D01*
X155810000Y-99137500D02*
X155810000Y-98012200D01*
X155810000Y-98012200D02*
X160225600Y-93596600D01*
X160225600Y-93596600D02*
X160225600Y-89731900D01*
X160225600Y-89731900D02*
X162652200Y-87305300D01*
X162652200Y-87305300D02*
X162950000Y-87305300D01*
X105760000Y-86030000D02*
X109621900Y-86030000D01*
X109621900Y-86030000D02*
X118586500Y-77065400D01*
X118586500Y-77065400D02*
X125001100Y-77065400D01*
X125001100Y-77065400D02*
X125350400Y-76716100D01*
X125350400Y-76716100D02*
X125350400Y-74825100D01*
X125350400Y-74825100D02*
X129158000Y-71017500D01*
X129158000Y-71017500D02*
X147326200Y-71017500D01*
X147326200Y-71017500D02*
X147947800Y-71639100D01*
X105760000Y-86030000D02*
X104234700Y-86030000D01*
X84141400Y-86046100D02*
X84565100Y-85622400D01*
X84565100Y-85622400D02*
X103827100Y-85622400D01*
X103827100Y-85622400D02*
X104234700Y-86030000D01*
X73760000Y-79025000D02*
X73760000Y-76485000D01*
X73760000Y-73945000D02*
X73760000Y-71405000D01*
X164314700Y-55650000D02*
X164314700Y-56017400D01*
X164314700Y-56017400D02*
X163506800Y-56825300D01*
X163506800Y-56825300D02*
X160002800Y-56825300D01*
X160002800Y-56825300D02*
X159400900Y-56223400D01*
X159400900Y-56223400D02*
X151703200Y-56223400D01*
X151703200Y-56223400D02*
X149365300Y-58561300D01*
X149365300Y-58561300D02*
X149365300Y-60058000D01*
X149365300Y-60058000D02*
X148566000Y-60857300D01*
X148566000Y-60857300D02*
X139532300Y-60857300D01*
X139532300Y-60857300D02*
X138434200Y-61955400D01*
X138434200Y-61955400D02*
X128471100Y-61955400D01*
X128471100Y-61955400D02*
X126387400Y-64039100D01*
X126387400Y-64039100D02*
X123683500Y-64039100D01*
X165490000Y-55650000D02*
X164314700Y-55650000D01*
X76300000Y-79025000D02*
X76300000Y-77849700D01*
X85500000Y-49325000D02*
X85500000Y-50850300D01*
X85500000Y-50850300D02*
X84374700Y-51975600D01*
X84374700Y-51975600D02*
X84374700Y-62932000D01*
X84374700Y-62932000D02*
X77475300Y-69831400D01*
X77475300Y-69831400D02*
X77475300Y-77041800D01*
X77475300Y-77041800D02*
X76667400Y-77849700D01*
X76667400Y-77849700D02*
X76300000Y-77849700D01*
X103767300Y-97255500D02*
X109475100Y-97255500D01*
X109475100Y-97255500D02*
X110945900Y-95784700D01*
X110945900Y-95784700D02*
X117676300Y-95784700D01*
X117676300Y-95784700D02*
X118117100Y-96225500D01*
X118117100Y-96225500D02*
X132113500Y-96225500D01*
X132113500Y-96225500D02*
X134075400Y-98187400D01*
X134075400Y-98187400D02*
X134075400Y-105069400D01*
X134075400Y-105069400D02*
X134778100Y-105772100D01*
X134778100Y-105772100D02*
X135703200Y-105772100D01*
X135703200Y-105772100D02*
X136510000Y-104965300D01*
X136510000Y-104965300D02*
X136510000Y-103446500D01*
X136510000Y-103446500D02*
X137251900Y-102704600D01*
X137251900Y-102704600D02*
X138278600Y-102704600D01*
X138278600Y-102704600D02*
X139050000Y-103476000D01*
X139050000Y-103476000D02*
X139050000Y-104958900D01*
X139050000Y-104958900D02*
X139846500Y-105755400D01*
X139846500Y-105755400D02*
X145875500Y-105755400D01*
X145875500Y-105755400D02*
X146670000Y-104960900D01*
X146670000Y-104960900D02*
X146670000Y-103444000D01*
X146670000Y-103444000D02*
X147963800Y-102150200D01*
X147963800Y-102150200D02*
X155035500Y-102150200D01*
X155035500Y-102150200D02*
X161635300Y-95550400D01*
X161635300Y-95550400D02*
X161635300Y-93349900D01*
X161635300Y-93349900D02*
X162599900Y-92385300D01*
X162599900Y-92385300D02*
X163506800Y-92385300D01*
X163506800Y-92385300D02*
X164314700Y-91577400D01*
X164314700Y-91577400D02*
X164314700Y-91210000D01*
X165490000Y-91210000D02*
X164314700Y-91210000D01*
X95660000Y-64424700D02*
X102417600Y-64424700D01*
X102417600Y-64424700D02*
X104972900Y-66980000D01*
X104972900Y-66980000D02*
X106505400Y-66980000D01*
X106505400Y-66980000D02*
X109789300Y-70263900D01*
X109789300Y-70263900D02*
X109789300Y-71150400D01*
X109789300Y-71150400D02*
X110683300Y-72044400D01*
X110683300Y-72044400D02*
X122529800Y-72044400D01*
X122529800Y-72044400D02*
X129275500Y-65298700D01*
X129275500Y-65298700D02*
X136594400Y-65298700D01*
X136594400Y-65298700D02*
X137108700Y-65813000D01*
X137108700Y-65813000D02*
X148265000Y-65813000D01*
X95660000Y-65950000D02*
X95660000Y-64424700D01*
X148265000Y-67338300D02*
X148265000Y-65813000D01*
X138105000Y-68863600D02*
X147003200Y-68863600D01*
X147003200Y-68863600D02*
X147199600Y-68667200D01*
X138105000Y-67338300D02*
X138105000Y-68863600D01*
X162950000Y-84765300D02*
X163317300Y-84765300D01*
X163317300Y-84765300D02*
X164125400Y-85573400D01*
X164125400Y-85573400D02*
X164125400Y-89195600D01*
X164125400Y-89195600D02*
X163381000Y-89940000D01*
X163381000Y-89940000D02*
X162546200Y-89940000D01*
X162546200Y-89940000D02*
X160734600Y-91751600D01*
X160734600Y-91751600D02*
X160734600Y-95814200D01*
X160734600Y-95814200D02*
X155374000Y-101174800D01*
X155374000Y-101174800D02*
X145991300Y-101174800D01*
X145991300Y-101174800D02*
X144235300Y-99418800D01*
X144235300Y-99418800D02*
X144235300Y-99137500D01*
X143110000Y-99137500D02*
X144235300Y-99137500D01*
X162950000Y-83590000D02*
X162950000Y-84765300D01*
X101447100Y-96802200D02*
X101797100Y-96452200D01*
X101797100Y-96452200D02*
X107758600Y-96452200D01*
X107758600Y-96452200D02*
X108885800Y-95325000D01*
X108885800Y-95325000D02*
X117853500Y-95325000D01*
X117853500Y-95325000D02*
X118247500Y-95719000D01*
X118247500Y-95719000D02*
X132792000Y-95719000D01*
X132792000Y-95719000D02*
X134672000Y-97599000D01*
X146775300Y-99137500D02*
X146775300Y-99418800D01*
X146775300Y-99418800D02*
X148081000Y-100724500D01*
X148081000Y-100724500D02*
X153299900Y-100724500D01*
X153299900Y-100724500D02*
X154395400Y-99629000D01*
X154395400Y-99629000D02*
X154395400Y-98643700D01*
X154395400Y-98643700D02*
X159584900Y-93454200D01*
X159584900Y-93454200D02*
X159584900Y-89735600D01*
X159584900Y-89735600D02*
X161774700Y-87545800D01*
X161774700Y-87545800D02*
X161774700Y-83033200D01*
X161774700Y-83033200D02*
X162582600Y-82225300D01*
X162582600Y-82225300D02*
X162950000Y-82225300D01*
X162950000Y-81050000D02*
X162950000Y-82225300D01*
X145650000Y-99137500D02*
X146775300Y-99137500D01*
X138055000Y-95475300D02*
X138559200Y-95979500D01*
X138559200Y-95979500D02*
X146677300Y-95979500D01*
X146677300Y-95979500D02*
X149460000Y-98762200D01*
X149460000Y-98762200D02*
X149460000Y-99471900D01*
X149460000Y-99471900D02*
X150262200Y-100274100D01*
X150262200Y-100274100D02*
X151219200Y-100274100D01*
X151219200Y-100274100D02*
X152141400Y-99351900D01*
X152141400Y-99351900D02*
X152141400Y-98598300D01*
X152141400Y-98598300D02*
X153810500Y-96929200D01*
X153810500Y-96929200D02*
X154893300Y-96929200D01*
X154893300Y-96929200D02*
X158893300Y-92929200D01*
X158893300Y-92929200D02*
X158893300Y-88852200D01*
X158893300Y-88852200D02*
X161237100Y-86508400D01*
X161237100Y-86508400D02*
X161237100Y-81088800D01*
X161237100Y-81088800D02*
X162640600Y-79685300D01*
X162640600Y-79685300D02*
X163506800Y-79685300D01*
X163506800Y-79685300D02*
X164314700Y-78877400D01*
X164314700Y-78877400D02*
X164314700Y-78510000D01*
X165490000Y-78510000D02*
X164314700Y-78510000D01*
X138055000Y-93950000D02*
X138055000Y-95475300D01*
X93120000Y-80874700D02*
X98689400Y-80874700D01*
X98689400Y-80874700D02*
X99410200Y-81595500D01*
X99410200Y-81595500D02*
X99410200Y-83079600D01*
X99410200Y-83079600D02*
X100257000Y-83926400D01*
X100257000Y-83926400D02*
X101275600Y-83926400D01*
X101275600Y-83926400D02*
X102964000Y-82238000D01*
X102964000Y-82238000D02*
X102964000Y-81678300D01*
X102964000Y-81678300D02*
X104962300Y-79680000D01*
X104962300Y-79680000D02*
X115335000Y-79680000D01*
X115335000Y-79680000D02*
X117028200Y-77986800D01*
X117028200Y-77986800D02*
X117028200Y-77835400D01*
X117028200Y-77835400D02*
X120151700Y-74711900D01*
X120151700Y-74711900D02*
X121629100Y-74711900D01*
X121629100Y-74711900D02*
X126695700Y-69645300D01*
X126695700Y-69645300D02*
X126695700Y-68515500D01*
X126695700Y-68515500D02*
X129409800Y-65801400D01*
X129409800Y-65801400D02*
X133479700Y-65801400D01*
X133479700Y-65801400D02*
X134439600Y-66761300D01*
X134439600Y-66761300D02*
X134439600Y-68286400D01*
X134439600Y-68286400D02*
X135552200Y-69399000D01*
X135552200Y-69399000D02*
X156664400Y-69399000D01*
X73950000Y-90424700D02*
X74694700Y-90424700D01*
X74694700Y-90424700D02*
X84244700Y-80874700D01*
X84244700Y-80874700D02*
X93120000Y-80874700D01*
X93120000Y-82400000D02*
X93120000Y-80874700D01*
X73950000Y-91600000D02*
X73950000Y-90424700D01*
X135515000Y-92424700D02*
X137639800Y-90299900D01*
X137639800Y-90299900D02*
X145036100Y-90299900D01*
X145036100Y-90299900D02*
X146382700Y-88953300D01*
X135515000Y-93950000D02*
X135515000Y-92424700D01*
X160074700Y-85625300D02*
X160786700Y-84913300D01*
X160786700Y-84913300D02*
X160786700Y-78941300D01*
X160786700Y-78941300D02*
X162582700Y-77145300D01*
X162582700Y-77145300D02*
X162950000Y-77145300D01*
X162950000Y-75970000D02*
X162950000Y-77145300D01*
X159360700Y-86677600D02*
X159349300Y-86666200D01*
X159349300Y-86666200D02*
X159349300Y-84954800D01*
X159349300Y-84954800D02*
X160336400Y-83967700D01*
X160336400Y-83967700D02*
X160336400Y-76921100D01*
X160336400Y-76921100D02*
X162652200Y-74605300D01*
X162652200Y-74605300D02*
X163506800Y-74605300D01*
X163506800Y-74605300D02*
X164314700Y-73797400D01*
X164314700Y-73797400D02*
X164314700Y-73430000D01*
X165490000Y-73430000D02*
X164314700Y-73430000D01*
X150730000Y-98012200D02*
X151292600Y-98012200D01*
X151292600Y-98012200D02*
X154565000Y-94739800D01*
X154565000Y-94739800D02*
X154565000Y-91825800D01*
X154565000Y-91825800D02*
X158448700Y-87942100D01*
X158448700Y-87942100D02*
X158448700Y-84971600D01*
X158448700Y-84971600D02*
X159886100Y-83534200D01*
X159886100Y-83534200D02*
X159886100Y-76493900D01*
X159886100Y-76493900D02*
X162950000Y-73430000D01*
X150730000Y-99137500D02*
X150730000Y-98012200D01*
X140595000Y-95475300D02*
X151233000Y-95475300D01*
X151233000Y-95475300D02*
X152025000Y-94683300D01*
X152025000Y-94683300D02*
X152025000Y-93219700D01*
X152025000Y-93219700D02*
X157998400Y-87246300D01*
X157998400Y-87246300D02*
X157998400Y-84785000D01*
X157998400Y-84785000D02*
X159404700Y-83378700D01*
X159404700Y-83378700D02*
X159404700Y-75311300D01*
X159404700Y-75311300D02*
X162650700Y-72065300D01*
X162650700Y-72065300D02*
X163506800Y-72065300D01*
X163506800Y-72065300D02*
X164314700Y-71257400D01*
X164314700Y-71257400D02*
X164314700Y-70890000D01*
X140595000Y-93950000D02*
X140595000Y-95475300D01*
X165490000Y-70890000D02*
X164314700Y-70890000D01*
X138080000Y-50158700D02*
X137895900Y-49974600D01*
X137895900Y-49974600D02*
X128176700Y-49974600D01*
X128176700Y-49974600D02*
X126555900Y-51595400D01*
X126555900Y-51595400D02*
X120368800Y-51595400D01*
X120368800Y-51595400D02*
X109189100Y-62775100D01*
X109189100Y-62775100D02*
X109189100Y-63094000D01*
X109189100Y-63094000D02*
X108209600Y-64073500D01*
X138080000Y-50158700D02*
X138642700Y-49596000D01*
X138642700Y-49596000D02*
X156109400Y-49596000D01*
X156109400Y-49596000D02*
X159532400Y-53019000D01*
X138080000Y-51571700D02*
X138080000Y-50158700D01*
X165490000Y-65810000D02*
X165490000Y-66985300D01*
X150755000Y-93950000D02*
X150755000Y-92424700D01*
X150755000Y-92424700D02*
X151736600Y-92424700D01*
X151736600Y-92424700D02*
X156960400Y-87200900D01*
X156960400Y-87200900D02*
X156960400Y-84615100D01*
X156960400Y-84615100D02*
X158615700Y-82959800D01*
X158615700Y-82959800D02*
X158615700Y-73562000D01*
X158615700Y-73562000D02*
X162652300Y-69525400D01*
X162652300Y-69525400D02*
X163475600Y-69525400D01*
X163475600Y-69525400D02*
X164314700Y-68686300D01*
X164314700Y-68686300D02*
X164314700Y-67793200D01*
X164314700Y-67793200D02*
X165122600Y-66985300D01*
X165122600Y-66985300D02*
X165490000Y-66985300D01*
X143160000Y-51571700D02*
X143160000Y-53097000D01*
X143160000Y-53097000D02*
X142259300Y-53997700D01*
X142259300Y-53997700D02*
X126213900Y-53997700D01*
X126213900Y-53997700D02*
X123391600Y-56820000D01*
X123391600Y-56820000D02*
X118795200Y-56820000D01*
X118795200Y-56820000D02*
X109891000Y-65724200D01*
X148215000Y-92424700D02*
X149263600Y-92424700D01*
X149263600Y-92424700D02*
X154565000Y-87123300D01*
X154565000Y-87123300D02*
X154565000Y-85352100D01*
X154565000Y-85352100D02*
X158145300Y-81771800D01*
X158145300Y-81771800D02*
X158145300Y-73139400D01*
X158145300Y-73139400D02*
X161369700Y-69915000D01*
X161369700Y-69915000D02*
X161369700Y-65723600D01*
X161369700Y-65723600D02*
X162648000Y-64445300D01*
X162648000Y-64445300D02*
X163506800Y-64445300D01*
X163506800Y-64445300D02*
X164314700Y-63637400D01*
X164314700Y-63637400D02*
X164314700Y-63270000D01*
X165490000Y-63270000D02*
X164314700Y-63270000D01*
X148215000Y-93950000D02*
X148215000Y-92424700D01*
X148240000Y-53097000D02*
X146079300Y-55257700D01*
X146079300Y-55257700D02*
X128985000Y-55257700D01*
X128985000Y-55257700D02*
X124882700Y-59360000D01*
X124882700Y-59360000D02*
X118903900Y-59360000D01*
X118903900Y-59360000D02*
X110355700Y-67908200D01*
X148240000Y-51571700D02*
X148240000Y-53097000D01*
X143135000Y-92424700D02*
X146723600Y-92424700D01*
X146723600Y-92424700D02*
X151896900Y-87251400D01*
X151896900Y-87251400D02*
X151896900Y-85736500D01*
X151896900Y-85736500D02*
X154579700Y-83053700D01*
X154579700Y-83053700D02*
X156226500Y-83053700D01*
X156226500Y-83053700D02*
X157695000Y-81585200D01*
X157695000Y-81585200D02*
X157695000Y-71691400D01*
X157695000Y-71691400D02*
X160263300Y-69123100D01*
X160263300Y-69123100D02*
X160263300Y-64290200D01*
X160263300Y-64290200D02*
X162648200Y-61905300D01*
X162648200Y-61905300D02*
X163506800Y-61905300D01*
X163506800Y-61905300D02*
X164314700Y-61097400D01*
X164314700Y-61097400D02*
X164314700Y-60730000D01*
X165490000Y-60730000D02*
X164314700Y-60730000D01*
X143135000Y-93950000D02*
X143135000Y-92424700D01*
X153320000Y-50046400D02*
X140111200Y-50046400D01*
X140111200Y-50046400D02*
X139350000Y-50807600D01*
X139350000Y-50807600D02*
X139350000Y-52295600D01*
X139350000Y-52295600D02*
X138548600Y-53097000D01*
X138548600Y-53097000D02*
X123848300Y-53097000D01*
X123848300Y-53097000D02*
X122627300Y-54318000D01*
X122627300Y-54318000D02*
X118686100Y-54318000D01*
X118686100Y-54318000D02*
X109914400Y-63089700D01*
X153320000Y-51571700D02*
X153320000Y-50046400D01*
X165490000Y-58190000D02*
X164314700Y-58190000D01*
X155085800Y-80243600D02*
X157244700Y-78084700D01*
X157244700Y-78084700D02*
X157244700Y-71504800D01*
X157244700Y-71504800D02*
X158716100Y-70033400D01*
X158716100Y-70033400D02*
X158716100Y-63270700D01*
X158716100Y-63270700D02*
X162621500Y-59365300D01*
X162621500Y-59365300D02*
X163506800Y-59365300D01*
X163506800Y-59365300D02*
X164314700Y-58557400D01*
X164314700Y-58557400D02*
X164314700Y-58190000D01*
X153320000Y-59017600D02*
X150579600Y-61758000D01*
X150579600Y-61758000D02*
X139934400Y-61758000D01*
X139934400Y-61758000D02*
X138691100Y-63001300D01*
X138691100Y-63001300D02*
X129017300Y-63001300D01*
X129017300Y-63001300D02*
X125038600Y-66980000D01*
X125038600Y-66980000D02*
X117496400Y-66980000D01*
X117496400Y-66980000D02*
X113607600Y-70868800D01*
X153320000Y-59017600D02*
X153320000Y-58843500D01*
X153320000Y-59191700D02*
X153320000Y-59017600D01*
X153320000Y-58843500D02*
X155489700Y-56673800D01*
X155489700Y-56673800D02*
X158861600Y-56673800D01*
X158861600Y-56673800D02*
X160377800Y-58190000D01*
X160377800Y-58190000D02*
X162950000Y-58190000D01*
X160708100Y-52482600D02*
X156630000Y-48404500D01*
X156630000Y-48404500D02*
X136293900Y-48404500D01*
X136293900Y-48404500D02*
X136232200Y-48466200D01*
X136232200Y-48466200D02*
X128093000Y-48466200D01*
X128093000Y-48466200D02*
X127287400Y-49271800D01*
X127287400Y-49271800D02*
X120163200Y-49271800D01*
X120163200Y-49271800D02*
X109239900Y-60195100D01*
X109239900Y-60195100D02*
X109239900Y-61987900D01*
X109239900Y-61987900D02*
X108463700Y-62764100D01*
X148240000Y-59191700D02*
X148240000Y-57666400D01*
X161774700Y-55650000D02*
X150256400Y-55650000D01*
X150256400Y-55650000D02*
X148240000Y-57666400D01*
X162950000Y-55650000D02*
X161774700Y-55650000D01*
X138330000Y-44950300D02*
X138330000Y-44837700D01*
X165490000Y-51934700D02*
X165122600Y-51934700D01*
X165122600Y-51934700D02*
X164314700Y-51126800D01*
X164314700Y-51126800D02*
X164314700Y-50206500D01*
X164314700Y-50206500D02*
X163441600Y-49333400D01*
X163441600Y-49333400D02*
X160651300Y-49333400D01*
X160651300Y-49333400D02*
X158967200Y-47649300D01*
X158967200Y-47649300D02*
X141029000Y-47649300D01*
X141029000Y-47649300D02*
X138330000Y-44950300D01*
X134363900Y-47740800D02*
X137154400Y-44950300D01*
X137154400Y-44950300D02*
X138330000Y-44950300D01*
X165490000Y-53110000D02*
X165490000Y-51934700D01*
X138330000Y-43425000D02*
X138330000Y-44837700D01*
X143024900Y-63676600D02*
X142799600Y-63901900D01*
X142799600Y-63901900D02*
X129390500Y-63901900D01*
X129390500Y-63901900D02*
X123772400Y-69520000D01*
X123772400Y-69520000D02*
X116051700Y-69520000D01*
X116051700Y-69520000D02*
X113977600Y-71594100D01*
X113977600Y-71594100D02*
X111298500Y-71594100D01*
X111298500Y-71594100D02*
X110806000Y-71101600D01*
X162950000Y-53110000D02*
X161774700Y-53110000D01*
X143160000Y-59191700D02*
X143160000Y-57666400D01*
X143160000Y-57666400D02*
X147507600Y-57666400D01*
X147507600Y-57666400D02*
X150888700Y-54285300D01*
X150888700Y-54285300D02*
X160599400Y-54285300D01*
X160599400Y-54285300D02*
X161774700Y-53110000D01*
X145400000Y-104230000D02*
X145400000Y-102704700D01*
X145400000Y-102704700D02*
X145018700Y-102704700D01*
X145018700Y-102704700D02*
X141872500Y-99558500D01*
X141872500Y-99558500D02*
X141872500Y-96755000D01*
X165490000Y-49394700D02*
X165122600Y-49394700D01*
X165122600Y-49394700D02*
X164314700Y-48586800D01*
X164314700Y-48586800D02*
X164314700Y-47730000D01*
X164314700Y-47730000D02*
X163250100Y-46665400D01*
X163250100Y-46665400D02*
X145125100Y-46665400D01*
X145125100Y-46665400D02*
X143410000Y-44950300D01*
X165490000Y-50570000D02*
X165490000Y-49394700D01*
X143410000Y-43425000D02*
X143410000Y-44950300D01*
X108204400Y-87160200D02*
X109413100Y-87160200D01*
X109413100Y-87160200D02*
X117919500Y-78653800D01*
X117919500Y-78653800D02*
X118737200Y-78653800D01*
X118737200Y-78653800D02*
X118737200Y-78653700D01*
X138080000Y-60717000D02*
X137443100Y-61353900D01*
X137443100Y-61353900D02*
X128435700Y-61353900D01*
X128435700Y-61353900D02*
X126345100Y-63444500D01*
X126345100Y-63444500D02*
X124583500Y-63444500D01*
X124583500Y-63444500D02*
X124439200Y-63300200D01*
X162950000Y-50570000D02*
X162950000Y-51745300D01*
X138080000Y-59191700D02*
X138080000Y-57666400D01*
X138080000Y-57666400D02*
X138530400Y-57216000D01*
X138530400Y-57216000D02*
X146640300Y-57216000D01*
X146640300Y-57216000D02*
X150021400Y-53834900D01*
X150021400Y-53834900D02*
X160397300Y-53834900D01*
X160397300Y-53834900D02*
X162486900Y-51745300D01*
X162486900Y-51745300D02*
X162950000Y-51745300D01*
X138080000Y-59625200D02*
X138080000Y-59191700D01*
X138080000Y-59625200D02*
X138080000Y-60717000D01*
X148931700Y-41458000D02*
X148931700Y-41412500D01*
X148931700Y-41412500D02*
X146938200Y-39419000D01*
X146938200Y-39419000D02*
X124923300Y-39419000D01*
X124923300Y-39419000D02*
X107434300Y-56908000D01*
X107434300Y-56908000D02*
X107434300Y-64755900D01*
X107434300Y-64755900D02*
X109701600Y-67023200D01*
X138482500Y-109286500D02*
X136170400Y-106974400D01*
X136170400Y-106974400D02*
X129569100Y-106974400D01*
X129569100Y-106974400D02*
X124563600Y-101968900D01*
X124563600Y-101968900D02*
X110663900Y-101968900D01*
X148931700Y-41458000D02*
X148490000Y-41899700D01*
X148931700Y-41458000D02*
X158863100Y-41458000D01*
X158863100Y-41458000D02*
X161715200Y-44310100D01*
X161715200Y-44310100D02*
X163502100Y-44310100D01*
X163502100Y-44310100D02*
X164314700Y-45122700D01*
X164314700Y-45122700D02*
X164314700Y-46046800D01*
X164314700Y-46046800D02*
X165122600Y-46854700D01*
X165122600Y-46854700D02*
X165490000Y-46854700D01*
X165490000Y-48030000D02*
X165490000Y-46854700D01*
X148490000Y-43425000D02*
X148490000Y-41899700D01*
X101137300Y-51346500D02*
X95566100Y-51346500D01*
X95566100Y-51346500D02*
X89310000Y-57602600D01*
X89310000Y-57602600D02*
X89310000Y-59111400D01*
X89310000Y-59111400D02*
X79268500Y-69152900D01*
X79268500Y-69152900D02*
X79268500Y-78250800D01*
X79268500Y-78250800D02*
X69840100Y-87679200D01*
X69840100Y-87679200D02*
X69840100Y-128420000D01*
X69840100Y-128420000D02*
X73371400Y-131951300D01*
X73371400Y-131951300D02*
X95066500Y-131951300D01*
X95066500Y-131951300D02*
X96824600Y-130193200D01*
X96824600Y-130193200D02*
X96824600Y-128826100D01*
X96824600Y-128826100D02*
X97831500Y-127819200D01*
X97831500Y-127819200D02*
X120796100Y-127819200D01*
X120796100Y-127819200D02*
X135240000Y-113375300D01*
X161774700Y-48030000D02*
X160943600Y-47198900D01*
X160943600Y-47198900D02*
X142083800Y-47198900D01*
X142083800Y-47198900D02*
X140031700Y-45146800D01*
X135240000Y-111850000D02*
X135240000Y-113375300D01*
X138330000Y-35805000D02*
X138330000Y-37330300D01*
X107706600Y-48642800D02*
X119019100Y-37330300D01*
X119019100Y-37330300D02*
X138330000Y-37330300D01*
X162950000Y-48030000D02*
X161774700Y-48030000D01*
X140320000Y-110324700D02*
X140320000Y-110093600D01*
X140320000Y-110093600D02*
X136750500Y-106524100D01*
X136750500Y-106524100D02*
X129802900Y-106524100D01*
X129802900Y-106524100D02*
X123204900Y-99926100D01*
X123204900Y-99926100D02*
X120051200Y-99926100D01*
X120051200Y-99926100D02*
X116659400Y-96534300D01*
X116659400Y-96534300D02*
X112812600Y-96534300D01*
X147220000Y-42280700D02*
X146355000Y-41415700D01*
X146355000Y-41415700D02*
X132103500Y-41415700D01*
X132103500Y-41415700D02*
X126933100Y-46586100D01*
X126933100Y-46586100D02*
X120350200Y-46586100D01*
X120350200Y-46586100D02*
X108378300Y-58558000D01*
X108378300Y-58558000D02*
X108378300Y-61640400D01*
X147220000Y-42280700D02*
X147220000Y-44181000D01*
X147220000Y-44181000D02*
X148529000Y-45490000D01*
X148529000Y-45490000D02*
X161774700Y-45490000D01*
X140320000Y-111850000D02*
X140320000Y-110324700D01*
X162950000Y-45490000D02*
X161774700Y-45490000D01*
X134445700Y-57666400D02*
X132065200Y-57666400D01*
X132065200Y-57666400D02*
X129949600Y-59782000D01*
X129949600Y-59782000D02*
X127008300Y-59782000D01*
X127008300Y-59782000D02*
X124256600Y-62533700D01*
X124256600Y-62533700D02*
X124138800Y-62533700D01*
X124138800Y-62533700D02*
X122306400Y-64366100D01*
X122306400Y-64366100D02*
X114967800Y-64366100D01*
X114967800Y-64366100D02*
X112268600Y-67065300D01*
X165490000Y-42950000D02*
X164314700Y-42950000D01*
X153570000Y-35805000D02*
X153570000Y-37330300D01*
X153570000Y-37330300D02*
X159503000Y-37330300D01*
X159503000Y-37330300D02*
X164314700Y-42142000D01*
X164314700Y-42142000D02*
X164314700Y-42950000D01*
X150480000Y-110324700D02*
X153526500Y-110324700D01*
X153526500Y-110324700D02*
X154145400Y-110943600D01*
X154145400Y-110943600D02*
X154145400Y-113886100D01*
X154145400Y-113886100D02*
X155195300Y-114936000D01*
X155195300Y-114936000D02*
X155195300Y-117573800D01*
X155195300Y-117573800D02*
X153619700Y-119149400D01*
X153619700Y-119149400D02*
X139230100Y-119149400D01*
X139230100Y-119149400D02*
X137525000Y-117444300D01*
X137525000Y-117444300D02*
X137525000Y-116720500D01*
X137525000Y-116720500D02*
X136510000Y-115705500D01*
X136510000Y-115705500D02*
X136510000Y-110552700D01*
X136510000Y-110552700D02*
X133382000Y-107424700D01*
X133382000Y-107424700D02*
X122081100Y-107424700D01*
X122081100Y-107424700D02*
X120054600Y-105398200D01*
X150480000Y-111850000D02*
X150480000Y-110324700D01*
X162950000Y-42950000D02*
X161774700Y-42950000D01*
X148490000Y-35805000D02*
X148490000Y-37330300D01*
X148490000Y-37330300D02*
X150954400Y-39794700D01*
X150954400Y-39794700D02*
X158619400Y-39794700D01*
X158619400Y-39794700D02*
X161774700Y-42950000D01*
X141335000Y-117088000D02*
X142460300Y-117088000D01*
X142460300Y-117088000D02*
X142460300Y-116806600D01*
X142460300Y-116806600D02*
X147416900Y-111850000D01*
X147416900Y-111850000D02*
X147940000Y-111850000D01*
X153020000Y-111850000D02*
X153020000Y-113375300D01*
X143875000Y-117088000D02*
X145000300Y-117088000D01*
X145000300Y-117088000D02*
X145000300Y-117353100D01*
X145000300Y-117353100D02*
X145864200Y-118217000D01*
X145864200Y-118217000D02*
X149426400Y-118217000D01*
X149426400Y-118217000D02*
X150225000Y-117418400D01*
X150225000Y-117418400D02*
X150225000Y-116170300D01*
X150225000Y-116170300D02*
X153020000Y-113375300D01*
X147940000Y-105755300D02*
X149082300Y-106897600D01*
X149082300Y-106897600D02*
X149082300Y-115835400D01*
X149082300Y-115835400D02*
X148955000Y-115962700D01*
X148955000Y-117088000D02*
X148955000Y-115962700D01*
X147940000Y-104230000D02*
X147940000Y-105755300D01*
X152909700Y-117088000D02*
X152909700Y-117369300D01*
X152909700Y-117369300D02*
X151588100Y-118690900D01*
X151588100Y-118690900D02*
X141316100Y-118690900D01*
X141316100Y-118690900D02*
X140178600Y-117553400D01*
X140178600Y-117553400D02*
X140178600Y-115159700D01*
X140178600Y-115159700D02*
X141448000Y-113890300D01*
X141448000Y-113890300D02*
X141448000Y-109423300D01*
X141448000Y-109423300D02*
X137780000Y-105755300D01*
X137780000Y-104230000D02*
X137780000Y-105755300D01*
X154035000Y-117088000D02*
X152909700Y-117088000D01*
X103745000Y-117138000D02*
X104870300Y-117138000D01*
X104870300Y-117138000D02*
X104870300Y-116856600D01*
X104870300Y-116856600D02*
X105714200Y-116012700D01*
X105714200Y-116012700D02*
X106722300Y-116012700D01*
X106722300Y-116012700D02*
X111260000Y-111475000D01*
X116340000Y-111475000D02*
X116340000Y-113000300D01*
X106285000Y-117138000D02*
X107410300Y-117138000D01*
X107410300Y-117138000D02*
X107410300Y-116856700D01*
X107410300Y-116856700D02*
X111266700Y-113000300D01*
X111266700Y-113000300D02*
X116340000Y-113000300D01*
X108825000Y-117138000D02*
X109950300Y-117138000D01*
X109950300Y-117138000D02*
X109950300Y-116856700D01*
X109950300Y-116856700D02*
X113298000Y-113509000D01*
X113298000Y-113509000D02*
X119386000Y-113509000D01*
X119386000Y-113509000D02*
X121420000Y-111475000D01*
X116340000Y-105380300D02*
X117388600Y-105380300D01*
X117388600Y-105380300D02*
X122553000Y-110544700D01*
X122553000Y-110544700D02*
X122553000Y-112340900D01*
X122553000Y-112340900D02*
X119635000Y-115258900D01*
X119635000Y-115258900D02*
X116628100Y-115258900D01*
X116628100Y-115258900D02*
X115030300Y-116856700D01*
X115030300Y-116856700D02*
X115030300Y-117138000D01*
X116340000Y-103855000D02*
X116340000Y-105380300D01*
X113905000Y-117138000D02*
X115030300Y-117138000D01*
X122525300Y-86030000D02*
X122525300Y-84979800D01*
X122525300Y-84979800D02*
X128758700Y-78746400D01*
X128758700Y-78746400D02*
X151082200Y-78746400D01*
X151082200Y-78746400D02*
X153345000Y-76483600D01*
X153345000Y-74958300D02*
X153345000Y-76483600D01*
X121000000Y-86030000D02*
X122525300Y-86030000D01*
X150805000Y-74958300D02*
X150805000Y-73433000D01*
X150805000Y-73433000D02*
X153870300Y-73433000D01*
X153870300Y-73433000D02*
X154471100Y-74033800D01*
X154471100Y-74033800D02*
X154471100Y-78120500D01*
X154471100Y-78120500D02*
X154312600Y-78279000D01*
X154312600Y-78279000D02*
X154312600Y-80780200D01*
X154312600Y-80780200D02*
X154496700Y-80964300D01*
X154496700Y-80964300D02*
X154496700Y-82211900D01*
X154496700Y-82211900D02*
X152046900Y-84661700D01*
X152046900Y-84661700D02*
X150365700Y-84661700D01*
X150365700Y-84661700D02*
X149485000Y-85542400D01*
X149485000Y-85542400D02*
X149485000Y-87121900D01*
X149485000Y-87121900D02*
X145630300Y-90976600D01*
X145630300Y-90976600D02*
X138988200Y-90976600D01*
X138988200Y-90976600D02*
X136904600Y-93060200D01*
X136904600Y-93060200D02*
X136904600Y-100797700D01*
X136904600Y-100797700D02*
X135240000Y-102462300D01*
X135240000Y-102462300D02*
X135240000Y-104230000D01*
X88310000Y-118975300D02*
X88760300Y-119425600D01*
X88760300Y-119425600D02*
X115801200Y-119425600D01*
X115801200Y-119425600D02*
X117715000Y-117511800D01*
X117715000Y-117511800D02*
X117715000Y-116815400D01*
X117715000Y-116815400D02*
X118676500Y-115853900D01*
X118676500Y-115853900D02*
X125347400Y-115853900D01*
X125347400Y-115853900D02*
X133031900Y-108169400D01*
X88310000Y-117450000D02*
X88310000Y-118975300D01*
X122525300Y-80950000D02*
X123624800Y-80950000D01*
X123624800Y-80950000D02*
X127629500Y-76945300D01*
X127629500Y-76945300D02*
X135594500Y-76945300D01*
X135594500Y-76945300D02*
X136810800Y-75729000D01*
X136810800Y-75729000D02*
X136810800Y-74196500D01*
X136810800Y-74196500D02*
X137574300Y-73433000D01*
X137574300Y-73433000D02*
X148265000Y-73433000D01*
X121000000Y-80950000D02*
X122525300Y-80950000D01*
X148265000Y-74958300D02*
X148265000Y-73433000D01*
X93390000Y-109830000D02*
X93390000Y-111355300D01*
X80690000Y-109830000D02*
X80690000Y-111355300D01*
X80690000Y-111355300D02*
X93390000Y-111355300D01*
X147575100Y-41083200D02*
X147457300Y-40965400D01*
X147457300Y-40965400D02*
X131916900Y-40965400D01*
X131916900Y-40965400D02*
X127492300Y-45390000D01*
X127492300Y-45390000D02*
X122525300Y-45390000D01*
X121000000Y-45390000D02*
X122525300Y-45390000D01*
X145950000Y-41899700D02*
X132256400Y-41899700D01*
X132256400Y-41899700D02*
X126226200Y-47929900D01*
X126226200Y-47929900D02*
X122525300Y-47929900D01*
X122525300Y-47929900D02*
X122525300Y-47930000D01*
X121000000Y-47930000D02*
X122525300Y-47930000D01*
X145950000Y-43425000D02*
X145950000Y-41899700D01*
X122525300Y-50470000D02*
X127044300Y-50470000D01*
X127044300Y-50470000D02*
X128365000Y-49149300D01*
X128365000Y-49149300D02*
X137692000Y-49149300D01*
X121000000Y-50470000D02*
X122525300Y-50470000D01*
X135790000Y-44950300D02*
X130264300Y-44950300D01*
X130264300Y-44950300D02*
X126705700Y-48508900D01*
X135790000Y-43425000D02*
X135790000Y-44950300D01*
X140620000Y-53097000D02*
X140169700Y-53547300D01*
X140169700Y-53547300D02*
X124528000Y-53547300D01*
X124528000Y-53547300D02*
X122525300Y-55550000D01*
X121000000Y-55550000D02*
X122525300Y-55550000D01*
X140620000Y-51571700D02*
X140620000Y-53097000D01*
X145700000Y-51571700D02*
X145700000Y-53097000D01*
X145700000Y-53097000D02*
X144044200Y-54752800D01*
X144044200Y-54752800D02*
X128853000Y-54752800D01*
X128853000Y-54752800D02*
X125515800Y-58090000D01*
X125515800Y-58090000D02*
X121000000Y-58090000D01*
X150780000Y-51571700D02*
X146486600Y-55865100D01*
X146486600Y-55865100D02*
X132526800Y-55865100D01*
X132526800Y-55865100D02*
X129609500Y-58782400D01*
X129609500Y-58782400D02*
X126734000Y-58782400D01*
X126734000Y-58782400D02*
X124886400Y-60630000D01*
X124886400Y-60630000D02*
X122525300Y-60630000D01*
X121000000Y-60630000D02*
X122525300Y-60630000D01*
X155860000Y-53097000D02*
X149892200Y-53097000D01*
X149892200Y-53097000D02*
X146673700Y-56315500D01*
X146673700Y-56315500D02*
X132779200Y-56315500D01*
X132779200Y-56315500D02*
X129862000Y-59232700D01*
X129862000Y-59232700D02*
X126920700Y-59232700D01*
X126920700Y-59232700D02*
X124070000Y-62083400D01*
X124070000Y-62083400D02*
X123611900Y-62083400D01*
X123611900Y-62083400D02*
X122525300Y-63170000D01*
X121000000Y-63170000D02*
X122525300Y-63170000D01*
X155860000Y-51571700D02*
X155860000Y-53097000D01*
X150780000Y-59191700D02*
X150780000Y-60717000D01*
X121000000Y-65710000D02*
X122525300Y-65710000D01*
X122525300Y-65710000D02*
X125671700Y-65710000D01*
X125671700Y-65710000D02*
X128830700Y-62551000D01*
X128830700Y-62551000D02*
X138475500Y-62551000D01*
X138475500Y-62551000D02*
X139718900Y-61307600D01*
X139718900Y-61307600D02*
X150189400Y-61307600D01*
X150189400Y-61307600D02*
X150780000Y-60717000D01*
X122525300Y-68250000D02*
X122525300Y-68249900D01*
X122525300Y-68249900D02*
X124405600Y-68249900D01*
X124405600Y-68249900D02*
X129203900Y-63451600D01*
X129203900Y-63451600D02*
X138877700Y-63451600D01*
X138877700Y-63451600D02*
X139680100Y-62649200D01*
X139680100Y-62649200D02*
X145700000Y-62649200D01*
X121000000Y-68250000D02*
X122525300Y-68250000D01*
X122525300Y-70790000D02*
X123139300Y-70790000D01*
X123139300Y-70790000D02*
X129302000Y-64627300D01*
X129302000Y-64627300D02*
X136948700Y-64627300D01*
X121000000Y-70790000D02*
X122525300Y-70790000D01*
X135540000Y-59191700D02*
X135540000Y-60717000D01*
X135540000Y-60717000D02*
X127998700Y-60717000D01*
X127998700Y-60717000D02*
X126046000Y-62669700D01*
X140870000Y-37330300D02*
X140870000Y-35805000D01*
X121093300Y-37780700D02*
X140419600Y-37780700D01*
X109470000Y-49404000D02*
X121093300Y-37780700D01*
X107063800Y-49404000D02*
X109470000Y-49404000D01*
X106961800Y-49302000D02*
X107063800Y-49404000D01*
X91065300Y-71634700D02*
X94390000Y-68310000D01*
X140419600Y-37780700D02*
X140870000Y-37330300D01*
X86625400Y-76082300D02*
X86625400Y-74113400D01*
X94390000Y-65052900D02*
X97777000Y-61665900D01*
X86625400Y-74113400D02*
X89104100Y-71634700D01*
X94390000Y-68310000D02*
X94390000Y-65052900D01*
X99439900Y-61665900D02*
X104234600Y-56871200D01*
X89104100Y-71634700D02*
X91065300Y-71634700D01*
X97777000Y-61665900D02*
X99439900Y-61665900D01*
X104234600Y-56871200D02*
X104234600Y-49938300D01*
X104234600Y-49938300D02*
X104870900Y-49302000D01*
X104870900Y-49302000D02*
X106961800Y-49302000D01*
X107285300Y-53010000D02*
X121372300Y-38923000D01*
X121372300Y-38923000D02*
X144357300Y-38923000D01*
X144357300Y-38923000D02*
X145950000Y-37330300D01*
X105760000Y-53010000D02*
X107285300Y-53010000D01*
X145950000Y-35805000D02*
X145950000Y-37330300D01*
X105760000Y-50470000D02*
X109040900Y-50470000D01*
X109040900Y-50470000D02*
X121038200Y-38472700D01*
X121038200Y-38472700D02*
X142766300Y-38472700D01*
X142766300Y-38472700D02*
X144680000Y-36559000D01*
X144680000Y-36559000D02*
X144680000Y-35068200D01*
X144680000Y-35068200D02*
X145468500Y-34279700D01*
X145468500Y-34279700D02*
X151030000Y-34279700D01*
X151030000Y-35805000D02*
X151030000Y-34279700D01*
X105760000Y-47930000D02*
X107285300Y-47930000D01*
X156110000Y-35805000D02*
X156110000Y-34279700D01*
X156110000Y-34279700D02*
X155659300Y-33829000D01*
X155659300Y-33829000D02*
X120824500Y-33829000D01*
X120824500Y-33829000D02*
X107285300Y-47368200D01*
X107285300Y-47368200D02*
X107285300Y-47930000D01*
X72525000Y-108980000D02*
X72713700Y-108980000D01*
X72713700Y-108980000D02*
X87443700Y-94250000D01*
X87443700Y-94250000D02*
X89860000Y-94250000D01*
X72525000Y-111520000D02*
X72525000Y-110294700D01*
X72525000Y-110294700D02*
X72065500Y-110294700D01*
X72065500Y-110294700D02*
X71283400Y-109512600D01*
X71283400Y-109512600D02*
X71283400Y-108416000D01*
X71283400Y-108416000D02*
X72488700Y-107210700D01*
X72488700Y-107210700D02*
X73356200Y-107210700D01*
X73356200Y-107210700D02*
X73780400Y-106786500D01*
X73780400Y-106786500D02*
X73780400Y-102669700D01*
X73780400Y-102669700D02*
X72561400Y-101450700D01*
X72561400Y-101450700D02*
X71693900Y-101450700D01*
X71693900Y-101450700D02*
X71298900Y-101055700D01*
X71298900Y-101055700D02*
X71298900Y-90048900D01*
X71298900Y-90048900D02*
X73559400Y-87788400D01*
X73559400Y-87788400D02*
X74440300Y-87788400D01*
X74440300Y-87788400D02*
X77645100Y-84583600D01*
X77645100Y-84583600D02*
X77645100Y-82359900D01*
X77645100Y-82359900D02*
X83182100Y-76822900D01*
X83182100Y-76822900D02*
X90577200Y-76822900D01*
X90577200Y-76822900D02*
X91850000Y-75550100D01*
X91800000Y-73800000D02*
X91800000Y-74100000D01*
X93200000Y-72400000D02*
X91800000Y-73800000D01*
X91800000Y-74100000D02*
X91850000Y-73825300D01*
X91850000Y-75550100D02*
X91800000Y-74100000D01*
X98200000Y-65950000D02*
X98200000Y-69485002D01*
X98200000Y-69485002D02*
X95285002Y-72400000D01*
X95285002Y-72400000D02*
X93200000Y-72400000D01*
X100740000Y-56804700D02*
X92650500Y-56804700D01*
X92650500Y-56804700D02*
X91705400Y-57749800D01*
X91705400Y-57749800D02*
X91705400Y-60263100D01*
X91705400Y-60263100D02*
X86625400Y-65343100D01*
X86625400Y-65343100D02*
X86625400Y-67290100D01*
X86625400Y-67290100D02*
X79774400Y-74141100D01*
X79774400Y-74141100D02*
X79774400Y-78381900D01*
X79774400Y-78381900D02*
X70341800Y-87814500D01*
X70341800Y-87814500D02*
X70341800Y-114331100D01*
X70341800Y-114331100D02*
X72065400Y-116054700D01*
X72065400Y-116054700D02*
X72525000Y-116054700D01*
X100740000Y-58330000D02*
X100740000Y-56804700D01*
X72525000Y-117280000D02*
X72525000Y-116054700D01*
X95660000Y-58330000D02*
X95660000Y-59855300D01*
X95660000Y-59855300D02*
X94611400Y-59855300D01*
X94611400Y-59855300D02*
X89454600Y-65012100D01*
X89454600Y-65012100D02*
X89454600Y-66605700D01*
X89454600Y-66605700D02*
X85689600Y-70370700D01*
X85689600Y-70370700D02*
X84602400Y-70370700D01*
X84602400Y-70370700D02*
X80675100Y-74298000D01*
X80675100Y-74298000D02*
X80675100Y-78118100D01*
X80675100Y-78118100D02*
X70792100Y-88001100D01*
X70792100Y-88001100D02*
X70792100Y-103288100D01*
X70792100Y-103288100D02*
X72038700Y-104534700D01*
X72038700Y-104534700D02*
X72525000Y-104534700D01*
X72525000Y-105760000D02*
X72525000Y-104534700D01*
X72525000Y-97460000D02*
X81184400Y-88800600D01*
X81184400Y-88800600D02*
X91029100Y-88800600D01*
X91029100Y-88800600D02*
X92604700Y-87225000D01*
X93730000Y-87225000D02*
X92604700Y-87225000D01*
X98200000Y-82400000D02*
X98200000Y-83925300D01*
X88040000Y-82400000D02*
X88040000Y-83925300D01*
X88040000Y-83925300D02*
X98200000Y-83925300D01*
X135565000Y-74958300D02*
X134039600Y-76483700D01*
X134039600Y-76483700D02*
X127229300Y-76483700D01*
X127229300Y-76483700D02*
X124033000Y-79680000D01*
X124033000Y-79680000D02*
X117741700Y-79680000D01*
X117741700Y-79680000D02*
X109536100Y-87885600D01*
X109536100Y-87885600D02*
X107597500Y-87885600D01*
X107597500Y-87885600D02*
X107107600Y-87395700D01*
X107107600Y-87395700D02*
X104900200Y-87395700D01*
X104900200Y-87395700D02*
X102215300Y-90080600D01*
X102215300Y-90080600D02*
X102215300Y-92857500D01*
X102215300Y-92857500D02*
X102129600Y-92943200D01*
X121000000Y-88570000D02*
X111399300Y-88570000D01*
X111399300Y-88570000D02*
X110525400Y-89443900D01*
X110525400Y-89443900D02*
X109764700Y-89443900D01*
X109764700Y-89443900D02*
X108711200Y-90497400D01*
X108711200Y-90497400D02*
X108711200Y-92740200D01*
X108711200Y-92740200D02*
X106615800Y-94835600D01*
X106615800Y-94835600D02*
X100560800Y-94835600D01*
X100560800Y-94835600D02*
X99807100Y-95589300D01*
X87095000Y-129475000D02*
X87095000Y-127949700D01*
X92175000Y-121855000D02*
X92175000Y-123380300D01*
X87095000Y-127949700D02*
X87605600Y-127949700D01*
X87605600Y-127949700D02*
X92175000Y-123380300D01*
X98356400Y-95058100D02*
X99746000Y-93668500D01*
X99746000Y-93668500D02*
X102711500Y-93668500D01*
X102711500Y-93668500D02*
X103861600Y-92518400D01*
X103861600Y-92518400D02*
X106401300Y-92518400D01*
X106401300Y-92518400D02*
X108260800Y-90658900D01*
X108260800Y-90658900D02*
X108260800Y-90264100D01*
X108260800Y-90264100D02*
X109531300Y-88993600D01*
X109531300Y-88993600D02*
X110338800Y-88993600D01*
X110338800Y-88993600D02*
X115997300Y-83335100D01*
X115997300Y-83335100D02*
X118709100Y-83335100D01*
X118709100Y-83335100D02*
X120006600Y-84632600D01*
X120006600Y-84632600D02*
X121907000Y-84632600D01*
X121907000Y-84632600D02*
X128243500Y-78296100D01*
X128243500Y-78296100D02*
X143912500Y-78296100D01*
X143912500Y-78296100D02*
X145725000Y-76483600D01*
X145725000Y-74958300D02*
X145725000Y-76483600D01*
X85770000Y-109830000D02*
X85770000Y-108304700D01*
X103640000Y-103855000D02*
X103640000Y-105380300D01*
X103640000Y-105380300D02*
X97730900Y-105380300D01*
X97730900Y-105380300D02*
X96910800Y-104560200D01*
X96910800Y-104560200D02*
X83642500Y-104560200D01*
X83642500Y-104560200D02*
X82866300Y-105336400D01*
X82866300Y-105336400D02*
X82866300Y-106449600D01*
X82866300Y-106449600D02*
X84721400Y-108304700D01*
X84721400Y-108304700D02*
X85770000Y-108304700D01*
X132700000Y-113375300D02*
X125584100Y-120491200D01*
X125584100Y-120491200D02*
X115472000Y-120491200D01*
X115472000Y-120491200D02*
X114649700Y-121313500D01*
X114649700Y-121313500D02*
X114649700Y-121968600D01*
X114649700Y-121968600D02*
X110469400Y-126148900D01*
X110469400Y-126148900D02*
X93975800Y-126148900D01*
X93975800Y-126148900D02*
X92175000Y-127949700D01*
X92175000Y-129475000D02*
X92175000Y-127949700D01*
X132700000Y-111850000D02*
X132700000Y-113375300D01*
X112575000Y-36050000D02*
X112575000Y-40584100D01*
X112575000Y-40584100D02*
X106499100Y-46660000D01*
X106499100Y-46660000D02*
X105038200Y-46660000D01*
X105038200Y-46660000D02*
X103282700Y-48415500D01*
X103282700Y-48415500D02*
X103282700Y-55108500D01*
X102940700Y-91807000D02*
X104849600Y-89898100D01*
X104849600Y-89898100D02*
X107671600Y-89898100D01*
X107671600Y-89898100D02*
X109026400Y-88543300D01*
X109026400Y-88543300D02*
X110152100Y-88543300D01*
X110152100Y-88543300D02*
X116475400Y-82220000D01*
X116475400Y-82220000D02*
X122991800Y-82220000D01*
X122991800Y-82220000D02*
X127816200Y-77395600D01*
X127816200Y-77395600D02*
X139733000Y-77395600D01*
X139733000Y-77395600D02*
X140645000Y-76483600D01*
X140645000Y-74958300D02*
X140645000Y-76483600D01*
X89635000Y-121855000D02*
X89635000Y-120329700D01*
X80690000Y-117450000D02*
X80690000Y-118975300D01*
X80690000Y-118975300D02*
X82044400Y-120329700D01*
X82044400Y-120329700D02*
X89635000Y-120329700D01*
X78150000Y-115924700D02*
X79275300Y-114799400D01*
X79275300Y-114799400D02*
X79275300Y-108290500D01*
X79275300Y-108290500D02*
X87506500Y-100059300D01*
X87506500Y-100059300D02*
X91392900Y-100059300D01*
X91392900Y-100059300D02*
X94032000Y-97420200D01*
X94032000Y-97420200D02*
X99803400Y-97420200D01*
X99803400Y-97420200D02*
X101221900Y-96001700D01*
X101221900Y-96001700D02*
X107183200Y-96001700D01*
X107183200Y-96001700D02*
X109136100Y-94048800D01*
X132975000Y-93950000D02*
X131656300Y-95268700D01*
X131656300Y-95268700D02*
X118659400Y-95268700D01*
X118659400Y-95268700D02*
X117439500Y-94048800D01*
X117439500Y-94048800D02*
X109136100Y-94048800D01*
X78150000Y-117450000D02*
X78150000Y-115924700D01*
X78150000Y-117883500D02*
X78150000Y-117450000D01*
X78150000Y-117883500D02*
X78150000Y-118975300D01*
X78150000Y-118975300D02*
X79484600Y-118975300D01*
X79484600Y-118975300D02*
X80745000Y-120235700D01*
X80745000Y-120235700D02*
X80745000Y-126679700D01*
X80745000Y-126679700D02*
X82015000Y-127949700D01*
X82015000Y-129475000D02*
X82015000Y-127949700D01*
X125834300Y-82701900D02*
X129339500Y-79196700D01*
X129339500Y-79196700D02*
X149988100Y-79196700D01*
X149988100Y-79196700D02*
X152244700Y-81453300D01*
X152244700Y-81453300D02*
X152244700Y-81700000D01*
X153370000Y-81700000D02*
X152244700Y-81700000D01*
X126942100Y-82619800D02*
X128698400Y-82619800D01*
X128698400Y-82619800D02*
X128698400Y-82619700D01*
X128698400Y-82619700D02*
X131671100Y-79647000D01*
X131671100Y-79647000D02*
X147933000Y-79647000D01*
X147933000Y-79647000D02*
X149704700Y-81418700D01*
X149704700Y-81418700D02*
X149704700Y-81700000D01*
X150830000Y-81700000D02*
X149704700Y-81700000D01*
X126770100Y-83954300D02*
X128085200Y-83954300D01*
X128085200Y-83954300D02*
X129203100Y-82836400D01*
X129203100Y-82836400D02*
X129203100Y-82751900D01*
X129203100Y-82751900D02*
X131857700Y-80097300D01*
X131857700Y-80097300D02*
X145776900Y-80097300D01*
X145776900Y-80097300D02*
X147164700Y-81485100D01*
X147164700Y-81485100D02*
X147164700Y-81700000D01*
X148290000Y-81700000D02*
X147164700Y-81700000D01*
X148215000Y-85896500D02*
X144315100Y-89796400D01*
X144315100Y-89796400D02*
X125197100Y-89796400D01*
X125197100Y-89796400D02*
X122703100Y-92290400D01*
X122703100Y-92290400D02*
X110044700Y-92290400D01*
X110044700Y-92290400D02*
X109897100Y-92142800D01*
X148215000Y-85896500D02*
X148215000Y-84804700D01*
X148215000Y-86330000D02*
X148215000Y-85896500D01*
X148215000Y-84804700D02*
X146235600Y-82825300D01*
X146235600Y-82825300D02*
X145750000Y-82825300D01*
X145750000Y-81700000D02*
X145750000Y-82825300D01*
X145675000Y-85896500D02*
X142225500Y-89346000D01*
X142225500Y-89346000D02*
X123838400Y-89346000D01*
X123838400Y-89346000D02*
X123344400Y-89840000D01*
X123344400Y-89840000D02*
X119474600Y-89840000D01*
X119474600Y-89840000D02*
X118695100Y-90619500D01*
X118695100Y-90619500D02*
X109661700Y-90619500D01*
X145675000Y-85896500D02*
X145675000Y-84804700D01*
X145675000Y-86330000D02*
X145675000Y-85896500D01*
X145675000Y-84804700D02*
X143695600Y-82825300D01*
X143695600Y-82825300D02*
X143210000Y-82825300D01*
X143210000Y-81700000D02*
X143210000Y-82825300D01*
X131040800Y-81940000D02*
X131040800Y-81642900D01*
X131040800Y-81642900D02*
X132136100Y-80547600D01*
X132136100Y-80547600D02*
X138673600Y-80547600D01*
X138673600Y-80547600D02*
X139544700Y-81418700D01*
X139544700Y-81418700D02*
X139544700Y-81700000D01*
X140670000Y-81700000D02*
X139544700Y-81700000D01*
X105760000Y-70790000D02*
X107285300Y-70790000D01*
X119141600Y-73298700D02*
X109794000Y-73298700D01*
X109794000Y-73298700D02*
X107285300Y-70790000D01*
X107285300Y-73330000D02*
X110255300Y-76300000D01*
X110255300Y-76300000D02*
X115815700Y-76300000D01*
X140595000Y-87855300D02*
X139554700Y-88895600D01*
X139554700Y-88895600D02*
X123525800Y-88895600D01*
X123525800Y-88895600D02*
X122074800Y-87444600D01*
X122074800Y-87444600D02*
X120374800Y-87444600D01*
X120374800Y-87444600D02*
X118445300Y-85515100D01*
X118445300Y-85515100D02*
X118445300Y-84097100D01*
X105760000Y-73330000D02*
X107285300Y-73330000D01*
X140595000Y-86330000D02*
X140595000Y-87855300D01*
X135590000Y-83443900D02*
X135590000Y-82712700D01*
X138055000Y-84804700D02*
X136950800Y-84804700D01*
X136950800Y-84804700D02*
X135590000Y-83443900D01*
X135590000Y-83443900D02*
X134354200Y-84679700D01*
X134354200Y-84679700D02*
X124273000Y-84679700D01*
X124273000Y-84679700D02*
X124115000Y-84521700D01*
X105760000Y-75870000D02*
X107285300Y-75870000D01*
X116302900Y-77686300D02*
X109101600Y-77686300D01*
X109101600Y-77686300D02*
X107285300Y-75870000D01*
X138055000Y-86330000D02*
X138055000Y-84804700D01*
X135590000Y-81700000D02*
X135590000Y-82712700D01*
X98812400Y-95627900D02*
X99081700Y-95358600D01*
X99081700Y-95358600D02*
X99081700Y-95287100D01*
X99081700Y-95287100D02*
X100051400Y-94317400D01*
X100051400Y-94317400D02*
X103567300Y-94317400D01*
X103567300Y-94317400D02*
X104234700Y-93650000D01*
X73950000Y-89060000D02*
X72774600Y-90235400D01*
X72774600Y-90235400D02*
X72774600Y-92642600D01*
X72774600Y-92642600D02*
X72907400Y-92775400D01*
X72907400Y-92775400D02*
X75125400Y-92775400D01*
X75125400Y-92775400D02*
X79550500Y-88350300D01*
X79550500Y-88350300D02*
X90183800Y-88350300D01*
X90183800Y-88350300D02*
X92461300Y-86072800D01*
X92461300Y-86072800D02*
X101819700Y-86072800D01*
X101819700Y-86072800D02*
X102477300Y-86730400D01*
X102477300Y-86730400D02*
X102477300Y-87895900D01*
X102477300Y-87895900D02*
X101725900Y-88647300D01*
X101725900Y-88647300D02*
X101725900Y-92132800D01*
X101725900Y-92132800D02*
X100659000Y-93199700D01*
X100659000Y-93199700D02*
X99150400Y-93199700D01*
X99150400Y-93199700D02*
X97631000Y-94719100D01*
X97631000Y-94719100D02*
X97631000Y-95396900D01*
X97631000Y-95396900D02*
X98017500Y-95783400D01*
X98017500Y-95783400D02*
X98656900Y-95783400D01*
X98656900Y-95783400D02*
X98812400Y-95627900D01*
X98812400Y-95627900D02*
X99499100Y-96314600D01*
X99499100Y-96314600D02*
X100107600Y-96314600D01*
X100107600Y-96314600D02*
X101136200Y-95286000D01*
X101136200Y-95286000D02*
X106802300Y-95286000D01*
X106802300Y-95286000D02*
X108790800Y-93297500D01*
X108790800Y-93297500D02*
X118034000Y-93297500D01*
X118034000Y-93297500D02*
X119545800Y-94809300D01*
X119545800Y-94809300D02*
X128565700Y-94809300D01*
X128565700Y-94809300D02*
X130950400Y-92424600D01*
X130950400Y-92424600D02*
X133912600Y-92424600D01*
X133912600Y-92424600D02*
X134159300Y-92671300D01*
X134159300Y-92671300D02*
X134159300Y-96044600D01*
X134159300Y-96044600D02*
X135490000Y-97375300D01*
X135490000Y-97375300D02*
X135490000Y-98012200D01*
X135490000Y-99137500D02*
X135490000Y-98012200D01*
X105760000Y-93650000D02*
X104234700Y-93650000D01*
X83230000Y-117450000D02*
X83230000Y-115924700D01*
X83230000Y-115924700D02*
X88819400Y-115924700D01*
X88819400Y-115924700D02*
X89580000Y-116685300D01*
X89580000Y-116685300D02*
X89580000Y-118223800D01*
X89580000Y-118223800D02*
X90331500Y-118975300D01*
X90331500Y-118975300D02*
X93891800Y-118975300D01*
X93891800Y-118975300D02*
X99300400Y-113566700D01*
X99300400Y-113566700D02*
X99300400Y-110790200D01*
X99300400Y-110790200D02*
X104765400Y-105325200D01*
X104765400Y-105325200D02*
X104765400Y-101781800D01*
X104765400Y-101781800D02*
X104438400Y-101454800D01*
M02*
