G04 #@! TF.GenerationSoftware,KiCad,Pcbnew,(5.1.5)-3*
G04 #@! TF.CreationDate,2021-12-12T10:10:57-06:00*
G04 #@! TF.ProjectId,Z8065C02,5a383036-3543-4303-922e-6b696361645f,rev?*
G04 #@! TF.SameCoordinates,Original*
G04 #@! TF.FileFunction,Legend,Top*
G04 #@! TF.FilePolarity,Positive*
%FSLAX46Y46*%
G04 Gerber Fmt 4.6, Leading zero omitted, Abs format (unit mm)*
G04 Created by KiCad (PCBNEW (5.1.5)-3) date 2021-12-12 10:10:57*
%MOMM*%
%LPD*%
G04 APERTURE LIST*
%ADD10C,0.150000*%
%ADD11C,0.120000*%
G04 APERTURE END LIST*
D10*
X127652380Y-130171428D02*
X126652380Y-130171428D01*
X127366666Y-129838095D01*
X126652380Y-129504761D01*
X127652380Y-129504761D01*
X127128571Y-128695238D02*
X127176190Y-128552380D01*
X127223809Y-128504761D01*
X127319047Y-128457142D01*
X127461904Y-128457142D01*
X127557142Y-128504761D01*
X127604761Y-128552380D01*
X127652380Y-128647619D01*
X127652380Y-129028571D01*
X126652380Y-129028571D01*
X126652380Y-128695238D01*
X126700000Y-128600000D01*
X126747619Y-128552380D01*
X126842857Y-128504761D01*
X126938095Y-128504761D01*
X127033333Y-128552380D01*
X127080952Y-128600000D01*
X127128571Y-128695238D01*
X127128571Y-129028571D01*
X127557142Y-127457142D02*
X127604761Y-127504761D01*
X127652380Y-127647619D01*
X127652380Y-127742857D01*
X127604761Y-127885714D01*
X127509523Y-127980952D01*
X127414285Y-128028571D01*
X127223809Y-128076190D01*
X127080952Y-128076190D01*
X126890476Y-128028571D01*
X126795238Y-127980952D01*
X126700000Y-127885714D01*
X126652380Y-127742857D01*
X126652380Y-127647619D01*
X126700000Y-127504761D01*
X126747619Y-127457142D01*
X126652380Y-125838095D02*
X126652380Y-126028571D01*
X126700000Y-126123809D01*
X126747619Y-126171428D01*
X126890476Y-126266666D01*
X127080952Y-126314285D01*
X127461904Y-126314285D01*
X127557142Y-126266666D01*
X127604761Y-126219047D01*
X127652380Y-126123809D01*
X127652380Y-125933333D01*
X127604761Y-125838095D01*
X127557142Y-125790476D01*
X127461904Y-125742857D01*
X127223809Y-125742857D01*
X127128571Y-125790476D01*
X127080952Y-125838095D01*
X127033333Y-125933333D01*
X127033333Y-126123809D01*
X127080952Y-126219047D01*
X127128571Y-126266666D01*
X127223809Y-126314285D01*
X126652380Y-124838095D02*
X126652380Y-125314285D01*
X127128571Y-125361904D01*
X127080952Y-125314285D01*
X127033333Y-125219047D01*
X127033333Y-124980952D01*
X127080952Y-124885714D01*
X127128571Y-124838095D01*
X127223809Y-124790476D01*
X127461904Y-124790476D01*
X127557142Y-124838095D01*
X127604761Y-124885714D01*
X127652380Y-124980952D01*
X127652380Y-125219047D01*
X127604761Y-125314285D01*
X127557142Y-125361904D01*
X126652380Y-124171428D02*
X126652380Y-124076190D01*
X126700000Y-123980952D01*
X126747619Y-123933333D01*
X126842857Y-123885714D01*
X127033333Y-123838095D01*
X127271428Y-123838095D01*
X127461904Y-123885714D01*
X127557142Y-123933333D01*
X127604761Y-123980952D01*
X127652380Y-124076190D01*
X127652380Y-124171428D01*
X127604761Y-124266666D01*
X127557142Y-124314285D01*
X127461904Y-124361904D01*
X127271428Y-124409523D01*
X127033333Y-124409523D01*
X126842857Y-124361904D01*
X126747619Y-124314285D01*
X126700000Y-124266666D01*
X126652380Y-124171428D01*
X126747619Y-123457142D02*
X126700000Y-123409523D01*
X126652380Y-123314285D01*
X126652380Y-123076190D01*
X126700000Y-122980952D01*
X126747619Y-122933333D01*
X126842857Y-122885714D01*
X126938095Y-122885714D01*
X127080952Y-122933333D01*
X127652380Y-123504761D01*
X127652380Y-122885714D01*
X127557142Y-121123809D02*
X127604761Y-121171428D01*
X127652380Y-121314285D01*
X127652380Y-121409523D01*
X127604761Y-121552380D01*
X127509523Y-121647619D01*
X127414285Y-121695238D01*
X127223809Y-121742857D01*
X127080952Y-121742857D01*
X126890476Y-121695238D01*
X126795238Y-121647619D01*
X126700000Y-121552380D01*
X126652380Y-121409523D01*
X126652380Y-121314285D01*
X126700000Y-121171428D01*
X126747619Y-121123809D01*
X127652380Y-120695238D02*
X126652380Y-120695238D01*
X126652380Y-120314285D01*
X126700000Y-120219047D01*
X126747619Y-120171428D01*
X126842857Y-120123809D01*
X126985714Y-120123809D01*
X127080952Y-120171428D01*
X127128571Y-120219047D01*
X127176190Y-120314285D01*
X127176190Y-120695238D01*
X126652380Y-119695238D02*
X127461904Y-119695238D01*
X127557142Y-119647619D01*
X127604761Y-119600000D01*
X127652380Y-119504761D01*
X127652380Y-119314285D01*
X127604761Y-119219047D01*
X127557142Y-119171428D01*
X127461904Y-119123809D01*
X126652380Y-119123809D01*
X127128571Y-117552380D02*
X127176190Y-117409523D01*
X127223809Y-117361904D01*
X127319047Y-117314285D01*
X127461904Y-117314285D01*
X127557142Y-117361904D01*
X127604761Y-117409523D01*
X127652380Y-117504761D01*
X127652380Y-117885714D01*
X126652380Y-117885714D01*
X126652380Y-117552380D01*
X126700000Y-117457142D01*
X126747619Y-117409523D01*
X126842857Y-117361904D01*
X126938095Y-117361904D01*
X127033333Y-117409523D01*
X127080952Y-117457142D01*
X127128571Y-117552380D01*
X127128571Y-117885714D01*
X127652380Y-116742857D02*
X127604761Y-116838095D01*
X127557142Y-116885714D01*
X127461904Y-116933333D01*
X127176190Y-116933333D01*
X127080952Y-116885714D01*
X127033333Y-116838095D01*
X126985714Y-116742857D01*
X126985714Y-116600000D01*
X127033333Y-116504761D01*
X127080952Y-116457142D01*
X127176190Y-116409523D01*
X127461904Y-116409523D01*
X127557142Y-116457142D01*
X127604761Y-116504761D01*
X127652380Y-116600000D01*
X127652380Y-116742857D01*
X127652380Y-115552380D02*
X127128571Y-115552380D01*
X127033333Y-115600000D01*
X126985714Y-115695238D01*
X126985714Y-115885714D01*
X127033333Y-115980952D01*
X127604761Y-115552380D02*
X127652380Y-115647619D01*
X127652380Y-115885714D01*
X127604761Y-115980952D01*
X127509523Y-116028571D01*
X127414285Y-116028571D01*
X127319047Y-115980952D01*
X127271428Y-115885714D01*
X127271428Y-115647619D01*
X127223809Y-115552380D01*
X127652380Y-115076190D02*
X126985714Y-115076190D01*
X127176190Y-115076190D02*
X127080952Y-115028571D01*
X127033333Y-114980952D01*
X126985714Y-114885714D01*
X126985714Y-114790476D01*
X127652380Y-114028571D02*
X126652380Y-114028571D01*
X127604761Y-114028571D02*
X127652380Y-114123809D01*
X127652380Y-114314285D01*
X127604761Y-114409523D01*
X127557142Y-114457142D01*
X127461904Y-114504761D01*
X127176190Y-114504761D01*
X127080952Y-114457142D01*
X127033333Y-114409523D01*
X126985714Y-114314285D01*
X126985714Y-114123809D01*
X127033333Y-114028571D01*
X129302380Y-128195238D02*
X129302380Y-128766666D01*
X129302380Y-128480952D02*
X128302380Y-128480952D01*
X128445238Y-128576190D01*
X128540476Y-128671428D01*
X128588095Y-128766666D01*
X128397619Y-127814285D02*
X128350000Y-127766666D01*
X128302380Y-127671428D01*
X128302380Y-127433333D01*
X128350000Y-127338095D01*
X128397619Y-127290476D01*
X128492857Y-127242857D01*
X128588095Y-127242857D01*
X128730952Y-127290476D01*
X129302380Y-127861904D01*
X129302380Y-127242857D01*
X128254761Y-126100000D02*
X129540476Y-126957142D01*
X129302380Y-125242857D02*
X129302380Y-125814285D01*
X129302380Y-125528571D02*
X128302380Y-125528571D01*
X128445238Y-125623809D01*
X128540476Y-125719047D01*
X128588095Y-125814285D01*
X129302380Y-124290476D02*
X129302380Y-124861904D01*
X129302380Y-124576190D02*
X128302380Y-124576190D01*
X128445238Y-124671428D01*
X128540476Y-124766666D01*
X128588095Y-124861904D01*
X128254761Y-123147619D02*
X129540476Y-124004761D01*
X128397619Y-122861904D02*
X128350000Y-122814285D01*
X128302380Y-122719047D01*
X128302380Y-122480952D01*
X128350000Y-122385714D01*
X128397619Y-122338095D01*
X128492857Y-122290476D01*
X128588095Y-122290476D01*
X128730952Y-122338095D01*
X129302380Y-122909523D01*
X129302380Y-122290476D01*
X128302380Y-121671428D02*
X128302380Y-121576190D01*
X128350000Y-121480952D01*
X128397619Y-121433333D01*
X128492857Y-121385714D01*
X128683333Y-121338095D01*
X128921428Y-121338095D01*
X129111904Y-121385714D01*
X129207142Y-121433333D01*
X129254761Y-121480952D01*
X129302380Y-121576190D01*
X129302380Y-121671428D01*
X129254761Y-121766666D01*
X129207142Y-121814285D01*
X129111904Y-121861904D01*
X128921428Y-121909523D01*
X128683333Y-121909523D01*
X128492857Y-121861904D01*
X128397619Y-121814285D01*
X128350000Y-121766666D01*
X128302380Y-121671428D01*
X128397619Y-120957142D02*
X128350000Y-120909523D01*
X128302380Y-120814285D01*
X128302380Y-120576190D01*
X128350000Y-120480952D01*
X128397619Y-120433333D01*
X128492857Y-120385714D01*
X128588095Y-120385714D01*
X128730952Y-120433333D01*
X129302380Y-121004761D01*
X129302380Y-120385714D01*
X129302380Y-119433333D02*
X129302380Y-120004761D01*
X129302380Y-119719047D02*
X128302380Y-119719047D01*
X128445238Y-119814285D01*
X128540476Y-119909523D01*
X128588095Y-120004761D01*
X128302380Y-118385714D02*
X129302380Y-118052380D01*
X128302380Y-117719047D01*
X129302380Y-116861904D02*
X129302380Y-117433333D01*
X129302380Y-117147619D02*
X128302380Y-117147619D01*
X128445238Y-117242857D01*
X128540476Y-117338095D01*
X128588095Y-117433333D01*
X129207142Y-116433333D02*
X129254761Y-116385714D01*
X129302380Y-116433333D01*
X129254761Y-116480952D01*
X129207142Y-116433333D01*
X129302380Y-116433333D01*
X128302380Y-115766666D02*
X128302380Y-115671428D01*
X128350000Y-115576190D01*
X128397619Y-115528571D01*
X128492857Y-115480952D01*
X128683333Y-115433333D01*
X128921428Y-115433333D01*
X129111904Y-115480952D01*
X129207142Y-115528571D01*
X129254761Y-115576190D01*
X129302380Y-115671428D01*
X129302380Y-115766666D01*
X129254761Y-115861904D01*
X129207142Y-115909523D01*
X129111904Y-115957142D01*
X128921428Y-116004761D01*
X128683333Y-116004761D01*
X128492857Y-115957142D01*
X128397619Y-115909523D01*
X128350000Y-115861904D01*
X128302380Y-115766666D01*
X130952380Y-126147619D02*
X129952380Y-126147619D01*
X129952380Y-125909523D01*
X130000000Y-125766666D01*
X130095238Y-125671428D01*
X130190476Y-125623809D01*
X130380952Y-125576190D01*
X130523809Y-125576190D01*
X130714285Y-125623809D01*
X130809523Y-125671428D01*
X130904761Y-125766666D01*
X130952380Y-125909523D01*
X130952380Y-126147619D01*
X130952380Y-124719047D02*
X130428571Y-124719047D01*
X130333333Y-124766666D01*
X130285714Y-124861904D01*
X130285714Y-125052380D01*
X130333333Y-125147619D01*
X130904761Y-124719047D02*
X130952380Y-124814285D01*
X130952380Y-125052380D01*
X130904761Y-125147619D01*
X130809523Y-125195238D01*
X130714285Y-125195238D01*
X130619047Y-125147619D01*
X130571428Y-125052380D01*
X130571428Y-124814285D01*
X130523809Y-124719047D01*
X130285714Y-124242857D02*
X130952380Y-124242857D01*
X130380952Y-124242857D02*
X130333333Y-124195238D01*
X130285714Y-124100000D01*
X130285714Y-123957142D01*
X130333333Y-123861904D01*
X130428571Y-123814285D01*
X130952380Y-123814285D01*
X129952380Y-122671428D02*
X130952380Y-122433333D01*
X130238095Y-122242857D01*
X130952380Y-122052380D01*
X129952380Y-121814285D01*
X130904761Y-121052380D02*
X130952380Y-121147619D01*
X130952380Y-121338095D01*
X130904761Y-121433333D01*
X130809523Y-121480952D01*
X130428571Y-121480952D01*
X130333333Y-121433333D01*
X130285714Y-121338095D01*
X130285714Y-121147619D01*
X130333333Y-121052380D01*
X130428571Y-121004761D01*
X130523809Y-121004761D01*
X130619047Y-121480952D01*
X130952380Y-120576190D02*
X130285714Y-120576190D01*
X130476190Y-120576190D02*
X130380952Y-120528571D01*
X130333333Y-120480952D01*
X130285714Y-120385714D01*
X130285714Y-120290476D01*
X130285714Y-119957142D02*
X130952380Y-119957142D01*
X130380952Y-119957142D02*
X130333333Y-119909523D01*
X130285714Y-119814285D01*
X130285714Y-119671428D01*
X130333333Y-119576190D01*
X130428571Y-119528571D01*
X130952380Y-119528571D01*
X130904761Y-118671428D02*
X130952380Y-118766666D01*
X130952380Y-118957142D01*
X130904761Y-119052380D01*
X130809523Y-119100000D01*
X130428571Y-119100000D01*
X130333333Y-119052380D01*
X130285714Y-118957142D01*
X130285714Y-118766666D01*
X130333333Y-118671428D01*
X130428571Y-118623809D01*
X130523809Y-118623809D01*
X130619047Y-119100000D01*
X130952380Y-118195238D02*
X130285714Y-118195238D01*
X130476190Y-118195238D02*
X130380952Y-118147619D01*
X130333333Y-118100000D01*
X130285714Y-118004761D01*
X130285714Y-117909523D01*
D11*
X78085000Y-120415000D02*
X78085000Y-130915000D01*
X96105000Y-120415000D02*
X78085000Y-120415000D01*
X96105000Y-130915000D02*
X96105000Y-120415000D01*
X78085000Y-130915000D02*
X96105000Y-130915000D01*
X78145000Y-123415000D02*
X78145000Y-124665000D01*
X96045000Y-123415000D02*
X78145000Y-123415000D01*
X96045000Y-127915000D02*
X96045000Y-123415000D01*
X78145000Y-127915000D02*
X96045000Y-127915000D01*
X78145000Y-126665000D02*
X78145000Y-127915000D01*
X78145000Y-124665000D02*
G75*
G02X78145000Y-126665000I0J-1000000D01*
G01*
X75220000Y-92870000D02*
X73950000Y-92870000D01*
X75220000Y-91600000D02*
X75220000Y-92870000D01*
X72907071Y-86140000D02*
X72510000Y-86140000D01*
X72907071Y-86900000D02*
X72510000Y-86900000D01*
X63850000Y-86140000D02*
X69850000Y-86140000D01*
X63850000Y-86900000D02*
X63850000Y-86140000D01*
X69850000Y-86900000D02*
X63850000Y-86900000D01*
X72510000Y-87790000D02*
X69850000Y-87790000D01*
X72907071Y-88680000D02*
X72510000Y-88680000D01*
X72907071Y-89440000D02*
X72510000Y-89440000D01*
X63850000Y-88680000D02*
X69850000Y-88680000D01*
X63850000Y-89440000D02*
X63850000Y-88680000D01*
X69850000Y-89440000D02*
X63850000Y-89440000D01*
X72510000Y-90330000D02*
X69850000Y-90330000D01*
X72840000Y-91220000D02*
X72510000Y-91220000D01*
X72840000Y-91980000D02*
X72510000Y-91980000D01*
X69850000Y-91320000D02*
X63850000Y-91320000D01*
X69850000Y-91440000D02*
X63850000Y-91440000D01*
X69850000Y-91560000D02*
X63850000Y-91560000D01*
X69850000Y-91680000D02*
X63850000Y-91680000D01*
X69850000Y-91800000D02*
X63850000Y-91800000D01*
X69850000Y-91920000D02*
X63850000Y-91920000D01*
X63850000Y-91220000D02*
X69850000Y-91220000D01*
X63850000Y-91980000D02*
X63850000Y-91220000D01*
X69850000Y-91980000D02*
X63850000Y-91980000D01*
X69850000Y-92930000D02*
X72510000Y-92930000D01*
X69850000Y-85190000D02*
X69850000Y-92930000D01*
X72510000Y-85190000D02*
X69850000Y-85190000D01*
X72510000Y-92930000D02*
X72510000Y-85190000D01*
X98030000Y-37245000D02*
X98030000Y-34505000D01*
X105770000Y-37245000D02*
X105770000Y-34505000D01*
X105770000Y-34505000D02*
X98030000Y-34505000D01*
X105770000Y-37245000D02*
X98030000Y-37245000D01*
X94270000Y-85855000D02*
X94270000Y-86185000D01*
X100810000Y-85855000D02*
X94270000Y-85855000D01*
X100810000Y-86185000D02*
X100810000Y-85855000D01*
X94270000Y-88595000D02*
X94270000Y-88265000D01*
X100810000Y-88595000D02*
X94270000Y-88595000D01*
X100810000Y-88265000D02*
X100810000Y-88595000D01*
X73605000Y-100290000D02*
X73761000Y-100290000D01*
X71289000Y-100290000D02*
X71445000Y-100290000D01*
X73604837Y-97688870D02*
G75*
G02X73605000Y-99770961I-1079837J-1041130D01*
G01*
X71445163Y-97688870D02*
G75*
G03X71445000Y-99770961I1079837J-1041130D01*
G01*
X73603608Y-97057665D02*
G75*
G02X73760516Y-100290000I-1078608J-1672335D01*
G01*
X71446392Y-97057665D02*
G75*
G03X71289484Y-100290000I1078608J-1672335D01*
G01*
X89855000Y-88420000D02*
X89855000Y-88090000D01*
X83315000Y-88420000D02*
X89855000Y-88420000D01*
X83315000Y-88090000D02*
X83315000Y-88420000D01*
X89855000Y-85680000D02*
X89855000Y-86010000D01*
X83315000Y-85680000D02*
X89855000Y-85680000D01*
X83315000Y-86010000D02*
X83315000Y-85680000D01*
X82970000Y-96830000D02*
X82970000Y-97160000D01*
X89510000Y-96830000D02*
X82970000Y-96830000D01*
X89510000Y-97160000D02*
X89510000Y-96830000D01*
X82970000Y-99570000D02*
X82970000Y-99240000D01*
X89510000Y-99570000D02*
X82970000Y-99570000D01*
X89510000Y-99240000D02*
X89510000Y-99570000D01*
X89755000Y-92020000D02*
X89755000Y-91690000D01*
X83215000Y-92020000D02*
X89755000Y-92020000D01*
X83215000Y-91690000D02*
X83215000Y-92020000D01*
X89755000Y-89280000D02*
X89755000Y-89610000D01*
X83215000Y-89280000D02*
X89755000Y-89280000D01*
X83215000Y-89610000D02*
X83215000Y-89280000D01*
X89755000Y-95695000D02*
X89755000Y-95365000D01*
X83215000Y-95695000D02*
X89755000Y-95695000D01*
X83215000Y-95365000D02*
X83215000Y-95695000D01*
X89755000Y-92955000D02*
X89755000Y-93285000D01*
X83215000Y-92955000D02*
X89755000Y-92955000D01*
X83215000Y-93285000D02*
X83215000Y-92955000D01*
X73605000Y-123330000D02*
X73761000Y-123330000D01*
X71289000Y-123330000D02*
X71445000Y-123330000D01*
X73604837Y-120728870D02*
G75*
G02X73605000Y-122810961I-1079837J-1041130D01*
G01*
X71445163Y-120728870D02*
G75*
G03X71445000Y-122810961I1079837J-1041130D01*
G01*
X73603608Y-120097665D02*
G75*
G02X73760516Y-123330000I-1078608J-1672335D01*
G01*
X71446392Y-120097665D02*
G75*
G03X71289484Y-123330000I1078608J-1672335D01*
G01*
X73605000Y-106050000D02*
X73761000Y-106050000D01*
X71289000Y-106050000D02*
X71445000Y-106050000D01*
X73604837Y-103448870D02*
G75*
G02X73605000Y-105530961I-1079837J-1041130D01*
G01*
X71445163Y-103448870D02*
G75*
G03X71445000Y-105530961I1079837J-1041130D01*
G01*
X73603608Y-102817665D02*
G75*
G02X73760516Y-106050000I-1078608J-1672335D01*
G01*
X71446392Y-102817665D02*
G75*
G03X71289484Y-106050000I1078608J-1672335D01*
G01*
X73605000Y-117570000D02*
X73761000Y-117570000D01*
X71289000Y-117570000D02*
X71445000Y-117570000D01*
X73604837Y-114968870D02*
G75*
G02X73605000Y-117050961I-1079837J-1041130D01*
G01*
X71445163Y-114968870D02*
G75*
G03X71445000Y-117050961I1079837J-1041130D01*
G01*
X73603608Y-114337665D02*
G75*
G02X73760516Y-117570000I-1078608J-1672335D01*
G01*
X71446392Y-114337665D02*
G75*
G03X71289484Y-117570000I1078608J-1672335D01*
G01*
X73605000Y-111810000D02*
X73761000Y-111810000D01*
X71289000Y-111810000D02*
X71445000Y-111810000D01*
X73604837Y-109208870D02*
G75*
G02X73605000Y-111290961I-1079837J-1041130D01*
G01*
X71445163Y-109208870D02*
G75*
G03X71445000Y-111290961I1079837J-1041130D01*
G01*
X73603608Y-108577665D02*
G75*
G02X73760516Y-111810000I-1078608J-1672335D01*
G01*
X71446392Y-108577665D02*
G75*
G03X71289484Y-111810000I1078608J-1672335D01*
G01*
X85305000Y-108755000D02*
X88245000Y-108755000D01*
X85305000Y-108515000D02*
X88245000Y-108515000D01*
X85305000Y-108635000D02*
X88245000Y-108635000D01*
X88245000Y-104095000D02*
X87915000Y-104095000D01*
X88245000Y-109535000D02*
X88245000Y-104095000D01*
X87915000Y-109535000D02*
X88245000Y-109535000D01*
X85305000Y-104095000D02*
X85635000Y-104095000D01*
X85305000Y-109535000D02*
X85305000Y-104095000D01*
X85635000Y-109535000D02*
X85305000Y-109535000D01*
X92205000Y-104430000D02*
X94945000Y-104430000D01*
X92205000Y-112170000D02*
X94945000Y-112170000D01*
X94945000Y-112170000D02*
X94945000Y-104430000D01*
X92205000Y-112170000D02*
X92205000Y-104430000D01*
X82880000Y-58255000D02*
X85620000Y-58255000D01*
X82880000Y-65995000D02*
X85620000Y-65995000D01*
X85620000Y-65995000D02*
X85620000Y-58255000D01*
X82880000Y-65995000D02*
X82880000Y-58255000D01*
X82880000Y-74830000D02*
X85620000Y-74830000D01*
X82880000Y-82570000D02*
X85620000Y-82570000D01*
X85620000Y-82570000D02*
X85620000Y-74830000D01*
X82880000Y-82570000D02*
X82880000Y-74830000D01*
X99530000Y-91505000D02*
X102270000Y-91505000D01*
X99530000Y-99245000D02*
X102270000Y-99245000D01*
X102270000Y-99245000D02*
X102270000Y-91505000D01*
X99530000Y-99245000D02*
X99530000Y-91505000D01*
X130330000Y-66780000D02*
X133070000Y-66780000D01*
X130330000Y-74520000D02*
X133070000Y-74520000D01*
X133070000Y-74520000D02*
X133070000Y-66780000D01*
X130330000Y-74520000D02*
X130330000Y-66780000D01*
X130230000Y-51180000D02*
X132970000Y-51180000D01*
X130230000Y-58920000D02*
X132970000Y-58920000D01*
X132970000Y-58920000D02*
X132970000Y-51180000D01*
X130230000Y-58920000D02*
X130230000Y-51180000D01*
X82880000Y-42005000D02*
X85620000Y-42005000D01*
X82880000Y-49745000D02*
X85620000Y-49745000D01*
X85620000Y-49745000D02*
X85620000Y-42005000D01*
X82880000Y-49745000D02*
X82880000Y-42005000D01*
X130130000Y-36355000D02*
X132870000Y-36355000D01*
X130130000Y-44095000D02*
X132870000Y-44095000D01*
X132870000Y-44095000D02*
X132870000Y-36355000D01*
X130130000Y-44095000D02*
X130130000Y-36355000D01*
X129430000Y-103905000D02*
X132170000Y-103905000D01*
X129430000Y-111645000D02*
X132170000Y-111645000D01*
X132170000Y-111645000D02*
X132170000Y-103905000D01*
X129430000Y-111645000D02*
X129430000Y-103905000D01*
X130205000Y-81030000D02*
X132945000Y-81030000D01*
X130205000Y-88770000D02*
X132945000Y-88770000D01*
X132945000Y-88770000D02*
X132945000Y-81030000D01*
X130205000Y-88770000D02*
X130205000Y-81030000D01*
X118120000Y-126143333D02*
X119390000Y-126143333D01*
X119320000Y-127350000D02*
X119320000Y-126143333D01*
X119200000Y-127350000D02*
X119200000Y-126143333D01*
X119080000Y-127350000D02*
X119080000Y-126143333D01*
X118960000Y-127350000D02*
X118960000Y-126143333D01*
X118840000Y-127350000D02*
X118840000Y-126143333D01*
X118720000Y-127350000D02*
X118720000Y-126143333D01*
X118600000Y-127350000D02*
X118600000Y-126143333D01*
X118480000Y-127350000D02*
X118480000Y-126143333D01*
X118360000Y-127350000D02*
X118360000Y-126143333D01*
X118240000Y-127350000D02*
X118240000Y-126143333D01*
X118120000Y-123730000D02*
X118120000Y-127350000D01*
X119390000Y-123730000D02*
X118120000Y-123730000D01*
X119390000Y-127350000D02*
X119390000Y-123730000D01*
X118120000Y-127350000D02*
X119390000Y-127350000D01*
X115580000Y-126143333D02*
X116850000Y-126143333D01*
X116780000Y-127350000D02*
X116780000Y-126143333D01*
X116660000Y-127350000D02*
X116660000Y-126143333D01*
X116540000Y-127350000D02*
X116540000Y-126143333D01*
X116420000Y-127350000D02*
X116420000Y-126143333D01*
X116300000Y-127350000D02*
X116300000Y-126143333D01*
X116180000Y-127350000D02*
X116180000Y-126143333D01*
X116060000Y-127350000D02*
X116060000Y-126143333D01*
X115940000Y-127350000D02*
X115940000Y-126143333D01*
X115820000Y-127350000D02*
X115820000Y-126143333D01*
X115700000Y-127350000D02*
X115700000Y-126143333D01*
X115580000Y-123730000D02*
X115580000Y-127350000D01*
X116850000Y-123730000D02*
X115580000Y-123730000D01*
X116850000Y-127350000D02*
X116850000Y-123730000D01*
X115580000Y-127350000D02*
X116850000Y-127350000D01*
X113040000Y-126143333D02*
X114310000Y-126143333D01*
X114240000Y-127350000D02*
X114240000Y-126143333D01*
X114120000Y-127350000D02*
X114120000Y-126143333D01*
X114000000Y-127350000D02*
X114000000Y-126143333D01*
X113880000Y-127350000D02*
X113880000Y-126143333D01*
X113760000Y-127350000D02*
X113760000Y-126143333D01*
X113640000Y-127350000D02*
X113640000Y-126143333D01*
X113520000Y-127350000D02*
X113520000Y-126143333D01*
X113400000Y-127350000D02*
X113400000Y-126143333D01*
X113280000Y-127350000D02*
X113280000Y-126143333D01*
X113160000Y-127350000D02*
X113160000Y-126143333D01*
X113040000Y-123730000D02*
X113040000Y-127350000D01*
X114310000Y-123730000D02*
X113040000Y-123730000D01*
X114310000Y-127350000D02*
X114310000Y-123730000D01*
X113040000Y-127350000D02*
X114310000Y-127350000D01*
X110500000Y-126143333D02*
X111770000Y-126143333D01*
X111700000Y-127350000D02*
X111700000Y-126143333D01*
X111580000Y-127350000D02*
X111580000Y-126143333D01*
X111460000Y-127350000D02*
X111460000Y-126143333D01*
X111340000Y-127350000D02*
X111340000Y-126143333D01*
X111220000Y-127350000D02*
X111220000Y-126143333D01*
X111100000Y-127350000D02*
X111100000Y-126143333D01*
X110980000Y-127350000D02*
X110980000Y-126143333D01*
X110860000Y-127350000D02*
X110860000Y-126143333D01*
X110740000Y-127350000D02*
X110740000Y-126143333D01*
X110620000Y-127350000D02*
X110620000Y-126143333D01*
X110500000Y-123730000D02*
X110500000Y-127350000D01*
X111770000Y-123730000D02*
X110500000Y-123730000D01*
X111770000Y-127350000D02*
X111770000Y-123730000D01*
X110500000Y-127350000D02*
X111770000Y-127350000D01*
X107960000Y-126143333D02*
X109230000Y-126143333D01*
X109160000Y-127350000D02*
X109160000Y-126143333D01*
X109040000Y-127350000D02*
X109040000Y-126143333D01*
X108920000Y-127350000D02*
X108920000Y-126143333D01*
X108800000Y-127350000D02*
X108800000Y-126143333D01*
X108680000Y-127350000D02*
X108680000Y-126143333D01*
X108560000Y-127350000D02*
X108560000Y-126143333D01*
X108440000Y-127350000D02*
X108440000Y-126143333D01*
X108320000Y-127350000D02*
X108320000Y-126143333D01*
X108200000Y-127350000D02*
X108200000Y-126143333D01*
X108080000Y-127350000D02*
X108080000Y-126143333D01*
X107960000Y-123730000D02*
X107960000Y-127350000D01*
X109230000Y-123730000D02*
X107960000Y-123730000D01*
X109230000Y-127350000D02*
X109230000Y-123730000D01*
X107960000Y-127350000D02*
X109230000Y-127350000D01*
X105420000Y-126143333D02*
X106690000Y-126143333D01*
X106620000Y-127350000D02*
X106620000Y-126143333D01*
X106500000Y-127350000D02*
X106500000Y-126143333D01*
X106380000Y-127350000D02*
X106380000Y-126143333D01*
X106260000Y-127350000D02*
X106260000Y-126143333D01*
X106140000Y-127350000D02*
X106140000Y-126143333D01*
X106020000Y-127350000D02*
X106020000Y-126143333D01*
X105900000Y-127350000D02*
X105900000Y-126143333D01*
X105780000Y-127350000D02*
X105780000Y-126143333D01*
X105660000Y-127350000D02*
X105660000Y-126143333D01*
X105540000Y-127350000D02*
X105540000Y-126143333D01*
X105420000Y-123730000D02*
X105420000Y-127350000D01*
X106690000Y-123730000D02*
X105420000Y-123730000D01*
X106690000Y-127350000D02*
X106690000Y-123730000D01*
X105420000Y-127350000D02*
X106690000Y-127350000D01*
X102880000Y-126143333D02*
X104150000Y-126143333D01*
X104080000Y-127350000D02*
X104080000Y-126143333D01*
X103960000Y-127350000D02*
X103960000Y-126143333D01*
X103840000Y-127350000D02*
X103840000Y-126143333D01*
X103720000Y-127350000D02*
X103720000Y-126143333D01*
X103600000Y-127350000D02*
X103600000Y-126143333D01*
X103480000Y-127350000D02*
X103480000Y-126143333D01*
X103360000Y-127350000D02*
X103360000Y-126143333D01*
X103240000Y-127350000D02*
X103240000Y-126143333D01*
X103120000Y-127350000D02*
X103120000Y-126143333D01*
X103000000Y-127350000D02*
X103000000Y-126143333D01*
X102880000Y-123730000D02*
X102880000Y-127350000D01*
X104150000Y-123730000D02*
X102880000Y-123730000D01*
X104150000Y-127350000D02*
X104150000Y-123730000D01*
X102880000Y-127350000D02*
X104150000Y-127350000D01*
X100340000Y-126143333D02*
X101610000Y-126143333D01*
X101540000Y-127350000D02*
X101540000Y-126143333D01*
X101420000Y-127350000D02*
X101420000Y-126143333D01*
X101300000Y-127350000D02*
X101300000Y-126143333D01*
X101180000Y-127350000D02*
X101180000Y-126143333D01*
X101060000Y-127350000D02*
X101060000Y-126143333D01*
X100940000Y-127350000D02*
X100940000Y-126143333D01*
X100820000Y-127350000D02*
X100820000Y-126143333D01*
X100700000Y-127350000D02*
X100700000Y-126143333D01*
X100580000Y-127350000D02*
X100580000Y-126143333D01*
X100460000Y-127350000D02*
X100460000Y-126143333D01*
X100340000Y-123730000D02*
X100340000Y-127350000D01*
X101610000Y-123730000D02*
X100340000Y-123730000D01*
X101610000Y-127350000D02*
X101610000Y-123730000D01*
X100340000Y-127350000D02*
X101610000Y-127350000D01*
X98625000Y-129190000D02*
X99935000Y-129190000D01*
X98625000Y-129190000D02*
X98625000Y-127807000D01*
X101966000Y-122129000D02*
X102526000Y-122129000D01*
X98865000Y-122129000D02*
X99985000Y-122129000D01*
X104506000Y-122129000D02*
X105066000Y-122129000D01*
X107046000Y-122129000D02*
X107606000Y-122129000D01*
X109586000Y-122129000D02*
X110146000Y-122129000D01*
X112126000Y-122129000D02*
X112686000Y-122129000D01*
X114666000Y-122129000D02*
X115226000Y-122129000D01*
X117206000Y-122129000D02*
X117765000Y-122129000D01*
X119746000Y-122129000D02*
X120866000Y-122129000D01*
X119745000Y-128950000D02*
X120866000Y-128950000D01*
X117205000Y-128950000D02*
X117765000Y-128950000D01*
X114665000Y-128950000D02*
X115225000Y-128950000D01*
X112125000Y-128950000D02*
X112685000Y-128950000D01*
X109585000Y-128950000D02*
X110145000Y-128950000D01*
X107045000Y-128950000D02*
X107606000Y-128950000D01*
X104505000Y-128950000D02*
X105066000Y-128950000D01*
X102015000Y-128950000D02*
X102526000Y-128950000D01*
X98865000Y-128950000D02*
X99935000Y-128950000D01*
X120866000Y-128950000D02*
X120866000Y-122129000D01*
X98865000Y-128950000D02*
X98865000Y-122129000D01*
X155270000Y-126143333D02*
X156540000Y-126143333D01*
X156470000Y-127350000D02*
X156470000Y-126143333D01*
X156350000Y-127350000D02*
X156350000Y-126143333D01*
X156230000Y-127350000D02*
X156230000Y-126143333D01*
X156110000Y-127350000D02*
X156110000Y-126143333D01*
X155990000Y-127350000D02*
X155990000Y-126143333D01*
X155870000Y-127350000D02*
X155870000Y-126143333D01*
X155750000Y-127350000D02*
X155750000Y-126143333D01*
X155630000Y-127350000D02*
X155630000Y-126143333D01*
X155510000Y-127350000D02*
X155510000Y-126143333D01*
X155390000Y-127350000D02*
X155390000Y-126143333D01*
X155270000Y-123730000D02*
X155270000Y-127350000D01*
X156540000Y-123730000D02*
X155270000Y-123730000D01*
X156540000Y-127350000D02*
X156540000Y-123730000D01*
X155270000Y-127350000D02*
X156540000Y-127350000D01*
X152730000Y-126143333D02*
X154000000Y-126143333D01*
X153930000Y-127350000D02*
X153930000Y-126143333D01*
X153810000Y-127350000D02*
X153810000Y-126143333D01*
X153690000Y-127350000D02*
X153690000Y-126143333D01*
X153570000Y-127350000D02*
X153570000Y-126143333D01*
X153450000Y-127350000D02*
X153450000Y-126143333D01*
X153330000Y-127350000D02*
X153330000Y-126143333D01*
X153210000Y-127350000D02*
X153210000Y-126143333D01*
X153090000Y-127350000D02*
X153090000Y-126143333D01*
X152970000Y-127350000D02*
X152970000Y-126143333D01*
X152850000Y-127350000D02*
X152850000Y-126143333D01*
X152730000Y-123730000D02*
X152730000Y-127350000D01*
X154000000Y-123730000D02*
X152730000Y-123730000D01*
X154000000Y-127350000D02*
X154000000Y-123730000D01*
X152730000Y-127350000D02*
X154000000Y-127350000D01*
X150190000Y-126143333D02*
X151460000Y-126143333D01*
X151390000Y-127350000D02*
X151390000Y-126143333D01*
X151270000Y-127350000D02*
X151270000Y-126143333D01*
X151150000Y-127350000D02*
X151150000Y-126143333D01*
X151030000Y-127350000D02*
X151030000Y-126143333D01*
X150910000Y-127350000D02*
X150910000Y-126143333D01*
X150790000Y-127350000D02*
X150790000Y-126143333D01*
X150670000Y-127350000D02*
X150670000Y-126143333D01*
X150550000Y-127350000D02*
X150550000Y-126143333D01*
X150430000Y-127350000D02*
X150430000Y-126143333D01*
X150310000Y-127350000D02*
X150310000Y-126143333D01*
X150190000Y-123730000D02*
X150190000Y-127350000D01*
X151460000Y-123730000D02*
X150190000Y-123730000D01*
X151460000Y-127350000D02*
X151460000Y-123730000D01*
X150190000Y-127350000D02*
X151460000Y-127350000D01*
X147650000Y-126143333D02*
X148920000Y-126143333D01*
X148850000Y-127350000D02*
X148850000Y-126143333D01*
X148730000Y-127350000D02*
X148730000Y-126143333D01*
X148610000Y-127350000D02*
X148610000Y-126143333D01*
X148490000Y-127350000D02*
X148490000Y-126143333D01*
X148370000Y-127350000D02*
X148370000Y-126143333D01*
X148250000Y-127350000D02*
X148250000Y-126143333D01*
X148130000Y-127350000D02*
X148130000Y-126143333D01*
X148010000Y-127350000D02*
X148010000Y-126143333D01*
X147890000Y-127350000D02*
X147890000Y-126143333D01*
X147770000Y-127350000D02*
X147770000Y-126143333D01*
X147650000Y-123730000D02*
X147650000Y-127350000D01*
X148920000Y-123730000D02*
X147650000Y-123730000D01*
X148920000Y-127350000D02*
X148920000Y-123730000D01*
X147650000Y-127350000D02*
X148920000Y-127350000D01*
X145110000Y-126143333D02*
X146380000Y-126143333D01*
X146310000Y-127350000D02*
X146310000Y-126143333D01*
X146190000Y-127350000D02*
X146190000Y-126143333D01*
X146070000Y-127350000D02*
X146070000Y-126143333D01*
X145950000Y-127350000D02*
X145950000Y-126143333D01*
X145830000Y-127350000D02*
X145830000Y-126143333D01*
X145710000Y-127350000D02*
X145710000Y-126143333D01*
X145590000Y-127350000D02*
X145590000Y-126143333D01*
X145470000Y-127350000D02*
X145470000Y-126143333D01*
X145350000Y-127350000D02*
X145350000Y-126143333D01*
X145230000Y-127350000D02*
X145230000Y-126143333D01*
X145110000Y-123730000D02*
X145110000Y-127350000D01*
X146380000Y-123730000D02*
X145110000Y-123730000D01*
X146380000Y-127350000D02*
X146380000Y-123730000D01*
X145110000Y-127350000D02*
X146380000Y-127350000D01*
X142570000Y-126143333D02*
X143840000Y-126143333D01*
X143770000Y-127350000D02*
X143770000Y-126143333D01*
X143650000Y-127350000D02*
X143650000Y-126143333D01*
X143530000Y-127350000D02*
X143530000Y-126143333D01*
X143410000Y-127350000D02*
X143410000Y-126143333D01*
X143290000Y-127350000D02*
X143290000Y-126143333D01*
X143170000Y-127350000D02*
X143170000Y-126143333D01*
X143050000Y-127350000D02*
X143050000Y-126143333D01*
X142930000Y-127350000D02*
X142930000Y-126143333D01*
X142810000Y-127350000D02*
X142810000Y-126143333D01*
X142690000Y-127350000D02*
X142690000Y-126143333D01*
X142570000Y-123730000D02*
X142570000Y-127350000D01*
X143840000Y-123730000D02*
X142570000Y-123730000D01*
X143840000Y-127350000D02*
X143840000Y-123730000D01*
X142570000Y-127350000D02*
X143840000Y-127350000D01*
X140030000Y-126143333D02*
X141300000Y-126143333D01*
X141230000Y-127350000D02*
X141230000Y-126143333D01*
X141110000Y-127350000D02*
X141110000Y-126143333D01*
X140990000Y-127350000D02*
X140990000Y-126143333D01*
X140870000Y-127350000D02*
X140870000Y-126143333D01*
X140750000Y-127350000D02*
X140750000Y-126143333D01*
X140630000Y-127350000D02*
X140630000Y-126143333D01*
X140510000Y-127350000D02*
X140510000Y-126143333D01*
X140390000Y-127350000D02*
X140390000Y-126143333D01*
X140270000Y-127350000D02*
X140270000Y-126143333D01*
X140150000Y-127350000D02*
X140150000Y-126143333D01*
X140030000Y-123730000D02*
X140030000Y-127350000D01*
X141300000Y-123730000D02*
X140030000Y-123730000D01*
X141300000Y-127350000D02*
X141300000Y-123730000D01*
X140030000Y-127350000D02*
X141300000Y-127350000D01*
X137490000Y-126143333D02*
X138760000Y-126143333D01*
X138690000Y-127350000D02*
X138690000Y-126143333D01*
X138570000Y-127350000D02*
X138570000Y-126143333D01*
X138450000Y-127350000D02*
X138450000Y-126143333D01*
X138330000Y-127350000D02*
X138330000Y-126143333D01*
X138210000Y-127350000D02*
X138210000Y-126143333D01*
X138090000Y-127350000D02*
X138090000Y-126143333D01*
X137970000Y-127350000D02*
X137970000Y-126143333D01*
X137850000Y-127350000D02*
X137850000Y-126143333D01*
X137730000Y-127350000D02*
X137730000Y-126143333D01*
X137610000Y-127350000D02*
X137610000Y-126143333D01*
X137490000Y-123730000D02*
X137490000Y-127350000D01*
X138760000Y-123730000D02*
X137490000Y-123730000D01*
X138760000Y-127350000D02*
X138760000Y-123730000D01*
X137490000Y-127350000D02*
X138760000Y-127350000D01*
X135775000Y-129190000D02*
X137085000Y-129190000D01*
X135775000Y-129190000D02*
X135775000Y-127807000D01*
X139116000Y-122129000D02*
X139676000Y-122129000D01*
X136015000Y-122129000D02*
X137135000Y-122129000D01*
X141656000Y-122129000D02*
X142216000Y-122129000D01*
X144196000Y-122129000D02*
X144756000Y-122129000D01*
X146736000Y-122129000D02*
X147296000Y-122129000D01*
X149276000Y-122129000D02*
X149836000Y-122129000D01*
X151816000Y-122129000D02*
X152376000Y-122129000D01*
X154356000Y-122129000D02*
X154915000Y-122129000D01*
X156896000Y-122129000D02*
X158016000Y-122129000D01*
X156895000Y-128950000D02*
X158016000Y-128950000D01*
X154355000Y-128950000D02*
X154915000Y-128950000D01*
X151815000Y-128950000D02*
X152375000Y-128950000D01*
X149275000Y-128950000D02*
X149835000Y-128950000D01*
X146735000Y-128950000D02*
X147295000Y-128950000D01*
X144195000Y-128950000D02*
X144756000Y-128950000D01*
X141655000Y-128950000D02*
X142216000Y-128950000D01*
X139165000Y-128950000D02*
X139676000Y-128950000D01*
X136015000Y-128950000D02*
X137085000Y-128950000D01*
X158016000Y-128950000D02*
X158016000Y-122129000D01*
X136015000Y-128950000D02*
X136015000Y-122129000D01*
X125230000Y-37260000D02*
X107110000Y-37260000D01*
X125230000Y-88300000D02*
X125230000Y-37260000D01*
X107110000Y-88300000D02*
X125230000Y-88300000D01*
X107110000Y-37260000D02*
X107110000Y-88300000D01*
X122230000Y-37320000D02*
X117170000Y-37320000D01*
X122230000Y-88240000D02*
X122230000Y-37320000D01*
X110110000Y-88240000D02*
X122230000Y-88240000D01*
X110110000Y-37320000D02*
X110110000Y-88240000D01*
X115170000Y-37320000D02*
X110110000Y-37320000D01*
X117170000Y-37320000D02*
G75*
G02X115170000Y-37320000I-1000000J0D01*
G01*
X86135000Y-57127500D02*
X86135000Y-67627500D01*
X104155000Y-57127500D02*
X86135000Y-57127500D01*
X104155000Y-67627500D02*
X104155000Y-57127500D01*
X86135000Y-67627500D02*
X104155000Y-67627500D01*
X86195000Y-60127500D02*
X86195000Y-61377500D01*
X104095000Y-60127500D02*
X86195000Y-60127500D01*
X104095000Y-64627500D02*
X104095000Y-60127500D01*
X86195000Y-64627500D02*
X104095000Y-64627500D01*
X86195000Y-63377500D02*
X86195000Y-64627500D01*
X86195000Y-61377500D02*
G75*
G02X86195000Y-63377500I0J-1000000D01*
G01*
X86135000Y-73465000D02*
X86135000Y-83965000D01*
X104155000Y-73465000D02*
X86135000Y-73465000D01*
X104155000Y-83965000D02*
X104155000Y-73465000D01*
X86135000Y-83965000D02*
X104155000Y-83965000D01*
X86195000Y-76465000D02*
X86195000Y-77715000D01*
X104095000Y-76465000D02*
X86195000Y-76465000D01*
X104095000Y-80965000D02*
X104095000Y-76465000D01*
X86195000Y-80965000D02*
X104095000Y-80965000D01*
X86195000Y-79715000D02*
X86195000Y-80965000D01*
X86195000Y-77715000D02*
G75*
G02X86195000Y-79715000I0J-1000000D01*
G01*
X133235000Y-49669200D02*
X133235000Y-60169200D01*
X158875000Y-49669200D02*
X133235000Y-49669200D01*
X158875000Y-60169200D02*
X158875000Y-49669200D01*
X133235000Y-60169200D02*
X158875000Y-60169200D01*
X133295000Y-52669200D02*
X133295000Y-53919200D01*
X158815000Y-52669200D02*
X133295000Y-52669200D01*
X158815000Y-57169200D02*
X158815000Y-52669200D01*
X133295000Y-57169200D02*
X158815000Y-57169200D01*
X133295000Y-55919200D02*
X133295000Y-57169200D01*
X133295000Y-53919200D02*
G75*
G02X133295000Y-55919200I0J-1000000D01*
G01*
X95285000Y-102915000D02*
X95285000Y-113415000D01*
X120925000Y-102915000D02*
X95285000Y-102915000D01*
X120925000Y-113415000D02*
X120925000Y-102915000D01*
X95285000Y-113415000D02*
X120925000Y-113415000D01*
X95345000Y-105915000D02*
X95345000Y-107165000D01*
X120865000Y-105915000D02*
X95345000Y-105915000D01*
X120865000Y-110415000D02*
X120865000Y-105915000D01*
X95345000Y-110415000D02*
X120865000Y-110415000D01*
X95345000Y-109165000D02*
X95345000Y-110415000D01*
X95345000Y-107165000D02*
G75*
G02X95345000Y-109165000I0J-1000000D01*
G01*
X133235000Y-34640000D02*
X133235000Y-45140000D01*
X158875000Y-34640000D02*
X133235000Y-34640000D01*
X158875000Y-45140000D02*
X158875000Y-34640000D01*
X133235000Y-45140000D02*
X158875000Y-45140000D01*
X133295000Y-37640000D02*
X133295000Y-38890000D01*
X158815000Y-37640000D02*
X133295000Y-37640000D01*
X158815000Y-42140000D02*
X158815000Y-37640000D01*
X133295000Y-42140000D02*
X158815000Y-42140000D01*
X133295000Y-40890000D02*
X133295000Y-42140000D01*
X133295000Y-38890000D02*
G75*
G02X133295000Y-40890000I0J-1000000D01*
G01*
X133235000Y-79727500D02*
X133235000Y-90227500D01*
X158875000Y-79727500D02*
X133235000Y-79727500D01*
X158875000Y-90227500D02*
X158875000Y-79727500D01*
X133235000Y-90227500D02*
X158875000Y-90227500D01*
X133295000Y-82727500D02*
X133295000Y-83977500D01*
X158815000Y-82727500D02*
X133295000Y-82727500D01*
X158815000Y-87227500D02*
X158815000Y-82727500D01*
X133295000Y-87227500D02*
X158815000Y-87227500D01*
X133295000Y-85977500D02*
X133295000Y-87227500D01*
X133295000Y-83977500D02*
G75*
G02X133295000Y-85977500I0J-1000000D01*
G01*
X132835000Y-102915000D02*
X132835000Y-113415000D01*
X158475000Y-102915000D02*
X132835000Y-102915000D01*
X158475000Y-113415000D02*
X158475000Y-102915000D01*
X132835000Y-113415000D02*
X158475000Y-113415000D01*
X132895000Y-105915000D02*
X132895000Y-107165000D01*
X158415000Y-105915000D02*
X132895000Y-105915000D01*
X158415000Y-110415000D02*
X158415000Y-105915000D01*
X132895000Y-110415000D02*
X158415000Y-110415000D01*
X132895000Y-109165000D02*
X132895000Y-110415000D01*
X132895000Y-107165000D02*
G75*
G02X132895000Y-109165000I0J-1000000D01*
G01*
X103065000Y-90465000D02*
X103065000Y-100965000D01*
X121085000Y-90465000D02*
X103065000Y-90465000D01*
X121085000Y-100965000D02*
X121085000Y-90465000D01*
X103065000Y-100965000D02*
X121085000Y-100965000D01*
X103125000Y-93465000D02*
X103125000Y-94715000D01*
X121025000Y-93465000D02*
X103125000Y-93465000D01*
X121025000Y-97965000D02*
X121025000Y-93465000D01*
X103125000Y-97965000D02*
X121025000Y-97965000D01*
X103125000Y-96715000D02*
X103125000Y-97965000D01*
X103125000Y-94715000D02*
G75*
G02X103125000Y-96715000I0J-1000000D01*
G01*
X86135000Y-40790000D02*
X86135000Y-51290000D01*
X104155000Y-40790000D02*
X86135000Y-40790000D01*
X104155000Y-51290000D02*
X104155000Y-40790000D01*
X86135000Y-51290000D02*
X104155000Y-51290000D01*
X86195000Y-43790000D02*
X86195000Y-45040000D01*
X104095000Y-43790000D02*
X86195000Y-43790000D01*
X104095000Y-48290000D02*
X104095000Y-43790000D01*
X86195000Y-48290000D02*
X104095000Y-48290000D01*
X86195000Y-47040000D02*
X86195000Y-48290000D01*
X86195000Y-45040000D02*
G75*
G02X86195000Y-47040000I0J-1000000D01*
G01*
X133235000Y-64698300D02*
X133235000Y-75198300D01*
X158875000Y-64698300D02*
X133235000Y-64698300D01*
X158875000Y-75198300D02*
X158875000Y-64698300D01*
X133235000Y-75198300D02*
X158875000Y-75198300D01*
X133295000Y-67698300D02*
X133295000Y-68948300D01*
X158815000Y-67698300D02*
X133295000Y-67698300D01*
X158815000Y-72198300D02*
X158815000Y-67698300D01*
X133295000Y-72198300D02*
X158815000Y-72198300D01*
X133295000Y-70948300D02*
X133295000Y-72198300D01*
X133295000Y-68948300D02*
G75*
G02X133295000Y-70948300I0J-1000000D01*
G01*
X72120000Y-40625000D02*
X72120000Y-37225000D01*
X72120000Y-42265000D02*
X72120000Y-41725000D01*
X74950000Y-35065000D02*
X75460000Y-35065000D01*
X75460000Y-35585000D02*
X75460000Y-35065000D01*
X74950000Y-35585000D02*
X75460000Y-35585000D01*
X72120000Y-36125000D02*
X72120000Y-35585000D01*
X74950000Y-42785000D02*
X75460000Y-42785000D01*
X74950000Y-42265000D02*
X75460000Y-42265000D01*
X72120000Y-35585000D02*
X72350000Y-35585000D01*
X68450000Y-42785000D02*
X72350000Y-42785000D01*
X75460000Y-42785000D02*
X75460000Y-42265000D01*
X68450000Y-35065000D02*
X72350000Y-35065000D01*
X68450000Y-42785000D02*
X68450000Y-35065000D01*
X72120000Y-42265000D02*
X72350000Y-42265000D01*
X118155000Y-118488000D02*
X118155000Y-115688000D01*
X97665000Y-118488000D02*
X120865000Y-118488000D01*
X97665000Y-115688000D02*
X97665000Y-118488000D01*
X120865000Y-115688000D02*
X97665000Y-115688000D01*
X120865000Y-118488000D02*
X120865000Y-115688000D01*
X155305000Y-118488000D02*
X155305000Y-115688000D01*
X134815000Y-118488000D02*
X158015000Y-118488000D01*
X134815000Y-115688000D02*
X134815000Y-118488000D01*
X158015000Y-115688000D02*
X134815000Y-115688000D01*
X158015000Y-118488000D02*
X158015000Y-115688000D01*
X135745000Y-97862500D02*
X135745000Y-100662500D01*
X158775000Y-97862500D02*
X133035000Y-97862500D01*
X158775000Y-100662500D02*
X158775000Y-97862500D01*
X133035000Y-100662500D02*
X158775000Y-100662500D01*
X133035000Y-97862500D02*
X133035000Y-100662500D01*
X81345000Y-116330000D02*
X81345000Y-116660000D01*
X87885000Y-116330000D02*
X81345000Y-116330000D01*
X87885000Y-116660000D02*
X87885000Y-116330000D01*
X81345000Y-119070000D02*
X81345000Y-118740000D01*
X87885000Y-119070000D02*
X81345000Y-119070000D01*
X87885000Y-118740000D02*
X87885000Y-119070000D01*
X81345000Y-112905000D02*
X81345000Y-113235000D01*
X87885000Y-112905000D02*
X81345000Y-112905000D01*
X87885000Y-113235000D02*
X87885000Y-112905000D01*
X81345000Y-115645000D02*
X81345000Y-115315000D01*
X87885000Y-115645000D02*
X81345000Y-115645000D01*
X87885000Y-115315000D02*
X87885000Y-115645000D01*
X69855000Y-53080000D02*
X70185000Y-53080000D01*
X69855000Y-46540000D02*
X69855000Y-53080000D01*
X70185000Y-46540000D02*
X69855000Y-46540000D01*
X72595000Y-53080000D02*
X72265000Y-53080000D01*
X72595000Y-46540000D02*
X72595000Y-53080000D01*
X72265000Y-46540000D02*
X72595000Y-46540000D01*
X81430000Y-41455000D02*
X80100000Y-41455000D01*
X81430000Y-40125000D02*
X81430000Y-41455000D01*
X81430000Y-38855000D02*
X78770000Y-38855000D01*
X78770000Y-38855000D02*
X78770000Y-36255000D01*
X81430000Y-38855000D02*
X81430000Y-36255000D01*
X81430000Y-36255000D02*
X78770000Y-36255000D01*
X161705000Y-43180000D02*
X162975000Y-43180000D01*
X161705000Y-44450000D02*
X161705000Y-43180000D01*
X164017929Y-105790000D02*
X164472071Y-105790000D01*
X164017929Y-105030000D02*
X164472071Y-105030000D01*
X166557929Y-105790000D02*
X166955000Y-105790000D01*
X166557929Y-105030000D02*
X166955000Y-105030000D01*
X175615000Y-105790000D02*
X169615000Y-105790000D01*
X175615000Y-105030000D02*
X175615000Y-105790000D01*
X169615000Y-105030000D02*
X175615000Y-105030000D01*
X166955000Y-104140000D02*
X169615000Y-104140000D01*
X164017929Y-103250000D02*
X164472071Y-103250000D01*
X164017929Y-102490000D02*
X164472071Y-102490000D01*
X166557929Y-103250000D02*
X166955000Y-103250000D01*
X166557929Y-102490000D02*
X166955000Y-102490000D01*
X175615000Y-103250000D02*
X169615000Y-103250000D01*
X175615000Y-102490000D02*
X175615000Y-103250000D01*
X169615000Y-102490000D02*
X175615000Y-102490000D01*
X166955000Y-101600000D02*
X169615000Y-101600000D01*
X164017929Y-100710000D02*
X164472071Y-100710000D01*
X164017929Y-99950000D02*
X164472071Y-99950000D01*
X166557929Y-100710000D02*
X166955000Y-100710000D01*
X166557929Y-99950000D02*
X166955000Y-99950000D01*
X175615000Y-100710000D02*
X169615000Y-100710000D01*
X175615000Y-99950000D02*
X175615000Y-100710000D01*
X169615000Y-99950000D02*
X175615000Y-99950000D01*
X166955000Y-99060000D02*
X169615000Y-99060000D01*
X164017929Y-98170000D02*
X164472071Y-98170000D01*
X164017929Y-97410000D02*
X164472071Y-97410000D01*
X166557929Y-98170000D02*
X166955000Y-98170000D01*
X166557929Y-97410000D02*
X166955000Y-97410000D01*
X175615000Y-98170000D02*
X169615000Y-98170000D01*
X175615000Y-97410000D02*
X175615000Y-98170000D01*
X169615000Y-97410000D02*
X175615000Y-97410000D01*
X166955000Y-96520000D02*
X169615000Y-96520000D01*
X164017929Y-95630000D02*
X164472071Y-95630000D01*
X164017929Y-94870000D02*
X164472071Y-94870000D01*
X166557929Y-95630000D02*
X166955000Y-95630000D01*
X166557929Y-94870000D02*
X166955000Y-94870000D01*
X175615000Y-95630000D02*
X169615000Y-95630000D01*
X175615000Y-94870000D02*
X175615000Y-95630000D01*
X169615000Y-94870000D02*
X175615000Y-94870000D01*
X166955000Y-93980000D02*
X169615000Y-93980000D01*
X164017929Y-93090000D02*
X164472071Y-93090000D01*
X164017929Y-92330000D02*
X164472071Y-92330000D01*
X166557929Y-93090000D02*
X166955000Y-93090000D01*
X166557929Y-92330000D02*
X166955000Y-92330000D01*
X175615000Y-93090000D02*
X169615000Y-93090000D01*
X175615000Y-92330000D02*
X175615000Y-93090000D01*
X169615000Y-92330000D02*
X175615000Y-92330000D01*
X166955000Y-91440000D02*
X169615000Y-91440000D01*
X164017929Y-90550000D02*
X164472071Y-90550000D01*
X164017929Y-89790000D02*
X164472071Y-89790000D01*
X166557929Y-90550000D02*
X166955000Y-90550000D01*
X166557929Y-89790000D02*
X166955000Y-89790000D01*
X175615000Y-90550000D02*
X169615000Y-90550000D01*
X175615000Y-89790000D02*
X175615000Y-90550000D01*
X169615000Y-89790000D02*
X175615000Y-89790000D01*
X166955000Y-88900000D02*
X169615000Y-88900000D01*
X164017929Y-88010000D02*
X164472071Y-88010000D01*
X164017929Y-87250000D02*
X164472071Y-87250000D01*
X166557929Y-88010000D02*
X166955000Y-88010000D01*
X166557929Y-87250000D02*
X166955000Y-87250000D01*
X175615000Y-88010000D02*
X169615000Y-88010000D01*
X175615000Y-87250000D02*
X175615000Y-88010000D01*
X169615000Y-87250000D02*
X175615000Y-87250000D01*
X166955000Y-86360000D02*
X169615000Y-86360000D01*
X164017929Y-85470000D02*
X164472071Y-85470000D01*
X164017929Y-84710000D02*
X164472071Y-84710000D01*
X166557929Y-85470000D02*
X166955000Y-85470000D01*
X166557929Y-84710000D02*
X166955000Y-84710000D01*
X175615000Y-85470000D02*
X169615000Y-85470000D01*
X175615000Y-84710000D02*
X175615000Y-85470000D01*
X169615000Y-84710000D02*
X175615000Y-84710000D01*
X166955000Y-83820000D02*
X169615000Y-83820000D01*
X164017929Y-82930000D02*
X164472071Y-82930000D01*
X164017929Y-82170000D02*
X164472071Y-82170000D01*
X166557929Y-82930000D02*
X166955000Y-82930000D01*
X166557929Y-82170000D02*
X166955000Y-82170000D01*
X175615000Y-82930000D02*
X169615000Y-82930000D01*
X175615000Y-82170000D02*
X175615000Y-82930000D01*
X169615000Y-82170000D02*
X175615000Y-82170000D01*
X166955000Y-81280000D02*
X169615000Y-81280000D01*
X164017929Y-80390000D02*
X164472071Y-80390000D01*
X164017929Y-79630000D02*
X164472071Y-79630000D01*
X166557929Y-80390000D02*
X166955000Y-80390000D01*
X166557929Y-79630000D02*
X166955000Y-79630000D01*
X175615000Y-80390000D02*
X169615000Y-80390000D01*
X175615000Y-79630000D02*
X175615000Y-80390000D01*
X169615000Y-79630000D02*
X175615000Y-79630000D01*
X166955000Y-78740000D02*
X169615000Y-78740000D01*
X164017929Y-77850000D02*
X164472071Y-77850000D01*
X164017929Y-77090000D02*
X164472071Y-77090000D01*
X166557929Y-77850000D02*
X166955000Y-77850000D01*
X166557929Y-77090000D02*
X166955000Y-77090000D01*
X175615000Y-77850000D02*
X169615000Y-77850000D01*
X175615000Y-77090000D02*
X175615000Y-77850000D01*
X169615000Y-77090000D02*
X175615000Y-77090000D01*
X166955000Y-76200000D02*
X169615000Y-76200000D01*
X164017929Y-75310000D02*
X164472071Y-75310000D01*
X164017929Y-74550000D02*
X164472071Y-74550000D01*
X166557929Y-75310000D02*
X166955000Y-75310000D01*
X166557929Y-74550000D02*
X166955000Y-74550000D01*
X175615000Y-75310000D02*
X169615000Y-75310000D01*
X175615000Y-74550000D02*
X175615000Y-75310000D01*
X169615000Y-74550000D02*
X175615000Y-74550000D01*
X166955000Y-73660000D02*
X169615000Y-73660000D01*
X164017929Y-72770000D02*
X164472071Y-72770000D01*
X164017929Y-72010000D02*
X164472071Y-72010000D01*
X166557929Y-72770000D02*
X166955000Y-72770000D01*
X166557929Y-72010000D02*
X166955000Y-72010000D01*
X175615000Y-72770000D02*
X169615000Y-72770000D01*
X175615000Y-72010000D02*
X175615000Y-72770000D01*
X169615000Y-72010000D02*
X175615000Y-72010000D01*
X166955000Y-71120000D02*
X169615000Y-71120000D01*
X164017929Y-70230000D02*
X164472071Y-70230000D01*
X164017929Y-69470000D02*
X164472071Y-69470000D01*
X166557929Y-70230000D02*
X166955000Y-70230000D01*
X166557929Y-69470000D02*
X166955000Y-69470000D01*
X175615000Y-70230000D02*
X169615000Y-70230000D01*
X175615000Y-69470000D02*
X175615000Y-70230000D01*
X169615000Y-69470000D02*
X175615000Y-69470000D01*
X166955000Y-68580000D02*
X169615000Y-68580000D01*
X164017929Y-67690000D02*
X164472071Y-67690000D01*
X164017929Y-66930000D02*
X164472071Y-66930000D01*
X166557929Y-67690000D02*
X166955000Y-67690000D01*
X166557929Y-66930000D02*
X166955000Y-66930000D01*
X175615000Y-67690000D02*
X169615000Y-67690000D01*
X175615000Y-66930000D02*
X175615000Y-67690000D01*
X169615000Y-66930000D02*
X175615000Y-66930000D01*
X166955000Y-66040000D02*
X169615000Y-66040000D01*
X164017929Y-65150000D02*
X164472071Y-65150000D01*
X164017929Y-64390000D02*
X164472071Y-64390000D01*
X166557929Y-65150000D02*
X166955000Y-65150000D01*
X166557929Y-64390000D02*
X166955000Y-64390000D01*
X175615000Y-65150000D02*
X169615000Y-65150000D01*
X175615000Y-64390000D02*
X175615000Y-65150000D01*
X169615000Y-64390000D02*
X175615000Y-64390000D01*
X166955000Y-63500000D02*
X169615000Y-63500000D01*
X164017929Y-62610000D02*
X164472071Y-62610000D01*
X164017929Y-61850000D02*
X164472071Y-61850000D01*
X166557929Y-62610000D02*
X166955000Y-62610000D01*
X166557929Y-61850000D02*
X166955000Y-61850000D01*
X175615000Y-62610000D02*
X169615000Y-62610000D01*
X175615000Y-61850000D02*
X175615000Y-62610000D01*
X169615000Y-61850000D02*
X175615000Y-61850000D01*
X166955000Y-60960000D02*
X169615000Y-60960000D01*
X164017929Y-60070000D02*
X164472071Y-60070000D01*
X164017929Y-59310000D02*
X164472071Y-59310000D01*
X166557929Y-60070000D02*
X166955000Y-60070000D01*
X166557929Y-59310000D02*
X166955000Y-59310000D01*
X175615000Y-60070000D02*
X169615000Y-60070000D01*
X175615000Y-59310000D02*
X175615000Y-60070000D01*
X169615000Y-59310000D02*
X175615000Y-59310000D01*
X166955000Y-58420000D02*
X169615000Y-58420000D01*
X164017929Y-57530000D02*
X164472071Y-57530000D01*
X164017929Y-56770000D02*
X164472071Y-56770000D01*
X166557929Y-57530000D02*
X166955000Y-57530000D01*
X166557929Y-56770000D02*
X166955000Y-56770000D01*
X175615000Y-57530000D02*
X169615000Y-57530000D01*
X175615000Y-56770000D02*
X175615000Y-57530000D01*
X169615000Y-56770000D02*
X175615000Y-56770000D01*
X166955000Y-55880000D02*
X169615000Y-55880000D01*
X164017929Y-54990000D02*
X164472071Y-54990000D01*
X164017929Y-54230000D02*
X164472071Y-54230000D01*
X166557929Y-54990000D02*
X166955000Y-54990000D01*
X166557929Y-54230000D02*
X166955000Y-54230000D01*
X175615000Y-54990000D02*
X169615000Y-54990000D01*
X175615000Y-54230000D02*
X175615000Y-54990000D01*
X169615000Y-54230000D02*
X175615000Y-54230000D01*
X166955000Y-53340000D02*
X169615000Y-53340000D01*
X164017929Y-52450000D02*
X164472071Y-52450000D01*
X164017929Y-51690000D02*
X164472071Y-51690000D01*
X166557929Y-52450000D02*
X166955000Y-52450000D01*
X166557929Y-51690000D02*
X166955000Y-51690000D01*
X175615000Y-52450000D02*
X169615000Y-52450000D01*
X175615000Y-51690000D02*
X175615000Y-52450000D01*
X169615000Y-51690000D02*
X175615000Y-51690000D01*
X166955000Y-50800000D02*
X169615000Y-50800000D01*
X164017929Y-49910000D02*
X164472071Y-49910000D01*
X164017929Y-49150000D02*
X164472071Y-49150000D01*
X166557929Y-49910000D02*
X166955000Y-49910000D01*
X166557929Y-49150000D02*
X166955000Y-49150000D01*
X175615000Y-49910000D02*
X169615000Y-49910000D01*
X175615000Y-49150000D02*
X175615000Y-49910000D01*
X169615000Y-49150000D02*
X175615000Y-49150000D01*
X166955000Y-48260000D02*
X169615000Y-48260000D01*
X164017929Y-47370000D02*
X164472071Y-47370000D01*
X164017929Y-46610000D02*
X164472071Y-46610000D01*
X166557929Y-47370000D02*
X166955000Y-47370000D01*
X166557929Y-46610000D02*
X166955000Y-46610000D01*
X175615000Y-47370000D02*
X169615000Y-47370000D01*
X175615000Y-46610000D02*
X175615000Y-47370000D01*
X169615000Y-46610000D02*
X175615000Y-46610000D01*
X166955000Y-45720000D02*
X169615000Y-45720000D01*
X164085000Y-44830000D02*
X164472071Y-44830000D01*
X164085000Y-44070000D02*
X164472071Y-44070000D01*
X166557929Y-44830000D02*
X166955000Y-44830000D01*
X166557929Y-44070000D02*
X166955000Y-44070000D01*
X169615000Y-44730000D02*
X175615000Y-44730000D01*
X169615000Y-44610000D02*
X175615000Y-44610000D01*
X169615000Y-44490000D02*
X175615000Y-44490000D01*
X169615000Y-44370000D02*
X175615000Y-44370000D01*
X169615000Y-44250000D02*
X175615000Y-44250000D01*
X169615000Y-44130000D02*
X175615000Y-44130000D01*
X175615000Y-44830000D02*
X169615000Y-44830000D01*
X175615000Y-44070000D02*
X175615000Y-44830000D01*
X169615000Y-44070000D02*
X175615000Y-44070000D01*
X169615000Y-43120000D02*
X166955000Y-43120000D01*
X169615000Y-106740000D02*
X169615000Y-43120000D01*
X166955000Y-106740000D02*
X169615000Y-106740000D01*
X166955000Y-43120000D02*
X166955000Y-106740000D01*
X78070000Y-81770000D02*
X76800000Y-81770000D01*
X78070000Y-80500000D02*
X78070000Y-81770000D01*
X75757071Y-69960000D02*
X75302929Y-69960000D01*
X75757071Y-70720000D02*
X75302929Y-70720000D01*
X73217071Y-69960000D02*
X72820000Y-69960000D01*
X73217071Y-70720000D02*
X72820000Y-70720000D01*
X64160000Y-69960000D02*
X70160000Y-69960000D01*
X64160000Y-70720000D02*
X64160000Y-69960000D01*
X70160000Y-70720000D02*
X64160000Y-70720000D01*
X72820000Y-71610000D02*
X70160000Y-71610000D01*
X75757071Y-72500000D02*
X75302929Y-72500000D01*
X75757071Y-73260000D02*
X75302929Y-73260000D01*
X73217071Y-72500000D02*
X72820000Y-72500000D01*
X73217071Y-73260000D02*
X72820000Y-73260000D01*
X64160000Y-72500000D02*
X70160000Y-72500000D01*
X64160000Y-73260000D02*
X64160000Y-72500000D01*
X70160000Y-73260000D02*
X64160000Y-73260000D01*
X72820000Y-74150000D02*
X70160000Y-74150000D01*
X75757071Y-75040000D02*
X75302929Y-75040000D01*
X75757071Y-75800000D02*
X75302929Y-75800000D01*
X73217071Y-75040000D02*
X72820000Y-75040000D01*
X73217071Y-75800000D02*
X72820000Y-75800000D01*
X64160000Y-75040000D02*
X70160000Y-75040000D01*
X64160000Y-75800000D02*
X64160000Y-75040000D01*
X70160000Y-75800000D02*
X64160000Y-75800000D01*
X72820000Y-76690000D02*
X70160000Y-76690000D01*
X75757071Y-77580000D02*
X75302929Y-77580000D01*
X75757071Y-78340000D02*
X75302929Y-78340000D01*
X73217071Y-77580000D02*
X72820000Y-77580000D01*
X73217071Y-78340000D02*
X72820000Y-78340000D01*
X64160000Y-77580000D02*
X70160000Y-77580000D01*
X64160000Y-78340000D02*
X64160000Y-77580000D01*
X70160000Y-78340000D02*
X64160000Y-78340000D01*
X72820000Y-79230000D02*
X70160000Y-79230000D01*
X75690000Y-80120000D02*
X75302929Y-80120000D01*
X75690000Y-80880000D02*
X75302929Y-80880000D01*
X73217071Y-80120000D02*
X72820000Y-80120000D01*
X73217071Y-80880000D02*
X72820000Y-80880000D01*
X70160000Y-80220000D02*
X64160000Y-80220000D01*
X70160000Y-80340000D02*
X64160000Y-80340000D01*
X70160000Y-80460000D02*
X64160000Y-80460000D01*
X70160000Y-80580000D02*
X64160000Y-80580000D01*
X70160000Y-80700000D02*
X64160000Y-80700000D01*
X70160000Y-80820000D02*
X64160000Y-80820000D01*
X64160000Y-80120000D02*
X70160000Y-80120000D01*
X64160000Y-80880000D02*
X64160000Y-80120000D01*
X70160000Y-80880000D02*
X64160000Y-80880000D01*
X70160000Y-81830000D02*
X72820000Y-81830000D01*
X70160000Y-69010000D02*
X70160000Y-81830000D01*
X72820000Y-69010000D02*
X70160000Y-69010000D01*
X72820000Y-81830000D02*
X72820000Y-69010000D01*
X75420000Y-65145000D02*
X74150000Y-65145000D01*
X75420000Y-63875000D02*
X75420000Y-65145000D01*
X73107071Y-58415000D02*
X72710000Y-58415000D01*
X73107071Y-59175000D02*
X72710000Y-59175000D01*
X64050000Y-58415000D02*
X70050000Y-58415000D01*
X64050000Y-59175000D02*
X64050000Y-58415000D01*
X70050000Y-59175000D02*
X64050000Y-59175000D01*
X72710000Y-60065000D02*
X70050000Y-60065000D01*
X73107071Y-60955000D02*
X72710000Y-60955000D01*
X73107071Y-61715000D02*
X72710000Y-61715000D01*
X64050000Y-60955000D02*
X70050000Y-60955000D01*
X64050000Y-61715000D02*
X64050000Y-60955000D01*
X70050000Y-61715000D02*
X64050000Y-61715000D01*
X72710000Y-62605000D02*
X70050000Y-62605000D01*
X73040000Y-63495000D02*
X72710000Y-63495000D01*
X73040000Y-64255000D02*
X72710000Y-64255000D01*
X70050000Y-63595000D02*
X64050000Y-63595000D01*
X70050000Y-63715000D02*
X64050000Y-63715000D01*
X70050000Y-63835000D02*
X64050000Y-63835000D01*
X70050000Y-63955000D02*
X64050000Y-63955000D01*
X70050000Y-64075000D02*
X64050000Y-64075000D01*
X70050000Y-64195000D02*
X64050000Y-64195000D01*
X64050000Y-63495000D02*
X70050000Y-63495000D01*
X64050000Y-64255000D02*
X64050000Y-63495000D01*
X70050000Y-64255000D02*
X64050000Y-64255000D01*
X70050000Y-65205000D02*
X72710000Y-65205000D01*
X70050000Y-57465000D02*
X70050000Y-65205000D01*
X72710000Y-57465000D02*
X70050000Y-57465000D01*
X72710000Y-65205000D02*
X72710000Y-57465000D01*
X73605000Y-129090000D02*
X73761000Y-129090000D01*
X71289000Y-129090000D02*
X71445000Y-129090000D01*
X73604837Y-126488870D02*
G75*
G02X73605000Y-128570961I-1079837J-1041130D01*
G01*
X71445163Y-126488870D02*
G75*
G03X71445000Y-128570961I1079837J-1041130D01*
G01*
X73603608Y-125857665D02*
G75*
G02X73760516Y-129090000I-1078608J-1672335D01*
G01*
X71446392Y-125857665D02*
G75*
G03X71289484Y-129090000I1078608J-1672335D01*
G01*
X162980000Y-39369801D02*
X163380000Y-39369801D01*
X163180000Y-39569801D02*
X163180000Y-39169801D01*
X164005000Y-35219000D02*
X164745000Y-35219000D01*
X163838000Y-35259000D02*
X164912000Y-35259000D01*
X163711000Y-35299000D02*
X165039000Y-35299000D01*
X163607000Y-35339000D02*
X165143000Y-35339000D01*
X163516000Y-35379000D02*
X165234000Y-35379000D01*
X163435000Y-35419000D02*
X165315000Y-35419000D01*
X163362000Y-35459000D02*
X165388000Y-35459000D01*
X165215000Y-35499000D02*
X165455000Y-35499000D01*
X163295000Y-35499000D02*
X163535000Y-35499000D01*
X165215000Y-35539000D02*
X165517000Y-35539000D01*
X163233000Y-35539000D02*
X163535000Y-35539000D01*
X165215000Y-35579000D02*
X165575000Y-35579000D01*
X163175000Y-35579000D02*
X163535000Y-35579000D01*
X165215000Y-35619000D02*
X165629000Y-35619000D01*
X163121000Y-35619000D02*
X163535000Y-35619000D01*
X165215000Y-35659000D02*
X165679000Y-35659000D01*
X163071000Y-35659000D02*
X163535000Y-35659000D01*
X165215000Y-35699000D02*
X165726000Y-35699000D01*
X163024000Y-35699000D02*
X163535000Y-35699000D01*
X165215000Y-35739000D02*
X165771000Y-35739000D01*
X162979000Y-35739000D02*
X163535000Y-35739000D01*
X165215000Y-35779000D02*
X165813000Y-35779000D01*
X162937000Y-35779000D02*
X163535000Y-35779000D01*
X165215000Y-35819000D02*
X165853000Y-35819000D01*
X162897000Y-35819000D02*
X163535000Y-35819000D01*
X165215000Y-35859000D02*
X165891000Y-35859000D01*
X162859000Y-35859000D02*
X163535000Y-35859000D01*
X165215000Y-35899000D02*
X165927000Y-35899000D01*
X162823000Y-35899000D02*
X163535000Y-35899000D01*
X165215000Y-35939000D02*
X165962000Y-35939000D01*
X162788000Y-35939000D02*
X163535000Y-35939000D01*
X165215000Y-35979000D02*
X165994000Y-35979000D01*
X162756000Y-35979000D02*
X163535000Y-35979000D01*
X165215000Y-36019000D02*
X166025000Y-36019000D01*
X162725000Y-36019000D02*
X163535000Y-36019000D01*
X165215000Y-36059000D02*
X166055000Y-36059000D01*
X162695000Y-36059000D02*
X163535000Y-36059000D01*
X165215000Y-36099000D02*
X166083000Y-36099000D01*
X162667000Y-36099000D02*
X163535000Y-36099000D01*
X165215000Y-36139000D02*
X166110000Y-36139000D01*
X162640000Y-36139000D02*
X163535000Y-36139000D01*
X165215000Y-36179000D02*
X166135000Y-36179000D01*
X162615000Y-36179000D02*
X163535000Y-36179000D01*
X165215000Y-36219000D02*
X166160000Y-36219000D01*
X162590000Y-36219000D02*
X163535000Y-36219000D01*
X165215000Y-36259000D02*
X166183000Y-36259000D01*
X162567000Y-36259000D02*
X163535000Y-36259000D01*
X165215000Y-36299000D02*
X166205000Y-36299000D01*
X162545000Y-36299000D02*
X163535000Y-36299000D01*
X165215000Y-36339000D02*
X166226000Y-36339000D01*
X162524000Y-36339000D02*
X163535000Y-36339000D01*
X165215000Y-36379000D02*
X166245000Y-36379000D01*
X162505000Y-36379000D02*
X163535000Y-36379000D01*
X165215000Y-36419000D02*
X166264000Y-36419000D01*
X162486000Y-36419000D02*
X163535000Y-36419000D01*
X165215000Y-36459000D02*
X166282000Y-36459000D01*
X162468000Y-36459000D02*
X163535000Y-36459000D01*
X165215000Y-36499000D02*
X166299000Y-36499000D01*
X162451000Y-36499000D02*
X163535000Y-36499000D01*
X165215000Y-36539000D02*
X166315000Y-36539000D01*
X162435000Y-36539000D02*
X163535000Y-36539000D01*
X165215000Y-36579000D02*
X166329000Y-36579000D01*
X162421000Y-36579000D02*
X163535000Y-36579000D01*
X165215000Y-36620000D02*
X166343000Y-36620000D01*
X162407000Y-36620000D02*
X163535000Y-36620000D01*
X165215000Y-36660000D02*
X166357000Y-36660000D01*
X162393000Y-36660000D02*
X163535000Y-36660000D01*
X165215000Y-36700000D02*
X166369000Y-36700000D01*
X162381000Y-36700000D02*
X163535000Y-36700000D01*
X165215000Y-36740000D02*
X166380000Y-36740000D01*
X162370000Y-36740000D02*
X163535000Y-36740000D01*
X165215000Y-36780000D02*
X166391000Y-36780000D01*
X162359000Y-36780000D02*
X163535000Y-36780000D01*
X165215000Y-36820000D02*
X166400000Y-36820000D01*
X162350000Y-36820000D02*
X163535000Y-36820000D01*
X165215000Y-36860000D02*
X166409000Y-36860000D01*
X162341000Y-36860000D02*
X163535000Y-36860000D01*
X165215000Y-36900000D02*
X166417000Y-36900000D01*
X162333000Y-36900000D02*
X163535000Y-36900000D01*
X165215000Y-36940000D02*
X166425000Y-36940000D01*
X162325000Y-36940000D02*
X163535000Y-36940000D01*
X165215000Y-36980000D02*
X166431000Y-36980000D01*
X162319000Y-36980000D02*
X163535000Y-36980000D01*
X165215000Y-37020000D02*
X166437000Y-37020000D01*
X162313000Y-37020000D02*
X163535000Y-37020000D01*
X165215000Y-37060000D02*
X166442000Y-37060000D01*
X162308000Y-37060000D02*
X163535000Y-37060000D01*
X165215000Y-37100000D02*
X166446000Y-37100000D01*
X162304000Y-37100000D02*
X163535000Y-37100000D01*
X162301000Y-37140000D02*
X166449000Y-37140000D01*
X162298000Y-37180000D02*
X166452000Y-37180000D01*
X162296000Y-37220000D02*
X166454000Y-37220000D01*
X162295000Y-37260000D02*
X166455000Y-37260000D01*
X162295000Y-37300000D02*
X166455000Y-37300000D01*
X166495000Y-37300000D02*
G75*
G03X166495000Y-37300000I-2120000J0D01*
G01*
X164870000Y-116330199D02*
X164470000Y-116330199D01*
X164670000Y-116130199D02*
X164670000Y-116530199D01*
X163845000Y-120481000D02*
X163105000Y-120481000D01*
X164012000Y-120441000D02*
X162938000Y-120441000D01*
X164139000Y-120401000D02*
X162811000Y-120401000D01*
X164243000Y-120361000D02*
X162707000Y-120361000D01*
X164334000Y-120321000D02*
X162616000Y-120321000D01*
X164415000Y-120281000D02*
X162535000Y-120281000D01*
X164488000Y-120241000D02*
X162462000Y-120241000D01*
X162635000Y-120201000D02*
X162395000Y-120201000D01*
X164555000Y-120201000D02*
X164315000Y-120201000D01*
X162635000Y-120161000D02*
X162333000Y-120161000D01*
X164617000Y-120161000D02*
X164315000Y-120161000D01*
X162635000Y-120121000D02*
X162275000Y-120121000D01*
X164675000Y-120121000D02*
X164315000Y-120121000D01*
X162635000Y-120081000D02*
X162221000Y-120081000D01*
X164729000Y-120081000D02*
X164315000Y-120081000D01*
X162635000Y-120041000D02*
X162171000Y-120041000D01*
X164779000Y-120041000D02*
X164315000Y-120041000D01*
X162635000Y-120001000D02*
X162124000Y-120001000D01*
X164826000Y-120001000D02*
X164315000Y-120001000D01*
X162635000Y-119961000D02*
X162079000Y-119961000D01*
X164871000Y-119961000D02*
X164315000Y-119961000D01*
X162635000Y-119921000D02*
X162037000Y-119921000D01*
X164913000Y-119921000D02*
X164315000Y-119921000D01*
X162635000Y-119881000D02*
X161997000Y-119881000D01*
X164953000Y-119881000D02*
X164315000Y-119881000D01*
X162635000Y-119841000D02*
X161959000Y-119841000D01*
X164991000Y-119841000D02*
X164315000Y-119841000D01*
X162635000Y-119801000D02*
X161923000Y-119801000D01*
X165027000Y-119801000D02*
X164315000Y-119801000D01*
X162635000Y-119761000D02*
X161888000Y-119761000D01*
X165062000Y-119761000D02*
X164315000Y-119761000D01*
X162635000Y-119721000D02*
X161856000Y-119721000D01*
X165094000Y-119721000D02*
X164315000Y-119721000D01*
X162635000Y-119681000D02*
X161825000Y-119681000D01*
X165125000Y-119681000D02*
X164315000Y-119681000D01*
X162635000Y-119641000D02*
X161795000Y-119641000D01*
X165155000Y-119641000D02*
X164315000Y-119641000D01*
X162635000Y-119601000D02*
X161767000Y-119601000D01*
X165183000Y-119601000D02*
X164315000Y-119601000D01*
X162635000Y-119561000D02*
X161740000Y-119561000D01*
X165210000Y-119561000D02*
X164315000Y-119561000D01*
X162635000Y-119521000D02*
X161715000Y-119521000D01*
X165235000Y-119521000D02*
X164315000Y-119521000D01*
X162635000Y-119481000D02*
X161690000Y-119481000D01*
X165260000Y-119481000D02*
X164315000Y-119481000D01*
X162635000Y-119441000D02*
X161667000Y-119441000D01*
X165283000Y-119441000D02*
X164315000Y-119441000D01*
X162635000Y-119401000D02*
X161645000Y-119401000D01*
X165305000Y-119401000D02*
X164315000Y-119401000D01*
X162635000Y-119361000D02*
X161624000Y-119361000D01*
X165326000Y-119361000D02*
X164315000Y-119361000D01*
X162635000Y-119321000D02*
X161605000Y-119321000D01*
X165345000Y-119321000D02*
X164315000Y-119321000D01*
X162635000Y-119281000D02*
X161586000Y-119281000D01*
X165364000Y-119281000D02*
X164315000Y-119281000D01*
X162635000Y-119241000D02*
X161568000Y-119241000D01*
X165382000Y-119241000D02*
X164315000Y-119241000D01*
X162635000Y-119201000D02*
X161551000Y-119201000D01*
X165399000Y-119201000D02*
X164315000Y-119201000D01*
X162635000Y-119161000D02*
X161535000Y-119161000D01*
X165415000Y-119161000D02*
X164315000Y-119161000D01*
X162635000Y-119121000D02*
X161521000Y-119121000D01*
X165429000Y-119121000D02*
X164315000Y-119121000D01*
X162635000Y-119080000D02*
X161507000Y-119080000D01*
X165443000Y-119080000D02*
X164315000Y-119080000D01*
X162635000Y-119040000D02*
X161493000Y-119040000D01*
X165457000Y-119040000D02*
X164315000Y-119040000D01*
X162635000Y-119000000D02*
X161481000Y-119000000D01*
X165469000Y-119000000D02*
X164315000Y-119000000D01*
X162635000Y-118960000D02*
X161470000Y-118960000D01*
X165480000Y-118960000D02*
X164315000Y-118960000D01*
X162635000Y-118920000D02*
X161459000Y-118920000D01*
X165491000Y-118920000D02*
X164315000Y-118920000D01*
X162635000Y-118880000D02*
X161450000Y-118880000D01*
X165500000Y-118880000D02*
X164315000Y-118880000D01*
X162635000Y-118840000D02*
X161441000Y-118840000D01*
X165509000Y-118840000D02*
X164315000Y-118840000D01*
X162635000Y-118800000D02*
X161433000Y-118800000D01*
X165517000Y-118800000D02*
X164315000Y-118800000D01*
X162635000Y-118760000D02*
X161425000Y-118760000D01*
X165525000Y-118760000D02*
X164315000Y-118760000D01*
X162635000Y-118720000D02*
X161419000Y-118720000D01*
X165531000Y-118720000D02*
X164315000Y-118720000D01*
X162635000Y-118680000D02*
X161413000Y-118680000D01*
X165537000Y-118680000D02*
X164315000Y-118680000D01*
X162635000Y-118640000D02*
X161408000Y-118640000D01*
X165542000Y-118640000D02*
X164315000Y-118640000D01*
X162635000Y-118600000D02*
X161404000Y-118600000D01*
X165546000Y-118600000D02*
X164315000Y-118600000D01*
X165549000Y-118560000D02*
X161401000Y-118560000D01*
X165552000Y-118520000D02*
X161398000Y-118520000D01*
X165554000Y-118480000D02*
X161396000Y-118480000D01*
X165555000Y-118440000D02*
X161395000Y-118440000D01*
X165555000Y-118400000D02*
X161395000Y-118400000D01*
X165595000Y-118400000D02*
G75*
G03X165595000Y-118400000I-2120000J0D01*
G01*
X77630000Y-53444801D02*
X78030000Y-53444801D01*
X77830000Y-53644801D02*
X77830000Y-53244801D01*
X78655000Y-49294000D02*
X79395000Y-49294000D01*
X78488000Y-49334000D02*
X79562000Y-49334000D01*
X78361000Y-49374000D02*
X79689000Y-49374000D01*
X78257000Y-49414000D02*
X79793000Y-49414000D01*
X78166000Y-49454000D02*
X79884000Y-49454000D01*
X78085000Y-49494000D02*
X79965000Y-49494000D01*
X78012000Y-49534000D02*
X80038000Y-49534000D01*
X79865000Y-49574000D02*
X80105000Y-49574000D01*
X77945000Y-49574000D02*
X78185000Y-49574000D01*
X79865000Y-49614000D02*
X80167000Y-49614000D01*
X77883000Y-49614000D02*
X78185000Y-49614000D01*
X79865000Y-49654000D02*
X80225000Y-49654000D01*
X77825000Y-49654000D02*
X78185000Y-49654000D01*
X79865000Y-49694000D02*
X80279000Y-49694000D01*
X77771000Y-49694000D02*
X78185000Y-49694000D01*
X79865000Y-49734000D02*
X80329000Y-49734000D01*
X77721000Y-49734000D02*
X78185000Y-49734000D01*
X79865000Y-49774000D02*
X80376000Y-49774000D01*
X77674000Y-49774000D02*
X78185000Y-49774000D01*
X79865000Y-49814000D02*
X80421000Y-49814000D01*
X77629000Y-49814000D02*
X78185000Y-49814000D01*
X79865000Y-49854000D02*
X80463000Y-49854000D01*
X77587000Y-49854000D02*
X78185000Y-49854000D01*
X79865000Y-49894000D02*
X80503000Y-49894000D01*
X77547000Y-49894000D02*
X78185000Y-49894000D01*
X79865000Y-49934000D02*
X80541000Y-49934000D01*
X77509000Y-49934000D02*
X78185000Y-49934000D01*
X79865000Y-49974000D02*
X80577000Y-49974000D01*
X77473000Y-49974000D02*
X78185000Y-49974000D01*
X79865000Y-50014000D02*
X80612000Y-50014000D01*
X77438000Y-50014000D02*
X78185000Y-50014000D01*
X79865000Y-50054000D02*
X80644000Y-50054000D01*
X77406000Y-50054000D02*
X78185000Y-50054000D01*
X79865000Y-50094000D02*
X80675000Y-50094000D01*
X77375000Y-50094000D02*
X78185000Y-50094000D01*
X79865000Y-50134000D02*
X80705000Y-50134000D01*
X77345000Y-50134000D02*
X78185000Y-50134000D01*
X79865000Y-50174000D02*
X80733000Y-50174000D01*
X77317000Y-50174000D02*
X78185000Y-50174000D01*
X79865000Y-50214000D02*
X80760000Y-50214000D01*
X77290000Y-50214000D02*
X78185000Y-50214000D01*
X79865000Y-50254000D02*
X80785000Y-50254000D01*
X77265000Y-50254000D02*
X78185000Y-50254000D01*
X79865000Y-50294000D02*
X80810000Y-50294000D01*
X77240000Y-50294000D02*
X78185000Y-50294000D01*
X79865000Y-50334000D02*
X80833000Y-50334000D01*
X77217000Y-50334000D02*
X78185000Y-50334000D01*
X79865000Y-50374000D02*
X80855000Y-50374000D01*
X77195000Y-50374000D02*
X78185000Y-50374000D01*
X79865000Y-50414000D02*
X80876000Y-50414000D01*
X77174000Y-50414000D02*
X78185000Y-50414000D01*
X79865000Y-50454000D02*
X80895000Y-50454000D01*
X77155000Y-50454000D02*
X78185000Y-50454000D01*
X79865000Y-50494000D02*
X80914000Y-50494000D01*
X77136000Y-50494000D02*
X78185000Y-50494000D01*
X79865000Y-50534000D02*
X80932000Y-50534000D01*
X77118000Y-50534000D02*
X78185000Y-50534000D01*
X79865000Y-50574000D02*
X80949000Y-50574000D01*
X77101000Y-50574000D02*
X78185000Y-50574000D01*
X79865000Y-50614000D02*
X80965000Y-50614000D01*
X77085000Y-50614000D02*
X78185000Y-50614000D01*
X79865000Y-50654000D02*
X80979000Y-50654000D01*
X77071000Y-50654000D02*
X78185000Y-50654000D01*
X79865000Y-50695000D02*
X80993000Y-50695000D01*
X77057000Y-50695000D02*
X78185000Y-50695000D01*
X79865000Y-50735000D02*
X81007000Y-50735000D01*
X77043000Y-50735000D02*
X78185000Y-50735000D01*
X79865000Y-50775000D02*
X81019000Y-50775000D01*
X77031000Y-50775000D02*
X78185000Y-50775000D01*
X79865000Y-50815000D02*
X81030000Y-50815000D01*
X77020000Y-50815000D02*
X78185000Y-50815000D01*
X79865000Y-50855000D02*
X81041000Y-50855000D01*
X77009000Y-50855000D02*
X78185000Y-50855000D01*
X79865000Y-50895000D02*
X81050000Y-50895000D01*
X77000000Y-50895000D02*
X78185000Y-50895000D01*
X79865000Y-50935000D02*
X81059000Y-50935000D01*
X76991000Y-50935000D02*
X78185000Y-50935000D01*
X79865000Y-50975000D02*
X81067000Y-50975000D01*
X76983000Y-50975000D02*
X78185000Y-50975000D01*
X79865000Y-51015000D02*
X81075000Y-51015000D01*
X76975000Y-51015000D02*
X78185000Y-51015000D01*
X79865000Y-51055000D02*
X81081000Y-51055000D01*
X76969000Y-51055000D02*
X78185000Y-51055000D01*
X79865000Y-51095000D02*
X81087000Y-51095000D01*
X76963000Y-51095000D02*
X78185000Y-51095000D01*
X79865000Y-51135000D02*
X81092000Y-51135000D01*
X76958000Y-51135000D02*
X78185000Y-51135000D01*
X79865000Y-51175000D02*
X81096000Y-51175000D01*
X76954000Y-51175000D02*
X78185000Y-51175000D01*
X76951000Y-51215000D02*
X81099000Y-51215000D01*
X76948000Y-51255000D02*
X81102000Y-51255000D01*
X76946000Y-51295000D02*
X81104000Y-51295000D01*
X76945000Y-51335000D02*
X81105000Y-51335000D01*
X76945000Y-51375000D02*
X81105000Y-51375000D01*
X81145000Y-51375000D02*
G75*
G03X81145000Y-51375000I-2120000J0D01*
G01*
D10*
X87086904Y-131327380D02*
X87086904Y-132136904D01*
X87134523Y-132232142D01*
X87182142Y-132279761D01*
X87277380Y-132327380D01*
X87467857Y-132327380D01*
X87563095Y-132279761D01*
X87610714Y-132232142D01*
X87658333Y-132136904D01*
X87658333Y-131327380D01*
X88658333Y-132327380D02*
X88086904Y-132327380D01*
X88372619Y-132327380D02*
X88372619Y-131327380D01*
X88277380Y-131470238D01*
X88182142Y-131565476D01*
X88086904Y-131613095D01*
X89039285Y-131422619D02*
X89086904Y-131375000D01*
X89182142Y-131327380D01*
X89420238Y-131327380D01*
X89515476Y-131375000D01*
X89563095Y-131422619D01*
X89610714Y-131517857D01*
X89610714Y-131613095D01*
X89563095Y-131755952D01*
X88991666Y-132327380D01*
X89610714Y-132327380D01*
X90582142Y-131352380D02*
X91248809Y-131352380D01*
X90820238Y-132352380D01*
X92058333Y-131685714D02*
X92058333Y-132352380D01*
X91820238Y-131304761D02*
X91582142Y-132019047D01*
X92201190Y-132019047D01*
X93058333Y-132352380D02*
X92582142Y-132352380D01*
X92582142Y-131352380D01*
X93344047Y-132304761D02*
X93486904Y-132352380D01*
X93725000Y-132352380D01*
X93820238Y-132304761D01*
X93867857Y-132257142D01*
X93915476Y-132161904D01*
X93915476Y-132066666D01*
X93867857Y-131971428D01*
X93820238Y-131923809D01*
X93725000Y-131876190D01*
X93534523Y-131828571D01*
X93439285Y-131780952D01*
X93391666Y-131733333D01*
X93344047Y-131638095D01*
X93344047Y-131542857D01*
X93391666Y-131447619D01*
X93439285Y-131400000D01*
X93534523Y-131352380D01*
X93772619Y-131352380D01*
X93915476Y-131400000D01*
X94248809Y-131352380D02*
X94867857Y-131352380D01*
X94534523Y-131733333D01*
X94677380Y-131733333D01*
X94772619Y-131780952D01*
X94820238Y-131828571D01*
X94867857Y-131923809D01*
X94867857Y-132161904D01*
X94820238Y-132257142D01*
X94772619Y-132304761D01*
X94677380Y-132352380D01*
X94391666Y-132352380D01*
X94296428Y-132304761D01*
X94248809Y-132257142D01*
X95248809Y-131447619D02*
X95296428Y-131400000D01*
X95391666Y-131352380D01*
X95629761Y-131352380D01*
X95725000Y-131400000D01*
X95772619Y-131447619D01*
X95820238Y-131542857D01*
X95820238Y-131638095D01*
X95772619Y-131780952D01*
X95201190Y-132352380D01*
X95820238Y-132352380D01*
X69231666Y-93322380D02*
X69231666Y-94036666D01*
X69184047Y-94179523D01*
X69088809Y-94274761D01*
X68945952Y-94322380D01*
X68850714Y-94322380D01*
X70136428Y-93655714D02*
X70136428Y-94322380D01*
X69898333Y-93274761D02*
X69660238Y-93989047D01*
X70279285Y-93989047D01*
X76002380Y-93130952D02*
X76002380Y-93321428D01*
X76050000Y-93416666D01*
X76097619Y-93464285D01*
X76240476Y-93559523D01*
X76430952Y-93607142D01*
X76811904Y-93607142D01*
X76907142Y-93559523D01*
X76954761Y-93511904D01*
X77002380Y-93416666D01*
X77002380Y-93226190D01*
X76954761Y-93130952D01*
X76907142Y-93083333D01*
X76811904Y-93035714D01*
X76573809Y-93035714D01*
X76478571Y-93083333D01*
X76430952Y-93130952D01*
X76383333Y-93226190D01*
X76383333Y-93416666D01*
X76430952Y-93511904D01*
X76478571Y-93559523D01*
X76573809Y-93607142D01*
X76002380Y-92130952D02*
X76002380Y-92607142D01*
X76478571Y-92654761D01*
X76430952Y-92607142D01*
X76383333Y-92511904D01*
X76383333Y-92273809D01*
X76430952Y-92178571D01*
X76478571Y-92130952D01*
X76573809Y-92083333D01*
X76811904Y-92083333D01*
X76907142Y-92130952D01*
X76954761Y-92178571D01*
X77002380Y-92273809D01*
X77002380Y-92511904D01*
X76954761Y-92607142D01*
X76907142Y-92654761D01*
X76002380Y-91464285D02*
X76002380Y-91369047D01*
X76050000Y-91273809D01*
X76097619Y-91226190D01*
X76192857Y-91178571D01*
X76383333Y-91130952D01*
X76621428Y-91130952D01*
X76811904Y-91178571D01*
X76907142Y-91226190D01*
X76954761Y-91273809D01*
X77002380Y-91369047D01*
X77002380Y-91464285D01*
X76954761Y-91559523D01*
X76907142Y-91607142D01*
X76811904Y-91654761D01*
X76621428Y-91702380D01*
X76383333Y-91702380D01*
X76192857Y-91654761D01*
X76097619Y-91607142D01*
X76050000Y-91559523D01*
X76002380Y-91464285D01*
X76097619Y-90750000D02*
X76050000Y-90702380D01*
X76002380Y-90607142D01*
X76002380Y-90369047D01*
X76050000Y-90273809D01*
X76097619Y-90226190D01*
X76192857Y-90178571D01*
X76288095Y-90178571D01*
X76430952Y-90226190D01*
X77002380Y-90797619D01*
X77002380Y-90178571D01*
X77002380Y-88416666D02*
X76526190Y-88750000D01*
X77002380Y-88988095D02*
X76002380Y-88988095D01*
X76002380Y-88607142D01*
X76050000Y-88511904D01*
X76097619Y-88464285D01*
X76192857Y-88416666D01*
X76335714Y-88416666D01*
X76430952Y-88464285D01*
X76478571Y-88511904D01*
X76526190Y-88607142D01*
X76526190Y-88988095D01*
X76478571Y-87988095D02*
X76478571Y-87654761D01*
X77002380Y-87511904D02*
X77002380Y-87988095D01*
X76002380Y-87988095D01*
X76002380Y-87511904D01*
X76954761Y-87130952D02*
X77002380Y-86988095D01*
X77002380Y-86750000D01*
X76954761Y-86654761D01*
X76907142Y-86607142D01*
X76811904Y-86559523D01*
X76716666Y-86559523D01*
X76621428Y-86607142D01*
X76573809Y-86654761D01*
X76526190Y-86750000D01*
X76478571Y-86940476D01*
X76430952Y-87035714D01*
X76383333Y-87083333D01*
X76288095Y-87130952D01*
X76192857Y-87130952D01*
X76097619Y-87083333D01*
X76050000Y-87035714D01*
X76002380Y-86940476D01*
X76002380Y-86702380D01*
X76050000Y-86559523D01*
X76478571Y-86130952D02*
X76478571Y-85797619D01*
X77002380Y-85654761D02*
X77002380Y-86130952D01*
X76002380Y-86130952D01*
X76002380Y-85654761D01*
X76002380Y-85369047D02*
X76002380Y-84797619D01*
X77002380Y-85083333D02*
X76002380Y-85083333D01*
X100635714Y-37752380D02*
X100730952Y-37752380D01*
X100826190Y-37800000D01*
X100873809Y-37847619D01*
X100921428Y-37942857D01*
X100969047Y-38133333D01*
X100969047Y-38371428D01*
X100921428Y-38561904D01*
X100873809Y-38657142D01*
X100826190Y-38704761D01*
X100730952Y-38752380D01*
X100635714Y-38752380D01*
X100540476Y-38704761D01*
X100492857Y-38657142D01*
X100445238Y-38561904D01*
X100397619Y-38371428D01*
X100397619Y-38133333D01*
X100445238Y-37942857D01*
X100492857Y-37847619D01*
X100540476Y-37800000D01*
X100635714Y-37752380D01*
X101397619Y-38657142D02*
X101445238Y-38704761D01*
X101397619Y-38752380D01*
X101350000Y-38704761D01*
X101397619Y-38657142D01*
X101397619Y-38752380D01*
X102397619Y-38752380D02*
X101826190Y-38752380D01*
X102111904Y-38752380D02*
X102111904Y-37752380D01*
X102016666Y-37895238D01*
X101921428Y-37990476D01*
X101826190Y-38038095D01*
X103254761Y-38085714D02*
X103254761Y-38752380D01*
X102826190Y-38085714D02*
X102826190Y-38609523D01*
X102873809Y-38704761D01*
X102969047Y-38752380D01*
X103111904Y-38752380D01*
X103207142Y-38704761D01*
X103254761Y-38657142D01*
X101257142Y-36232142D02*
X101209523Y-36279761D01*
X101066666Y-36327380D01*
X100971428Y-36327380D01*
X100828571Y-36279761D01*
X100733333Y-36184523D01*
X100685714Y-36089285D01*
X100638095Y-35898809D01*
X100638095Y-35755952D01*
X100685714Y-35565476D01*
X100733333Y-35470238D01*
X100828571Y-35375000D01*
X100971428Y-35327380D01*
X101066666Y-35327380D01*
X101209523Y-35375000D01*
X101257142Y-35422619D01*
X102209523Y-36327380D02*
X101638095Y-36327380D01*
X101923809Y-36327380D02*
X101923809Y-35327380D01*
X101828571Y-35470238D01*
X101733333Y-35565476D01*
X101638095Y-35613095D01*
X103066666Y-35660714D02*
X103066666Y-36327380D01*
X102828571Y-35279761D02*
X102590476Y-35994047D01*
X103209523Y-35994047D01*
X97383333Y-88002380D02*
X97050000Y-87526190D01*
X96811904Y-88002380D02*
X96811904Y-87002380D01*
X97192857Y-87002380D01*
X97288095Y-87050000D01*
X97335714Y-87097619D01*
X97383333Y-87192857D01*
X97383333Y-87335714D01*
X97335714Y-87430952D01*
X97288095Y-87478571D01*
X97192857Y-87526190D01*
X96811904Y-87526190D01*
X97954761Y-87430952D02*
X97859523Y-87383333D01*
X97811904Y-87335714D01*
X97764285Y-87240476D01*
X97764285Y-87192857D01*
X97811904Y-87097619D01*
X97859523Y-87050000D01*
X97954761Y-87002380D01*
X98145238Y-87002380D01*
X98240476Y-87050000D01*
X98288095Y-87097619D01*
X98335714Y-87192857D01*
X98335714Y-87240476D01*
X98288095Y-87335714D01*
X98240476Y-87383333D01*
X98145238Y-87430952D01*
X97954761Y-87430952D01*
X97859523Y-87478571D01*
X97811904Y-87526190D01*
X97764285Y-87621428D01*
X97764285Y-87811904D01*
X97811904Y-87907142D01*
X97859523Y-87954761D01*
X97954761Y-88002380D01*
X98145238Y-88002380D01*
X98240476Y-87954761D01*
X98288095Y-87907142D01*
X98335714Y-87811904D01*
X98335714Y-87621428D01*
X98288095Y-87526190D01*
X98240476Y-87478571D01*
X98145238Y-87430952D01*
X96638095Y-89310714D02*
X96638095Y-89977380D01*
X96400000Y-88929761D02*
X96161904Y-89644047D01*
X96780952Y-89644047D01*
X97066666Y-88977380D02*
X97733333Y-88977380D01*
X97304761Y-89977380D01*
X98304761Y-88977380D02*
X98400000Y-88977380D01*
X98495238Y-89025000D01*
X98542857Y-89072619D01*
X98590476Y-89167857D01*
X98638095Y-89358333D01*
X98638095Y-89596428D01*
X98590476Y-89786904D01*
X98542857Y-89882142D01*
X98495238Y-89929761D01*
X98400000Y-89977380D01*
X98304761Y-89977380D01*
X98209523Y-89929761D01*
X98161904Y-89882142D01*
X98114285Y-89786904D01*
X98066666Y-89596428D01*
X98066666Y-89358333D01*
X98114285Y-89167857D01*
X98161904Y-89072619D01*
X98209523Y-89025000D01*
X98304761Y-88977380D01*
X70017380Y-99468095D02*
X69017380Y-99468095D01*
X69017380Y-99230000D01*
X69065000Y-99087142D01*
X69160238Y-98991904D01*
X69255476Y-98944285D01*
X69445952Y-98896666D01*
X69588809Y-98896666D01*
X69779285Y-98944285D01*
X69874523Y-98991904D01*
X69969761Y-99087142D01*
X70017380Y-99230000D01*
X70017380Y-99468095D01*
X69017380Y-98563333D02*
X69017380Y-97896666D01*
X70017380Y-98325238D01*
X74937380Y-99968095D02*
X74937380Y-100158571D01*
X74985000Y-100253809D01*
X75032619Y-100301428D01*
X75175476Y-100396666D01*
X75365952Y-100444285D01*
X75746904Y-100444285D01*
X75842142Y-100396666D01*
X75889761Y-100349047D01*
X75937380Y-100253809D01*
X75937380Y-100063333D01*
X75889761Y-99968095D01*
X75842142Y-99920476D01*
X75746904Y-99872857D01*
X75508809Y-99872857D01*
X75413571Y-99920476D01*
X75365952Y-99968095D01*
X75318333Y-100063333D01*
X75318333Y-100253809D01*
X75365952Y-100349047D01*
X75413571Y-100396666D01*
X75508809Y-100444285D01*
X74937380Y-98968095D02*
X74937380Y-99444285D01*
X75413571Y-99491904D01*
X75365952Y-99444285D01*
X75318333Y-99349047D01*
X75318333Y-99110952D01*
X75365952Y-99015714D01*
X75413571Y-98968095D01*
X75508809Y-98920476D01*
X75746904Y-98920476D01*
X75842142Y-98968095D01*
X75889761Y-99015714D01*
X75937380Y-99110952D01*
X75937380Y-99349047D01*
X75889761Y-99444285D01*
X75842142Y-99491904D01*
X74937380Y-98301428D02*
X74937380Y-98206190D01*
X74985000Y-98110952D01*
X75032619Y-98063333D01*
X75127857Y-98015714D01*
X75318333Y-97968095D01*
X75556428Y-97968095D01*
X75746904Y-98015714D01*
X75842142Y-98063333D01*
X75889761Y-98110952D01*
X75937380Y-98206190D01*
X75937380Y-98301428D01*
X75889761Y-98396666D01*
X75842142Y-98444285D01*
X75746904Y-98491904D01*
X75556428Y-98539523D01*
X75318333Y-98539523D01*
X75127857Y-98491904D01*
X75032619Y-98444285D01*
X74985000Y-98396666D01*
X74937380Y-98301428D01*
X75032619Y-97587142D02*
X74985000Y-97539523D01*
X74937380Y-97444285D01*
X74937380Y-97206190D01*
X74985000Y-97110952D01*
X75032619Y-97063333D01*
X75127857Y-97015714D01*
X75223095Y-97015714D01*
X75365952Y-97063333D01*
X75937380Y-97634761D01*
X75937380Y-97015714D01*
X86308333Y-87502380D02*
X85975000Y-87026190D01*
X85736904Y-87502380D02*
X85736904Y-86502380D01*
X86117857Y-86502380D01*
X86213095Y-86550000D01*
X86260714Y-86597619D01*
X86308333Y-86692857D01*
X86308333Y-86835714D01*
X86260714Y-86930952D01*
X86213095Y-86978571D01*
X86117857Y-87026190D01*
X85736904Y-87026190D01*
X86641666Y-86502380D02*
X87308333Y-86502380D01*
X86879761Y-87502380D01*
X79088095Y-86760714D02*
X79088095Y-87427380D01*
X78850000Y-86379761D02*
X78611904Y-87094047D01*
X79230952Y-87094047D01*
X79516666Y-86427380D02*
X80183333Y-86427380D01*
X79754761Y-87427380D01*
X80754761Y-86427380D02*
X80850000Y-86427380D01*
X80945238Y-86475000D01*
X80992857Y-86522619D01*
X81040476Y-86617857D01*
X81088095Y-86808333D01*
X81088095Y-87046428D01*
X81040476Y-87236904D01*
X80992857Y-87332142D01*
X80945238Y-87379761D01*
X80850000Y-87427380D01*
X80754761Y-87427380D01*
X80659523Y-87379761D01*
X80611904Y-87332142D01*
X80564285Y-87236904D01*
X80516666Y-87046428D01*
X80516666Y-86808333D01*
X80564285Y-86617857D01*
X80611904Y-86522619D01*
X80659523Y-86475000D01*
X80754761Y-86427380D01*
X86383333Y-99002380D02*
X86050000Y-98526190D01*
X85811904Y-99002380D02*
X85811904Y-98002380D01*
X86192857Y-98002380D01*
X86288095Y-98050000D01*
X86335714Y-98097619D01*
X86383333Y-98192857D01*
X86383333Y-98335714D01*
X86335714Y-98430952D01*
X86288095Y-98478571D01*
X86192857Y-98526190D01*
X85811904Y-98526190D01*
X87240476Y-98002380D02*
X87050000Y-98002380D01*
X86954761Y-98050000D01*
X86907142Y-98097619D01*
X86811904Y-98240476D01*
X86764285Y-98430952D01*
X86764285Y-98811904D01*
X86811904Y-98907142D01*
X86859523Y-98954761D01*
X86954761Y-99002380D01*
X87145238Y-99002380D01*
X87240476Y-98954761D01*
X87288095Y-98907142D01*
X87335714Y-98811904D01*
X87335714Y-98573809D01*
X87288095Y-98478571D01*
X87240476Y-98430952D01*
X87145238Y-98383333D01*
X86954761Y-98383333D01*
X86859523Y-98430952D01*
X86811904Y-98478571D01*
X86764285Y-98573809D01*
X78688095Y-97835714D02*
X78688095Y-98502380D01*
X78450000Y-97454761D02*
X78211904Y-98169047D01*
X78830952Y-98169047D01*
X79116666Y-97502380D02*
X79783333Y-97502380D01*
X79354761Y-98502380D01*
X80354761Y-97502380D02*
X80450000Y-97502380D01*
X80545238Y-97550000D01*
X80592857Y-97597619D01*
X80640476Y-97692857D01*
X80688095Y-97883333D01*
X80688095Y-98121428D01*
X80640476Y-98311904D01*
X80592857Y-98407142D01*
X80545238Y-98454761D01*
X80450000Y-98502380D01*
X80354761Y-98502380D01*
X80259523Y-98454761D01*
X80211904Y-98407142D01*
X80164285Y-98311904D01*
X80116666Y-98121428D01*
X80116666Y-97883333D01*
X80164285Y-97692857D01*
X80211904Y-97597619D01*
X80259523Y-97550000D01*
X80354761Y-97502380D01*
X86458333Y-91227380D02*
X86125000Y-90751190D01*
X85886904Y-91227380D02*
X85886904Y-90227380D01*
X86267857Y-90227380D01*
X86363095Y-90275000D01*
X86410714Y-90322619D01*
X86458333Y-90417857D01*
X86458333Y-90560714D01*
X86410714Y-90655952D01*
X86363095Y-90703571D01*
X86267857Y-90751190D01*
X85886904Y-90751190D01*
X87363095Y-90227380D02*
X86886904Y-90227380D01*
X86839285Y-90703571D01*
X86886904Y-90655952D01*
X86982142Y-90608333D01*
X87220238Y-90608333D01*
X87315476Y-90655952D01*
X87363095Y-90703571D01*
X87410714Y-90798809D01*
X87410714Y-91036904D01*
X87363095Y-91132142D01*
X87315476Y-91179761D01*
X87220238Y-91227380D01*
X86982142Y-91227380D01*
X86886904Y-91179761D01*
X86839285Y-91132142D01*
X79088095Y-90285714D02*
X79088095Y-90952380D01*
X78850000Y-89904761D02*
X78611904Y-90619047D01*
X79230952Y-90619047D01*
X79516666Y-89952380D02*
X80183333Y-89952380D01*
X79754761Y-90952380D01*
X80754761Y-89952380D02*
X80850000Y-89952380D01*
X80945238Y-90000000D01*
X80992857Y-90047619D01*
X81040476Y-90142857D01*
X81088095Y-90333333D01*
X81088095Y-90571428D01*
X81040476Y-90761904D01*
X80992857Y-90857142D01*
X80945238Y-90904761D01*
X80850000Y-90952380D01*
X80754761Y-90952380D01*
X80659523Y-90904761D01*
X80611904Y-90857142D01*
X80564285Y-90761904D01*
X80516666Y-90571428D01*
X80516666Y-90333333D01*
X80564285Y-90142857D01*
X80611904Y-90047619D01*
X80659523Y-90000000D01*
X80754761Y-89952380D01*
X86383333Y-94777380D02*
X86050000Y-94301190D01*
X85811904Y-94777380D02*
X85811904Y-93777380D01*
X86192857Y-93777380D01*
X86288095Y-93825000D01*
X86335714Y-93872619D01*
X86383333Y-93967857D01*
X86383333Y-94110714D01*
X86335714Y-94205952D01*
X86288095Y-94253571D01*
X86192857Y-94301190D01*
X85811904Y-94301190D01*
X87240476Y-94110714D02*
X87240476Y-94777380D01*
X87002380Y-93729761D02*
X86764285Y-94444047D01*
X87383333Y-94444047D01*
X79013095Y-94110714D02*
X79013095Y-94777380D01*
X78775000Y-93729761D02*
X78536904Y-94444047D01*
X79155952Y-94444047D01*
X79441666Y-93777380D02*
X80108333Y-93777380D01*
X79679761Y-94777380D01*
X80679761Y-93777380D02*
X80775000Y-93777380D01*
X80870238Y-93825000D01*
X80917857Y-93872619D01*
X80965476Y-93967857D01*
X81013095Y-94158333D01*
X81013095Y-94396428D01*
X80965476Y-94586904D01*
X80917857Y-94682142D01*
X80870238Y-94729761D01*
X80775000Y-94777380D01*
X80679761Y-94777380D01*
X80584523Y-94729761D01*
X80536904Y-94682142D01*
X80489285Y-94586904D01*
X80441666Y-94396428D01*
X80441666Y-94158333D01*
X80489285Y-93967857D01*
X80536904Y-93872619D01*
X80584523Y-93825000D01*
X80679761Y-93777380D01*
X70017380Y-122508095D02*
X69017380Y-122508095D01*
X69017380Y-122270000D01*
X69065000Y-122127142D01*
X69160238Y-122031904D01*
X69255476Y-121984285D01*
X69445952Y-121936666D01*
X69588809Y-121936666D01*
X69779285Y-121984285D01*
X69874523Y-122031904D01*
X69969761Y-122127142D01*
X70017380Y-122270000D01*
X70017380Y-122508095D01*
X69017380Y-121079523D02*
X69017380Y-121270000D01*
X69065000Y-121365238D01*
X69112619Y-121412857D01*
X69255476Y-121508095D01*
X69445952Y-121555714D01*
X69826904Y-121555714D01*
X69922142Y-121508095D01*
X69969761Y-121460476D01*
X70017380Y-121365238D01*
X70017380Y-121174761D01*
X69969761Y-121079523D01*
X69922142Y-121031904D01*
X69826904Y-120984285D01*
X69588809Y-120984285D01*
X69493571Y-121031904D01*
X69445952Y-121079523D01*
X69398333Y-121174761D01*
X69398333Y-121365238D01*
X69445952Y-121460476D01*
X69493571Y-121508095D01*
X69588809Y-121555714D01*
X75937380Y-122865238D02*
X74937380Y-122865238D01*
X75937380Y-122293809D01*
X74937380Y-122293809D01*
X75937380Y-121817619D02*
X74937380Y-121817619D01*
X75651666Y-121484285D01*
X74937380Y-121150952D01*
X75937380Y-121150952D01*
X75937380Y-120674761D02*
X74937380Y-120674761D01*
X70017380Y-105228095D02*
X69017380Y-105228095D01*
X69017380Y-104990000D01*
X69065000Y-104847142D01*
X69160238Y-104751904D01*
X69255476Y-104704285D01*
X69445952Y-104656666D01*
X69588809Y-104656666D01*
X69779285Y-104704285D01*
X69874523Y-104751904D01*
X69969761Y-104847142D01*
X70017380Y-104990000D01*
X70017380Y-105228095D01*
X69017380Y-103751904D02*
X69017380Y-104228095D01*
X69493571Y-104275714D01*
X69445952Y-104228095D01*
X69398333Y-104132857D01*
X69398333Y-103894761D01*
X69445952Y-103799523D01*
X69493571Y-103751904D01*
X69588809Y-103704285D01*
X69826904Y-103704285D01*
X69922142Y-103751904D01*
X69969761Y-103799523D01*
X70017380Y-103894761D01*
X70017380Y-104132857D01*
X69969761Y-104228095D01*
X69922142Y-104275714D01*
X75937380Y-105394761D02*
X74937380Y-105394761D01*
X75937380Y-104918571D02*
X74937380Y-104918571D01*
X75937380Y-104347142D01*
X74937380Y-104347142D01*
X74937380Y-104013809D02*
X74937380Y-103442380D01*
X75937380Y-103728095D02*
X74937380Y-103728095D01*
X70017380Y-116748095D02*
X69017380Y-116748095D01*
X69017380Y-116510000D01*
X69065000Y-116367142D01*
X69160238Y-116271904D01*
X69255476Y-116224285D01*
X69445952Y-116176666D01*
X69588809Y-116176666D01*
X69779285Y-116224285D01*
X69874523Y-116271904D01*
X69969761Y-116367142D01*
X70017380Y-116510000D01*
X70017380Y-116748095D01*
X69350714Y-115319523D02*
X70017380Y-115319523D01*
X68969761Y-115557619D02*
X69684047Y-115795714D01*
X69684047Y-115176666D01*
X75937380Y-116748095D02*
X74937380Y-116748095D01*
X75651666Y-116414761D01*
X74937380Y-116081428D01*
X75937380Y-116081428D01*
X75937380Y-115129047D02*
X75937380Y-115605238D01*
X74937380Y-115605238D01*
X70017380Y-110988095D02*
X69017380Y-110988095D01*
X69017380Y-110750000D01*
X69065000Y-110607142D01*
X69160238Y-110511904D01*
X69255476Y-110464285D01*
X69445952Y-110416666D01*
X69588809Y-110416666D01*
X69779285Y-110464285D01*
X69874523Y-110511904D01*
X69969761Y-110607142D01*
X70017380Y-110750000D01*
X70017380Y-110988095D01*
X69017380Y-110083333D02*
X69017380Y-109464285D01*
X69398333Y-109797619D01*
X69398333Y-109654761D01*
X69445952Y-109559523D01*
X69493571Y-109511904D01*
X69588809Y-109464285D01*
X69826904Y-109464285D01*
X69922142Y-109511904D01*
X69969761Y-109559523D01*
X70017380Y-109654761D01*
X70017380Y-109940476D01*
X69969761Y-110035714D01*
X69922142Y-110083333D01*
X74937380Y-111083333D02*
X75937380Y-110750000D01*
X74937380Y-110416666D01*
X75937380Y-110083333D02*
X74937380Y-110083333D01*
X74937380Y-109702380D01*
X74985000Y-109607142D01*
X75032619Y-109559523D01*
X75127857Y-109511904D01*
X75270714Y-109511904D01*
X75365952Y-109559523D01*
X75413571Y-109607142D01*
X75461190Y-109702380D01*
X75461190Y-110083333D01*
X87427380Y-107238095D02*
X86427380Y-107238095D01*
X86427380Y-107000000D01*
X86475000Y-106857142D01*
X86570238Y-106761904D01*
X86665476Y-106714285D01*
X86855952Y-106666666D01*
X86998809Y-106666666D01*
X87189285Y-106714285D01*
X87284523Y-106761904D01*
X87379761Y-106857142D01*
X87427380Y-107000000D01*
X87427380Y-107238095D01*
X87427380Y-105714285D02*
X87427380Y-106285714D01*
X87427380Y-106000000D02*
X86427380Y-106000000D01*
X86570238Y-106095238D01*
X86665476Y-106190476D01*
X86713095Y-106285714D01*
X84877380Y-109017857D02*
X84877380Y-109589285D01*
X84877380Y-109303571D02*
X83877380Y-109303571D01*
X84020238Y-109398809D01*
X84115476Y-109494047D01*
X84163095Y-109589285D01*
X84877380Y-108589285D02*
X83877380Y-108589285D01*
X84877380Y-108017857D01*
X83877380Y-108017857D01*
X84210714Y-107113095D02*
X84877380Y-107113095D01*
X83829761Y-107351190D02*
X84544047Y-107589285D01*
X84544047Y-106970238D01*
X84877380Y-106065476D02*
X84877380Y-106636904D01*
X84877380Y-106351190D02*
X83877380Y-106351190D01*
X84020238Y-106446428D01*
X84115476Y-106541666D01*
X84163095Y-106636904D01*
X84210714Y-105208333D02*
X84877380Y-105208333D01*
X83829761Y-105446428D02*
X84544047Y-105684523D01*
X84544047Y-105065476D01*
X84305952Y-104541666D02*
X84258333Y-104636904D01*
X84210714Y-104684523D01*
X84115476Y-104732142D01*
X84067857Y-104732142D01*
X83972619Y-104684523D01*
X83925000Y-104636904D01*
X83877380Y-104541666D01*
X83877380Y-104351190D01*
X83925000Y-104255952D01*
X83972619Y-104208333D01*
X84067857Y-104160714D01*
X84115476Y-104160714D01*
X84210714Y-104208333D01*
X84258333Y-104255952D01*
X84305952Y-104351190D01*
X84305952Y-104541666D01*
X84353571Y-104636904D01*
X84401190Y-104684523D01*
X84496428Y-104732142D01*
X84686904Y-104732142D01*
X84782142Y-104684523D01*
X84829761Y-104636904D01*
X84877380Y-104541666D01*
X84877380Y-104351190D01*
X84829761Y-104255952D01*
X84782142Y-104208333D01*
X84686904Y-104160714D01*
X84496428Y-104160714D01*
X84401190Y-104208333D01*
X84353571Y-104255952D01*
X84305952Y-104351190D01*
X94182142Y-109117857D02*
X94229761Y-109165476D01*
X94277380Y-109308333D01*
X94277380Y-109403571D01*
X94229761Y-109546428D01*
X94134523Y-109641666D01*
X94039285Y-109689285D01*
X93848809Y-109736904D01*
X93705952Y-109736904D01*
X93515476Y-109689285D01*
X93420238Y-109641666D01*
X93325000Y-109546428D01*
X93277380Y-109403571D01*
X93277380Y-109308333D01*
X93325000Y-109165476D01*
X93372619Y-109117857D01*
X94277380Y-108165476D02*
X94277380Y-108736904D01*
X94277380Y-108451190D02*
X93277380Y-108451190D01*
X93420238Y-108546428D01*
X93515476Y-108641666D01*
X93563095Y-108736904D01*
X94277380Y-107213095D02*
X94277380Y-107784523D01*
X94277380Y-107498809D02*
X93277380Y-107498809D01*
X93420238Y-107594047D01*
X93515476Y-107689285D01*
X93563095Y-107784523D01*
X90902380Y-109689285D02*
X90902380Y-109594047D01*
X90950000Y-109498809D01*
X90997619Y-109451190D01*
X91092857Y-109403571D01*
X91283333Y-109355952D01*
X91521428Y-109355952D01*
X91711904Y-109403571D01*
X91807142Y-109451190D01*
X91854761Y-109498809D01*
X91902380Y-109594047D01*
X91902380Y-109689285D01*
X91854761Y-109784523D01*
X91807142Y-109832142D01*
X91711904Y-109879761D01*
X91521428Y-109927380D01*
X91283333Y-109927380D01*
X91092857Y-109879761D01*
X90997619Y-109832142D01*
X90950000Y-109784523D01*
X90902380Y-109689285D01*
X91807142Y-108927380D02*
X91854761Y-108879761D01*
X91902380Y-108927380D01*
X91854761Y-108975000D01*
X91807142Y-108927380D01*
X91902380Y-108927380D01*
X91902380Y-107927380D02*
X91902380Y-108498809D01*
X91902380Y-108213095D02*
X90902380Y-108213095D01*
X91045238Y-108308333D01*
X91140476Y-108403571D01*
X91188095Y-108498809D01*
X91235714Y-107070238D02*
X91902380Y-107070238D01*
X91235714Y-107498809D02*
X91759523Y-107498809D01*
X91854761Y-107451190D01*
X91902380Y-107355952D01*
X91902380Y-107213095D01*
X91854761Y-107117857D01*
X91807142Y-107070238D01*
X84757142Y-62992857D02*
X84804761Y-63040476D01*
X84852380Y-63183333D01*
X84852380Y-63278571D01*
X84804761Y-63421428D01*
X84709523Y-63516666D01*
X84614285Y-63564285D01*
X84423809Y-63611904D01*
X84280952Y-63611904D01*
X84090476Y-63564285D01*
X83995238Y-63516666D01*
X83900000Y-63421428D01*
X83852380Y-63278571D01*
X83852380Y-63183333D01*
X83900000Y-63040476D01*
X83947619Y-62992857D01*
X84852380Y-62040476D02*
X84852380Y-62611904D01*
X84852380Y-62326190D02*
X83852380Y-62326190D01*
X83995238Y-62421428D01*
X84090476Y-62516666D01*
X84138095Y-62611904D01*
X83852380Y-61421428D02*
X83852380Y-61326190D01*
X83900000Y-61230952D01*
X83947619Y-61183333D01*
X84042857Y-61135714D01*
X84233333Y-61088095D01*
X84471428Y-61088095D01*
X84661904Y-61135714D01*
X84757142Y-61183333D01*
X84804761Y-61230952D01*
X84852380Y-61326190D01*
X84852380Y-61421428D01*
X84804761Y-61516666D01*
X84757142Y-61564285D01*
X84661904Y-61611904D01*
X84471428Y-61659523D01*
X84233333Y-61659523D01*
X84042857Y-61611904D01*
X83947619Y-61564285D01*
X83900000Y-61516666D01*
X83852380Y-61421428D01*
X81502380Y-63564285D02*
X81502380Y-63469047D01*
X81550000Y-63373809D01*
X81597619Y-63326190D01*
X81692857Y-63278571D01*
X81883333Y-63230952D01*
X82121428Y-63230952D01*
X82311904Y-63278571D01*
X82407142Y-63326190D01*
X82454761Y-63373809D01*
X82502380Y-63469047D01*
X82502380Y-63564285D01*
X82454761Y-63659523D01*
X82407142Y-63707142D01*
X82311904Y-63754761D01*
X82121428Y-63802380D01*
X81883333Y-63802380D01*
X81692857Y-63754761D01*
X81597619Y-63707142D01*
X81550000Y-63659523D01*
X81502380Y-63564285D01*
X82407142Y-62802380D02*
X82454761Y-62754761D01*
X82502380Y-62802380D01*
X82454761Y-62850000D01*
X82407142Y-62802380D01*
X82502380Y-62802380D01*
X82502380Y-61802380D02*
X82502380Y-62373809D01*
X82502380Y-62088095D02*
X81502380Y-62088095D01*
X81645238Y-62183333D01*
X81740476Y-62278571D01*
X81788095Y-62373809D01*
X81835714Y-60945238D02*
X82502380Y-60945238D01*
X81835714Y-61373809D02*
X82359523Y-61373809D01*
X82454761Y-61326190D01*
X82502380Y-61230952D01*
X82502380Y-61088095D01*
X82454761Y-60992857D01*
X82407142Y-60945238D01*
X84732142Y-78866666D02*
X84779761Y-78914285D01*
X84827380Y-79057142D01*
X84827380Y-79152380D01*
X84779761Y-79295238D01*
X84684523Y-79390476D01*
X84589285Y-79438095D01*
X84398809Y-79485714D01*
X84255952Y-79485714D01*
X84065476Y-79438095D01*
X83970238Y-79390476D01*
X83875000Y-79295238D01*
X83827380Y-79152380D01*
X83827380Y-79057142D01*
X83875000Y-78914285D01*
X83922619Y-78866666D01*
X84827380Y-78390476D02*
X84827380Y-78200000D01*
X84779761Y-78104761D01*
X84732142Y-78057142D01*
X84589285Y-77961904D01*
X84398809Y-77914285D01*
X84017857Y-77914285D01*
X83922619Y-77961904D01*
X83875000Y-78009523D01*
X83827380Y-78104761D01*
X83827380Y-78295238D01*
X83875000Y-78390476D01*
X83922619Y-78438095D01*
X84017857Y-78485714D01*
X84255952Y-78485714D01*
X84351190Y-78438095D01*
X84398809Y-78390476D01*
X84446428Y-78295238D01*
X84446428Y-78104761D01*
X84398809Y-78009523D01*
X84351190Y-77961904D01*
X84255952Y-77914285D01*
X81577380Y-79914285D02*
X81577380Y-79819047D01*
X81625000Y-79723809D01*
X81672619Y-79676190D01*
X81767857Y-79628571D01*
X81958333Y-79580952D01*
X82196428Y-79580952D01*
X82386904Y-79628571D01*
X82482142Y-79676190D01*
X82529761Y-79723809D01*
X82577380Y-79819047D01*
X82577380Y-79914285D01*
X82529761Y-80009523D01*
X82482142Y-80057142D01*
X82386904Y-80104761D01*
X82196428Y-80152380D01*
X81958333Y-80152380D01*
X81767857Y-80104761D01*
X81672619Y-80057142D01*
X81625000Y-80009523D01*
X81577380Y-79914285D01*
X82482142Y-79152380D02*
X82529761Y-79104761D01*
X82577380Y-79152380D01*
X82529761Y-79200000D01*
X82482142Y-79152380D01*
X82577380Y-79152380D01*
X82577380Y-78152380D02*
X82577380Y-78723809D01*
X82577380Y-78438095D02*
X81577380Y-78438095D01*
X81720238Y-78533333D01*
X81815476Y-78628571D01*
X81863095Y-78723809D01*
X81910714Y-77295238D02*
X82577380Y-77295238D01*
X81910714Y-77723809D02*
X82434523Y-77723809D01*
X82529761Y-77676190D01*
X82577380Y-77580952D01*
X82577380Y-77438095D01*
X82529761Y-77342857D01*
X82482142Y-77295238D01*
X101357142Y-95741666D02*
X101404761Y-95789285D01*
X101452380Y-95932142D01*
X101452380Y-96027380D01*
X101404761Y-96170238D01*
X101309523Y-96265476D01*
X101214285Y-96313095D01*
X101023809Y-96360714D01*
X100880952Y-96360714D01*
X100690476Y-96313095D01*
X100595238Y-96265476D01*
X100500000Y-96170238D01*
X100452380Y-96027380D01*
X100452380Y-95932142D01*
X100500000Y-95789285D01*
X100547619Y-95741666D01*
X100880952Y-95170238D02*
X100833333Y-95265476D01*
X100785714Y-95313095D01*
X100690476Y-95360714D01*
X100642857Y-95360714D01*
X100547619Y-95313095D01*
X100500000Y-95265476D01*
X100452380Y-95170238D01*
X100452380Y-94979761D01*
X100500000Y-94884523D01*
X100547619Y-94836904D01*
X100642857Y-94789285D01*
X100690476Y-94789285D01*
X100785714Y-94836904D01*
X100833333Y-94884523D01*
X100880952Y-94979761D01*
X100880952Y-95170238D01*
X100928571Y-95265476D01*
X100976190Y-95313095D01*
X101071428Y-95360714D01*
X101261904Y-95360714D01*
X101357142Y-95313095D01*
X101404761Y-95265476D01*
X101452380Y-95170238D01*
X101452380Y-94979761D01*
X101404761Y-94884523D01*
X101357142Y-94836904D01*
X101261904Y-94789285D01*
X101071428Y-94789285D01*
X100976190Y-94836904D01*
X100928571Y-94884523D01*
X100880952Y-94979761D01*
X98077380Y-96789285D02*
X98077380Y-96694047D01*
X98125000Y-96598809D01*
X98172619Y-96551190D01*
X98267857Y-96503571D01*
X98458333Y-96455952D01*
X98696428Y-96455952D01*
X98886904Y-96503571D01*
X98982142Y-96551190D01*
X99029761Y-96598809D01*
X99077380Y-96694047D01*
X99077380Y-96789285D01*
X99029761Y-96884523D01*
X98982142Y-96932142D01*
X98886904Y-96979761D01*
X98696428Y-97027380D01*
X98458333Y-97027380D01*
X98267857Y-96979761D01*
X98172619Y-96932142D01*
X98125000Y-96884523D01*
X98077380Y-96789285D01*
X98982142Y-96027380D02*
X99029761Y-95979761D01*
X99077380Y-96027380D01*
X99029761Y-96075000D01*
X98982142Y-96027380D01*
X99077380Y-96027380D01*
X99077380Y-95027380D02*
X99077380Y-95598809D01*
X99077380Y-95313095D02*
X98077380Y-95313095D01*
X98220238Y-95408333D01*
X98315476Y-95503571D01*
X98363095Y-95598809D01*
X98410714Y-94170238D02*
X99077380Y-94170238D01*
X98410714Y-94598809D02*
X98934523Y-94598809D01*
X99029761Y-94551190D01*
X99077380Y-94455952D01*
X99077380Y-94313095D01*
X99029761Y-94217857D01*
X98982142Y-94170238D01*
X132007142Y-70941666D02*
X132054761Y-70989285D01*
X132102380Y-71132142D01*
X132102380Y-71227380D01*
X132054761Y-71370238D01*
X131959523Y-71465476D01*
X131864285Y-71513095D01*
X131673809Y-71560714D01*
X131530952Y-71560714D01*
X131340476Y-71513095D01*
X131245238Y-71465476D01*
X131150000Y-71370238D01*
X131102380Y-71227380D01*
X131102380Y-71132142D01*
X131150000Y-70989285D01*
X131197619Y-70941666D01*
X131102380Y-70608333D02*
X131102380Y-69941666D01*
X132102380Y-70370238D01*
X128602380Y-72414285D02*
X128602380Y-72319047D01*
X128650000Y-72223809D01*
X128697619Y-72176190D01*
X128792857Y-72128571D01*
X128983333Y-72080952D01*
X129221428Y-72080952D01*
X129411904Y-72128571D01*
X129507142Y-72176190D01*
X129554761Y-72223809D01*
X129602380Y-72319047D01*
X129602380Y-72414285D01*
X129554761Y-72509523D01*
X129507142Y-72557142D01*
X129411904Y-72604761D01*
X129221428Y-72652380D01*
X128983333Y-72652380D01*
X128792857Y-72604761D01*
X128697619Y-72557142D01*
X128650000Y-72509523D01*
X128602380Y-72414285D01*
X129507142Y-71652380D02*
X129554761Y-71604761D01*
X129602380Y-71652380D01*
X129554761Y-71700000D01*
X129507142Y-71652380D01*
X129602380Y-71652380D01*
X129602380Y-70652380D02*
X129602380Y-71223809D01*
X129602380Y-70938095D02*
X128602380Y-70938095D01*
X128745238Y-71033333D01*
X128840476Y-71128571D01*
X128888095Y-71223809D01*
X128935714Y-69795238D02*
X129602380Y-69795238D01*
X128935714Y-70223809D02*
X129459523Y-70223809D01*
X129554761Y-70176190D01*
X129602380Y-70080952D01*
X129602380Y-69938095D01*
X129554761Y-69842857D01*
X129507142Y-69795238D01*
X132207142Y-55191666D02*
X132254761Y-55239285D01*
X132302380Y-55382142D01*
X132302380Y-55477380D01*
X132254761Y-55620238D01*
X132159523Y-55715476D01*
X132064285Y-55763095D01*
X131873809Y-55810714D01*
X131730952Y-55810714D01*
X131540476Y-55763095D01*
X131445238Y-55715476D01*
X131350000Y-55620238D01*
X131302380Y-55477380D01*
X131302380Y-55382142D01*
X131350000Y-55239285D01*
X131397619Y-55191666D01*
X131302380Y-54334523D02*
X131302380Y-54525000D01*
X131350000Y-54620238D01*
X131397619Y-54667857D01*
X131540476Y-54763095D01*
X131730952Y-54810714D01*
X132111904Y-54810714D01*
X132207142Y-54763095D01*
X132254761Y-54715476D01*
X132302380Y-54620238D01*
X132302380Y-54429761D01*
X132254761Y-54334523D01*
X132207142Y-54286904D01*
X132111904Y-54239285D01*
X131873809Y-54239285D01*
X131778571Y-54286904D01*
X131730952Y-54334523D01*
X131683333Y-54429761D01*
X131683333Y-54620238D01*
X131730952Y-54715476D01*
X131778571Y-54763095D01*
X131873809Y-54810714D01*
X128777380Y-56389285D02*
X128777380Y-56294047D01*
X128825000Y-56198809D01*
X128872619Y-56151190D01*
X128967857Y-56103571D01*
X129158333Y-56055952D01*
X129396428Y-56055952D01*
X129586904Y-56103571D01*
X129682142Y-56151190D01*
X129729761Y-56198809D01*
X129777380Y-56294047D01*
X129777380Y-56389285D01*
X129729761Y-56484523D01*
X129682142Y-56532142D01*
X129586904Y-56579761D01*
X129396428Y-56627380D01*
X129158333Y-56627380D01*
X128967857Y-56579761D01*
X128872619Y-56532142D01*
X128825000Y-56484523D01*
X128777380Y-56389285D01*
X129682142Y-55627380D02*
X129729761Y-55579761D01*
X129777380Y-55627380D01*
X129729761Y-55675000D01*
X129682142Y-55627380D01*
X129777380Y-55627380D01*
X129777380Y-54627380D02*
X129777380Y-55198809D01*
X129777380Y-54913095D02*
X128777380Y-54913095D01*
X128920238Y-55008333D01*
X129015476Y-55103571D01*
X129063095Y-55198809D01*
X129110714Y-53770238D02*
X129777380Y-53770238D01*
X129110714Y-54198809D02*
X129634523Y-54198809D01*
X129729761Y-54151190D01*
X129777380Y-54055952D01*
X129777380Y-53913095D01*
X129729761Y-53817857D01*
X129682142Y-53770238D01*
X81427380Y-47239285D02*
X81427380Y-47144047D01*
X81475000Y-47048809D01*
X81522619Y-47001190D01*
X81617857Y-46953571D01*
X81808333Y-46905952D01*
X82046428Y-46905952D01*
X82236904Y-46953571D01*
X82332142Y-47001190D01*
X82379761Y-47048809D01*
X82427380Y-47144047D01*
X82427380Y-47239285D01*
X82379761Y-47334523D01*
X82332142Y-47382142D01*
X82236904Y-47429761D01*
X82046428Y-47477380D01*
X81808333Y-47477380D01*
X81617857Y-47429761D01*
X81522619Y-47382142D01*
X81475000Y-47334523D01*
X81427380Y-47239285D01*
X82332142Y-46477380D02*
X82379761Y-46429761D01*
X82427380Y-46477380D01*
X82379761Y-46525000D01*
X82332142Y-46477380D01*
X82427380Y-46477380D01*
X82427380Y-45477380D02*
X82427380Y-46048809D01*
X82427380Y-45763095D02*
X81427380Y-45763095D01*
X81570238Y-45858333D01*
X81665476Y-45953571D01*
X81713095Y-46048809D01*
X81760714Y-44620238D02*
X82427380Y-44620238D01*
X81760714Y-45048809D02*
X82284523Y-45048809D01*
X82379761Y-45001190D01*
X82427380Y-44905952D01*
X82427380Y-44763095D01*
X82379761Y-44667857D01*
X82332142Y-44620238D01*
X84607142Y-46041666D02*
X84654761Y-46089285D01*
X84702380Y-46232142D01*
X84702380Y-46327380D01*
X84654761Y-46470238D01*
X84559523Y-46565476D01*
X84464285Y-46613095D01*
X84273809Y-46660714D01*
X84130952Y-46660714D01*
X83940476Y-46613095D01*
X83845238Y-46565476D01*
X83750000Y-46470238D01*
X83702380Y-46327380D01*
X83702380Y-46232142D01*
X83750000Y-46089285D01*
X83797619Y-46041666D01*
X83702380Y-45136904D02*
X83702380Y-45613095D01*
X84178571Y-45660714D01*
X84130952Y-45613095D01*
X84083333Y-45517857D01*
X84083333Y-45279761D01*
X84130952Y-45184523D01*
X84178571Y-45136904D01*
X84273809Y-45089285D01*
X84511904Y-45089285D01*
X84607142Y-45136904D01*
X84654761Y-45184523D01*
X84702380Y-45279761D01*
X84702380Y-45517857D01*
X84654761Y-45613095D01*
X84607142Y-45660714D01*
X132132142Y-40366666D02*
X132179761Y-40414285D01*
X132227380Y-40557142D01*
X132227380Y-40652380D01*
X132179761Y-40795238D01*
X132084523Y-40890476D01*
X131989285Y-40938095D01*
X131798809Y-40985714D01*
X131655952Y-40985714D01*
X131465476Y-40938095D01*
X131370238Y-40890476D01*
X131275000Y-40795238D01*
X131227380Y-40652380D01*
X131227380Y-40557142D01*
X131275000Y-40414285D01*
X131322619Y-40366666D01*
X131560714Y-39509523D02*
X132227380Y-39509523D01*
X131179761Y-39747619D02*
X131894047Y-39985714D01*
X131894047Y-39366666D01*
X128652380Y-41689285D02*
X128652380Y-41594047D01*
X128700000Y-41498809D01*
X128747619Y-41451190D01*
X128842857Y-41403571D01*
X129033333Y-41355952D01*
X129271428Y-41355952D01*
X129461904Y-41403571D01*
X129557142Y-41451190D01*
X129604761Y-41498809D01*
X129652380Y-41594047D01*
X129652380Y-41689285D01*
X129604761Y-41784523D01*
X129557142Y-41832142D01*
X129461904Y-41879761D01*
X129271428Y-41927380D01*
X129033333Y-41927380D01*
X128842857Y-41879761D01*
X128747619Y-41832142D01*
X128700000Y-41784523D01*
X128652380Y-41689285D01*
X129557142Y-40927380D02*
X129604761Y-40879761D01*
X129652380Y-40927380D01*
X129604761Y-40975000D01*
X129557142Y-40927380D01*
X129652380Y-40927380D01*
X129652380Y-39927380D02*
X129652380Y-40498809D01*
X129652380Y-40213095D02*
X128652380Y-40213095D01*
X128795238Y-40308333D01*
X128890476Y-40403571D01*
X128938095Y-40498809D01*
X128985714Y-39070238D02*
X129652380Y-39070238D01*
X128985714Y-39498809D02*
X129509523Y-39498809D01*
X129604761Y-39451190D01*
X129652380Y-39355952D01*
X129652380Y-39213095D01*
X129604761Y-39117857D01*
X129557142Y-39070238D01*
X131307142Y-107791666D02*
X131354761Y-107839285D01*
X131402380Y-107982142D01*
X131402380Y-108077380D01*
X131354761Y-108220238D01*
X131259523Y-108315476D01*
X131164285Y-108363095D01*
X130973809Y-108410714D01*
X130830952Y-108410714D01*
X130640476Y-108363095D01*
X130545238Y-108315476D01*
X130450000Y-108220238D01*
X130402380Y-108077380D01*
X130402380Y-107982142D01*
X130450000Y-107839285D01*
X130497619Y-107791666D01*
X130402380Y-107458333D02*
X130402380Y-106839285D01*
X130783333Y-107172619D01*
X130783333Y-107029761D01*
X130830952Y-106934523D01*
X130878571Y-106886904D01*
X130973809Y-106839285D01*
X131211904Y-106839285D01*
X131307142Y-106886904D01*
X131354761Y-106934523D01*
X131402380Y-107029761D01*
X131402380Y-107315476D01*
X131354761Y-107410714D01*
X131307142Y-107458333D01*
X127752380Y-108989285D02*
X127752380Y-108894047D01*
X127800000Y-108798809D01*
X127847619Y-108751190D01*
X127942857Y-108703571D01*
X128133333Y-108655952D01*
X128371428Y-108655952D01*
X128561904Y-108703571D01*
X128657142Y-108751190D01*
X128704761Y-108798809D01*
X128752380Y-108894047D01*
X128752380Y-108989285D01*
X128704761Y-109084523D01*
X128657142Y-109132142D01*
X128561904Y-109179761D01*
X128371428Y-109227380D01*
X128133333Y-109227380D01*
X127942857Y-109179761D01*
X127847619Y-109132142D01*
X127800000Y-109084523D01*
X127752380Y-108989285D01*
X128657142Y-108227380D02*
X128704761Y-108179761D01*
X128752380Y-108227380D01*
X128704761Y-108275000D01*
X128657142Y-108227380D01*
X128752380Y-108227380D01*
X128752380Y-107227380D02*
X128752380Y-107798809D01*
X128752380Y-107513095D02*
X127752380Y-107513095D01*
X127895238Y-107608333D01*
X127990476Y-107703571D01*
X128038095Y-107798809D01*
X128085714Y-106370238D02*
X128752380Y-106370238D01*
X128085714Y-106798809D02*
X128609523Y-106798809D01*
X128704761Y-106751190D01*
X128752380Y-106655952D01*
X128752380Y-106513095D01*
X128704761Y-106417857D01*
X128657142Y-106370238D01*
X132207142Y-85041666D02*
X132254761Y-85089285D01*
X132302380Y-85232142D01*
X132302380Y-85327380D01*
X132254761Y-85470238D01*
X132159523Y-85565476D01*
X132064285Y-85613095D01*
X131873809Y-85660714D01*
X131730952Y-85660714D01*
X131540476Y-85613095D01*
X131445238Y-85565476D01*
X131350000Y-85470238D01*
X131302380Y-85327380D01*
X131302380Y-85232142D01*
X131350000Y-85089285D01*
X131397619Y-85041666D01*
X131397619Y-84660714D02*
X131350000Y-84613095D01*
X131302380Y-84517857D01*
X131302380Y-84279761D01*
X131350000Y-84184523D01*
X131397619Y-84136904D01*
X131492857Y-84089285D01*
X131588095Y-84089285D01*
X131730952Y-84136904D01*
X132302380Y-84708333D01*
X132302380Y-84089285D01*
X128577380Y-86089285D02*
X128577380Y-85994047D01*
X128625000Y-85898809D01*
X128672619Y-85851190D01*
X128767857Y-85803571D01*
X128958333Y-85755952D01*
X129196428Y-85755952D01*
X129386904Y-85803571D01*
X129482142Y-85851190D01*
X129529761Y-85898809D01*
X129577380Y-85994047D01*
X129577380Y-86089285D01*
X129529761Y-86184523D01*
X129482142Y-86232142D01*
X129386904Y-86279761D01*
X129196428Y-86327380D01*
X128958333Y-86327380D01*
X128767857Y-86279761D01*
X128672619Y-86232142D01*
X128625000Y-86184523D01*
X128577380Y-86089285D01*
X129482142Y-85327380D02*
X129529761Y-85279761D01*
X129577380Y-85327380D01*
X129529761Y-85375000D01*
X129482142Y-85327380D01*
X129577380Y-85327380D01*
X129577380Y-84327380D02*
X129577380Y-84898809D01*
X129577380Y-84613095D02*
X128577380Y-84613095D01*
X128720238Y-84708333D01*
X128815476Y-84803571D01*
X128863095Y-84898809D01*
X128910714Y-83470238D02*
X129577380Y-83470238D01*
X128910714Y-83898809D02*
X129434523Y-83898809D01*
X129529761Y-83851190D01*
X129577380Y-83755952D01*
X129577380Y-83613095D01*
X129529761Y-83517857D01*
X129482142Y-83470238D01*
X98269761Y-126873333D02*
X98317380Y-126730476D01*
X98317380Y-126492380D01*
X98269761Y-126397142D01*
X98222142Y-126349523D01*
X98126904Y-126301904D01*
X98031666Y-126301904D01*
X97936428Y-126349523D01*
X97888809Y-126397142D01*
X97841190Y-126492380D01*
X97793571Y-126682857D01*
X97745952Y-126778095D01*
X97698333Y-126825714D01*
X97603095Y-126873333D01*
X97507857Y-126873333D01*
X97412619Y-126825714D01*
X97365000Y-126778095D01*
X97317380Y-126682857D01*
X97317380Y-126444761D01*
X97365000Y-126301904D01*
X97317380Y-125968571D02*
X98317380Y-125730476D01*
X97603095Y-125540000D01*
X98317380Y-125349523D01*
X97317380Y-125111428D01*
X97317380Y-124825714D02*
X97317380Y-124206666D01*
X97698333Y-124540000D01*
X97698333Y-124397142D01*
X97745952Y-124301904D01*
X97793571Y-124254285D01*
X97888809Y-124206666D01*
X98126904Y-124206666D01*
X98222142Y-124254285D01*
X98269761Y-124301904D01*
X98317380Y-124397142D01*
X98317380Y-124682857D01*
X98269761Y-124778095D01*
X98222142Y-124825714D01*
X122602380Y-131585714D02*
X121602380Y-131585714D01*
X121602380Y-130919047D02*
X121602380Y-130728571D01*
X121650000Y-130633333D01*
X121745238Y-130538095D01*
X121935714Y-130490476D01*
X122269047Y-130490476D01*
X122459523Y-130538095D01*
X122554761Y-130633333D01*
X122602380Y-130728571D01*
X122602380Y-130919047D01*
X122554761Y-131014285D01*
X122459523Y-131109523D01*
X122269047Y-131157142D01*
X121935714Y-131157142D01*
X121745238Y-131109523D01*
X121650000Y-131014285D01*
X121602380Y-130919047D01*
X122316666Y-129347619D02*
X122316666Y-128871428D01*
X122602380Y-129442857D02*
X121602380Y-129109523D01*
X122602380Y-128776190D01*
X122602380Y-128442857D02*
X121602380Y-128442857D01*
X121602380Y-128204761D01*
X121650000Y-128061904D01*
X121745238Y-127966666D01*
X121840476Y-127919047D01*
X122030952Y-127871428D01*
X122173809Y-127871428D01*
X122364285Y-127919047D01*
X122459523Y-127966666D01*
X122554761Y-128061904D01*
X122602380Y-128204761D01*
X122602380Y-128442857D01*
X122602380Y-127442857D02*
X121602380Y-127442857D01*
X121602380Y-127204761D01*
X121650000Y-127061904D01*
X121745238Y-126966666D01*
X121840476Y-126919047D01*
X122030952Y-126871428D01*
X122173809Y-126871428D01*
X122364285Y-126919047D01*
X122459523Y-126966666D01*
X122554761Y-127061904D01*
X122602380Y-127204761D01*
X122602380Y-127442857D01*
X122602380Y-125871428D02*
X122126190Y-126204761D01*
X122602380Y-126442857D02*
X121602380Y-126442857D01*
X121602380Y-126061904D01*
X121650000Y-125966666D01*
X121697619Y-125919047D01*
X121792857Y-125871428D01*
X121935714Y-125871428D01*
X122030952Y-125919047D01*
X122078571Y-125966666D01*
X122126190Y-126061904D01*
X122126190Y-126442857D01*
X122078571Y-125442857D02*
X122078571Y-125109523D01*
X122602380Y-124966666D02*
X122602380Y-125442857D01*
X121602380Y-125442857D01*
X121602380Y-124966666D01*
X122554761Y-124585714D02*
X122602380Y-124442857D01*
X122602380Y-124204761D01*
X122554761Y-124109523D01*
X122507142Y-124061904D01*
X122411904Y-124014285D01*
X122316666Y-124014285D01*
X122221428Y-124061904D01*
X122173809Y-124109523D01*
X122126190Y-124204761D01*
X122078571Y-124395238D01*
X122030952Y-124490476D01*
X121983333Y-124538095D01*
X121888095Y-124585714D01*
X121792857Y-124585714D01*
X121697619Y-124538095D01*
X121650000Y-124490476D01*
X121602380Y-124395238D01*
X121602380Y-124157142D01*
X121650000Y-124014285D01*
X122554761Y-123633333D02*
X122602380Y-123490476D01*
X122602380Y-123252380D01*
X122554761Y-123157142D01*
X122507142Y-123109523D01*
X122411904Y-123061904D01*
X122316666Y-123061904D01*
X122221428Y-123109523D01*
X122173809Y-123157142D01*
X122126190Y-123252380D01*
X122078571Y-123442857D01*
X122030952Y-123538095D01*
X121983333Y-123585714D01*
X121888095Y-123633333D01*
X121792857Y-123633333D01*
X121697619Y-123585714D01*
X121650000Y-123538095D01*
X121602380Y-123442857D01*
X121602380Y-123204761D01*
X121650000Y-123061904D01*
X122554761Y-121919047D02*
X122602380Y-121776190D01*
X122602380Y-121538095D01*
X122554761Y-121442857D01*
X122507142Y-121395238D01*
X122411904Y-121347619D01*
X122316666Y-121347619D01*
X122221428Y-121395238D01*
X122173809Y-121442857D01*
X122126190Y-121538095D01*
X122078571Y-121728571D01*
X122030952Y-121823809D01*
X121983333Y-121871428D01*
X121888095Y-121919047D01*
X121792857Y-121919047D01*
X121697619Y-121871428D01*
X121650000Y-121823809D01*
X121602380Y-121728571D01*
X121602380Y-121490476D01*
X121650000Y-121347619D01*
X122078571Y-120919047D02*
X122078571Y-120585714D01*
X122602380Y-120442857D02*
X122602380Y-120919047D01*
X121602380Y-120919047D01*
X121602380Y-120442857D01*
X122602380Y-119538095D02*
X122602380Y-120014285D01*
X121602380Y-120014285D01*
X122078571Y-119204761D02*
X122078571Y-118871428D01*
X122602380Y-118728571D02*
X122602380Y-119204761D01*
X121602380Y-119204761D01*
X121602380Y-118728571D01*
X122507142Y-117728571D02*
X122554761Y-117776190D01*
X122602380Y-117919047D01*
X122602380Y-118014285D01*
X122554761Y-118157142D01*
X122459523Y-118252380D01*
X122364285Y-118300000D01*
X122173809Y-118347619D01*
X122030952Y-118347619D01*
X121840476Y-118300000D01*
X121745238Y-118252380D01*
X121650000Y-118157142D01*
X121602380Y-118014285D01*
X121602380Y-117919047D01*
X121650000Y-117776190D01*
X121697619Y-117728571D01*
X121602380Y-117442857D02*
X121602380Y-116871428D01*
X122602380Y-117157142D02*
X121602380Y-117157142D01*
X135419761Y-126873333D02*
X135467380Y-126730476D01*
X135467380Y-126492380D01*
X135419761Y-126397142D01*
X135372142Y-126349523D01*
X135276904Y-126301904D01*
X135181666Y-126301904D01*
X135086428Y-126349523D01*
X135038809Y-126397142D01*
X134991190Y-126492380D01*
X134943571Y-126682857D01*
X134895952Y-126778095D01*
X134848333Y-126825714D01*
X134753095Y-126873333D01*
X134657857Y-126873333D01*
X134562619Y-126825714D01*
X134515000Y-126778095D01*
X134467380Y-126682857D01*
X134467380Y-126444761D01*
X134515000Y-126301904D01*
X134467380Y-125968571D02*
X135467380Y-125730476D01*
X134753095Y-125540000D01*
X135467380Y-125349523D01*
X134467380Y-125111428D01*
X135467380Y-124206666D02*
X135467380Y-124778095D01*
X135467380Y-124492380D02*
X134467380Y-124492380D01*
X134610238Y-124587619D01*
X134705476Y-124682857D01*
X134753095Y-124778095D01*
X159467380Y-131373333D02*
X158467380Y-131373333D01*
X158467380Y-130706666D02*
X158467380Y-130516190D01*
X158515000Y-130420952D01*
X158610238Y-130325714D01*
X158800714Y-130278095D01*
X159134047Y-130278095D01*
X159324523Y-130325714D01*
X159419761Y-130420952D01*
X159467380Y-130516190D01*
X159467380Y-130706666D01*
X159419761Y-130801904D01*
X159324523Y-130897142D01*
X159134047Y-130944761D01*
X158800714Y-130944761D01*
X158610238Y-130897142D01*
X158515000Y-130801904D01*
X158467380Y-130706666D01*
X159467380Y-129087619D02*
X158467380Y-129087619D01*
X158467380Y-128706666D01*
X158515000Y-128611428D01*
X158562619Y-128563809D01*
X158657857Y-128516190D01*
X158800714Y-128516190D01*
X158895952Y-128563809D01*
X158943571Y-128611428D01*
X158991190Y-128706666D01*
X158991190Y-129087619D01*
X159181666Y-128135238D02*
X159181666Y-127659047D01*
X159467380Y-128230476D02*
X158467380Y-127897142D01*
X159467380Y-127563809D01*
X158515000Y-126706666D02*
X158467380Y-126801904D01*
X158467380Y-126944761D01*
X158515000Y-127087619D01*
X158610238Y-127182857D01*
X158705476Y-127230476D01*
X158895952Y-127278095D01*
X159038809Y-127278095D01*
X159229285Y-127230476D01*
X159324523Y-127182857D01*
X159419761Y-127087619D01*
X159467380Y-126944761D01*
X159467380Y-126849523D01*
X159419761Y-126706666D01*
X159372142Y-126659047D01*
X159038809Y-126659047D01*
X159038809Y-126849523D01*
X158943571Y-126230476D02*
X158943571Y-125897142D01*
X159467380Y-125754285D02*
X159467380Y-126230476D01*
X158467380Y-126230476D01*
X158467380Y-125754285D01*
X159419761Y-124611428D02*
X159467380Y-124468571D01*
X159467380Y-124230476D01*
X159419761Y-124135238D01*
X159372142Y-124087619D01*
X159276904Y-124040000D01*
X159181666Y-124040000D01*
X159086428Y-124087619D01*
X159038809Y-124135238D01*
X158991190Y-124230476D01*
X158943571Y-124420952D01*
X158895952Y-124516190D01*
X158848333Y-124563809D01*
X158753095Y-124611428D01*
X158657857Y-124611428D01*
X158562619Y-124563809D01*
X158515000Y-124516190D01*
X158467380Y-124420952D01*
X158467380Y-124182857D01*
X158515000Y-124040000D01*
X158943571Y-123611428D02*
X158943571Y-123278095D01*
X159467380Y-123135238D02*
X159467380Y-123611428D01*
X158467380Y-123611428D01*
X158467380Y-123135238D01*
X159467380Y-122230476D02*
X159467380Y-122706666D01*
X158467380Y-122706666D01*
X158943571Y-121897142D02*
X158943571Y-121563809D01*
X159467380Y-121420952D02*
X159467380Y-121897142D01*
X158467380Y-121897142D01*
X158467380Y-121420952D01*
X159372142Y-120420952D02*
X159419761Y-120468571D01*
X159467380Y-120611428D01*
X159467380Y-120706666D01*
X159419761Y-120849523D01*
X159324523Y-120944761D01*
X159229285Y-120992380D01*
X159038809Y-121040000D01*
X158895952Y-121040000D01*
X158705476Y-120992380D01*
X158610238Y-120944761D01*
X158515000Y-120849523D01*
X158467380Y-120706666D01*
X158467380Y-120611428D01*
X158515000Y-120468571D01*
X158562619Y-120420952D01*
X158467380Y-120135238D02*
X158467380Y-119563809D01*
X159467380Y-119849523D02*
X158467380Y-119849523D01*
X115408095Y-35772380D02*
X115408095Y-36581904D01*
X115455714Y-36677142D01*
X115503333Y-36724761D01*
X115598571Y-36772380D01*
X115789047Y-36772380D01*
X115884285Y-36724761D01*
X115931904Y-36677142D01*
X115979523Y-36581904D01*
X115979523Y-35772380D01*
X116884285Y-35772380D02*
X116693809Y-35772380D01*
X116598571Y-35820000D01*
X116550952Y-35867619D01*
X116455714Y-36010476D01*
X116408095Y-36200952D01*
X116408095Y-36581904D01*
X116455714Y-36677142D01*
X116503333Y-36724761D01*
X116598571Y-36772380D01*
X116789047Y-36772380D01*
X116884285Y-36724761D01*
X116931904Y-36677142D01*
X116979523Y-36581904D01*
X116979523Y-36343809D01*
X116931904Y-36248571D01*
X116884285Y-36200952D01*
X116789047Y-36153333D01*
X116598571Y-36153333D01*
X116503333Y-36200952D01*
X116455714Y-36248571D01*
X116408095Y-36343809D01*
X111955714Y-88692380D02*
X112193809Y-89692380D01*
X112384285Y-88978095D01*
X112574761Y-89692380D01*
X112812857Y-88692380D01*
X113622380Y-88692380D02*
X113431904Y-88692380D01*
X113336666Y-88740000D01*
X113289047Y-88787619D01*
X113193809Y-88930476D01*
X113146190Y-89120952D01*
X113146190Y-89501904D01*
X113193809Y-89597142D01*
X113241428Y-89644761D01*
X113336666Y-89692380D01*
X113527142Y-89692380D01*
X113622380Y-89644761D01*
X113670000Y-89597142D01*
X113717619Y-89501904D01*
X113717619Y-89263809D01*
X113670000Y-89168571D01*
X113622380Y-89120952D01*
X113527142Y-89073333D01*
X113336666Y-89073333D01*
X113241428Y-89120952D01*
X113193809Y-89168571D01*
X113146190Y-89263809D01*
X114622380Y-88692380D02*
X114146190Y-88692380D01*
X114098571Y-89168571D01*
X114146190Y-89120952D01*
X114241428Y-89073333D01*
X114479523Y-89073333D01*
X114574761Y-89120952D01*
X114622380Y-89168571D01*
X114670000Y-89263809D01*
X114670000Y-89501904D01*
X114622380Y-89597142D01*
X114574761Y-89644761D01*
X114479523Y-89692380D01*
X114241428Y-89692380D01*
X114146190Y-89644761D01*
X114098571Y-89597142D01*
X115670000Y-89597142D02*
X115622380Y-89644761D01*
X115479523Y-89692380D01*
X115384285Y-89692380D01*
X115241428Y-89644761D01*
X115146190Y-89549523D01*
X115098571Y-89454285D01*
X115050952Y-89263809D01*
X115050952Y-89120952D01*
X115098571Y-88930476D01*
X115146190Y-88835238D01*
X115241428Y-88740000D01*
X115384285Y-88692380D01*
X115479523Y-88692380D01*
X115622380Y-88740000D01*
X115670000Y-88787619D01*
X116289047Y-88692380D02*
X116384285Y-88692380D01*
X116479523Y-88740000D01*
X116527142Y-88787619D01*
X116574761Y-88882857D01*
X116622380Y-89073333D01*
X116622380Y-89311428D01*
X116574761Y-89501904D01*
X116527142Y-89597142D01*
X116479523Y-89644761D01*
X116384285Y-89692380D01*
X116289047Y-89692380D01*
X116193809Y-89644761D01*
X116146190Y-89597142D01*
X116098571Y-89501904D01*
X116050952Y-89311428D01*
X116050952Y-89073333D01*
X116098571Y-88882857D01*
X116146190Y-88787619D01*
X116193809Y-88740000D01*
X116289047Y-88692380D01*
X117003333Y-88787619D02*
X117050952Y-88740000D01*
X117146190Y-88692380D01*
X117384285Y-88692380D01*
X117479523Y-88740000D01*
X117527142Y-88787619D01*
X117574761Y-88882857D01*
X117574761Y-88978095D01*
X117527142Y-89120952D01*
X116955714Y-89692380D01*
X117574761Y-89692380D01*
X117955714Y-89644761D02*
X118098571Y-89692380D01*
X118336666Y-89692380D01*
X118431904Y-89644761D01*
X118479523Y-89597142D01*
X118527142Y-89501904D01*
X118527142Y-89406666D01*
X118479523Y-89311428D01*
X118431904Y-89263809D01*
X118336666Y-89216190D01*
X118146190Y-89168571D01*
X118050952Y-89120952D01*
X118003333Y-89073333D01*
X117955714Y-88978095D01*
X117955714Y-88882857D01*
X118003333Y-88787619D01*
X118050952Y-88740000D01*
X118146190Y-88692380D01*
X118384285Y-88692380D01*
X118527142Y-88740000D01*
X118860476Y-89692380D02*
X119384285Y-89025714D01*
X118860476Y-89025714D02*
X119384285Y-89692380D01*
X119765238Y-89692380D02*
X119765238Y-88692380D01*
X120146190Y-88692380D01*
X120241428Y-88740000D01*
X120289047Y-88787619D01*
X120336666Y-88882857D01*
X120336666Y-89025714D01*
X120289047Y-89120952D01*
X120241428Y-89168571D01*
X120146190Y-89216190D01*
X119765238Y-89216190D01*
X95402380Y-63286904D02*
X96211904Y-63286904D01*
X96307142Y-63239285D01*
X96354761Y-63191666D01*
X96402380Y-63096428D01*
X96402380Y-62905952D01*
X96354761Y-62810714D01*
X96307142Y-62763095D01*
X96211904Y-62715476D01*
X95402380Y-62715476D01*
X96402380Y-61715476D02*
X96402380Y-62286904D01*
X96402380Y-62001190D02*
X95402380Y-62001190D01*
X95545238Y-62096428D01*
X95640476Y-62191666D01*
X95688095Y-62286904D01*
X104547380Y-65020357D02*
X104547380Y-64353690D01*
X105547380Y-64782261D01*
X104880714Y-63544166D02*
X105547380Y-63544166D01*
X104499761Y-63782261D02*
X105214047Y-64020357D01*
X105214047Y-63401309D01*
X105547380Y-62544166D02*
X105547380Y-63020357D01*
X104547380Y-63020357D01*
X105499761Y-62258452D02*
X105547380Y-62115595D01*
X105547380Y-61877500D01*
X105499761Y-61782261D01*
X105452142Y-61734642D01*
X105356904Y-61687023D01*
X105261666Y-61687023D01*
X105166428Y-61734642D01*
X105118809Y-61782261D01*
X105071190Y-61877500D01*
X105023571Y-62067976D01*
X104975952Y-62163214D01*
X104928333Y-62210833D01*
X104833095Y-62258452D01*
X104737857Y-62258452D01*
X104642619Y-62210833D01*
X104595000Y-62163214D01*
X104547380Y-62067976D01*
X104547380Y-61829880D01*
X104595000Y-61687023D01*
X105547380Y-61210833D02*
X105547380Y-61020357D01*
X105499761Y-60925119D01*
X105452142Y-60877500D01*
X105309285Y-60782261D01*
X105118809Y-60734642D01*
X104737857Y-60734642D01*
X104642619Y-60782261D01*
X104595000Y-60829880D01*
X104547380Y-60925119D01*
X104547380Y-61115595D01*
X104595000Y-61210833D01*
X104642619Y-61258452D01*
X104737857Y-61306071D01*
X104975952Y-61306071D01*
X105071190Y-61258452D01*
X105118809Y-61210833D01*
X105166428Y-61115595D01*
X105166428Y-60925119D01*
X105118809Y-60829880D01*
X105071190Y-60782261D01*
X104975952Y-60734642D01*
X104547380Y-60401309D02*
X104547380Y-59782261D01*
X104928333Y-60115595D01*
X104928333Y-59972738D01*
X104975952Y-59877500D01*
X105023571Y-59829880D01*
X105118809Y-59782261D01*
X105356904Y-59782261D01*
X105452142Y-59829880D01*
X105499761Y-59877500D01*
X105547380Y-59972738D01*
X105547380Y-60258452D01*
X105499761Y-60353690D01*
X105452142Y-60401309D01*
X95077380Y-80013095D02*
X95886904Y-80013095D01*
X95982142Y-79965476D01*
X96029761Y-79917857D01*
X96077380Y-79822619D01*
X96077380Y-79632142D01*
X96029761Y-79536904D01*
X95982142Y-79489285D01*
X95886904Y-79441666D01*
X95077380Y-79441666D01*
X96077380Y-78441666D02*
X96077380Y-79013095D01*
X96077380Y-78727380D02*
X95077380Y-78727380D01*
X95220238Y-78822619D01*
X95315476Y-78917857D01*
X95363095Y-79013095D01*
X96077380Y-77489285D02*
X96077380Y-78060714D01*
X96077380Y-77775000D02*
X95077380Y-77775000D01*
X95220238Y-77870238D01*
X95315476Y-77965476D01*
X95363095Y-78060714D01*
X104547380Y-81357857D02*
X104547380Y-80691190D01*
X105547380Y-81119761D01*
X104880714Y-79881666D02*
X105547380Y-79881666D01*
X104499761Y-80119761D02*
X105214047Y-80357857D01*
X105214047Y-79738809D01*
X105547380Y-78881666D02*
X105547380Y-79357857D01*
X104547380Y-79357857D01*
X105499761Y-78595952D02*
X105547380Y-78453095D01*
X105547380Y-78215000D01*
X105499761Y-78119761D01*
X105452142Y-78072142D01*
X105356904Y-78024523D01*
X105261666Y-78024523D01*
X105166428Y-78072142D01*
X105118809Y-78119761D01*
X105071190Y-78215000D01*
X105023571Y-78405476D01*
X104975952Y-78500714D01*
X104928333Y-78548333D01*
X104833095Y-78595952D01*
X104737857Y-78595952D01*
X104642619Y-78548333D01*
X104595000Y-78500714D01*
X104547380Y-78405476D01*
X104547380Y-78167380D01*
X104595000Y-78024523D01*
X104547380Y-77691190D02*
X104547380Y-77024523D01*
X105547380Y-77453095D01*
X104880714Y-76215000D02*
X105547380Y-76215000D01*
X104499761Y-76453095D02*
X105214047Y-76691190D01*
X105214047Y-76072142D01*
X145252380Y-56354795D02*
X146061904Y-56354795D01*
X146157142Y-56307176D01*
X146204761Y-56259557D01*
X146252380Y-56164319D01*
X146252380Y-55973842D01*
X146204761Y-55878604D01*
X146157142Y-55830985D01*
X146061904Y-55783366D01*
X145252380Y-55783366D01*
X146252380Y-54783366D02*
X146252380Y-55354795D01*
X146252380Y-55069080D02*
X145252380Y-55069080D01*
X145395238Y-55164319D01*
X145490476Y-55259557D01*
X145538095Y-55354795D01*
X145252380Y-54164319D02*
X145252380Y-54069080D01*
X145300000Y-53973842D01*
X145347619Y-53926223D01*
X145442857Y-53878604D01*
X145633333Y-53830985D01*
X145871428Y-53830985D01*
X146061904Y-53878604D01*
X146157142Y-53926223D01*
X146204761Y-53973842D01*
X146252380Y-54069080D01*
X146252380Y-54164319D01*
X146204761Y-54259557D01*
X146157142Y-54307176D01*
X146061904Y-54354795D01*
X145871428Y-54402414D01*
X145633333Y-54402414D01*
X145442857Y-54354795D01*
X145347619Y-54307176D01*
X145300000Y-54259557D01*
X145252380Y-54164319D01*
X159267380Y-58038247D02*
X159267380Y-57371580D01*
X160267380Y-57800152D01*
X159600714Y-56562057D02*
X160267380Y-56562057D01*
X159219761Y-56800152D02*
X159934047Y-57038247D01*
X159934047Y-56419200D01*
X160267380Y-55562057D02*
X160267380Y-56038247D01*
X159267380Y-56038247D01*
X160219761Y-55276342D02*
X160267380Y-55133485D01*
X160267380Y-54895390D01*
X160219761Y-54800152D01*
X160172142Y-54752533D01*
X160076904Y-54704914D01*
X159981666Y-54704914D01*
X159886428Y-54752533D01*
X159838809Y-54800152D01*
X159791190Y-54895390D01*
X159743571Y-55085866D01*
X159695952Y-55181104D01*
X159648333Y-55228723D01*
X159553095Y-55276342D01*
X159457857Y-55276342D01*
X159362619Y-55228723D01*
X159315000Y-55181104D01*
X159267380Y-55085866D01*
X159267380Y-54847771D01*
X159315000Y-54704914D01*
X159362619Y-54323961D02*
X159315000Y-54276342D01*
X159267380Y-54181104D01*
X159267380Y-53943009D01*
X159315000Y-53847771D01*
X159362619Y-53800152D01*
X159457857Y-53752533D01*
X159553095Y-53752533D01*
X159695952Y-53800152D01*
X160267380Y-54371580D01*
X160267380Y-53752533D01*
X159600714Y-52895390D02*
X160267380Y-52895390D01*
X159219761Y-53133485D02*
X159934047Y-53371580D01*
X159934047Y-52752533D01*
X159600714Y-51943009D02*
X160267380Y-51943009D01*
X159219761Y-52181104D02*
X159934047Y-52419200D01*
X159934047Y-51800152D01*
X108077380Y-109261904D02*
X108886904Y-109261904D01*
X108982142Y-109214285D01*
X109029761Y-109166666D01*
X109077380Y-109071428D01*
X109077380Y-108880952D01*
X109029761Y-108785714D01*
X108982142Y-108738095D01*
X108886904Y-108690476D01*
X108077380Y-108690476D01*
X109077380Y-108166666D02*
X109077380Y-107976190D01*
X109029761Y-107880952D01*
X108982142Y-107833333D01*
X108839285Y-107738095D01*
X108648809Y-107690476D01*
X108267857Y-107690476D01*
X108172619Y-107738095D01*
X108125000Y-107785714D01*
X108077380Y-107880952D01*
X108077380Y-108071428D01*
X108125000Y-108166666D01*
X108172619Y-108214285D01*
X108267857Y-108261904D01*
X108505952Y-108261904D01*
X108601190Y-108214285D01*
X108648809Y-108166666D01*
X108696428Y-108071428D01*
X108696428Y-107880952D01*
X108648809Y-107785714D01*
X108601190Y-107738095D01*
X108505952Y-107690476D01*
X121317380Y-111284047D02*
X121317380Y-110617380D01*
X122317380Y-111045952D01*
X121650714Y-109807857D02*
X122317380Y-109807857D01*
X121269761Y-110045952D02*
X121984047Y-110284047D01*
X121984047Y-109665000D01*
X122317380Y-108807857D02*
X122317380Y-109284047D01*
X121317380Y-109284047D01*
X122269761Y-108522142D02*
X122317380Y-108379285D01*
X122317380Y-108141190D01*
X122269761Y-108045952D01*
X122222142Y-107998333D01*
X122126904Y-107950714D01*
X122031666Y-107950714D01*
X121936428Y-107998333D01*
X121888809Y-108045952D01*
X121841190Y-108141190D01*
X121793571Y-108331666D01*
X121745952Y-108426904D01*
X121698333Y-108474523D01*
X121603095Y-108522142D01*
X121507857Y-108522142D01*
X121412619Y-108474523D01*
X121365000Y-108426904D01*
X121317380Y-108331666D01*
X121317380Y-108093571D01*
X121365000Y-107950714D01*
X121317380Y-107093571D02*
X121317380Y-107284047D01*
X121365000Y-107379285D01*
X121412619Y-107426904D01*
X121555476Y-107522142D01*
X121745952Y-107569761D01*
X122126904Y-107569761D01*
X122222142Y-107522142D01*
X122269761Y-107474523D01*
X122317380Y-107379285D01*
X122317380Y-107188809D01*
X122269761Y-107093571D01*
X122222142Y-107045952D01*
X122126904Y-106998333D01*
X121888809Y-106998333D01*
X121793571Y-107045952D01*
X121745952Y-107093571D01*
X121698333Y-107188809D01*
X121698333Y-107379285D01*
X121745952Y-107474523D01*
X121793571Y-107522142D01*
X121888809Y-107569761D01*
X121745952Y-106426904D02*
X121698333Y-106522142D01*
X121650714Y-106569761D01*
X121555476Y-106617380D01*
X121507857Y-106617380D01*
X121412619Y-106569761D01*
X121365000Y-106522142D01*
X121317380Y-106426904D01*
X121317380Y-106236428D01*
X121365000Y-106141190D01*
X121412619Y-106093571D01*
X121507857Y-106045952D01*
X121555476Y-106045952D01*
X121650714Y-106093571D01*
X121698333Y-106141190D01*
X121745952Y-106236428D01*
X121745952Y-106426904D01*
X121793571Y-106522142D01*
X121841190Y-106569761D01*
X121936428Y-106617380D01*
X122126904Y-106617380D01*
X122222142Y-106569761D01*
X122269761Y-106522142D01*
X122317380Y-106426904D01*
X122317380Y-106236428D01*
X122269761Y-106141190D01*
X122222142Y-106093571D01*
X122126904Y-106045952D01*
X121936428Y-106045952D01*
X121841190Y-106093571D01*
X121793571Y-106141190D01*
X121745952Y-106236428D01*
X121745952Y-105474523D02*
X121698333Y-105569761D01*
X121650714Y-105617380D01*
X121555476Y-105665000D01*
X121507857Y-105665000D01*
X121412619Y-105617380D01*
X121365000Y-105569761D01*
X121317380Y-105474523D01*
X121317380Y-105284047D01*
X121365000Y-105188809D01*
X121412619Y-105141190D01*
X121507857Y-105093571D01*
X121555476Y-105093571D01*
X121650714Y-105141190D01*
X121698333Y-105188809D01*
X121745952Y-105284047D01*
X121745952Y-105474523D01*
X121793571Y-105569761D01*
X121841190Y-105617380D01*
X121936428Y-105665000D01*
X122126904Y-105665000D01*
X122222142Y-105617380D01*
X122269761Y-105569761D01*
X122317380Y-105474523D01*
X122317380Y-105284047D01*
X122269761Y-105188809D01*
X122222142Y-105141190D01*
X122126904Y-105093571D01*
X121936428Y-105093571D01*
X121841190Y-105141190D01*
X121793571Y-105188809D01*
X121745952Y-105284047D01*
X146152380Y-40461904D02*
X146961904Y-40461904D01*
X147057142Y-40414285D01*
X147104761Y-40366666D01*
X147152380Y-40271428D01*
X147152380Y-40080952D01*
X147104761Y-39985714D01*
X147057142Y-39938095D01*
X146961904Y-39890476D01*
X146152380Y-39890476D01*
X146580952Y-39271428D02*
X146533333Y-39366666D01*
X146485714Y-39414285D01*
X146390476Y-39461904D01*
X146342857Y-39461904D01*
X146247619Y-39414285D01*
X146200000Y-39366666D01*
X146152380Y-39271428D01*
X146152380Y-39080952D01*
X146200000Y-38985714D01*
X146247619Y-38938095D01*
X146342857Y-38890476D01*
X146390476Y-38890476D01*
X146485714Y-38938095D01*
X146533333Y-38985714D01*
X146580952Y-39080952D01*
X146580952Y-39271428D01*
X146628571Y-39366666D01*
X146676190Y-39414285D01*
X146771428Y-39461904D01*
X146961904Y-39461904D01*
X147057142Y-39414285D01*
X147104761Y-39366666D01*
X147152380Y-39271428D01*
X147152380Y-39080952D01*
X147104761Y-38985714D01*
X147057142Y-38938095D01*
X146961904Y-38890476D01*
X146771428Y-38890476D01*
X146676190Y-38938095D01*
X146628571Y-38985714D01*
X146580952Y-39080952D01*
X159267380Y-43009047D02*
X159267380Y-42342380D01*
X160267380Y-42770952D01*
X159600714Y-41532857D02*
X160267380Y-41532857D01*
X159219761Y-41770952D02*
X159934047Y-42009047D01*
X159934047Y-41390000D01*
X160267380Y-40532857D02*
X160267380Y-41009047D01*
X159267380Y-41009047D01*
X160219761Y-40247142D02*
X160267380Y-40104285D01*
X160267380Y-39866190D01*
X160219761Y-39770952D01*
X160172142Y-39723333D01*
X160076904Y-39675714D01*
X159981666Y-39675714D01*
X159886428Y-39723333D01*
X159838809Y-39770952D01*
X159791190Y-39866190D01*
X159743571Y-40056666D01*
X159695952Y-40151904D01*
X159648333Y-40199523D01*
X159553095Y-40247142D01*
X159457857Y-40247142D01*
X159362619Y-40199523D01*
X159315000Y-40151904D01*
X159267380Y-40056666D01*
X159267380Y-39818571D01*
X159315000Y-39675714D01*
X159362619Y-39294761D02*
X159315000Y-39247142D01*
X159267380Y-39151904D01*
X159267380Y-38913809D01*
X159315000Y-38818571D01*
X159362619Y-38770952D01*
X159457857Y-38723333D01*
X159553095Y-38723333D01*
X159695952Y-38770952D01*
X160267380Y-39342380D01*
X160267380Y-38723333D01*
X159600714Y-37866190D02*
X160267380Y-37866190D01*
X159219761Y-38104285D02*
X159934047Y-38342380D01*
X159934047Y-37723333D01*
X159600714Y-36913809D02*
X160267380Y-36913809D01*
X159219761Y-37151904D02*
X159934047Y-37390000D01*
X159934047Y-36770952D01*
X146302380Y-85486904D02*
X147111904Y-85486904D01*
X147207142Y-85439285D01*
X147254761Y-85391666D01*
X147302380Y-85296428D01*
X147302380Y-85105952D01*
X147254761Y-85010714D01*
X147207142Y-84963095D01*
X147111904Y-84915476D01*
X146302380Y-84915476D01*
X146302380Y-84534523D02*
X146302380Y-83867857D01*
X147302380Y-84296428D01*
X159267380Y-88096547D02*
X159267380Y-87429880D01*
X160267380Y-87858452D01*
X159600714Y-86620357D02*
X160267380Y-86620357D01*
X159219761Y-86858452D02*
X159934047Y-87096547D01*
X159934047Y-86477500D01*
X160267380Y-85620357D02*
X160267380Y-86096547D01*
X159267380Y-86096547D01*
X160219761Y-85334642D02*
X160267380Y-85191785D01*
X160267380Y-84953690D01*
X160219761Y-84858452D01*
X160172142Y-84810833D01*
X160076904Y-84763214D01*
X159981666Y-84763214D01*
X159886428Y-84810833D01*
X159838809Y-84858452D01*
X159791190Y-84953690D01*
X159743571Y-85144166D01*
X159695952Y-85239404D01*
X159648333Y-85287023D01*
X159553095Y-85334642D01*
X159457857Y-85334642D01*
X159362619Y-85287023D01*
X159315000Y-85239404D01*
X159267380Y-85144166D01*
X159267380Y-84906071D01*
X159315000Y-84763214D01*
X159362619Y-84382261D02*
X159315000Y-84334642D01*
X159267380Y-84239404D01*
X159267380Y-84001309D01*
X159315000Y-83906071D01*
X159362619Y-83858452D01*
X159457857Y-83810833D01*
X159553095Y-83810833D01*
X159695952Y-83858452D01*
X160267380Y-84429880D01*
X160267380Y-83810833D01*
X159600714Y-82953690D02*
X160267380Y-82953690D01*
X159219761Y-83191785D02*
X159934047Y-83429880D01*
X159934047Y-82810833D01*
X159267380Y-81953690D02*
X159267380Y-82429880D01*
X159743571Y-82477500D01*
X159695952Y-82429880D01*
X159648333Y-82334642D01*
X159648333Y-82096547D01*
X159695952Y-82001309D01*
X159743571Y-81953690D01*
X159838809Y-81906071D01*
X160076904Y-81906071D01*
X160172142Y-81953690D01*
X160219761Y-82001309D01*
X160267380Y-82096547D01*
X160267380Y-82334642D01*
X160219761Y-82429880D01*
X160172142Y-82477500D01*
X146152380Y-108961904D02*
X146961904Y-108961904D01*
X147057142Y-108914285D01*
X147104761Y-108866666D01*
X147152380Y-108771428D01*
X147152380Y-108580952D01*
X147104761Y-108485714D01*
X147057142Y-108438095D01*
X146961904Y-108390476D01*
X146152380Y-108390476D01*
X146152380Y-107438095D02*
X146152380Y-107914285D01*
X146628571Y-107961904D01*
X146580952Y-107914285D01*
X146533333Y-107819047D01*
X146533333Y-107580952D01*
X146580952Y-107485714D01*
X146628571Y-107438095D01*
X146723809Y-107390476D01*
X146961904Y-107390476D01*
X147057142Y-107438095D01*
X147104761Y-107485714D01*
X147152380Y-107580952D01*
X147152380Y-107819047D01*
X147104761Y-107914285D01*
X147057142Y-107961904D01*
X158867380Y-111284047D02*
X158867380Y-110617380D01*
X159867380Y-111045952D01*
X159200714Y-109807857D02*
X159867380Y-109807857D01*
X158819761Y-110045952D02*
X159534047Y-110284047D01*
X159534047Y-109665000D01*
X159867380Y-108807857D02*
X159867380Y-109284047D01*
X158867380Y-109284047D01*
X159819761Y-108522142D02*
X159867380Y-108379285D01*
X159867380Y-108141190D01*
X159819761Y-108045952D01*
X159772142Y-107998333D01*
X159676904Y-107950714D01*
X159581666Y-107950714D01*
X159486428Y-107998333D01*
X159438809Y-108045952D01*
X159391190Y-108141190D01*
X159343571Y-108331666D01*
X159295952Y-108426904D01*
X159248333Y-108474523D01*
X159153095Y-108522142D01*
X159057857Y-108522142D01*
X158962619Y-108474523D01*
X158915000Y-108426904D01*
X158867380Y-108331666D01*
X158867380Y-108093571D01*
X158915000Y-107950714D01*
X158867380Y-107093571D02*
X158867380Y-107284047D01*
X158915000Y-107379285D01*
X158962619Y-107426904D01*
X159105476Y-107522142D01*
X159295952Y-107569761D01*
X159676904Y-107569761D01*
X159772142Y-107522142D01*
X159819761Y-107474523D01*
X159867380Y-107379285D01*
X159867380Y-107188809D01*
X159819761Y-107093571D01*
X159772142Y-107045952D01*
X159676904Y-106998333D01*
X159438809Y-106998333D01*
X159343571Y-107045952D01*
X159295952Y-107093571D01*
X159248333Y-107188809D01*
X159248333Y-107379285D01*
X159295952Y-107474523D01*
X159343571Y-107522142D01*
X159438809Y-107569761D01*
X159295952Y-106426904D02*
X159248333Y-106522142D01*
X159200714Y-106569761D01*
X159105476Y-106617380D01*
X159057857Y-106617380D01*
X158962619Y-106569761D01*
X158915000Y-106522142D01*
X158867380Y-106426904D01*
X158867380Y-106236428D01*
X158915000Y-106141190D01*
X158962619Y-106093571D01*
X159057857Y-106045952D01*
X159105476Y-106045952D01*
X159200714Y-106093571D01*
X159248333Y-106141190D01*
X159295952Y-106236428D01*
X159295952Y-106426904D01*
X159343571Y-106522142D01*
X159391190Y-106569761D01*
X159486428Y-106617380D01*
X159676904Y-106617380D01*
X159772142Y-106569761D01*
X159819761Y-106522142D01*
X159867380Y-106426904D01*
X159867380Y-106236428D01*
X159819761Y-106141190D01*
X159772142Y-106093571D01*
X159676904Y-106045952D01*
X159486428Y-106045952D01*
X159391190Y-106093571D01*
X159343571Y-106141190D01*
X159295952Y-106236428D01*
X159295952Y-105474523D02*
X159248333Y-105569761D01*
X159200714Y-105617380D01*
X159105476Y-105665000D01*
X159057857Y-105665000D01*
X158962619Y-105617380D01*
X158915000Y-105569761D01*
X158867380Y-105474523D01*
X158867380Y-105284047D01*
X158915000Y-105188809D01*
X158962619Y-105141190D01*
X159057857Y-105093571D01*
X159105476Y-105093571D01*
X159200714Y-105141190D01*
X159248333Y-105188809D01*
X159295952Y-105284047D01*
X159295952Y-105474523D01*
X159343571Y-105569761D01*
X159391190Y-105617380D01*
X159486428Y-105665000D01*
X159676904Y-105665000D01*
X159772142Y-105617380D01*
X159819761Y-105569761D01*
X159867380Y-105474523D01*
X159867380Y-105284047D01*
X159819761Y-105188809D01*
X159772142Y-105141190D01*
X159676904Y-105093571D01*
X159486428Y-105093571D01*
X159391190Y-105141190D01*
X159343571Y-105188809D01*
X159295952Y-105284047D01*
X110352380Y-96061904D02*
X111161904Y-96061904D01*
X111257142Y-96014285D01*
X111304761Y-95966666D01*
X111352380Y-95871428D01*
X111352380Y-95680952D01*
X111304761Y-95585714D01*
X111257142Y-95538095D01*
X111161904Y-95490476D01*
X110352380Y-95490476D01*
X110685714Y-94585714D02*
X111352380Y-94585714D01*
X110304761Y-94823809D02*
X111019047Y-95061904D01*
X111019047Y-94442857D01*
X121477380Y-98357857D02*
X121477380Y-97691190D01*
X122477380Y-98119761D01*
X121810714Y-96881666D02*
X122477380Y-96881666D01*
X121429761Y-97119761D02*
X122144047Y-97357857D01*
X122144047Y-96738809D01*
X122477380Y-95881666D02*
X122477380Y-96357857D01*
X121477380Y-96357857D01*
X122429761Y-95595952D02*
X122477380Y-95453095D01*
X122477380Y-95215000D01*
X122429761Y-95119761D01*
X122382142Y-95072142D01*
X122286904Y-95024523D01*
X122191666Y-95024523D01*
X122096428Y-95072142D01*
X122048809Y-95119761D01*
X122001190Y-95215000D01*
X121953571Y-95405476D01*
X121905952Y-95500714D01*
X121858333Y-95548333D01*
X121763095Y-95595952D01*
X121667857Y-95595952D01*
X121572619Y-95548333D01*
X121525000Y-95500714D01*
X121477380Y-95405476D01*
X121477380Y-95167380D01*
X121525000Y-95024523D01*
X121477380Y-94405476D02*
X121477380Y-94310238D01*
X121525000Y-94215000D01*
X121572619Y-94167380D01*
X121667857Y-94119761D01*
X121858333Y-94072142D01*
X122096428Y-94072142D01*
X122286904Y-94119761D01*
X122382142Y-94167380D01*
X122429761Y-94215000D01*
X122477380Y-94310238D01*
X122477380Y-94405476D01*
X122429761Y-94500714D01*
X122382142Y-94548333D01*
X122286904Y-94595952D01*
X122096428Y-94643571D01*
X121858333Y-94643571D01*
X121667857Y-94595952D01*
X121572619Y-94548333D01*
X121525000Y-94500714D01*
X121477380Y-94405476D01*
X121810714Y-93215000D02*
X122477380Y-93215000D01*
X121429761Y-93453095D02*
X122144047Y-93691190D01*
X122144047Y-93072142D01*
X94277380Y-46611904D02*
X95086904Y-46611904D01*
X95182142Y-46564285D01*
X95229761Y-46516666D01*
X95277380Y-46421428D01*
X95277380Y-46230952D01*
X95229761Y-46135714D01*
X95182142Y-46088095D01*
X95086904Y-46040476D01*
X94277380Y-46040476D01*
X94277380Y-45659523D02*
X94277380Y-45040476D01*
X94658333Y-45373809D01*
X94658333Y-45230952D01*
X94705952Y-45135714D01*
X94753571Y-45088095D01*
X94848809Y-45040476D01*
X95086904Y-45040476D01*
X95182142Y-45088095D01*
X95229761Y-45135714D01*
X95277380Y-45230952D01*
X95277380Y-45516666D01*
X95229761Y-45611904D01*
X95182142Y-45659523D01*
X104547380Y-48682857D02*
X104547380Y-48016190D01*
X105547380Y-48444761D01*
X104880714Y-47206666D02*
X105547380Y-47206666D01*
X104499761Y-47444761D02*
X105214047Y-47682857D01*
X105214047Y-47063809D01*
X105547380Y-46206666D02*
X105547380Y-46682857D01*
X104547380Y-46682857D01*
X105499761Y-45920952D02*
X105547380Y-45778095D01*
X105547380Y-45540000D01*
X105499761Y-45444761D01*
X105452142Y-45397142D01*
X105356904Y-45349523D01*
X105261666Y-45349523D01*
X105166428Y-45397142D01*
X105118809Y-45444761D01*
X105071190Y-45540000D01*
X105023571Y-45730476D01*
X104975952Y-45825714D01*
X104928333Y-45873333D01*
X104833095Y-45920952D01*
X104737857Y-45920952D01*
X104642619Y-45873333D01*
X104595000Y-45825714D01*
X104547380Y-45730476D01*
X104547380Y-45492380D01*
X104595000Y-45349523D01*
X104547380Y-44730476D02*
X104547380Y-44635238D01*
X104595000Y-44540000D01*
X104642619Y-44492380D01*
X104737857Y-44444761D01*
X104928333Y-44397142D01*
X105166428Y-44397142D01*
X105356904Y-44444761D01*
X105452142Y-44492380D01*
X105499761Y-44540000D01*
X105547380Y-44635238D01*
X105547380Y-44730476D01*
X105499761Y-44825714D01*
X105452142Y-44873333D01*
X105356904Y-44920952D01*
X105166428Y-44968571D01*
X104928333Y-44968571D01*
X104737857Y-44920952D01*
X104642619Y-44873333D01*
X104595000Y-44825714D01*
X104547380Y-44730476D01*
X104547380Y-44063809D02*
X104547380Y-43397142D01*
X105547380Y-43825714D01*
X145752380Y-70645204D02*
X146561904Y-70645204D01*
X146657142Y-70597585D01*
X146704761Y-70549966D01*
X146752380Y-70454728D01*
X146752380Y-70264252D01*
X146704761Y-70169014D01*
X146657142Y-70121395D01*
X146561904Y-70073776D01*
X145752380Y-70073776D01*
X145847619Y-69645204D02*
X145800000Y-69597585D01*
X145752380Y-69502347D01*
X145752380Y-69264252D01*
X145800000Y-69169014D01*
X145847619Y-69121395D01*
X145942857Y-69073776D01*
X146038095Y-69073776D01*
X146180952Y-69121395D01*
X146752380Y-69692823D01*
X146752380Y-69073776D01*
X159267380Y-73067347D02*
X159267380Y-72400680D01*
X160267380Y-72829252D01*
X159600714Y-71591157D02*
X160267380Y-71591157D01*
X159219761Y-71829252D02*
X159934047Y-72067347D01*
X159934047Y-71448300D01*
X160267380Y-70591157D02*
X160267380Y-71067347D01*
X159267380Y-71067347D01*
X160219761Y-70305442D02*
X160267380Y-70162585D01*
X160267380Y-69924490D01*
X160219761Y-69829252D01*
X160172142Y-69781633D01*
X160076904Y-69734014D01*
X159981666Y-69734014D01*
X159886428Y-69781633D01*
X159838809Y-69829252D01*
X159791190Y-69924490D01*
X159743571Y-70114966D01*
X159695952Y-70210204D01*
X159648333Y-70257823D01*
X159553095Y-70305442D01*
X159457857Y-70305442D01*
X159362619Y-70257823D01*
X159315000Y-70210204D01*
X159267380Y-70114966D01*
X159267380Y-69876871D01*
X159315000Y-69734014D01*
X159362619Y-69353061D02*
X159315000Y-69305442D01*
X159267380Y-69210204D01*
X159267380Y-68972109D01*
X159315000Y-68876871D01*
X159362619Y-68829252D01*
X159457857Y-68781633D01*
X159553095Y-68781633D01*
X159695952Y-68829252D01*
X160267380Y-69400680D01*
X160267380Y-68781633D01*
X159600714Y-67924490D02*
X160267380Y-67924490D01*
X159219761Y-68162585D02*
X159934047Y-68400680D01*
X159934047Y-67781633D01*
X159600714Y-66972109D02*
X160267380Y-66972109D01*
X159219761Y-67210204D02*
X159934047Y-67448300D01*
X159934047Y-66829252D01*
X73234761Y-40258333D02*
X73282380Y-40115476D01*
X73282380Y-39877380D01*
X73234761Y-39782142D01*
X73187142Y-39734523D01*
X73091904Y-39686904D01*
X72996666Y-39686904D01*
X72901428Y-39734523D01*
X72853809Y-39782142D01*
X72806190Y-39877380D01*
X72758571Y-40067857D01*
X72710952Y-40163095D01*
X72663333Y-40210714D01*
X72568095Y-40258333D01*
X72472857Y-40258333D01*
X72377619Y-40210714D01*
X72330000Y-40163095D01*
X72282380Y-40067857D01*
X72282380Y-39829761D01*
X72330000Y-39686904D01*
X72282380Y-39353571D02*
X73282380Y-39115476D01*
X72568095Y-38925000D01*
X73282380Y-38734523D01*
X72282380Y-38496428D01*
X72377619Y-38163095D02*
X72330000Y-38115476D01*
X72282380Y-38020238D01*
X72282380Y-37782142D01*
X72330000Y-37686904D01*
X72377619Y-37639285D01*
X72472857Y-37591666D01*
X72568095Y-37591666D01*
X72710952Y-37639285D01*
X73282380Y-38210714D01*
X73282380Y-37591666D01*
X76992260Y-40377380D02*
X76516070Y-40710714D01*
X76992260Y-40948809D02*
X75992260Y-40948809D01*
X75992260Y-40567857D01*
X76039880Y-40472619D01*
X76087499Y-40425000D01*
X76182737Y-40377380D01*
X76325594Y-40377380D01*
X76420832Y-40425000D01*
X76468451Y-40472619D01*
X76516070Y-40567857D01*
X76516070Y-40948809D01*
X76468451Y-39948809D02*
X76468451Y-39615476D01*
X76992260Y-39472619D02*
X76992260Y-39948809D01*
X75992260Y-39948809D01*
X75992260Y-39472619D01*
X76944641Y-39091666D02*
X76992260Y-38948809D01*
X76992260Y-38710714D01*
X76944641Y-38615476D01*
X76897022Y-38567857D01*
X76801784Y-38520238D01*
X76706546Y-38520238D01*
X76611308Y-38567857D01*
X76563689Y-38615476D01*
X76516070Y-38710714D01*
X76468451Y-38901190D01*
X76420832Y-38996428D01*
X76373213Y-39044047D01*
X76277975Y-39091666D01*
X76182737Y-39091666D01*
X76087499Y-39044047D01*
X76039880Y-38996428D01*
X75992260Y-38901190D01*
X75992260Y-38663095D01*
X76039880Y-38520238D01*
X76468451Y-38091666D02*
X76468451Y-37758333D01*
X76992260Y-37615476D02*
X76992260Y-38091666D01*
X75992260Y-38091666D01*
X75992260Y-37615476D01*
X75992260Y-37329761D02*
X75992260Y-36758333D01*
X76992260Y-37044047D02*
X75992260Y-37044047D01*
X107304523Y-119940380D02*
X106971190Y-119464190D01*
X106733095Y-119940380D02*
X106733095Y-118940380D01*
X107114047Y-118940380D01*
X107209285Y-118988000D01*
X107256904Y-119035619D01*
X107304523Y-119130857D01*
X107304523Y-119273714D01*
X107256904Y-119368952D01*
X107209285Y-119416571D01*
X107114047Y-119464190D01*
X106733095Y-119464190D01*
X107733095Y-119940380D02*
X107733095Y-118940380D01*
X108304523Y-119940380D01*
X108304523Y-118940380D01*
X108685476Y-118940380D02*
X109304523Y-118940380D01*
X108971190Y-119321333D01*
X109114047Y-119321333D01*
X109209285Y-119368952D01*
X109256904Y-119416571D01*
X109304523Y-119511809D01*
X109304523Y-119749904D01*
X109256904Y-119845142D01*
X109209285Y-119892761D01*
X109114047Y-119940380D01*
X108828333Y-119940380D01*
X108733095Y-119892761D01*
X108685476Y-119845142D01*
X95460714Y-117777880D02*
X94889285Y-117777880D01*
X95175000Y-117777880D02*
X95175000Y-116777880D01*
X95079761Y-116920738D01*
X94984523Y-117015976D01*
X94889285Y-117063595D01*
X95889285Y-117777880D02*
X95889285Y-116777880D01*
X96460714Y-117777880D02*
X96032142Y-117206452D01*
X96460714Y-116777880D02*
X95889285Y-117349309D01*
X144454523Y-119940380D02*
X144121190Y-119464190D01*
X143883095Y-119940380D02*
X143883095Y-118940380D01*
X144264047Y-118940380D01*
X144359285Y-118988000D01*
X144406904Y-119035619D01*
X144454523Y-119130857D01*
X144454523Y-119273714D01*
X144406904Y-119368952D01*
X144359285Y-119416571D01*
X144264047Y-119464190D01*
X143883095Y-119464190D01*
X144883095Y-119940380D02*
X144883095Y-118940380D01*
X145454523Y-119940380D01*
X145454523Y-118940380D01*
X145883095Y-119035619D02*
X145930714Y-118988000D01*
X146025952Y-118940380D01*
X146264047Y-118940380D01*
X146359285Y-118988000D01*
X146406904Y-119035619D01*
X146454523Y-119130857D01*
X146454523Y-119226095D01*
X146406904Y-119368952D01*
X145835476Y-119940380D01*
X146454523Y-119940380D01*
X133110714Y-117427880D02*
X132539285Y-117427880D01*
X132825000Y-117427880D02*
X132825000Y-116427880D01*
X132729761Y-116570738D01*
X132634523Y-116665976D01*
X132539285Y-116713595D01*
X133539285Y-117427880D02*
X133539285Y-116427880D01*
X134110714Y-117427880D02*
X133682142Y-116856452D01*
X134110714Y-116427880D02*
X133539285Y-116999309D01*
X146484523Y-97314880D02*
X146151190Y-96838690D01*
X145913095Y-97314880D02*
X145913095Y-96314880D01*
X146294047Y-96314880D01*
X146389285Y-96362500D01*
X146436904Y-96410119D01*
X146484523Y-96505357D01*
X146484523Y-96648214D01*
X146436904Y-96743452D01*
X146389285Y-96791071D01*
X146294047Y-96838690D01*
X145913095Y-96838690D01*
X146913095Y-97314880D02*
X146913095Y-96314880D01*
X147484523Y-97314880D01*
X147484523Y-96314880D01*
X148484523Y-97314880D02*
X147913095Y-97314880D01*
X148198809Y-97314880D02*
X148198809Y-96314880D01*
X148103571Y-96457738D01*
X148008333Y-96552976D01*
X147913095Y-96600595D01*
X128861904Y-99260714D02*
X128861904Y-99927380D01*
X128623809Y-98879761D02*
X128385714Y-99594047D01*
X129004761Y-99594047D01*
X129290476Y-98927380D02*
X129957142Y-98927380D01*
X129528571Y-99927380D01*
X130528571Y-98927380D02*
X130623809Y-98927380D01*
X130719047Y-98975000D01*
X130766666Y-99022619D01*
X130814285Y-99117857D01*
X130861904Y-99308333D01*
X130861904Y-99546428D01*
X130814285Y-99736904D01*
X130766666Y-99832142D01*
X130719047Y-99879761D01*
X130623809Y-99927380D01*
X130528571Y-99927380D01*
X130433333Y-99879761D01*
X130385714Y-99832142D01*
X130338095Y-99736904D01*
X130290476Y-99546428D01*
X130290476Y-99308333D01*
X130338095Y-99117857D01*
X130385714Y-99022619D01*
X130433333Y-98975000D01*
X130528571Y-98927380D01*
X131480952Y-98927380D02*
X131576190Y-98927380D01*
X131671428Y-98975000D01*
X131719047Y-99022619D01*
X131766666Y-99117857D01*
X131814285Y-99308333D01*
X131814285Y-99546428D01*
X131766666Y-99736904D01*
X131719047Y-99832142D01*
X131671428Y-99879761D01*
X131576190Y-99927380D01*
X131480952Y-99927380D01*
X131385714Y-99879761D01*
X131338095Y-99832142D01*
X131290476Y-99736904D01*
X131242857Y-99546428D01*
X131242857Y-99308333D01*
X131290476Y-99117857D01*
X131338095Y-99022619D01*
X131385714Y-98975000D01*
X131480952Y-98927380D01*
X84158333Y-118202380D02*
X83825000Y-117726190D01*
X83586904Y-118202380D02*
X83586904Y-117202380D01*
X83967857Y-117202380D01*
X84063095Y-117250000D01*
X84110714Y-117297619D01*
X84158333Y-117392857D01*
X84158333Y-117535714D01*
X84110714Y-117630952D01*
X84063095Y-117678571D01*
X83967857Y-117726190D01*
X83586904Y-117726190D01*
X84491666Y-117202380D02*
X85110714Y-117202380D01*
X84777380Y-117583333D01*
X84920238Y-117583333D01*
X85015476Y-117630952D01*
X85063095Y-117678571D01*
X85110714Y-117773809D01*
X85110714Y-118011904D01*
X85063095Y-118107142D01*
X85015476Y-118154761D01*
X84920238Y-118202380D01*
X84634523Y-118202380D01*
X84539285Y-118154761D01*
X84491666Y-118107142D01*
X77338095Y-117660714D02*
X77338095Y-118327380D01*
X77100000Y-117279761D02*
X76861904Y-117994047D01*
X77480952Y-117994047D01*
X77766666Y-117327380D02*
X78433333Y-117327380D01*
X78004761Y-118327380D01*
X79004761Y-117327380D02*
X79100000Y-117327380D01*
X79195238Y-117375000D01*
X79242857Y-117422619D01*
X79290476Y-117517857D01*
X79338095Y-117708333D01*
X79338095Y-117946428D01*
X79290476Y-118136904D01*
X79242857Y-118232142D01*
X79195238Y-118279761D01*
X79100000Y-118327380D01*
X79004761Y-118327380D01*
X78909523Y-118279761D01*
X78861904Y-118232142D01*
X78814285Y-118136904D01*
X78766666Y-117946428D01*
X78766666Y-117708333D01*
X78814285Y-117517857D01*
X78861904Y-117422619D01*
X78909523Y-117375000D01*
X79004761Y-117327380D01*
X84233333Y-114702380D02*
X83900000Y-114226190D01*
X83661904Y-114702380D02*
X83661904Y-113702380D01*
X84042857Y-113702380D01*
X84138095Y-113750000D01*
X84185714Y-113797619D01*
X84233333Y-113892857D01*
X84233333Y-114035714D01*
X84185714Y-114130952D01*
X84138095Y-114178571D01*
X84042857Y-114226190D01*
X83661904Y-114226190D01*
X84614285Y-113797619D02*
X84661904Y-113750000D01*
X84757142Y-113702380D01*
X84995238Y-113702380D01*
X85090476Y-113750000D01*
X85138095Y-113797619D01*
X85185714Y-113892857D01*
X85185714Y-113988095D01*
X85138095Y-114130952D01*
X84566666Y-114702380D01*
X85185714Y-114702380D01*
X77459523Y-114877380D02*
X76888095Y-114877380D01*
X77173809Y-114877380D02*
X77173809Y-113877380D01*
X77078571Y-114020238D01*
X76983333Y-114115476D01*
X76888095Y-114163095D01*
X78078571Y-113877380D02*
X78173809Y-113877380D01*
X78269047Y-113925000D01*
X78316666Y-113972619D01*
X78364285Y-114067857D01*
X78411904Y-114258333D01*
X78411904Y-114496428D01*
X78364285Y-114686904D01*
X78316666Y-114782142D01*
X78269047Y-114829761D01*
X78173809Y-114877380D01*
X78078571Y-114877380D01*
X77983333Y-114829761D01*
X77935714Y-114782142D01*
X77888095Y-114686904D01*
X77840476Y-114496428D01*
X77840476Y-114258333D01*
X77888095Y-114067857D01*
X77935714Y-113972619D01*
X77983333Y-113925000D01*
X78078571Y-113877380D01*
X78840476Y-114877380D02*
X78840476Y-113877380D01*
X79411904Y-114877380D02*
X78983333Y-114305952D01*
X79411904Y-113877380D02*
X78840476Y-114448809D01*
X74047380Y-49976666D02*
X73571190Y-50310000D01*
X74047380Y-50548095D02*
X73047380Y-50548095D01*
X73047380Y-50167142D01*
X73095000Y-50071904D01*
X73142619Y-50024285D01*
X73237857Y-49976666D01*
X73380714Y-49976666D01*
X73475952Y-50024285D01*
X73523571Y-50071904D01*
X73571190Y-50167142D01*
X73571190Y-50548095D01*
X74047380Y-49024285D02*
X74047380Y-49595714D01*
X74047380Y-49310000D02*
X73047380Y-49310000D01*
X73190238Y-49405238D01*
X73285476Y-49500476D01*
X73333095Y-49595714D01*
X69307380Y-50000476D02*
X69307380Y-50571904D01*
X69307380Y-50286190D02*
X68307380Y-50286190D01*
X68450238Y-50381428D01*
X68545476Y-50476666D01*
X68593095Y-50571904D01*
X68307380Y-49381428D02*
X68307380Y-49286190D01*
X68355000Y-49190952D01*
X68402619Y-49143333D01*
X68497857Y-49095714D01*
X68688333Y-49048095D01*
X68926428Y-49048095D01*
X69116904Y-49095714D01*
X69212142Y-49143333D01*
X69259761Y-49190952D01*
X69307380Y-49286190D01*
X69307380Y-49381428D01*
X69259761Y-49476666D01*
X69212142Y-49524285D01*
X69116904Y-49571904D01*
X68926428Y-49619523D01*
X68688333Y-49619523D01*
X68497857Y-49571904D01*
X68402619Y-49524285D01*
X68355000Y-49476666D01*
X68307380Y-49381428D01*
X71677380Y-49976666D02*
X71201190Y-50310000D01*
X71677380Y-50548095D02*
X70677380Y-50548095D01*
X70677380Y-50167142D01*
X70725000Y-50071904D01*
X70772619Y-50024285D01*
X70867857Y-49976666D01*
X71010714Y-49976666D01*
X71105952Y-50024285D01*
X71153571Y-50071904D01*
X71201190Y-50167142D01*
X71201190Y-50548095D01*
X71677380Y-49024285D02*
X71677380Y-49595714D01*
X71677380Y-49310000D02*
X70677380Y-49310000D01*
X70820238Y-49405238D01*
X70915476Y-49500476D01*
X70963095Y-49595714D01*
X79266666Y-41907380D02*
X79266666Y-42621666D01*
X79219047Y-42764523D01*
X79123809Y-42859761D01*
X78980952Y-42907380D01*
X78885714Y-42907380D01*
X79742857Y-42907380D02*
X79742857Y-41907380D01*
X80123809Y-41907380D01*
X80219047Y-41955000D01*
X80266666Y-42002619D01*
X80314285Y-42097857D01*
X80314285Y-42240714D01*
X80266666Y-42335952D01*
X80219047Y-42383571D01*
X80123809Y-42431190D01*
X79742857Y-42431190D01*
X81266666Y-42907380D02*
X80695238Y-42907380D01*
X80980952Y-42907380D02*
X80980952Y-41907380D01*
X80885714Y-42050238D01*
X80790476Y-42145476D01*
X80695238Y-42193095D01*
X82727380Y-40827380D02*
X82251190Y-41160714D01*
X82727380Y-41398809D02*
X81727380Y-41398809D01*
X81727380Y-41017857D01*
X81775000Y-40922619D01*
X81822619Y-40875000D01*
X81917857Y-40827380D01*
X82060714Y-40827380D01*
X82155952Y-40875000D01*
X82203571Y-40922619D01*
X82251190Y-41017857D01*
X82251190Y-41398809D01*
X82203571Y-40398809D02*
X82203571Y-40065476D01*
X82727380Y-39922619D02*
X82727380Y-40398809D01*
X81727380Y-40398809D01*
X81727380Y-39922619D01*
X82679761Y-39541666D02*
X82727380Y-39398809D01*
X82727380Y-39160714D01*
X82679761Y-39065476D01*
X82632142Y-39017857D01*
X82536904Y-38970238D01*
X82441666Y-38970238D01*
X82346428Y-39017857D01*
X82298809Y-39065476D01*
X82251190Y-39160714D01*
X82203571Y-39351190D01*
X82155952Y-39446428D01*
X82108333Y-39494047D01*
X82013095Y-39541666D01*
X81917857Y-39541666D01*
X81822619Y-39494047D01*
X81775000Y-39446428D01*
X81727380Y-39351190D01*
X81727380Y-39113095D01*
X81775000Y-38970238D01*
X82203571Y-38541666D02*
X82203571Y-38208333D01*
X82727380Y-38065476D02*
X82727380Y-38541666D01*
X81727380Y-38541666D01*
X81727380Y-38065476D01*
X81727380Y-37779761D02*
X81727380Y-37208333D01*
X82727380Y-37494047D02*
X81727380Y-37494047D01*
X168296666Y-41632380D02*
X168296666Y-42346666D01*
X168249047Y-42489523D01*
X168153809Y-42584761D01*
X168010952Y-42632380D01*
X167915714Y-42632380D01*
X168677619Y-41632380D02*
X169296666Y-41632380D01*
X168963333Y-42013333D01*
X169106190Y-42013333D01*
X169201428Y-42060952D01*
X169249047Y-42108571D01*
X169296666Y-42203809D01*
X169296666Y-42441904D01*
X169249047Y-42537142D01*
X169201428Y-42584761D01*
X169106190Y-42632380D01*
X168820476Y-42632380D01*
X168725238Y-42584761D01*
X168677619Y-42537142D01*
X161277380Y-105914285D02*
X160277380Y-105914285D01*
X160991666Y-105580952D01*
X160277380Y-105247619D01*
X161277380Y-105247619D01*
X160753571Y-104438095D02*
X160801190Y-104295238D01*
X160848809Y-104247619D01*
X160944047Y-104200000D01*
X161086904Y-104200000D01*
X161182142Y-104247619D01*
X161229761Y-104295238D01*
X161277380Y-104390476D01*
X161277380Y-104771428D01*
X160277380Y-104771428D01*
X160277380Y-104438095D01*
X160325000Y-104342857D01*
X160372619Y-104295238D01*
X160467857Y-104247619D01*
X160563095Y-104247619D01*
X160658333Y-104295238D01*
X160705952Y-104342857D01*
X160753571Y-104438095D01*
X160753571Y-104771428D01*
X161182142Y-103200000D02*
X161229761Y-103247619D01*
X161277380Y-103390476D01*
X161277380Y-103485714D01*
X161229761Y-103628571D01*
X161134523Y-103723809D01*
X161039285Y-103771428D01*
X160848809Y-103819047D01*
X160705952Y-103819047D01*
X160515476Y-103771428D01*
X160420238Y-103723809D01*
X160325000Y-103628571D01*
X160277380Y-103485714D01*
X160277380Y-103390476D01*
X160325000Y-103247619D01*
X160372619Y-103200000D01*
X160753571Y-101676190D02*
X160801190Y-101533333D01*
X160848809Y-101485714D01*
X160944047Y-101438095D01*
X161086904Y-101438095D01*
X161182142Y-101485714D01*
X161229761Y-101533333D01*
X161277380Y-101628571D01*
X161277380Y-102009523D01*
X160277380Y-102009523D01*
X160277380Y-101676190D01*
X160325000Y-101580952D01*
X160372619Y-101533333D01*
X160467857Y-101485714D01*
X160563095Y-101485714D01*
X160658333Y-101533333D01*
X160705952Y-101580952D01*
X160753571Y-101676190D01*
X160753571Y-102009523D01*
X160610714Y-100580952D02*
X161277380Y-100580952D01*
X160610714Y-101009523D02*
X161134523Y-101009523D01*
X161229761Y-100961904D01*
X161277380Y-100866666D01*
X161277380Y-100723809D01*
X161229761Y-100628571D01*
X161182142Y-100580952D01*
X161229761Y-100152380D02*
X161277380Y-100057142D01*
X161277380Y-99866666D01*
X161229761Y-99771428D01*
X161134523Y-99723809D01*
X161086904Y-99723809D01*
X160991666Y-99771428D01*
X160944047Y-99866666D01*
X160944047Y-100009523D01*
X160896428Y-100104761D01*
X160801190Y-100152380D01*
X160753571Y-100152380D01*
X160658333Y-100104761D01*
X160610714Y-100009523D01*
X160610714Y-99866666D01*
X160658333Y-99771428D01*
X161182142Y-97961904D02*
X161229761Y-98009523D01*
X161277380Y-98152380D01*
X161277380Y-98247619D01*
X161229761Y-98390476D01*
X161134523Y-98485714D01*
X161039285Y-98533333D01*
X160848809Y-98580952D01*
X160705952Y-98580952D01*
X160515476Y-98533333D01*
X160420238Y-98485714D01*
X160325000Y-98390476D01*
X160277380Y-98247619D01*
X160277380Y-98152380D01*
X160325000Y-98009523D01*
X160372619Y-97961904D01*
X161277380Y-97390476D02*
X161229761Y-97485714D01*
X161182142Y-97533333D01*
X161086904Y-97580952D01*
X160801190Y-97580952D01*
X160705952Y-97533333D01*
X160658333Y-97485714D01*
X160610714Y-97390476D01*
X160610714Y-97247619D01*
X160658333Y-97152380D01*
X160705952Y-97104761D01*
X160801190Y-97057142D01*
X161086904Y-97057142D01*
X161182142Y-97104761D01*
X161229761Y-97152380D01*
X161277380Y-97247619D01*
X161277380Y-97390476D01*
X160610714Y-96628571D02*
X161277380Y-96628571D01*
X160705952Y-96628571D02*
X160658333Y-96580952D01*
X160610714Y-96485714D01*
X160610714Y-96342857D01*
X160658333Y-96247619D01*
X160753571Y-96200000D01*
X161277380Y-96200000D01*
X160610714Y-95723809D02*
X161277380Y-95723809D01*
X160705952Y-95723809D02*
X160658333Y-95676190D01*
X160610714Y-95580952D01*
X160610714Y-95438095D01*
X160658333Y-95342857D01*
X160753571Y-95295238D01*
X161277380Y-95295238D01*
X161229761Y-94438095D02*
X161277380Y-94533333D01*
X161277380Y-94723809D01*
X161229761Y-94819047D01*
X161134523Y-94866666D01*
X160753571Y-94866666D01*
X160658333Y-94819047D01*
X160610714Y-94723809D01*
X160610714Y-94533333D01*
X160658333Y-94438095D01*
X160753571Y-94390476D01*
X160848809Y-94390476D01*
X160944047Y-94866666D01*
X161229761Y-93533333D02*
X161277380Y-93628571D01*
X161277380Y-93819047D01*
X161229761Y-93914285D01*
X161182142Y-93961904D01*
X161086904Y-94009523D01*
X160801190Y-94009523D01*
X160705952Y-93961904D01*
X160658333Y-93914285D01*
X160610714Y-93819047D01*
X160610714Y-93628571D01*
X160658333Y-93533333D01*
X160610714Y-93247619D02*
X160610714Y-92866666D01*
X160277380Y-93104761D02*
X161134523Y-93104761D01*
X161229761Y-93057142D01*
X161277380Y-92961904D01*
X161277380Y-92866666D01*
X161277380Y-92390476D02*
X161229761Y-92485714D01*
X161182142Y-92533333D01*
X161086904Y-92580952D01*
X160801190Y-92580952D01*
X160705952Y-92533333D01*
X160658333Y-92485714D01*
X160610714Y-92390476D01*
X160610714Y-92247619D01*
X160658333Y-92152380D01*
X160705952Y-92104761D01*
X160801190Y-92057142D01*
X161086904Y-92057142D01*
X161182142Y-92104761D01*
X161229761Y-92152380D01*
X161277380Y-92247619D01*
X161277380Y-92390476D01*
X161277380Y-91628571D02*
X160610714Y-91628571D01*
X160801190Y-91628571D02*
X160705952Y-91580952D01*
X160658333Y-91533333D01*
X160610714Y-91438095D01*
X160610714Y-91342857D01*
X70811666Y-82222380D02*
X70811666Y-82936666D01*
X70764047Y-83079523D01*
X70668809Y-83174761D01*
X70525952Y-83222380D01*
X70430714Y-83222380D01*
X71240238Y-82317619D02*
X71287857Y-82270000D01*
X71383095Y-82222380D01*
X71621190Y-82222380D01*
X71716428Y-82270000D01*
X71764047Y-82317619D01*
X71811666Y-82412857D01*
X71811666Y-82508095D01*
X71764047Y-82650952D01*
X71192619Y-83222380D01*
X71811666Y-83222380D01*
X79482142Y-80107142D02*
X79529761Y-80154761D01*
X79577380Y-80297619D01*
X79577380Y-80392857D01*
X79529761Y-80535714D01*
X79434523Y-80630952D01*
X79339285Y-80678571D01*
X79148809Y-80726190D01*
X79005952Y-80726190D01*
X78815476Y-80678571D01*
X78720238Y-80630952D01*
X78625000Y-80535714D01*
X78577380Y-80392857D01*
X78577380Y-80297619D01*
X78625000Y-80154761D01*
X78672619Y-80107142D01*
X79577380Y-79202380D02*
X79577380Y-79678571D01*
X78577380Y-79678571D01*
X78577380Y-78678571D02*
X78577380Y-78488095D01*
X78625000Y-78392857D01*
X78720238Y-78297619D01*
X78910714Y-78250000D01*
X79244047Y-78250000D01*
X79434523Y-78297619D01*
X79529761Y-78392857D01*
X79577380Y-78488095D01*
X79577380Y-78678571D01*
X79529761Y-78773809D01*
X79434523Y-78869047D01*
X79244047Y-78916666D01*
X78910714Y-78916666D01*
X78720238Y-78869047D01*
X78625000Y-78773809D01*
X78577380Y-78678571D01*
X79482142Y-77250000D02*
X79529761Y-77297619D01*
X79577380Y-77440476D01*
X79577380Y-77535714D01*
X79529761Y-77678571D01*
X79434523Y-77773809D01*
X79339285Y-77821428D01*
X79148809Y-77869047D01*
X79005952Y-77869047D01*
X78815476Y-77821428D01*
X78720238Y-77773809D01*
X78625000Y-77678571D01*
X78577380Y-77535714D01*
X78577380Y-77440476D01*
X78625000Y-77297619D01*
X78672619Y-77250000D01*
X79577380Y-76821428D02*
X78577380Y-76821428D01*
X79577380Y-76250000D02*
X79005952Y-76678571D01*
X78577380Y-76250000D02*
X79148809Y-76821428D01*
X79577380Y-75059523D02*
X78577380Y-75059523D01*
X78577380Y-74821428D01*
X78625000Y-74678571D01*
X78720238Y-74583333D01*
X78815476Y-74535714D01*
X79005952Y-74488095D01*
X79148809Y-74488095D01*
X79339285Y-74535714D01*
X79434523Y-74583333D01*
X79529761Y-74678571D01*
X79577380Y-74821428D01*
X79577380Y-75059523D01*
X79577380Y-74059523D02*
X78577380Y-74059523D01*
X78577380Y-73726190D02*
X79577380Y-73392857D01*
X78577380Y-73059523D01*
X79577380Y-72726190D02*
X78577380Y-72726190D01*
X79577380Y-72250000D02*
X78577380Y-72250000D01*
X78577380Y-72011904D01*
X78625000Y-71869047D01*
X78720238Y-71773809D01*
X78815476Y-71726190D01*
X79005952Y-71678571D01*
X79148809Y-71678571D01*
X79339285Y-71726190D01*
X79434523Y-71773809D01*
X79529761Y-71869047D01*
X79577380Y-72011904D01*
X79577380Y-72250000D01*
X79053571Y-71250000D02*
X79053571Y-70916666D01*
X79577380Y-70773809D02*
X79577380Y-71250000D01*
X78577380Y-71250000D01*
X78577380Y-70773809D01*
X79577380Y-69773809D02*
X79101190Y-70107142D01*
X79577380Y-70345238D02*
X78577380Y-70345238D01*
X78577380Y-69964285D01*
X78625000Y-69869047D01*
X78672619Y-69821428D01*
X78767857Y-69773809D01*
X78910714Y-69773809D01*
X79005952Y-69821428D01*
X79053571Y-69869047D01*
X79101190Y-69964285D01*
X79101190Y-70345238D01*
X69431666Y-65597380D02*
X69431666Y-66311666D01*
X69384047Y-66454523D01*
X69288809Y-66549761D01*
X69145952Y-66597380D01*
X69050714Y-66597380D01*
X70431666Y-66597380D02*
X69860238Y-66597380D01*
X70145952Y-66597380D02*
X70145952Y-65597380D01*
X70050714Y-65740238D01*
X69955476Y-65835476D01*
X69860238Y-65883095D01*
X76277380Y-65075000D02*
X76277380Y-65265476D01*
X76325000Y-65360714D01*
X76372619Y-65408333D01*
X76515476Y-65503571D01*
X76705952Y-65551190D01*
X77086904Y-65551190D01*
X77182142Y-65503571D01*
X77229761Y-65455952D01*
X77277380Y-65360714D01*
X77277380Y-65170238D01*
X77229761Y-65075000D01*
X77182142Y-65027380D01*
X77086904Y-64979761D01*
X76848809Y-64979761D01*
X76753571Y-65027380D01*
X76705952Y-65075000D01*
X76658333Y-65170238D01*
X76658333Y-65360714D01*
X76705952Y-65455952D01*
X76753571Y-65503571D01*
X76848809Y-65551190D01*
X76277380Y-64075000D02*
X76277380Y-64551190D01*
X76753571Y-64598809D01*
X76705952Y-64551190D01*
X76658333Y-64455952D01*
X76658333Y-64217857D01*
X76705952Y-64122619D01*
X76753571Y-64075000D01*
X76848809Y-64027380D01*
X77086904Y-64027380D01*
X77182142Y-64075000D01*
X77229761Y-64122619D01*
X77277380Y-64217857D01*
X77277380Y-64455952D01*
X77229761Y-64551190D01*
X77182142Y-64598809D01*
X76277380Y-63408333D02*
X76277380Y-63313095D01*
X76325000Y-63217857D01*
X76372619Y-63170238D01*
X76467857Y-63122619D01*
X76658333Y-63075000D01*
X76896428Y-63075000D01*
X77086904Y-63122619D01*
X77182142Y-63170238D01*
X77229761Y-63217857D01*
X77277380Y-63313095D01*
X77277380Y-63408333D01*
X77229761Y-63503571D01*
X77182142Y-63551190D01*
X77086904Y-63598809D01*
X76896428Y-63646428D01*
X76658333Y-63646428D01*
X76467857Y-63598809D01*
X76372619Y-63551190D01*
X76325000Y-63503571D01*
X76277380Y-63408333D01*
X76372619Y-62694047D02*
X76325000Y-62646428D01*
X76277380Y-62551190D01*
X76277380Y-62313095D01*
X76325000Y-62217857D01*
X76372619Y-62170238D01*
X76467857Y-62122619D01*
X76563095Y-62122619D01*
X76705952Y-62170238D01*
X77277380Y-62741666D01*
X77277380Y-62122619D01*
X76277380Y-60741666D02*
X76277380Y-60551190D01*
X76325000Y-60455952D01*
X76420238Y-60360714D01*
X76610714Y-60313095D01*
X76944047Y-60313095D01*
X77134523Y-60360714D01*
X77229761Y-60455952D01*
X77277380Y-60551190D01*
X77277380Y-60741666D01*
X77229761Y-60836904D01*
X77134523Y-60932142D01*
X76944047Y-60979761D01*
X76610714Y-60979761D01*
X76420238Y-60932142D01*
X76325000Y-60836904D01*
X76277380Y-60741666D01*
X77277380Y-59884523D02*
X76277380Y-59884523D01*
X77277380Y-59313095D01*
X76277380Y-59313095D01*
X77277380Y-58360714D02*
X77277380Y-58836904D01*
X76277380Y-58836904D01*
X76801190Y-57836904D02*
X77277380Y-57836904D01*
X76277380Y-58170238D02*
X76801190Y-57836904D01*
X76277380Y-57503571D01*
X70017380Y-128268095D02*
X69017380Y-128268095D01*
X69017380Y-128030000D01*
X69065000Y-127887142D01*
X69160238Y-127791904D01*
X69255476Y-127744285D01*
X69445952Y-127696666D01*
X69588809Y-127696666D01*
X69779285Y-127744285D01*
X69874523Y-127791904D01*
X69969761Y-127887142D01*
X70017380Y-128030000D01*
X70017380Y-128268095D01*
X69112619Y-127315714D02*
X69065000Y-127268095D01*
X69017380Y-127172857D01*
X69017380Y-126934761D01*
X69065000Y-126839523D01*
X69112619Y-126791904D01*
X69207857Y-126744285D01*
X69303095Y-126744285D01*
X69445952Y-126791904D01*
X70017380Y-127363333D01*
X70017380Y-126744285D01*
X75937380Y-129839523D02*
X74937380Y-129839523D01*
X74937380Y-129458571D01*
X74985000Y-129363333D01*
X75032619Y-129315714D01*
X75127857Y-129268095D01*
X75270714Y-129268095D01*
X75365952Y-129315714D01*
X75413571Y-129363333D01*
X75461190Y-129458571D01*
X75461190Y-129839523D01*
X74937380Y-128649047D02*
X74937380Y-128458571D01*
X74985000Y-128363333D01*
X75080238Y-128268095D01*
X75270714Y-128220476D01*
X75604047Y-128220476D01*
X75794523Y-128268095D01*
X75889761Y-128363333D01*
X75937380Y-128458571D01*
X75937380Y-128649047D01*
X75889761Y-128744285D01*
X75794523Y-128839523D01*
X75604047Y-128887142D01*
X75270714Y-128887142D01*
X75080238Y-128839523D01*
X74985000Y-128744285D01*
X74937380Y-128649047D01*
X74937380Y-127887142D02*
X75937380Y-127649047D01*
X75223095Y-127458571D01*
X75937380Y-127268095D01*
X74937380Y-127030000D01*
X75413571Y-126649047D02*
X75413571Y-126315714D01*
X75937380Y-126172857D02*
X75937380Y-126649047D01*
X74937380Y-126649047D01*
X74937380Y-126172857D01*
X75937380Y-125172857D02*
X75461190Y-125506190D01*
X75937380Y-125744285D02*
X74937380Y-125744285D01*
X74937380Y-125363333D01*
X74985000Y-125268095D01*
X75032619Y-125220476D01*
X75127857Y-125172857D01*
X75270714Y-125172857D01*
X75365952Y-125220476D01*
X75413571Y-125268095D01*
X75461190Y-125363333D01*
X75461190Y-125744285D01*
X161482142Y-37942857D02*
X161529761Y-37990476D01*
X161577380Y-38133333D01*
X161577380Y-38228571D01*
X161529761Y-38371428D01*
X161434523Y-38466666D01*
X161339285Y-38514285D01*
X161148809Y-38561904D01*
X161005952Y-38561904D01*
X160815476Y-38514285D01*
X160720238Y-38466666D01*
X160625000Y-38371428D01*
X160577380Y-38228571D01*
X160577380Y-38133333D01*
X160625000Y-37990476D01*
X160672619Y-37942857D01*
X161577380Y-36990476D02*
X161577380Y-37561904D01*
X161577380Y-37276190D02*
X160577380Y-37276190D01*
X160720238Y-37371428D01*
X160815476Y-37466666D01*
X160863095Y-37561904D01*
X160577380Y-36657142D02*
X160577380Y-36038095D01*
X160958333Y-36371428D01*
X160958333Y-36228571D01*
X161005952Y-36133333D01*
X161053571Y-36085714D01*
X161148809Y-36038095D01*
X161386904Y-36038095D01*
X161482142Y-36085714D01*
X161529761Y-36133333D01*
X161577380Y-36228571D01*
X161577380Y-36514285D01*
X161529761Y-36609523D01*
X161482142Y-36657142D01*
X168077380Y-37942857D02*
X168077380Y-38514285D01*
X168077380Y-38228571D02*
X167077380Y-38228571D01*
X167220238Y-38323809D01*
X167315476Y-38419047D01*
X167363095Y-38514285D01*
X167077380Y-37323809D02*
X167077380Y-37228571D01*
X167125000Y-37133333D01*
X167172619Y-37085714D01*
X167267857Y-37038095D01*
X167458333Y-36990476D01*
X167696428Y-36990476D01*
X167886904Y-37038095D01*
X167982142Y-37085714D01*
X168029761Y-37133333D01*
X168077380Y-37228571D01*
X168077380Y-37323809D01*
X168029761Y-37419047D01*
X167982142Y-37466666D01*
X167886904Y-37514285D01*
X167696428Y-37561904D01*
X167458333Y-37561904D01*
X167267857Y-37514285D01*
X167172619Y-37466666D01*
X167125000Y-37419047D01*
X167077380Y-37323809D01*
X167410714Y-36133333D02*
X168077380Y-36133333D01*
X167410714Y-36561904D02*
X167934523Y-36561904D01*
X168029761Y-36514285D01*
X168077380Y-36419047D01*
X168077380Y-36276190D01*
X168029761Y-36180952D01*
X167982142Y-36133333D01*
X167082142Y-119042857D02*
X167129761Y-119090476D01*
X167177380Y-119233333D01*
X167177380Y-119328571D01*
X167129761Y-119471428D01*
X167034523Y-119566666D01*
X166939285Y-119614285D01*
X166748809Y-119661904D01*
X166605952Y-119661904D01*
X166415476Y-119614285D01*
X166320238Y-119566666D01*
X166225000Y-119471428D01*
X166177380Y-119328571D01*
X166177380Y-119233333D01*
X166225000Y-119090476D01*
X166272619Y-119042857D01*
X167177380Y-118090476D02*
X167177380Y-118661904D01*
X167177380Y-118376190D02*
X166177380Y-118376190D01*
X166320238Y-118471428D01*
X166415476Y-118566666D01*
X166463095Y-118661904D01*
X166272619Y-117709523D02*
X166225000Y-117661904D01*
X166177380Y-117566666D01*
X166177380Y-117328571D01*
X166225000Y-117233333D01*
X166272619Y-117185714D01*
X166367857Y-117138095D01*
X166463095Y-117138095D01*
X166605952Y-117185714D01*
X167177380Y-117757142D01*
X167177380Y-117138095D01*
X163952380Y-122992857D02*
X163952380Y-123564285D01*
X163952380Y-123278571D02*
X162952380Y-123278571D01*
X163095238Y-123373809D01*
X163190476Y-123469047D01*
X163238095Y-123564285D01*
X162952380Y-122373809D02*
X162952380Y-122278571D01*
X163000000Y-122183333D01*
X163047619Y-122135714D01*
X163142857Y-122088095D01*
X163333333Y-122040476D01*
X163571428Y-122040476D01*
X163761904Y-122088095D01*
X163857142Y-122135714D01*
X163904761Y-122183333D01*
X163952380Y-122278571D01*
X163952380Y-122373809D01*
X163904761Y-122469047D01*
X163857142Y-122516666D01*
X163761904Y-122564285D01*
X163571428Y-122611904D01*
X163333333Y-122611904D01*
X163142857Y-122564285D01*
X163047619Y-122516666D01*
X163000000Y-122469047D01*
X162952380Y-122373809D01*
X163285714Y-121183333D02*
X163952380Y-121183333D01*
X163285714Y-121611904D02*
X163809523Y-121611904D01*
X163904761Y-121564285D01*
X163952380Y-121469047D01*
X163952380Y-121326190D01*
X163904761Y-121230952D01*
X163857142Y-121183333D01*
X76132142Y-51541666D02*
X76179761Y-51589285D01*
X76227380Y-51732142D01*
X76227380Y-51827380D01*
X76179761Y-51970238D01*
X76084523Y-52065476D01*
X75989285Y-52113095D01*
X75798809Y-52160714D01*
X75655952Y-52160714D01*
X75465476Y-52113095D01*
X75370238Y-52065476D01*
X75275000Y-51970238D01*
X75227380Y-51827380D01*
X75227380Y-51732142D01*
X75275000Y-51589285D01*
X75322619Y-51541666D01*
X76227380Y-50589285D02*
X76227380Y-51160714D01*
X76227380Y-50875000D02*
X75227380Y-50875000D01*
X75370238Y-50970238D01*
X75465476Y-51065476D01*
X75513095Y-51160714D01*
X82727380Y-52017857D02*
X82727380Y-52589285D01*
X82727380Y-52303571D02*
X81727380Y-52303571D01*
X81870238Y-52398809D01*
X81965476Y-52494047D01*
X82013095Y-52589285D01*
X81727380Y-51398809D02*
X81727380Y-51303571D01*
X81775000Y-51208333D01*
X81822619Y-51160714D01*
X81917857Y-51113095D01*
X82108333Y-51065476D01*
X82346428Y-51065476D01*
X82536904Y-51113095D01*
X82632142Y-51160714D01*
X82679761Y-51208333D01*
X82727380Y-51303571D01*
X82727380Y-51398809D01*
X82679761Y-51494047D01*
X82632142Y-51541666D01*
X82536904Y-51589285D01*
X82346428Y-51636904D01*
X82108333Y-51636904D01*
X81917857Y-51589285D01*
X81822619Y-51541666D01*
X81775000Y-51494047D01*
X81727380Y-51398809D01*
X82060714Y-50208333D02*
X82727380Y-50208333D01*
X82060714Y-50636904D02*
X82584523Y-50636904D01*
X82679761Y-50589285D01*
X82727380Y-50494047D01*
X82727380Y-50351190D01*
X82679761Y-50255952D01*
X82632142Y-50208333D01*
M02*
