M48
; DRILL file {KiCad (6.0.6)} date Mon Oct  3 12:47:09 2022
; FORMAT={-:-/ absolute / inch / decimal}
; #@! TF.CreationDate,2022-10-03T12:47:09-05:00
; #@! TF.GenerationSoftware,Kicad,Pcbnew,(6.0.6)
; #@! TF.FileFunction,Plated,1,2,PTH
FMAT,2
INCH
; #@! TA.AperFunction,Plated,PTH,ViaDrill
T1C0.0157
; #@! TA.AperFunction,Plated,PTH,ComponentDrill
T2C0.0236
; #@! TA.AperFunction,Plated,PTH,ComponentDrill
T3C0.0315
; #@! TA.AperFunction,Plated,PTH,ComponentDrill
T4C0.0354
; #@! TA.AperFunction,Plated,PTH,ComponentDrill
T5C0.0390
; #@! TA.AperFunction,Plated,PTH,ComponentDrill
T6C0.0394
; #@! TA.AperFunction,Plated,PTH,ComponentDrill
T7C0.0512
%
G90
G05
T1
X2.9244Y-3.9276
X3.3576Y-4.0516
X3.4691Y-4.0143
X3.6174Y-3.3724
X3.6287Y-4.4195
X3.7215Y-4.4498
X3.8384Y-2.6926
X4.0356Y-3.7151
X4.079Y-3.5315
X4.3058Y-2.9732
X4.4088Y-4.003
X4.5474Y-4.2023
X4.5636Y-2.3055
X4.585Y-2.2369
X4.7012Y-2.5224
X4.8383Y-2.4819
X4.8684Y-3.1674
X4.9037Y-2.2415
X4.9166Y-3.1965
X4.927Y-2.0834
X4.9487Y-2.3849
X4.9664Y-2.0924
X4.9701Y-2.3348
X4.9844Y-1.9986
X5.0443Y-2.7634
X5.0516Y-3.2434
X5.1988Y-3.4772
X5.2007Y-2.9267
X5.273Y-3.1211
X5.2875Y-2.0952
X5.3129Y-3.679
X5.3181Y-3.4684
X5.3306Y-3.96
X5.3658Y-4.009
X5.5167Y-2.608
X5.5253Y-3.5291
X5.5461Y-1.5473
X5.6384Y-3.4992
X5.8254Y-4.5368
X5.8277Y-1.5337
X5.9002Y-3.499
X5.9131Y-3.8098
X5.9531Y-3.4514
X5.9998Y-1.9394
X6.0473Y-3.5193
X6.0628Y-2.2477
X6.0931Y-3.5624
X6.1331Y-3.795
X6.1891Y-3.7693
X6.2262Y-2.0974
X6.2296Y-2.1546
X6.2553Y-3.4819
X6.2608Y-2.126
X6.2848Y-1.7697
X6.3288Y-1.9309
X6.3343Y-2.9838
X6.3372Y-1.8303
X6.3506Y-2.4666
T2
X3.0669Y-2.0728
X3.0669Y-2.1516
X4.1564Y-1.5748
X4.2351Y-1.5748
X4.8986Y-2.9892
X4.9774Y-2.9892
X6.436Y-4.622
X6.436Y-4.7008
X6.4715Y-1.4291
X6.4715Y-1.5079
T3
X3.0768Y-4.324
X3.0768Y-4.624
X3.1073Y-1.4154
X3.1289Y-4.7974
X3.1289Y-5.0974
X3.1768Y-4.324
X3.1768Y-4.624
X3.2289Y-4.7974
X3.2289Y-5.0974
X3.2354Y-3.4252
X3.2378Y-3.7106
X3.2378Y-3.8524
X3.2378Y-3.9941
X3.2394Y-3.5669
X3.2768Y-4.324
X3.2768Y-4.624
X3.3289Y-4.7974
X3.3289Y-5.0974
X3.3661Y-1.6419
X3.3661Y-1.9419
X3.3661Y-2.2965
X3.3661Y-2.5965
X3.3661Y-2.9441
X3.3661Y-3.2441
X3.3768Y-4.324
X3.3768Y-4.624
X3.4073Y-1.4154
X3.4289Y-4.7974
X3.4289Y-5.0974
X3.4661Y-1.6419
X3.4661Y-1.9419
X3.4661Y-2.2965
X3.4661Y-2.5965
X3.4661Y-2.9441
X3.4661Y-3.2441
X3.4768Y-4.324
X3.4768Y-4.624
X3.5289Y-4.7974
X3.5289Y-5.0974
X3.5354Y-3.4252
X3.5378Y-3.7106
X3.5378Y-3.8524
X3.5378Y-3.9941
X3.5394Y-3.5669
X3.5661Y-1.6419
X3.5661Y-1.9419
X3.5661Y-2.2965
X3.5661Y-2.5965
X3.5661Y-2.9441
X3.5661Y-3.2441
X3.5768Y-4.324
X3.5768Y-4.624
X3.6289Y-4.7974
X3.6289Y-5.0974
X3.6661Y-1.6419
X3.6661Y-1.9419
X3.6661Y-2.2965
X3.6661Y-2.5965
X3.6661Y-2.9441
X3.6661Y-3.2441
X3.6768Y-4.324
X3.6768Y-4.624
X3.6902Y-3.4341
X3.7215Y-3.6102
X3.7215Y-3.9102
X3.7289Y-4.7974
X3.7289Y-5.0974
X3.7661Y-1.6419
X3.7661Y-1.9419
X3.7661Y-2.2965
X3.7661Y-2.5965
X3.7661Y-2.9441
X3.7661Y-3.2441
X3.8661Y-1.6419
X3.8661Y-1.9419
X3.8661Y-2.2965
X3.8661Y-2.5965
X3.8661Y-2.9441
X3.8661Y-3.2441
X3.8821Y-1.4163
X3.9661Y-1.6419
X3.9661Y-1.9419
X3.9661Y-2.2965
X3.9661Y-2.5965
X3.9661Y-2.9441
X3.9661Y-3.2441
X3.9803Y-4.0888
X3.9803Y-4.3888
X3.9844Y-4.6117
X3.9902Y-3.4341
X4.0581Y-4.7945
X4.0581Y-5.0945
X4.0803Y-4.0888
X4.0803Y-4.3888
X4.0844Y-4.6117
X4.1581Y-4.7945
X4.1581Y-5.0945
X4.1638Y-1.787
X4.1638Y-1.887
X4.1638Y-1.987
X4.1638Y-2.087
X4.1638Y-2.187
X4.1638Y-2.287
X4.1638Y-2.387
X4.1638Y-2.487
X4.1638Y-2.587
X4.1638Y-2.687
X4.1638Y-2.787
X4.1638Y-2.887
X4.1638Y-2.987
X4.1638Y-3.087
X4.1638Y-3.187
X4.1638Y-3.287
X4.1638Y-3.387
X4.1638Y-3.487
X4.1638Y-3.587
X4.1638Y-3.687
X4.1803Y-4.0888
X4.1803Y-4.3888
X4.1821Y-1.4163
X4.1844Y-4.6117
X4.2581Y-4.7945
X4.2581Y-5.0945
X4.2803Y-4.0888
X4.2803Y-4.3888
X4.2844Y-4.6117
X4.3581Y-4.7945
X4.3581Y-5.0945
X4.3803Y-4.0888
X4.3803Y-4.3888
X4.3844Y-4.6117
X4.4114Y-1.5197
X4.4581Y-4.7945
X4.4581Y-5.0945
X4.4803Y-4.0888
X4.4803Y-4.3888
X4.4844Y-4.6117
X4.5114Y-1.5197
X4.5581Y-4.7945
X4.5581Y-5.0945
X4.5803Y-4.0888
X4.5803Y-4.3888
X4.5844Y-4.6117
X4.6114Y-1.5197
X4.6581Y-4.7945
X4.6581Y-5.0945
X4.6803Y-4.0888
X4.6803Y-4.3888
X4.6844Y-4.6117
X4.7114Y-1.5197
X4.7581Y-4.7945
X4.7581Y-5.0945
X4.7638Y-1.787
X4.7638Y-1.887
X4.7638Y-1.987
X4.7638Y-2.087
X4.7638Y-2.187
X4.7638Y-2.287
X4.7638Y-2.387
X4.7638Y-2.487
X4.7638Y-2.587
X4.7638Y-2.687
X4.7638Y-2.787
X4.7638Y-2.887
X4.7638Y-2.987
X4.7638Y-3.087
X4.7638Y-3.187
X4.7638Y-3.287
X4.7638Y-3.387
X4.7638Y-3.487
X4.7638Y-3.587
X4.7638Y-3.687
X4.7803Y-4.0888
X4.7803Y-4.3888
X4.7844Y-4.6117
X4.8114Y-1.5197
X4.8803Y-4.0888
X4.8803Y-4.3888
X4.9114Y-1.5197
X5.2244Y-4.1035
X5.2244Y-4.4035
X5.2343Y-3.9031
X5.2362Y-2.0304
X5.2362Y-2.3304
X5.2431Y-2.7276
X5.2431Y-3.0276
X5.2431Y-3.3063
X5.2431Y-3.6063
X5.2461Y-1.4096
X5.2461Y-1.7096
X5.2667Y-2.5315
X5.3244Y-4.1035
X5.3244Y-4.4035
X5.3343Y-3.9031
X5.3362Y-2.0304
X5.3362Y-2.3304
X5.3431Y-2.7276
X5.3431Y-3.0276
X5.3431Y-3.3063
X5.3431Y-3.6063
X5.3461Y-1.4096
X5.3461Y-1.7096
X5.3644Y-4.6098
X5.3667Y-2.5315
X5.4244Y-4.1035
X5.4244Y-4.4035
X5.4343Y-3.9031
X5.4362Y-2.0304
X5.4362Y-2.3304
X5.438Y-4.7925
X5.438Y-5.0925
X5.4431Y-2.7276
X5.4431Y-3.0276
X5.4431Y-3.3063
X5.4431Y-3.6063
X5.4461Y-1.4096
X5.4461Y-1.7096
X5.4644Y-4.6098
X5.4667Y-2.5315
X5.5244Y-4.1035
X5.5244Y-4.4035
X5.5343Y-3.9031
X5.5362Y-2.0304
X5.5362Y-2.3304
X5.538Y-4.7925
X5.538Y-5.0925
X5.5431Y-2.7276
X5.5431Y-3.0276
X5.5431Y-3.3063
X5.5431Y-3.6063
X5.5461Y-1.4096
X5.5461Y-1.7096
X5.5644Y-4.6098
X5.5667Y-2.5315
X5.6244Y-4.1035
X5.6244Y-4.4035
X5.6343Y-3.9031
X5.6362Y-2.0304
X5.6362Y-2.3304
X5.638Y-4.7925
X5.638Y-5.0925
X5.6431Y-2.7276
X5.6431Y-3.0276
X5.6431Y-3.3063
X5.6431Y-3.6063
X5.6461Y-1.4096
X5.6461Y-1.7096
X5.6644Y-4.6098
X5.6667Y-2.5315
X5.7244Y-4.1035
X5.7244Y-4.4035
X5.7343Y-3.9031
X5.7362Y-2.0304
X5.7362Y-2.3304
X5.738Y-4.7925
X5.738Y-5.0925
X5.7431Y-2.7276
X5.7431Y-3.0276
X5.7431Y-3.3063
X5.7431Y-3.6063
X5.7461Y-1.4096
X5.7461Y-1.7096
X5.7644Y-4.6098
X5.7667Y-2.5315
X5.8244Y-4.1035
X5.8244Y-4.4035
X5.8343Y-3.9031
X5.8362Y-2.0304
X5.8362Y-2.3304
X5.838Y-4.7925
X5.838Y-5.0925
X5.8431Y-2.7276
X5.8431Y-3.0276
X5.8431Y-3.3063
X5.8431Y-3.6063
X5.8461Y-1.4096
X5.8461Y-1.7096
X5.8644Y-4.6098
X5.8667Y-2.5315
X5.9244Y-4.1035
X5.9244Y-4.4035
X5.9343Y-3.9031
X5.9362Y-2.0304
X5.9362Y-2.3304
X5.938Y-4.7925
X5.938Y-5.0925
X5.9431Y-2.7276
X5.9431Y-3.0276
X5.9431Y-3.3063
X5.9431Y-3.6063
X5.9461Y-1.4096
X5.9461Y-1.7096
X5.9644Y-4.6098
X5.9667Y-2.5315
X6.0244Y-4.1035
X6.0244Y-4.4035
X6.0343Y-3.9031
X6.0362Y-2.0304
X6.0362Y-2.3304
X6.038Y-4.7925
X6.038Y-5.0925
X6.0431Y-2.7276
X6.0431Y-3.0276
X6.0431Y-3.3063
X6.0431Y-3.6063
X6.0461Y-1.4096
X6.0461Y-1.7096
X6.0644Y-4.6098
X6.0667Y-2.5315
X6.1244Y-4.1035
X6.1244Y-4.4035
X6.1343Y-3.9031
X6.1362Y-2.0304
X6.1362Y-2.3304
X6.138Y-4.7925
X6.138Y-5.0925
X6.1431Y-2.7276
X6.1431Y-3.0276
X6.1431Y-3.3063
X6.1431Y-3.6063
X6.1461Y-1.4096
X6.1461Y-1.7096
X6.1644Y-4.6098
X6.1667Y-2.5315
T4
X2.8553Y-3.837
X2.8553Y-3.937
X2.8553Y-4.0638
X2.8553Y-4.1638
X2.8553Y-4.2906
X2.8553Y-4.3906
X2.8553Y-4.5173
X2.8553Y-4.6173
X2.8553Y-4.7441
X2.8553Y-4.8441
X2.8553Y-4.9709
X2.8553Y-5.0709
X3.9459Y-3.6173
X3.9459Y-3.9173
T5
X2.8012Y-1.4439
X2.8012Y-1.6211
T6
X2.7904Y-1.8321
X2.7904Y-1.9321
X2.9039Y-2.8112
X2.9039Y-2.9112
X2.9039Y-3.0112
X2.9039Y-3.1112
X2.9114Y-3.4063
X2.9114Y-3.5063
X2.9114Y-3.6063
X2.9193Y-2.3148
X2.9193Y-2.4148
X2.9193Y-2.5148
X3.0039Y-2.8112
X3.0039Y-2.9112
X3.0039Y-3.0112
X3.0039Y-3.1112
X3.1181Y-4.1693
X3.2205Y-1.6388
X3.2205Y-1.8356
X3.2343Y-2.2943
X3.2343Y-2.4911
X3.2343Y-2.9429
X3.2343Y-3.1398
X3.315Y-4.1693
X3.5423Y-1.4163
X3.7392Y-1.4163
X3.8573Y-4.0846
X3.8573Y-4.2815
X3.8642Y-4.8967
X3.8642Y-5.0935
X4.5581Y-3.8533
X4.7549Y-3.8533
X5.0906Y-2.0315
X5.0906Y-2.2283
X5.0955Y-4.1024
X5.0955Y-4.2992
X5.1033Y-3.4016
X5.1033Y-3.5984
X5.1063Y-2.6496
X5.1063Y-2.8465
X5.1152Y-1.4094
X5.1152Y-1.6063
X6.4154Y-1.6909
X6.4154Y-1.7909
X6.4154Y-1.8909
X6.4154Y-1.9909
X6.4154Y-2.0909
X6.4154Y-2.1909
X6.4154Y-2.2909
X6.4154Y-2.3909
X6.4154Y-2.4909
X6.4154Y-2.5909
X6.4154Y-2.6909
X6.4154Y-2.7909
X6.4154Y-2.8909
X6.4154Y-2.9909
X6.4154Y-3.0909
X6.4154Y-3.1909
X6.4154Y-3.2909
X6.4154Y-3.3909
X6.4154Y-3.4909
X6.4154Y-3.5909
X6.4154Y-3.6909
X6.4154Y-3.7909
X6.4154Y-3.8909
X6.4154Y-3.9909
X6.4154Y-4.0909
X6.5154Y-1.6909
X6.5154Y-1.7909
X6.5154Y-1.8909
X6.5154Y-1.9909
X6.5154Y-2.0909
X6.5154Y-2.1909
X6.5154Y-2.2909
X6.5154Y-2.3909
X6.5154Y-2.4909
X6.5154Y-2.5909
X6.5154Y-2.6909
X6.5154Y-2.7909
X6.5154Y-2.8909
X6.5154Y-2.9909
X6.5154Y-3.0909
X6.5154Y-3.1909
X6.5154Y-3.2909
X6.5154Y-3.3909
X6.5154Y-3.4909
X6.5154Y-3.5909
X6.5154Y-3.6909
X6.5154Y-3.7909
X6.5154Y-3.8909
X6.5154Y-3.9909
X6.5154Y-4.0909
T7
X2.8992Y-1.3943
X2.8992Y-1.6703
T0
M30
