M48
; DRILL file {KiCad (6.0.6)} date Mon Oct  3 07:41:50 2022
; FORMAT={-:-/ absolute / inch / decimal}
; #@! TF.CreationDate,2022-10-03T07:41:50-05:00
; #@! TF.GenerationSoftware,Kicad,Pcbnew,(6.0.6)
; #@! TF.FileFunction,Plated,1,2,PTH
FMAT,2
INCH
; #@! TA.AperFunction,Plated,PTH,ViaDrill
T1C0.0157
; #@! TA.AperFunction,Plated,PTH,ComponentDrill
T2C0.0236
; #@! TA.AperFunction,Plated,PTH,ComponentDrill
T3C0.0315
; #@! TA.AperFunction,Plated,PTH,ComponentDrill
T4C0.0354
; #@! TA.AperFunction,Plated,PTH,ComponentDrill
T5C0.0390
; #@! TA.AperFunction,Plated,PTH,ComponentDrill
T6C0.0394
; #@! TA.AperFunction,Plated,PTH,ComponentDrill
T7C0.0512
%
G90
G05
T1
X3.0787Y-3.108
X3.3087Y-2.4554
X3.6731Y-2.4331
X3.7204Y-1.9377
X3.9873Y-3.4318
X4.0411Y-3.2173
X4.1098Y-3.5593
X4.1491Y-4.4697
X4.3133Y-2.9914
X4.404Y-4.2338
X4.4392Y-3.773
X4.4459Y-2.1853
X4.449Y-4.321
X4.479Y-4.6916
X4.4886Y-3.9458
X4.4889Y-4.6157
X4.5026Y-4.112
X4.5076Y-4.731
X4.5539Y-2.5948
X4.5806Y-3.203
X4.5919Y-4.8045
X4.5987Y-3.2407
X4.6218Y-4.7335
X4.6552Y-3.7225
X4.6703Y-3.5691
X4.7218Y-4.6622
X4.7308Y-4.0332
X4.7324Y-3.227
X4.7384Y-4.0726
X4.7635Y-4.7712
X4.7791Y-3.373
X4.8004Y-3.9195
X4.8119Y-3.0017
X4.8326Y-3.0451
X4.8753Y-2.9342
X4.8768Y-3.2469
X4.913Y-3.0572
X4.9301Y-4.8095
X4.9397Y-2.3663
X4.9479Y-3.1521
X4.9648Y-3.7028
X4.9753Y-2.9886
X5.008Y-3.4719
X5.0275Y-3.7453
X5.04Y-3.5314
X5.0591Y-4.4697
X5.0724Y-4.8934
X5.0976Y-3.4236
X5.0976Y-4.7632
X5.1022Y-2.3459
X5.1658Y-2.4516
X5.2083Y-3.4808
X5.2368Y-3.3723
X5.2413Y-4.2525
X5.2861Y-4.8553
X5.3551Y-4.7149
X5.3554Y-3.432
X5.4052Y-3.4639
X5.4067Y-3.6959
X5.408Y-4.611
X5.4209Y-4.8119
X5.5108Y-4.0706
X5.5301Y-3.3832
X5.5812Y-3.4093
X5.6395Y-4.6128
X5.6711Y-2.863
X5.68Y-3.1658
X5.7115Y-2.8211
X5.7134Y-4.4405
X5.7389Y-3.7196
X5.7417Y-4.4131
X5.7442Y-2.7899
X5.8018Y-3.619
X5.83Y-4.7245
X5.8434Y-3.0201
X5.8548Y-4.7554
X5.9398Y-3.5258
X5.9923Y-3.5544
X6.0143Y-4.6071
X6.0321Y-3.0517
X6.1302Y-4.0633
X6.1356Y-3.0843
X6.219Y-3.0925
X6.2483Y-2.9802
X6.25Y-3.0227
X6.3602Y-4.0092
X6.3783Y-4.4522
X6.4761Y-3.9133
T2
X3.3712Y-4.9449
X3.4499Y-4.9449
X3.7885Y-2.2677
X3.8672Y-2.2677
X4.9636Y-3.4341
X4.9636Y-3.5128
X5.8012Y-1.6024
X5.8799Y-1.6024
X6.4409Y-4.9606
X6.5197Y-4.9606
T3
X2.8465Y-1.6171
X2.8465Y-1.7171
X2.8465Y-1.8171
X2.8465Y-1.9171
X2.8465Y-2.0171
X2.8465Y-2.1171
X2.8465Y-2.2171
X2.8583Y-2.5935
X2.8583Y-2.6935
X2.8583Y-2.7935
X2.8583Y-2.8935
X2.8583Y-2.9935
X2.8583Y-3.0935
X2.8583Y-3.1935
X2.8583Y-3.2935
X2.8602Y-3.9734
X2.8602Y-4.0734
X2.8602Y-4.1734
X2.8602Y-4.2734
X2.8602Y-4.3734
X2.8602Y-4.4734
X2.8602Y-4.5734
X2.8602Y-4.6734
X3.1465Y-1.6171
X3.1465Y-1.7171
X3.1465Y-1.8171
X3.1465Y-1.9171
X3.1465Y-2.0171
X3.1465Y-2.1171
X3.1465Y-2.2171
X3.1583Y-2.5935
X3.1583Y-2.6935
X3.1583Y-2.7935
X3.1583Y-2.8935
X3.1583Y-2.9935
X3.1583Y-3.0935
X3.1583Y-3.1935
X3.1583Y-3.2935
X3.1602Y-3.9734
X3.1602Y-4.0734
X3.1602Y-4.1734
X3.1602Y-4.2734
X3.1602Y-4.3734
X3.1602Y-4.4734
X3.1602Y-4.5734
X3.1602Y-4.6734
X3.3287Y-1.6122
X3.3287Y-1.7122
X3.3287Y-1.8122
X3.3287Y-1.9122
X3.3287Y-2.0122
X3.3287Y-2.1122
X3.3287Y-2.2122
X3.341Y-2.5199
X3.341Y-2.6199
X3.341Y-2.7199
X3.341Y-2.8199
X3.341Y-2.9199
X3.341Y-3.0199
X3.341Y-3.1199
X3.341Y-3.2199
X3.341Y-3.3199
X3.343Y-3.8998
X3.343Y-3.9998
X3.343Y-4.0998
X3.343Y-4.1998
X3.343Y-4.2998
X3.343Y-4.3998
X3.343Y-4.4998
X3.343Y-4.5998
X3.343Y-4.6998
X3.5492Y-3.7598
X3.5492Y-3.8598
X3.5492Y-3.9598
X3.5492Y-4.0598
X3.5492Y-4.1598
X3.5492Y-4.2598
X3.5492Y-4.3598
X3.5492Y-4.4598
X3.5492Y-4.5598
X3.5492Y-4.6598
X3.564Y-2.5157
X3.564Y-2.6157
X3.564Y-2.7157
X3.564Y-2.8157
X3.564Y-2.9157
X3.564Y-3.0157
X3.564Y-3.1157
X3.564Y-3.2157
X3.564Y-3.3157
X3.564Y-3.4157
X3.6287Y-1.6122
X3.6287Y-1.7122
X3.6287Y-1.8122
X3.6287Y-1.9122
X3.6287Y-2.0122
X3.6287Y-2.1122
X3.6287Y-2.2122
X3.8492Y-3.7598
X3.8492Y-3.8598
X3.8492Y-3.9598
X3.8492Y-4.0598
X3.8492Y-4.1598
X3.8492Y-4.2598
X3.8492Y-4.3598
X3.8492Y-4.4598
X3.8492Y-4.5598
X3.8492Y-4.6598
X3.864Y-2.5157
X3.864Y-2.6157
X3.864Y-2.7157
X3.864Y-2.8157
X3.864Y-2.9157
X3.864Y-3.0157
X3.864Y-3.1157
X3.864Y-3.2157
X3.864Y-3.3157
X3.864Y-3.4157
X3.9587Y-1.7732
X3.9587Y-2.0732
X4.0425Y-2.2569
X4.0497Y-3.7697
X4.0497Y-3.8697
X4.0497Y-3.9697
X4.0497Y-4.0697
X4.0497Y-4.1697
X4.0497Y-4.2697
X4.0497Y-4.3697
X4.0497Y-4.4697
X4.0497Y-4.5697
X4.0497Y-4.6697
X4.1004Y-1.7732
X4.1004Y-2.0732
X4.1325Y-2.7008
X4.1325Y-3.3008
X4.2325Y-2.7008
X4.2325Y-3.3008
X4.2421Y-1.7732
X4.2421Y-2.0732
X4.2795Y-3.7746
X4.2795Y-3.8746
X4.2795Y-3.9746
X4.2795Y-4.0746
X4.2795Y-4.1746
X4.2795Y-4.2746
X4.2795Y-4.3746
X4.2795Y-4.4746
X4.2795Y-4.5746
X4.2795Y-4.6746
X4.3325Y-2.7008
X4.3325Y-3.3008
X4.3425Y-2.2569
X4.3839Y-1.7732
X4.3839Y-2.0732
X4.4325Y-2.7008
X4.4325Y-3.3008
X4.5187Y-2.2256
X4.5187Y-2.5256
X4.5256Y-1.7732
X4.5256Y-2.0732
X4.5325Y-2.7008
X4.5325Y-3.3008
X4.5795Y-3.7746
X4.5795Y-3.8746
X4.5795Y-3.9746
X4.5795Y-4.0746
X4.5795Y-4.1746
X4.5795Y-4.2746
X4.5795Y-4.3746
X4.5795Y-4.4746
X4.5795Y-4.5746
X4.5795Y-4.6746
X4.6325Y-2.7008
X4.6325Y-3.3008
X4.7087Y-1.9016
X4.7087Y-2.0016
X4.7087Y-2.1016
X4.7087Y-2.2016
X4.7087Y-2.3016
X4.7087Y-2.4016
X4.7087Y-2.5016
X4.7325Y-2.7008
X4.7325Y-3.3008
X4.8325Y-2.7008
X4.8325Y-3.3008
X4.8701Y-3.7667
X4.8701Y-3.8667
X4.8701Y-3.9667
X4.8701Y-4.0667
X4.8701Y-4.1667
X4.8701Y-4.2667
X4.8701Y-4.3667
X4.8701Y-4.4667
X4.8701Y-4.5667
X4.8701Y-4.6667
X4.9325Y-2.7008
X4.9325Y-3.3008
X5.0087Y-1.9016
X5.0087Y-2.0016
X5.0087Y-2.1016
X5.0087Y-2.2016
X5.0087Y-2.3016
X5.0087Y-2.4016
X5.0087Y-2.5016
X5.0325Y-2.7008
X5.0325Y-3.3008
X5.1325Y-2.7008
X5.1325Y-3.3008
X5.1701Y-3.7667
X5.1701Y-3.8667
X5.1701Y-3.9667
X5.1701Y-4.0667
X5.1701Y-4.1667
X5.1701Y-4.2667
X5.1701Y-4.3667
X5.1701Y-4.4667
X5.1701Y-4.5667
X5.1701Y-4.6667
X5.2325Y-2.7008
X5.2325Y-3.3008
X5.3228Y-3.7667
X5.3228Y-3.8667
X5.3228Y-3.9667
X5.3228Y-4.0667
X5.3228Y-4.1667
X5.3228Y-4.2667
X5.3228Y-4.3667
X5.3228Y-4.4667
X5.3228Y-4.5667
X5.3228Y-4.6667
X5.3325Y-2.7008
X5.3325Y-3.3008
X5.3563Y-1.9016
X5.3563Y-2.0016
X5.3563Y-2.1016
X5.3563Y-2.2016
X5.3563Y-2.3016
X5.3563Y-2.4016
X5.3563Y-2.5016
X5.4325Y-2.7008
X5.4325Y-3.3008
X5.5325Y-2.7008
X5.5325Y-3.3008
X5.5906Y-3.7628
X5.5906Y-3.8628
X5.5906Y-3.9628
X5.5906Y-4.0628
X5.5906Y-4.1628
X5.5906Y-4.2628
X5.5906Y-4.3628
X5.5906Y-4.4628
X5.5906Y-4.5628
X5.5906Y-4.6628
X5.6325Y-2.7008
X5.6325Y-3.3008
X5.6563Y-1.9016
X5.6563Y-2.0016
X5.6563Y-2.1016
X5.6563Y-2.2016
X5.6563Y-2.3016
X5.6563Y-2.4016
X5.6563Y-2.5016
X5.7325Y-2.7008
X5.7325Y-3.3008
X5.8325Y-2.7008
X5.8325Y-3.3008
X5.8906Y-3.7628
X5.8906Y-3.8628
X5.8906Y-3.9628
X5.8906Y-4.0628
X5.8906Y-4.1628
X5.8906Y-4.2628
X5.8906Y-4.3628
X5.8906Y-4.4628
X5.8906Y-4.5628
X5.8906Y-4.6628
X5.9325Y-2.7008
X5.9325Y-3.3008
X6.0108Y-1.9016
X6.0108Y-2.0016
X6.0108Y-2.1016
X6.0108Y-2.2016
X6.0108Y-2.3016
X6.0108Y-2.4016
X6.0108Y-2.5016
X6.0325Y-2.7008
X6.0325Y-3.3008
X6.2402Y-3.7707
X6.2402Y-3.8707
X6.2402Y-3.9707
X6.2402Y-4.0707
X6.2402Y-4.1707
X6.2402Y-4.2707
X6.2402Y-4.3707
X6.2402Y-4.4707
X6.2402Y-4.5707
X6.2402Y-4.6707
X6.3108Y-1.9016
X6.3108Y-2.0016
X6.3108Y-2.1016
X6.3108Y-2.2016
X6.3108Y-2.3016
X6.3108Y-2.4016
X6.3108Y-2.5016
X6.5236Y-2.4872
X6.5236Y-2.5872
X6.5236Y-2.6872
X6.5236Y-2.7872
X6.5236Y-2.8872
X6.5236Y-2.9872
X6.5236Y-3.0872
X6.5236Y-3.1872
X6.5236Y-3.2872
X6.5236Y-3.3872
X6.5374Y-1.6427
X6.5374Y-1.9427
X6.5402Y-3.7707
X6.5402Y-3.8707
X6.5402Y-3.9707
X6.5402Y-4.0707
X6.5402Y-4.1707
X6.5402Y-4.2707
X6.5402Y-4.3707
X6.5402Y-4.4707
X6.5402Y-4.5707
X6.5402Y-4.6707
T4
X2.8819Y-1.3907
X2.9819Y-1.3907
X3.1087Y-1.3907
X3.2087Y-1.3907
X3.3354Y-1.3907
X3.4354Y-1.3907
X3.5622Y-1.3907
X3.6622Y-1.3907
X3.789Y-1.3907
X3.889Y-1.3907
X4.0157Y-1.3907
X4.0354Y-2.4813
X4.1157Y-1.3907
X4.3354Y-2.4813
T5
X6.3317Y-1.3366
X6.5089Y-1.3366
T6
X2.9724Y-2.4055
X3.1693Y-2.4055
X3.626Y-3.6024
X3.7835Y-1.6535
X3.7835Y-1.8504
X3.8228Y-3.6024
X3.8618Y-4.9508
X3.8618Y-5.0508
X3.9618Y-4.9508
X3.9618Y-5.0508
X4.0618Y-4.9508
X4.0618Y-5.0508
X4.1618Y-4.9508
X4.1618Y-5.0508
X4.2598Y-3.622
X4.2618Y-4.9508
X4.2618Y-5.0508
X4.3465Y-1.4469
X4.3618Y-4.9508
X4.3618Y-5.0508
X4.4465Y-1.4469
X4.4567Y-3.622
X4.4618Y-4.9508
X4.4618Y-5.0508
X4.5465Y-1.4469
X4.5618Y-4.9508
X4.5618Y-5.0508
X4.6618Y-4.9508
X4.6618Y-5.0508
X4.7165Y-1.752
X4.7618Y-4.9508
X4.7618Y-5.0508
X4.8415Y-1.4394
X4.8415Y-1.5394
X4.8618Y-4.9508
X4.8618Y-5.0508
X4.9134Y-1.752
X4.9415Y-1.4394
X4.9415Y-1.5394
X4.9618Y-4.9508
X4.9618Y-5.0508
X5.0415Y-1.4394
X5.0415Y-1.5394
X5.0618Y-4.9508
X5.0618Y-5.0508
X5.1024Y-3.6339
X5.1415Y-1.4394
X5.1415Y-1.5394
X5.1618Y-4.9508
X5.1618Y-5.0508
X5.2618Y-4.9508
X5.2618Y-5.0508
X5.2992Y-3.6339
X5.3618Y-4.9508
X5.3618Y-5.0508
X5.4173Y-1.7047
X5.438Y-1.4547
X5.4618Y-4.9508
X5.4618Y-5.0508
X5.538Y-1.4547
X5.5618Y-4.9508
X5.5618Y-5.0508
X5.6142Y-1.7047
X5.638Y-1.4547
X5.6618Y-4.9508
X5.6618Y-5.0508
X5.7323Y-3.6378
X5.7618Y-4.9508
X5.7618Y-5.0508
X5.8618Y-4.9508
X5.8618Y-5.0508
X5.9291Y-3.6378
X5.9618Y-4.9508
X5.9618Y-5.0508
X6.0207Y-1.3258
X6.0618Y-4.9508
X6.0618Y-5.0508
X6.0787Y-1.7047
X6.0906Y-3.7874
X6.0906Y-3.9843
X6.1207Y-1.3258
X6.1618Y-4.9508
X6.1618Y-5.0508
X6.2618Y-4.9508
X6.2618Y-5.0508
X6.2756Y-1.7047
X6.3425Y-3.6299
X6.5394Y-3.6299
X6.5433Y-2.0866
X6.5433Y-2.2835
T7
X6.2825Y-1.4346
X6.5585Y-1.4346
T0
M30
