M48
; DRILL file {KiCad (6.0.6)} date Sun Sep 11 12:41:28 2022
; FORMAT={-:-/ absolute / inch / decimal}
; #@! TF.CreationDate,2022-09-11T12:41:28-05:00
; #@! TF.GenerationSoftware,Kicad,Pcbnew,(6.0.6)
; #@! TF.FileFunction,Plated,1,2,PTH
FMAT,2
INCH
; #@! TA.AperFunction,Plated,PTH,ViaDrill
T1C0.0157
; #@! TA.AperFunction,Plated,PTH,ComponentDrill
T2C0.0236
; #@! TA.AperFunction,Plated,PTH,ComponentDrill
T3C0.0315
; #@! TA.AperFunction,Plated,PTH,ComponentDrill
T4C0.0354
; #@! TA.AperFunction,Plated,PTH,ComponentDrill
T5C0.0390
; #@! TA.AperFunction,Plated,PTH,ComponentDrill
T6C0.0394
; #@! TA.AperFunction,Plated,PTH,ComponentDrill
T7C0.0512
%
G90
G05
T1
X2.946Y-4.1234
X3.4185Y-4.7234
X3.4532Y-2.6447
X3.456Y-1.5678
X3.4631Y-3.1602
X3.5045Y-1.5061
X3.6093Y-3.8948
X3.7047Y-2.0377
X3.7322Y-4.3524
X3.8943Y-3.5962
X3.9265Y-1.5044
X4.0175Y-1.5289
X4.1219Y-4.6217
X4.1223Y-3.5753
X4.1321Y-3.0455
X4.142Y-3.8284
X4.1486Y-4.6843
X4.3485Y-3.3778
X4.3509Y-4.5781
X4.392Y-2.1806
X4.4788Y-3.2213
X4.5569Y-3.5837
X4.5921Y-2.7647
X4.5996Y-2.9001
X4.6501Y-1.5007
X4.6706Y-2.9597
X4.6828Y-2.7741
X4.6852Y-4.4002
X4.7025Y-4.012
X4.7075Y-4.345
X4.7598Y-4.2733
X4.7796Y-4.1716
X4.7871Y-3.5974
X4.8371Y-3.4133
X4.9431Y-3.172
X5.0768Y-2.9009
X5.1809Y-2.0629
X5.2045Y-3.0931
X5.2133Y-1.8204
X5.2574Y-1.9295
X5.2662Y-1.8559
X5.3575Y-4.7636
X5.3603Y-3.0057
X5.3798Y-4.8061
X5.3826Y-4.1773
X5.4018Y-4.2138
X5.4239Y-4.4014
X5.4431Y-3.1478
X5.4453Y-3.0907
X5.4643Y-4.2628
X5.4725Y-4.5015
X5.5349Y-3.8197
X5.6385Y-3.0604
X5.6393Y-2.9614
X5.6744Y-4.2277
X5.6832Y-3.0457
X5.7085Y-4.6716
X5.7087Y-2.9614
X5.7155Y-3.0077
X5.7962Y-3.395
X5.8339Y-2.9846
X5.8894Y-3.4728
X5.9466Y-1.8505
X5.9724Y-1.563
X6.0456Y-3.8976
X6.0472Y-1.4882
X6.1098Y-2.9228
X6.1899Y-3.5803
X6.1942Y-4.422
X6.2185Y-3.528
X6.3693Y-3.7707
X6.4801Y-4.005
T2
X3.3712Y-4.9449
X3.4499Y-4.9449
X3.7885Y-2.2677
X3.8672Y-2.2677
X4.9636Y-3.4341
X4.9636Y-3.5128
X5.8012Y-1.6024
X5.8799Y-1.6024
X6.4409Y-4.9606
X6.5197Y-4.9606
T3
X2.8465Y-1.6171
X2.8465Y-1.7171
X2.8465Y-1.8171
X2.8465Y-1.9171
X2.8465Y-2.0171
X2.8465Y-2.1171
X2.8465Y-2.2171
X2.8583Y-2.5935
X2.8583Y-2.6935
X2.8583Y-2.7935
X2.8583Y-2.8935
X2.8583Y-2.9935
X2.8583Y-3.0935
X2.8583Y-3.1935
X2.8583Y-3.2935
X2.8602Y-3.9734
X2.8602Y-4.0734
X2.8602Y-4.1734
X2.8602Y-4.2734
X2.8602Y-4.3734
X2.8602Y-4.4734
X2.8602Y-4.5734
X2.8602Y-4.6734
X3.1465Y-1.6171
X3.1465Y-1.7171
X3.1465Y-1.8171
X3.1465Y-1.9171
X3.1465Y-2.0171
X3.1465Y-2.1171
X3.1465Y-2.2171
X3.1583Y-2.5935
X3.1583Y-2.6935
X3.1583Y-2.7935
X3.1583Y-2.8935
X3.1583Y-2.9935
X3.1583Y-3.0935
X3.1583Y-3.1935
X3.1583Y-3.2935
X3.1602Y-3.9734
X3.1602Y-4.0734
X3.1602Y-4.1734
X3.1602Y-4.2734
X3.1602Y-4.3734
X3.1602Y-4.4734
X3.1602Y-4.5734
X3.1602Y-4.6734
X3.3287Y-1.6122
X3.3287Y-1.7122
X3.3287Y-1.8122
X3.3287Y-1.9122
X3.3287Y-2.0122
X3.3287Y-2.1122
X3.3287Y-2.2122
X3.341Y-2.5199
X3.341Y-2.6199
X3.341Y-2.7199
X3.341Y-2.8199
X3.341Y-2.9199
X3.341Y-3.0199
X3.341Y-3.1199
X3.341Y-3.2199
X3.341Y-3.3199
X3.343Y-3.8998
X3.343Y-3.9998
X3.343Y-4.0998
X3.343Y-4.1998
X3.343Y-4.2998
X3.343Y-4.3998
X3.343Y-4.4998
X3.343Y-4.5998
X3.343Y-4.6998
X3.5492Y-3.7598
X3.5492Y-3.8598
X3.5492Y-3.9598
X3.5492Y-4.0598
X3.5492Y-4.1598
X3.5492Y-4.2598
X3.5492Y-4.3598
X3.5492Y-4.4598
X3.5492Y-4.5598
X3.5492Y-4.6598
X3.564Y-2.5157
X3.564Y-2.6157
X3.564Y-2.7157
X3.564Y-2.8157
X3.564Y-2.9157
X3.564Y-3.0157
X3.564Y-3.1157
X3.564Y-3.2157
X3.564Y-3.3157
X3.564Y-3.4157
X3.6287Y-1.6122
X3.6287Y-1.7122
X3.6287Y-1.8122
X3.6287Y-1.9122
X3.6287Y-2.0122
X3.6287Y-2.1122
X3.6287Y-2.2122
X3.8492Y-3.7598
X3.8492Y-3.8598
X3.8492Y-3.9598
X3.8492Y-4.0598
X3.8492Y-4.1598
X3.8492Y-4.2598
X3.8492Y-4.3598
X3.8492Y-4.4598
X3.8492Y-4.5598
X3.8492Y-4.6598
X3.864Y-2.5157
X3.864Y-2.6157
X3.864Y-2.7157
X3.864Y-2.8157
X3.864Y-2.9157
X3.864Y-3.0157
X3.864Y-3.1157
X3.864Y-3.2157
X3.864Y-3.3157
X3.864Y-3.4157
X3.9587Y-1.7732
X3.9587Y-2.0732
X4.0425Y-2.2569
X4.0497Y-3.7697
X4.0497Y-3.8697
X4.0497Y-3.9697
X4.0497Y-4.0697
X4.0497Y-4.1697
X4.0497Y-4.2697
X4.0497Y-4.3697
X4.0497Y-4.4697
X4.0497Y-4.5697
X4.0497Y-4.6697
X4.1004Y-1.7732
X4.1004Y-2.0732
X4.1325Y-2.7008
X4.1325Y-3.3008
X4.2325Y-2.7008
X4.2325Y-3.3008
X4.2421Y-1.7732
X4.2421Y-2.0732
X4.2795Y-3.7746
X4.2795Y-3.8746
X4.2795Y-3.9746
X4.2795Y-4.0746
X4.2795Y-4.1746
X4.2795Y-4.2746
X4.2795Y-4.3746
X4.2795Y-4.4746
X4.2795Y-4.5746
X4.2795Y-4.6746
X4.3325Y-2.7008
X4.3325Y-3.3008
X4.3425Y-2.2569
X4.3839Y-1.7732
X4.3839Y-2.0732
X4.4325Y-2.7008
X4.4325Y-3.3008
X4.4996Y-3.4685
X4.5187Y-2.2256
X4.5187Y-2.5256
X4.5256Y-1.7732
X4.5256Y-2.0732
X4.5325Y-2.7008
X4.5325Y-3.3008
X4.5795Y-3.7746
X4.5795Y-3.8746
X4.5795Y-3.9746
X4.5795Y-4.0746
X4.5795Y-4.1746
X4.5795Y-4.2746
X4.5795Y-4.3746
X4.5795Y-4.4746
X4.5795Y-4.5746
X4.5795Y-4.6746
X4.6325Y-2.7008
X4.6325Y-3.3008
X4.7087Y-1.9016
X4.7087Y-2.0016
X4.7087Y-2.1016
X4.7087Y-2.2016
X4.7087Y-2.3016
X4.7087Y-2.4016
X4.7087Y-2.5016
X4.7325Y-2.7008
X4.7325Y-3.3008
X4.7996Y-3.4685
X4.8325Y-2.7008
X4.8325Y-3.3008
X4.8701Y-3.7667
X4.8701Y-3.8667
X4.8701Y-3.9667
X4.8701Y-4.0667
X4.8701Y-4.1667
X4.8701Y-4.2667
X4.8701Y-4.3667
X4.8701Y-4.4667
X4.8701Y-4.5667
X4.8701Y-4.6667
X4.9325Y-2.7008
X4.9325Y-3.3008
X5.0087Y-1.9016
X5.0087Y-2.0016
X5.0087Y-2.1016
X5.0087Y-2.2016
X5.0087Y-2.3016
X5.0087Y-2.4016
X5.0087Y-2.5016
X5.0325Y-2.7008
X5.0325Y-3.3008
X5.1325Y-2.7008
X5.1325Y-3.3008
X5.1614Y-1.9803
X5.1614Y-2.2803
X5.1701Y-3.7667
X5.1701Y-3.8667
X5.1701Y-3.9667
X5.1701Y-4.0667
X5.1701Y-4.1667
X5.1701Y-4.2667
X5.1701Y-4.3667
X5.1701Y-4.4667
X5.1701Y-4.5667
X5.1701Y-4.6667
X5.2325Y-2.7008
X5.2325Y-3.3008
X5.3228Y-3.7667
X5.3228Y-3.8667
X5.3228Y-3.9667
X5.3228Y-4.0667
X5.3228Y-4.1667
X5.3228Y-4.2667
X5.3228Y-4.3667
X5.3228Y-4.4667
X5.3228Y-4.5667
X5.3228Y-4.6667
X5.3325Y-2.7008
X5.3325Y-3.3008
X5.3382Y-3.4803
X5.3563Y-1.9016
X5.3563Y-2.0016
X5.3563Y-2.1016
X5.3563Y-2.2016
X5.3563Y-2.3016
X5.3563Y-2.4016
X5.3563Y-2.5016
X5.4325Y-2.7008
X5.4325Y-3.3008
X5.5325Y-2.7008
X5.5325Y-3.3008
X5.5906Y-3.7628
X5.5906Y-3.8628
X5.5906Y-3.9628
X5.5906Y-4.0628
X5.5906Y-4.1628
X5.5906Y-4.2628
X5.5906Y-4.3628
X5.5906Y-4.4628
X5.5906Y-4.5628
X5.5906Y-4.6628
X5.6325Y-2.7008
X5.6325Y-3.3008
X5.6382Y-3.4803
X5.6563Y-1.9016
X5.6563Y-2.0016
X5.6563Y-2.1016
X5.6563Y-2.2016
X5.6563Y-2.3016
X5.6563Y-2.4016
X5.6563Y-2.5016
X5.7325Y-2.7008
X5.7325Y-3.3008
X5.7594Y-3.4803
X5.8228Y-2.0941
X5.8228Y-2.3941
X5.8325Y-2.7008
X5.8325Y-3.3008
X5.8906Y-3.7628
X5.8906Y-3.8628
X5.8906Y-3.9628
X5.8906Y-4.0628
X5.8906Y-4.1628
X5.8906Y-4.2628
X5.8906Y-4.3628
X5.8906Y-4.4628
X5.8906Y-4.5628
X5.8906Y-4.6628
X5.9325Y-2.7008
X5.9325Y-3.3008
X6.0108Y-1.9016
X6.0108Y-2.0016
X6.0108Y-2.1016
X6.0108Y-2.2016
X6.0108Y-2.3016
X6.0108Y-2.4016
X6.0108Y-2.5016
X6.0325Y-2.7008
X6.0325Y-3.3008
X6.0594Y-3.4803
X6.2244Y-2.7825
X6.2244Y-2.8825
X6.2244Y-2.9825
X6.2244Y-3.0825
X6.2244Y-3.1825
X6.2244Y-3.2825
X6.2244Y-3.3825
X6.2402Y-3.7707
X6.2402Y-3.8707
X6.2402Y-3.9707
X6.2402Y-4.0707
X6.2402Y-4.1707
X6.2402Y-4.2707
X6.2402Y-4.3707
X6.2402Y-4.4707
X6.2402Y-4.5707
X6.2402Y-4.6707
X6.3108Y-1.9016
X6.3108Y-2.0016
X6.3108Y-2.1016
X6.3108Y-2.2016
X6.3108Y-2.3016
X6.3108Y-2.4016
X6.3108Y-2.5016
X6.5244Y-2.7825
X6.5244Y-2.8825
X6.5244Y-2.9825
X6.5244Y-3.0825
X6.5244Y-3.1825
X6.5244Y-3.2825
X6.5244Y-3.3825
X6.5374Y-1.6427
X6.5374Y-1.9427
X6.5402Y-3.7707
X6.5402Y-3.8707
X6.5402Y-3.9707
X6.5402Y-4.0707
X6.5402Y-4.1707
X6.5402Y-4.2707
X6.5402Y-4.3707
X6.5402Y-4.4707
X6.5402Y-4.5707
X6.5402Y-4.6707
T4
X2.8819Y-1.3907
X2.9819Y-1.3907
X3.1087Y-1.3907
X3.2087Y-1.3907
X3.3354Y-1.3907
X3.4354Y-1.3907
X3.5622Y-1.3907
X3.6622Y-1.3907
X3.789Y-1.3907
X3.889Y-1.3907
X4.0157Y-1.3907
X4.0354Y-2.4813
X4.1157Y-1.3907
X4.3354Y-2.4813
T5
X6.3317Y-1.3366
X6.5089Y-1.3366
T6
X2.9724Y-2.4055
X3.1693Y-2.4055
X3.626Y-3.6024
X3.7835Y-1.6535
X3.7835Y-1.8504
X3.8228Y-3.6024
X3.8618Y-4.9508
X3.8618Y-5.0508
X3.9618Y-4.9508
X3.9618Y-5.0508
X4.0618Y-4.9508
X4.0618Y-5.0508
X4.1618Y-4.9508
X4.1618Y-5.0508
X4.2598Y-3.622
X4.2618Y-4.9508
X4.2618Y-5.0508
X4.3465Y-1.4469
X4.3618Y-4.9508
X4.3618Y-5.0508
X4.4465Y-1.4469
X4.4567Y-3.622
X4.4618Y-4.9508
X4.4618Y-5.0508
X4.5465Y-1.4469
X4.5618Y-4.9508
X4.5618Y-5.0508
X4.6618Y-4.9508
X4.6618Y-5.0508
X4.7165Y-1.752
X4.7618Y-4.9508
X4.7618Y-5.0508
X4.8415Y-1.4394
X4.8415Y-1.5394
X4.8618Y-4.9508
X4.8618Y-5.0508
X4.9134Y-1.752
X4.9415Y-1.4394
X4.9415Y-1.5394
X4.9618Y-4.9508
X4.9618Y-5.0508
X5.0415Y-1.4394
X5.0415Y-1.5394
X5.0618Y-4.9508
X5.0618Y-5.0508
X5.1024Y-3.6339
X5.1415Y-1.4394
X5.1415Y-1.5394
X5.1618Y-4.9508
X5.1618Y-5.0508
X5.2618Y-4.9508
X5.2618Y-5.0508
X5.2992Y-3.6339
X5.3618Y-4.9508
X5.3618Y-5.0508
X5.4173Y-1.7047
X5.438Y-1.4547
X5.4618Y-4.9508
X5.4618Y-5.0508
X5.538Y-1.4547
X5.5618Y-4.9508
X5.5618Y-5.0508
X5.6142Y-1.7047
X5.638Y-1.4547
X5.6618Y-4.9508
X5.6618Y-5.0508
X5.7323Y-3.6378
X5.7618Y-4.9508
X5.7618Y-5.0508
X5.8618Y-4.9508
X5.8618Y-5.0508
X5.9291Y-3.6378
X5.9618Y-4.9508
X5.9618Y-5.0508
X6.0207Y-1.3258
X6.0618Y-4.9508
X6.0618Y-5.0508
X6.0787Y-1.7047
X6.0906Y-3.7874
X6.0906Y-3.9843
X6.1207Y-1.3258
X6.1618Y-4.9508
X6.1618Y-5.0508
X6.2618Y-4.9508
X6.2618Y-5.0508
X6.2756Y-1.7047
X6.3425Y-3.6299
X6.5236Y-2.3819
X6.5236Y-2.5787
X6.5394Y-3.6299
T7
X6.2825Y-1.4346
X6.5585Y-1.4346
T0
M30
