G04 #@! TF.GenerationSoftware,KiCad,Pcbnew,(6.0.6)*
G04 #@! TF.CreationDate,2022-09-07T21:36:25-05:00*
G04 #@! TF.ProjectId,Z806809,5a383036-3830-4392-9e6b-696361645f70,rev?*
G04 #@! TF.SameCoordinates,Original*
G04 #@! TF.FileFunction,Soldermask,Top*
G04 #@! TF.FilePolarity,Negative*
%FSLAX46Y46*%
G04 Gerber Fmt 4.6, Leading zero omitted, Abs format (unit mm)*
G04 Created by KiCad (PCBNEW (6.0.6)) date 2022-09-07 21:36:25*
%MOMM*%
%LPD*%
G01*
G04 APERTURE LIST*
G04 Aperture macros list*
%AMRoundRect*
0 Rectangle with rounded corners*
0 $1 Rounding radius*
0 $2 $3 $4 $5 $6 $7 $8 $9 X,Y pos of 4 corners*
0 Add a 4 corners polygon primitive as box body*
4,1,4,$2,$3,$4,$5,$6,$7,$8,$9,$2,$3,0*
0 Add four circle primitives for the rounded corners*
1,1,$1+$1,$2,$3*
1,1,$1+$1,$4,$5*
1,1,$1+$1,$6,$7*
1,1,$1+$1,$8,$9*
0 Add four rect primitives between the rounded corners*
20,1,$1+$1,$2,$3,$4,$5,0*
20,1,$1+$1,$4,$5,$6,$7,0*
20,1,$1+$1,$6,$7,$8,$9,0*
20,1,$1+$1,$8,$9,$2,$3,0*%
G04 Aperture macros list end*
%ADD10RoundRect,0.051000X0.600000X0.600000X-0.600000X0.600000X-0.600000X-0.600000X0.600000X-0.600000X0*%
%ADD11C,1.302000*%
%ADD12RoundRect,0.051000X-0.900000X-0.900000X0.900000X-0.900000X0.900000X0.900000X-0.900000X0.900000X0*%
%ADD13O,1.902000X1.902000*%
%ADD14C,1.902000*%
%ADD15RoundRect,0.051000X0.850000X-0.850000X0.850000X0.850000X-0.850000X0.850000X-0.850000X-0.850000X0*%
%ADD16O,1.802000X1.802000*%
%ADD17C,1.702000*%
%ADD18O,1.702000X1.702000*%
%ADD19RoundRect,0.051000X0.800000X-0.800000X0.800000X0.800000X-0.800000X0.800000X-0.800000X-0.800000X0*%
%ADD20RoundRect,0.051000X-0.800000X-0.800000X0.800000X-0.800000X0.800000X0.800000X-0.800000X0.800000X0*%
%ADD21C,2.202000*%
%ADD22C,1.852000*%
%ADD23RoundRect,0.051000X-1.200000X-0.800000X1.200000X-0.800000X1.200000X0.800000X-1.200000X0.800000X0*%
%ADD24O,2.502000X1.702000*%
%ADD25C,2.102000*%
%ADD26RoundRect,0.051000X-0.850000X0.850000X-0.850000X-0.850000X0.850000X-0.850000X0.850000X0.850000X0*%
%ADD27RoundRect,0.051000X-0.600000X0.600000X-0.600000X-0.600000X0.600000X-0.600000X0.600000X0.600000X0*%
%ADD28RoundRect,0.051000X-0.800000X0.800000X-0.800000X-0.800000X0.800000X-0.800000X0.800000X0.800000X0*%
%ADD29RoundRect,0.051000X-0.600000X-0.600000X0.600000X-0.600000X0.600000X0.600000X-0.600000X0.600000X0*%
%ADD30RoundRect,0.051000X-0.800000X1.200000X-0.800000X-1.200000X0.800000X-1.200000X0.800000X1.200000X0*%
%ADD31O,1.702000X2.502000*%
G04 APERTURE END LIST*
D10*
X149350000Y-40700000D03*
D11*
X147350000Y-40700000D03*
D12*
X102500000Y-63025000D03*
D13*
X110120000Y-63025000D03*
D12*
X73200000Y-35325000D03*
D14*
X75740000Y-35325000D03*
D15*
X138125000Y-36950000D03*
D16*
X140665000Y-36950000D03*
X143205000Y-36950000D03*
D15*
X152925000Y-33675000D03*
D16*
X155465000Y-33675000D03*
D17*
X166050000Y-41725000D03*
D18*
X166050000Y-49345000D03*
D17*
X100550000Y-52660000D03*
D18*
X100550000Y-45040000D03*
D17*
X110300000Y-57325000D03*
D18*
X102680000Y-57325000D03*
D19*
X84912000Y-119375000D03*
D18*
X84912000Y-116835000D03*
X84912000Y-114295000D03*
X84912000Y-111755000D03*
X84912000Y-109215000D03*
X84912000Y-106675000D03*
X84912000Y-104135000D03*
X84912000Y-101595000D03*
X84912000Y-99055000D03*
D20*
X72650000Y-100925000D03*
D18*
X72650000Y-103465000D03*
X72650000Y-106005000D03*
X72650000Y-108545000D03*
X72650000Y-111085000D03*
X72650000Y-113625000D03*
X72650000Y-116165000D03*
X72650000Y-118705000D03*
X80270000Y-118705000D03*
X80270000Y-116165000D03*
X80270000Y-113625000D03*
X80270000Y-111085000D03*
X80270000Y-108545000D03*
X80270000Y-106005000D03*
X80270000Y-103465000D03*
X80270000Y-100925000D03*
D21*
X166585000Y-36440000D03*
X159575000Y-36440000D03*
D22*
X160825000Y-33950000D03*
X165325000Y-33950000D03*
D20*
X72600000Y-65875000D03*
D18*
X72600000Y-68415000D03*
X72600000Y-70955000D03*
X72600000Y-73495000D03*
X72600000Y-76035000D03*
X72600000Y-78575000D03*
X72600000Y-81115000D03*
X72600000Y-83655000D03*
X80220000Y-83655000D03*
X80220000Y-81115000D03*
X80220000Y-78575000D03*
X80220000Y-76035000D03*
X80220000Y-73495000D03*
X80220000Y-70955000D03*
X80220000Y-68415000D03*
X80220000Y-65875000D03*
D23*
X152675000Y-48300000D03*
D24*
X152675000Y-50840000D03*
X152675000Y-53380000D03*
X152675000Y-55920000D03*
X152675000Y-58460000D03*
X152675000Y-61000000D03*
X152675000Y-63540000D03*
X160295000Y-63540000D03*
X160295000Y-61000000D03*
X160295000Y-58460000D03*
X160295000Y-55920000D03*
X160295000Y-53380000D03*
X160295000Y-50840000D03*
X160295000Y-48300000D03*
D23*
X136050000Y-48300000D03*
D24*
X136050000Y-50840000D03*
X136050000Y-53380000D03*
X136050000Y-55920000D03*
X136050000Y-58460000D03*
X136050000Y-61000000D03*
X136050000Y-63540000D03*
X143670000Y-63540000D03*
X143670000Y-61000000D03*
X143670000Y-58460000D03*
X143670000Y-55920000D03*
X143670000Y-53380000D03*
X143670000Y-50840000D03*
X143670000Y-48300000D03*
D23*
X84550000Y-40950000D03*
D24*
X84550000Y-43490000D03*
X84550000Y-46030000D03*
X84550000Y-48570000D03*
X84550000Y-51110000D03*
X84550000Y-53650000D03*
X84550000Y-56190000D03*
X92170000Y-56190000D03*
X92170000Y-53650000D03*
X92170000Y-51110000D03*
X92170000Y-48570000D03*
X92170000Y-46030000D03*
X92170000Y-43490000D03*
X92170000Y-40950000D03*
D23*
X90525000Y-63900000D03*
D24*
X90525000Y-66440000D03*
X90525000Y-68980000D03*
X90525000Y-71520000D03*
X90525000Y-74060000D03*
X90525000Y-76600000D03*
X90525000Y-79140000D03*
X90525000Y-81680000D03*
X90525000Y-84220000D03*
X90525000Y-86760000D03*
X98145000Y-86760000D03*
X98145000Y-84220000D03*
X98145000Y-81680000D03*
X98145000Y-79140000D03*
X98145000Y-76600000D03*
X98145000Y-74060000D03*
X98145000Y-71520000D03*
X98145000Y-68980000D03*
X98145000Y-66440000D03*
X98145000Y-63900000D03*
D23*
X119600000Y-48300000D03*
D24*
X119600000Y-50840000D03*
X119600000Y-53380000D03*
X119600000Y-55920000D03*
X119600000Y-58460000D03*
X119600000Y-61000000D03*
X119600000Y-63540000D03*
X127220000Y-63540000D03*
X127220000Y-61000000D03*
X127220000Y-58460000D03*
X127220000Y-55920000D03*
X127220000Y-53380000D03*
X127220000Y-50840000D03*
X127220000Y-48300000D03*
D19*
X84862000Y-84325000D03*
D18*
X84862000Y-81785000D03*
X84862000Y-79245000D03*
X84862000Y-76705000D03*
X84862000Y-74165000D03*
X84862000Y-71625000D03*
X84862000Y-69085000D03*
X84862000Y-66545000D03*
X84862000Y-64005000D03*
D17*
X104150000Y-52660000D03*
D18*
X104150000Y-45040000D03*
D12*
X90480000Y-35325000D03*
D14*
X93020000Y-35325000D03*
D17*
X111350000Y-45040000D03*
D18*
X111350000Y-52660000D03*
D12*
X78960000Y-35325000D03*
D14*
X81500000Y-35325000D03*
D12*
X84720000Y-35325000D03*
D14*
X87260000Y-35325000D03*
D17*
X107750000Y-45040000D03*
D18*
X107750000Y-52660000D03*
D12*
X96240000Y-35325000D03*
D14*
X98780000Y-35325000D03*
D17*
X114950000Y-45040000D03*
D18*
X114950000Y-52660000D03*
D12*
X102000000Y-35325000D03*
D14*
X104540000Y-35325000D03*
D17*
X114775000Y-64150000D03*
D18*
X114775000Y-56530000D03*
D15*
X110400000Y-36750000D03*
D16*
X112940000Y-36750000D03*
X115480000Y-36750000D03*
D25*
X96100000Y-42000000D03*
X96100000Y-47000000D03*
D15*
X122975000Y-39100000D03*
D16*
X122975000Y-36560000D03*
X125515000Y-39100000D03*
X125515000Y-36560000D03*
X128055000Y-39100000D03*
X128055000Y-36560000D03*
X130595000Y-39100000D03*
X130595000Y-36560000D03*
D26*
X159050000Y-125750000D03*
D16*
X159050000Y-128290000D03*
X156510000Y-125750000D03*
X156510000Y-128290000D03*
X153970000Y-125750000D03*
X153970000Y-128290000D03*
X151430000Y-125750000D03*
X151430000Y-128290000D03*
X148890000Y-125750000D03*
X148890000Y-128290000D03*
X146350000Y-125750000D03*
X146350000Y-128290000D03*
X143810000Y-125750000D03*
X143810000Y-128290000D03*
X141270000Y-125750000D03*
X141270000Y-128290000D03*
X138730000Y-125750000D03*
X138730000Y-128290000D03*
X136190000Y-125750000D03*
X136190000Y-128290000D03*
X133650000Y-125750000D03*
X133650000Y-128290000D03*
X131110000Y-125750000D03*
X131110000Y-128290000D03*
X128570000Y-125750000D03*
X128570000Y-128290000D03*
X126030000Y-125750000D03*
X126030000Y-128290000D03*
X123490000Y-125750000D03*
X123490000Y-128290000D03*
X120950000Y-125750000D03*
X120950000Y-128290000D03*
X118410000Y-125750000D03*
X118410000Y-128290000D03*
X115870000Y-125750000D03*
X115870000Y-128290000D03*
X113330000Y-125750000D03*
X113330000Y-128290000D03*
X110790000Y-125750000D03*
X110790000Y-128290000D03*
X108250000Y-125750000D03*
X108250000Y-128290000D03*
X105710000Y-125750000D03*
X105710000Y-128290000D03*
X103170000Y-125750000D03*
X103170000Y-128290000D03*
X100630000Y-125750000D03*
X100630000Y-128290000D03*
X98090000Y-125750000D03*
X98090000Y-128290000D03*
D27*
X126075000Y-87225000D03*
D11*
X126075000Y-89225000D03*
D10*
X165600000Y-126000000D03*
D11*
X163600000Y-126000000D03*
D23*
X158500000Y-95775000D03*
D24*
X158500000Y-98315000D03*
X158500000Y-100855000D03*
X158500000Y-103395000D03*
X158500000Y-105935000D03*
X158500000Y-108475000D03*
X158500000Y-111015000D03*
X158500000Y-113555000D03*
X158500000Y-116095000D03*
X158500000Y-118635000D03*
X166120000Y-118635000D03*
X166120000Y-116095000D03*
X166120000Y-113555000D03*
X166120000Y-111015000D03*
X166120000Y-108475000D03*
X166120000Y-105935000D03*
X166120000Y-103395000D03*
X166120000Y-100855000D03*
X166120000Y-98315000D03*
X166120000Y-95775000D03*
D28*
X135200000Y-95675000D03*
D18*
X135200000Y-98215000D03*
X135200000Y-100755000D03*
X135200000Y-103295000D03*
X135200000Y-105835000D03*
X135200000Y-108375000D03*
X135200000Y-110915000D03*
X135200000Y-113455000D03*
X135200000Y-115995000D03*
X135200000Y-118535000D03*
D28*
X102862500Y-95750000D03*
D18*
X102862500Y-98290000D03*
X102862500Y-100830000D03*
X102862500Y-103370000D03*
X102862500Y-105910000D03*
X102862500Y-108450000D03*
X102862500Y-110990000D03*
X102862500Y-113530000D03*
X102862500Y-116070000D03*
X102862500Y-118610000D03*
D23*
X108700000Y-95875000D03*
D24*
X108700000Y-98415000D03*
X108700000Y-100955000D03*
X108700000Y-103495000D03*
X108700000Y-106035000D03*
X108700000Y-108575000D03*
X108700000Y-111115000D03*
X108700000Y-113655000D03*
X108700000Y-116195000D03*
X108700000Y-118735000D03*
X116320000Y-118735000D03*
X116320000Y-116195000D03*
X116320000Y-113655000D03*
X116320000Y-111115000D03*
X116320000Y-108575000D03*
X116320000Y-106035000D03*
X116320000Y-103495000D03*
X116320000Y-100955000D03*
X116320000Y-98415000D03*
X116320000Y-95875000D03*
D23*
X123700000Y-95675000D03*
D24*
X123700000Y-98215000D03*
X123700000Y-100755000D03*
X123700000Y-103295000D03*
X123700000Y-105835000D03*
X123700000Y-108375000D03*
X123700000Y-110915000D03*
X123700000Y-113455000D03*
X123700000Y-115995000D03*
X123700000Y-118535000D03*
X131320000Y-118535000D03*
X131320000Y-115995000D03*
X131320000Y-113455000D03*
X131320000Y-110915000D03*
X131320000Y-108375000D03*
X131320000Y-105835000D03*
X131320000Y-103295000D03*
X131320000Y-100755000D03*
X131320000Y-98215000D03*
X131320000Y-95675000D03*
D23*
X90150000Y-95500000D03*
D24*
X90150000Y-98040000D03*
X90150000Y-100580000D03*
X90150000Y-103120000D03*
X90150000Y-105660000D03*
X90150000Y-108200000D03*
X90150000Y-110740000D03*
X90150000Y-113280000D03*
X90150000Y-115820000D03*
X90150000Y-118360000D03*
X97770000Y-118360000D03*
X97770000Y-115820000D03*
X97770000Y-113280000D03*
X97770000Y-110740000D03*
X97770000Y-108200000D03*
X97770000Y-105660000D03*
X97770000Y-103120000D03*
X97770000Y-100580000D03*
X97770000Y-98040000D03*
X97770000Y-95500000D03*
D23*
X142000000Y-95575000D03*
D24*
X142000000Y-98115000D03*
X142000000Y-100655000D03*
X142000000Y-103195000D03*
X142000000Y-105735000D03*
X142000000Y-108275000D03*
X142000000Y-110815000D03*
X142000000Y-113355000D03*
X142000000Y-115895000D03*
X142000000Y-118435000D03*
X149620000Y-118435000D03*
X149620000Y-115895000D03*
X149620000Y-113355000D03*
X149620000Y-110815000D03*
X149620000Y-108275000D03*
X149620000Y-105735000D03*
X149620000Y-103195000D03*
X149620000Y-100655000D03*
X149620000Y-98115000D03*
X149620000Y-95575000D03*
D17*
X131100000Y-50300000D03*
D18*
X131100000Y-57920000D03*
D25*
X137600000Y-43300000D03*
X142600000Y-43300000D03*
D17*
X147900000Y-60810000D03*
D18*
X147900000Y-53190000D03*
D25*
X154700000Y-101200000D03*
X154700000Y-96200000D03*
X134600000Y-92300000D03*
X129600000Y-92300000D03*
X165700000Y-65500000D03*
X165700000Y-60500000D03*
X75500000Y-61100000D03*
X80500000Y-61100000D03*
X119800000Y-44500000D03*
X124800000Y-44500000D03*
X150600000Y-92400000D03*
X145600000Y-92400000D03*
D17*
X153910000Y-88400000D03*
D18*
X146290000Y-88400000D03*
D29*
X96227400Y-57600000D03*
D11*
X98227400Y-57600000D03*
D17*
X121910000Y-88100000D03*
D18*
X114290000Y-88100000D03*
D29*
X85627400Y-125600000D03*
D11*
X87627400Y-125600000D03*
D25*
X113200000Y-92000000D03*
X108200000Y-92000000D03*
X154400000Y-43300000D03*
X159400000Y-43300000D03*
D30*
X153225000Y-68600000D03*
D31*
X150685000Y-68600000D03*
X148145000Y-68600000D03*
X145605000Y-68600000D03*
X143065000Y-68600000D03*
X140525000Y-68600000D03*
X137985000Y-68600000D03*
X135445000Y-68600000D03*
X132905000Y-68600000D03*
X130365000Y-68600000D03*
X127825000Y-68600000D03*
X125285000Y-68600000D03*
X122745000Y-68600000D03*
X120205000Y-68600000D03*
X117665000Y-68600000D03*
X115125000Y-68600000D03*
X112585000Y-68600000D03*
X110045000Y-68600000D03*
X107505000Y-68600000D03*
X104965000Y-68600000D03*
X104965000Y-83840000D03*
X107505000Y-83840000D03*
X110045000Y-83840000D03*
X112585000Y-83840000D03*
X115125000Y-83840000D03*
X117665000Y-83840000D03*
X120205000Y-83840000D03*
X122745000Y-83840000D03*
X125285000Y-83840000D03*
X127825000Y-83840000D03*
X130365000Y-83840000D03*
X132905000Y-83840000D03*
X135445000Y-83840000D03*
X137985000Y-83840000D03*
X140525000Y-83840000D03*
X143065000Y-83840000D03*
X145605000Y-83840000D03*
X148145000Y-83840000D03*
X150685000Y-83840000D03*
X153225000Y-83840000D03*
D25*
X166100000Y-92200000D03*
X161100000Y-92200000D03*
X92100000Y-91500000D03*
X97100000Y-91500000D03*
D23*
X72300000Y-41075000D03*
D24*
X72300000Y-43615000D03*
X72300000Y-46155000D03*
X72300000Y-48695000D03*
X72300000Y-51235000D03*
X72300000Y-53775000D03*
X72300000Y-56315000D03*
X79920000Y-56315000D03*
X79920000Y-53775000D03*
X79920000Y-51235000D03*
X79920000Y-48695000D03*
X79920000Y-46155000D03*
X79920000Y-43615000D03*
X79920000Y-41075000D03*
D23*
X158100000Y-70675000D03*
D24*
X158100000Y-73215000D03*
X158100000Y-75755000D03*
X158100000Y-78295000D03*
X158100000Y-80835000D03*
X158100000Y-83375000D03*
X158100000Y-85915000D03*
X165720000Y-85915000D03*
X165720000Y-83375000D03*
X165720000Y-80835000D03*
X165720000Y-78295000D03*
X165720000Y-75755000D03*
X165720000Y-73215000D03*
X165720000Y-70675000D03*
D17*
X135590000Y-88400000D03*
D18*
X143210000Y-88400000D03*
M02*
