M48
; DRILL file {KiCad (6.0.6)} date Sat Aug 13 14:35:23 2022
; FORMAT={-:-/ absolute / inch / decimal}
; #@! TF.CreationDate,2022-08-13T14:35:23-05:00
; #@! TF.GenerationSoftware,Kicad,Pcbnew,(6.0.6)
; #@! TF.FileFunction,Plated,1,2,PTH
FMAT,2
INCH
; #@! TA.AperFunction,Plated,PTH,ViaDrill
T1C0.0157
; #@! TA.AperFunction,Plated,PTH,ComponentDrill
T2C0.0236
; #@! TA.AperFunction,Plated,PTH,ComponentDrill
T3C0.0315
; #@! TA.AperFunction,Plated,PTH,ComponentDrill
T4C0.0354
; #@! TA.AperFunction,Plated,PTH,ComponentDrill
T5C0.0390
; #@! TA.AperFunction,Plated,PTH,ComponentDrill
T6C0.0394
; #@! TA.AperFunction,Plated,PTH,ComponentDrill
T7C0.0512
%
G90
G05
T1
X2.8307Y-1.2756
X3.4455Y-3.3362
X3.6534Y-2.9924
X3.6658Y-3.299
X3.7057Y-2.8925
X3.7191Y-2.7278
X3.7342Y-2.0622
X3.7342Y-3.1645
X3.7744Y-2.9078
X3.8694Y-1.5381
X3.9082Y-3.5502
X4.0265Y-3.275
X4.0581Y-3.6463
X4.0846Y-2.9938
X4.1018Y-3.07
X4.1279Y-4.2979
X4.149Y-3.4409
X4.1613Y-2.8967
X4.1774Y-3.1754
X4.1808Y-2.9339
X4.1994Y-3.0932
X4.2488Y-2.9379
X4.284Y-3.1907
X4.3344Y-4.7469
X4.5105Y-4.8883
X4.5725Y-3.1125
X4.678Y-3.7266
X4.6996Y-4.2173
X4.7194Y-4.9015
X4.7413Y-4.7498
X4.7877Y-4.7509
X4.7932Y-4.2934
X4.8067Y-4.4503
X4.8248Y-4.9058
X4.8823Y-3.8381
X4.8871Y-4.8721
X4.8887Y-3.7117
X4.9115Y-3.8867
X4.9205Y-3.9781
X4.9319Y-4.8753
X4.9321Y-3.6988
X4.9533Y-4.841
X5.0509Y-3.6997
X5.1004Y-3.1572
X5.1085Y-4.8719
X5.1143Y-4.8242
X5.1284Y-2.1728
X5.1381Y-3.9545
X5.1618Y-2.7918
X5.1768Y-3.2485
X5.1811Y-2.0833
X5.1851Y-4.1428
X5.2058Y-3.9866
X5.2388Y-3.8361
X5.2911Y-3.5403
X5.3989Y-4.5717
X5.4068Y-3.5798
X5.4308Y-3.8169
X5.4574Y-4.7707
X5.46Y-4.1548
X5.4759Y-2.9923
X5.5243Y-3.656
X5.5324Y-4.3498
X5.5439Y-2.939
X5.5473Y-4.2655
X5.5629Y-4.5311
X5.5653Y-4.3094
X5.6728Y-4.1173
X5.7641Y-3.3651
X5.7668Y-4.4376
X5.8047Y-2.9432
X5.8712Y-3.1176
X5.9826Y-2.8845
X6.0692Y-2.8832
X6.0977Y-2.766
X6.0997Y-4.7742
X6.1131Y-4.893
X6.13Y-2.9382
X6.1735Y-2.9071
X6.1838Y-4.7251
X6.2077Y-3.2549
X6.2232Y-3.1681
X6.2677Y-3.0709
X6.3224Y-2.8554
X6.3413Y-3.0642
X6.4525Y-3.4611
T2
X3.3712Y-4.9449
X3.4499Y-4.9449
X3.7885Y-2.2677
X3.8672Y-2.2677
X4.9636Y-3.4341
X4.9636Y-3.5128
X5.8012Y-1.6024
X5.8799Y-1.6024
X6.4409Y-4.9606
X6.5197Y-4.9606
T3
X2.8465Y-1.6171
X2.8465Y-1.7171
X2.8465Y-1.8171
X2.8465Y-1.9171
X2.8465Y-2.0171
X2.8465Y-2.1171
X2.8465Y-2.2171
X2.8583Y-2.5935
X2.8583Y-2.6935
X2.8583Y-2.7935
X2.8583Y-2.8935
X2.8583Y-2.9935
X2.8583Y-3.0935
X2.8583Y-3.1935
X2.8583Y-3.2935
X2.8602Y-3.9734
X2.8602Y-4.0734
X2.8602Y-4.1734
X2.8602Y-4.2734
X2.8602Y-4.3734
X2.8602Y-4.4734
X2.8602Y-4.5734
X2.8602Y-4.6734
X3.1465Y-1.6171
X3.1465Y-1.7171
X3.1465Y-1.8171
X3.1465Y-1.9171
X3.1465Y-2.0171
X3.1465Y-2.1171
X3.1465Y-2.2171
X3.1583Y-2.5935
X3.1583Y-2.6935
X3.1583Y-2.7935
X3.1583Y-2.8935
X3.1583Y-2.9935
X3.1583Y-3.0935
X3.1583Y-3.1935
X3.1583Y-3.2935
X3.1602Y-3.9734
X3.1602Y-4.0734
X3.1602Y-4.1734
X3.1602Y-4.2734
X3.1602Y-4.3734
X3.1602Y-4.4734
X3.1602Y-4.5734
X3.1602Y-4.6734
X3.3287Y-1.6122
X3.3287Y-1.7122
X3.3287Y-1.8122
X3.3287Y-1.9122
X3.3287Y-2.0122
X3.3287Y-2.1122
X3.3287Y-2.2122
X3.341Y-2.5199
X3.341Y-2.6199
X3.341Y-2.7199
X3.341Y-2.8199
X3.341Y-2.9199
X3.341Y-3.0199
X3.341Y-3.1199
X3.341Y-3.2199
X3.341Y-3.3199
X3.343Y-3.8998
X3.343Y-3.9998
X3.343Y-4.0998
X3.343Y-4.1998
X3.343Y-4.2998
X3.343Y-4.3998
X3.343Y-4.4998
X3.343Y-4.5998
X3.343Y-4.6998
X3.5492Y-3.7598
X3.5492Y-3.8598
X3.5492Y-3.9598
X3.5492Y-4.0598
X3.5492Y-4.1598
X3.5492Y-4.2598
X3.5492Y-4.3598
X3.5492Y-4.4598
X3.5492Y-4.5598
X3.5492Y-4.6598
X3.564Y-2.5157
X3.564Y-2.6157
X3.564Y-2.7157
X3.564Y-2.8157
X3.564Y-2.9157
X3.564Y-3.0157
X3.564Y-3.1157
X3.564Y-3.2157
X3.564Y-3.3157
X3.564Y-3.4157
X3.6287Y-1.6122
X3.6287Y-1.7122
X3.6287Y-1.8122
X3.6287Y-1.9122
X3.6287Y-2.0122
X3.6287Y-2.1122
X3.6287Y-2.2122
X3.8492Y-3.7598
X3.8492Y-3.8598
X3.8492Y-3.9598
X3.8492Y-4.0598
X3.8492Y-4.1598
X3.8492Y-4.2598
X3.8492Y-4.3598
X3.8492Y-4.4598
X3.8492Y-4.5598
X3.8492Y-4.6598
X3.864Y-2.5157
X3.864Y-2.6157
X3.864Y-2.7157
X3.864Y-2.8157
X3.864Y-2.9157
X3.864Y-3.0157
X3.864Y-3.1157
X3.864Y-3.2157
X3.864Y-3.3157
X3.864Y-3.4157
X3.9587Y-1.7732
X3.9587Y-2.0732
X4.0425Y-2.2569
X4.0497Y-3.7697
X4.0497Y-3.8697
X4.0497Y-3.9697
X4.0497Y-4.0697
X4.0497Y-4.1697
X4.0497Y-4.2697
X4.0497Y-4.3697
X4.0497Y-4.4697
X4.0497Y-4.5697
X4.0497Y-4.6697
X4.1004Y-1.7732
X4.1004Y-2.0732
X4.1325Y-2.7008
X4.1325Y-3.3008
X4.2325Y-2.7008
X4.2325Y-3.3008
X4.2421Y-1.7732
X4.2421Y-2.0732
X4.2539Y-3.7707
X4.2539Y-3.8707
X4.2539Y-3.9707
X4.2539Y-4.0707
X4.2539Y-4.1707
X4.2539Y-4.2707
X4.2539Y-4.3707
X4.2539Y-4.4707
X4.2539Y-4.5707
X4.2539Y-4.6707
X4.3325Y-2.7008
X4.3325Y-3.3008
X4.3425Y-2.2569
X4.3839Y-1.7732
X4.3839Y-2.0732
X4.4325Y-2.7008
X4.4325Y-3.3008
X4.4996Y-3.4685
X4.5187Y-2.2256
X4.5187Y-2.5256
X4.5256Y-1.7732
X4.5256Y-2.0732
X4.5325Y-2.7008
X4.5325Y-3.3008
X4.5539Y-3.7707
X4.5539Y-3.8707
X4.5539Y-3.9707
X4.5539Y-4.0707
X4.5539Y-4.1707
X4.5539Y-4.2707
X4.5539Y-4.3707
X4.5539Y-4.4707
X4.5539Y-4.5707
X4.5539Y-4.6707
X4.6325Y-2.7008
X4.6325Y-3.3008
X4.7087Y-1.9016
X4.7087Y-2.0016
X4.7087Y-2.1016
X4.7087Y-2.2016
X4.7087Y-2.3016
X4.7087Y-2.4016
X4.7087Y-2.5016
X4.7325Y-2.7008
X4.7325Y-3.3008
X4.7362Y-3.7736
X4.7362Y-3.8736
X4.7362Y-3.9736
X4.7362Y-4.0736
X4.7362Y-4.1736
X4.7362Y-4.2736
X4.7362Y-4.3736
X4.7362Y-4.4736
X4.7362Y-4.5736
X4.7362Y-4.6736
X4.7996Y-3.4685
X4.8325Y-2.7008
X4.8325Y-3.3008
X4.9325Y-2.7008
X4.9325Y-3.3008
X5.0016Y-3.7726
X5.0016Y-3.8726
X5.0016Y-3.9726
X5.0016Y-4.0726
X5.0016Y-4.1726
X5.0016Y-4.2726
X5.0016Y-4.3726
X5.0016Y-4.4726
X5.0016Y-4.5726
X5.0016Y-4.6726
X5.0087Y-1.9016
X5.0087Y-2.0016
X5.0087Y-2.1016
X5.0087Y-2.2016
X5.0087Y-2.3016
X5.0087Y-2.4016
X5.0087Y-2.5016
X5.0325Y-2.7008
X5.0325Y-3.3008
X5.1325Y-2.7008
X5.1325Y-3.3008
X5.1614Y-1.9803
X5.1614Y-2.2803
X5.2325Y-2.7008
X5.2325Y-3.3008
X5.3016Y-3.7726
X5.3016Y-3.8726
X5.3016Y-3.9726
X5.3016Y-4.0726
X5.3016Y-4.1726
X5.3016Y-4.2726
X5.3016Y-4.3726
X5.3016Y-4.4726
X5.3016Y-4.5726
X5.3016Y-4.6726
X5.3325Y-2.7008
X5.3325Y-3.3008
X5.3382Y-3.4803
X5.3563Y-1.9016
X5.3563Y-2.0016
X5.3563Y-2.1016
X5.3563Y-2.2016
X5.3563Y-2.3016
X5.3563Y-2.4016
X5.3563Y-2.5016
X5.4325Y-2.7008
X5.4325Y-3.3008
X5.5325Y-2.7008
X5.5325Y-3.3008
X5.6224Y-3.7717
X5.6224Y-3.8717
X5.6224Y-3.9717
X5.6224Y-4.0717
X5.6224Y-4.1717
X5.6224Y-4.2717
X5.6224Y-4.3717
X5.6224Y-4.4717
X5.6224Y-4.5717
X5.6224Y-4.6717
X5.6325Y-2.7008
X5.6325Y-3.3008
X5.6382Y-3.4803
X5.6563Y-1.9016
X5.6563Y-2.0016
X5.6563Y-2.1016
X5.6563Y-2.2016
X5.6563Y-2.3016
X5.6563Y-2.4016
X5.6563Y-2.5016
X5.7325Y-2.7008
X5.7325Y-3.3008
X5.7594Y-3.4803
X5.8228Y-2.0941
X5.8228Y-2.3941
X5.8325Y-2.7008
X5.8325Y-3.3008
X5.9224Y-3.7717
X5.9224Y-3.8717
X5.9224Y-3.9717
X5.9224Y-4.0717
X5.9224Y-4.1717
X5.9224Y-4.2717
X5.9224Y-4.3717
X5.9224Y-4.4717
X5.9224Y-4.5717
X5.9224Y-4.6717
X5.9325Y-2.7008
X5.9325Y-3.3008
X6.0108Y-1.9016
X6.0108Y-2.0016
X6.0108Y-2.1016
X6.0108Y-2.2016
X6.0108Y-2.3016
X6.0108Y-2.4016
X6.0108Y-2.5016
X6.0325Y-2.7008
X6.0325Y-3.3008
X6.0594Y-3.4803
X6.2431Y-3.7815
X6.2431Y-3.8815
X6.2431Y-3.9815
X6.2431Y-4.0815
X6.2431Y-4.1815
X6.2431Y-4.2815
X6.2431Y-4.3815
X6.2431Y-4.4815
X6.2431Y-4.5815
X6.2431Y-4.6815
X6.3108Y-1.9016
X6.3108Y-2.0016
X6.3108Y-2.1016
X6.3108Y-2.2016
X6.3108Y-2.3016
X6.3108Y-2.4016
X6.3108Y-2.5016
X6.5374Y-1.6427
X6.5374Y-1.9427
X6.5431Y-3.7815
X6.5431Y-3.8815
X6.5431Y-3.9815
X6.5431Y-4.0815
X6.5431Y-4.1815
X6.5431Y-4.2815
X6.5431Y-4.3815
X6.5431Y-4.4815
X6.5431Y-4.5815
X6.5431Y-4.6815
T4
X2.8819Y-1.3907
X2.9819Y-1.3907
X3.1087Y-1.3907
X3.2087Y-1.3907
X3.3354Y-1.3907
X3.4354Y-1.3907
X3.5622Y-1.3907
X3.6622Y-1.3907
X3.789Y-1.3907
X3.889Y-1.3907
X4.0157Y-1.3907
X4.0354Y-2.4813
X4.1157Y-1.3907
X4.3354Y-2.4813
T5
X6.3317Y-1.3366
X6.5089Y-1.3366
T6
X2.9724Y-2.4055
X3.1693Y-2.4055
X3.626Y-3.6024
X3.7835Y-1.6535
X3.7835Y-1.8504
X3.8228Y-3.6024
X3.8618Y-4.9508
X3.8618Y-5.0508
X3.9618Y-4.9508
X3.9618Y-5.0508
X4.0618Y-4.9508
X4.0618Y-5.0508
X4.1618Y-4.9508
X4.1618Y-5.0508
X4.2598Y-3.622
X4.2618Y-4.9508
X4.2618Y-5.0508
X4.3465Y-1.4469
X4.3618Y-4.9508
X4.3618Y-5.0508
X4.4465Y-1.4469
X4.4567Y-3.622
X4.4618Y-4.9508
X4.4618Y-5.0508
X4.5465Y-1.4469
X4.5618Y-4.9508
X4.5618Y-5.0508
X4.6618Y-4.9508
X4.6618Y-5.0508
X4.7165Y-1.752
X4.7618Y-4.9508
X4.7618Y-5.0508
X4.8415Y-1.4394
X4.8415Y-1.5394
X4.8618Y-4.9508
X4.8618Y-5.0508
X4.9134Y-1.752
X4.9415Y-1.4394
X4.9415Y-1.5394
X4.9618Y-4.9508
X4.9618Y-5.0508
X5.0415Y-1.4394
X5.0415Y-1.5394
X5.0618Y-4.9508
X5.0618Y-5.0508
X5.1024Y-3.6339
X5.1415Y-1.4394
X5.1415Y-1.5394
X5.1618Y-4.9508
X5.1618Y-5.0508
X5.2618Y-4.9508
X5.2618Y-5.0508
X5.2992Y-3.6339
X5.3618Y-4.9508
X5.3618Y-5.0508
X5.4173Y-1.7047
X5.438Y-1.4547
X5.4618Y-4.9508
X5.4618Y-5.0508
X5.538Y-1.4547
X5.5618Y-4.9508
X5.5618Y-5.0508
X5.6142Y-1.7047
X5.638Y-1.4547
X5.6618Y-4.9508
X5.6618Y-5.0508
X5.7323Y-3.6378
X5.7618Y-4.9508
X5.7618Y-5.0508
X5.8618Y-4.9508
X5.8618Y-5.0508
X5.9291Y-3.6378
X5.9618Y-4.9508
X5.9618Y-5.0508
X6.0207Y-1.3258
X6.0618Y-4.9508
X6.0618Y-5.0508
X6.0787Y-1.7047
X6.1207Y-1.3258
X6.1618Y-4.9508
X6.1618Y-5.0508
X6.2618Y-4.9508
X6.2618Y-5.0508
X6.2756Y-1.7047
X6.3425Y-3.6299
X6.5236Y-2.3819
X6.5236Y-2.5787
X6.5394Y-3.6299
T7
X6.2825Y-1.4346
X6.5585Y-1.4346
T0
M30
