M48
; DRILL file {KiCad (5.1.5)-3} date 11/11/2021 11:39:44 AM
; FORMAT={-:-/ absolute / inch / decimal}
; #@! TF.CreationDate,2021-11-11T11:39:44-06:00
; #@! TF.GenerationSoftware,Kicad,Pcbnew,(5.1.5)-3
; #@! TF.FileFunction,Plated,1,2,PTH
FMAT,2
INCH
T1C0.0157
T2C0.0236
T3C0.0315
T4C0.0354
T5C0.0390
T6C0.0394
T7C0.0512
%
G90
G05
T1
X2.924Y-4.3721
X3.2171Y-2.3896
X3.2906Y-3.8282
X3.7127Y-1.8307
X3.9134Y-1.4764
X3.9515Y-3.9404
X3.9852Y-3.1771
X4.0016Y-1.7938
X4.0241Y-2.1484
X4.0355Y-4.1817
X4.0451Y-4.0484
X4.0666Y-2.7936
X4.071Y-2.6744
X4.0767Y-1.4764
X4.1085Y-3.3924
X4.1232Y-1.701
X4.1604Y-3.5411
X4.1678Y-1.9314
X4.2538Y-4.228
X4.3302Y-2.7695
X4.3307Y-3.0842
X4.3426Y-2.6926
X4.3512Y-3.2912
X4.3559Y-3.4503
X4.3616Y-2.3196
X4.3936Y-2.7502
X4.3962Y-2.2837
X4.4045Y-2.8281
X4.4068Y-2.4673
X4.4181Y-1.4217
X4.421Y-2.9101
X4.4422Y-2.117
X4.4515Y-2.8293
X4.4518Y-4.6781
X4.4588Y-2.7759
X4.4604Y-2.0432
X4.4715Y-2.4003
X4.4948Y-3.1493
X4.4991Y-2.1861
X4.5276Y-3.0663
X4.5284Y-3.7254
X4.5535Y-2.1088
X4.5573Y-2.6765
X4.596Y-2.467
X4.6004Y-2.3313
X4.6125Y-2.9376
X4.613Y-2.8411
X4.6226Y-3.3593
X4.6553Y-3.4415
X4.6567Y-3.1493
X4.6652Y-1.9455
X4.6665Y-1.8371
X4.686Y-3.1968
X4.6992Y-2.2536
X4.7234Y-3.0663
X4.7302Y-1.8543
X4.7327Y-2.3645
X4.738Y-2.3251
X4.7667Y-2.2982
X4.7686Y-3.2881
X4.782Y-2.5497
X4.783Y-2.0394
X4.7956Y-2.7785
X4.7965Y-3.3766
X4.797Y-3.9858
X4.8446Y-4.072
X4.8739Y-4.0432
X4.9262Y-4.1712
X4.937Y-3.5519
X4.9406Y-1.4824
X4.947Y-2.5766
X4.9586Y-2.7755
X4.9593Y-2.4064
X4.9692Y-1.806
X4.9739Y-1.5761
X4.9751Y-2.2717
X4.9764Y-3.5491
X4.9833Y-1.8904
X4.9926Y-3.1772
X4.9982Y-2.3255
X5.0022Y-1.8537
X5.0035Y-1.6752
X5.0035Y-1.7688
X5.0036Y-2.2138
X5.0356Y-1.7207
X5.0369Y-2.1167
X5.0395Y-4.0052
X5.0471Y-4.2996
X5.0628Y-2.2833
X5.073Y-2.0969
X5.0752Y-3.1073
X5.0806Y-2.3408
X5.0854Y-3.2644
X5.0902Y-2.7536
X5.092Y-1.4368
X5.1044Y-1.5042
X5.1137Y-1.8847
X5.1139Y-3.8208
X5.1151Y-2.7103
X5.126Y-1.804
X5.1269Y-2.4277
X5.1768Y-3.6201
X5.1768Y-3.9466
X5.1916Y-4.0625
X5.2155Y-2.3368
X5.2172Y-1.5374
X5.2203Y-4.0352
X5.2218Y-1.4385
X5.2262Y-1.805
X5.2293Y-3.7875
X5.2323Y-3.5248
X5.2422Y-3.1862
X5.245Y-2.6091
X5.2895Y-1.6283
X5.3038Y-1.5625
X5.3106Y-2.4728
X5.3207Y-3.6019
X5.3207Y-3.8428
X5.3437Y-3.2796
X5.3482Y-1.618
X5.3556Y-3.0501
X5.3609Y-1.5642
X5.3627Y-2.6639
X5.3863Y-2.5029
X5.3885Y-2.414
X5.4002Y-3.721
X5.4143Y-2.1016
X5.4228Y-1.5076
X5.4231Y-2.8145
X5.4274Y-2.7051
X5.4297Y-1.9382
X5.4486Y-2.3722
X5.4554Y-2.4669
X5.4606Y-2.1535
X5.5002Y-1.5565
X5.5002Y-3.353
X5.5253Y-2.4381
X5.5298Y-1.9331
X5.5327Y-2.5398
X5.5379Y-1.6077
X5.5929Y-1.5887
X5.5994Y-3.6186
X5.6002Y-3.408
X5.6324Y-1.8761
X5.636Y-3.7848
X5.6369Y-1.479
X5.6477Y-2.6944
X5.6787Y-2.1834
X5.7216Y-1.5394
X5.7369Y-2.0694
X5.765Y-3.4299
X5.7655Y-2.216
X5.7819Y-1.8697
X5.7943Y-3.7206
X5.8141Y-3.5677
X5.8264Y-2.5029
X5.8386Y-4.0595
X5.8395Y-1.8009
X5.8399Y-3.3627
X5.8511Y-1.8623
X5.863Y-4.5283
X5.8856Y-2.1934
X5.8869Y-2.154
X5.8876Y-3.6967
X5.9196Y-3.5767
X5.9196Y-3.814
X5.9295Y-4.1753
X5.9417Y-2.6648
X5.9458Y-3.4187
X5.9502Y-2.747
X5.953Y-1.618
X5.9559Y-3.345
X5.9579Y-2.426
X5.9781Y-2.4848
X5.9995Y-3.3164
X6.0003Y-2.2103
X6.0235Y-2.4257
X6.0289Y-1.9234
X6.0316Y-2.1851
X6.0322Y-2.8382
X6.0423Y-4.5283
X6.0445Y-2.9546
X6.0465Y-3.3222
X6.0551Y-2.7115
X6.0644Y-2.8028
X6.068Y-2.5134
X6.0918Y-3.6338
X6.0946Y-3.6749
X6.0987Y-1.8309
X6.1141Y-3.3222
X6.1395Y-2.7991
X6.1473Y-2.2469
X6.166Y-3.7317
X6.1785Y-3.2832
X6.1987Y-3.058
X6.2073Y-3.8098
X6.2086Y-2.4361
X6.2277Y-3.6418
X6.2462Y-1.7833
X6.2484Y-2.4388
X6.2639Y-3.3861
X6.2707Y-2.6999
X6.2899Y-2.25
X6.2977Y-2.6117
X6.3088Y-2.5213
X6.3101Y-2.6852
X6.3106Y-1.7026
X6.3186Y-2.282
X6.3389Y-3.311
X6.3405Y-1.6526
X6.3407Y-3.0491
X6.3583Y-4.2526
X6.3655Y-3.0922
X6.4735Y-3.0068
X6.5127Y-4.2231
X6.5182Y-1.6812
T2
X6.4715Y-1.4291
X6.4715Y-1.5079
X3.1112Y-1.9833
X3.1112Y-2.062
X6.436Y-4.622
X6.436Y-4.7008
T3
X3.4459Y-2.3058
X3.4459Y-2.6058
X3.5459Y-2.3058
X3.5459Y-2.6058
X3.6459Y-2.3058
X3.6459Y-2.6058
X3.7459Y-2.3058
X3.7459Y-2.6058
X3.8459Y-2.3058
X3.8459Y-2.6058
X3.9459Y-2.3058
X3.9459Y-2.6058
X4.0459Y-2.3058
X4.0459Y-2.6058
X5.438Y-4.7925
X5.438Y-5.0925
X5.538Y-4.7925
X5.538Y-5.0925
X5.638Y-4.7925
X5.638Y-5.0925
X5.738Y-4.7925
X5.738Y-5.0925
X5.838Y-4.7925
X5.838Y-5.0925
X5.938Y-4.7925
X5.938Y-5.0925
X6.038Y-4.7925
X6.038Y-5.0925
X6.138Y-4.7925
X6.138Y-5.0925
X3.2413Y-4.7815
X3.5413Y-4.7815
X4.1124Y-3.6183
X4.1124Y-3.9183
X4.2124Y-3.6183
X4.2124Y-3.9183
X4.3124Y-3.6183
X4.3124Y-3.9183
X4.4124Y-3.6183
X4.4124Y-3.9183
X4.5124Y-3.6183
X4.5124Y-3.9183
X4.6124Y-3.6183
X4.6124Y-3.9183
X4.7124Y-3.6183
X4.7124Y-3.9183
X3.6902Y-3.4341
X3.9902Y-3.4341
X5.3644Y-4.6098
X5.4644Y-4.6098
X5.5644Y-4.6098
X5.6644Y-4.6098
X5.7644Y-4.6098
X5.8644Y-4.6098
X5.9644Y-4.6098
X6.0644Y-4.6098
X6.1644Y-4.6098
X3.4459Y-1.6626
X3.4459Y-1.9626
X3.5459Y-1.6626
X3.5459Y-1.9626
X3.6459Y-1.6626
X3.6459Y-1.9626
X3.7459Y-1.6626
X3.7459Y-1.9626
X3.8459Y-1.6626
X3.8459Y-1.9626
X3.9459Y-1.6626
X3.9459Y-1.9626
X4.0459Y-1.6626
X4.0459Y-1.9626
X3.2589Y-3.4272
X3.5589Y-3.4272
X3.2549Y-3.5689
X3.5549Y-3.5689
X3.9754Y-4.7925
X3.9754Y-5.0925
X4.0754Y-4.7925
X4.0754Y-5.0925
X4.1754Y-4.7925
X4.1754Y-5.0925
X4.2754Y-4.7925
X4.2754Y-5.0925
X4.3754Y-4.7925
X4.3754Y-5.0925
X4.4754Y-4.7925
X4.4754Y-5.0925
X4.5754Y-4.7925
X4.5754Y-5.0925
X4.6754Y-4.7925
X4.6754Y-5.0925
X3.9018Y-4.6098
X4.0018Y-4.6098
X4.1018Y-4.6098
X4.2018Y-4.6098
X4.3018Y-4.6098
X4.4018Y-4.6098
X4.5018Y-4.6098
X4.6018Y-4.6098
X4.7018Y-4.6098
X5.2844Y-4.1085
X5.2844Y-4.4085
X5.3844Y-4.1085
X5.3844Y-4.4085
X5.4844Y-4.1085
X5.4844Y-4.4085
X5.5844Y-4.1085
X5.5844Y-4.4085
X5.6844Y-4.1085
X5.6844Y-4.4085
X5.7844Y-4.1085
X5.7844Y-4.4085
X5.8844Y-4.1085
X5.8844Y-4.4085
X5.9844Y-4.1085
X5.9844Y-4.4085
X6.0844Y-4.1085
X6.0844Y-4.4085
X6.1844Y-4.1085
X6.1844Y-4.4085
X5.2943Y-3.908
X5.3943Y-3.908
X5.4943Y-3.908
X5.5943Y-3.908
X5.6943Y-3.908
X5.7943Y-3.908
X5.8943Y-3.908
X5.9943Y-3.908
X6.0943Y-3.908
X6.1943Y-3.908
X5.3002Y-2.0122
X5.3002Y-2.3122
X5.4002Y-2.0122
X5.4002Y-2.3122
X5.5002Y-2.0122
X5.5002Y-2.3122
X5.6002Y-2.0122
X5.6002Y-2.3122
X5.7002Y-2.0122
X5.7002Y-2.3122
X5.8002Y-2.0122
X5.8002Y-2.3122
X5.9002Y-2.0122
X5.9002Y-2.3122
X6.0002Y-2.0122
X6.0002Y-2.3122
X6.1002Y-2.0122
X6.1002Y-2.3122
X6.2002Y-2.0122
X6.2002Y-2.3122
X3.2453Y-3.8661
X3.5453Y-3.8661
X5.3002Y-2.6039
X5.3002Y-2.9039
X5.4002Y-2.6039
X5.4002Y-2.9039
X5.5002Y-2.6039
X5.5002Y-2.9039
X5.6002Y-2.6039
X5.6002Y-2.9039
X5.7002Y-2.6039
X5.7002Y-2.9039
X5.8002Y-2.6039
X5.8002Y-2.9039
X5.9002Y-2.6039
X5.9002Y-2.9039
X6.0002Y-2.6039
X6.0002Y-2.9039
X6.1002Y-2.6039
X6.1002Y-2.9039
X6.2002Y-2.6039
X6.2002Y-2.9039
X3.8061Y-4.1085
X3.8061Y-4.4085
X3.9061Y-4.1085
X3.9061Y-4.4085
X4.0061Y-4.1085
X4.0061Y-4.4085
X4.1061Y-4.1085
X4.1061Y-4.4085
X4.2061Y-4.1085
X4.2061Y-4.4085
X4.3061Y-4.1085
X4.3061Y-4.4085
X4.4061Y-4.1085
X4.4061Y-4.4085
X4.5061Y-4.1085
X4.5061Y-4.4085
X4.6061Y-4.1085
X4.6061Y-4.4085
X4.7061Y-4.1085
X4.7061Y-4.4085
X3.2549Y-3.7136
X3.5549Y-3.7136
X4.2736Y-1.5217
X4.2736Y-1.6217
X4.2736Y-1.7217
X4.2736Y-1.8217
X4.2736Y-1.9217
X4.2736Y-2.0217
X4.2736Y-2.1217
X4.2736Y-2.2217
X4.2736Y-2.3217
X4.2736Y-2.4217
X4.2736Y-2.5217
X4.2736Y-2.6217
X4.2736Y-2.7217
X4.2736Y-2.8217
X4.2736Y-2.9217
X4.2736Y-3.0217
X4.2736Y-3.1217
X4.2736Y-3.2217
X4.2736Y-3.3217
X4.2736Y-3.4217
X4.8736Y-1.5217
X4.8736Y-1.6217
X4.8736Y-1.7217
X4.8736Y-1.8217
X4.8736Y-1.9217
X4.8736Y-2.0217
X4.8736Y-2.1217
X4.8736Y-2.2217
X4.8736Y-2.3217
X4.8736Y-2.4217
X4.8736Y-2.5217
X4.8736Y-2.6217
X4.8736Y-2.7217
X4.8736Y-2.8217
X4.8736Y-2.9217
X4.8736Y-3.0217
X4.8736Y-3.1217
X4.8736Y-3.2217
X4.8736Y-3.3217
X4.8736Y-3.4217
X2.8041Y-1.811
X2.8041Y-2.111
X5.3002Y-1.4205
X5.3002Y-1.7205
X5.4002Y-1.4205
X5.4002Y-1.7205
X5.5002Y-1.4205
X5.5002Y-1.7205
X5.6002Y-1.4205
X5.6002Y-1.7205
X5.7002Y-1.4205
X5.7002Y-1.7205
X5.8002Y-1.4205
X5.8002Y-1.7205
X5.9002Y-1.4205
X5.9002Y-1.7205
X6.0002Y-1.4205
X6.0002Y-1.7205
X6.1002Y-1.4205
X6.1002Y-1.7205
X6.2002Y-1.4205
X6.2002Y-1.7205
X3.4459Y-2.949
X3.4459Y-3.249
X3.5459Y-2.949
X3.5459Y-3.249
X3.6459Y-2.949
X3.6459Y-3.249
X3.7459Y-2.949
X3.7459Y-3.249
X3.8459Y-2.949
X3.8459Y-3.249
X3.9459Y-2.949
X3.9459Y-3.249
X4.0459Y-2.949
X4.0459Y-3.249
X3.2374Y-4.6102
X3.5374Y-4.6102
X5.3002Y-3.1956
X5.3002Y-3.4956
X5.4002Y-3.1956
X5.4002Y-3.4956
X5.5002Y-3.1956
X5.5002Y-3.4956
X5.6002Y-3.1956
X5.6002Y-3.4956
X5.7002Y-3.1956
X5.7002Y-3.4956
X5.8002Y-3.1956
X5.8002Y-3.4956
X5.9002Y-3.1956
X5.9002Y-3.4956
X6.0002Y-3.1956
X6.0002Y-3.4956
X6.1002Y-3.1956
X6.1002Y-3.4956
X6.2002Y-3.1956
X6.2002Y-3.4956
T4
X3.4163Y-4.0553
X3.4163Y-4.3553
X2.8553Y-4.0638
X2.8553Y-4.1638
X2.8553Y-4.2906
X2.8553Y-4.3906
X2.8553Y-4.9709
X2.8553Y-5.0709
X2.8553Y-4.5173
X2.8553Y-4.6173
X2.8553Y-3.837
X2.8553Y-3.937
X2.8553Y-4.7441
X2.8553Y-4.8441
T5
X2.8012Y-1.4439
X2.8012Y-1.6211
T6
X5.185Y-2.6831
X5.185Y-2.8799
X3.3169Y-1.7077
X3.3169Y-1.9045
X3.3169Y-3.0
X3.3169Y-3.1969
X3.1535Y-1.4797
X3.1535Y-1.5797
X3.6841Y-4.1654
X3.6841Y-4.3622
X2.9193Y-2.3148
X2.9193Y-2.4148
X2.9193Y-2.5148
X3.9724Y-3.6565
X3.9724Y-3.8533
X6.4163Y-1.75
X6.4163Y-1.85
X6.4163Y-1.95
X6.4163Y-2.05
X6.4163Y-2.15
X6.4163Y-2.25
X6.4163Y-2.35
X6.4163Y-2.45
X6.4163Y-2.55
X6.4163Y-2.65
X6.4163Y-2.75
X6.4163Y-2.85
X6.4163Y-2.95
X6.4163Y-3.05
X6.4163Y-3.15
X6.4163Y-3.25
X6.4163Y-3.35
X6.4163Y-3.45
X6.4163Y-3.55
X6.4163Y-3.65
X6.4163Y-3.75
X6.4163Y-3.85
X6.4163Y-3.95
X6.4163Y-4.05
X6.4163Y-4.15
X6.5163Y-1.75
X6.5163Y-1.85
X6.5163Y-1.95
X6.5163Y-2.05
X6.5163Y-2.15
X6.5163Y-2.25
X6.5163Y-2.35
X6.5163Y-2.45
X6.5163Y-2.55
X6.5163Y-2.65
X6.5163Y-2.75
X6.5163Y-2.85
X6.5163Y-2.95
X6.5163Y-3.05
X6.5163Y-3.15
X6.5163Y-3.25
X6.5163Y-3.35
X6.5163Y-3.45
X6.5163Y-3.55
X6.5163Y-3.65
X6.5163Y-3.75
X6.5163Y-3.85
X6.5163Y-3.95
X6.5163Y-4.05
X6.5163Y-4.15
X2.9236Y-2.7693
X2.9236Y-2.8693
X2.9236Y-2.9693
X2.9236Y-3.0693
X2.9236Y-3.1693
X3.0236Y-2.7693
X3.0236Y-2.8693
X3.0236Y-2.9693
X3.0236Y-3.0693
X3.0236Y-3.1693
X3.9134Y-1.4124
X4.1102Y-1.4124
X5.1772Y-1.4852
X5.1772Y-1.6821
X5.1811Y-2.0689
X5.1811Y-2.2657
X5.1801Y-3.2441
X5.1801Y-3.4409
X3.3169Y-2.3474
X3.3169Y-2.5443
X5.1496Y-4.1447
X5.1496Y-4.3415
T7
X2.8992Y-1.3943
X2.8992Y-1.6703
T0
M30
